<?xml version="1.0" encoding="UTF-8" standalone="no"?>
<!DOCTYPE svg PUBLIC "-//W3C//DTD SVG 1.1//EN"
 "http://www.w3.org/Graphics/SVG/1.1/DTD/svg11.dtd">
<!-- Generated by graphviz version 2.40.1 (20161225.0304)
 -->
<!-- Title: %3 Pages: 1 -->
<svg width="452pt" height="261pt"
 viewBox="0.00 0.00 451.75 260.63" xmlns="http://www.w3.org/2000/svg" xmlns:xlink="http://www.w3.org/1999/xlink">
<g id="graph0" class="graph" transform="scale(1 1) rotate(0) translate(4 256.6346)">
<title>%3</title>
<polygon fill="#ffffff" stroke="transparent" points="-4,4 -4,-256.6346 447.7487,-256.6346 447.7487,4 -4,4"/>
<!-- center_dist -->
<g id="node1" class="node">
<title>center_dist</title>
<polygon fill="#d3d3d3" stroke="#000000" points="68,-252.6346 0,-252.6346 0,-234.6346 68,-234.6346 68,-252.6346"/>
<text text-anchor="middle" x="34" y="-241.4346" font-family="Times,serif" font-size="9.00" fill="#000000">center_dist</text>
</g>
<!-- center_dir -->
<g id="node2" class="node">
<title>center_dir</title>
<polygon fill="#d3d3d3" stroke="#000000" points="151.5,-252.6346 86.5,-252.6346 86.5,-234.6346 151.5,-234.6346 151.5,-252.6346"/>
<text text-anchor="middle" x="119" y="-241.4346" font-family="Times,serif" font-size="9.00" fill="#000000">center_dir</text>
</g>
<!-- forward -->
<g id="node5" class="node">
<title>forward</title>
<ellipse fill="#add8e6" stroke="#000000" cx="199" cy="-161.1579" rx="37.4533" ry="37.4533"/>
<text text-anchor="middle" x="199" y="-158.9579" font-family="Times,serif" font-size="9.00" fill="#000000">forward</text>
</g>
<!-- center_dir&#45;&gt;forward -->
<g id="edge2" class="edge">
<title>center_dir&#45;&gt;forward</title>
<path fill="none" stroke="#ff0000" stroke-width=".2314" d="M127.8671,-234.493C137.0128,-225.0641 151.8412,-209.7766 165.5987,-195.5933"/>
<polygon fill="#ff0000" stroke="#ff0000" stroke-width=".2314" points="168.2094,-197.9287 172.6596,-188.3138 163.1847,-193.055 168.2094,-197.9287"/>
</g>
<!-- right -->
<g id="node8" class="node">
<title>right</title>
<ellipse fill="#add8e6" stroke="#000000" cx="119" cy="-43.8406" rx="28.0702" ry="28.0702"/>
<text text-anchor="middle" x="119" y="-41.6406" font-family="Times,serif" font-size="9.00" fill="#000000">right</text>
</g>
<!-- center_dir&#45;&gt;right -->
<g id="edge4" class="edge">
<title>center_dir&#45;&gt;right</title>
<path fill="none" stroke="#00ff00" stroke-width=".5206" stroke-dasharray="1,5" d="M109.0679,-234.3753C100.8307,-225.9642 89.7316,-212.7459 85,-198.6346 74.4096,-167.0502 78.3396,-156.3212 85,-123.6812 88.1816,-108.0894 94.5259,-91.772 100.8813,-77.9822"/>
<polygon fill="#00ff00" stroke="#00ff00" stroke-width=".5206" points="104.0783,-79.4096 105.2442,-68.8791 97.7659,-76.3841 104.0783,-79.4096"/>
</g>
<!-- 103 -->
<g id="node9" class="node">
<title>103</title>
<ellipse fill="#ffffff" stroke="#000000" cx="119" cy="-161.1579" rx="25" ry="25"/>
<text text-anchor="middle" x="119" y="-158.9579" font-family="Times,serif" font-size="9.00" fill="#000000">103</text>
</g>
<!-- center_dir&#45;&gt;103 -->
<g id="edge11" class="edge">
<title>center_dir&#45;&gt;103</title>
<path fill="none" stroke="#00ff00" stroke-width=".1554" d="M119,-234.493C119,-225.2686 119,-210.4369 119,-196.5174"/>
<polygon fill="#00ff00" stroke="#00ff00" stroke-width=".1554" points="122.5001,-196.1589 119,-186.159 115.5001,-196.159 122.5001,-196.1589"/>
</g>
<!-- other_dist -->
<g id="node3" class="node">
<title>other_dist</title>
<polygon fill="#d3d3d3" stroke="#000000" points="378.5,-252.6346 315.5,-252.6346 315.5,-234.6346 378.5,-234.6346 378.5,-252.6346"/>
<text text-anchor="middle" x="347" y="-241.4346" font-family="Times,serif" font-size="9.00" fill="#000000">other_dist</text>
</g>
<!-- backward -->
<g id="node6" class="node">
<title>backward</title>
<ellipse fill="#add8e6" stroke="#000000" cx="392" cy="-43.8406" rx="43.6818" ry="43.6818"/>
<text text-anchor="middle" x="392" y="-41.6406" font-family="Times,serif" font-size="9.00" fill="#000000">backward</text>
</g>
<!-- other_dist&#45;&gt;backward -->
<g id="edge6" class="edge">
<title>other_dist&#45;&gt;backward</title>
<path fill="none" stroke="#00ff00" stroke-width=".3743" stroke-dasharray="1,5" d="M349.0505,-234.5307C354.444,-210.5841 369.3504,-144.4018 380.0886,-96.7256"/>
<polygon fill="#00ff00" stroke="#00ff00" stroke-width=".3743" points="383.5289,-97.3795 382.3118,-86.8548 376.7,-95.8414 383.5289,-97.3795"/>
</g>
<!-- left -->
<g id="node7" class="node">
<title>left</title>
<ellipse fill="#add8e6" stroke="#000000" cx="277" cy="-161.1579" rx="22.7556" ry="22.7556"/>
<text text-anchor="middle" x="277" y="-158.9579" font-family="Times,serif" font-size="9.00" fill="#000000">left</text>
</g>
<!-- other_dist&#45;&gt;left -->
<g id="edge7" class="edge">
<title>other_dist&#45;&gt;left</title>
<path fill="none" stroke="#00ff00" stroke-width=".4367" d="M339.2413,-234.493C329.4523,-222.9592 312.2231,-202.659 298.37,-186.3369"/>
<polygon fill="#00ff00" stroke="#00ff00" stroke-width=".4367" points="301.0274,-184.0589 291.888,-178.6995 295.6904,-188.5886 301.0274,-184.0589"/>
</g>
<!-- other_dist&#45;&gt;right -->
<g id="edge9" class="edge">
<title>other_dist&#45;&gt;right</title>
<path fill="none" stroke="#ff0000" stroke-width=".1918" d="M346.6326,-234.5505C345.2741,-212.6689 338.8981,-156.4326 309,-123.6812 268.663,-79.4949 199.9591,-58.9684 157.1546,-50.0452"/>
<polygon fill="#ff0000" stroke="#ff0000" stroke-width=".1918" points="157.6135,-46.5684 147.1253,-48.0679 156.2594,-53.4362 157.6135,-46.5684"/>
</g>
<!-- 185 -->
<g id="node10" class="node">
<title>185</title>
<ellipse fill="#ffffff" stroke="#000000" cx="419" cy="-161.1579" rx="25" ry="25"/>
<text text-anchor="middle" x="419" y="-158.9579" font-family="Times,serif" font-size="9.00" fill="#000000">185</text>
</g>
<!-- other_dist&#45;&gt;185 -->
<g id="edge10" class="edge">
<title>other_dist&#45;&gt;185</title>
<path fill="none" stroke="#00ff00" stroke-width=".4563" d="M354.9804,-234.493C364.7973,-223.2475 381.8893,-203.6686 395.9444,-187.5683"/>
<polygon fill="#00ff00" stroke="#00ff00" stroke-width=".4563" points="398.6153,-189.8308 402.5551,-179.9957 393.342,-185.2273 398.6153,-189.8308"/>
</g>
<!-- other_dir -->
<g id="node4" class="node">
<title>other_dir</title>
<polygon fill="#d3d3d3" stroke="#000000" points="253.5,-252.6346 194.5,-252.6346 194.5,-234.6346 253.5,-234.6346 253.5,-252.6346"/>
<text text-anchor="middle" x="224" y="-241.4346" font-family="Times,serif" font-size="9.00" fill="#000000">other_dir</text>
</g>
<!-- other_dir&#45;&gt;forward -->
<g id="edge5" class="edge">
<title>other_dir&#45;&gt;forward</title>
<path fill="none" stroke="#00ff00" stroke-width=".1833" d="M221.229,-234.493C219.1266,-227.557 216.0633,-217.4507 212.8791,-206.9458"/>
<polygon fill="#00ff00" stroke="#00ff00" stroke-width=".1833" points="216.1953,-205.8206 209.9449,-197.2659 209.4963,-207.8512 216.1953,-205.8206"/>
</g>
<!-- other_dir&#45;&gt;left -->
<g id="edge3" class="edge">
<title>other_dir&#45;&gt;left</title>
<path fill="none" stroke="#00ff00" stroke-width=".1124" d="M229.8744,-234.493C236.9239,-223.5228 249.0697,-204.622 259.2649,-188.7565"/>
<polygon fill="#00ff00" stroke="#00ff00" stroke-width=".1124" points="262.2219,-190.6292 264.6835,-180.3243 256.3329,-186.8449 262.2219,-190.6292"/>
</g>
<!-- 103&#45;&gt;right -->
<g id="edge1" class="edge">
<title>103&#45;&gt;right</title>
<path fill="none" stroke="#00ff00" stroke-width=".2414" d="M119,-136.2779C119,-120.6472 119,-100.1623 119,-82.4498"/>
<polygon fill="#00ff00" stroke="#00ff00" stroke-width=".2414" points="122.5001,-82.399 119,-72.399 115.5001,-82.399 122.5001,-82.399"/>
</g>
<!-- 185&#45;&gt;backward -->
<g id="edge8" class="edge">
<title>185&#45;&gt;backward</title>
<path fill="none" stroke="#00ff00" stroke-width=".4686" d="M413.4056,-136.8497C410.7208,-125.1842 407.392,-110.7203 404.1658,-96.7022"/>
<polygon fill="#00ff00" stroke="#00ff00" stroke-width=".4686" points="407.4992,-95.5804 401.8455,-86.6201 400.6776,-97.1504 407.4992,-95.5804"/>
</g>
</g>
</svg>
