<?xml version="1.0" encoding="UTF-8" standalone="no"?>
<!DOCTYPE svg PUBLIC "-//W3C//DTD SVG 1.1//EN"
 "http://www.w3.org/Graphics/SVG/1.1/DTD/svg11.dtd">
<!-- Generated by graphviz version 2.40.1 (20161225.0304)
 -->
<!-- Title: %3 Pages: 1 -->
<svg width="327pt" height="150pt"
 viewBox="0.00 0.00 326.98 149.68" xmlns="http://www.w3.org/2000/svg" xmlns:xlink="http://www.w3.org/1999/xlink">
<g id="graph0" class="graph" transform="scale(1 1) rotate(0) translate(4 145.6812)">
<title>%3</title>
<polygon fill="#ffffff" stroke="transparent" points="-4,4 -4,-145.6812 322.9767,-145.6812 322.9767,4 -4,4"/>
<!-- center_dist -->
<g id="node1" class="node">
<title>center_dist</title>
<polygon fill="#d3d3d3" stroke="#000000" points="71.4767,-141.6812 3.4767,-141.6812 3.4767,-123.6812 71.4767,-123.6812 71.4767,-141.6812"/>
<text text-anchor="middle" x="37.4767" y="-130.4812" font-family="Times,serif" font-size="9.00" fill="#000000">center_dist</text>
</g>
<!-- forward -->
<g id="node5" class="node">
<title>forward</title>
<ellipse fill="#add8e6" stroke="#000000" cx="37.4767" cy="-43.8406" rx="37.4533" ry="37.4533"/>
<text text-anchor="middle" x="37.4767" y="-41.6406" font-family="Times,serif" font-size="9.00" fill="#000000">forward</text>
</g>
<!-- center_dist&#45;&gt;forward -->
<g id="edge2" class="edge">
<title>center_dist&#45;&gt;forward</title>
<path fill="none" stroke="#00ff00" stroke-width=".1632" d="M37.4767,-123.5083C37.4767,-115.75 37.4767,-103.9881 37.4767,-91.8657"/>
<polygon fill="#00ff00" stroke="#00ff00" stroke-width=".1632" points="40.9768,-91.678 37.4767,-81.6781 33.9768,-91.6781 40.9768,-91.678"/>
</g>
<!-- center_dir -->
<g id="node2" class="node">
<title>center_dir</title>
<polygon fill="#d3d3d3" stroke="#000000" points="156.9767,-141.6812 91.9767,-141.6812 91.9767,-123.6812 156.9767,-123.6812 156.9767,-141.6812"/>
<text text-anchor="middle" x="124.4767" y="-130.4812" font-family="Times,serif" font-size="9.00" fill="#000000">center_dir</text>
</g>
<!-- center_dir&#45;&gt;forward -->
<g id="edge8" class="edge">
<title>center_dir&#45;&gt;forward</title>
<path fill="none" stroke="#ff0000" stroke-width=".4729" d="M115.4938,-123.5083C105.0275,-112.8206 87.1206,-94.5349 71.1005,-78.1758"/>
<polygon fill="#ff0000" stroke="#ff0000" stroke-width=".4729" points="73.4035,-75.5251 63.9061,-70.8293 68.4022,-80.4228 73.4035,-75.5251"/>
</g>
<!-- backward -->
<g id="node6" class="node">
<title>backward</title>
<ellipse fill="#add8e6" stroke="#000000" cx="136.4767" cy="-43.8406" rx="43.6818" ry="43.6818"/>
<text text-anchor="middle" x="136.4767" y="-41.6406" font-family="Times,serif" font-size="9.00" fill="#000000">backward</text>
</g>
<!-- center_dir&#45;&gt;backward -->
<g id="edge1" class="edge">
<title>center_dir&#45;&gt;backward</title>
<path fill="none" stroke="#ff0000" stroke-width=".3864" d="M125.7157,-123.5083C126.5959,-116.9914 127.8578,-107.6494 129.2096,-97.6418"/>
<polygon fill="#ff0000" stroke="#ff0000" stroke-width=".3864" points="132.7103,-97.8709 130.5805,-87.4923 125.7733,-96.9338 132.7103,-97.8709"/>
</g>
<!-- other_dist -->
<g id="node3" class="node">
<title>other_dist</title>
<polygon fill="#d3d3d3" stroke="#000000" points="240.9767,-141.6812 177.9767,-141.6812 177.9767,-123.6812 240.9767,-123.6812 240.9767,-141.6812"/>
<text text-anchor="middle" x="209.4767" y="-130.4812" font-family="Times,serif" font-size="9.00" fill="#000000">other_dist</text>
</g>
<!-- other_dist&#45;&gt;forward -->
<g id="edge3" class="edge">
<title>other_dist&#45;&gt;forward</title>
<path fill="none" stroke="#00ff00" stroke-width=".3786" d="M177.8163,-125.3255C151.3007,-118.2663 113.1406,-105.9581 83.4767,-87.6812 79.1268,-85.0011 74.8452,-81.8559 70.7497,-78.5016"/>
<polygon fill="#00ff00" stroke="#00ff00" stroke-width=".3786" points="72.9713,-75.795 63.134,-71.8607 68.3707,-81.0709 72.9713,-75.795"/>
</g>
<!-- other_dist&#45;&gt;backward -->
<g id="edge4" class="edge">
<title>other_dist&#45;&gt;backward</title>
<path fill="none" stroke="#ff0000" stroke-width=".1305" d="M201.9393,-123.5083C194.5011,-114.4561 182.5842,-99.9532 170.9438,-85.787"/>
<polygon fill="#ff0000" stroke="#ff0000" stroke-width=".1305" points="173.5885,-83.4925 164.5356,-77.9882 168.1801,-87.9365 173.5885,-83.4925"/>
</g>
<!-- left -->
<g id="node7" class="node">
<title>left</title>
<ellipse fill="#add8e6" stroke="#000000" cx="220.4767" cy="-43.8406" rx="22.7556" ry="22.7556"/>
<text text-anchor="middle" x="220.4767" y="-41.6406" font-family="Times,serif" font-size="9.00" fill="#000000">left</text>
</g>
<!-- other_dist&#45;&gt;left -->
<g id="edge5" class="edge">
<title>other_dist&#45;&gt;left</title>
<path fill="none" stroke="#00ff00" stroke-width=".2627" d="M210.6124,-123.5083C211.9761,-112.4943 214.3389,-93.4114 216.4102,-76.6833"/>
<polygon fill="#00ff00" stroke="#00ff00" stroke-width=".2627" points="219.8952,-77.0195 217.6506,-66.6652 212.9482,-76.1593 219.8952,-77.0195"/>
</g>
<!-- right -->
<g id="node8" class="node">
<title>right</title>
<ellipse fill="#add8e6" stroke="#000000" cx="289.4767" cy="-43.8406" rx="28.0702" ry="28.0702"/>
<text text-anchor="middle" x="289.4767" y="-41.6406" font-family="Times,serif" font-size="9.00" fill="#000000">right</text>
</g>
<!-- other_dist&#45;&gt;right -->
<g id="edge7" class="edge">
<title>other_dist&#45;&gt;right</title>
<path fill="none" stroke="#ff0000" stroke-width=".3996" d="M218.5407,-123.5307C227.3622,-114.5474 241.0678,-100.3829 252.4767,-87.6812 256.4844,-83.2193 260.654,-78.4308 264.6875,-73.7161"/>
<polygon fill="#ff0000" stroke="#ff0000" stroke-width=".3996" points="267.498,-75.8133 271.2946,-65.9221 262.1584,-71.2868 267.498,-75.8133"/>
</g>
<!-- other_dir -->
<g id="node4" class="node">
<title>other_dir</title>
<polygon fill="#d3d3d3" stroke="#000000" points="318.9767,-141.6812 259.9767,-141.6812 259.9767,-123.6812 318.9767,-123.6812 318.9767,-141.6812"/>
<text text-anchor="middle" x="289.4767" y="-130.4812" font-family="Times,serif" font-size="9.00" fill="#000000">other_dir</text>
</g>
<!-- other_dir&#45;&gt;right -->
<g id="edge6" class="edge">
<title>other_dir&#45;&gt;right</title>
<path fill="none" stroke="#ff0000" stroke-width=".336" d="M289.4767,-123.5083C289.4767,-113.7827 289.4767,-97.7656 289.4767,-82.6339"/>
<polygon fill="#ff0000" stroke="#ff0000" stroke-width=".336" points="292.9768,-82.3877 289.4767,-72.3877 285.9768,-82.3877 292.9768,-82.3877"/>
</g>
</g>
</svg>
