<?xml version="1.0" encoding="UTF-8" standalone="no"?>
<!DOCTYPE svg PUBLIC "-//W3C//DTD SVG 1.1//EN"
 "http://www.w3.org/Graphics/SVG/1.1/DTD/svg11.dtd">
<!-- Generated by graphviz version 2.40.1 (20161225.0304)
 -->
<!-- Title: %3 Pages: 1 -->
<svg width="442pt" height="227pt"
 viewBox="0.00 0.00 442.32 226.69" xmlns="http://www.w3.org/2000/svg" xmlns:xlink="http://www.w3.org/1999/xlink">
<g id="graph0" class="graph" transform="scale(1 1) rotate(0) translate(4 222.6934)">
<title>%3</title>
<polygon fill="#ffffff" stroke="transparent" points="-4,4 -4,-222.6934 438.3173,-222.6934 438.3173,4 -4,4"/>
<!-- center_dist -->
<g id="node1" class="node">
<title>center_dist</title>
<polygon fill="#d3d3d3" stroke="#000000" points="71.4767,-153.1873 3.4767,-153.1873 3.4767,-135.1873 71.4767,-135.1873 71.4767,-153.1873"/>
<text text-anchor="middle" x="37.4767" y="-141.9873" font-family="Times,serif" font-size="9.00" fill="#000000">center_dist</text>
</g>
<!-- forward -->
<g id="node5" class="node">
<title>forward</title>
<ellipse fill="#add8e6" stroke="#000000" cx="37.4767" cy="-43.8406" rx="37.4533" ry="37.4533"/>
<text text-anchor="middle" x="37.4767" y="-41.6406" font-family="Times,serif" font-size="9.00" fill="#000000">forward</text>
</g>
<!-- center_dist&#45;&gt;forward -->
<g id="edge3" class="edge">
<title>center_dist&#45;&gt;forward</title>
<path fill="none" stroke="#ff0000" stroke-width=".4429" d="M37.4767,-134.9268C37.4767,-124.8819 37.4767,-108.0674 37.4767,-91.6003"/>
<polygon fill="#ff0000" stroke="#ff0000" stroke-width=".4429" points="40.9768,-91.4558 37.4767,-81.4558 33.9768,-91.4559 40.9768,-91.4558"/>
</g>
<!-- left -->
<g id="node7" class="node">
<title>left</title>
<ellipse fill="#add8e6" stroke="#000000" cx="189.4767" cy="-43.8406" rx="22.7556" ry="22.7556"/>
<text text-anchor="middle" x="189.4767" y="-41.6406" font-family="Times,serif" font-size="9.00" fill="#000000">left</text>
</g>
<!-- center_dist&#45;&gt;left -->
<g id="edge2" class="edge">
<title>center_dist&#45;&gt;left</title>
<path fill="none" stroke="#00ff00" stroke-width=".361" d="M51.2337,-135.1053C76.0827,-118.7006 128.8995,-83.8322 161.5761,-62.2599"/>
<polygon fill="#00ff00" stroke="#00ff00" stroke-width=".361" points="163.8014,-64.9848 170.2185,-56.5544 159.9448,-59.143 163.8014,-64.9848"/>
</g>
<!-- center_dir -->
<g id="node2" class="node">
<title>center_dir</title>
<polygon fill="#d3d3d3" stroke="#000000" points="392.9767,-153.1873 327.9767,-153.1873 327.9767,-135.1873 392.9767,-135.1873 392.9767,-153.1873"/>
<text text-anchor="middle" x="360.4767" y="-141.9873" font-family="Times,serif" font-size="9.00" fill="#000000">center_dir</text>
</g>
<!-- backward -->
<g id="node6" class="node">
<title>backward</title>
<ellipse fill="#add8e6" stroke="#000000" cx="390.4767" cy="-43.8406" rx="43.6818" ry="43.6818"/>
<text text-anchor="middle" x="390.4767" y="-41.6406" font-family="Times,serif" font-size="9.00" fill="#000000">backward</text>
</g>
<!-- center_dir&#45;&gt;backward -->
<g id="edge1" class="edge">
<title>center_dir&#45;&gt;backward</title>
<path fill="none" stroke="#00ff00" stroke-width=".1784" d="M363.2452,-134.9268C365.982,-125.7727 370.3996,-110.9963 374.8876,-95.9844"/>
<polygon fill="#00ff00" stroke="#00ff00" stroke-width=".1784" points="378.319,-96.7257 377.83,-86.1422 371.6123,-94.7206 378.319,-96.7257"/>
</g>
<!-- center_dir&#45;&gt;left -->
<g id="edge5" class="edge">
<title>center_dir&#45;&gt;left</title>
<path fill="none" stroke="#ff0000" stroke-width=".2792" d="M344.6627,-135.0229C325.445,-123.8749 292.0435,-104.4637 263.4767,-87.6812 248.4127,-78.8315 231.6612,-68.9137 217.9112,-60.7525"/>
<polygon fill="#ff0000" stroke="#ff0000" stroke-width=".2792" points="219.3143,-57.5151 208.9291,-55.4179 215.7398,-63.5337 219.3143,-57.5151"/>
</g>
<!-- right -->
<g id="node8" class="node">
<title>right</title>
<ellipse fill="#add8e6" stroke="#000000" cx="300.4767" cy="-43.8406" rx="28.0702" ry="28.0702"/>
<text text-anchor="middle" x="300.4767" y="-41.6406" font-family="Times,serif" font-size="9.00" fill="#000000">right</text>
</g>
<!-- center_dir&#45;&gt;right -->
<g id="edge4" class="edge">
<title>center_dir&#45;&gt;right</title>
<path fill="none" stroke="#00ff00" stroke-width=".1634" d="M354.9396,-134.9268C347.1055,-121.8248 332.3851,-97.2057 320.2215,-76.8628"/>
<polygon fill="#00ff00" stroke="#00ff00" stroke-width=".1634" points="323.156,-74.9504 315.0201,-68.1638 317.1481,-78.5427 323.156,-74.9504"/>
</g>
<!-- other_dist -->
<g id="node3" class="node">
<title>other_dist</title>
<polygon fill="#d3d3d3" stroke="#000000" points="250.9767,-153.1873 187.9767,-153.1873 187.9767,-135.1873 250.9767,-135.1873 250.9767,-153.1873"/>
<text text-anchor="middle" x="219.4767" y="-141.9873" font-family="Times,serif" font-size="9.00" fill="#000000">other_dist</text>
</g>
<!-- other_dist&#45;&gt;left -->
<g id="edge8" class="edge">
<title>other_dist&#45;&gt;left</title>
<path fill="none" stroke="#ff0000" stroke-width=".2812" stroke-dasharray="1,5" d="M216.7081,-134.9268C212.6942,-121.5007 205.0646,-95.9807 198.9002,-75.3613"/>
<polygon fill="#ff0000" stroke="#ff0000" stroke-width=".2812" points="202.2317,-74.2856 196.014,-65.7072 195.525,-76.2907 202.2317,-74.2856"/>
</g>
<!-- other_dir -->
<g id="node4" class="node">
<title>other_dir</title>
<polygon fill="#d3d3d3" stroke="#000000" points="318.9767,-218.6934 259.9767,-218.6934 259.9767,-200.6934 318.9767,-200.6934 318.9767,-218.6934"/>
<text text-anchor="middle" x="289.4767" y="-207.4934" font-family="Times,serif" font-size="9.00" fill="#000000">other_dir</text>
</g>
<!-- other_dir&#45;&gt;backward -->
<g id="edge11" class="edge">
<title>other_dir&#45;&gt;backward</title>
<path fill="none" stroke="#ff0000" stroke-width=".308" d="M319.0124,-206.9794C345.8278,-202.7722 383.9286,-192.0446 402.4767,-164.6934 416.2484,-144.3855 415.0193,-117.5667 409.5819,-94.3532"/>
<polygon fill="#ff0000" stroke="#ff0000" stroke-width=".308" points="412.9588,-93.4323 407.0254,-84.6548 406.19,-95.2166 412.9588,-93.4323"/>
</g>
<!-- other_dir&#45;&gt;left -->
<g id="edge7" class="edge">
<title>other_dir&#45;&gt;left</title>
<path fill="none" stroke="#00ff00" stroke-width=".4471" d="M259.9452,-206.6063C233.8679,-202.142 197.303,-191.2464 179.4767,-164.6934 161.6581,-138.1521 168.4955,-100.5784 177.0088,-74.3975"/>
<polygon fill="#00ff00" stroke="#00ff00" stroke-width=".4471" points="180.4289,-75.221 180.4339,-64.6261 173.823,-72.9054 180.4289,-75.221"/>
</g>
<!-- 95 -->
<g id="node10" class="node">
<title>95</title>
<ellipse fill="#ffffff" stroke="#000000" cx="289.4767" cy="-144.1873" rx="20.5122" ry="20.5122"/>
<text text-anchor="middle" x="289.4767" y="-141.9873" font-family="Times,serif" font-size="9.00" fill="#000000">95</text>
</g>
<!-- other_dir&#45;&gt;95 -->
<g id="edge6" class="edge">
<title>other_dir&#45;&gt;95</title>
<path fill="none" stroke="#00ff00" stroke-width=".2546" d="M289.4767,-200.5851C289.4767,-193.893 289.4767,-184.3812 289.4767,-175.0713"/>
<polygon fill="#00ff00" stroke="#00ff00" stroke-width=".2546" points="292.9768,-174.8071 289.4767,-164.8071 285.9768,-174.8072 292.9768,-174.8071"/>
</g>
<!-- 31 -->
<g id="node9" class="node">
<title>31</title>
<ellipse fill="#ffffff" stroke="#000000" cx="110.4767" cy="-144.1873" rx="20.5122" ry="20.5122"/>
<text text-anchor="middle" x="110.4767" y="-141.9873" font-family="Times,serif" font-size="9.00" fill="#000000">31</text>
</g>
<!-- 31&#45;&gt;left -->
<g id="edge9" class="edge">
<title>31&#45;&gt;left</title>
<path fill="none" stroke="#ff0000" stroke-width=".3183" d="M123.1694,-128.0649C135.4998,-112.4027 154.429,-88.3585 168.9107,-69.9637"/>
<polygon fill="#ff0000" stroke="#ff0000" stroke-width=".3183" points="171.776,-71.9823 175.2118,-61.96 166.276,-67.6522 171.776,-71.9823"/>
</g>
<!-- 95&#45;&gt;backward -->
<g id="edge12" class="edge">
<title>95&#45;&gt;backward</title>
<path fill="none" stroke="#00ff00" stroke-width=".1673" d="M304.3796,-129.3808C316.8468,-116.9942 335.2034,-98.7563 351.7675,-82.2994"/>
<polygon fill="#00ff00" stroke="#00ff00" stroke-width=".1673" points="354.5971,-84.4219 359.2242,-74.8909 349.6634,-79.4561 354.5971,-84.4219"/>
</g>
<!-- 95&#45;&gt;left -->
<g id="edge10" class="edge">
<title>95&#45;&gt;left</title>
<path fill="none" stroke="#00ff00" stroke-width=".2949" d="M274.7213,-129.3808C258.414,-113.017 231.9298,-86.441 212.8056,-67.2504"/>
<polygon fill="#00ff00" stroke="#00ff00" stroke-width=".2949" points="215.1578,-64.6524 205.6198,-60.0397 210.1995,-69.5936 215.1578,-64.6524"/>
</g>
</g>
</svg>
