<?xml version="1.0" encoding="UTF-8" standalone="no"?>
<!DOCTYPE svg PUBLIC "-//W3C//DTD SVG 1.1//EN"
 "http://www.w3.org/Graphics/SVG/1.1/DTD/svg11.dtd">
<!-- Generated by graphviz version 2.40.1 (20161225.0304)
 -->
<!-- Title: %3 Pages: 1 -->
<svg width="363pt" height="380pt"
 viewBox="0.00 0.00 362.51 380.46" xmlns="http://www.w3.org/2000/svg" xmlns:xlink="http://www.w3.org/1999/xlink">
<g id="graph0" class="graph" transform="scale(1 1) rotate(0) translate(4 376.4579)">
<title>%3</title>
<polygon fill="#ffffff" stroke="transparent" points="-4,4 -4,-376.4579 358.5109,-376.4579 358.5109,4 -4,4"/>
<!-- center_dist -->
<g id="node1" class="node">
<title>center_dist</title>
<polygon fill="#d3d3d3" stroke="#000000" points="248.6703,-337.6173 180.6703,-337.6173 180.6703,-319.6173 248.6703,-319.6173 248.6703,-337.6173"/>
<text text-anchor="middle" x="214.6703" y="-326.4173" font-family="Times,serif" font-size="9.00" fill="#000000">center_dist</text>
</g>
<!-- left -->
<g id="node7" class="node">
<title>left</title>
<ellipse fill="#add8e6" stroke="#000000" cx="214.6703" cy="-226.1493" rx="22.7556" ry="22.7556"/>
<text text-anchor="middle" x="214.6703" y="-223.9493" font-family="Times,serif" font-size="9.00" fill="#000000">left</text>
</g>
<!-- center_dist&#45;&gt;left -->
<g id="edge5" class="edge">
<title>center_dist&#45;&gt;left</title>
<path fill="none" stroke="#00ff00" stroke-width=".1967" d="M214.6703,-319.524C214.6703,-306.1157 214.6703,-280.3524 214.6703,-259.2787"/>
<polygon fill="#00ff00" stroke="#00ff00" stroke-width=".1967" points="218.1704,-259.0813 214.6703,-249.0813 211.1704,-259.0813 218.1704,-259.0813"/>
</g>
<!-- center_dir -->
<g id="node2" class="node">
<title>center_dir</title>
<polygon fill="#d3d3d3" stroke="#000000" points="75.1703,-337.6173 10.1703,-337.6173 10.1703,-319.6173 75.1703,-319.6173 75.1703,-337.6173"/>
<text text-anchor="middle" x="42.6703" y="-326.4173" font-family="Times,serif" font-size="9.00" fill="#000000">center_dir</text>
</g>
<!-- forward -->
<g id="node5" class="node">
<title>forward</title>
<ellipse fill="#add8e6" stroke="#000000" cx="42.6703" cy="-37.4767" rx="37.4533" ry="37.4533"/>
<text text-anchor="middle" x="42.6703" y="-35.2767" font-family="Times,serif" font-size="9.00" fill="#000000">forward</text>
</g>
<!-- center_dir&#45;&gt;forward -->
<g id="edge3" class="edge">
<title>center_dir&#45;&gt;forward</title>
<path fill="none" stroke="#ff0000" stroke-width=".4709" d="M36.3633,-319.3174C27.0382,-304.9452 9.9943,-276.1315 3.6703,-248.7767 -.4488,-230.959 -2.2053,-138.5651 4.6703,-110.9533 7.4616,-99.7437 12.2504,-88.3243 17.5059,-77.9336"/>
<polygon fill="#ff0000" stroke="#ff0000" stroke-width=".4709" points="20.5995,-79.5706 22.2061,-69.0983 14.4195,-76.283 20.5995,-79.5706"/>
</g>
<!-- center_dir&#45;&gt;left -->
<g id="edge1" class="edge">
<title>center_dir&#45;&gt;left</title>
<path fill="none" stroke="#ff0000" stroke-width=".3653" d="M60.4187,-319.4171C87.5308,-305.175 140.6457,-276.5291 183.6703,-248.7767 185.1331,-247.8331 186.6202,-246.8465 188.1114,-245.8354"/>
<polygon fill="#ff0000" stroke="#ff0000" stroke-width=".3653" points="190.3827,-248.5173 196.5562,-239.9068 186.3606,-242.7881 190.3827,-248.5173"/>
</g>
<!-- other_dist -->
<g id="node3" class="node">
<title>other_dist</title>
<polygon fill="#d3d3d3" stroke="#000000" points="174.1703,-235.1493 111.1703,-235.1493 111.1703,-217.1493 174.1703,-217.1493 174.1703,-235.1493"/>
<text text-anchor="middle" x="142.6703" y="-223.9493" font-family="Times,serif" font-size="9.00" fill="#000000">other_dist</text>
</g>
<!-- other_dist&#45;&gt;forward -->
<g id="edge6" class="edge">
<title>other_dist&#45;&gt;forward</title>
<path fill="none" stroke="#ff0000" stroke-width=".2028" stroke-dasharray="1,5" d="M145.803,-217.1258C152.2813,-196.8119 165.0759,-146.4928 146.6703,-110.9533 133.9819,-86.4532 108.947,-68.3781 86.6197,-56.2864"/>
<polygon fill="#ff0000" stroke="#ff0000" stroke-width=".2028" points="88.0767,-53.0999 77.5846,-51.6281 84.8689,-59.3216 88.0767,-53.0999"/>
</g>
<!-- right -->
<g id="node8" class="node">
<title>right</title>
<ellipse fill="#add8e6" stroke="#000000" cx="109.6703" cy="-139.2376" rx="28.0702" ry="28.0702"/>
<text text-anchor="middle" x="109.6703" y="-137.0376" font-family="Times,serif" font-size="9.00" fill="#000000">right</text>
</g>
<!-- other_dist&#45;&gt;right -->
<g id="edge9" class="edge">
<title>other_dist&#45;&gt;right</title>
<path fill="none" stroke="#00ff00" stroke-width=".4026" d="M139.1387,-216.8482C135.3742,-206.9337 129.1768,-190.6116 123.4342,-175.4874"/>
<polygon fill="#00ff00" stroke="#00ff00" stroke-width=".4026" points="126.5781,-173.9074 119.7563,-165.801 120.034,-176.3922 126.5781,-173.9074"/>
</g>
<!-- 26 -->
<g id="node10" class="node">
<title>26</title>
<ellipse fill="#ffffff" stroke="#000000" cx="214.6703" cy="-139.2376" rx="20.5122" ry="20.5122"/>
<text text-anchor="middle" x="214.6703" y="-137.0376" font-family="Times,serif" font-size="9.00" fill="#000000">26</text>
</g>
<!-- other_dist&#45;&gt;26 -->
<g id="edge11" class="edge">
<title>other_dist&#45;&gt;26</title>
<path fill="none" stroke="#ff0000" stroke-width=".3629" stroke-dasharray="1,5" d="M150.3756,-216.8482C160.9459,-204.0887 180.3081,-180.7164 195.032,-162.9431"/>
<polygon fill="#ff0000" stroke="#ff0000" stroke-width=".3629" points="197.7382,-165.1628 201.4225,-155.2291 192.3476,-160.6971 197.7382,-165.1628"/>
</g>
<!-- other_dir -->
<g id="node4" class="node">
<title>other_dir</title>
<polygon fill="#d3d3d3" stroke="#000000" points="72.1703,-235.1493 13.1703,-235.1493 13.1703,-217.1493 72.1703,-217.1493 72.1703,-235.1493"/>
<text text-anchor="middle" x="42.6703" y="-223.9493" font-family="Times,serif" font-size="9.00" fill="#000000">other_dir</text>
</g>
<!-- other_dir&#45;&gt;forward -->
<g id="edge8" class="edge">
<title>other_dir&#45;&gt;forward</title>
<path fill="none" stroke="#00ff00" stroke-width=".3801" stroke-dasharray="1,5" d="M36.3299,-217.1431C28.9593,-206.0711 17.2241,-186.4179 12.6703,-167.5219 6.78,-143.08 7.8279,-135.6241 12.6703,-110.9533 14.6607,-100.8128 18.0598,-90.3075 21.8713,-80.5214"/>
<polygon fill="#00ff00" stroke="#00ff00" stroke-width=".3801" points="25.2143,-81.5948 25.7834,-71.0153 18.741,-78.9308 25.2143,-81.5948"/>
</g>
<!-- other_dir&#45;&gt;right -->
<g id="edge7" class="edge">
<title>other_dir&#45;&gt;right</title>
<path fill="none" stroke="#ff0000" stroke-width=".2523" d="M49.8405,-216.8482C58.4071,-205.7356 73.1794,-186.5732 85.9014,-170.0704"/>
<polygon fill="#ff0000" stroke="#ff0000" stroke-width=".2523" points="88.9901,-171.7964 92.3236,-161.7396 83.4462,-167.5226 88.9901,-171.7964"/>
</g>
<!-- 39 -->
<g id="node9" class="node">
<title>39</title>
<ellipse fill="#ffffff" stroke="#000000" cx="42.6703" cy="-139.2376" rx="20.5122" ry="20.5122"/>
<text text-anchor="middle" x="42.6703" y="-137.0376" font-family="Times,serif" font-size="9.00" fill="#000000">39</text>
</g>
<!-- other_dir&#45;&gt;39 -->
<g id="edge10" class="edge">
<title>other_dir&#45;&gt;39</title>
<path fill="none" stroke="#00ff00" stroke-width="1.043" d="M42.6703,-216.8482C42.6703,-205.7842 42.6703,-186.7406 42.6703,-170.287"/>
<polygon fill="#00ff00" stroke="#00ff00" stroke-width="1.043" points="46.1704,-169.9584 42.6703,-159.9585 39.1704,-169.9585 46.1704,-169.9584"/>
</g>
<!-- backward -->
<g id="node6" class="node">
<title>backward</title>
<ellipse fill="#add8e6" stroke="#000000" cx="310.6703" cy="-328.6173" rx="43.6818" ry="43.6818"/>
<text text-anchor="middle" x="310.6703" y="-326.4173" font-family="Times,serif" font-size="9.00" fill="#000000">backward</text>
</g>
<!-- left&#45;&gt;26 -->
<g id="edge12" class="edge">
<title>left&#45;&gt;26</title>
<path fill="none" stroke="#00ff00" stroke-width=".2301" d="M214.6703,-203.3143C214.6703,-193.0999 214.6703,-180.9068 214.6703,-169.9119"/>
<polygon fill="#00ff00" stroke="#00ff00" stroke-width=".2301" points="218.1704,-169.8413 214.6703,-159.8413 211.1704,-169.8414 218.1704,-169.8413"/>
</g>
<!-- 39&#45;&gt;forward -->
<g id="edge2" class="edge">
<title>39&#45;&gt;forward</title>
<path fill="none" stroke="#ff0000" stroke-width=".5831" d="M42.6703,-118.6447C42.6703,-109.0323 42.6703,-97.1522 42.6703,-85.4752"/>
<polygon fill="#ff0000" stroke="#ff0000" stroke-width=".5831" points="46.1704,-85.328 42.6703,-75.328 39.1704,-85.328 46.1704,-85.328"/>
</g>
<!-- 26&#45;&gt;forward -->
<g id="edge4" class="edge">
<title>26&#45;&gt;forward</title>
<path fill="none" stroke="#00ff00" stroke-width=".3306" d="M199.1195,-125.63C193.2146,-120.7455 186.3096,-115.3602 179.6703,-110.9533 149.4666,-90.9057 113.2434,-71.6682 85.6318,-57.9094"/>
<polygon fill="#00ff00" stroke="#00ff00" stroke-width=".3306" points="87.1354,-54.7485 76.6191,-53.4602 84.0367,-61.0253 87.1354,-54.7485"/>
</g>
</g>
</svg>
