<?xml version="1.0" encoding="utf-8" standalone="no"?>
<!DOCTYPE svg PUBLIC "-//W3C//DTD SVG 1.1//EN"
  "http://www.w3.org/Graphics/SVG/1.1/DTD/svg11.dtd">
<!-- Created with matplotlib (http://matplotlib.org/) -->
<svg height="345pt" version="1.1" viewBox="0 0 460 345" width="460pt" xmlns="http://www.w3.org/2000/svg" xmlns:xlink="http://www.w3.org/1999/xlink">
 <defs>
  <style type="text/css">
*{stroke-linecap:butt;stroke-linejoin:round;}
  </style>
 </defs>
 <g id="figure_1">
  <g id="patch_1">
   <path d="M 0 345.6 
L 460.8 345.6 
L 460.8 0 
L 0 0 
z
" style="fill:#ffffff;"/>
  </g>
  <g id="axes_1">
   <g id="patch_2">
    <path d="M 57.6 307.584 
L 414.72 307.584 
L 414.72 41.472 
L 57.6 41.472 
z
" style="fill:#ffffff;"/>
   </g>
   <g id="matplotlib.axis_1">
    <g id="xtick_1">
     <g id="line2d_1">
      <path clip-path="url(#p2606894bfc)" d="M 73.832727 307.584 
L 73.832727 41.472 
" style="fill:none;stroke:#b0b0b0;stroke-linecap:square;stroke-width:0.8;"/>
     </g>
     <g id="line2d_2">
      <defs>
       <path d="M 0 0 
L 0 3.5 
" id="m7f0d7fc2dc" style="stroke:#000000;stroke-width:0.8;"/>
      </defs>
      <g>
       <use style="stroke:#000000;stroke-width:0.8;" x="73.832727" xlink:href="#m7f0d7fc2dc" y="307.584"/>
      </g>
     </g>
     <g id="text_1">
      <!-- 0 -->
      <defs>
       <path d="M 31.78125 66.40625 
Q 24.171875 66.40625 20.328125 58.90625 
Q 16.5 51.421875 16.5 36.375 
Q 16.5 21.390625 20.328125 13.890625 
Q 24.171875 6.390625 31.78125 6.390625 
Q 39.453125 6.390625 43.28125 13.890625 
Q 47.125 21.390625 47.125 36.375 
Q 47.125 51.421875 43.28125 58.90625 
Q 39.453125 66.40625 31.78125 66.40625 
z
M 31.78125 74.21875 
Q 44.046875 74.21875 50.515625 64.515625 
Q 56.984375 54.828125 56.984375 36.375 
Q 56.984375 17.96875 50.515625 8.265625 
Q 44.046875 -1.421875 31.78125 -1.421875 
Q 19.53125 -1.421875 13.0625 8.265625 
Q 6.59375 17.96875 6.59375 36.375 
Q 6.59375 54.828125 13.0625 64.515625 
Q 19.53125 74.21875 31.78125 74.21875 
z
" id="DejaVuSans-30"/>
      </defs>
      <g transform="translate(70.651477 322.182437)scale(0.1 -0.1)">
       <use xlink:href="#DejaVuSans-30"/>
      </g>
     </g>
    </g>
    <g id="xtick_2">
     <g id="line2d_3">
      <path clip-path="url(#p2606894bfc)" d="M 138.828632 307.584 
L 138.828632 41.472 
" style="fill:none;stroke:#b0b0b0;stroke-linecap:square;stroke-width:0.8;"/>
     </g>
     <g id="line2d_4">
      <g>
       <use style="stroke:#000000;stroke-width:0.8;" x="138.828632" xlink:href="#m7f0d7fc2dc" y="307.584"/>
      </g>
     </g>
     <g id="text_2">
      <!-- 200 -->
      <defs>
       <path d="M 19.1875 8.296875 
L 53.609375 8.296875 
L 53.609375 0 
L 7.328125 0 
L 7.328125 8.296875 
Q 12.9375 14.109375 22.625 23.890625 
Q 32.328125 33.6875 34.8125 36.53125 
Q 39.546875 41.84375 41.421875 45.53125 
Q 43.3125 49.21875 43.3125 52.78125 
Q 43.3125 58.59375 39.234375 62.25 
Q 35.15625 65.921875 28.609375 65.921875 
Q 23.96875 65.921875 18.8125 64.3125 
Q 13.671875 62.703125 7.8125 59.421875 
L 7.8125 69.390625 
Q 13.765625 71.78125 18.9375 73 
Q 24.125 74.21875 28.421875 74.21875 
Q 39.75 74.21875 46.484375 68.546875 
Q 53.21875 62.890625 53.21875 53.421875 
Q 53.21875 48.921875 51.53125 44.890625 
Q 49.859375 40.875 45.40625 35.40625 
Q 44.1875 33.984375 37.640625 27.21875 
Q 31.109375 20.453125 19.1875 8.296875 
z
" id="DejaVuSans-32"/>
      </defs>
      <g transform="translate(129.284882 322.182437)scale(0.1 -0.1)">
       <use xlink:href="#DejaVuSans-32"/>
       <use x="63.623047" xlink:href="#DejaVuSans-30"/>
       <use x="127.246094" xlink:href="#DejaVuSans-30"/>
      </g>
     </g>
    </g>
    <g id="xtick_3">
     <g id="line2d_5">
      <path clip-path="url(#p2606894bfc)" d="M 203.824537 307.584 
L 203.824537 41.472 
" style="fill:none;stroke:#b0b0b0;stroke-linecap:square;stroke-width:0.8;"/>
     </g>
     <g id="line2d_6">
      <g>
       <use style="stroke:#000000;stroke-width:0.8;" x="203.824537" xlink:href="#m7f0d7fc2dc" y="307.584"/>
      </g>
     </g>
     <g id="text_3">
      <!-- 400 -->
      <defs>
       <path d="M 37.796875 64.3125 
L 12.890625 25.390625 
L 37.796875 25.390625 
z
M 35.203125 72.90625 
L 47.609375 72.90625 
L 47.609375 25.390625 
L 58.015625 25.390625 
L 58.015625 17.1875 
L 47.609375 17.1875 
L 47.609375 0 
L 37.796875 0 
L 37.796875 17.1875 
L 4.890625 17.1875 
L 4.890625 26.703125 
z
" id="DejaVuSans-34"/>
      </defs>
      <g transform="translate(194.280787 322.182437)scale(0.1 -0.1)">
       <use xlink:href="#DejaVuSans-34"/>
       <use x="63.623047" xlink:href="#DejaVuSans-30"/>
       <use x="127.246094" xlink:href="#DejaVuSans-30"/>
      </g>
     </g>
    </g>
    <g id="xtick_4">
     <g id="line2d_7">
      <path clip-path="url(#p2606894bfc)" d="M 268.820442 307.584 
L 268.820442 41.472 
" style="fill:none;stroke:#b0b0b0;stroke-linecap:square;stroke-width:0.8;"/>
     </g>
     <g id="line2d_8">
      <g>
       <use style="stroke:#000000;stroke-width:0.8;" x="268.820442" xlink:href="#m7f0d7fc2dc" y="307.584"/>
      </g>
     </g>
     <g id="text_4">
      <!-- 600 -->
      <defs>
       <path d="M 33.015625 40.375 
Q 26.375 40.375 22.484375 35.828125 
Q 18.609375 31.296875 18.609375 23.390625 
Q 18.609375 15.53125 22.484375 10.953125 
Q 26.375 6.390625 33.015625 6.390625 
Q 39.65625 6.390625 43.53125 10.953125 
Q 47.40625 15.53125 47.40625 23.390625 
Q 47.40625 31.296875 43.53125 35.828125 
Q 39.65625 40.375 33.015625 40.375 
z
M 52.59375 71.296875 
L 52.59375 62.3125 
Q 48.875 64.0625 45.09375 64.984375 
Q 41.3125 65.921875 37.59375 65.921875 
Q 27.828125 65.921875 22.671875 59.328125 
Q 17.53125 52.734375 16.796875 39.40625 
Q 19.671875 43.65625 24.015625 45.921875 
Q 28.375 48.1875 33.59375 48.1875 
Q 44.578125 48.1875 50.953125 41.515625 
Q 57.328125 34.859375 57.328125 23.390625 
Q 57.328125 12.15625 50.6875 5.359375 
Q 44.046875 -1.421875 33.015625 -1.421875 
Q 20.359375 -1.421875 13.671875 8.265625 
Q 6.984375 17.96875 6.984375 36.375 
Q 6.984375 53.65625 15.1875 63.9375 
Q 23.390625 74.21875 37.203125 74.21875 
Q 40.921875 74.21875 44.703125 73.484375 
Q 48.484375 72.75 52.59375 71.296875 
z
" id="DejaVuSans-36"/>
      </defs>
      <g transform="translate(259.276692 322.182437)scale(0.1 -0.1)">
       <use xlink:href="#DejaVuSans-36"/>
       <use x="63.623047" xlink:href="#DejaVuSans-30"/>
       <use x="127.246094" xlink:href="#DejaVuSans-30"/>
      </g>
     </g>
    </g>
    <g id="xtick_5">
     <g id="line2d_9">
      <path clip-path="url(#p2606894bfc)" d="M 333.816347 307.584 
L 333.816347 41.472 
" style="fill:none;stroke:#b0b0b0;stroke-linecap:square;stroke-width:0.8;"/>
     </g>
     <g id="line2d_10">
      <g>
       <use style="stroke:#000000;stroke-width:0.8;" x="333.816347" xlink:href="#m7f0d7fc2dc" y="307.584"/>
      </g>
     </g>
     <g id="text_5">
      <!-- 800 -->
      <defs>
       <path d="M 31.78125 34.625 
Q 24.75 34.625 20.71875 30.859375 
Q 16.703125 27.09375 16.703125 20.515625 
Q 16.703125 13.921875 20.71875 10.15625 
Q 24.75 6.390625 31.78125 6.390625 
Q 38.8125 6.390625 42.859375 10.171875 
Q 46.921875 13.96875 46.921875 20.515625 
Q 46.921875 27.09375 42.890625 30.859375 
Q 38.875 34.625 31.78125 34.625 
z
M 21.921875 38.8125 
Q 15.578125 40.375 12.03125 44.71875 
Q 8.5 49.078125 8.5 55.328125 
Q 8.5 64.0625 14.71875 69.140625 
Q 20.953125 74.21875 31.78125 74.21875 
Q 42.671875 74.21875 48.875 69.140625 
Q 55.078125 64.0625 55.078125 55.328125 
Q 55.078125 49.078125 51.53125 44.71875 
Q 48 40.375 41.703125 38.8125 
Q 48.828125 37.15625 52.796875 32.3125 
Q 56.78125 27.484375 56.78125 20.515625 
Q 56.78125 9.90625 50.3125 4.234375 
Q 43.84375 -1.421875 31.78125 -1.421875 
Q 19.734375 -1.421875 13.25 4.234375 
Q 6.78125 9.90625 6.78125 20.515625 
Q 6.78125 27.484375 10.78125 32.3125 
Q 14.796875 37.15625 21.921875 38.8125 
z
M 18.3125 54.390625 
Q 18.3125 48.734375 21.84375 45.5625 
Q 25.390625 42.390625 31.78125 42.390625 
Q 38.140625 42.390625 41.71875 45.5625 
Q 45.3125 48.734375 45.3125 54.390625 
Q 45.3125 60.0625 41.71875 63.234375 
Q 38.140625 66.40625 31.78125 66.40625 
Q 25.390625 66.40625 21.84375 63.234375 
Q 18.3125 60.0625 18.3125 54.390625 
z
" id="DejaVuSans-38"/>
      </defs>
      <g transform="translate(324.272597 322.182437)scale(0.1 -0.1)">
       <use xlink:href="#DejaVuSans-38"/>
       <use x="63.623047" xlink:href="#DejaVuSans-30"/>
       <use x="127.246094" xlink:href="#DejaVuSans-30"/>
      </g>
     </g>
    </g>
    <g id="xtick_6">
     <g id="line2d_11">
      <path clip-path="url(#p2606894bfc)" d="M 398.812252 307.584 
L 398.812252 41.472 
" style="fill:none;stroke:#b0b0b0;stroke-linecap:square;stroke-width:0.8;"/>
     </g>
     <g id="line2d_12">
      <g>
       <use style="stroke:#000000;stroke-width:0.8;" x="398.812252" xlink:href="#m7f0d7fc2dc" y="307.584"/>
      </g>
     </g>
     <g id="text_6">
      <!-- 1000 -->
      <defs>
       <path d="M 12.40625 8.296875 
L 28.515625 8.296875 
L 28.515625 63.921875 
L 10.984375 60.40625 
L 10.984375 69.390625 
L 28.421875 72.90625 
L 38.28125 72.90625 
L 38.28125 8.296875 
L 54.390625 8.296875 
L 54.390625 0 
L 12.40625 0 
z
" id="DejaVuSans-31"/>
      </defs>
      <g transform="translate(386.087252 322.182437)scale(0.1 -0.1)">
       <use xlink:href="#DejaVuSans-31"/>
       <use x="63.623047" xlink:href="#DejaVuSans-30"/>
       <use x="127.246094" xlink:href="#DejaVuSans-30"/>
       <use x="190.869141" xlink:href="#DejaVuSans-30"/>
      </g>
     </g>
    </g>
    <g id="text_7">
     <!-- Generations -->
     <defs>
      <path d="M 59.515625 10.40625 
L 59.515625 29.984375 
L 43.40625 29.984375 
L 43.40625 38.09375 
L 69.28125 38.09375 
L 69.28125 6.78125 
Q 63.578125 2.734375 56.6875 0.65625 
Q 49.8125 -1.421875 42 -1.421875 
Q 24.90625 -1.421875 15.25 8.5625 
Q 5.609375 18.5625 5.609375 36.375 
Q 5.609375 54.25 15.25 64.234375 
Q 24.90625 74.21875 42 74.21875 
Q 49.125 74.21875 55.546875 72.453125 
Q 61.96875 70.703125 67.390625 67.28125 
L 67.390625 56.78125 
Q 61.921875 61.421875 55.765625 63.765625 
Q 49.609375 66.109375 42.828125 66.109375 
Q 29.4375 66.109375 22.71875 58.640625 
Q 16.015625 51.171875 16.015625 36.375 
Q 16.015625 21.625 22.71875 14.15625 
Q 29.4375 6.6875 42.828125 6.6875 
Q 48.046875 6.6875 52.140625 7.59375 
Q 56.25 8.5 59.515625 10.40625 
z
" id="DejaVuSans-47"/>
      <path d="M 56.203125 29.59375 
L 56.203125 25.203125 
L 14.890625 25.203125 
Q 15.484375 15.921875 20.484375 11.0625 
Q 25.484375 6.203125 34.421875 6.203125 
Q 39.59375 6.203125 44.453125 7.46875 
Q 49.3125 8.734375 54.109375 11.28125 
L 54.109375 2.78125 
Q 49.265625 0.734375 44.1875 -0.34375 
Q 39.109375 -1.421875 33.890625 -1.421875 
Q 20.796875 -1.421875 13.15625 6.1875 
Q 5.515625 13.8125 5.515625 26.8125 
Q 5.515625 40.234375 12.765625 48.109375 
Q 20.015625 56 32.328125 56 
Q 43.359375 56 49.78125 48.890625 
Q 56.203125 41.796875 56.203125 29.59375 
z
M 47.21875 32.234375 
Q 47.125 39.59375 43.09375 43.984375 
Q 39.0625 48.390625 32.421875 48.390625 
Q 24.90625 48.390625 20.390625 44.140625 
Q 15.875 39.890625 15.1875 32.171875 
z
" id="DejaVuSans-65"/>
      <path d="M 54.890625 33.015625 
L 54.890625 0 
L 45.90625 0 
L 45.90625 32.71875 
Q 45.90625 40.484375 42.875 44.328125 
Q 39.84375 48.1875 33.796875 48.1875 
Q 26.515625 48.1875 22.3125 43.546875 
Q 18.109375 38.921875 18.109375 30.90625 
L 18.109375 0 
L 9.078125 0 
L 9.078125 54.6875 
L 18.109375 54.6875 
L 18.109375 46.1875 
Q 21.34375 51.125 25.703125 53.5625 
Q 30.078125 56 35.796875 56 
Q 45.21875 56 50.046875 50.171875 
Q 54.890625 44.34375 54.890625 33.015625 
z
" id="DejaVuSans-6e"/>
      <path d="M 41.109375 46.296875 
Q 39.59375 47.171875 37.8125 47.578125 
Q 36.03125 48 33.890625 48 
Q 26.265625 48 22.1875 43.046875 
Q 18.109375 38.09375 18.109375 28.8125 
L 18.109375 0 
L 9.078125 0 
L 9.078125 54.6875 
L 18.109375 54.6875 
L 18.109375 46.1875 
Q 20.953125 51.171875 25.484375 53.578125 
Q 30.03125 56 36.53125 56 
Q 37.453125 56 38.578125 55.875 
Q 39.703125 55.765625 41.0625 55.515625 
z
" id="DejaVuSans-72"/>
      <path d="M 34.28125 27.484375 
Q 23.390625 27.484375 19.1875 25 
Q 14.984375 22.515625 14.984375 16.5 
Q 14.984375 11.71875 18.140625 8.90625 
Q 21.296875 6.109375 26.703125 6.109375 
Q 34.1875 6.109375 38.703125 11.40625 
Q 43.21875 16.703125 43.21875 25.484375 
L 43.21875 27.484375 
z
M 52.203125 31.203125 
L 52.203125 0 
L 43.21875 0 
L 43.21875 8.296875 
Q 40.140625 3.328125 35.546875 0.953125 
Q 30.953125 -1.421875 24.3125 -1.421875 
Q 15.921875 -1.421875 10.953125 3.296875 
Q 6 8.015625 6 15.921875 
Q 6 25.140625 12.171875 29.828125 
Q 18.359375 34.515625 30.609375 34.515625 
L 43.21875 34.515625 
L 43.21875 35.40625 
Q 43.21875 41.609375 39.140625 45 
Q 35.0625 48.390625 27.6875 48.390625 
Q 23 48.390625 18.546875 47.265625 
Q 14.109375 46.140625 10.015625 43.890625 
L 10.015625 52.203125 
Q 14.9375 54.109375 19.578125 55.046875 
Q 24.21875 56 28.609375 56 
Q 40.484375 56 46.34375 49.84375 
Q 52.203125 43.703125 52.203125 31.203125 
z
" id="DejaVuSans-61"/>
      <path d="M 18.3125 70.21875 
L 18.3125 54.6875 
L 36.8125 54.6875 
L 36.8125 47.703125 
L 18.3125 47.703125 
L 18.3125 18.015625 
Q 18.3125 11.328125 20.140625 9.421875 
Q 21.96875 7.515625 27.59375 7.515625 
L 36.8125 7.515625 
L 36.8125 0 
L 27.59375 0 
Q 17.1875 0 13.234375 3.875 
Q 9.28125 7.765625 9.28125 18.015625 
L 9.28125 47.703125 
L 2.6875 47.703125 
L 2.6875 54.6875 
L 9.28125 54.6875 
L 9.28125 70.21875 
z
" id="DejaVuSans-74"/>
      <path d="M 9.421875 54.6875 
L 18.40625 54.6875 
L 18.40625 0 
L 9.421875 0 
z
M 9.421875 75.984375 
L 18.40625 75.984375 
L 18.40625 64.59375 
L 9.421875 64.59375 
z
" id="DejaVuSans-69"/>
      <path d="M 30.609375 48.390625 
Q 23.390625 48.390625 19.1875 42.75 
Q 14.984375 37.109375 14.984375 27.296875 
Q 14.984375 17.484375 19.15625 11.84375 
Q 23.34375 6.203125 30.609375 6.203125 
Q 37.796875 6.203125 41.984375 11.859375 
Q 46.1875 17.53125 46.1875 27.296875 
Q 46.1875 37.015625 41.984375 42.703125 
Q 37.796875 48.390625 30.609375 48.390625 
z
M 30.609375 56 
Q 42.328125 56 49.015625 48.375 
Q 55.71875 40.765625 55.71875 27.296875 
Q 55.71875 13.875 49.015625 6.21875 
Q 42.328125 -1.421875 30.609375 -1.421875 
Q 18.84375 -1.421875 12.171875 6.21875 
Q 5.515625 13.875 5.515625 27.296875 
Q 5.515625 40.765625 12.171875 48.375 
Q 18.84375 56 30.609375 56 
z
" id="DejaVuSans-6f"/>
      <path d="M 44.28125 53.078125 
L 44.28125 44.578125 
Q 40.484375 46.53125 36.375 47.5 
Q 32.28125 48.484375 27.875 48.484375 
Q 21.1875 48.484375 17.84375 46.4375 
Q 14.5 44.390625 14.5 40.28125 
Q 14.5 37.15625 16.890625 35.375 
Q 19.28125 33.59375 26.515625 31.984375 
L 29.59375 31.296875 
Q 39.15625 29.25 43.1875 25.515625 
Q 47.21875 21.78125 47.21875 15.09375 
Q 47.21875 7.46875 41.1875 3.015625 
Q 35.15625 -1.421875 24.609375 -1.421875 
Q 20.21875 -1.421875 15.453125 -0.5625 
Q 10.6875 0.296875 5.421875 2 
L 5.421875 11.28125 
Q 10.40625 8.6875 15.234375 7.390625 
Q 20.0625 6.109375 24.8125 6.109375 
Q 31.15625 6.109375 34.5625 8.28125 
Q 37.984375 10.453125 37.984375 14.40625 
Q 37.984375 18.0625 35.515625 20.015625 
Q 33.0625 21.96875 24.703125 23.78125 
L 21.578125 24.515625 
Q 13.234375 26.265625 9.515625 29.90625 
Q 5.8125 33.546875 5.8125 39.890625 
Q 5.8125 47.609375 11.28125 51.796875 
Q 16.75 56 26.8125 56 
Q 31.78125 56 36.171875 55.265625 
Q 40.578125 54.546875 44.28125 53.078125 
z
" id="DejaVuSans-73"/>
     </defs>
     <g transform="translate(205.662344 335.860562)scale(0.1 -0.1)">
      <use xlink:href="#DejaVuSans-47"/>
      <use x="77.490234" xlink:href="#DejaVuSans-65"/>
      <use x="139.013672" xlink:href="#DejaVuSans-6e"/>
      <use x="202.392578" xlink:href="#DejaVuSans-65"/>
      <use x="263.916016" xlink:href="#DejaVuSans-72"/>
      <use x="305.029297" xlink:href="#DejaVuSans-61"/>
      <use x="366.308594" xlink:href="#DejaVuSans-74"/>
      <use x="405.517578" xlink:href="#DejaVuSans-69"/>
      <use x="433.300781" xlink:href="#DejaVuSans-6f"/>
      <use x="494.482422" xlink:href="#DejaVuSans-6e"/>
      <use x="557.861328" xlink:href="#DejaVuSans-73"/>
     </g>
    </g>
   </g>
   <g id="matplotlib.axis_2">
    <g id="ytick_1">
     <g id="line2d_13">
      <path clip-path="url(#p2606894bfc)" d="M 57.6 305.427503 
L 414.72 305.427503 
" style="fill:none;stroke:#b0b0b0;stroke-linecap:square;stroke-width:0.8;"/>
     </g>
     <g id="line2d_14">
      <defs>
       <path d="M 0 0 
L -3.5 0 
" id="m49287cd2ef" style="stroke:#000000;stroke-width:0.8;"/>
      </defs>
      <g>
       <use style="stroke:#000000;stroke-width:0.8;" x="57.6" xlink:href="#m49287cd2ef" y="305.427503"/>
      </g>
     </g>
     <g id="text_8">
      <!-- $\mathdefault{-10^{2}}$ -->
      <defs>
       <path d="M 10.59375 35.5 
L 73.1875 35.5 
L 73.1875 27.203125 
L 10.59375 27.203125 
z
" id="DejaVuSans-2212"/>
      </defs>
      <g transform="translate(24.6 309.226722)scale(0.1 -0.1)">
       <use transform="translate(0 0.765625)" xlink:href="#DejaVuSans-2212"/>
       <use transform="translate(83.789062 0.765625)" xlink:href="#DejaVuSans-31"/>
       <use transform="translate(147.412109 0.765625)" xlink:href="#DejaVuSans-30"/>
       <use transform="translate(211.992188 39.046875)scale(0.7)" xlink:href="#DejaVuSans-32"/>
      </g>
     </g>
    </g>
    <g id="ytick_2">
     <g id="line2d_15">
      <path clip-path="url(#p2606894bfc)" d="M 57.6 262.851995 
L 414.72 262.851995 
" style="fill:none;stroke:#b0b0b0;stroke-linecap:square;stroke-width:0.8;"/>
     </g>
     <g id="line2d_16">
      <g>
       <use style="stroke:#000000;stroke-width:0.8;" x="57.6" xlink:href="#m49287cd2ef" y="262.851995"/>
      </g>
     </g>
     <g id="text_9">
      <!-- $\mathdefault{-10^{1}}$ -->
      <g transform="translate(24.6 266.651214)scale(0.1 -0.1)">
       <use transform="translate(0 0.684375)" xlink:href="#DejaVuSans-2212"/>
       <use transform="translate(83.789062 0.684375)" xlink:href="#DejaVuSans-31"/>
       <use transform="translate(147.412109 0.684375)" xlink:href="#DejaVuSans-30"/>
       <use transform="translate(211.992188 38.965625)scale(0.7)" xlink:href="#DejaVuSans-31"/>
      </g>
     </g>
    </g>
    <g id="ytick_3">
     <g id="line2d_17">
      <path clip-path="url(#p2606894bfc)" d="M 57.6 209.439933 
L 414.72 209.439933 
" style="fill:none;stroke:#b0b0b0;stroke-linecap:square;stroke-width:0.8;"/>
     </g>
     <g id="line2d_18">
      <g>
       <use style="stroke:#000000;stroke-width:0.8;" x="57.6" xlink:href="#m49287cd2ef" y="209.439933"/>
      </g>
     </g>
     <g id="text_10">
      <!-- $\mathdefault{-10^{0}}$ -->
      <g transform="translate(24.6 213.239151)scale(0.1 -0.1)">
       <use transform="translate(0 0.765625)" xlink:href="#DejaVuSans-2212"/>
       <use transform="translate(83.789062 0.765625)" xlink:href="#DejaVuSans-31"/>
       <use transform="translate(147.412109 0.765625)" xlink:href="#DejaVuSans-30"/>
       <use transform="translate(211.992188 39.046875)scale(0.7)" xlink:href="#DejaVuSans-30"/>
      </g>
     </g>
    </g>
    <g id="ytick_4">
     <g id="line2d_19">
      <path clip-path="url(#p2606894bfc)" d="M 57.6 185.786873 
L 414.72 185.786873 
" style="fill:none;stroke:#b0b0b0;stroke-linecap:square;stroke-width:0.8;"/>
     </g>
     <g id="line2d_20">
      <g>
       <use style="stroke:#000000;stroke-width:0.8;" x="57.6" xlink:href="#m49287cd2ef" y="185.786873"/>
      </g>
     </g>
     <g id="text_11">
      <!-- $\mathdefault{0}$ -->
      <g transform="translate(44.2 189.586092)scale(0.1 -0.1)">
       <use transform="translate(0 0.78125)" xlink:href="#DejaVuSans-30"/>
      </g>
     </g>
    </g>
    <g id="ytick_5">
     <g id="line2d_21">
      <path clip-path="url(#p2606894bfc)" d="M 57.6 162.133813 
L 414.72 162.133813 
" style="fill:none;stroke:#b0b0b0;stroke-linecap:square;stroke-width:0.8;"/>
     </g>
     <g id="line2d_22">
      <g>
       <use style="stroke:#000000;stroke-width:0.8;" x="57.6" xlink:href="#m49287cd2ef" y="162.133813"/>
      </g>
     </g>
     <g id="text_12">
      <!-- $\mathdefault{10^{0}}$ -->
      <g transform="translate(33 165.933032)scale(0.1 -0.1)">
       <use transform="translate(0 0.765625)" xlink:href="#DejaVuSans-31"/>
       <use transform="translate(63.623047 0.765625)" xlink:href="#DejaVuSans-30"/>
       <use transform="translate(128.203125 39.046875)scale(0.7)" xlink:href="#DejaVuSans-30"/>
      </g>
     </g>
    </g>
    <g id="ytick_6">
     <g id="line2d_23">
      <path clip-path="url(#p2606894bfc)" d="M 57.6 108.721751 
L 414.72 108.721751 
" style="fill:none;stroke:#b0b0b0;stroke-linecap:square;stroke-width:0.8;"/>
     </g>
     <g id="line2d_24">
      <g>
       <use style="stroke:#000000;stroke-width:0.8;" x="57.6" xlink:href="#m49287cd2ef" y="108.721751"/>
      </g>
     </g>
     <g id="text_13">
      <!-- $\mathdefault{10^{1}}$ -->
      <g transform="translate(33 112.520969)scale(0.1 -0.1)">
       <use transform="translate(0 0.684375)" xlink:href="#DejaVuSans-31"/>
       <use transform="translate(63.623047 0.684375)" xlink:href="#DejaVuSans-30"/>
       <use transform="translate(128.203125 38.965625)scale(0.7)" xlink:href="#DejaVuSans-31"/>
      </g>
     </g>
    </g>
    <g id="ytick_7">
     <g id="line2d_25">
      <path clip-path="url(#p2606894bfc)" d="M 57.6 66.146243 
L 414.72 66.146243 
" style="fill:none;stroke:#b0b0b0;stroke-linecap:square;stroke-width:0.8;"/>
     </g>
     <g id="line2d_26">
      <g>
       <use style="stroke:#000000;stroke-width:0.8;" x="57.6" xlink:href="#m49287cd2ef" y="66.146243"/>
      </g>
     </g>
     <g id="text_14">
      <!-- $\mathdefault{10^{2}}$ -->
      <g transform="translate(33 69.945462)scale(0.1 -0.1)">
       <use transform="translate(0 0.765625)" xlink:href="#DejaVuSans-31"/>
       <use transform="translate(63.623047 0.765625)" xlink:href="#DejaVuSans-30"/>
       <use transform="translate(128.203125 39.046875)scale(0.7)" xlink:href="#DejaVuSans-32"/>
      </g>
     </g>
    </g>
    <g id="ytick_8">
     <g id="line2d_27">
      <defs>
       <path d="M 0 0 
L -2 0 
" id="m8f53108e86" style="stroke:#000000;stroke-width:0.6;"/>
      </defs>
      <g>
       <use style="stroke:#000000;stroke-width:0.6;" x="57.6" xlink:href="#m8f53108e86" y="305.427503"/>
      </g>
     </g>
    </g>
    <g id="ytick_9">
     <g id="line2d_28">
      <g>
       <use style="stroke:#000000;stroke-width:0.6;" x="57.6" xlink:href="#m8f53108e86" y="262.851995"/>
      </g>
     </g>
    </g>
    <g id="ytick_10">
     <g id="line2d_29">
      <g>
       <use style="stroke:#000000;stroke-width:0.6;" x="57.6" xlink:href="#m8f53108e86" y="209.439933"/>
      </g>
     </g>
    </g>
    <g id="ytick_11">
     <g id="line2d_30">
      <g>
       <use style="stroke:#000000;stroke-width:0.6;" x="57.6" xlink:href="#m8f53108e86" y="185.786873"/>
      </g>
     </g>
    </g>
    <g id="ytick_12">
     <g id="line2d_31">
      <g>
       <use style="stroke:#000000;stroke-width:0.6;" x="57.6" xlink:href="#m8f53108e86" y="162.133813"/>
      </g>
     </g>
    </g>
    <g id="ytick_13">
     <g id="line2d_32">
      <g>
       <use style="stroke:#000000;stroke-width:0.6;" x="57.6" xlink:href="#m8f53108e86" y="108.721751"/>
      </g>
     </g>
    </g>
    <g id="ytick_14">
     <g id="line2d_33">
      <g>
       <use style="stroke:#000000;stroke-width:0.6;" x="57.6" xlink:href="#m8f53108e86" y="66.146243"/>
      </g>
     </g>
    </g>
    <g id="text_15">
     <!-- Fitness -->
     <defs>
      <path d="M 9.8125 72.90625 
L 51.703125 72.90625 
L 51.703125 64.59375 
L 19.671875 64.59375 
L 19.671875 43.109375 
L 48.578125 43.109375 
L 48.578125 34.8125 
L 19.671875 34.8125 
L 19.671875 0 
L 9.8125 0 
z
" id="DejaVuSans-46"/>
     </defs>
     <g transform="translate(18.520312 192.202219)rotate(-90)scale(0.1 -0.1)">
      <use xlink:href="#DejaVuSans-46"/>
      <use x="57.410156" xlink:href="#DejaVuSans-69"/>
      <use x="85.193359" xlink:href="#DejaVuSans-74"/>
      <use x="124.402344" xlink:href="#DejaVuSans-6e"/>
      <use x="187.78125" xlink:href="#DejaVuSans-65"/>
      <use x="249.304688" xlink:href="#DejaVuSans-73"/>
      <use x="301.404297" xlink:href="#DejaVuSans-73"/>
     </g>
    </g>
   </g>
   <g id="line2d_34">
    <path clip-path="url(#p2606894bfc)" d="M 73.832727 250.067033 
L 74.157707 197.717103 
L 74.482686 243.251021 
L 74.807666 228.063875 
L 75.132645 223.203161 
L 75.457625 250.574752 
L 75.782604 236.920752 
L 76.107584 247.509506 
L 76.432563 202.946182 
L 76.757543 239.414578 
L 77.082523 241.386176 
L 77.407502 251.498401 
L 77.732482 206.251553 
L 78.057461 252.104484 
L 78.382441 257.328874 
L 78.70742 250.95543 
L 79.0324 259.571484 
L 79.357379 257.796164 
L 79.682359 242.424919 
L 80.007338 262.454896 
L 80.332318 157.087454 
L 80.982277 202.721949 
L 81.307256 247.027882 
L 81.632236 234.103823 
L 81.957215 164.767959 
L 82.282195 262.314772 
L 82.607174 261.288812 
L 82.932154 249.535021 
L 83.257133 260.731998 
L 83.582113 239.030237 
L 83.907093 264.279491 
L 84.232072 265.287782 
L 84.557052 237.757783 
L 84.882031 241.71512 
L 85.207011 252.070831 
L 85.53199 173.52959 
L 85.85697 270.99567 
L 86.181949 228.853071 
L 86.506929 206.207349 
L 86.831908 250.120654 
L 87.156888 267.764608 
L 87.481867 244.577842 
L 87.806847 256.617994 
L 88.131826 244.158966 
L 88.456806 262.822813 
L 88.781785 210.470401 
L 89.106765 205.316194 
L 89.756724 261.428015 
L 90.081704 256.172695 
L 90.406683 259.200649 
L 90.731663 256.647041 
L 91.056642 154.536362 
L 91.381622 147.613602 
L 91.706601 248.745165 
L 92.35656 269.563564 
L 92.68154 234.812913 
L 93.006519 232.624602 
L 93.331499 212.492301 
L 93.656478 247.06281 
L 93.981458 241.440378 
L 94.306437 253.27896 
L 94.631417 258.447126 
L 94.956396 209.856909 
L 95.281376 205.031718 
L 95.606355 207.479692 
L 95.931335 258.48274 
L 96.256314 268.470708 
L 96.581294 225.852409 
L 96.906274 252.06618 
L 97.231253 261.738736 
L 97.556233 252.92514 
L 97.881212 257.026227 
L 98.206192 192.58616 
L 98.531171 260.948039 
L 98.856151 244.900048 
L 99.18113 248.309728 
L 99.50611 257.458179 
L 99.831089 257.249028 
L 100.156069 184.856264 
L 100.481048 258.560099 
L 100.806028 246.393542 
L 101.131007 227.59951 
L 101.455987 196.387771 
L 101.780966 268.112709 
L 102.430925 248.091054 
L 102.755905 248.078633 
L 103.080885 239.613343 
L 103.405864 250.57237 
L 103.730844 266.761961 
L 104.055823 249.248718 
L 104.380803 261.600828 
L 105.030762 248.841687 
L 105.355741 230.66747 
L 105.680721 260.888706 
L 106.0057 234.501806 
L 106.33068 252.16448 
L 106.655659 260.180213 
L 106.980639 252.910313 
L 107.305618 239.486785 
L 107.630598 252.505505 
L 107.955577 249.161317 
L 108.280557 237.603739 
L 108.605536 253.16419 
L 108.930516 248.217532 
L 109.255495 246.997223 
L 109.580475 252.281039 
L 109.905455 207.917296 
L 110.230434 237.331451 
L 110.555414 181.72567 
L 110.880393 229.79234 
L 111.205373 200.638933 
L 111.530352 240.729618 
L 111.855332 234.915443 
L 112.180311 241.982521 
L 112.505291 215.313775 
L 112.83027 238.835375 
L 113.15525 218.694053 
L 113.480229 218.661908 
L 113.805209 251.122181 
L 114.130188 233.858825 
L 114.455168 203.949759 
L 114.780147 256.833207 
L 115.105127 245.196068 
L 115.430106 244.423882 
L 115.755086 245.583585 
L 116.080066 262.587753 
L 116.405045 226.097885 
L 116.730025 249.892289 
L 117.055004 232.754532 
L 117.379984 234.615121 
L 117.704963 248.686035 
L 118.029943 219.673907 
L 118.354922 221.647689 
L 118.679902 220.588702 
L 119.329861 169.816374 
L 119.65484 250.678962 
L 119.97982 240.518077 
L 120.304799 261.199316 
L 120.629779 248.44921 
L 120.954758 178.054963 
L 121.279738 244.257384 
L 121.604717 238.609301 
L 121.929697 245.310221 
L 122.254676 260.500424 
L 122.579656 259.451627 
L 122.904636 250.14783 
L 123.229615 254.096085 
L 123.554595 255.217429 
L 124.204554 259.674789 
L 124.529533 264.814966 
L 124.854513 245.568233 
L 125.179492 271.96997 
L 125.504472 258.697695 
L 125.829451 267.459285 
L 126.154431 260.851029 
L 126.80439 242.436441 
L 127.129369 247.700228 
L 127.454349 262.152365 
L 127.779328 263.42419 
L 128.104308 230.924913 
L 128.429287 273.848971 
L 129.079247 238.321317 
L 129.404226 251.588231 
L 129.729206 247.213821 
L 130.054185 257.922696 
L 130.379165 236.967245 
L 131.029124 261.863553 
L 131.354103 254.448613 
L 131.679083 252.116058 
L 132.004062 235.276694 
L 132.329042 243.496416 
L 132.654021 241.083425 
L 132.979001 241.466967 
L 133.30398 257.413917 
L 133.62896 249.912648 
L 133.953939 217.599693 
L 134.278919 261.258291 
L 134.603898 252.308084 
L 134.928878 261.230845 
L 135.253857 242.470102 
L 135.578837 255.545758 
L 135.903817 260.238163 
L 136.228796 239.229961 
L 136.553776 261.630728 
L 136.878755 252.657121 
L 137.203735 202.641056 
L 137.528714 259.238585 
L 137.853694 259.790897 
L 138.178673 252.201261 
L 138.503653 257.435492 
L 138.828632 249.657052 
L 139.153612 234.290907 
L 139.478591 258.185523 
L 139.803571 250.051522 
L 140.12855 263.597274 
L 140.45353 257.142957 
L 140.778509 220.40639 
L 141.103489 238.208336 
L 141.753448 256.394764 
L 142.078428 238.870165 
L 142.403407 253.03372 
L 142.728387 260.297201 
L 143.053366 264.218408 
L 143.378346 260.121756 
L 143.703325 205.584751 
L 144.028305 229.028846 
L 144.353284 242.236731 
L 144.678264 217.198707 
L 145.003243 258.657824 
L 145.328223 254.113959 
L 145.653202 253.945538 
L 145.978182 249.156082 
L 146.303161 255.970237 
L 146.628141 222.426588 
L 146.95312 258.253615 
L 147.2781 241.734857 
L 147.603079 246.563888 
L 147.928059 256.493605 
L 148.253038 240.685211 
L 148.578018 234.017029 
L 149.227977 258.406248 
L 149.552957 257.472873 
L 149.877936 245.316189 
L 150.202916 195.882399 
L 150.527895 238.050338 
L 150.852875 249.597473 
L 151.177854 249.154624 
L 151.502834 173.803188 
L 151.827813 249.143956 
L 152.152793 187.194794 
L 152.477772 207.976011 
L 152.802752 253.658903 
L 153.127731 244.949776 
L 153.452711 239.831203 
L 153.77769 241.302162 
L 154.10267 256.218078 
L 154.427649 252.029952 
L 154.752629 257.430084 
L 155.077609 247.335145 
L 155.402588 241.430667 
L 155.727568 249.105658 
L 156.052547 251.603514 
L 156.377527 218.239528 
L 156.702506 233.596996 
L 157.027486 263.24824 
L 157.352465 232.791445 
L 157.677445 240.275091 
L 158.002424 244.946085 
L 158.327404 218.810204 
L 158.652383 219.922676 
L 158.977363 250.09341 
L 159.302342 230.479457 
L 159.627322 238.127379 
L 159.952301 212.748744 
L 160.277281 238.807582 
L 160.60226 229.078866 
L 160.92724 208.514533 
L 161.252219 245.848755 
L 161.577199 234.691395 
L 162.227158 185.811324 
L 162.552138 180.366702 
L 162.877117 250.712829 
L 163.202097 240.04526 
L 163.527076 242.117006 
L 163.852056 210.288906 
L 164.177035 247.394116 
L 164.502015 260.178477 
L 164.826994 266.731988 
L 165.151974 260.624527 
L 165.476953 234.788115 
L 165.801933 259.83685 
L 166.126912 263.102111 
L 166.451892 193.820229 
L 166.776871 230.492819 
L 167.101851 208.183494 
L 167.42683 247.887223 
L 167.75181 251.081215 
L 168.07679 245.988833 
L 168.401769 235.152614 
L 168.726749 219.508744 
L 169.051728 245.088479 
L 169.376708 247.152436 
L 169.701687 252.278104 
L 170.026667 254.610413 
L 170.351646 233.3765 
L 170.676626 248.587963 
L 171.001605 240.902828 
L 171.651564 271.993056 
L 171.976544 258.782086 
L 172.301523 221.690017 
L 172.626503 262.647639 
L 172.951482 243.673603 
L 173.276462 251.45194 
L 173.601441 204.551478 
L 173.926421 252.284504 
L 174.57638 271.847305 
L 174.90136 222.429607 
L 175.226339 257.036487 
L 175.551319 266.330643 
L 175.876298 157.770819 
L 176.201278 223.425274 
L 176.526257 252.408907 
L 176.851237 262.268395 
L 177.176216 260.975476 
L 177.501196 259.117516 
L 177.826175 268.266294 
L 178.151155 264.666835 
L 178.476134 256.570335 
L 178.801114 258.42952 
L 179.126093 262.398449 
L 179.451073 258.259327 
L 179.776052 266.695055 
L 180.101032 269.294025 
L 180.426011 245.404982 
L 180.750991 230.989115 
L 181.075971 234.371707 
L 181.40095 236.528759 
L 181.72593 233.981777 
L 182.050909 195.568192 
L 182.375889 244.26416 
L 182.700868 240.461156 
L 183.025848 221.209871 
L 183.350827 238.483268 
L 183.675807 234.872555 
L 184.000786 234.679559 
L 184.325766 259.61128 
L 184.650745 243.350866 
L 184.975725 256.356469 
L 185.300704 241.768079 
L 185.625684 246.234454 
L 185.950663 244.295346 
L 186.275643 233.870489 
L 186.600622 244.342816 
L 186.925602 219.3641 
L 187.250581 252.552523 
L 187.575561 234.51447 
L 187.900541 253.651511 
L 188.22552 237.561188 
L 188.5505 252.509979 
L 188.875479 197.481066 
L 189.200459 243.979076 
L 189.525438 212.941884 
L 189.850418 225.406584 
L 190.175397 256.396888 
L 190.500377 263.099672 
L 190.825356 242.15778 
L 191.150336 255.092563 
L 191.475315 242.762616 
L 191.800295 248.407144 
L 192.125274 241.60475 
L 192.450254 254.706835 
L 192.775233 246.306829 
L 193.100213 258.170822 
L 193.425192 248.434307 
L 193.750172 218.28597 
L 194.075152 247.380101 
L 194.400131 248.675454 
L 194.725111 246.485968 
L 195.05009 242.598386 
L 195.37507 231.959896 
L 195.700049 259.544503 
L 196.025029 199.128446 
L 196.350008 199.234185 
L 196.674988 254.491727 
L 196.999967 250.281381 
L 197.324947 259.368149 
L 197.649926 257.398979 
L 197.974906 243.725972 
L 198.299885 263.120787 
L 198.624865 224.001799 
L 198.949844 243.49438 
L 199.274824 237.596881 
L 199.599803 249.07928 
L 199.924783 252.313938 
L 200.249762 238.975708 
L 200.574742 259.210073 
L 200.899722 231.065852 
L 201.224701 236.753675 
L 201.549681 235.592342 
L 202.19964 249.566816 
L 202.524619 244.093735 
L 202.849599 244.609217 
L 203.174578 265.206769 
L 203.499558 251.277694 
L 203.824537 244.58959 
L 204.149517 259.301495 
L 204.474496 183.024604 
L 204.799476 240.292859 
L 205.124455 265.077734 
L 205.449435 269.050455 
L 205.774414 253.44815 
L 206.099394 252.413304 
L 206.424373 266.477962 
L 206.749353 254.724938 
L 207.074333 234.060424 
L 207.399312 245.255888 
L 207.724292 260.503594 
L 208.049271 240.514091 
L 208.374251 246.586751 
L 208.69923 256.328177 
L 209.349189 226.014349 
L 209.674169 257.991373 
L 209.999148 237.747004 
L 210.324128 201.302946 
L 210.974087 242.766424 
L 211.299066 238.039686 
L 211.624046 237.105666 
L 211.949025 232.676671 
L 212.274005 247.380171 
L 212.598984 249.408451 
L 212.923964 196.319368 
L 213.248943 255.157404 
L 213.573923 231.486013 
L 213.898903 242.997452 
L 214.223882 233.926888 
L 214.548862 242.307182 
L 214.873841 213.121268 
L 215.198821 203.858941 
L 215.5238 242.957445 
L 215.84878 254.82896 
L 216.173759 256.700257 
L 216.498739 240.178919 
L 216.823718 235.66108 
L 217.473677 255.85701 
L 217.798657 242.502845 
L 218.123636 244.903147 
L 218.448616 239.228715 
L 218.773595 250.547942 
L 219.423554 239.775735 
L 219.748534 233.195727 
L 220.073514 237.254638 
L 220.398493 238.777234 
L 220.723473 218.710014 
L 221.048452 228.241954 
L 221.373432 251.204787 
L 221.698411 213.172088 
L 222.023391 251.866207 
L 222.34837 254.761259 
L 222.67335 238.229594 
L 222.998329 239.566515 
L 223.323309 237.419461 
L 223.648288 255.778868 
L 223.973268 256.853221 
L 224.298247 250.733141 
L 224.623227 241.425721 
L 224.948206 238.605263 
L 225.273186 237.354638 
L 225.598165 260.266265 
L 225.923145 264.383769 
L 226.248124 266.495327 
L 226.573104 254.054062 
L 226.898084 249.971337 
L 227.223063 237.990165 
L 227.548043 259.611918 
L 227.873022 247.296857 
L 228.198002 210.087711 
L 228.522981 212.888023 
L 228.847961 253.202631 
L 229.17294 258.379333 
L 229.49792 237.159674 
L 229.822899 232.946973 
L 230.147879 253.001569 
L 230.472858 248.757692 
L 230.797838 250.595091 
L 231.122817 243.031822 
L 231.447797 248.744751 
L 231.772776 184.504067 
L 232.097756 197.948372 
L 232.422735 252.422953 
L 233.072695 194.314653 
L 233.397674 216.86134 
L 233.722654 208.815898 
L 234.047633 247.714111 
L 234.372613 201.318792 
L 235.347551 256.914284 
L 235.672531 213.900105 
L 235.99751 262.714195 
L 236.32249 275.050909 
L 236.972449 257.688958 
L 237.297428 254.386561 
L 237.622408 262.116346 
L 237.947387 259.029979 
L 238.272367 244.483939 
L 238.597346 255.961968 
L 239.247305 248.425105 
L 239.572285 254.581932 
L 239.897265 239.579472 
L 240.222244 259.000922 
L 240.547224 266.149111 
L 240.872203 192.092799 
L 241.197183 255.1227 
L 241.522162 200.558421 
L 241.847142 242.020819 
L 242.172121 243.273531 
L 242.497101 245.464726 
L 242.82208 231.391453 
L 243.14706 245.994411 
L 243.472039 249.968765 
L 244.121998 239.103322 
L 244.446978 226.062934 
L 244.771957 257.213429 
L 245.096937 242.974055 
L 245.421916 242.342993 
L 245.746896 262.285856 
L 246.071876 232.172631 
L 246.396855 263.044483 
L 246.721835 197.125259 
L 247.046814 249.712431 
L 247.371794 179.11955 
L 247.696773 246.680853 
L 248.021753 246.454403 
L 248.346732 212.802285 
L 248.671712 256.681083 
L 248.996691 254.47613 
L 249.321671 231.273523 
L 249.97163 252.777582 
L 250.296609 239.453259 
L 250.621589 198.445757 
L 250.946568 257.108263 
L 251.271548 267.711269 
L 251.596527 261.558008 
L 251.921507 231.837844 
L 252.246486 241.538441 
L 252.571466 185.936069 
L 252.896446 214.786351 
L 253.221425 254.128267 
L 253.546405 216.686261 
L 253.871384 244.38718 
L 254.196364 250.469912 
L 254.521343 236.082407 
L 255.171302 256.141679 
L 255.496282 254.118676 
L 255.821261 255.10018 
L 256.146241 250.291047 
L 256.47122 235.796912 
L 256.7962 196.757793 
L 257.121179 235.066067 
L 257.446159 220.34173 
L 257.771138 222.020199 
L 258.096118 253.029045 
L 258.421097 240.042439 
L 258.746077 252.90411 
L 259.071057 237.393555 
L 259.396036 263.616408 
L 260.045995 251.486663 
L 260.370975 203.819052 
L 260.695954 239.427569 
L 261.020934 256.295905 
L 261.345913 238.889337 
L 261.670893 236.418083 
L 261.995872 249.783996 
L 262.320852 255.082027 
L 262.645831 252.142481 
L 262.970811 233.671496 
L 263.62077 266.210537 
L 263.945749 258.210243 
L 264.270729 246.024299 
L 264.595708 250.418336 
L 264.920688 267.137674 
L 265.245667 256.562685 
L 265.570647 236.158663 
L 265.895627 245.793965 
L 266.220606 262.736324 
L 266.545586 252.4297 
L 266.870565 256.268582 
L 267.195545 245.725758 
L 267.520524 213.428279 
L 267.845504 231.137659 
L 268.170483 209.759597 
L 268.495463 235.631623 
L 268.820442 203.322256 
L 269.145422 241.52002 
L 269.470401 197.298949 
L 270.12036 237.36104 
L 270.44534 241.261285 
L 270.770319 255.533953 
L 271.745258 203.740909 
L 272.070238 248.170855 
L 272.395217 253.502536 
L 272.720197 241.094358 
L 273.045176 235.790749 
L 273.370156 241.292765 
L 273.695135 236.878105 
L 274.020115 195.131528 
L 274.345094 238.542347 
L 274.670074 190.224742 
L 274.995053 209.775324 
L 275.320033 186.084605 
L 275.645012 241.670779 
L 275.969992 232.828885 
L 276.294971 237.471722 
L 276.94493 255.103187 
L 277.26991 242.48344 
L 277.594889 203.227267 
L 277.919869 219.274536 
L 278.244848 249.828549 
L 278.569828 232.236352 
L 278.894808 244.254987 
L 279.219787 217.244819 
L 279.544767 212.758145 
L 279.869746 250.488129 
L 280.194726 253.865231 
L 280.519705 253.955123 
L 280.844685 207.690068 
L 281.169664 234.585672 
L 281.494644 239.794744 
L 282.144603 242.605999 
L 282.469582 260.911222 
L 282.794562 265.838901 
L 283.119541 262.11126 
L 283.444521 198.359955 
L 283.7695 222.416833 
L 284.09448 236.82181 
L 284.419459 229.973255 
L 284.744439 239.188886 
L 285.069419 233.611994 
L 285.394398 216.257191 
L 285.719378 262.555725 
L 286.044357 244.785701 
L 286.369337 251.717294 
L 286.694316 246.077664 
L 287.019296 249.443614 
L 287.344275 248.18633 
L 287.669255 193.604461 
L 287.994234 269.881733 
L 288.319214 272.391717 
L 288.644193 244.006562 
L 289.294152 260.563363 
L 289.619132 263.839488 
L 290.269091 196.48827 
L 290.59407 248.491748 
L 290.91905 267.091451 
L 291.244029 258.854219 
L 291.569009 255.97047 
L 291.893989 194.416344 
L 292.218968 233.592376 
L 292.543948 238.172288 
L 292.868927 223.663143 
L 293.193907 246.775531 
L 293.518886 258.879023 
L 294.168845 220.951223 
L 294.493825 211.30659 
L 294.818804 254.85717 
L 295.143784 236.882056 
L 295.468763 245.674309 
L 295.793743 186.191241 
L 296.118722 253.203185 
L 296.443702 244.860333 
L 296.768681 239.873667 
L 297.093661 195.316201 
L 297.41864 191.776408 
L 297.74362 252.984176 
L 298.0686 218.999192 
L 298.393579 249.520443 
L 298.718559 234.961106 
L 299.043538 229.647204 
L 299.368518 197.110758 
L 299.693497 250.936339 
L 300.018477 258.718305 
L 300.343456 252.720044 
L 300.668436 252.374783 
L 300.993415 275.666652 
L 301.318395 252.515171 
L 301.643374 250.364171 
L 301.968354 258.258268 
L 302.293333 255.523263 
L 302.618313 264.370977 
L 302.943292 276.64019 
L 303.268272 266.992141 
L 303.918231 278.997749 
L 304.24321 276.732558 
L 304.56819 275.400583 
L 304.89317 272.204115 
L 305.218149 275.733344 
L 305.543129 264.668479 
L 305.868108 292.17598 
L 306.193088 294.363632 
L 306.843047 291.275989 
L 307.168026 285.479413 
L 307.493006 286.369496 
L 307.817985 285.942754 
L 308.142965 286.921433 
L 308.467944 294.897163 
L 308.792924 295.488 
L 309.117903 295.084619 
L 309.442883 289.185523 
L 309.767862 289.993282 
L 310.417821 267.567013 
L 310.742801 271.652819 
L 311.067781 240.40974 
L 311.71774 271.880585 
L 312.042719 257.39017 
L 312.367699 201.785822 
L 312.692678 215.492726 
L 313.017658 260.196752 
L 313.342637 253.367342 
L 313.992596 277.657196 
L 314.317576 272.990099 
L 314.642555 266.097405 
L 315.292514 257.09963 
L 315.617494 262.139589 
L 315.942473 248.678283 
L 316.267453 251.579025 
L 316.917412 265.289461 
L 317.242391 263.191232 
L 317.567371 265.7127 
L 317.892351 244.610035 
L 318.21733 248.42367 
L 318.54231 225.461511 
L 318.867289 220.355553 
L 319.192269 244.584125 
L 319.517248 246.443778 
L 319.842228 242.505208 
L 320.167207 251.043897 
L 320.492187 235.886843 
L 320.817166 194.731333 
L 321.142146 243.354406 
L 321.467125 259.393632 
L 321.792105 256.967136 
L 322.117084 258.758023 
L 322.442064 265.360422 
L 322.767043 248.491042 
L 323.092023 256.141033 
L 323.417002 254.254477 
L 323.741982 238.407749 
L 324.066962 196.17469 
L 324.391941 251.000083 
L 324.716921 245.458063 
L 325.0419 242.24323 
L 325.36688 217.81072 
L 325.691859 237.707514 
L 326.016839 236.081125 
L 326.341818 244.180029 
L 326.666798 200.331078 
L 326.991777 242.888487 
L 327.316757 242.354536 
L 327.641736 206.704795 
L 327.966716 200.073669 
L 328.291695 215.732286 
L 328.616675 248.321043 
L 328.941654 213.342067 
L 329.266634 218.036973 
L 329.591613 226.73936 
L 329.916593 248.39667 
L 330.241572 198.605783 
L 330.566552 237.044826 
L 330.891532 250.838171 
L 331.216511 246.598849 
L 331.541491 260.957136 
L 331.86647 252.162205 
L 332.19145 261.444353 
L 332.516429 278.955995 
L 332.841409 261.40211 
L 333.166388 275.407926 
L 333.491368 264.25135 
L 333.816347 266.410191 
L 334.141327 265.254797 
L 334.466306 272.07153 
L 334.791286 273.726243 
L 335.116265 230.928304 
L 335.441245 234.353601 
L 335.766224 231.279532 
L 336.091204 217.170713 
L 336.416183 255.346057 
L 336.741163 252.027106 
L 337.066143 256.086903 
L 337.391122 237.258081 
L 337.716102 239.0201 
L 338.041081 250.41378 
L 338.366061 242.731607 
L 338.69104 256.60396 
L 339.01602 237.565248 
L 339.340999 249.078861 
L 339.990958 178.741791 
L 340.315938 233.705854 
L 340.965897 259.802324 
L 341.290876 250.105993 
L 341.615856 254.024266 
L 341.940835 243.47231 
L 342.265815 247.515145 
L 342.590794 246.360625 
L 342.915774 256.263223 
L 343.565733 250.522748 
L 343.890713 252.393314 
L 344.215692 184.333232 
L 344.540672 250.870011 
L 344.865651 233.88186 
L 345.190631 250.57104 
L 345.51561 236.7297 
L 345.84059 249.491107 
L 346.165569 188.606487 
L 346.490549 238.403628 
L 346.815528 256.991693 
L 347.140508 192.99755 
L 347.465487 212.568986 
L 347.790467 245.203188 
L 348.115446 230.374697 
L 348.440426 244.009388 
L 348.765405 237.930026 
L 349.090385 235.175346 
L 349.415364 234.511713 
L 349.740344 244.789034 
L 350.065324 235.821816 
L 350.390303 236.672583 
L 350.715283 242.088803 
L 351.040262 223.883445 
L 351.365242 225.471695 
L 351.690221 246.136262 
L 352.015201 248.348543 
L 352.34018 248.036873 
L 352.66516 220.250361 
L 352.990139 231.211022 
L 353.315119 251.057331 
L 353.640098 250.026331 
L 353.965078 245.564892 
L 354.290057 260.962024 
L 354.615037 238.090042 
L 354.940016 244.946689 
L 355.264996 245.302766 
L 355.589975 244.238694 
L 355.914955 241.652691 
L 356.239934 241.679379 
L 356.564914 236.363743 
L 356.889894 246.407613 
L 357.214873 204.227124 
L 357.539853 247.869312 
L 357.864832 241.551238 
L 358.514791 258.930997 
L 358.839771 239.847524 
L 359.16475 238.683482 
L 359.48973 230.093473 
L 359.814709 244.440961 
L 360.139689 222.234692 
L 360.464668 225.780121 
L 360.789648 226.995535 
L 361.114627 241.413781 
L 361.439607 243.831567 
L 361.764586 243.935805 
L 362.089566 249.863791 
L 362.414545 239.953361 
L 362.739525 252.947977 
L 363.064505 249.528709 
L 363.389484 247.701452 
L 363.714464 249.756847 
L 364.039443 230.778995 
L 364.364423 227.059609 
L 364.689402 243.233441 
L 365.014382 246.743436 
L 365.339361 263.100175 
L 365.664341 247.299179 
L 365.98932 217.794307 
L 366.3143 254.399809 
L 366.639279 233.821417 
L 366.964259 252.423015 
L 367.289238 240.465151 
L 367.614218 245.636338 
L 367.939197 246.846424 
L 368.264177 218.588642 
L 368.589156 238.487765 
L 368.914136 227.161589 
L 369.239115 241.224273 
L 369.564095 240.582938 
L 369.889075 239.199013 
L 370.214054 242.248743 
L 370.539034 246.404008 
L 370.864013 262.610161 
L 371.188993 217.826916 
L 371.513972 204.559057 
L 371.838952 205.760651 
L 372.163931 180.421201 
L 372.488911 268.168456 
L 372.81389 234.988702 
L 373.13887 253.356173 
L 373.463849 232.133835 
L 373.788829 250.701837 
L 374.113808 239.450079 
L 374.438788 245.17455 
L 374.763767 210.352788 
L 375.088747 233.5033 
L 375.413726 226.098785 
L 375.738706 237.862218 
L 376.063686 257.204123 
L 376.388665 199.594759 
L 376.713645 250.841207 
L 377.038624 251.792568 
L 377.363604 236.966415 
L 377.688583 241.760715 
L 378.013563 250.11384 
L 378.338542 224.232282 
L 378.663522 263.94327 
L 378.988501 261.4629 
L 379.63846 229.563213 
L 379.96344 247.250564 
L 380.288419 236.31131 
L 380.613399 238.960977 
L 380.938378 230.482062 
L 381.588337 250.957301 
L 381.913317 244.982759 
L 382.238296 217.125645 
L 382.563276 254.179649 
L 382.888256 196.123861 
L 383.213235 235.737907 
L 383.538215 254.017547 
L 383.863194 195.436816 
L 384.188174 218.769148 
L 384.513153 259.710578 
L 384.838133 241.404468 
L 385.163112 211.75307 
L 385.488092 255.238251 
L 385.813071 240.812383 
L 386.138051 239.310986 
L 386.46303 241.394427 
L 386.78801 210.2817 
L 387.112989 246.245718 
L 387.437969 249.057219 
L 387.762948 236.103986 
L 388.087928 212.008857 
L 388.412907 242.148716 
L 388.737887 244.353712 
L 389.062867 194.893615 
L 389.387846 243.295854 
L 389.712826 243.154755 
L 390.037805 215.71156 
L 390.362785 241.925031 
L 390.687764 237.299633 
L 391.012744 247.44728 
L 391.337723 206.194423 
L 391.662703 236.088578 
L 391.987682 241.123487 
L 392.312662 223.023606 
L 392.637641 222.36122 
L 392.962621 223.424843 
L 393.2876 187.473345 
L 393.61258 247.392382 
L 393.937559 245.088449 
L 394.262539 241.456509 
L 394.587518 239.75308 
L 395.237477 177.799319 
L 395.562457 237.877279 
L 395.887437 242.757937 
L 396.212416 257.197353 
L 396.862375 222.518007 
L 397.187355 240.886359 
L 397.512334 227.648288 
L 397.837314 197.321004 
L 398.162293 235.486428 
L 398.487273 224.150299 
L 398.487273 224.150299 
" style="fill:none;stroke:#0000ff;stroke-linecap:square;stroke-width:1.5;"/>
   </g>
   <g id="line2d_35">
    <path clip-path="url(#p2606894bfc)" d="M 73.832727 66.151914 
L 74.807666 66.151187 
L 76.757543 66.150269 
L 77.082523 54.263257 
L 77.407502 66.152762 
L 78.382441 66.16537 
L 79.0324 66.150844 
L 79.357379 54.022977 
L 79.682359 54.432945 
L 80.007338 66.155754 
L 81.632236 66.154438 
L 81.957215 53.940064 
L 82.282195 66.149161 
L 84.557052 66.148405 
L 84.882031 53.946071 
L 85.207011 53.927846 
L 85.53199 66.150822 
L 89.756724 66.154554 
L 90.081704 53.687695 
L 90.406683 66.158786 
L 91.706601 66.160035 
L 92.031581 54.016193 
L 92.35656 66.148206 
L 93.656478 66.169155 
L 96.256314 66.159222 
L 96.581294 54.226157 
L 96.906274 66.179733 
L 97.231253 66.151505 
L 97.556233 54.880725 
L 97.881212 66.16716 
L 100.481048 66.149511 
L 100.806028 53.871973 
L 101.131007 66.151179 
L 104.055823 66.176242 
L 105.355741 66.150231 
L 105.680721 54.080736 
L 106.0057 66.158688 
L 109.580475 66.173447 
L 110.555414 66.183871 
L 111.855332 66.185536 
L 112.180311 53.920444 
L 112.505291 66.182757 
L 113.805209 66.155914 
L 114.130188 53.802108 
L 114.455168 66.198452 
L 115.105127 66.173518 
L 115.430106 66.191458 
L 115.755086 55.968337 
L 116.080066 66.161081 
L 116.405045 54.309336 
L 116.730025 66.152566 
L 117.379984 66.160455 
L 117.704963 66.176894 
L 118.029943 54.957454 
L 118.354922 66.173448 
L 121.279738 66.149975 
L 121.929697 66.164021 
L 123.879574 66.157348 
L 124.204554 54.388594 
L 124.529533 66.150591 
L 125.829451 66.16267 
L 126.154431 54.12163 
L 126.47941 66.183513 
L 127.129369 66.153009 
L 127.454349 53.975755 
L 127.779328 66.1587 
L 128.754267 66.150538 
L 132.654021 66.152354 
L 132.979001 54.182814 
L 133.30398 66.150066 
L 134.603898 66.150404 
L 134.928878 53.654759 
L 135.253857 66.171029 
L 135.903817 66.18795 
L 136.228796 54.186774 
L 136.553776 66.183422 
L 136.878755 53.632827 
L 137.203735 66.195015 
L 138.503653 66.148216 
L 138.828632 66.150325 
L 139.153612 54.610712 
L 139.478591 66.150404 
L 141.103489 66.151001 
L 141.428468 66.151001 
L 141.753448 53.878166 
L 142.078428 66.161554 
L 144.353284 66.149942 
L 145.978182 66.161289 
L 146.303161 66.150269 
L 146.628141 53.711439 
L 146.95312 66.15899 
L 148.253038 66.149692 
L 148.578018 53.899014 
L 148.902998 66.153034 
L 150.527895 66.149584 
L 150.852875 54.090466 
L 151.177854 66.151768 
L 151.502834 54.22877 
L 151.827813 66.150524 
L 152.477772 66.176656 
L 152.802752 53.975742 
L 153.127731 66.14992 
L 155.077609 66.161768 
L 155.402588 53.88205 
L 155.727568 66.182368 
L 156.377527 66.150745 
L 156.702506 54.060237 
L 157.027486 66.161756 
L 158.652383 66.195578 
L 158.977363 54.431734 
L 159.302342 66.148034 
L 160.60226 66.175956 
L 162.552138 66.19821 
L 163.202097 66.198802 
L 163.527076 66.195771 
L 163.852056 53.980033 
L 164.177035 66.159487 
L 165.476953 66.151081 
L 168.07679 66.148715 
L 168.401769 54.253299 
L 168.726749 53.757997 
L 169.051728 66.151623 
L 169.376708 66.149794 
L 169.701687 53.903622 
L 170.026667 66.155195 
L 174.57638 66.164576 
L 174.90136 53.987005 
L 175.226339 66.148774 
L 176.526257 66.179121 
L 176.851237 54.000425 
L 177.176216 66.150525 
L 180.750991 66.177377 
L 181.075971 53.973778 
L 181.40095 66.15201 
L 184.975725 66.15218 
L 185.300704 53.879439 
L 185.625684 66.151367 
L 190.825356 66.183899 
L 191.150336 54.121844 
L 191.475315 66.17389 
L 194.075152 66.193244 
L 194.400131 53.669569 
L 194.725111 66.195037 
L 197.649926 66.173659 
L 197.974906 53.901108 
L 198.299885 66.174652 
L 199.924783 66.195463 
L 200.574742 66.195698 
L 200.899722 53.884118 
L 201.224701 66.195746 
L 203.824537 66.195295 
L 204.149517 53.994987 
L 204.474496 66.197534 
L 205.449435 66.179333 
L 205.774414 53.829008 
L 206.099394 66.195034 
L 209.349189 66.195775 
L 209.674169 53.794759 
L 209.999148 66.195025 
L 210.324128 53.731236 
L 210.649107 66.195313 
L 211.949025 66.195079 
L 212.274005 53.914069 
L 212.598984 66.19533 
L 213.573923 66.19527 
L 213.898903 53.941821 
L 214.223882 66.194668 
L 217.148698 66.194309 
L 217.473677 54.081511 
L 217.798657 66.194521 
L 220.723473 66.197515 
L 221.048452 54.108765 
L 221.373432 66.196124 
L 226.573104 66.196174 
L 226.898084 54.118429 
L 227.223063 66.194798 
L 230.472858 66.18263 
L 230.797838 53.846096 
L 231.122817 53.743271 
L 231.447797 66.195012 
L 231.772776 53.933958 
L 232.097756 66.195767 
L 233.397674 66.168476 
L 233.722654 54.008204 
L 234.047633 66.168202 
L 235.672531 66.195584 
L 236.647469 66.151011 
L 236.972449 53.973821 
L 237.297428 66.150398 
L 240.872203 66.163105 
L 241.197183 53.881914 
L 241.522162 66.174002 
L 242.82208 66.150949 
L 243.14706 66.167265 
L 243.472039 53.63154 
L 243.797019 66.173278 
L 247.371794 66.196707 
L 248.671712 66.15578 
L 249.321671 66.195059 
L 249.64665 53.848533 
L 249.97163 66.195153 
L 252.246486 66.197457 
L 252.571466 53.906377 
L 252.896446 66.184968 
L 256.7962 66.195544 
L 257.446159 66.195911 
L 257.771138 53.730053 
L 258.096118 53.696915 
L 258.421097 66.195419 
L 259.071057 66.194237 
L 259.396036 54.032979 
L 259.721016 66.195771 
L 260.045995 66.195455 
L 260.370975 53.919469 
L 260.695954 66.193658 
L 261.020934 53.583425 
L 261.345913 66.194351 
L 261.670893 66.172707 
L 261.995872 53.734077 
L 262.320852 66.194468 
L 265.895627 66.195167 
L 266.220606 53.835781 
L 266.545586 66.195048 
L 269.795381 66.195811 
L 272.070238 66.195518 
L 272.395217 53.895294 
L 272.720197 66.196089 
L 273.045176 54.023829 
L 273.370156 66.193932 
L 274.345094 66.198 
L 274.670074 53.99243 
L 274.995053 66.196571 
L 275.969992 66.173603 
L 276.294971 53.934029 
L 276.619951 66.151062 
L 278.244848 66.150708 
L 278.569828 53.899547 
L 278.894808 66.161536 
L 281.169664 66.149528 
L 282.144603 66.195496 
L 283.119541 66.194152 
L 283.444521 53.656896 
L 283.7695 66.194905 
L 285.719378 66.194537 
L 286.044357 53.626662 
L 286.369337 66.197077 
L 288.644193 66.195245 
L 288.969173 53.8673 
L 289.294152 66.193766 
L 290.59407 66.194882 
L 290.91905 53.797556 
L 291.244029 66.192911 
L 291.569009 66.19515 
L 291.893989 53.830823 
L 292.218968 66.196089 
L 292.543948 66.195243 
L 292.868927 53.997623 
L 293.193907 66.194118 
L 294.168845 66.195227 
L 294.493825 53.837141 
L 294.818804 66.194769 
L 295.143784 66.196851 
L 295.468763 53.779677 
L 295.793743 66.196637 
L 310.417821 66.161464 
L 310.742801 53.766164 
L 311.067781 66.150658 
L 312.042719 66.195424 
L 313.017658 66.195229 
L 313.342637 53.749522 
L 313.667617 66.195812 
L 313.992596 54.091561 
L 314.317576 66.149359 
L 314.642555 66.148613 
L 314.967535 53.876988 
L 315.292514 66.150902 
L 319.192269 66.196492 
L 319.517248 53.921828 
L 319.842228 66.196716 
L 322.442064 66.194061 
L 322.767043 53.779825 
L 323.092023 66.195184 
L 324.391941 66.194677 
L 324.716921 53.568 
L 325.0419 66.193477 
L 325.36688 53.796652 
L 325.691859 66.194804 
L 326.666798 66.195286 
L 326.991777 53.650963 
L 327.316757 66.19496 
L 329.266634 66.195889 
L 329.591613 53.789467 
L 329.916593 66.170098 
L 330.241572 66.195078 
L 330.566552 53.872155 
L 330.891532 66.194082 
L 333.166388 66.19564 
L 333.491368 53.900665 
L 333.816347 66.193636 
L 334.141327 54.066564 
L 334.466306 66.151109 
L 334.791286 66.1942 
L 335.116265 54.372476 
L 335.441245 66.153674 
L 336.091204 66.161936 
L 336.416183 53.795904 
L 336.741163 53.62196 
L 337.066143 66.149611 
L 337.391122 66.195161 
L 337.716102 54.94243 
L 338.041081 66.193969 
L 339.01602 66.16245 
L 341.290876 66.15918 
L 341.615856 54.015094 
L 341.940835 66.161189 
L 343.240753 66.152471 
L 343.565733 66.149779 
L 343.890713 53.778119 
L 344.215692 66.156303 
L 344.540672 53.896524 
L 344.865651 66.160221 
L 346.165569 66.177104 
L 346.490549 53.853985 
L 346.815528 66.150607 
L 347.140508 53.961951 
L 347.465487 66.151323 
L 348.440426 66.151994 
L 348.765405 54.267043 
L 349.090385 66.154928 
L 349.415364 53.63579 
L 349.740344 66.150521 
L 353.315119 66.147344 
L 353.640098 54.034189 
L 353.965078 66.148705 
L 354.290057 66.149983 
L 354.615037 54.393398 
L 354.940016 66.150223 
L 356.564914 66.148247 
L 356.889894 53.909847 
L 357.214873 66.153623 
L 358.839771 66.194543 
L 359.16475 53.889426 
L 359.48973 66.149478 
L 365.98932 66.176477 
L 366.3143 53.849071 
L 366.639279 66.159543 
L 366.964259 66.184175 
L 367.289238 54.220841 
L 367.614218 66.149528 
L 368.264177 66.149169 
L 368.589156 54.302975 
L 368.914136 66.148799 
L 371.513972 66.150504 
L 371.838952 53.740887 
L 372.163931 53.864269 
L 372.488911 66.150295 
L 373.13887 66.149446 
L 379.63846 66.149792 
L 379.96344 54.004499 
L 380.288419 66.149569 
L 381.263358 66.162625 
L 381.588337 54.028131 
L 381.913317 66.153528 
L 386.46303 66.149969 
L 386.78801 54.280396 
L 387.112989 66.150406 
L 387.762948 66.150785 
L 388.087928 53.890338 
L 388.412907 66.150489 
L 388.737887 66.150719 
L 389.062867 53.888382 
L 389.387846 66.1512 
L 389.712826 54.164356 
L 390.037805 66.150653 
L 397.837314 66.149096 
L 398.487273 66.150087 
L 398.487273 66.150087 
" style="fill:none;stroke:#ff0000;stroke-linecap:square;stroke-width:1.5;"/>
   </g>
   <g id="patch_3">
    <path d="M 57.6 307.584 
L 57.6 41.472 
" style="fill:none;stroke:#000000;stroke-linecap:square;stroke-linejoin:miter;stroke-width:0.8;"/>
   </g>
   <g id="patch_4">
    <path d="M 414.72 307.584 
L 414.72 41.472 
" style="fill:none;stroke:#000000;stroke-linecap:square;stroke-linejoin:miter;stroke-width:0.8;"/>
   </g>
   <g id="patch_5">
    <path d="M 57.6 307.584 
L 414.72 307.584 
" style="fill:none;stroke:#000000;stroke-linecap:square;stroke-linejoin:miter;stroke-width:0.8;"/>
   </g>
   <g id="patch_6">
    <path d="M 57.6 41.472 
L 414.72 41.472 
" style="fill:none;stroke:#000000;stroke-linecap:square;stroke-linejoin:miter;stroke-width:0.8;"/>
   </g>
   <g id="text_16">
    <!-- Population's average and best fitness -->
    <defs>
     <path d="M 19.671875 64.796875 
L 19.671875 37.40625 
L 32.078125 37.40625 
Q 38.96875 37.40625 42.71875 40.96875 
Q 46.484375 44.53125 46.484375 51.125 
Q 46.484375 57.671875 42.71875 61.234375 
Q 38.96875 64.796875 32.078125 64.796875 
z
M 9.8125 72.90625 
L 32.078125 72.90625 
Q 44.34375 72.90625 50.609375 67.359375 
Q 56.890625 61.8125 56.890625 51.125 
Q 56.890625 40.328125 50.609375 34.8125 
Q 44.34375 29.296875 32.078125 29.296875 
L 19.671875 29.296875 
L 19.671875 0 
L 9.8125 0 
z
" id="DejaVuSans-50"/>
     <path d="M 18.109375 8.203125 
L 18.109375 -20.796875 
L 9.078125 -20.796875 
L 9.078125 54.6875 
L 18.109375 54.6875 
L 18.109375 46.390625 
Q 20.953125 51.265625 25.265625 53.625 
Q 29.59375 56 35.59375 56 
Q 45.5625 56 51.78125 48.09375 
Q 58.015625 40.1875 58.015625 27.296875 
Q 58.015625 14.40625 51.78125 6.484375 
Q 45.5625 -1.421875 35.59375 -1.421875 
Q 29.59375 -1.421875 25.265625 0.953125 
Q 20.953125 3.328125 18.109375 8.203125 
z
M 48.6875 27.296875 
Q 48.6875 37.203125 44.609375 42.84375 
Q 40.53125 48.484375 33.40625 48.484375 
Q 26.265625 48.484375 22.1875 42.84375 
Q 18.109375 37.203125 18.109375 27.296875 
Q 18.109375 17.390625 22.1875 11.75 
Q 26.265625 6.109375 33.40625 6.109375 
Q 40.53125 6.109375 44.609375 11.75 
Q 48.6875 17.390625 48.6875 27.296875 
z
" id="DejaVuSans-70"/>
     <path d="M 8.5 21.578125 
L 8.5 54.6875 
L 17.484375 54.6875 
L 17.484375 21.921875 
Q 17.484375 14.15625 20.5 10.265625 
Q 23.53125 6.390625 29.59375 6.390625 
Q 36.859375 6.390625 41.078125 11.03125 
Q 45.3125 15.671875 45.3125 23.6875 
L 45.3125 54.6875 
L 54.296875 54.6875 
L 54.296875 0 
L 45.3125 0 
L 45.3125 8.40625 
Q 42.046875 3.421875 37.71875 1 
Q 33.40625 -1.421875 27.6875 -1.421875 
Q 18.265625 -1.421875 13.375 4.4375 
Q 8.5 10.296875 8.5 21.578125 
z
M 31.109375 56 
z
" id="DejaVuSans-75"/>
     <path d="M 9.421875 75.984375 
L 18.40625 75.984375 
L 18.40625 0 
L 9.421875 0 
z
" id="DejaVuSans-6c"/>
     <path d="M 17.921875 72.90625 
L 17.921875 45.796875 
L 9.625 45.796875 
L 9.625 72.90625 
z
" id="DejaVuSans-27"/>
     <path id="DejaVuSans-20"/>
     <path d="M 2.984375 54.6875 
L 12.5 54.6875 
L 29.59375 8.796875 
L 46.6875 54.6875 
L 56.203125 54.6875 
L 35.6875 0 
L 23.484375 0 
z
" id="DejaVuSans-76"/>
     <path d="M 45.40625 27.984375 
Q 45.40625 37.75 41.375 43.109375 
Q 37.359375 48.484375 30.078125 48.484375 
Q 22.859375 48.484375 18.828125 43.109375 
Q 14.796875 37.75 14.796875 27.984375 
Q 14.796875 18.265625 18.828125 12.890625 
Q 22.859375 7.515625 30.078125 7.515625 
Q 37.359375 7.515625 41.375 12.890625 
Q 45.40625 18.265625 45.40625 27.984375 
z
M 54.390625 6.78125 
Q 54.390625 -7.171875 48.1875 -13.984375 
Q 42 -20.796875 29.203125 -20.796875 
Q 24.46875 -20.796875 20.265625 -20.09375 
Q 16.0625 -19.390625 12.109375 -17.921875 
L 12.109375 -9.1875 
Q 16.0625 -11.328125 19.921875 -12.34375 
Q 23.78125 -13.375 27.78125 -13.375 
Q 36.625 -13.375 41.015625 -8.765625 
Q 45.40625 -4.15625 45.40625 5.171875 
L 45.40625 9.625 
Q 42.625 4.78125 38.28125 2.390625 
Q 33.9375 0 27.875 0 
Q 17.828125 0 11.671875 7.65625 
Q 5.515625 15.328125 5.515625 27.984375 
Q 5.515625 40.671875 11.671875 48.328125 
Q 17.828125 56 27.875 56 
Q 33.9375 56 38.28125 53.609375 
Q 42.625 51.21875 45.40625 46.390625 
L 45.40625 54.6875 
L 54.390625 54.6875 
z
" id="DejaVuSans-67"/>
     <path d="M 45.40625 46.390625 
L 45.40625 75.984375 
L 54.390625 75.984375 
L 54.390625 0 
L 45.40625 0 
L 45.40625 8.203125 
Q 42.578125 3.328125 38.25 0.953125 
Q 33.9375 -1.421875 27.875 -1.421875 
Q 17.96875 -1.421875 11.734375 6.484375 
Q 5.515625 14.40625 5.515625 27.296875 
Q 5.515625 40.1875 11.734375 48.09375 
Q 17.96875 56 27.875 56 
Q 33.9375 56 38.25 53.625 
Q 42.578125 51.265625 45.40625 46.390625 
z
M 14.796875 27.296875 
Q 14.796875 17.390625 18.875 11.75 
Q 22.953125 6.109375 30.078125 6.109375 
Q 37.203125 6.109375 41.296875 11.75 
Q 45.40625 17.390625 45.40625 27.296875 
Q 45.40625 37.203125 41.296875 42.84375 
Q 37.203125 48.484375 30.078125 48.484375 
Q 22.953125 48.484375 18.875 42.84375 
Q 14.796875 37.203125 14.796875 27.296875 
z
" id="DejaVuSans-64"/>
     <path d="M 48.6875 27.296875 
Q 48.6875 37.203125 44.609375 42.84375 
Q 40.53125 48.484375 33.40625 48.484375 
Q 26.265625 48.484375 22.1875 42.84375 
Q 18.109375 37.203125 18.109375 27.296875 
Q 18.109375 17.390625 22.1875 11.75 
Q 26.265625 6.109375 33.40625 6.109375 
Q 40.53125 6.109375 44.609375 11.75 
Q 48.6875 17.390625 48.6875 27.296875 
z
M 18.109375 46.390625 
Q 20.953125 51.265625 25.265625 53.625 
Q 29.59375 56 35.59375 56 
Q 45.5625 56 51.78125 48.09375 
Q 58.015625 40.1875 58.015625 27.296875 
Q 58.015625 14.40625 51.78125 6.484375 
Q 45.5625 -1.421875 35.59375 -1.421875 
Q 29.59375 -1.421875 25.265625 0.953125 
Q 20.953125 3.328125 18.109375 8.203125 
L 18.109375 0 
L 9.078125 0 
L 9.078125 75.984375 
L 18.109375 75.984375 
z
" id="DejaVuSans-62"/>
     <path d="M 37.109375 75.984375 
L 37.109375 68.5 
L 28.515625 68.5 
Q 23.6875 68.5 21.796875 66.546875 
Q 19.921875 64.59375 19.921875 59.515625 
L 19.921875 54.6875 
L 34.71875 54.6875 
L 34.71875 47.703125 
L 19.921875 47.703125 
L 19.921875 0 
L 10.890625 0 
L 10.890625 47.703125 
L 2.296875 47.703125 
L 2.296875 54.6875 
L 10.890625 54.6875 
L 10.890625 58.5 
Q 10.890625 67.625 15.140625 71.796875 
Q 19.390625 75.984375 28.609375 75.984375 
z
" id="DejaVuSans-66"/>
    </defs>
    <g transform="translate(123.315 35.472)scale(0.12 -0.12)">
     <use xlink:href="#DejaVuSans-50"/>
     <use x="60.255859" xlink:href="#DejaVuSans-6f"/>
     <use x="121.4375" xlink:href="#DejaVuSans-70"/>
     <use x="184.914062" xlink:href="#DejaVuSans-75"/>
     <use x="248.292969" xlink:href="#DejaVuSans-6c"/>
     <use x="276.076172" xlink:href="#DejaVuSans-61"/>
     <use x="337.355469" xlink:href="#DejaVuSans-74"/>
     <use x="376.564453" xlink:href="#DejaVuSans-69"/>
     <use x="404.347656" xlink:href="#DejaVuSans-6f"/>
     <use x="465.529297" xlink:href="#DejaVuSans-6e"/>
     <use x="528.908203" xlink:href="#DejaVuSans-27"/>
     <use x="556.398438" xlink:href="#DejaVuSans-73"/>
     <use x="608.498047" xlink:href="#DejaVuSans-20"/>
     <use x="640.285156" xlink:href="#DejaVuSans-61"/>
     <use x="701.564453" xlink:href="#DejaVuSans-76"/>
     <use x="760.744141" xlink:href="#DejaVuSans-65"/>
     <use x="822.267578" xlink:href="#DejaVuSans-72"/>
     <use x="863.380859" xlink:href="#DejaVuSans-61"/>
     <use x="924.660156" xlink:href="#DejaVuSans-67"/>
     <use x="988.136719" xlink:href="#DejaVuSans-65"/>
     <use x="1049.660156" xlink:href="#DejaVuSans-20"/>
     <use x="1081.447266" xlink:href="#DejaVuSans-61"/>
     <use x="1142.726562" xlink:href="#DejaVuSans-6e"/>
     <use x="1206.105469" xlink:href="#DejaVuSans-64"/>
     <use x="1269.582031" xlink:href="#DejaVuSans-20"/>
     <use x="1301.369141" xlink:href="#DejaVuSans-62"/>
     <use x="1364.845703" xlink:href="#DejaVuSans-65"/>
     <use x="1426.369141" xlink:href="#DejaVuSans-73"/>
     <use x="1478.46875" xlink:href="#DejaVuSans-74"/>
     <use x="1517.677734" xlink:href="#DejaVuSans-20"/>
     <use x="1549.464844" xlink:href="#DejaVuSans-66"/>
     <use x="1584.669922" xlink:href="#DejaVuSans-69"/>
     <use x="1612.453125" xlink:href="#DejaVuSans-74"/>
     <use x="1651.662109" xlink:href="#DejaVuSans-6e"/>
     <use x="1715.041016" xlink:href="#DejaVuSans-65"/>
     <use x="1776.564453" xlink:href="#DejaVuSans-73"/>
     <use x="1828.664062" xlink:href="#DejaVuSans-73"/>
    </g>
   </g>
   <g id="legend_1">
    <g id="patch_7">
     <path d="M 199.689687 302.584 
L 272.630313 302.584 
Q 274.630313 302.584 274.630313 300.584 
L 274.630313 272.22775 
Q 274.630313 270.22775 272.630313 270.22775 
L 199.689687 270.22775 
Q 197.689687 270.22775 197.689687 272.22775 
L 197.689687 300.584 
Q 197.689687 302.584 199.689687 302.584 
z
" style="fill:#ffffff;opacity:0.8;stroke:#cccccc;stroke-linejoin:miter;"/>
    </g>
    <g id="line2d_36">
     <path d="M 201.689687 278.326187 
L 221.689687 278.326187 
" style="fill:none;stroke:#0000ff;stroke-linecap:square;stroke-width:1.5;"/>
    </g>
    <g id="line2d_37"/>
    <g id="text_17">
     <!-- average -->
     <g transform="translate(229.689687 281.826187)scale(0.1 -0.1)">
      <use xlink:href="#DejaVuSans-61"/>
      <use x="61.279297" xlink:href="#DejaVuSans-76"/>
      <use x="120.458984" xlink:href="#DejaVuSans-65"/>
      <use x="181.982422" xlink:href="#DejaVuSans-72"/>
      <use x="223.095703" xlink:href="#DejaVuSans-61"/>
      <use x="284.375" xlink:href="#DejaVuSans-67"/>
      <use x="347.851562" xlink:href="#DejaVuSans-65"/>
     </g>
    </g>
    <g id="line2d_38">
     <path d="M 201.689687 293.004312 
L 221.689687 293.004312 
" style="fill:none;stroke:#ff0000;stroke-linecap:square;stroke-width:1.5;"/>
    </g>
    <g id="line2d_39"/>
    <g id="text_18">
     <!-- best -->
     <g transform="translate(229.689687 296.504312)scale(0.1 -0.1)">
      <use xlink:href="#DejaVuSans-62"/>
      <use x="63.476562" xlink:href="#DejaVuSans-65"/>
      <use x="125" xlink:href="#DejaVuSans-73"/>
      <use x="177.099609" xlink:href="#DejaVuSans-74"/>
     </g>
    </g>
   </g>
  </g>
 </g>
 <defs>
  <clipPath id="p2606894bfc">
   <rect height="266.112" width="357.12" x="57.6" y="41.472"/>
  </clipPath>
 </defs>
</svg>
