<?xml version="1.0" encoding="UTF-8" standalone="no"?>
<!DOCTYPE svg PUBLIC "-//W3C//DTD SVG 1.1//EN"
 "http://www.w3.org/Graphics/SVG/1.1/DTD/svg11.dtd">
<!-- Generated by graphviz version 2.40.1 (20161225.0304)
 -->
<!-- Title: %3 Pages: 1 -->
<svg width="432pt" height="177pt"
 viewBox="0.00 0.00 432.28 176.94" xmlns="http://www.w3.org/2000/svg" xmlns:xlink="http://www.w3.org/1999/xlink">
<g id="graph0" class="graph" transform="scale(1 1) rotate(0) translate(4 172.9361)">
<title>%3</title>
<polygon fill="#ffffff" stroke="transparent" points="-4,4 -4,-172.9361 428.2843,-172.9361 428.2843,4 -4,4"/>
<!-- center_dist -->
<g id="node1" class="node">
<title>center_dist</title>
<polygon fill="#d3d3d3" stroke="#000000" points="68,-134.0955 0,-134.0955 0,-116.0955 68,-116.0955 68,-134.0955"/>
<text text-anchor="middle" x="34" y="-122.8955" font-family="Times,serif" font-size="9.00" fill="#000000">center_dist</text>
</g>
<!-- center_dir -->
<g id="node2" class="node">
<title>center_dir</title>
<polygon fill="#d3d3d3" stroke="#000000" points="151.5,-134.0955 86.5,-134.0955 86.5,-116.0955 151.5,-116.0955 151.5,-134.0955"/>
<text text-anchor="middle" x="119" y="-122.8955" font-family="Times,serif" font-size="9.00" fill="#000000">center_dir</text>
</g>
<!-- left -->
<g id="node5" class="node">
<title>left</title>
<ellipse fill="#add8e6" stroke="#000000" cx="119" cy="-22.6274" rx="22.7556" ry="22.7556"/>
<text text-anchor="middle" x="119" y="-20.4274" font-family="Times,serif" font-size="9.00" fill="#000000">left</text>
</g>
<!-- center_dir&#45;&gt;left -->
<g id="edge1" class="edge">
<title>center_dir&#45;&gt;left</title>
<path fill="none" stroke="#00ff00" stroke-width="1.6231" d="M119,-116.0021C119,-102.5938 119,-76.8305 119,-55.7568"/>
<polygon fill="#00ff00" stroke="#00ff00" stroke-width="1.6231" points="122.5001,-55.5594 119,-45.5594 115.5001,-55.5595 122.5001,-55.5594"/>
</g>
<!-- forward -->
<g id="node3" class="node">
<title>forward</title>
<ellipse fill="#add8e6" stroke="#000000" cx="207" cy="-125.0955" rx="37.4533" ry="37.4533"/>
<text text-anchor="middle" x="207" y="-122.8955" font-family="Times,serif" font-size="9.00" fill="#000000">forward</text>
</g>
<!-- backward -->
<g id="node4" class="node">
<title>backward</title>
<ellipse fill="#add8e6" stroke="#000000" cx="306" cy="-125.0955" rx="43.6818" ry="43.6818"/>
<text text-anchor="middle" x="306" y="-122.8955" font-family="Times,serif" font-size="9.00" fill="#000000">backward</text>
</g>
<!-- right -->
<g id="node6" class="node">
<title>right</title>
<ellipse fill="#add8e6" stroke="#000000" cx="396" cy="-125.0955" rx="28.0702" ry="28.0702"/>
<text text-anchor="middle" x="396" y="-122.8955" font-family="Times,serif" font-size="9.00" fill="#000000">right</text>
</g>
</g>
</svg>
