<?xml version="1.0" encoding="utf-8" standalone="no"?>
<!DOCTYPE svg PUBLIC "-//W3C//DTD SVG 1.1//EN"
  "http://www.w3.org/Graphics/SVG/1.1/DTD/svg11.dtd">
<!-- Created with matplotlib (http://matplotlib.org/) -->
<svg height="345pt" version="1.1" viewBox="0 0 460 345" width="460pt" xmlns="http://www.w3.org/2000/svg" xmlns:xlink="http://www.w3.org/1999/xlink">
 <defs>
  <style type="text/css">
*{stroke-linecap:butt;stroke-linejoin:round;}
  </style>
 </defs>
 <g id="figure_1">
  <g id="patch_1">
   <path d="M 0 345.6 
L 460.8 345.6 
L 460.8 0 
L 0 0 
z
" style="fill:#ffffff;"/>
  </g>
  <g id="axes_1">
   <g id="patch_2">
    <path d="M 57.6 307.584 
L 414.72 307.584 
L 414.72 41.472 
L 57.6 41.472 
z
" style="fill:#ffffff;"/>
   </g>
   <g id="matplotlib.axis_1">
    <g id="xtick_1">
     <g id="line2d_1">
      <path clip-path="url(#peb66d17639)" d="M 73.832727 307.584 
L 73.832727 41.472 
" style="fill:none;stroke:#b0b0b0;stroke-linecap:square;stroke-width:0.8;"/>
     </g>
     <g id="line2d_2">
      <defs>
       <path d="M 0 0 
L 0 3.5 
" id="mf1e30d8c2b" style="stroke:#000000;stroke-width:0.8;"/>
      </defs>
      <g>
       <use style="stroke:#000000;stroke-width:0.8;" x="73.832727" xlink:href="#mf1e30d8c2b" y="307.584"/>
      </g>
     </g>
     <g id="text_1">
      <!-- 0 -->
      <defs>
       <path d="M 31.78125 66.40625 
Q 24.171875 66.40625 20.328125 58.90625 
Q 16.5 51.421875 16.5 36.375 
Q 16.5 21.390625 20.328125 13.890625 
Q 24.171875 6.390625 31.78125 6.390625 
Q 39.453125 6.390625 43.28125 13.890625 
Q 47.125 21.390625 47.125 36.375 
Q 47.125 51.421875 43.28125 58.90625 
Q 39.453125 66.40625 31.78125 66.40625 
z
M 31.78125 74.21875 
Q 44.046875 74.21875 50.515625 64.515625 
Q 56.984375 54.828125 56.984375 36.375 
Q 56.984375 17.96875 50.515625 8.265625 
Q 44.046875 -1.421875 31.78125 -1.421875 
Q 19.53125 -1.421875 13.0625 8.265625 
Q 6.59375 17.96875 6.59375 36.375 
Q 6.59375 54.828125 13.0625 64.515625 
Q 19.53125 74.21875 31.78125 74.21875 
z
" id="DejaVuSans-30"/>
      </defs>
      <g transform="translate(70.651477 322.182437)scale(0.1 -0.1)">
       <use xlink:href="#DejaVuSans-30"/>
      </g>
     </g>
    </g>
    <g id="xtick_2">
     <g id="line2d_3">
      <path clip-path="url(#peb66d17639)" d="M 138.828632 307.584 
L 138.828632 41.472 
" style="fill:none;stroke:#b0b0b0;stroke-linecap:square;stroke-width:0.8;"/>
     </g>
     <g id="line2d_4">
      <g>
       <use style="stroke:#000000;stroke-width:0.8;" x="138.828632" xlink:href="#mf1e30d8c2b" y="307.584"/>
      </g>
     </g>
     <g id="text_2">
      <!-- 200 -->
      <defs>
       <path d="M 19.1875 8.296875 
L 53.609375 8.296875 
L 53.609375 0 
L 7.328125 0 
L 7.328125 8.296875 
Q 12.9375 14.109375 22.625 23.890625 
Q 32.328125 33.6875 34.8125 36.53125 
Q 39.546875 41.84375 41.421875 45.53125 
Q 43.3125 49.21875 43.3125 52.78125 
Q 43.3125 58.59375 39.234375 62.25 
Q 35.15625 65.921875 28.609375 65.921875 
Q 23.96875 65.921875 18.8125 64.3125 
Q 13.671875 62.703125 7.8125 59.421875 
L 7.8125 69.390625 
Q 13.765625 71.78125 18.9375 73 
Q 24.125 74.21875 28.421875 74.21875 
Q 39.75 74.21875 46.484375 68.546875 
Q 53.21875 62.890625 53.21875 53.421875 
Q 53.21875 48.921875 51.53125 44.890625 
Q 49.859375 40.875 45.40625 35.40625 
Q 44.1875 33.984375 37.640625 27.21875 
Q 31.109375 20.453125 19.1875 8.296875 
z
" id="DejaVuSans-32"/>
      </defs>
      <g transform="translate(129.284882 322.182437)scale(0.1 -0.1)">
       <use xlink:href="#DejaVuSans-32"/>
       <use x="63.623047" xlink:href="#DejaVuSans-30"/>
       <use x="127.246094" xlink:href="#DejaVuSans-30"/>
      </g>
     </g>
    </g>
    <g id="xtick_3">
     <g id="line2d_5">
      <path clip-path="url(#peb66d17639)" d="M 203.824537 307.584 
L 203.824537 41.472 
" style="fill:none;stroke:#b0b0b0;stroke-linecap:square;stroke-width:0.8;"/>
     </g>
     <g id="line2d_6">
      <g>
       <use style="stroke:#000000;stroke-width:0.8;" x="203.824537" xlink:href="#mf1e30d8c2b" y="307.584"/>
      </g>
     </g>
     <g id="text_3">
      <!-- 400 -->
      <defs>
       <path d="M 37.796875 64.3125 
L 12.890625 25.390625 
L 37.796875 25.390625 
z
M 35.203125 72.90625 
L 47.609375 72.90625 
L 47.609375 25.390625 
L 58.015625 25.390625 
L 58.015625 17.1875 
L 47.609375 17.1875 
L 47.609375 0 
L 37.796875 0 
L 37.796875 17.1875 
L 4.890625 17.1875 
L 4.890625 26.703125 
z
" id="DejaVuSans-34"/>
      </defs>
      <g transform="translate(194.280787 322.182437)scale(0.1 -0.1)">
       <use xlink:href="#DejaVuSans-34"/>
       <use x="63.623047" xlink:href="#DejaVuSans-30"/>
       <use x="127.246094" xlink:href="#DejaVuSans-30"/>
      </g>
     </g>
    </g>
    <g id="xtick_4">
     <g id="line2d_7">
      <path clip-path="url(#peb66d17639)" d="M 268.820442 307.584 
L 268.820442 41.472 
" style="fill:none;stroke:#b0b0b0;stroke-linecap:square;stroke-width:0.8;"/>
     </g>
     <g id="line2d_8">
      <g>
       <use style="stroke:#000000;stroke-width:0.8;" x="268.820442" xlink:href="#mf1e30d8c2b" y="307.584"/>
      </g>
     </g>
     <g id="text_4">
      <!-- 600 -->
      <defs>
       <path d="M 33.015625 40.375 
Q 26.375 40.375 22.484375 35.828125 
Q 18.609375 31.296875 18.609375 23.390625 
Q 18.609375 15.53125 22.484375 10.953125 
Q 26.375 6.390625 33.015625 6.390625 
Q 39.65625 6.390625 43.53125 10.953125 
Q 47.40625 15.53125 47.40625 23.390625 
Q 47.40625 31.296875 43.53125 35.828125 
Q 39.65625 40.375 33.015625 40.375 
z
M 52.59375 71.296875 
L 52.59375 62.3125 
Q 48.875 64.0625 45.09375 64.984375 
Q 41.3125 65.921875 37.59375 65.921875 
Q 27.828125 65.921875 22.671875 59.328125 
Q 17.53125 52.734375 16.796875 39.40625 
Q 19.671875 43.65625 24.015625 45.921875 
Q 28.375 48.1875 33.59375 48.1875 
Q 44.578125 48.1875 50.953125 41.515625 
Q 57.328125 34.859375 57.328125 23.390625 
Q 57.328125 12.15625 50.6875 5.359375 
Q 44.046875 -1.421875 33.015625 -1.421875 
Q 20.359375 -1.421875 13.671875 8.265625 
Q 6.984375 17.96875 6.984375 36.375 
Q 6.984375 53.65625 15.1875 63.9375 
Q 23.390625 74.21875 37.203125 74.21875 
Q 40.921875 74.21875 44.703125 73.484375 
Q 48.484375 72.75 52.59375 71.296875 
z
" id="DejaVuSans-36"/>
      </defs>
      <g transform="translate(259.276692 322.182437)scale(0.1 -0.1)">
       <use xlink:href="#DejaVuSans-36"/>
       <use x="63.623047" xlink:href="#DejaVuSans-30"/>
       <use x="127.246094" xlink:href="#DejaVuSans-30"/>
      </g>
     </g>
    </g>
    <g id="xtick_5">
     <g id="line2d_9">
      <path clip-path="url(#peb66d17639)" d="M 333.816347 307.584 
L 333.816347 41.472 
" style="fill:none;stroke:#b0b0b0;stroke-linecap:square;stroke-width:0.8;"/>
     </g>
     <g id="line2d_10">
      <g>
       <use style="stroke:#000000;stroke-width:0.8;" x="333.816347" xlink:href="#mf1e30d8c2b" y="307.584"/>
      </g>
     </g>
     <g id="text_5">
      <!-- 800 -->
      <defs>
       <path d="M 31.78125 34.625 
Q 24.75 34.625 20.71875 30.859375 
Q 16.703125 27.09375 16.703125 20.515625 
Q 16.703125 13.921875 20.71875 10.15625 
Q 24.75 6.390625 31.78125 6.390625 
Q 38.8125 6.390625 42.859375 10.171875 
Q 46.921875 13.96875 46.921875 20.515625 
Q 46.921875 27.09375 42.890625 30.859375 
Q 38.875 34.625 31.78125 34.625 
z
M 21.921875 38.8125 
Q 15.578125 40.375 12.03125 44.71875 
Q 8.5 49.078125 8.5 55.328125 
Q 8.5 64.0625 14.71875 69.140625 
Q 20.953125 74.21875 31.78125 74.21875 
Q 42.671875 74.21875 48.875 69.140625 
Q 55.078125 64.0625 55.078125 55.328125 
Q 55.078125 49.078125 51.53125 44.71875 
Q 48 40.375 41.703125 38.8125 
Q 48.828125 37.15625 52.796875 32.3125 
Q 56.78125 27.484375 56.78125 20.515625 
Q 56.78125 9.90625 50.3125 4.234375 
Q 43.84375 -1.421875 31.78125 -1.421875 
Q 19.734375 -1.421875 13.25 4.234375 
Q 6.78125 9.90625 6.78125 20.515625 
Q 6.78125 27.484375 10.78125 32.3125 
Q 14.796875 37.15625 21.921875 38.8125 
z
M 18.3125 54.390625 
Q 18.3125 48.734375 21.84375 45.5625 
Q 25.390625 42.390625 31.78125 42.390625 
Q 38.140625 42.390625 41.71875 45.5625 
Q 45.3125 48.734375 45.3125 54.390625 
Q 45.3125 60.0625 41.71875 63.234375 
Q 38.140625 66.40625 31.78125 66.40625 
Q 25.390625 66.40625 21.84375 63.234375 
Q 18.3125 60.0625 18.3125 54.390625 
z
" id="DejaVuSans-38"/>
      </defs>
      <g transform="translate(324.272597 322.182437)scale(0.1 -0.1)">
       <use xlink:href="#DejaVuSans-38"/>
       <use x="63.623047" xlink:href="#DejaVuSans-30"/>
       <use x="127.246094" xlink:href="#DejaVuSans-30"/>
      </g>
     </g>
    </g>
    <g id="xtick_6">
     <g id="line2d_11">
      <path clip-path="url(#peb66d17639)" d="M 398.812252 307.584 
L 398.812252 41.472 
" style="fill:none;stroke:#b0b0b0;stroke-linecap:square;stroke-width:0.8;"/>
     </g>
     <g id="line2d_12">
      <g>
       <use style="stroke:#000000;stroke-width:0.8;" x="398.812252" xlink:href="#mf1e30d8c2b" y="307.584"/>
      </g>
     </g>
     <g id="text_6">
      <!-- 1000 -->
      <defs>
       <path d="M 12.40625 8.296875 
L 28.515625 8.296875 
L 28.515625 63.921875 
L 10.984375 60.40625 
L 10.984375 69.390625 
L 28.421875 72.90625 
L 38.28125 72.90625 
L 38.28125 8.296875 
L 54.390625 8.296875 
L 54.390625 0 
L 12.40625 0 
z
" id="DejaVuSans-31"/>
      </defs>
      <g transform="translate(386.087252 322.182437)scale(0.1 -0.1)">
       <use xlink:href="#DejaVuSans-31"/>
       <use x="63.623047" xlink:href="#DejaVuSans-30"/>
       <use x="127.246094" xlink:href="#DejaVuSans-30"/>
       <use x="190.869141" xlink:href="#DejaVuSans-30"/>
      </g>
     </g>
    </g>
    <g id="text_7">
     <!-- Generations -->
     <defs>
      <path d="M 59.515625 10.40625 
L 59.515625 29.984375 
L 43.40625 29.984375 
L 43.40625 38.09375 
L 69.28125 38.09375 
L 69.28125 6.78125 
Q 63.578125 2.734375 56.6875 0.65625 
Q 49.8125 -1.421875 42 -1.421875 
Q 24.90625 -1.421875 15.25 8.5625 
Q 5.609375 18.5625 5.609375 36.375 
Q 5.609375 54.25 15.25 64.234375 
Q 24.90625 74.21875 42 74.21875 
Q 49.125 74.21875 55.546875 72.453125 
Q 61.96875 70.703125 67.390625 67.28125 
L 67.390625 56.78125 
Q 61.921875 61.421875 55.765625 63.765625 
Q 49.609375 66.109375 42.828125 66.109375 
Q 29.4375 66.109375 22.71875 58.640625 
Q 16.015625 51.171875 16.015625 36.375 
Q 16.015625 21.625 22.71875 14.15625 
Q 29.4375 6.6875 42.828125 6.6875 
Q 48.046875 6.6875 52.140625 7.59375 
Q 56.25 8.5 59.515625 10.40625 
z
" id="DejaVuSans-47"/>
      <path d="M 56.203125 29.59375 
L 56.203125 25.203125 
L 14.890625 25.203125 
Q 15.484375 15.921875 20.484375 11.0625 
Q 25.484375 6.203125 34.421875 6.203125 
Q 39.59375 6.203125 44.453125 7.46875 
Q 49.3125 8.734375 54.109375 11.28125 
L 54.109375 2.78125 
Q 49.265625 0.734375 44.1875 -0.34375 
Q 39.109375 -1.421875 33.890625 -1.421875 
Q 20.796875 -1.421875 13.15625 6.1875 
Q 5.515625 13.8125 5.515625 26.8125 
Q 5.515625 40.234375 12.765625 48.109375 
Q 20.015625 56 32.328125 56 
Q 43.359375 56 49.78125 48.890625 
Q 56.203125 41.796875 56.203125 29.59375 
z
M 47.21875 32.234375 
Q 47.125 39.59375 43.09375 43.984375 
Q 39.0625 48.390625 32.421875 48.390625 
Q 24.90625 48.390625 20.390625 44.140625 
Q 15.875 39.890625 15.1875 32.171875 
z
" id="DejaVuSans-65"/>
      <path d="M 54.890625 33.015625 
L 54.890625 0 
L 45.90625 0 
L 45.90625 32.71875 
Q 45.90625 40.484375 42.875 44.328125 
Q 39.84375 48.1875 33.796875 48.1875 
Q 26.515625 48.1875 22.3125 43.546875 
Q 18.109375 38.921875 18.109375 30.90625 
L 18.109375 0 
L 9.078125 0 
L 9.078125 54.6875 
L 18.109375 54.6875 
L 18.109375 46.1875 
Q 21.34375 51.125 25.703125 53.5625 
Q 30.078125 56 35.796875 56 
Q 45.21875 56 50.046875 50.171875 
Q 54.890625 44.34375 54.890625 33.015625 
z
" id="DejaVuSans-6e"/>
      <path d="M 41.109375 46.296875 
Q 39.59375 47.171875 37.8125 47.578125 
Q 36.03125 48 33.890625 48 
Q 26.265625 48 22.1875 43.046875 
Q 18.109375 38.09375 18.109375 28.8125 
L 18.109375 0 
L 9.078125 0 
L 9.078125 54.6875 
L 18.109375 54.6875 
L 18.109375 46.1875 
Q 20.953125 51.171875 25.484375 53.578125 
Q 30.03125 56 36.53125 56 
Q 37.453125 56 38.578125 55.875 
Q 39.703125 55.765625 41.0625 55.515625 
z
" id="DejaVuSans-72"/>
      <path d="M 34.28125 27.484375 
Q 23.390625 27.484375 19.1875 25 
Q 14.984375 22.515625 14.984375 16.5 
Q 14.984375 11.71875 18.140625 8.90625 
Q 21.296875 6.109375 26.703125 6.109375 
Q 34.1875 6.109375 38.703125 11.40625 
Q 43.21875 16.703125 43.21875 25.484375 
L 43.21875 27.484375 
z
M 52.203125 31.203125 
L 52.203125 0 
L 43.21875 0 
L 43.21875 8.296875 
Q 40.140625 3.328125 35.546875 0.953125 
Q 30.953125 -1.421875 24.3125 -1.421875 
Q 15.921875 -1.421875 10.953125 3.296875 
Q 6 8.015625 6 15.921875 
Q 6 25.140625 12.171875 29.828125 
Q 18.359375 34.515625 30.609375 34.515625 
L 43.21875 34.515625 
L 43.21875 35.40625 
Q 43.21875 41.609375 39.140625 45 
Q 35.0625 48.390625 27.6875 48.390625 
Q 23 48.390625 18.546875 47.265625 
Q 14.109375 46.140625 10.015625 43.890625 
L 10.015625 52.203125 
Q 14.9375 54.109375 19.578125 55.046875 
Q 24.21875 56 28.609375 56 
Q 40.484375 56 46.34375 49.84375 
Q 52.203125 43.703125 52.203125 31.203125 
z
" id="DejaVuSans-61"/>
      <path d="M 18.3125 70.21875 
L 18.3125 54.6875 
L 36.8125 54.6875 
L 36.8125 47.703125 
L 18.3125 47.703125 
L 18.3125 18.015625 
Q 18.3125 11.328125 20.140625 9.421875 
Q 21.96875 7.515625 27.59375 7.515625 
L 36.8125 7.515625 
L 36.8125 0 
L 27.59375 0 
Q 17.1875 0 13.234375 3.875 
Q 9.28125 7.765625 9.28125 18.015625 
L 9.28125 47.703125 
L 2.6875 47.703125 
L 2.6875 54.6875 
L 9.28125 54.6875 
L 9.28125 70.21875 
z
" id="DejaVuSans-74"/>
      <path d="M 9.421875 54.6875 
L 18.40625 54.6875 
L 18.40625 0 
L 9.421875 0 
z
M 9.421875 75.984375 
L 18.40625 75.984375 
L 18.40625 64.59375 
L 9.421875 64.59375 
z
" id="DejaVuSans-69"/>
      <path d="M 30.609375 48.390625 
Q 23.390625 48.390625 19.1875 42.75 
Q 14.984375 37.109375 14.984375 27.296875 
Q 14.984375 17.484375 19.15625 11.84375 
Q 23.34375 6.203125 30.609375 6.203125 
Q 37.796875 6.203125 41.984375 11.859375 
Q 46.1875 17.53125 46.1875 27.296875 
Q 46.1875 37.015625 41.984375 42.703125 
Q 37.796875 48.390625 30.609375 48.390625 
z
M 30.609375 56 
Q 42.328125 56 49.015625 48.375 
Q 55.71875 40.765625 55.71875 27.296875 
Q 55.71875 13.875 49.015625 6.21875 
Q 42.328125 -1.421875 30.609375 -1.421875 
Q 18.84375 -1.421875 12.171875 6.21875 
Q 5.515625 13.875 5.515625 27.296875 
Q 5.515625 40.765625 12.171875 48.375 
Q 18.84375 56 30.609375 56 
z
" id="DejaVuSans-6f"/>
      <path d="M 44.28125 53.078125 
L 44.28125 44.578125 
Q 40.484375 46.53125 36.375 47.5 
Q 32.28125 48.484375 27.875 48.484375 
Q 21.1875 48.484375 17.84375 46.4375 
Q 14.5 44.390625 14.5 40.28125 
Q 14.5 37.15625 16.890625 35.375 
Q 19.28125 33.59375 26.515625 31.984375 
L 29.59375 31.296875 
Q 39.15625 29.25 43.1875 25.515625 
Q 47.21875 21.78125 47.21875 15.09375 
Q 47.21875 7.46875 41.1875 3.015625 
Q 35.15625 -1.421875 24.609375 -1.421875 
Q 20.21875 -1.421875 15.453125 -0.5625 
Q 10.6875 0.296875 5.421875 2 
L 5.421875 11.28125 
Q 10.40625 8.6875 15.234375 7.390625 
Q 20.0625 6.109375 24.8125 6.109375 
Q 31.15625 6.109375 34.5625 8.28125 
Q 37.984375 10.453125 37.984375 14.40625 
Q 37.984375 18.0625 35.515625 20.015625 
Q 33.0625 21.96875 24.703125 23.78125 
L 21.578125 24.515625 
Q 13.234375 26.265625 9.515625 29.90625 
Q 5.8125 33.546875 5.8125 39.890625 
Q 5.8125 47.609375 11.28125 51.796875 
Q 16.75 56 26.8125 56 
Q 31.78125 56 36.171875 55.265625 
Q 40.578125 54.546875 44.28125 53.078125 
z
" id="DejaVuSans-73"/>
     </defs>
     <g transform="translate(205.662344 335.860562)scale(0.1 -0.1)">
      <use xlink:href="#DejaVuSans-47"/>
      <use x="77.490234" xlink:href="#DejaVuSans-65"/>
      <use x="139.013672" xlink:href="#DejaVuSans-6e"/>
      <use x="202.392578" xlink:href="#DejaVuSans-65"/>
      <use x="263.916016" xlink:href="#DejaVuSans-72"/>
      <use x="305.029297" xlink:href="#DejaVuSans-61"/>
      <use x="366.308594" xlink:href="#DejaVuSans-74"/>
      <use x="405.517578" xlink:href="#DejaVuSans-69"/>
      <use x="433.300781" xlink:href="#DejaVuSans-6f"/>
      <use x="494.482422" xlink:href="#DejaVuSans-6e"/>
      <use x="557.861328" xlink:href="#DejaVuSans-73"/>
     </g>
    </g>
   </g>
   <g id="matplotlib.axis_2">
    <g id="ytick_1">
     <g id="line2d_13">
      <path clip-path="url(#peb66d17639)" d="M 57.6 298.883312 
L 414.72 298.883312 
" style="fill:none;stroke:#b0b0b0;stroke-linecap:square;stroke-width:0.8;"/>
     </g>
     <g id="line2d_14">
      <defs>
       <path d="M 0 0 
L -3.5 0 
" id="m41ced164a2" style="stroke:#000000;stroke-width:0.8;"/>
      </defs>
      <g>
       <use style="stroke:#000000;stroke-width:0.8;" x="57.6" xlink:href="#m41ced164a2" y="298.883312"/>
      </g>
     </g>
     <g id="text_8">
      <!-- $\mathdefault{-10^{2}}$ -->
      <defs>
       <path d="M 10.59375 35.5 
L 73.1875 35.5 
L 73.1875 27.203125 
L 10.59375 27.203125 
z
" id="DejaVuSans-2212"/>
      </defs>
      <g transform="translate(24.6 302.682531)scale(0.1 -0.1)">
       <use transform="translate(0 0.765625)" xlink:href="#DejaVuSans-2212"/>
       <use transform="translate(83.789062 0.765625)" xlink:href="#DejaVuSans-31"/>
       <use transform="translate(147.412109 0.765625)" xlink:href="#DejaVuSans-30"/>
       <use transform="translate(211.992188 39.046875)scale(0.7)" xlink:href="#DejaVuSans-32"/>
      </g>
     </g>
    </g>
    <g id="ytick_2">
     <g id="line2d_15">
      <path clip-path="url(#peb66d17639)" d="M 57.6 257.411994 
L 414.72 257.411994 
" style="fill:none;stroke:#b0b0b0;stroke-linecap:square;stroke-width:0.8;"/>
     </g>
     <g id="line2d_16">
      <g>
       <use style="stroke:#000000;stroke-width:0.8;" x="57.6" xlink:href="#m41ced164a2" y="257.411994"/>
      </g>
     </g>
     <g id="text_9">
      <!-- $\mathdefault{-10^{1}}$ -->
      <g transform="translate(24.6 261.211212)scale(0.1 -0.1)">
       <use transform="translate(0 0.684375)" xlink:href="#DejaVuSans-2212"/>
       <use transform="translate(83.789062 0.684375)" xlink:href="#DejaVuSans-31"/>
       <use transform="translate(147.412109 0.684375)" xlink:href="#DejaVuSans-30"/>
       <use transform="translate(211.992188 38.965625)scale(0.7)" xlink:href="#DejaVuSans-31"/>
      </g>
     </g>
    </g>
    <g id="ytick_3">
     <g id="line2d_17">
      <path clip-path="url(#peb66d17639)" d="M 57.6 205.385164 
L 414.72 205.385164 
" style="fill:none;stroke:#b0b0b0;stroke-linecap:square;stroke-width:0.8;"/>
     </g>
     <g id="line2d_18">
      <g>
       <use style="stroke:#000000;stroke-width:0.8;" x="57.6" xlink:href="#m41ced164a2" y="205.385164"/>
      </g>
     </g>
     <g id="text_10">
      <!-- $\mathdefault{-10^{0}}$ -->
      <g transform="translate(24.6 209.184383)scale(0.1 -0.1)">
       <use transform="translate(0 0.765625)" xlink:href="#DejaVuSans-2212"/>
       <use transform="translate(83.789062 0.765625)" xlink:href="#DejaVuSans-31"/>
       <use transform="translate(147.412109 0.765625)" xlink:href="#DejaVuSans-30"/>
       <use transform="translate(211.992188 39.046875)scale(0.7)" xlink:href="#DejaVuSans-30"/>
      </g>
     </g>
    </g>
    <g id="ytick_4">
     <g id="line2d_19">
      <path clip-path="url(#peb66d17639)" d="M 57.6 182.345543 
L 414.72 182.345543 
" style="fill:none;stroke:#b0b0b0;stroke-linecap:square;stroke-width:0.8;"/>
     </g>
     <g id="line2d_20">
      <g>
       <use style="stroke:#000000;stroke-width:0.8;" x="57.6" xlink:href="#m41ced164a2" y="182.345543"/>
      </g>
     </g>
     <g id="text_11">
      <!-- $\mathdefault{0}$ -->
      <g transform="translate(44.2 186.144761)scale(0.1 -0.1)">
       <use transform="translate(0 0.78125)" xlink:href="#DejaVuSans-30"/>
      </g>
     </g>
    </g>
    <g id="ytick_5">
     <g id="line2d_21">
      <path clip-path="url(#peb66d17639)" d="M 57.6 159.305921 
L 414.72 159.305921 
" style="fill:none;stroke:#b0b0b0;stroke-linecap:square;stroke-width:0.8;"/>
     </g>
     <g id="line2d_22">
      <g>
       <use style="stroke:#000000;stroke-width:0.8;" x="57.6" xlink:href="#m41ced164a2" y="159.305921"/>
      </g>
     </g>
     <g id="text_12">
      <!-- $\mathdefault{10^{0}}$ -->
      <g transform="translate(33 163.10514)scale(0.1 -0.1)">
       <use transform="translate(0 0.765625)" xlink:href="#DejaVuSans-31"/>
       <use transform="translate(63.623047 0.765625)" xlink:href="#DejaVuSans-30"/>
       <use transform="translate(128.203125 39.046875)scale(0.7)" xlink:href="#DejaVuSans-30"/>
      </g>
     </g>
    </g>
    <g id="ytick_6">
     <g id="line2d_23">
      <path clip-path="url(#peb66d17639)" d="M 57.6 107.279092 
L 414.72 107.279092 
" style="fill:none;stroke:#b0b0b0;stroke-linecap:square;stroke-width:0.8;"/>
     </g>
     <g id="line2d_24">
      <g>
       <use style="stroke:#000000;stroke-width:0.8;" x="57.6" xlink:href="#m41ced164a2" y="107.279092"/>
      </g>
     </g>
     <g id="text_13">
      <!-- $\mathdefault{10^{1}}$ -->
      <g transform="translate(33 111.07831)scale(0.1 -0.1)">
       <use transform="translate(0 0.684375)" xlink:href="#DejaVuSans-31"/>
       <use transform="translate(63.623047 0.684375)" xlink:href="#DejaVuSans-30"/>
       <use transform="translate(128.203125 38.965625)scale(0.7)" xlink:href="#DejaVuSans-31"/>
      </g>
     </g>
    </g>
    <g id="ytick_7">
     <g id="line2d_25">
      <path clip-path="url(#peb66d17639)" d="M 57.6 65.807773 
L 414.72 65.807773 
" style="fill:none;stroke:#b0b0b0;stroke-linecap:square;stroke-width:0.8;"/>
     </g>
     <g id="line2d_26">
      <g>
       <use style="stroke:#000000;stroke-width:0.8;" x="57.6" xlink:href="#m41ced164a2" y="65.807773"/>
      </g>
     </g>
     <g id="text_14">
      <!-- $\mathdefault{10^{2}}$ -->
      <g transform="translate(33 69.606992)scale(0.1 -0.1)">
       <use transform="translate(0 0.765625)" xlink:href="#DejaVuSans-31"/>
       <use transform="translate(63.623047 0.765625)" xlink:href="#DejaVuSans-30"/>
       <use transform="translate(128.203125 39.046875)scale(0.7)" xlink:href="#DejaVuSans-32"/>
      </g>
     </g>
    </g>
    <g id="ytick_8">
     <g id="line2d_27">
      <defs>
       <path d="M 0 0 
L -2 0 
" id="m82ee47e970" style="stroke:#000000;stroke-width:0.6;"/>
      </defs>
      <g>
       <use style="stroke:#000000;stroke-width:0.6;" x="57.6" xlink:href="#m82ee47e970" y="298.883312"/>
      </g>
     </g>
    </g>
    <g id="ytick_9">
     <g id="line2d_28">
      <g>
       <use style="stroke:#000000;stroke-width:0.6;" x="57.6" xlink:href="#m82ee47e970" y="257.411994"/>
      </g>
     </g>
    </g>
    <g id="ytick_10">
     <g id="line2d_29">
      <g>
       <use style="stroke:#000000;stroke-width:0.6;" x="57.6" xlink:href="#m82ee47e970" y="205.385164"/>
      </g>
     </g>
    </g>
    <g id="ytick_11">
     <g id="line2d_30">
      <g>
       <use style="stroke:#000000;stroke-width:0.6;" x="57.6" xlink:href="#m82ee47e970" y="182.345543"/>
      </g>
     </g>
    </g>
    <g id="ytick_12">
     <g id="line2d_31">
      <g>
       <use style="stroke:#000000;stroke-width:0.6;" x="57.6" xlink:href="#m82ee47e970" y="159.305921"/>
      </g>
     </g>
    </g>
    <g id="ytick_13">
     <g id="line2d_32">
      <g>
       <use style="stroke:#000000;stroke-width:0.6;" x="57.6" xlink:href="#m82ee47e970" y="107.279092"/>
      </g>
     </g>
    </g>
    <g id="ytick_14">
     <g id="line2d_33">
      <g>
       <use style="stroke:#000000;stroke-width:0.6;" x="57.6" xlink:href="#m82ee47e970" y="65.807773"/>
      </g>
     </g>
    </g>
    <g id="text_15">
     <!-- Fitness -->
     <defs>
      <path d="M 9.8125 72.90625 
L 51.703125 72.90625 
L 51.703125 64.59375 
L 19.671875 64.59375 
L 19.671875 43.109375 
L 48.578125 43.109375 
L 48.578125 34.8125 
L 19.671875 34.8125 
L 19.671875 0 
L 9.8125 0 
z
" id="DejaVuSans-46"/>
     </defs>
     <g transform="translate(18.520312 192.202219)rotate(-90)scale(0.1 -0.1)">
      <use xlink:href="#DejaVuSans-46"/>
      <use x="57.410156" xlink:href="#DejaVuSans-69"/>
      <use x="85.193359" xlink:href="#DejaVuSans-74"/>
      <use x="124.402344" xlink:href="#DejaVuSans-6e"/>
      <use x="187.78125" xlink:href="#DejaVuSans-65"/>
      <use x="249.304688" xlink:href="#DejaVuSans-73"/>
      <use x="301.404297" xlink:href="#DejaVuSans-73"/>
     </g>
    </g>
   </g>
   <g id="line2d_34">
    <path clip-path="url(#peb66d17639)" d="M 73.832727 286.700269 
L 74.157707 286.666313 
L 74.482686 286.96836 
L 74.807666 286.626806 
L 75.132645 286.031272 
L 75.457625 285.964966 
L 75.782604 286.911848 
L 76.107584 279.694075 
L 76.432563 286.979447 
L 76.757543 284.335431 
L 77.082523 283.794781 
L 77.407502 290.066701 
L 77.732482 270.732382 
L 78.057461 286.095437 
L 78.382441 281.451343 
L 79.0324 284.881901 
L 79.357379 280.385763 
L 80.007338 287.433414 
L 80.332318 287.076436 
L 80.657297 288.921139 
L 80.982277 285.7399 
L 81.307256 274.537331 
L 81.632236 286.643651 
L 82.282195 286.783787 
L 82.607174 284.340299 
L 82.932154 285.647957 
L 83.257133 282.5578 
L 83.907093 290.502451 
L 84.232072 288.916007 
L 84.557052 289.251463 
L 85.207011 283.998134 
L 85.53199 283.352797 
L 85.85697 286.45983 
L 86.181949 287.516625 
L 86.506929 286.031437 
L 86.831908 287.572624 
L 87.481867 285.226056 
L 87.806847 287.54046 
L 88.131826 293.672298 
L 88.781785 288.956473 
L 89.106765 286.525644 
L 89.431744 276.229691 
L 89.756724 286.943145 
L 90.081704 287.815938 
L 90.406683 286.001494 
L 90.731663 289.498467 
L 91.056642 279.05666 
L 91.381622 287.481259 
L 91.706601 280.055047 
L 92.031581 265.781879 
L 92.35656 285.743401 
L 92.68154 281.240667 
L 93.006519 284.172463 
L 93.331499 280.14698 
L 93.656478 278.330216 
L 93.981458 284.568171 
L 94.306437 287.189708 
L 94.631417 287.039427 
L 94.956396 290.801221 
L 95.281376 287.253568 
L 95.606355 290.421557 
L 95.931335 284.25991 
L 96.256314 281.546077 
L 96.581294 281.203365 
L 96.906274 268.330253 
L 97.231253 285.001306 
L 97.556233 277.141201 
L 97.881212 284.132161 
L 98.206192 283.485269 
L 98.531171 284.262747 
L 98.856151 276.874113 
L 99.18113 283.604408 
L 99.50611 283.48764 
L 99.831089 281.213003 
L 100.156069 286.437243 
L 100.481048 283.882251 
L 100.806028 286.090759 
L 101.131007 282.270015 
L 101.455987 289.23291 
L 101.780966 281.182255 
L 102.105946 276.468609 
L 102.430925 283.349283 
L 102.755905 285.4979 
L 103.405864 280.25438 
L 103.730844 282.211326 
L 104.055823 280.303316 
L 104.380803 253.559653 
L 104.705782 285.099537 
L 105.030762 282.714541 
L 105.355741 276.799274 
L 105.680721 282.581956 
L 106.0057 274.58388 
L 106.33068 283.039805 
L 106.655659 286.673085 
L 106.980639 281.525942 
L 107.305618 285.086882 
L 107.955577 288.715703 
L 108.605536 281.854863 
L 108.930516 272.547017 
L 109.255495 286.852956 
L 109.580475 286.296734 
L 109.905455 286.547111 
L 110.230434 278.533792 
L 110.555414 287.430622 
L 110.880393 286.874066 
L 111.205373 288.068207 
L 111.530352 285.291293 
L 111.855332 272.002409 
L 112.180311 285.211701 
L 112.505291 289.164911 
L 112.83027 282.08828 
L 113.15525 288.189816 
L 113.480229 285.757662 
L 113.805209 287.745914 
L 114.130188 270.326309 
L 114.455168 283.037283 
L 114.780147 286.33787 
L 115.105127 291.638623 
L 115.430106 283.503459 
L 115.755086 279.500002 
L 116.080066 286.086986 
L 116.405045 286.272722 
L 116.730025 285.751117 
L 117.055004 274.456643 
L 117.379984 286.722567 
L 117.704963 287.301947 
L 118.029943 284.910006 
L 118.354922 281.40418 
L 119.004881 284.971792 
L 119.329861 289.632984 
L 119.65484 280.822991 
L 119.97982 201.850773 
L 120.304799 286.312028 
L 120.954758 273.06328 
L 121.279738 265.334965 
L 121.604717 286.118198 
L 121.929697 280.110806 
L 122.254676 281.481355 
L 122.579656 286.046586 
L 122.904636 277.274448 
L 123.229615 284.49818 
L 123.554595 286.882264 
L 123.879574 278.096067 
L 124.204554 279.328457 
L 124.529533 279.644026 
L 124.854513 285.577849 
L 125.179492 287.406294 
L 125.504472 284.117944 
L 125.829451 289.875288 
L 126.154431 274.100876 
L 126.47941 286.483056 
L 126.80439 281.155174 
L 127.129369 285.490081 
L 127.454349 273.773801 
L 127.779328 286.527694 
L 128.104308 289.2098 
L 128.429287 238.592555 
L 128.754267 287.91843 
L 129.079247 285.223359 
L 129.404226 278.943512 
L 129.729206 278.457849 
L 130.054185 282.352738 
L 130.379165 283.73959 
L 130.704144 285.800787 
L 131.029124 285.843851 
L 131.354103 277.296673 
L 131.679083 285.911255 
L 132.004062 287.180924 
L 132.329042 282.55 
L 132.654021 286.119561 
L 132.979001 282.113595 
L 133.30398 286.758283 
L 133.62896 287.811433 
L 133.953939 289.832507 
L 134.278919 275.731867 
L 134.928878 279.79759 
L 135.253857 283.893904 
L 135.578837 282.099862 
L 135.903817 284.59882 
L 136.228796 283.622184 
L 136.878755 286.976799 
L 137.203735 285.751593 
L 137.528714 281.632813 
L 137.853694 275.141728 
L 138.178673 279.503497 
L 138.503653 286.823819 
L 138.828632 281.498955 
L 139.153612 280.421472 
L 139.478591 291.043812 
L 139.803571 281.322832 
L 140.12855 292.352281 
L 140.45353 283.597078 
L 140.778509 293.64008 
L 141.103489 274.995875 
L 141.428468 274.175673 
L 141.753448 282.509827 
L 142.078428 287.062722 
L 142.403407 280.411927 
L 142.728387 286.435462 
L 143.053366 287.163313 
L 143.378346 286.830999 
L 143.703325 285.985863 
L 144.028305 284.743115 
L 144.353284 274.587282 
L 144.678264 273.758493 
L 145.003243 270.81053 
L 145.328223 284.305203 
L 145.653202 286.293884 
L 145.978182 280.437238 
L 146.303161 284.854629 
L 146.628141 286.976529 
L 146.95312 269.688779 
L 147.2781 284.753086 
L 147.603079 288.98619 
L 147.928059 279.606534 
L 148.253038 284.892256 
L 148.578018 282.648826 
L 148.902998 282.483597 
L 149.227977 281.783872 
L 149.552957 286.409677 
L 149.877936 283.669986 
L 150.202916 287.252765 
L 150.527895 289.215508 
L 150.852875 287.772689 
L 151.177854 292.614803 
L 151.502834 280.178317 
L 151.827813 284.897956 
L 152.152793 283.833222 
L 152.477772 277.794889 
L 152.802752 287.062679 
L 153.127731 286.753392 
L 153.452711 279.83089 
L 153.77769 287.049821 
L 154.10267 283.931015 
L 154.427649 287.273555 
L 154.752629 282.341922 
L 155.077609 286.99951 
L 155.402588 271.390834 
L 155.727568 276.838112 
L 156.052547 279.026232 
L 156.377527 283.631748 
L 156.702506 284.693245 
L 157.027486 282.006985 
L 157.352465 283.685372 
L 157.677445 285.977742 
L 158.002424 283.625573 
L 158.327404 288.084395 
L 158.652383 286.613968 
L 159.302342 277.89517 
L 159.627322 276.494896 
L 159.952301 288.375555 
L 160.277281 285.765757 
L 160.60226 285.639186 
L 160.92724 278.638716 
L 161.252219 289.261654 
L 161.577199 268.427268 
L 161.902179 270.23461 
L 162.227158 274.288408 
L 162.552138 281.814752 
L 162.877117 278.310804 
L 163.202097 291.54753 
L 163.852056 279.791189 
L 164.177035 266.950199 
L 164.502015 259.373748 
L 164.826994 281.277753 
L 165.151974 284.189947 
L 165.476953 282.003858 
L 165.801933 286.844736 
L 166.126912 275.8298 
L 166.451892 286.400146 
L 166.776871 273.035846 
L 167.101851 294.718428 
L 167.42683 281.960065 
L 168.07679 269.256955 
L 168.401769 284.430982 
L 168.726749 277.076269 
L 169.051728 262.179433 
L 169.376708 265.056914 
L 169.701687 286.744087 
L 170.026667 273.438912 
L 170.676626 285.326015 
L 171.001605 285.952716 
L 171.326585 282.060194 
L 171.651564 283.161055 
L 171.976544 282.710509 
L 172.301523 255.986893 
L 172.626503 286.652733 
L 172.951482 283.492699 
L 173.276462 277.072601 
L 173.926421 282.05293 
L 174.2514 276.627591 
L 174.57638 277.219529 
L 174.90136 281.787648 
L 175.226339 257.968494 
L 175.551319 282.438527 
L 175.876298 253.007685 
L 176.201278 266.936673 
L 176.526257 262.588029 
L 176.851237 276.906902 
L 177.176216 243.178273 
L 177.501196 230.093171 
L 177.826175 266.516195 
L 178.151155 269.412188 
L 178.476134 280.099979 
L 178.801114 263.727767 
L 179.126093 255.929743 
L 179.451073 281.28845 
L 179.776052 272.130552 
L 180.101032 283.556035 
L 180.426011 279.209137 
L 180.750991 277.393608 
L 181.075971 263.441211 
L 181.40095 284.107924 
L 181.72593 280.839374 
L 182.050909 286.496332 
L 182.375889 276.516213 
L 182.700868 259.673634 
L 183.025848 275.42033 
L 183.350827 280.813537 
L 183.675807 278.578044 
L 184.000786 278.954425 
L 184.325766 285.895782 
L 184.650745 256.605321 
L 184.975725 278.333849 
L 185.300704 286.193271 
L 185.625684 278.499789 
L 185.950663 284.46399 
L 186.275643 283.314752 
L 186.600622 286.856589 
L 186.925602 286.482857 
L 187.575561 270.253787 
L 187.900541 286.508613 
L 188.22552 286.398161 
L 188.5505 275.31237 
L 188.875479 286.617603 
L 189.200459 286.924243 
L 189.525438 283.518222 
L 189.850418 265.135072 
L 190.175397 284.387501 
L 190.500377 281.723749 
L 190.825356 286.613895 
L 191.150336 286.752993 
L 191.475315 280.217225 
L 191.800295 279.662017 
L 192.450254 283.649698 
L 192.775233 284.100909 
L 193.100213 281.845989 
L 193.425192 275.356441 
L 193.750172 280.469614 
L 194.075152 254.072547 
L 194.400131 277.396455 
L 194.725111 283.088726 
L 195.05009 285.980922 
L 195.37507 273.285466 
L 195.700049 286.126151 
L 196.025029 287.004935 
L 196.350008 285.817123 
L 196.674988 285.686891 
L 196.999967 278.904351 
L 197.324947 282.14679 
L 197.649926 281.714495 
L 197.974906 267.31304 
L 198.299885 280.012982 
L 198.624865 276.476891 
L 198.949844 278.084558 
L 199.274824 267.547441 
L 199.599803 283.679549 
L 199.924783 249.815837 
L 200.249762 281.947617 
L 200.574742 282.077019 
L 200.899722 279.125625 
L 201.549681 290.075483 
L 201.87466 280.97347 
L 202.19964 277.769297 
L 202.524619 291.585207 
L 202.849599 281.463961 
L 203.174578 278.596379 
L 203.824537 270.304757 
L 204.149517 283.006501 
L 204.474496 287.757555 
L 204.799476 283.481506 
L 205.124455 286.52875 
L 205.449435 280.968141 
L 206.099394 284.631142 
L 206.424373 281.280428 
L 206.749353 285.651562 
L 207.074333 283.765997 
L 207.399312 285.572554 
L 207.724292 277.945473 
L 208.049271 279.807628 
L 208.374251 287.109295 
L 208.69923 286.627475 
L 209.02421 286.376763 
L 209.349189 282.197665 
L 209.674169 289.744613 
L 209.999148 292.630164 
L 210.324128 289.247094 
L 210.649107 290.494784 
L 210.974087 285.072298 
L 211.299066 286.056703 
L 211.624046 287.75583 
L 211.949025 286.238849 
L 212.274005 286.727777 
L 212.598984 285.473817 
L 212.923964 287.137083 
L 213.248943 286.608687 
L 213.573923 289.112682 
L 213.898903 281.466205 
L 214.223882 284.813949 
L 214.548862 274.068186 
L 214.873841 281.913833 
L 215.198821 268.384108 
L 215.5238 283.446953 
L 215.84878 270.958957 
L 216.498739 286.703854 
L 216.823718 285.143407 
L 217.148698 287.836803 
L 217.473677 286.497079 
L 217.798657 277.546396 
L 218.123636 286.154942 
L 218.448616 283.707237 
L 218.773595 286.713247 
L 219.098575 278.299248 
L 219.423554 285.41776 
L 219.748534 287.872796 
L 220.073514 284.548376 
L 220.723473 288.65708 
L 221.048452 284.793438 
L 221.373432 283.467612 
L 221.698411 286.919787 
L 222.34837 281.926594 
L 222.67335 286.757865 
L 222.998329 285.010366 
L 223.323309 264.951907 
L 223.648288 280.587216 
L 223.973268 281.859831 
L 224.298247 250.237717 
L 224.623227 282.590309 
L 224.948206 284.830638 
L 225.273186 281.459401 
L 225.598165 276.101499 
L 225.923145 282.731606 
L 226.248124 286.288261 
L 226.573104 275.611813 
L 227.223063 288.011763 
L 227.548043 285.236666 
L 227.873022 276.500655 
L 228.198002 278.285745 
L 228.522981 273.097582 
L 228.847961 283.621103 
L 229.17294 273.056659 
L 229.49792 281.716254 
L 229.822899 285.745319 
L 230.147879 287.421471 
L 230.472858 278.394148 
L 230.797838 288.32573 
L 231.122817 286.040412 
L 231.447797 282.368366 
L 231.772776 286.954838 
L 232.097756 282.812342 
L 232.422735 286.637808 
L 232.747715 276.41944 
L 233.072695 277.611844 
L 233.397674 271.588901 
L 233.722654 280.005348 
L 234.047633 284.341101 
L 234.372613 286.847611 
L 234.697592 290.777491 
L 235.022572 288.672695 
L 235.347551 287.863139 
L 235.672531 286.737887 
L 235.99751 279.622872 
L 236.32249 284.200841 
L 236.647469 281.281721 
L 236.972449 275.222628 
L 237.297428 286.715369 
L 237.622408 288.066979 
L 237.947387 286.080628 
L 238.272367 277.554395 
L 238.597346 275.201066 
L 238.922326 277.646053 
L 239.247305 283.228112 
L 239.572285 283.521209 
L 239.897265 285.574576 
L 240.222244 281.027826 
L 240.547224 284.430053 
L 241.197183 275.317235 
L 241.522162 287.959214 
L 241.847142 283.791916 
L 242.172121 286.274757 
L 242.497101 287.019667 
L 242.82208 289.909454 
L 243.14706 283.048524 
L 243.472039 286.238984 
L 243.797019 278.121438 
L 244.121998 284.167127 
L 244.446978 284.804341 
L 244.771957 286.514077 
L 245.096937 284.903846 
L 245.421916 285.095061 
L 245.746896 285.921283 
L 246.071876 284.489227 
L 246.396855 268.217793 
L 246.721835 285.163714 
L 247.046814 282.170162 
L 247.371794 281.67889 
L 247.696773 289.971692 
L 248.021753 285.176824 
L 248.346732 290.184081 
L 248.671712 286.882534 
L 249.321671 284.561281 
L 249.64665 272.62036 
L 250.296609 280.688211 
L 250.621589 286.235926 
L 250.946568 283.465903 
L 251.271548 282.21667 
L 251.596527 280.134531 
L 251.921507 288.197041 
L 252.246486 284.598487 
L 252.571466 263.944782 
L 252.896446 285.522182 
L 253.221425 276.201867 
L 253.546405 283.26512 
L 253.871384 284.602169 
L 254.196364 275.21616 
L 254.521343 279.620615 
L 254.846323 277.90254 
L 255.171302 280.846651 
L 255.496282 278.587014 
L 255.821261 283.907401 
L 256.146241 286.57927 
L 256.47122 282.776603 
L 256.7962 286.488373 
L 257.121179 285.91779 
L 257.446159 283.436857 
L 257.771138 278.158903 
L 258.096118 286.012748 
L 258.421097 286.634417 
L 258.746077 276.523627 
L 259.071057 286.527403 
L 259.396036 278.561185 
L 259.721016 283.788705 
L 260.045995 266.61518 
L 260.370975 279.841073 
L 260.695954 283.95428 
L 261.020934 280.693173 
L 261.345913 284.501069 
L 261.670893 286.023542 
L 261.995872 286.596976 
L 262.320852 282.694656 
L 262.645831 284.141813 
L 262.970811 280.752378 
L 263.29579 286.805971 
L 263.62077 286.165476 
L 263.945749 287.397865 
L 264.270729 289.777462 
L 264.595708 282.996146 
L 264.920688 282.407336 
L 265.245667 282.524701 
L 265.570647 279.062211 
L 265.895627 287.228079 
L 266.220606 281.103556 
L 266.545586 271.54473 
L 267.195545 282.205177 
L 267.520524 276.195428 
L 267.845504 264.277526 
L 268.170483 280.558024 
L 268.820442 283.374248 
L 269.145422 286.928437 
L 269.470401 285.231632 
L 269.795381 280.152936 
L 270.12036 286.514615 
L 270.44534 285.38281 
L 270.770319 288.391468 
L 271.095299 273.548568 
L 271.420278 285.479818 
L 272.070238 272.567737 
L 272.395217 279.989968 
L 272.720197 282.561482 
L 273.045176 272.543133 
L 273.370156 286.503838 
L 273.695135 286.283607 
L 274.020115 285.432787 
L 274.345094 286.622162 
L 274.670074 286.379504 
L 274.995053 253.399625 
L 275.320033 286.433448 
L 275.645012 279.448638 
L 275.969992 285.39526 
L 276.294971 281.740977 
L 276.94493 284.532039 
L 277.26991 282.647791 
L 277.594889 286.236528 
L 277.919869 284.360242 
L 278.244848 281.599296 
L 278.569828 272.522612 
L 278.894808 267.253474 
L 279.219787 284.155856 
L 279.544767 278.917223 
L 279.869746 284.583152 
L 280.194726 283.07531 
L 280.519705 295.488 
L 281.169664 281.296644 
L 281.494644 286.643959 
L 281.819623 283.953601 
L 282.144603 282.289499 
L 282.469582 274.396873 
L 282.794562 281.769701 
L 283.444521 289.627225 
L 283.7695 286.718831 
L 284.09448 287.106135 
L 284.419459 278.392307 
L 285.069419 289.007294 
L 285.394398 284.710424 
L 285.719378 286.537075 
L 286.044357 284.966592 
L 286.369337 281.122409 
L 286.694316 284.783992 
L 287.019296 281.470942 
L 287.344275 280.508501 
L 287.669255 285.498263 
L 287.994234 281.638788 
L 288.319214 279.842979 
L 288.644193 281.122329 
L 288.969173 277.870038 
L 289.294152 286.402879 
L 289.619132 280.369975 
L 289.944111 279.979166 
L 290.269091 285.936366 
L 290.59407 282.712825 
L 291.244029 292.236322 
L 291.569009 285.380263 
L 291.893989 289.558904 
L 292.218968 291.925086 
L 292.543948 289.008043 
L 292.868927 288.634996 
L 293.193907 287.996575 
L 293.518886 288.60554 
L 293.843866 288.684666 
L 294.168845 286.926044 
L 294.493825 287.311882 
L 294.818804 279.210727 
L 295.143784 283.238809 
L 295.468763 280.42555 
L 295.793743 290.896898 
L 296.118722 285.402537 
L 296.443702 286.668688 
L 296.768681 276.953862 
L 297.093661 284.951077 
L 297.41864 285.459233 
L 297.74362 284.979901 
L 298.0686 288.196124 
L 298.393579 287.521258 
L 298.718559 275.521213 
L 299.368518 293.357513 
L 299.693497 280.774233 
L 300.018477 285.750913 
L 300.343456 284.157834 
L 300.668436 276.748727 
L 300.993415 287.145298 
L 301.318395 286.060025 
L 301.643374 293.17045 
L 301.968354 287.495115 
L 302.293333 279.555312 
L 302.618313 265.169965 
L 302.943292 282.711743 
L 303.593251 287.914423 
L 303.918231 285.054731 
L 304.24321 288.853548 
L 304.56819 284.473007 
L 304.89317 285.295349 
L 305.218149 288.451467 
L 305.543129 275.407285 
L 305.868108 275.665055 
L 306.193088 285.70249 
L 306.518067 277.116729 
L 306.843047 285.207765 
L 307.168026 285.506782 
L 307.493006 278.479325 
L 307.817985 279.122378 
L 308.142965 285.49214 
L 308.467944 281.108907 
L 308.792924 274.313364 
L 309.117903 273.46604 
L 309.442883 283.122047 
L 309.767862 283.986467 
L 310.092842 285.696951 
L 310.417821 281.42516 
L 310.742801 286.235818 
L 311.067781 287.639286 
L 311.39276 284.474773 
L 311.71774 286.318181 
L 312.367699 258.417002 
L 312.692678 282.902257 
L 313.017658 291.662052 
L 313.342637 294.530798 
L 313.667617 273.595023 
L 314.317576 287.884311 
L 314.642555 286.719523 
L 314.967535 281.789437 
L 315.292514 287.332904 
L 315.617494 284.50654 
L 315.942473 285.016312 
L 316.267453 286.483563 
L 316.592432 286.601574 
L 316.917412 286.556131 
L 317.242391 276.261183 
L 317.567371 286.601111 
L 317.892351 283.718346 
L 318.21733 287.648685 
L 318.54231 282.481899 
L 318.867289 282.664778 
L 319.192269 286.728871 
L 319.517248 286.552049 
L 319.842228 287.254287 
L 320.167207 287.557024 
L 320.492187 285.920689 
L 320.817166 286.608 
L 321.142146 280.625604 
L 321.792105 290.465145 
L 322.117084 273.069955 
L 322.442064 283.279014 
L 322.767043 267.908405 
L 323.092023 286.668928 
L 323.417002 281.097873 
L 323.741982 287.32286 
L 324.066962 283.278858 
L 324.391941 284.320379 
L 324.716921 289.284816 
L 325.0419 290.978847 
L 325.36688 287.04143 
L 325.691859 286.49277 
L 326.016839 286.937148 
L 326.341818 281.649891 
L 326.666798 285.385447 
L 326.991777 287.087198 
L 327.316757 281.798647 
L 327.641736 281.882443 
L 327.966716 272.95354 
L 328.291695 285.408259 
L 328.616675 282.572074 
L 328.941654 284.937562 
L 329.266634 239.453154 
L 329.591613 285.559953 
L 329.916593 285.648764 
L 330.241572 285.895224 
L 330.566552 288.225555 
L 330.891532 285.004606 
L 331.86647 288.599147 
L 332.516429 277.994185 
L 332.841409 285.863979 
L 333.166388 284.625054 
L 333.491368 276.762882 
L 333.816347 286.378395 
L 334.141327 284.407453 
L 334.466306 278.184363 
L 334.791286 284.500643 
L 335.116265 269.559699 
L 335.441245 283.996668 
L 335.766224 284.772284 
L 336.091204 283.692251 
L 336.416183 293.170904 
L 336.741163 269.639491 
L 337.066143 282.905517 
L 337.391122 282.800577 
L 337.716102 285.941614 
L 338.041081 283.821771 
L 338.366061 280.155297 
L 338.69104 283.060003 
L 339.01602 275.337839 
L 339.340999 286.866121 
L 339.665979 286.035681 
L 339.990958 269.463268 
L 340.640917 285.448136 
L 340.965897 286.215967 
L 341.290876 279.938498 
L 341.615856 266.207724 
L 341.940835 284.202637 
L 342.265815 268.289177 
L 342.915774 286.564176 
L 343.565733 278.626671 
L 343.890713 281.515603 
L 344.215692 183.038702 
L 344.540672 285.782477 
L 344.865651 279.145636 
L 345.190631 262.940246 
L 345.51561 270.405963 
L 345.84059 269.4025 
L 346.165569 279.359469 
L 346.490549 277.051163 
L 346.815528 285.405367 
L 347.140508 282.653879 
L 347.465487 282.904509 
L 347.790467 277.161922 
L 348.115446 280.990329 
L 348.440426 274.550367 
L 348.765405 282.947895 
L 349.090385 285.491059 
L 349.415364 273.280454 
L 349.740344 275.958754 
L 350.065324 274.692025 
L 350.390303 266.337405 
L 350.715283 282.341632 
L 351.040262 285.123163 
L 351.365242 277.92316 
L 351.690221 282.21732 
L 352.015201 291.527752 
L 352.34018 282.043185 
L 352.66516 286.762038 
L 352.990139 287.254725 
L 353.315119 288.257726 
L 353.640098 286.438371 
L 353.965078 286.870008 
L 354.290057 286.8936 
L 354.615037 286.410557 
L 354.940016 285.322792 
L 355.264996 283.633951 
L 355.589975 286.371425 
L 355.914955 285.485966 
L 356.239934 286.641912 
L 356.564914 286.558052 
L 356.889894 283.219618 
L 357.214873 282.638776 
L 357.539853 290.106213 
L 357.864832 282.896227 
L 358.189812 285.288317 
L 358.514791 258.779453 
L 358.839771 286.009947 
L 359.16475 284.919938 
L 359.48973 282.469724 
L 360.139689 286.00888 
L 360.464668 286.37833 
L 360.789648 283.7831 
L 361.114627 284.384909 
L 361.439607 288.191152 
L 362.089566 274.237702 
L 362.414545 285.87951 
L 362.739525 290.946208 
L 363.064505 287.558391 
L 363.389484 255.867935 
L 363.714464 276.747393 
L 364.039443 286.588827 
L 364.364423 287.204384 
L 364.689402 281.109262 
L 365.014382 285.318987 
L 365.339361 286.470494 
L 365.664341 254.2226 
L 365.98932 282.626016 
L 366.3143 279.958817 
L 366.639279 286.107068 
L 366.964259 276.708156 
L 367.289238 261.937938 
L 367.614218 288.955996 
L 367.939197 288.334101 
L 368.264177 287.268346 
L 368.589156 286.625028 
L 368.914136 289.499186 
L 369.239115 287.148304 
L 369.564095 286.519533 
L 369.889075 286.547336 
L 370.214054 286.152013 
L 371.188993 289.640369 
L 371.513972 284.464609 
L 371.838952 284.955388 
L 372.163931 286.344273 
L 372.488911 272.431621 
L 372.81389 274.037923 
L 373.13887 272.070051 
L 373.463849 283.025009 
L 373.788829 286.267937 
L 374.113808 287.479533 
L 374.438788 283.245325 
L 374.763767 246.43153 
L 375.088747 272.51083 
L 375.413726 285.704948 
L 375.738706 281.286564 
L 376.388665 283.245357 
L 376.713645 284.998446 
L 377.038624 282.948861 
L 377.363604 284.269411 
L 377.688583 286.132188 
L 378.013563 281.081145 
L 378.338542 279.872884 
L 378.663522 283.852396 
L 378.988501 284.489675 
L 379.313481 277.207312 
L 379.63846 274.171213 
L 379.96344 285.577642 
L 380.613399 280.378541 
L 380.938378 279.055592 
L 381.263358 281.051407 
L 381.588337 282.006245 
L 381.913317 276.317989 
L 382.238296 286.118662 
L 382.563276 284.0248 
L 382.888256 272.126496 
L 383.213235 282.287862 
L 383.538215 286.402921 
L 383.863194 286.588594 
L 384.188174 284.987954 
L 384.513153 279.877873 
L 384.838133 287.403527 
L 385.163112 285.255807 
L 385.488092 279.444986 
L 385.813071 287.799587 
L 386.138051 264.720757 
L 386.46303 290.987324 
L 386.78801 285.270037 
L 387.112989 284.971621 
L 387.437969 292.657167 
L 387.762948 280.140298 
L 388.087928 288.619499 
L 388.412907 278.279312 
L 388.737887 287.25829 
L 389.062867 286.349746 
L 389.387846 276.808264 
L 389.712826 277.421447 
L 390.037805 283.723082 
L 390.362785 277.388572 
L 391.012744 290.353313 
L 391.337723 290.72212 
L 391.662703 286.075117 
L 391.987682 285.88836 
L 392.312662 284.480321 
L 392.637641 274.146093 
L 392.962621 277.856126 
L 393.2876 283.963804 
L 393.61258 285.85615 
L 393.937559 280.886533 
L 394.262539 280.280462 
L 394.587518 286.30613 
L 394.912498 278.680575 
L 395.237477 277.337237 
L 395.562457 271.726738 
L 395.887437 283.437489 
L 396.212416 284.577064 
L 396.537396 273.386773 
L 396.862375 282.543355 
L 397.187355 286.697689 
L 397.512334 283.671364 
L 397.837314 285.843143 
L 398.162293 286.130581 
L 398.487273 291.000765 
L 398.487273 291.000765 
" style="fill:none;stroke:#0000ff;stroke-linecap:square;stroke-width:1.5;"/>
   </g>
   <g id="line2d_35">
    <path clip-path="url(#peb66d17639)" d="M 73.832727 184.716 
L 74.157707 187.014669 
L 74.482686 184.840019 
L 74.807666 185.934674 
L 75.132645 65.814082 
L 76.432563 65.811501 
L 76.757543 54.285475 
L 77.082523 65.811358 
L 77.407502 66.560786 
L 77.732482 65.811025 
L 78.382441 65.812092 
L 78.70742 53.712506 
L 79.0324 65.814509 
L 80.007338 65.81326 
L 80.332318 184.796821 
L 80.657297 185.887359 
L 80.982277 65.818852 
L 81.307256 65.818852 
L 81.632236 185.588316 
L 81.957215 185.712021 
L 82.282195 185.186735 
L 82.607174 65.811402 
L 83.257133 65.818586 
L 83.582113 185.725782 
L 83.907093 65.823143 
L 84.232072 65.81844 
L 84.557052 186.9481 
L 84.882031 66.953665 
L 85.207011 65.813022 
L 85.53199 65.812724 
L 85.85697 185.888786 
L 86.181949 185.884981 
L 86.506929 65.812915 
L 87.481867 65.810824 
L 87.806847 67.440682 
L 88.131826 66.880727 
L 88.456806 65.825526 
L 88.781785 65.812174 
L 89.106765 67.94365 
L 89.431744 65.810717 
L 89.756724 185.404297 
L 90.081704 67.05409 
L 90.406683 65.811195 
L 91.056642 65.811251 
L 91.381622 185.057013 
L 91.706601 65.811016 
L 94.631417 65.810731 
L 94.956396 67.968405 
L 95.281376 65.812931 
L 95.606355 188.516945 
L 95.931335 65.813746 
L 105.680721 65.813665 
L 106.0057 53.727283 
L 106.33068 65.808703 
L 106.655659 185.72822 
L 106.980639 65.811696 
L 108.605536 65.812196 
L 108.930516 53.866746 
L 109.255495 65.811149 
L 110.880393 65.824041 
L 111.205373 66.959326 
L 111.530352 65.812064 
L 113.480229 65.813564 
L 113.805209 67.628486 
L 114.130188 65.810109 
L 117.379984 65.812824 
L 119.004881 65.811055 
L 119.329861 67.543187 
L 119.65484 65.812188 
L 119.97982 65.822809 
L 120.304799 185.388651 
L 120.629779 65.812176 
L 122.254676 65.811924 
L 122.579656 188.719078 
L 122.904636 65.813493 
L 123.229615 65.813224 
L 123.554595 185.682843 
L 123.879574 65.809503 
L 124.854513 65.815999 
L 125.179492 54.27314 
L 125.504472 65.812493 
L 126.154431 65.810106 
L 126.47941 185.596922 
L 126.80439 65.814414 
L 132.329042 65.819013 
L 132.654021 67.769213 
L 132.979001 65.812606 
L 133.30398 185.921742 
L 133.62896 65.814225 
L 136.553776 65.810011 
L 136.878755 185.291326 
L 137.203735 65.822164 
L 137.528714 54.024876 
L 137.853694 65.811663 
L 141.753448 65.811853 
L 142.078428 185.289381 
L 142.403407 65.812474 
L 142.728387 184.994881 
L 143.053366 184.683043 
L 143.378346 66.697739 
L 143.703325 65.819399 
L 146.303161 65.813269 
L 146.628141 66.843179 
L 146.95312 65.82177 
L 147.2781 65.817508 
L 147.603079 185.387799 
L 147.928059 65.811475 
L 149.227977 65.810769 
L 149.552957 186.735235 
L 149.877936 65.819324 
L 150.202916 185.981484 
L 150.527895 185.893043 
L 150.852875 185.997235 
L 151.177854 65.823487 
L 152.477772 65.812501 
L 152.802752 185.890848 
L 153.127731 185.890848 
L 153.452711 65.812279 
L 153.77769 67.976997 
L 154.10267 65.819008 
L 154.752629 65.822335 
L 155.077609 67.527527 
L 155.402588 65.810432 
L 159.952301 65.810698 
L 160.277281 53.812732 
L 160.60226 65.809644 
L 162.227158 65.810999 
L 162.552138 53.568 
L 162.877117 53.679561 
L 163.202097 188.449911 
L 163.527076 188.525031 
L 163.852056 65.809094 
L 167.75181 65.811141 
L 168.07679 53.933779 
L 168.401769 65.815877 
L 169.376708 65.808916 
L 169.701687 66.581996 
L 170.026667 65.812436 
L 172.301523 65.810504 
L 172.626503 67.702069 
L 172.951482 65.811244 
L 173.276462 54.047262 
L 173.601441 65.811088 
L 176.526257 65.810194 
L 176.851237 54.287568 
L 177.176216 65.810004 
L 179.126093 65.811015 
L 179.451073 54.204282 
L 179.776052 58.944622 
L 180.101032 65.809983 
L 181.72593 65.822736 
L 182.050909 188.603776 
L 182.375889 65.811854 
L 184.975725 65.812268 
L 185.300704 186.846363 
L 185.625684 65.815449 
L 186.275643 65.80904 
L 186.600622 185.363666 
L 186.925602 65.825019 
L 187.575561 65.813057 
L 187.900541 186.215967 
L 188.22552 67.094998 
L 188.5505 65.813558 
L 188.875479 66.305718 
L 189.200459 65.822042 
L 190.500377 65.809748 
L 190.825356 184.97844 
L 191.150336 185.736179 
L 191.475315 65.819054 
L 193.750172 65.811086 
L 194.075152 183.366358 
L 194.400131 65.818881 
L 198.299885 65.813739 
L 198.624865 54.173616 
L 198.949844 65.816923 
L 207.724292 65.811726 
L 208.049271 65.811108 
L 208.374251 186.754092 
L 208.69923 65.815258 
L 209.349189 65.812356 
L 209.674169 188.15537 
L 209.999148 186.250685 
L 210.324128 185.907625 
L 210.649107 187.1417 
L 210.974087 65.812166 
L 211.299066 65.809092 
L 211.624046 67.393363 
L 211.949025 65.81752 
L 212.274005 188.502029 
L 212.598984 65.811923 
L 212.923964 65.818391 
L 213.248943 67.212283 
L 213.573923 65.813077 
L 216.823718 65.811214 
L 217.148698 185.762914 
L 217.473677 65.8118 
L 220.073514 65.810932 
L 220.398493 185.225158 
L 220.723473 65.812771 
L 229.822899 65.811033 
L 230.147879 67.647691 
L 230.472858 65.811286 
L 234.047633 65.813276 
L 234.372613 185.74432 
L 234.697592 185.904534 
L 235.022572 65.813205 
L 236.972449 65.812132 
L 237.297428 185.432211 
L 237.622408 65.82034 
L 241.197183 65.81326 
L 241.522162 67.316672 
L 241.847142 65.813057 
L 242.172121 65.813387 
L 242.497101 185.831073 
L 242.82208 185.941909 
L 243.14706 65.821448 
L 247.046814 65.812964 
L 247.371794 65.812964 
L 247.696773 186.04417 
L 248.021753 65.816775 
L 248.346732 65.824415 
L 248.671712 185.282967 
L 248.996691 65.822976 
L 252.246486 65.809599 
L 252.571466 65.818331 
L 252.896446 183.436407 
L 253.221425 65.810986 
L 255.821261 65.811256 
L 256.146241 66.926042 
L 256.47122 65.812057 
L 256.7962 68.032343 
L 257.121179 65.810989 
L 261.670893 65.821879 
L 261.995872 185.776223 
L 262.320852 65.81267 
L 262.970811 65.812176 
L 263.29579 186.461577 
L 263.62077 65.812443 
L 263.945749 185.711911 
L 264.270729 67.413655 
L 264.595708 65.812429 
L 265.570647 65.812474 
L 265.895627 67.357018 
L 266.220606 65.811159 
L 267.520524 65.812122 
L 267.845504 54.156029 
L 268.170483 65.809967 
L 268.495463 53.925524 
L 268.820442 65.811912 
L 269.145422 68.187556 
L 269.470401 65.818331 
L 269.795381 65.812387 
L 270.12036 187.009472 
L 270.44534 65.821652 
L 273.370156 65.810923 
L 273.695135 66.438765 
L 274.020115 65.813809 
L 274.345094 67.040945 
L 274.670074 65.809615 
L 280.194726 65.812398 
L 280.519705 186.035543 
L 280.844685 185.818528 
L 281.169664 65.813285 
L 281.494644 185.924551 
L 281.819623 65.812597 
L 283.444521 65.819701 
L 283.7695 67.218035 
L 284.09448 185.896254 
L 284.419459 65.817144 
L 284.744439 53.910315 
L 285.069419 65.813729 
L 285.394398 65.823353 
L 285.719378 66.609282 
L 286.044357 65.815898 
L 288.969173 65.81199 
L 289.294152 185.791073 
L 289.619132 65.822876 
L 290.59407 65.820317 
L 290.91905 185.024228 
L 291.244029 187.227875 
L 291.569009 65.821058 
L 291.893989 186.869653 
L 292.218968 185.09382 
L 292.543948 187.833466 
L 292.868927 65.81275 
L 293.193907 188.246488 
L 293.518886 185.191663 
L 293.843866 185.305162 
L 294.168845 67.551621 
L 294.493825 65.810491 
L 300.668436 65.811167 
L 300.993415 67.721092 
L 301.318395 65.821986 
L 301.643374 186.459009 
L 301.968354 184.806097 
L 302.293333 65.810433 
L 303.268272 65.820274 
L 303.593251 185.068418 
L 303.918231 65.811588 
L 304.24321 185.92565 
L 304.56819 65.812824 
L 311.39276 65.812465 
L 311.71774 67.943382 
L 312.042719 65.812862 
L 313.992596 65.811191 
L 314.317576 67.489254 
L 314.642555 65.82239 
L 314.967535 54.21227 
L 315.292514 65.822238 
L 317.242391 65.820772 
L 317.567371 188.280536 
L 317.892351 65.814352 
L 318.21733 186.255191 
L 318.54231 65.811692 
L 318.867289 65.811692 
L 319.192269 66.905538 
L 319.517248 186.287047 
L 319.842228 185.63336 
L 320.167207 68.089354 
L 320.492187 65.813449 
L 320.817166 185.413612 
L 321.142146 65.810775 
L 321.467125 66.442515 
L 321.792105 65.822849 
L 322.767043 65.813174 
L 323.092023 186.958778 
L 323.417002 65.812879 
L 325.36688 65.813058 
L 325.691859 188.583379 
L 326.016839 185.228367 
L 326.341818 65.809537 
L 326.666798 65.810569 
L 326.991777 186.612293 
L 327.316757 65.81188 
L 330.241572 65.815181 
L 330.566552 67.660351 
L 330.891532 182.980745 
L 331.216511 65.822999 
L 333.491368 65.810128 
L 333.816347 68.028228 
L 334.141327 65.824605 
L 337.066143 65.811382 
L 339.01602 65.812055 
L 339.340999 185.918464 
L 339.665979 65.811946 
L 342.590794 65.821409 
L 342.915774 186.420443 
L 343.240753 65.811593 
L 352.34018 65.8117 
L 352.66516 186.068582 
L 352.990139 65.817727 
L 353.315119 185.848913 
L 353.640098 65.814454 
L 353.965078 65.814584 
L 354.290057 67.701979 
L 354.615037 65.812744 
L 355.914955 65.822019 
L 356.239934 185.223032 
L 356.564914 65.821377 
L 357.214873 65.811297 
L 357.539853 184.906924 
L 357.864832 65.822936 
L 360.789648 65.812734 
L 363.714464 65.80958 
L 364.039443 66.244535 
L 364.364423 65.812397 
L 365.014382 65.811089 
L 365.339361 67.368553 
L 365.664341 65.813848 
L 367.289238 65.823899 
L 367.614218 185.073223 
L 367.939197 67.436079 
L 368.264177 185.800238 
L 368.589156 185.902424 
L 368.914136 185.748338 
L 369.239115 65.812133 
L 369.564095 186.247762 
L 369.889075 67.060393 
L 370.214054 65.81303 
L 370.539034 65.817437 
L 370.864013 185.539774 
L 371.188993 65.811127 
L 371.838952 65.813577 
L 372.163931 66.470364 
L 372.488911 65.8112 
L 381.913317 65.82248 
L 382.238296 67.25432 
L 382.563276 65.812083 
L 383.538215 65.812897 
L 383.863194 66.650146 
L 384.188174 65.809358 
L 384.513153 65.811034 
L 384.838133 67.411307 
L 385.163112 65.813085 
L 388.737887 65.813695 
L 389.062867 183.051208 
L 389.387846 65.811534 
L 391.337723 65.813089 
L 391.662703 66.916548 
L 391.987682 65.811062 
L 398.162293 65.812226 
L 398.487273 185.486184 
L 398.487273 185.486184 
" style="fill:none;stroke:#ff0000;stroke-linecap:square;stroke-width:1.5;"/>
   </g>
   <g id="patch_3">
    <path d="M 57.6 307.584 
L 57.6 41.472 
" style="fill:none;stroke:#000000;stroke-linecap:square;stroke-linejoin:miter;stroke-width:0.8;"/>
   </g>
   <g id="patch_4">
    <path d="M 414.72 307.584 
L 414.72 41.472 
" style="fill:none;stroke:#000000;stroke-linecap:square;stroke-linejoin:miter;stroke-width:0.8;"/>
   </g>
   <g id="patch_5">
    <path d="M 57.6 307.584 
L 414.72 307.584 
" style="fill:none;stroke:#000000;stroke-linecap:square;stroke-linejoin:miter;stroke-width:0.8;"/>
   </g>
   <g id="patch_6">
    <path d="M 57.6 41.472 
L 414.72 41.472 
" style="fill:none;stroke:#000000;stroke-linecap:square;stroke-linejoin:miter;stroke-width:0.8;"/>
   </g>
   <g id="text_16">
    <!-- Population's average and best fitness -->
    <defs>
     <path d="M 19.671875 64.796875 
L 19.671875 37.40625 
L 32.078125 37.40625 
Q 38.96875 37.40625 42.71875 40.96875 
Q 46.484375 44.53125 46.484375 51.125 
Q 46.484375 57.671875 42.71875 61.234375 
Q 38.96875 64.796875 32.078125 64.796875 
z
M 9.8125 72.90625 
L 32.078125 72.90625 
Q 44.34375 72.90625 50.609375 67.359375 
Q 56.890625 61.8125 56.890625 51.125 
Q 56.890625 40.328125 50.609375 34.8125 
Q 44.34375 29.296875 32.078125 29.296875 
L 19.671875 29.296875 
L 19.671875 0 
L 9.8125 0 
z
" id="DejaVuSans-50"/>
     <path d="M 18.109375 8.203125 
L 18.109375 -20.796875 
L 9.078125 -20.796875 
L 9.078125 54.6875 
L 18.109375 54.6875 
L 18.109375 46.390625 
Q 20.953125 51.265625 25.265625 53.625 
Q 29.59375 56 35.59375 56 
Q 45.5625 56 51.78125 48.09375 
Q 58.015625 40.1875 58.015625 27.296875 
Q 58.015625 14.40625 51.78125 6.484375 
Q 45.5625 -1.421875 35.59375 -1.421875 
Q 29.59375 -1.421875 25.265625 0.953125 
Q 20.953125 3.328125 18.109375 8.203125 
z
M 48.6875 27.296875 
Q 48.6875 37.203125 44.609375 42.84375 
Q 40.53125 48.484375 33.40625 48.484375 
Q 26.265625 48.484375 22.1875 42.84375 
Q 18.109375 37.203125 18.109375 27.296875 
Q 18.109375 17.390625 22.1875 11.75 
Q 26.265625 6.109375 33.40625 6.109375 
Q 40.53125 6.109375 44.609375 11.75 
Q 48.6875 17.390625 48.6875 27.296875 
z
" id="DejaVuSans-70"/>
     <path d="M 8.5 21.578125 
L 8.5 54.6875 
L 17.484375 54.6875 
L 17.484375 21.921875 
Q 17.484375 14.15625 20.5 10.265625 
Q 23.53125 6.390625 29.59375 6.390625 
Q 36.859375 6.390625 41.078125 11.03125 
Q 45.3125 15.671875 45.3125 23.6875 
L 45.3125 54.6875 
L 54.296875 54.6875 
L 54.296875 0 
L 45.3125 0 
L 45.3125 8.40625 
Q 42.046875 3.421875 37.71875 1 
Q 33.40625 -1.421875 27.6875 -1.421875 
Q 18.265625 -1.421875 13.375 4.4375 
Q 8.5 10.296875 8.5 21.578125 
z
M 31.109375 56 
z
" id="DejaVuSans-75"/>
     <path d="M 9.421875 75.984375 
L 18.40625 75.984375 
L 18.40625 0 
L 9.421875 0 
z
" id="DejaVuSans-6c"/>
     <path d="M 17.921875 72.90625 
L 17.921875 45.796875 
L 9.625 45.796875 
L 9.625 72.90625 
z
" id="DejaVuSans-27"/>
     <path id="DejaVuSans-20"/>
     <path d="M 2.984375 54.6875 
L 12.5 54.6875 
L 29.59375 8.796875 
L 46.6875 54.6875 
L 56.203125 54.6875 
L 35.6875 0 
L 23.484375 0 
z
" id="DejaVuSans-76"/>
     <path d="M 45.40625 27.984375 
Q 45.40625 37.75 41.375 43.109375 
Q 37.359375 48.484375 30.078125 48.484375 
Q 22.859375 48.484375 18.828125 43.109375 
Q 14.796875 37.75 14.796875 27.984375 
Q 14.796875 18.265625 18.828125 12.890625 
Q 22.859375 7.515625 30.078125 7.515625 
Q 37.359375 7.515625 41.375 12.890625 
Q 45.40625 18.265625 45.40625 27.984375 
z
M 54.390625 6.78125 
Q 54.390625 -7.171875 48.1875 -13.984375 
Q 42 -20.796875 29.203125 -20.796875 
Q 24.46875 -20.796875 20.265625 -20.09375 
Q 16.0625 -19.390625 12.109375 -17.921875 
L 12.109375 -9.1875 
Q 16.0625 -11.328125 19.921875 -12.34375 
Q 23.78125 -13.375 27.78125 -13.375 
Q 36.625 -13.375 41.015625 -8.765625 
Q 45.40625 -4.15625 45.40625 5.171875 
L 45.40625 9.625 
Q 42.625 4.78125 38.28125 2.390625 
Q 33.9375 0 27.875 0 
Q 17.828125 0 11.671875 7.65625 
Q 5.515625 15.328125 5.515625 27.984375 
Q 5.515625 40.671875 11.671875 48.328125 
Q 17.828125 56 27.875 56 
Q 33.9375 56 38.28125 53.609375 
Q 42.625 51.21875 45.40625 46.390625 
L 45.40625 54.6875 
L 54.390625 54.6875 
z
" id="DejaVuSans-67"/>
     <path d="M 45.40625 46.390625 
L 45.40625 75.984375 
L 54.390625 75.984375 
L 54.390625 0 
L 45.40625 0 
L 45.40625 8.203125 
Q 42.578125 3.328125 38.25 0.953125 
Q 33.9375 -1.421875 27.875 -1.421875 
Q 17.96875 -1.421875 11.734375 6.484375 
Q 5.515625 14.40625 5.515625 27.296875 
Q 5.515625 40.1875 11.734375 48.09375 
Q 17.96875 56 27.875 56 
Q 33.9375 56 38.25 53.625 
Q 42.578125 51.265625 45.40625 46.390625 
z
M 14.796875 27.296875 
Q 14.796875 17.390625 18.875 11.75 
Q 22.953125 6.109375 30.078125 6.109375 
Q 37.203125 6.109375 41.296875 11.75 
Q 45.40625 17.390625 45.40625 27.296875 
Q 45.40625 37.203125 41.296875 42.84375 
Q 37.203125 48.484375 30.078125 48.484375 
Q 22.953125 48.484375 18.875 42.84375 
Q 14.796875 37.203125 14.796875 27.296875 
z
" id="DejaVuSans-64"/>
     <path d="M 48.6875 27.296875 
Q 48.6875 37.203125 44.609375 42.84375 
Q 40.53125 48.484375 33.40625 48.484375 
Q 26.265625 48.484375 22.1875 42.84375 
Q 18.109375 37.203125 18.109375 27.296875 
Q 18.109375 17.390625 22.1875 11.75 
Q 26.265625 6.109375 33.40625 6.109375 
Q 40.53125 6.109375 44.609375 11.75 
Q 48.6875 17.390625 48.6875 27.296875 
z
M 18.109375 46.390625 
Q 20.953125 51.265625 25.265625 53.625 
Q 29.59375 56 35.59375 56 
Q 45.5625 56 51.78125 48.09375 
Q 58.015625 40.1875 58.015625 27.296875 
Q 58.015625 14.40625 51.78125 6.484375 
Q 45.5625 -1.421875 35.59375 -1.421875 
Q 29.59375 -1.421875 25.265625 0.953125 
Q 20.953125 3.328125 18.109375 8.203125 
L 18.109375 0 
L 9.078125 0 
L 9.078125 75.984375 
L 18.109375 75.984375 
z
" id="DejaVuSans-62"/>
     <path d="M 37.109375 75.984375 
L 37.109375 68.5 
L 28.515625 68.5 
Q 23.6875 68.5 21.796875 66.546875 
Q 19.921875 64.59375 19.921875 59.515625 
L 19.921875 54.6875 
L 34.71875 54.6875 
L 34.71875 47.703125 
L 19.921875 47.703125 
L 19.921875 0 
L 10.890625 0 
L 10.890625 47.703125 
L 2.296875 47.703125 
L 2.296875 54.6875 
L 10.890625 54.6875 
L 10.890625 58.5 
Q 10.890625 67.625 15.140625 71.796875 
Q 19.390625 75.984375 28.609375 75.984375 
z
" id="DejaVuSans-66"/>
    </defs>
    <g transform="translate(123.315 35.472)scale(0.12 -0.12)">
     <use xlink:href="#DejaVuSans-50"/>
     <use x="60.255859" xlink:href="#DejaVuSans-6f"/>
     <use x="121.4375" xlink:href="#DejaVuSans-70"/>
     <use x="184.914062" xlink:href="#DejaVuSans-75"/>
     <use x="248.292969" xlink:href="#DejaVuSans-6c"/>
     <use x="276.076172" xlink:href="#DejaVuSans-61"/>
     <use x="337.355469" xlink:href="#DejaVuSans-74"/>
     <use x="376.564453" xlink:href="#DejaVuSans-69"/>
     <use x="404.347656" xlink:href="#DejaVuSans-6f"/>
     <use x="465.529297" xlink:href="#DejaVuSans-6e"/>
     <use x="528.908203" xlink:href="#DejaVuSans-27"/>
     <use x="556.398438" xlink:href="#DejaVuSans-73"/>
     <use x="608.498047" xlink:href="#DejaVuSans-20"/>
     <use x="640.285156" xlink:href="#DejaVuSans-61"/>
     <use x="701.564453" xlink:href="#DejaVuSans-76"/>
     <use x="760.744141" xlink:href="#DejaVuSans-65"/>
     <use x="822.267578" xlink:href="#DejaVuSans-72"/>
     <use x="863.380859" xlink:href="#DejaVuSans-61"/>
     <use x="924.660156" xlink:href="#DejaVuSans-67"/>
     <use x="988.136719" xlink:href="#DejaVuSans-65"/>
     <use x="1049.660156" xlink:href="#DejaVuSans-20"/>
     <use x="1081.447266" xlink:href="#DejaVuSans-61"/>
     <use x="1142.726562" xlink:href="#DejaVuSans-6e"/>
     <use x="1206.105469" xlink:href="#DejaVuSans-64"/>
     <use x="1269.582031" xlink:href="#DejaVuSans-20"/>
     <use x="1301.369141" xlink:href="#DejaVuSans-62"/>
     <use x="1364.845703" xlink:href="#DejaVuSans-65"/>
     <use x="1426.369141" xlink:href="#DejaVuSans-73"/>
     <use x="1478.46875" xlink:href="#DejaVuSans-74"/>
     <use x="1517.677734" xlink:href="#DejaVuSans-20"/>
     <use x="1549.464844" xlink:href="#DejaVuSans-66"/>
     <use x="1584.669922" xlink:href="#DejaVuSans-69"/>
     <use x="1612.453125" xlink:href="#DejaVuSans-74"/>
     <use x="1651.662109" xlink:href="#DejaVuSans-6e"/>
     <use x="1715.041016" xlink:href="#DejaVuSans-65"/>
     <use x="1776.564453" xlink:href="#DejaVuSans-73"/>
     <use x="1828.664062" xlink:href="#DejaVuSans-73"/>
    </g>
   </g>
   <g id="legend_1">
    <g id="patch_7">
     <path d="M 334.779375 190.706125 
L 407.72 190.706125 
Q 409.72 190.706125 409.72 188.706125 
L 409.72 160.349875 
Q 409.72 158.349875 407.72 158.349875 
L 334.779375 158.349875 
Q 332.779375 158.349875 332.779375 160.349875 
L 332.779375 188.706125 
Q 332.779375 190.706125 334.779375 190.706125 
z
" style="fill:#ffffff;opacity:0.8;stroke:#cccccc;stroke-linejoin:miter;"/>
    </g>
    <g id="line2d_36">
     <path d="M 336.779375 166.448312 
L 356.779375 166.448312 
" style="fill:none;stroke:#0000ff;stroke-linecap:square;stroke-width:1.5;"/>
    </g>
    <g id="line2d_37"/>
    <g id="text_17">
     <!-- average -->
     <g transform="translate(364.779375 169.948312)scale(0.1 -0.1)">
      <use xlink:href="#DejaVuSans-61"/>
      <use x="61.279297" xlink:href="#DejaVuSans-76"/>
      <use x="120.458984" xlink:href="#DejaVuSans-65"/>
      <use x="181.982422" xlink:href="#DejaVuSans-72"/>
      <use x="223.095703" xlink:href="#DejaVuSans-61"/>
      <use x="284.375" xlink:href="#DejaVuSans-67"/>
      <use x="347.851562" xlink:href="#DejaVuSans-65"/>
     </g>
    </g>
    <g id="line2d_38">
     <path d="M 336.779375 181.126437 
L 356.779375 181.126437 
" style="fill:none;stroke:#ff0000;stroke-linecap:square;stroke-width:1.5;"/>
    </g>
    <g id="line2d_39"/>
    <g id="text_18">
     <!-- best -->
     <g transform="translate(364.779375 184.626437)scale(0.1 -0.1)">
      <use xlink:href="#DejaVuSans-62"/>
      <use x="63.476562" xlink:href="#DejaVuSans-65"/>
      <use x="125" xlink:href="#DejaVuSans-73"/>
      <use x="177.099609" xlink:href="#DejaVuSans-74"/>
     </g>
    </g>
   </g>
  </g>
 </g>
 <defs>
  <clipPath id="peb66d17639">
   <rect height="266.112" width="357.12" x="57.6" y="41.472"/>
  </clipPath>
 </defs>
</svg>
