<?xml version="1.0" encoding="UTF-8" standalone="no"?>
<!DOCTYPE svg PUBLIC "-//W3C//DTD SVG 1.1//EN"
 "http://www.w3.org/Graphics/SVG/1.1/DTD/svg11.dtd">
<!-- Generated by graphviz version 2.40.1 (20161225.0304)
 -->
<!-- Title: %3 Pages: 1 -->
<svg width="381pt" height="261pt"
 viewBox="0.00 0.00 380.84 260.63" xmlns="http://www.w3.org/2000/svg" xmlns:xlink="http://www.w3.org/1999/xlink">
<g id="graph0" class="graph" transform="scale(1 1) rotate(0) translate(4 256.6346)">
<title>%3</title>
<polygon fill="#ffffff" stroke="transparent" points="-4,4 -4,-256.6346 376.8406,-256.6346 376.8406,4 -4,4"/>
<!-- center_dist -->
<g id="node1" class="node">
<title>center_dist</title>
<polygon fill="#d3d3d3" stroke="#000000" points="68,-252.6346 0,-252.6346 0,-234.6346 68,-234.6346 68,-252.6346"/>
<text text-anchor="middle" x="34" y="-241.4346" font-family="Times,serif" font-size="9.00" fill="#000000">center_dist</text>
</g>
<!-- left -->
<g id="node7" class="node">
<title>left</title>
<ellipse fill="#add8e6" stroke="#000000" cx="39" cy="-154.7939" rx="22.7556" ry="22.7556"/>
<text text-anchor="middle" x="39" y="-152.5939" font-family="Times,serif" font-size="9.00" fill="#000000">left</text>
</g>
<!-- center_dist&#45;&gt;left -->
<g id="edge2" class="edge">
<title>center_dist&#45;&gt;left</title>
<path fill="none" stroke="#ff0000" stroke-width=".2642" d="M34.5163,-234.4617C35.1361,-223.4476 36.2101,-204.3647 37.1516,-187.6366"/>
<polygon fill="#ff0000" stroke="#ff0000" stroke-width=".2642" points="40.6479,-187.7994 37.7154,-177.6185 33.6589,-187.406 40.6479,-187.7994"/>
</g>
<!-- center_dir -->
<g id="node2" class="node">
<title>center_dir</title>
<polygon fill="#d3d3d3" stroke="#000000" points="151.5,-252.6346 86.5,-252.6346 86.5,-234.6346 151.5,-234.6346 151.5,-252.6346"/>
<text text-anchor="middle" x="119" y="-241.4346" font-family="Times,serif" font-size="9.00" fill="#000000">center_dir</text>
</g>
<!-- forward -->
<g id="node5" class="node">
<title>forward</title>
<ellipse fill="#add8e6" stroke="#000000" cx="138" cy="-37.4767" rx="37.4533" ry="37.4533"/>
<text text-anchor="middle" x="138" y="-35.2767" font-family="Times,serif" font-size="9.00" fill="#000000">forward</text>
</g>
<!-- center_dir&#45;&gt;forward -->
<g id="edge3" class="edge">
<title>center_dir&#45;&gt;forward</title>
<path fill="none" stroke="#00ff00" stroke-width=".2084" stroke-dasharray="1,5" d="M117.398,-234.3626C115.917,-225.2894 113.8247,-211.0602 113,-198.6346 110.4192,-159.7507 106.6384,-149.4 113,-110.9533 114.5836,-101.3828 117.2536,-91.3843 120.2738,-81.9554"/>
<polygon fill="#00ff00" stroke="#00ff00" stroke-width=".2084" points="123.6248,-82.9717 123.517,-72.3774 116.9946,-80.7266 123.6248,-82.9717"/>
</g>
<!-- center_dir&#45;&gt;left -->
<g id="edge5" class="edge">
<title>center_dir&#45;&gt;left</title>
<path fill="none" stroke="#00ff00" stroke-width=".4328" d="M110.7399,-234.4617C99.0728,-221.5053 77.3511,-197.3831 60.8544,-179.0634"/>
<polygon fill="#00ff00" stroke="#00ff00" stroke-width=".4328" points="63.4414,-176.7059 54.1488,-171.6168 58.2396,-181.39 63.4414,-176.7059"/>
</g>
<!-- right -->
<g id="node8" class="node">
<title>right</title>
<ellipse fill="#add8e6" stroke="#000000" cx="201" cy="-154.7939" rx="28.0702" ry="28.0702"/>
<text text-anchor="middle" x="201" y="-152.5939" font-family="Times,serif" font-size="9.00" fill="#000000">right</text>
</g>
<!-- center_dir&#45;&gt;right -->
<g id="edge4" class="edge">
<title>center_dir&#45;&gt;right</title>
<path fill="none" stroke="#00ff00" stroke-width=".4992" d="M128.2663,-234.4834C137.2865,-225.4996 151.3063,-211.3348 163,-198.6346 167.2982,-193.9663 171.7823,-188.9407 176.1004,-184.0162"/>
<polygon fill="#00ff00" stroke="#00ff00" stroke-width=".4992" points="178.7788,-186.27 182.6989,-176.427 173.4962,-181.677 178.7788,-186.27"/>
</g>
<!-- 4 -->
<g id="node9" class="node">
<title>4</title>
<ellipse fill="#ffffff" stroke="#000000" cx="138" cy="-154.7939" rx="16.0303" ry="16.0303"/>
<text text-anchor="middle" x="138" y="-152.5939" font-family="Times,serif" font-size="9.00" fill="#000000">4</text>
</g>
<!-- center_dir&#45;&gt;4 -->
<g id="edge9" class="edge">
<title>center_dir&#45;&gt;4</title>
<path fill="none" stroke="#00ff00" stroke-width=".3984" d="M120.9618,-234.4617C123.6407,-221.9354 128.5517,-198.9726 132.4154,-180.9067"/>
<polygon fill="#00ff00" stroke="#00ff00" stroke-width=".3984" points="135.8756,-181.4624 134.5444,-170.9515 129.0304,-179.9984 135.8756,-181.4624"/>
</g>
<!-- other_dist -->
<g id="node3" class="node">
<title>other_dist</title>
<polygon fill="#d3d3d3" stroke="#000000" points="232.5,-252.6346 169.5,-252.6346 169.5,-234.6346 232.5,-234.6346 232.5,-252.6346"/>
<text text-anchor="middle" x="201" y="-241.4346" font-family="Times,serif" font-size="9.00" fill="#000000">other_dist</text>
</g>
<!-- other_dist&#45;&gt;right -->
<g id="edge1" class="edge">
<title>other_dist&#45;&gt;right</title>
<path fill="none" stroke="#00ff00" stroke-width=".4087" d="M201,-234.4617C201,-224.7361 201,-208.7189 201,-193.5872"/>
<polygon fill="#00ff00" stroke="#00ff00" stroke-width=".4087" points="204.5001,-193.341 201,-183.341 197.5001,-193.3411 204.5001,-193.341"/>
</g>
<!-- other_dir -->
<g id="node4" class="node">
<title>other_dir</title>
<polygon fill="#d3d3d3" stroke="#000000" points="309.5,-252.6346 250.5,-252.6346 250.5,-234.6346 309.5,-234.6346 309.5,-252.6346"/>
<text text-anchor="middle" x="280" y="-241.4346" font-family="Times,serif" font-size="9.00" fill="#000000">other_dir</text>
</g>
<!-- other_dir&#45;&gt;forward -->
<g id="edge8" class="edge">
<title>other_dir&#45;&gt;forward</title>
<path fill="none" stroke="#ff0000" stroke-width=".4934" d="M279.0593,-234.3943C276.335,-211.4827 266.7127,-151.0161 238,-110.9533 223.0229,-90.0558 200.278,-72.6743 180.2624,-60.0721"/>
<polygon fill="#ff0000" stroke="#ff0000" stroke-width=".4934" points="181.952,-57.0032 171.5898,-54.7954 178.3135,-62.9833 181.952,-57.0032"/>
</g>
<!-- backward -->
<g id="node6" class="node">
<title>backward</title>
<ellipse fill="#add8e6" stroke="#000000" cx="329" cy="-154.7939" rx="43.6818" ry="43.6818"/>
<text text-anchor="middle" x="329" y="-152.5939" font-family="Times,serif" font-size="9.00" fill="#000000">backward</text>
</g>
<!-- other_dir&#45;&gt;backward -->
<g id="edge7" class="edge">
<title>other_dir&#45;&gt;backward</title>
<path fill="none" stroke="#00ff00" stroke-width=".2578" d="M285.0593,-234.4617C289.3881,-226.6133 295.9766,-214.6678 302.7447,-202.3967"/>
<polygon fill="#00ff00" stroke="#00ff00" stroke-width=".2578" points="305.91,-203.9047 307.6749,-193.4579 299.7805,-200.5239 305.91,-203.9047"/>
</g>
<!-- other_dir&#45;&gt;right -->
<g id="edge6" class="edge">
<title>other_dir&#45;&gt;right</title>
<path fill="none" stroke="#ff0000" stroke-width=".1955" d="M271.8432,-234.4617C261.3136,-222.6205 242.4909,-201.4531 226.893,-183.9123"/>
<polygon fill="#ff0000" stroke="#ff0000" stroke-width=".1955" points="229.2553,-181.3018 219.9947,-176.1547 224.0243,-185.9533 229.2553,-181.3018"/>
</g>
<!-- 4&#45;&gt;forward -->
<g id="edge10" class="edge">
<title>4&#45;&gt;forward</title>
<path fill="none" stroke="#00ff00" stroke-width=".3002" d="M138,-138.4815C138,-124.7758 138,-104.466 138,-85.6454"/>
<polygon fill="#00ff00" stroke="#00ff00" stroke-width=".3002" points="141.5001,-85.394 138,-75.3941 134.5001,-85.3941 141.5001,-85.394"/>
</g>
</g>
</svg>
