<?xml version="1.0" encoding="UTF-8" standalone="no"?>
<!DOCTYPE svg PUBLIC "-//W3C//DTD SVG 1.1//EN"
 "http://www.w3.org/Graphics/SVG/1.1/DTD/svg11.dtd">
<!-- Generated by graphviz version 2.40.1 (20161225.0304)
 -->
<!-- Title: %3 Pages: 1 -->
<svg width="405pt" height="173pt"
 viewBox="0.00 0.00 404.50 172.69" xmlns="http://www.w3.org/2000/svg" xmlns:xlink="http://www.w3.org/1999/xlink">
<g id="graph0" class="graph" transform="scale(1 1) rotate(0) translate(4 168.6934)">
<title>%3</title>
<polygon fill="#ffffff" stroke="transparent" points="-4,4 -4,-168.6934 400.5,-168.6934 400.5,4 -4,4"/>
<!-- center_dist -->
<g id="node1" class="node">
<title>center_dist</title>
<polygon fill="#d3d3d3" stroke="#000000" points="68,-153.1873 0,-153.1873 0,-135.1873 68,-135.1873 68,-153.1873"/>
<text text-anchor="middle" x="34" y="-141.9873" font-family="Times,serif" font-size="9.00" fill="#000000">center_dist</text>
</g>
<!-- left -->
<g id="node7" class="node">
<title>left</title>
<ellipse fill="#add8e6" stroke="#000000" cx="37" cy="-43.8406" rx="22.7556" ry="22.7556"/>
<text text-anchor="middle" x="37" y="-41.6406" font-family="Times,serif" font-size="9.00" fill="#000000">left</text>
</g>
<!-- center_dist&#45;&gt;left -->
<g id="edge4" class="edge">
<title>center_dist&#45;&gt;left</title>
<path fill="none" stroke="#ff0000" stroke-width=".2396" d="M34.2769,-134.9268C34.6697,-121.7881 35.4087,-97.0674 36.0179,-76.6916"/>
<polygon fill="#ff0000" stroke="#ff0000" stroke-width=".2396" points="39.5216,-76.617 36.3221,-66.5168 32.5247,-76.4077 39.5216,-76.617"/>
</g>
<!-- center_dir -->
<g id="node2" class="node">
<title>center_dir</title>
<polygon fill="#d3d3d3" stroke="#000000" points="151.5,-153.1873 86.5,-153.1873 86.5,-135.1873 151.5,-135.1873 151.5,-153.1873"/>
<text text-anchor="middle" x="119" y="-141.9873" font-family="Times,serif" font-size="9.00" fill="#000000">center_dir</text>
</g>
<!-- forward -->
<g id="node5" class="node">
<title>forward</title>
<ellipse fill="#add8e6" stroke="#000000" cx="117" cy="-43.8406" rx="37.4533" ry="37.4533"/>
<text text-anchor="middle" x="117" y="-41.6406" font-family="Times,serif" font-size="9.00" fill="#000000">forward</text>
</g>
<!-- center_dir&#45;&gt;forward -->
<g id="edge2" class="edge">
<title>center_dir&#45;&gt;forward</title>
<path fill="none" stroke="#00ff00" stroke-width=".4893" stroke-dasharray="1,5" d="M118.8154,-134.9268C118.6152,-124.8819 118.2801,-108.0674 117.9519,-91.6003"/>
<polygon fill="#00ff00" stroke="#00ff00" stroke-width=".4893" points="121.4484,-91.3841 117.7497,-81.4558 114.4498,-91.5236 121.4484,-91.3841"/>
</g>
<!-- center_dir&#45;&gt;left -->
<g id="edge1" class="edge">
<title>center_dir&#45;&gt;left</title>
<path fill="none" stroke="#ff0000" stroke-width=".308" d="M111.0579,-135.0927C101.4334,-124.0134 84.7918,-104.6697 71,-87.6812 66.4317,-82.0541 61.6114,-75.9471 57.0818,-70.1286"/>
<polygon fill="#ff0000" stroke="#ff0000" stroke-width=".308" points="59.6036,-67.6682 50.7169,-61.8996 54.0666,-71.951 59.6036,-67.6682"/>
</g>
<!-- right -->
<g id="node8" class="node">
<title>right</title>
<ellipse fill="#add8e6" stroke="#000000" cx="306" cy="-43.8406" rx="28.0702" ry="28.0702"/>
<text text-anchor="middle" x="306" y="-41.6406" font-family="Times,serif" font-size="9.00" fill="#000000">right</text>
</g>
<!-- center_dir&#45;&gt;right -->
<g id="edge3" class="edge">
<title>center_dir&#45;&gt;right</title>
<path fill="none" stroke="#00ff00" stroke-width=".2705" d="M143.9974,-135.1434C185.2665,-120.1599 263.6588,-91.4545 269,-87.6812 274.0027,-84.1471 278.7371,-79.7808 283.0435,-75.1862"/>
<polygon fill="#00ff00" stroke="#00ff00" stroke-width=".2705" points="285.9403,-77.1886 289.8583,-67.3449 280.6568,-72.5968 285.9403,-77.1886"/>
</g>
<!-- other_dist -->
<g id="node3" class="node">
<title>other_dist</title>
<polygon fill="#d3d3d3" stroke="#000000" points="396.5,-153.1873 333.5,-153.1873 333.5,-135.1873 396.5,-135.1873 396.5,-153.1873"/>
<text text-anchor="middle" x="365" y="-141.9873" font-family="Times,serif" font-size="9.00" fill="#000000">other_dist</text>
</g>
<!-- other_dist&#45;&gt;right -->
<g id="edge9" class="edge">
<title>other_dist&#45;&gt;right</title>
<path fill="none" stroke="#00ff00" stroke-width=".3638" d="M359.5552,-134.9268C351.9014,-121.9093 337.5631,-97.5229 325.6476,-77.2571"/>
<polygon fill="#00ff00" stroke="#00ff00" stroke-width=".3638" points="328.632,-75.4275 320.5464,-68.581 322.5978,-78.9754 328.632,-75.4275"/>
</g>
<!-- other_dir -->
<g id="node4" class="node">
<title>other_dir</title>
<polygon fill="#d3d3d3" stroke="#000000" points="245.5,-153.1873 186.5,-153.1873 186.5,-135.1873 245.5,-135.1873 245.5,-153.1873"/>
<text text-anchor="middle" x="216" y="-141.9873" font-family="Times,serif" font-size="9.00" fill="#000000">other_dir</text>
</g>
<!-- other_dir&#45;&gt;forward -->
<g id="edge8" class="edge">
<title>other_dir&#45;&gt;forward</title>
<path fill="none" stroke="#00ff00" stroke-width=".1468" d="M206.8638,-134.9268C194.1594,-122.0496 170.479,-98.0471 150.6156,-77.9135"/>
<polygon fill="#00ff00" stroke="#00ff00" stroke-width=".1468" points="153.0124,-75.3593 143.4977,-70.6987 148.0293,-80.2755 153.0124,-75.3593"/>
</g>
<!-- backward -->
<g id="node6" class="node">
<title>backward</title>
<ellipse fill="#add8e6" stroke="#000000" cx="216" cy="-43.8406" rx="43.6818" ry="43.6818"/>
<text text-anchor="middle" x="216" y="-41.6406" font-family="Times,serif" font-size="9.00" fill="#000000">backward</text>
</g>
<!-- other_dir&#45;&gt;backward -->
<g id="edge7" class="edge">
<title>other_dir&#45;&gt;backward</title>
<path fill="none" stroke="#00ff00" stroke-width=".4018" d="M216,-134.9268C216,-126.2594 216,-112.5517 216,-98.3761"/>
<polygon fill="#00ff00" stroke="#00ff00" stroke-width=".4018" points="219.5001,-98.0367 216,-88.0367 212.5001,-98.0367 219.5001,-98.0367"/>
</g>
<!-- other_dir&#45;&gt;right -->
<g id="edge5" class="edge">
<title>other_dir&#45;&gt;right</title>
<path fill="none" stroke="#ff0000" stroke-width=".218" stroke-dasharray="1,5" d="M224.779,-135.1241C235.4156,-124.0757 253.8,-104.7625 269,-87.6812 272.987,-83.2008 277.1456,-78.4024 281.1744,-73.6835"/>
<polygon fill="#ff0000" stroke="#ff0000" stroke-width=".218" points="283.9857,-75.7798 287.779,-65.8873 278.6446,-71.2551 283.9857,-75.7798"/>
</g>
<!-- 17 -->
<g id="node9" class="node">
<title>17</title>
<ellipse fill="#ffffff" stroke="#000000" cx="295" cy="-144.1873" rx="20.5122" ry="20.5122"/>
<text text-anchor="middle" x="295" y="-141.9873" font-family="Times,serif" font-size="9.00" fill="#000000">17</text>
</g>
<!-- 17&#45;&gt;right -->
<g id="edge6" class="edge">
<title>17&#45;&gt;right</title>
<path fill="none" stroke="#00ff00" stroke-width=".1872" d="M297.2792,-123.3954C298.573,-111.593 300.2339,-96.4415 301.7585,-82.5336"/>
<polygon fill="#00ff00" stroke="#00ff00" stroke-width=".1872" points="305.2788,-82.5385 302.8894,-72.2166 298.3205,-81.7756 305.2788,-82.5385"/>
</g>
</g>
</svg>
