<?xml version="1.0" encoding="UTF-8" standalone="no"?>
<!DOCTYPE svg PUBLIC "-//W3C//DTD SVG 1.1//EN"
 "http://www.w3.org/Graphics/SVG/1.1/DTD/svg11.dtd">
<!-- Generated by graphviz version 2.40.1 (20161225.0304)
 -->
<!-- Title: %3 Pages: 1 -->
<svg width="366pt" height="150pt"
 viewBox="0.00 0.00 366.28 149.68" xmlns="http://www.w3.org/2000/svg" xmlns:xlink="http://www.w3.org/1999/xlink">
<g id="graph0" class="graph" transform="scale(1 1) rotate(0) translate(4 145.6812)">
<title>%3</title>
<polygon fill="#ffffff" stroke="transparent" points="-4,4 -4,-145.6812 362.2843,-145.6812 362.2843,4 -4,4"/>
<!-- center_dist -->
<g id="node1" class="node">
<title>center_dist</title>
<polygon fill="#d3d3d3" stroke="#000000" points="68,-141.6812 0,-141.6812 0,-123.6812 68,-123.6812 68,-141.6812"/>
<text text-anchor="middle" x="34" y="-130.4812" font-family="Times,serif" font-size="9.00" fill="#000000">center_dist</text>
</g>
<!-- center_dir -->
<g id="node2" class="node">
<title>center_dir</title>
<polygon fill="#d3d3d3" stroke="#000000" points="309.5,-141.6812 244.5,-141.6812 244.5,-123.6812 309.5,-123.6812 309.5,-141.6812"/>
<text text-anchor="middle" x="277" y="-130.4812" font-family="Times,serif" font-size="9.00" fill="#000000">center_dir</text>
</g>
<!-- forward -->
<g id="node5" class="node">
<title>forward</title>
<ellipse fill="#add8e6" stroke="#000000" cx="246" cy="-43.8406" rx="37.4533" ry="37.4533"/>
<text text-anchor="middle" x="246" y="-41.6406" font-family="Times,serif" font-size="9.00" fill="#000000">forward</text>
</g>
<!-- center_dir&#45;&gt;forward -->
<g id="edge2" class="edge">
<title>center_dir&#45;&gt;forward</title>
<path fill="none" stroke="#ff0000" stroke-width=".4379" d="M273.7992,-123.5083C270.8863,-115.1605 266.3561,-102.1775 261.792,-89.0978"/>
<polygon fill="#ff0000" stroke="#ff0000" stroke-width=".4379" points="265.0846,-87.91 258.4853,-79.6215 258.4754,-90.2163 265.0846,-87.91"/>
</g>
<!-- backward -->
<g id="node6" class="node">
<title>backward</title>
<ellipse fill="#add8e6" stroke="#000000" cx="147" cy="-43.8406" rx="43.6818" ry="43.6818"/>
<text text-anchor="middle" x="147" y="-41.6406" font-family="Times,serif" font-size="9.00" fill="#000000">backward</text>
</g>
<!-- center_dir&#45;&gt;backward -->
<g id="edge1" class="edge">
<title>center_dir&#45;&gt;backward</title>
<path fill="none" stroke="#ff0000" stroke-width=".1815" d="M259.6868,-123.6148C243.7495,-115.0262 219.6713,-101.4296 200,-87.6812 196.1063,-84.9599 192.1429,-82.0257 188.2255,-79.0105"/>
<polygon fill="#ff0000" stroke="#ff0000" stroke-width=".1815" points="190.3056,-76.1935 180.2861,-72.7498 185.9712,-81.6902 190.3056,-76.1935"/>
</g>
<!-- right -->
<g id="node8" class="node">
<title>right</title>
<ellipse fill="#add8e6" stroke="#000000" cx="330" cy="-43.8406" rx="28.0702" ry="28.0702"/>
<text text-anchor="middle" x="330" y="-41.6406" font-family="Times,serif" font-size="9.00" fill="#000000">right</text>
</g>
<!-- center_dir&#45;&gt;right -->
<g id="edge4" class="edge">
<title>center_dir&#45;&gt;right</title>
<path fill="none" stroke="#ff0000" stroke-width=".1026" d="M282.4723,-123.5083C288.9885,-112.5857 300.2387,-93.7277 310.1581,-77.1004"/>
<polygon fill="#ff0000" stroke="#ff0000" stroke-width=".1026" points="313.3758,-78.5382 315.4934,-68.1571 307.3643,-74.9518 313.3758,-78.5382"/>
</g>
<!-- other_dist -->
<g id="node3" class="node">
<title>other_dist</title>
<polygon fill="#d3d3d3" stroke="#000000" points="226.5,-141.6812 163.5,-141.6812 163.5,-123.6812 226.5,-123.6812 226.5,-141.6812"/>
<text text-anchor="middle" x="195" y="-130.4812" font-family="Times,serif" font-size="9.00" fill="#000000">other_dist</text>
</g>
<!-- other_dist&#45;&gt;forward -->
<g id="edge5" class="edge">
<title>other_dist&#45;&gt;forward</title>
<path fill="none" stroke="#00ff00" stroke-width=".2197" d="M200.2658,-123.5083C205.5348,-114.33 214.0204,-99.5482 222.2599,-85.1953"/>
<polygon fill="#00ff00" stroke="#00ff00" stroke-width=".2197" points="225.3841,-86.7831 227.3273,-76.3679 219.3133,-83.298 225.3841,-86.7831"/>
</g>
<!-- other_dist&#45;&gt;backward -->
<g id="edge3" class="edge">
<title>other_dist&#45;&gt;backward</title>
<path fill="none" stroke="#ff0000" stroke-width=".3017" d="M190.0439,-123.5083C185.8035,-115.66 179.3494,-103.7145 172.7195,-91.4434"/>
<polygon fill="#ff0000" stroke="#ff0000" stroke-width=".3017" points="175.7227,-89.6388 167.8899,-82.5046 169.5641,-92.9663 175.7227,-89.6388"/>
</g>
<!-- other_dir -->
<g id="node4" class="node">
<title>other_dir</title>
<polygon fill="#d3d3d3" stroke="#000000" points="145.5,-141.6812 86.5,-141.6812 86.5,-123.6812 145.5,-123.6812 145.5,-141.6812"/>
<text text-anchor="middle" x="116" y="-130.4812" font-family="Times,serif" font-size="9.00" fill="#000000">other_dir</text>
</g>
<!-- other_dir&#45;&gt;forward -->
<g id="edge8" class="edge">
<title>other_dir&#45;&gt;forward</title>
<path fill="none" stroke="#ff0000" stroke-width=".1574" d="M136.5887,-123.5735C154.1753,-115.3541 179.764,-102.3301 200,-87.6812 204.1387,-84.6852 208.2854,-81.3384 212.3018,-77.8658"/>
<polygon fill="#ff0000" stroke="#ff0000" stroke-width=".1574" points="214.7369,-80.383 219.8285,-71.0918 210.0541,-75.1799 214.7369,-80.383"/>
</g>
<!-- other_dir&#45;&gt;backward -->
<g id="edge7" class="edge">
<title>other_dir&#45;&gt;backward</title>
<path fill="none" stroke="#ff0000" stroke-width=".1299" d="M119.2008,-123.5083C121.6655,-116.4448 125.2883,-106.0626 129.1097,-95.1112"/>
<polygon fill="#ff0000" stroke="#ff0000" stroke-width=".1299" points="132.5048,-96.0046 132.4949,-85.4098 125.8956,-93.6984 132.5048,-96.0046"/>
</g>
<!-- left -->
<g id="node7" class="node">
<title>left</title>
<ellipse fill="#add8e6" stroke="#000000" cx="63" cy="-43.8406" rx="22.7556" ry="22.7556"/>
<text text-anchor="middle" x="63" y="-41.6406" font-family="Times,serif" font-size="9.00" fill="#000000">left</text>
</g>
<!-- other_dir&#45;&gt;left -->
<g id="edge6" class="edge">
<title>other_dir&#45;&gt;left</title>
<path fill="none" stroke="#ff0000" stroke-width=".3665" d="M110.5277,-123.5083C103.3656,-111.503 90.4844,-89.9111 79.9373,-72.2315"/>
<polygon fill="#ff0000" stroke="#ff0000" stroke-width=".3665" points="82.8063,-70.2091 74.6772,-63.4144 76.7948,-73.7955 82.8063,-70.2091"/>
</g>
</g>
</svg>
