<?xml version="1.0" encoding="UTF-8" standalone="no"?>
<!DOCTYPE svg PUBLIC "-//W3C//DTD SVG 1.1//EN"
 "http://www.w3.org/Graphics/SVG/1.1/DTD/svg11.dtd">
<!-- Generated by graphviz version 2.40.1 (20161225.0304)
 -->
<!-- Title: %3 Pages: 1 -->
<svg width="333pt" height="150pt"
 viewBox="0.00 0.00 332.98 149.68" xmlns="http://www.w3.org/2000/svg" xmlns:xlink="http://www.w3.org/1999/xlink">
<g id="graph0" class="graph" transform="scale(1 1) rotate(0) translate(4 145.6812)">
<title>%3</title>
<polygon fill="#ffffff" stroke="transparent" points="-4,4 -4,-145.6812 328.9767,-145.6812 328.9767,4 -4,4"/>
<!-- center_dist -->
<g id="node1" class="node">
<title>center_dist</title>
<polygon fill="#d3d3d3" stroke="#000000" points="71.4767,-141.6812 3.4767,-141.6812 3.4767,-123.6812 71.4767,-123.6812 71.4767,-141.6812"/>
<text text-anchor="middle" x="37.4767" y="-130.4812" font-family="Times,serif" font-size="9.00" fill="#000000">center_dist</text>
</g>
<!-- forward -->
<g id="node5" class="node">
<title>forward</title>
<ellipse fill="#add8e6" stroke="#000000" cx="37.4767" cy="-43.8406" rx="37.4533" ry="37.4533"/>
<text text-anchor="middle" x="37.4767" y="-41.6406" font-family="Times,serif" font-size="9.00" fill="#000000">forward</text>
</g>
<!-- center_dist&#45;&gt;forward -->
<g id="edge8" class="edge">
<title>center_dist&#45;&gt;forward</title>
<path fill="none" stroke="#ff0000" stroke-width=".1181" d="M37.4767,-123.5083C37.4767,-115.75 37.4767,-103.9881 37.4767,-91.8657"/>
<polygon fill="#ff0000" stroke="#ff0000" stroke-width=".1181" points="40.9768,-91.678 37.4767,-81.6781 33.9768,-91.6781 40.9768,-91.678"/>
</g>
<!-- center_dir -->
<g id="node2" class="node">
<title>center_dir</title>
<polygon fill="#d3d3d3" stroke="#000000" points="157.9767,-141.6812 92.9767,-141.6812 92.9767,-123.6812 157.9767,-123.6812 157.9767,-141.6812"/>
<text text-anchor="middle" x="125.4767" y="-130.4812" font-family="Times,serif" font-size="9.00" fill="#000000">center_dir</text>
</g>
<!-- center_dir&#45;&gt;forward -->
<g id="edge2" class="edge">
<title>center_dir&#45;&gt;forward</title>
<path fill="none" stroke="#00ff00" stroke-width=".3541" d="M116.3906,-123.5083C105.8039,-112.8206 87.6912,-94.5349 71.487,-78.1758"/>
<polygon fill="#00ff00" stroke="#00ff00" stroke-width=".3541" points="73.734,-75.4708 64.2099,-70.8293 68.7607,-80.397 73.734,-75.4708"/>
</g>
<!-- backward -->
<g id="node6" class="node">
<title>backward</title>
<ellipse fill="#add8e6" stroke="#000000" cx="136.4767" cy="-43.8406" rx="43.6818" ry="43.6818"/>
<text text-anchor="middle" x="136.4767" y="-41.6406" font-family="Times,serif" font-size="9.00" fill="#000000">backward</text>
</g>
<!-- center_dir&#45;&gt;backward -->
<g id="edge1" class="edge">
<title>center_dir&#45;&gt;backward</title>
<path fill="none" stroke="#00ff00" stroke-width=".3351" d="M126.6124,-123.5083C127.4193,-116.9914 128.576,-107.6494 129.8151,-97.6418"/>
<polygon fill="#00ff00" stroke="#00ff00" stroke-width=".3351" points="133.3164,-97.8467 131.0718,-87.4923 126.3695,-96.9865 133.3164,-97.8467"/>
</g>
<!-- other_dist -->
<g id="node3" class="node">
<title>other_dist</title>
<polygon fill="#d3d3d3" stroke="#000000" points="244.9767,-141.6812 181.9767,-141.6812 181.9767,-123.6812 244.9767,-123.6812 244.9767,-141.6812"/>
<text text-anchor="middle" x="213.4767" y="-130.4812" font-family="Times,serif" font-size="9.00" fill="#000000">other_dist</text>
</g>
<!-- other_dist&#45;&gt;forward -->
<g id="edge4" class="edge">
<title>other_dist&#45;&gt;forward</title>
<path fill="none" stroke="#ff0000" stroke-width=".1473" d="M181.8923,-125.7887C154.4942,-118.8948 114.4766,-106.5727 83.4767,-87.6812 79.1137,-85.0224 74.8239,-81.8908 70.7235,-78.5445"/>
<polygon fill="#ff0000" stroke="#ff0000" stroke-width=".1473" points="72.9436,-75.8368 63.1023,-71.9125 68.3484,-81.1174 72.9436,-75.8368"/>
</g>
<!-- other_dist&#45;&gt;backward -->
<g id="edge3" class="edge">
<title>other_dist&#45;&gt;backward</title>
<path fill="none" stroke="#ff0000" stroke-width=".2157" d="M205.5263,-123.5083C197.5508,-114.3064 184.6938,-99.4723 172.2239,-85.0848"/>
<polygon fill="#ff0000" stroke="#ff0000" stroke-width=".2157" points="174.5638,-82.4407 165.3694,-77.1763 169.2741,-87.0254 174.5638,-82.4407"/>
</g>
<!-- left -->
<g id="node7" class="node">
<title>left</title>
<ellipse fill="#add8e6" stroke="#000000" cx="295.4767" cy="-43.8406" rx="22.7556" ry="22.7556"/>
<text text-anchor="middle" x="295.4767" y="-41.6406" font-family="Times,serif" font-size="9.00" fill="#000000">left</text>
</g>
<!-- other_dist&#45;&gt;left -->
<g id="edge6" class="edge">
<title>other_dist&#45;&gt;left</title>
<path fill="none" stroke="#ff0000" stroke-width=".2205" d="M224.8165,-123.6372C235.3731,-114.9572 251.2697,-101.2054 263.4767,-87.6812 268.1429,-82.5114 272.782,-76.6727 277.0206,-70.9822"/>
<polygon fill="#ff0000" stroke="#ff0000" stroke-width=".2205" points="279.8799,-73.0012 282.9008,-62.8461 274.2065,-68.9009 279.8799,-73.0012"/>
</g>
<!-- right -->
<g id="node8" class="node">
<title>right</title>
<ellipse fill="#add8e6" stroke="#000000" cx="226.4767" cy="-43.8406" rx="28.0702" ry="28.0702"/>
<text text-anchor="middle" x="226.4767" y="-41.6406" font-family="Times,serif" font-size="9.00" fill="#000000">right</text>
</g>
<!-- other_dist&#45;&gt;right -->
<g id="edge7" class="edge">
<title>other_dist&#45;&gt;right</title>
<path fill="none" stroke="#00ff00" stroke-width=".6552" d="M214.8189,-123.5083C216.2526,-113.7107 218.6206,-97.528 220.8492,-82.2978"/>
<polygon fill="#00ff00" stroke="#00ff00" stroke-width=".6552" points="224.3718,-82.3975 222.3567,-71.9961 217.4456,-81.384 224.3718,-82.3975"/>
</g>
<!-- other_dir -->
<g id="node4" class="node">
<title>other_dir</title>
<polygon fill="#d3d3d3" stroke="#000000" points="324.9767,-141.6812 265.9767,-141.6812 265.9767,-123.6812 324.9767,-123.6812 324.9767,-141.6812"/>
<text text-anchor="middle" x="295.4767" y="-130.4812" font-family="Times,serif" font-size="9.00" fill="#000000">other_dir</text>
</g>
<!-- other_dir&#45;&gt;left -->
<g id="edge5" class="edge">
<title>other_dir&#45;&gt;left</title>
<path fill="none" stroke="#ff0000" stroke-width=".3878" d="M295.4767,-123.5083C295.4767,-112.4943 295.4767,-93.4114 295.4767,-76.6833"/>
<polygon fill="#ff0000" stroke="#ff0000" stroke-width=".3878" points="298.9768,-76.6652 295.4767,-66.6652 291.9768,-76.6652 298.9768,-76.6652"/>
</g>
</g>
</svg>
