<?xml version="1.0" encoding="UTF-8" standalone="no"?>
<!DOCTYPE svg PUBLIC "-//W3C//DTD SVG 1.1//EN"
 "http://www.w3.org/Graphics/SVG/1.1/DTD/svg11.dtd">
<!-- Generated by graphviz version 2.40.1 (20161225.0304)
 -->
<!-- Title: %3 Pages: 1 -->
<svg width="332pt" height="150pt"
 viewBox="0.00 0.00 331.84 149.68" xmlns="http://www.w3.org/2000/svg" xmlns:xlink="http://www.w3.org/1999/xlink">
<g id="graph0" class="graph" transform="scale(1 1) rotate(0) translate(4 145.6812)">
<title>%3</title>
<polygon fill="#ffffff" stroke="transparent" points="-4,4 -4,-145.6812 327.8406,-145.6812 327.8406,4 -4,4"/>
<!-- center_dist -->
<g id="node1" class="node">
<title>center_dist</title>
<polygon fill="#d3d3d3" stroke="#000000" points="68,-141.6812 0,-141.6812 0,-123.6812 68,-123.6812 68,-141.6812"/>
<text text-anchor="middle" x="34" y="-130.4812" font-family="Times,serif" font-size="9.00" fill="#000000">center_dist</text>
</g>
<!-- forward -->
<g id="node5" class="node">
<title>forward</title>
<ellipse fill="#add8e6" stroke="#000000" cx="118" cy="-43.8406" rx="37.4533" ry="37.4533"/>
<text text-anchor="middle" x="118" y="-41.6406" font-family="Times,serif" font-size="9.00" fill="#000000">forward</text>
</g>
<!-- center_dist&#45;&gt;forward -->
<g id="edge8" class="edge">
<title>center_dist&#45;&gt;forward</title>
<path fill="none" stroke="#00ff00" stroke-width=".1685" d="M42.6731,-123.5083C52.7058,-112.8975 69.8195,-94.7976 85.2015,-78.5292"/>
<polygon fill="#00ff00" stroke="#00ff00" stroke-width=".1685" points="87.7882,-80.8878 92.1154,-71.2169 82.7018,-76.0785 87.7882,-80.8878"/>
</g>
<!-- right -->
<g id="node8" class="node">
<title>right</title>
<ellipse fill="#add8e6" stroke="#000000" cx="34" cy="-43.8406" rx="28.0702" ry="28.0702"/>
<text text-anchor="middle" x="34" y="-41.6406" font-family="Times,serif" font-size="9.00" fill="#000000">right</text>
</g>
<!-- center_dist&#45;&gt;right -->
<g id="edge3" class="edge">
<title>center_dist&#45;&gt;right</title>
<path fill="none" stroke="#ff0000" stroke-width=".1348" d="M34,-123.5083C34,-113.7827 34,-97.7656 34,-82.6339"/>
<polygon fill="#ff0000" stroke="#ff0000" stroke-width=".1348" points="37.5001,-82.3877 34,-72.3877 30.5001,-82.3877 37.5001,-82.3877"/>
</g>
<!-- center_dir -->
<g id="node2" class="node">
<title>center_dir</title>
<polygon fill="#d3d3d3" stroke="#000000" points="151.5,-141.6812 86.5,-141.6812 86.5,-123.6812 151.5,-123.6812 151.5,-141.6812"/>
<text text-anchor="middle" x="119" y="-130.4812" font-family="Times,serif" font-size="9.00" fill="#000000">center_dir</text>
</g>
<!-- center_dir&#45;&gt;forward -->
<g id="edge2" class="edge">
<title>center_dir&#45;&gt;forward</title>
<path fill="none" stroke="#00ff00" stroke-width=".6117" d="M118.8967,-123.5083C118.8094,-115.75 118.677,-103.9881 118.5406,-91.8657"/>
<polygon fill="#00ff00" stroke="#00ff00" stroke-width=".6117" points="122.0383,-91.638 118.4259,-81.6781 115.0388,-91.7169 122.0383,-91.638"/>
</g>
<!-- left -->
<g id="node7" class="node">
<title>left</title>
<ellipse fill="#add8e6" stroke="#000000" cx="196" cy="-43.8406" rx="22.7556" ry="22.7556"/>
<text text-anchor="middle" x="196" y="-41.6406" font-family="Times,serif" font-size="9.00" fill="#000000">left</text>
</g>
<!-- center_dir&#45;&gt;left -->
<g id="edge4" class="edge">
<title>center_dir&#45;&gt;left</title>
<path fill="none" stroke="#00ff00" stroke-width=".4467" d="M129.1043,-123.4402C138.5334,-114.621 152.7918,-100.775 164,-87.6812 168.5288,-82.3906 173.1097,-76.5008 177.3353,-70.7987"/>
<polygon fill="#00ff00" stroke="#00ff00" stroke-width=".4467" points="180.1914,-72.822 183.2244,-62.6706 174.5229,-68.7149 180.1914,-72.822"/>
</g>
<!-- center_dir&#45;&gt;right -->
<g id="edge1" class="edge">
<title>center_dir&#45;&gt;right</title>
<path fill="none" stroke="#00ff00" stroke-width=".3822" d="M109.0201,-123.6309C99.3241,-114.7219 84.3048,-100.6108 72,-87.6812 67.6254,-83.0845 63.1026,-78.0952 58.7694,-73.1848"/>
<polygon fill="#00ff00" stroke="#00ff00" stroke-width=".3822" points="61.3718,-70.8437 52.1648,-65.6013 56.0931,-75.441 61.3718,-70.8437"/>
</g>
<!-- other_dist -->
<g id="node3" class="node">
<title>other_dist</title>
<polygon fill="#d3d3d3" stroke="#000000" points="232.5,-141.6812 169.5,-141.6812 169.5,-123.6812 232.5,-123.6812 232.5,-141.6812"/>
<text text-anchor="middle" x="201" y="-130.4812" font-family="Times,serif" font-size="9.00" fill="#000000">other_dist</text>
</g>
<!-- other_dist&#45;&gt;forward -->
<g id="edge5" class="edge">
<title>other_dist&#45;&gt;forward</title>
<path fill="none" stroke="#00ff00" stroke-width=".4365" d="M192.4302,-123.5083C182.6774,-113.0693 166.1526,-95.3817 151.1476,-79.3207"/>
<polygon fill="#00ff00" stroke="#00ff00" stroke-width=".4365" points="153.3242,-76.5236 143.9398,-71.6058 148.2091,-81.3024 153.3242,-76.5236"/>
</g>
<!-- backward -->
<g id="node6" class="node">
<title>backward</title>
<ellipse fill="#add8e6" stroke="#000000" cx="280" cy="-43.8406" rx="43.6818" ry="43.6818"/>
<text text-anchor="middle" x="280" y="-41.6406" font-family="Times,serif" font-size="9.00" fill="#000000">backward</text>
</g>
<!-- other_dist&#45;&gt;backward -->
<g id="edge6" class="edge">
<title>other_dist&#45;&gt;backward</title>
<path fill="none" stroke="#00ff00" stroke-width=".3141" d="M209.1568,-123.5083C217.4824,-114.1457 230.9928,-98.9524 243.9942,-84.3314"/>
<polygon fill="#00ff00" stroke="#00ff00" stroke-width=".3141" points="246.687,-86.5703 250.7166,-76.7717 241.456,-81.9187 246.687,-86.5703"/>
</g>
<!-- other_dist&#45;&gt;left -->
<g id="edge7" class="edge">
<title>other_dist&#45;&gt;left</title>
<path fill="none" stroke="#ff0000" stroke-width=".3008" d="M200.4837,-123.5083C199.8639,-112.4943 198.7899,-93.4114 197.8484,-76.6833"/>
<polygon fill="#ff0000" stroke="#ff0000" stroke-width=".3008" points="201.3411,-76.4527 197.2846,-66.6652 194.3521,-76.8461 201.3411,-76.4527"/>
</g>
<!-- other_dir -->
<g id="node4" class="node">
<title>other_dir</title>
<polygon fill="#d3d3d3" stroke="#000000" points="309.5,-141.6812 250.5,-141.6812 250.5,-123.6812 309.5,-123.6812 309.5,-141.6812"/>
<text text-anchor="middle" x="280" y="-130.4812" font-family="Times,serif" font-size="9.00" fill="#000000">other_dir</text>
</g>
</g>
</svg>
