<?xml version="1.0" encoding="UTF-8" standalone="no"?>
<!DOCTYPE svg PUBLIC "-//W3C//DTD SVG 1.1//EN"
 "http://www.w3.org/Graphics/SVG/1.1/DTD/svg11.dtd">
<!-- Generated by graphviz version 2.40.1 (20161225.0304)
 -->
<!-- Title: %3 Pages: 1 -->
<svg width="422pt" height="150pt"
 viewBox="0.00 0.00 421.98 149.68" xmlns="http://www.w3.org/2000/svg" xmlns:xlink="http://www.w3.org/1999/xlink">
<g id="graph0" class="graph" transform="scale(1 1) rotate(0) translate(4 145.6812)">
<title>%3</title>
<polygon fill="#ffffff" stroke="transparent" points="-4,4 -4,-145.6812 417.9767,-145.6812 417.9767,4 -4,4"/>
<!-- center_dist -->
<g id="node1" class="node">
<title>center_dist</title>
<polygon fill="#d3d3d3" stroke="#000000" points="255.4767,-141.6812 187.4767,-141.6812 187.4767,-123.6812 255.4767,-123.6812 255.4767,-141.6812"/>
<text text-anchor="middle" x="221.4767" y="-130.4812" font-family="Times,serif" font-size="9.00" fill="#000000">center_dist</text>
</g>
<!-- right -->
<g id="node8" class="node">
<title>right</title>
<ellipse fill="#add8e6" stroke="#000000" cx="226.4767" cy="-43.8406" rx="28.0702" ry="28.0702"/>
<text text-anchor="middle" x="226.4767" y="-41.6406" font-family="Times,serif" font-size="9.00" fill="#000000">right</text>
</g>
<!-- center_dist&#45;&gt;right -->
<g id="edge6" class="edge">
<title>center_dist&#45;&gt;right</title>
<path fill="none" stroke="#00ff00" stroke-width=".2768" d="M221.9929,-123.5083C222.5403,-113.7827 223.4417,-97.7656 224.2934,-82.6339"/>
<polygon fill="#00ff00" stroke="#00ff00" stroke-width=".2768" points="227.8025,-82.5686 224.87,-72.3877 220.8135,-82.1752 227.8025,-82.5686"/>
</g>
<!-- center_dir -->
<g id="node2" class="node">
<title>center_dir</title>
<polygon fill="#d3d3d3" stroke="#000000" points="168.9767,-141.6812 103.9767,-141.6812 103.9767,-123.6812 168.9767,-123.6812 168.9767,-141.6812"/>
<text text-anchor="middle" x="136.4767" y="-130.4812" font-family="Times,serif" font-size="9.00" fill="#000000">center_dir</text>
</g>
<!-- forward -->
<g id="node5" class="node">
<title>forward</title>
<ellipse fill="#add8e6" stroke="#000000" cx="37.4767" cy="-43.8406" rx="37.4533" ry="37.4533"/>
<text text-anchor="middle" x="37.4767" y="-41.6406" font-family="Times,serif" font-size="9.00" fill="#000000">forward</text>
</g>
<!-- center_dir&#45;&gt;forward -->
<g id="edge2" class="edge">
<title>center_dir&#45;&gt;forward</title>
<path fill="none" stroke="#ff0000" stroke-width=".119" d="M125.3556,-123.5546C114.5204,-114.589 97.6545,-100.4372 83.4767,-87.6812 79.6784,-84.2639 75.749,-80.6482 71.8601,-77.0178"/>
<polygon fill="#ff0000" stroke="#ff0000" stroke-width=".119" points="74.1568,-74.373 64.4767,-70.0664 69.3584,-79.4696 74.1568,-74.373"/>
</g>
<!-- backward -->
<g id="node6" class="node">
<title>backward</title>
<ellipse fill="#add8e6" stroke="#000000" cx="136.4767" cy="-43.8406" rx="43.6818" ry="43.6818"/>
<text text-anchor="middle" x="136.4767" y="-41.6406" font-family="Times,serif" font-size="9.00" fill="#000000">backward</text>
</g>
<!-- center_dir&#45;&gt;backward -->
<g id="edge1" class="edge">
<title>center_dir&#45;&gt;backward</title>
<path fill="none" stroke="#ff0000" stroke-width=".1566" d="M136.4767,-123.5083C136.4767,-117.0579 136.4767,-107.8398 136.4767,-97.948"/>
<polygon fill="#ff0000" stroke="#ff0000" stroke-width=".1566" points="139.9768,-97.9091 136.4767,-87.9092 132.9768,-97.9092 139.9768,-97.9091"/>
</g>
<!-- left -->
<g id="node7" class="node">
<title>left</title>
<ellipse fill="#add8e6" stroke="#000000" cx="305.4767" cy="-43.8406" rx="22.7556" ry="22.7556"/>
<text text-anchor="middle" x="305.4767" y="-41.6406" font-family="Times,serif" font-size="9.00" fill="#000000">left</text>
</g>
<!-- center_dir&#45;&gt;left -->
<g id="edge5" class="edge">
<title>center_dir&#45;&gt;left</title>
<path fill="none" stroke="#ff0000" stroke-width=".1215" d="M169.1476,-125.5825C195.9829,-118.7382 234.2027,-106.5974 263.4767,-87.6812 271.1123,-82.7473 278.3703,-76.1615 284.6384,-69.5971"/>
<polygon fill="#ff0000" stroke="#ff0000" stroke-width=".1215" points="287.3955,-71.7664 291.5052,-62.0011 282.2028,-67.0722 287.3955,-71.7664"/>
</g>
<!-- center_dir&#45;&gt;right -->
<g id="edge4" class="edge">
<title>center_dir&#45;&gt;right</title>
<path fill="none" stroke="#ff0000" stroke-width=".2239" d="M148.334,-123.5504C159.4089,-114.8092 176.1814,-101.0159 189.4767,-87.6812 193.7113,-83.4341 198.001,-78.7592 202.0856,-74.0928"/>
<polygon fill="#ff0000" stroke="#ff0000" stroke-width=".2239" points="204.887,-76.2019 208.72,-66.3247 199.5641,-71.6558 204.887,-76.2019"/>
</g>
<!-- other_dist -->
<g id="node3" class="node">
<title>other_dist</title>
<polygon fill="#d3d3d3" stroke="#000000" points="336.9767,-141.6812 273.9767,-141.6812 273.9767,-123.6812 336.9767,-123.6812 336.9767,-141.6812"/>
<text text-anchor="middle" x="305.4767" y="-130.4812" font-family="Times,serif" font-size="9.00" fill="#000000">other_dist</text>
</g>
<!-- other_dist&#45;&gt;left -->
<g id="edge7" class="edge">
<title>other_dist&#45;&gt;left</title>
<path fill="none" stroke="#00ff00" stroke-width=".3797" d="M305.4767,-123.5083C305.4767,-112.4943 305.4767,-93.4114 305.4767,-76.6833"/>
<polygon fill="#00ff00" stroke="#00ff00" stroke-width=".3797" points="308.9768,-76.6652 305.4767,-66.6652 301.9768,-76.6652 308.9768,-76.6652"/>
</g>
<!-- other_dist&#45;&gt;right -->
<g id="edge8" class="edge">
<title>other_dist&#45;&gt;right</title>
<path fill="none" stroke="#00ff00" stroke-width=".4947" d="M297.3198,-123.5083C286.7903,-111.6672 267.9675,-90.4998 252.3697,-72.959"/>
<polygon fill="#00ff00" stroke="#00ff00" stroke-width=".4947" points="254.732,-70.3485 245.4714,-65.2014 249.501,-75 254.732,-70.3485"/>
</g>
<!-- other_dir -->
<g id="node4" class="node">
<title>other_dir</title>
<polygon fill="#d3d3d3" stroke="#000000" points="413.9767,-141.6812 354.9767,-141.6812 354.9767,-123.6812 413.9767,-123.6812 413.9767,-141.6812"/>
<text text-anchor="middle" x="384.4767" y="-130.4812" font-family="Times,serif" font-size="9.00" fill="#000000">other_dir</text>
</g>
<!-- other_dir&#45;&gt;left -->
<g id="edge3" class="edge">
<title>other_dir&#45;&gt;left</title>
<path fill="none" stroke="#00ff00" stroke-width=".108" d="M376.3198,-123.5083C364.9698,-110.7445 343.9838,-87.1444 327.7876,-68.9307"/>
<polygon fill="#00ff00" stroke="#00ff00" stroke-width=".108" points="329.9956,-66.1466 320.735,-60.9996 324.7646,-70.7982 329.9956,-66.1466"/>
</g>
</g>
</svg>
