<?xml version="1.0" encoding="UTF-8" standalone="no"?>
<!DOCTYPE svg PUBLIC "-//W3C//DTD SVG 1.1//EN"
 "http://www.w3.org/Graphics/SVG/1.1/DTD/svg11.dtd">
<!-- Generated by graphviz version 2.40.1 (20161225.0304)
 -->
<!-- Title: %3 Pages: 1 -->
<svg width="1229pt" height="1052pt"
 viewBox="0.00 0.00 1229.36 1052.48" xmlns="http://www.w3.org/2000/svg" xmlns:xlink="http://www.w3.org/1999/xlink">
<g id="graph0" class="graph" transform="scale(1 1) rotate(0) translate(4 1048.4794)">
<title>%3</title>
<polygon fill="#ffffff" stroke="transparent" points="-4,4 -4,-1048.4794 1225.3584,-1048.4794 1225.3584,4 -4,4"/>
<!-- center_dist -->
<g id="node1" class="node">
<title>center_dist</title>
<polygon fill="#d3d3d3" stroke="#000000" points="510.367,-1024.488 442.367,-1024.488 442.367,-1006.488 510.367,-1006.488 510.367,-1024.488"/>
<text text-anchor="middle" x="476.367" y="-1013.288" font-family="Times,serif" font-size="9.00" fill="#000000">center_dist</text>
</g>
<!-- center_dir -->
<g id="node2" class="node">
<title>center_dir</title>
<polygon fill="#d3d3d3" stroke="#000000" points="593.867,-1024.488 528.867,-1024.488 528.867,-1006.488 593.867,-1006.488 593.867,-1024.488"/>
<text text-anchor="middle" x="561.367" y="-1013.288" font-family="Times,serif" font-size="9.00" fill="#000000">center_dir</text>
</g>
<!-- other_dist -->
<g id="node3" class="node">
<title>other_dist</title>
<polygon fill="#d3d3d3" stroke="#000000" points="866.867,-836.5225 803.867,-836.5225 803.867,-818.5225 866.867,-818.5225 866.867,-836.5225"/>
<text text-anchor="middle" x="835.367" y="-825.3225" font-family="Times,serif" font-size="9.00" fill="#000000">other_dist</text>
</g>
<!-- 1328 -->
<g id="node25" class="node">
<title>1328</title>
<ellipse fill="#ffffff" stroke="#000000" cx="786.367" cy="-528.6036" rx="28.9828" ry="28.9828"/>
<text text-anchor="middle" x="786.367" y="-526.4036" font-family="Times,serif" font-size="9.00" fill="#000000">1328</text>
</g>
<!-- other_dist&#45;&gt;1328 -->
<g id="edge46" class="edge">
<title>other_dist&#45;&gt;1328</title>
<path fill="none" stroke="#00ff00" stroke-width=".5163" stroke-dasharray="1,5" d="M833.8468,-818.2486C827.6701,-780.5684 804.2379,-637.6228 792.7686,-567.6557"/>
<polygon fill="#00ff00" stroke="#00ff00" stroke-width=".5163" points="796.1724,-566.7837 791.1008,-557.4816 789.2646,-567.9161 796.1724,-566.7837"/>
</g>
<!-- 6859 -->
<g id="node33" class="node">
<title>6859</title>
<ellipse fill="#ffffff" stroke="#000000" cx="900.367" cy="-733.5397" rx="28.9828" ry="28.9828"/>
<text text-anchor="middle" x="900.367" y="-731.3397" font-family="Times,serif" font-size="9.00" fill="#000000">6859</text>
</g>
<!-- other_dist&#45;&gt;6859 -->
<g id="edge57" class="edge">
<title>other_dist&#45;&gt;6859</title>
<path fill="none" stroke="#00ff00" stroke-width=".2436" d="M841.5995,-818.511C849.9211,-806.4788 865.1054,-784.524 877.9546,-765.9456"/>
<polygon fill="#00ff00" stroke="#00ff00" stroke-width=".2436" points="880.8512,-767.9104 883.6609,-757.6949 875.0939,-763.9286 880.8512,-767.9104"/>
</g>
<!-- 3661 -->
<g id="node34" class="node">
<title>3661</title>
<ellipse fill="#ffffff" stroke="#000000" cx="1005.367" cy="-631.0717" rx="28.9828" ry="28.9828"/>
<text text-anchor="middle" x="1005.367" y="-628.8717" font-family="Times,serif" font-size="9.00" fill="#000000">3661</text>
</g>
<!-- other_dist&#45;&gt;3661 -->
<g id="edge25" class="edge">
<title>other_dist&#45;&gt;3661</title>
<path fill="none" stroke="#ff0000" stroke-width=".25" stroke-dasharray="1,5" d="M834.8788,-818.4131C834.1808,-796.4322 835.2972,-739.7067 862.367,-704.5483 888.4465,-670.6762 934.504,-651.0342 967.3007,-640.7192"/>
<polygon fill="#ff0000" stroke="#ff0000" stroke-width=".25" points="968.4395,-644.0318 977.0164,-637.8119 966.4328,-637.3256 968.4395,-644.0318"/>
</g>
<!-- 4453 -->
<g id="node43" class="node">
<title>4453</title>
<ellipse fill="#ffffff" stroke="#000000" cx="317.367" cy="-733.5397" rx="28.9828" ry="28.9828"/>
<text text-anchor="middle" x="317.367" y="-731.3397" font-family="Times,serif" font-size="9.00" fill="#000000">4453</text>
</g>
<!-- other_dist&#45;&gt;4453 -->
<g id="edge30" class="edge">
<title>other_dist&#45;&gt;4453</title>
<path fill="none" stroke="#00ff00" stroke-width=".1418" d="M823.6097,-818.5139C814.1097,-811.7613 800.1039,-802.9535 786.367,-798.5311 614.3518,-743.1527 556.1418,-808.4634 381.367,-762.5311 371.648,-759.9769 361.5564,-756.0642 352.3386,-751.932"/>
<polygon fill="#00ff00" stroke="#00ff00" stroke-width=".1418" points="353.6406,-748.6767 343.1012,-747.594 350.665,-755.0128 353.6406,-748.6767"/>
</g>
<!-- other_dir -->
<g id="node4" class="node">
<title>other_dir</title>
<polygon fill="#d3d3d3" stroke="#000000" points="524.867,-742.5397 465.867,-742.5397 465.867,-724.5397 524.867,-724.5397 524.867,-742.5397"/>
<text text-anchor="middle" x="495.367" y="-731.3397" font-family="Times,serif" font-size="9.00" fill="#000000">other_dir</text>
</g>
<!-- 2870 -->
<g id="node29" class="node">
<title>2870</title>
<ellipse fill="#ffffff" stroke="#000000" cx="463.367" cy="-631.0717" rx="28.9828" ry="28.9828"/>
<text text-anchor="middle" x="463.367" y="-628.8717" font-family="Times,serif" font-size="9.00" fill="#000000">2870</text>
</g>
<!-- other_dir&#45;&gt;2870 -->
<g id="edge5" class="edge">
<title>other_dir&#45;&gt;2870</title>
<path fill="none" stroke="#00ff00" stroke-width=".4248" d="M492.5272,-724.4464C488.6363,-711.9871 481.4138,-688.8597 475.1305,-668.7401"/>
<polygon fill="#00ff00" stroke="#00ff00" stroke-width=".4248" points="478.4621,-667.6667 472.1402,-659.1647 471.7804,-669.7534 478.4621,-667.6667"/>
</g>
<!-- forward -->
<g id="node5" class="node">
<title>forward</title>
<ellipse fill="#add8e6" stroke="#000000" cx="103.367" cy="-631.0717" rx="37.4533" ry="37.4533"/>
<text text-anchor="middle" x="103.367" y="-628.8717" font-family="Times,serif" font-size="9.00" fill="#000000">forward</text>
</g>
<!-- 7240 -->
<g id="node32" class="node">
<title>7240</title>
<ellipse fill="#ffffff" stroke="#000000" cx="45.367" cy="-419.7716" rx="28.9828" ry="28.9828"/>
<text text-anchor="middle" x="45.367" y="-417.5716" font-family="Times,serif" font-size="9.00" fill="#000000">7240</text>
</g>
<!-- forward&#45;&gt;7240 -->
<g id="edge13" class="edge">
<title>forward&#45;&gt;7240</title>
<path fill="none" stroke="#00ff00" stroke-width=".2682" d="M69.1558,-615.1822C47.0876,-602.8865 20.1932,-583.5639 7.367,-557.595 -9.3946,-523.6584 7.2973,-481.2472 23.5347,-452.5001"/>
<polygon fill="#00ff00" stroke="#00ff00" stroke-width=".2682" points="26.6753,-454.065 28.7476,-443.6748 20.6482,-450.5049 26.6753,-454.065"/>
</g>
<!-- 8023 -->
<g id="node38" class="node">
<title>8023</title>
<ellipse fill="#ffffff" stroke="#000000" cx="45.367" cy="-528.6036" rx="28.9828" ry="28.9828"/>
<text text-anchor="middle" x="45.367" y="-526.4036" font-family="Times,serif" font-size="9.00" fill="#000000">8023</text>
</g>
<!-- forward&#45;&gt;8023 -->
<g id="edge15" class="edge">
<title>forward&#45;&gt;8023</title>
<path fill="none" stroke="#00ff00" stroke-width=".1187" d="M84.856,-598.3684C78.4207,-586.9994 71.1891,-574.2234 64.6899,-562.7413"/>
<polygon fill="#00ff00" stroke="#00ff00" stroke-width=".1187" points="67.6358,-560.8405 59.6639,-553.8619 61.544,-564.2886 67.6358,-560.8405"/>
</g>
<!-- 7150 -->
<g id="node45" class="node">
<title>7150</title>
<ellipse fill="#ffffff" stroke="#000000" cx="145.367" cy="-310.9396" rx="28.9828" ry="28.9828"/>
<text text-anchor="middle" x="145.367" y="-308.7396" font-family="Times,serif" font-size="9.00" fill="#000000">7150</text>
</g>
<!-- forward&#45;&gt;7150 -->
<g id="edge21" class="edge">
<title>forward&#45;&gt;7150</title>
<path fill="none" stroke="#ff0000" stroke-width=".1339" stroke-dasharray="1,5" d="M108.2671,-593.7219C116.2652,-532.7587 132.0502,-412.4427 140.211,-350.2395"/>
<polygon fill="#ff0000" stroke="#ff0000" stroke-width=".1339" points="143.7172,-350.4205 141.5478,-340.0502 136.7766,-349.5099 143.7172,-350.4205"/>
</g>
<!-- backward -->
<g id="node6" class="node">
<title>backward</title>
<ellipse fill="#add8e6" stroke="#000000" cx="444.367" cy="-419.7716" rx="43.6818" ry="43.6818"/>
<text text-anchor="middle" x="444.367" y="-417.5716" font-family="Times,serif" font-size="9.00" fill="#000000">backward</text>
</g>
<!-- 6581 -->
<g id="node26" class="node">
<title>6581</title>
<ellipse fill="#ffffff" stroke="#000000" cx="481.367" cy="-28.9914" rx="28.9828" ry="28.9828"/>
<text text-anchor="middle" x="481.367" y="-26.7914" font-family="Times,serif" font-size="9.00" fill="#000000">6581</text>
</g>
<!-- backward&#45;&gt;6581 -->
<g id="edge48" class="edge">
<title>backward&#45;&gt;6581</title>
<path fill="none" stroke="#ff0000" stroke-width=".5006" d="M448.5037,-376.0817C455.765,-299.3905 470.6922,-141.7342 477.6476,-68.2743"/>
<polygon fill="#ff0000" stroke="#ff0000" stroke-width=".5006" points="481.1558,-68.352 478.6141,-58.0666 474.187,-67.6921 481.1558,-68.352"/>
</g>
<!-- 7393 -->
<g id="node41" class="node">
<title>7393</title>
<ellipse fill="#ffffff" stroke="#000000" cx="537.367" cy="-310.9396" rx="28.9828" ry="28.9828"/>
<text text-anchor="middle" x="537.367" y="-308.7396" font-family="Times,serif" font-size="9.00" fill="#000000">7393</text>
</g>
<!-- backward&#45;&gt;7393 -->
<g id="edge45" class="edge">
<title>backward&#45;&gt;7393</title>
<path fill="none" stroke="#ff0000" stroke-width=".1279" d="M473.0289,-386.2304C485.3424,-371.8207 499.623,-355.109 511.5974,-341.0961"/>
<polygon fill="#ff0000" stroke="#ff0000" stroke-width=".1279" points="514.5133,-343.0714 518.349,-333.1952 509.1917,-338.5238 514.5133,-343.0714"/>
</g>
<!-- left -->
<g id="node7" class="node">
<title>left</title>
<ellipse fill="#add8e6" stroke="#000000" cx="1081.367" cy="-827.5225" rx="22.7556" ry="22.7556"/>
<text text-anchor="middle" x="1081.367" y="-825.3225" font-family="Times,serif" font-size="9.00" fill="#000000">left</text>
</g>
<!-- 7578 -->
<g id="node20" class="node">
<title>7578</title>
<ellipse fill="#ffffff" stroke="#000000" cx="1166.367" cy="-733.5397" rx="28.9828" ry="28.9828"/>
<text text-anchor="middle" x="1166.367" y="-731.3397" font-family="Times,serif" font-size="9.00" fill="#000000">7578</text>
</g>
<!-- left&#45;&gt;7578 -->
<g id="edge16" class="edge">
<title>left&#45;&gt;7578</title>
<path fill="none" stroke="#ff0000" stroke-width=".3439" d="M1096.5633,-810.7202C1108.6281,-797.3804 1125.7837,-778.4118 1140.0679,-762.6181"/>
<polygon fill="#ff0000" stroke="#ff0000" stroke-width=".3439" points="1142.7026,-764.9228 1146.8146,-755.1584 1137.511,-760.2273 1142.7026,-764.9228"/>
</g>
<!-- right -->
<g id="node8" class="node">
<title>right</title>
<ellipse fill="#add8e6" stroke="#000000" cx="1006.367" cy="-827.5225" rx="28.0702" ry="28.0702"/>
<text text-anchor="middle" x="1006.367" y="-825.3225" font-family="Times,serif" font-size="9.00" fill="#000000">right</text>
</g>
<!-- 9093 -->
<g id="node9" class="node">
<title>9093</title>
<ellipse fill="#ffffff" stroke="#000000" cx="1090.367" cy="-733.5397" rx="28.9828" ry="28.9828"/>
<text text-anchor="middle" x="1090.367" y="-731.3397" font-family="Times,serif" font-size="9.00" fill="#000000">9093</text>
</g>
<!-- right&#45;&gt;9093 -->
<g id="edge63" class="edge">
<title>right&#45;&gt;9093</title>
<path fill="none" stroke="#ff0000" stroke-width=".2067" d="M1025.4279,-806.1963C1036.8636,-793.4015 1051.5723,-776.9448 1064.0987,-762.9298"/>
<polygon fill="#ff0000" stroke="#ff0000" stroke-width=".2067" points="1066.7442,-765.2221 1070.7986,-755.4337 1061.525,-760.5572 1066.7442,-765.2221"/>
</g>
<!-- 8545 -->
<g id="node31" class="node">
<title>8545</title>
<ellipse fill="#ffffff" stroke="#000000" cx="976.367" cy="-733.5397" rx="28.9828" ry="28.9828"/>
<text text-anchor="middle" x="976.367" y="-731.3397" font-family="Times,serif" font-size="9.00" fill="#000000">8545</text>
</g>
<!-- right&#45;&gt;8545 -->
<g id="edge3" class="edge">
<title>right&#45;&gt;8545</title>
<path fill="none" stroke="#ff0000" stroke-width=".3527" d="M997.6897,-800.3388C994.7566,-791.1498 991.4285,-780.7239 988.2886,-770.8872"/>
<polygon fill="#ff0000" stroke="#ff0000" stroke-width=".3527" points="991.6081,-769.7766 985.2329,-761.3145 984.9396,-771.9053 991.6081,-769.7766"/>
</g>
<!-- right&#45;&gt;6859 -->
<g id="edge38" class="edge">
<title>right&#45;&gt;6859</title>
<path fill="none" stroke="#00ff00" stroke-width=".4029" d="M985.1711,-808.7295C969.3484,-794.7007 947.5246,-775.351 929.9786,-759.7943"/>
<polygon fill="#00ff00" stroke="#00ff00" stroke-width=".4029" points="932.0594,-756.9616 922.2549,-752.9462 927.4154,-762.1993 932.0594,-756.9616"/>
</g>
<!-- right&#45;&gt;3661 -->
<g id="edge2" class="edge">
<title>right&#45;&gt;3661</title>
<path fill="none" stroke="#ff0000" stroke-width=".3509" stroke-dasharray="1,5" d="M1010.586,-799.4406C1012.1028,-788.0183 1013.6225,-774.6725 1014.367,-762.5311 1015.9441,-736.8093 1015.9365,-730.2706 1014.367,-704.5483 1013.6849,-693.3691 1012.4242,-681.2861 1011.0579,-670.2103"/>
<polygon fill="#ff0000" stroke="#ff0000" stroke-width=".3509" points="1014.4861,-669.4299 1009.731,-659.9621 1007.5441,-670.3288 1014.4861,-669.4299"/>
</g>
<!-- 9093&#45;&gt;3661 -->
<g id="edge40" class="edge">
<title>9093&#45;&gt;3661</title>
<path fill="none" stroke="#00ff00" stroke-width=".1383" d="M1071.7134,-711.0527C1059.6449,-696.5041 1043.7834,-677.383 1030.5955,-661.4849"/>
<polygon fill="#00ff00" stroke="#00ff00" stroke-width=".1383" points="1033.0555,-658.9683 1023.9771,-653.5063 1027.6678,-663.4375 1033.0555,-658.9683"/>
</g>
<!-- 9222 -->
<g id="node10" class="node">
<title>9222</title>
<ellipse fill="#ffffff" stroke="#000000" cx="538.367" cy="-122.9741" rx="28.9828" ry="28.9828"/>
<text text-anchor="middle" x="538.367" y="-120.7741" font-family="Times,serif" font-size="9.00" fill="#000000">9222</text>
</g>
<!-- 9222&#45;&gt;6581 -->
<g id="edge9" class="edge">
<title>9222&#45;&gt;6581</title>
<path fill="none" stroke="#ff0000" stroke-width=".3647" d="M523.092,-97.7885C516.5224,-86.9564 508.7482,-74.1381 501.7014,-62.5192"/>
<polygon fill="#ff0000" stroke="#ff0000" stroke-width=".3647" points="504.6649,-60.656 496.4865,-53.9207 498.6796,-64.286 504.6649,-60.656"/>
</g>
<!-- 1153 -->
<g id="node11" class="node">
<title>1153</title>
<ellipse fill="#ffffff" stroke="#000000" cx="640.367" cy="-921.5052" rx="28.9828" ry="28.9828"/>
<text text-anchor="middle" x="640.367" y="-919.3052" font-family="Times,serif" font-size="9.00" fill="#000000">1153</text>
</g>
<!-- 1153&#45;&gt;backward -->
<g id="edge37" class="edge">
<title>1153&#45;&gt;backward</title>
<path fill="none" stroke="#00ff00" stroke-width=".2262" stroke-dasharray="1,5" d="M648.7951,-893.7333C673.5601,-809.6294 741.3117,-559.7919 691.367,-499.6123 635.9204,-432.8032 578.3141,-499.7388 499.367,-463.6123 494.4398,-461.3575 489.5682,-458.5672 484.8809,-455.4947"/>
<polygon fill="#00ff00" stroke="#00ff00" stroke-width=".2262" points="486.8624,-452.6094 476.6708,-449.7143 482.8325,-458.3331 486.8624,-452.6094"/>
</g>
<!-- 1153&#45;&gt;left -->
<g id="edge31" class="edge">
<title>1153&#45;&gt;left</title>
<path fill="none" stroke="#00ff00" stroke-width=".1744" stroke-dasharray="1,5" d="M669.25,-918.694C749.775,-910.5667 975.3234,-885.7493 1043.367,-856.5139 1047.8938,-854.5689 1052.3649,-851.9666 1056.5626,-849.1165"/>
<polygon fill="#00ff00" stroke="#00ff00" stroke-width=".1744" points="1058.7873,-851.8239 1064.7254,-843.0495 1054.6116,-846.2057 1058.7873,-851.8239"/>
</g>
<!-- 8706 -->
<g id="node13" class="node">
<title>8706</title>
<ellipse fill="#ffffff" stroke="#000000" cx="220.367" cy="-827.5225" rx="28.9828" ry="28.9828"/>
<text text-anchor="middle" x="220.367" y="-825.3225" font-family="Times,serif" font-size="9.00" fill="#000000">8706</text>
</g>
<!-- 1153&#45;&gt;8706 -->
<g id="edge6" class="edge">
<title>1153&#45;&gt;8706</title>
<path fill="none" stroke="#ff0000" stroke-width=".2073" d="M611.3215,-918.3875C533.5884,-909.7568 322.3741,-884.3427 258.367,-856.5139 255.7273,-855.3662 253.1053,-853.9973 250.5447,-852.4881"/>
<polygon fill="#ff0000" stroke="#ff0000" stroke-width=".2073" points="252.4113,-849.5265 242.1384,-846.9346 248.5528,-855.367 252.4113,-849.5265"/>
</g>
<!-- 6163 -->
<g id="node16" class="node">
<title>6163</title>
<ellipse fill="#ffffff" stroke="#000000" cx="220.367" cy="-733.5397" rx="28.9828" ry="28.9828"/>
<text text-anchor="middle" x="220.367" y="-731.3397" font-family="Times,serif" font-size="9.00" fill="#000000">6163</text>
</g>
<!-- 1153&#45;&gt;6163 -->
<g id="edge42" class="edge">
<title>1153&#45;&gt;6163</title>
<path fill="none" stroke="#ff0000" stroke-width=".6636" d="M611.2952,-917.2156C550.2368,-907.7709 411.0996,-883.8326 372.367,-856.5139 347.1885,-838.755 356.8186,-819.6322 334.367,-798.5311 321.7466,-786.6698 283.9041,-765.9724 255.2515,-751.1189"/>
<polygon fill="#ff0000" stroke="#ff0000" stroke-width=".6636" points="256.8085,-747.984 246.3152,-746.5203 253.6054,-754.2082 256.8085,-747.984"/>
</g>
<!-- 6582 -->
<g id="node27" class="node">
<title>6582</title>
<ellipse fill="#ffffff" stroke="#000000" cx="748.367" cy="-827.5225" rx="28.9828" ry="28.9828"/>
<text text-anchor="middle" x="748.367" y="-825.3225" font-family="Times,serif" font-size="9.00" fill="#000000">6582</text>
</g>
<!-- 1153&#45;&gt;6582 -->
<g id="edge11" class="edge">
<title>1153&#45;&gt;6582</title>
<path fill="none" stroke="#ff0000" stroke-width=".4126" stroke-dasharray="1,5" d="M662.483,-902.2596C678.6449,-888.1953 700.7435,-868.9649 718.4769,-853.5331"/>
<polygon fill="#ff0000" stroke="#ff0000" stroke-width=".4126" points="721.0345,-855.9472 726.2805,-846.7423 716.4393,-850.6666 721.0345,-855.9472"/>
</g>
<!-- 1153&#45;&gt;4453 -->
<g id="edge52" class="edge">
<title>1153&#45;&gt;4453</title>
<path fill="none" stroke="#00ff00" stroke-width=".3881" stroke-dasharray="1,5" d="M616.3422,-904.9102C580.4927,-880.427 510.5457,-833.7287 448.367,-798.5311 416.8832,-780.709 379.8595,-762.5904 353.2186,-750.0276"/>
<polygon fill="#00ff00" stroke="#00ff00" stroke-width=".3881" points="354.443,-746.7361 343.9028,-745.6614 351.4723,-753.0745 354.443,-746.7361"/>
</g>
<!-- 7435 -->
<g id="node12" class="node">
<title>7435</title>
<ellipse fill="#ffffff" stroke="#000000" cx="634.367" cy="-631.0717" rx="28.9828" ry="28.9828"/>
<text text-anchor="middle" x="634.367" y="-628.8717" font-family="Times,serif" font-size="9.00" fill="#000000">7435</text>
</g>
<!-- 7435&#45;&gt;1328 -->
<g id="edge17" class="edge">
<title>7435&#45;&gt;1328</title>
<path fill="none" stroke="#00ff00" stroke-width="1.0459" d="M658.4518,-614.8353C684.1693,-597.4983 725.079,-569.9198 753.6897,-550.6324"/>
<polygon fill="#00ff00" stroke="#00ff00" stroke-width="1.0459" points="755.8082,-553.4253 762.1436,-544.9334 751.8954,-547.6211 755.8082,-553.4253"/>
</g>
<!-- 4082 -->
<g id="node46" class="node">
<title>4082</title>
<ellipse fill="#ffffff" stroke="#000000" cx="577.367" cy="-528.6036" rx="28.9828" ry="28.9828"/>
<text text-anchor="middle" x="577.367" y="-526.4036" font-family="Times,serif" font-size="9.00" fill="#000000">4082</text>
</g>
<!-- 7435&#45;&gt;4082 -->
<g id="edge12" class="edge">
<title>7435&#45;&gt;4082</title>
<path fill="none" stroke="#00ff00" stroke-width=".4664" stroke-dasharray="1,5" d="M620.1305,-605.479C612.9894,-592.6416 604.2387,-576.9105 596.5175,-563.0302"/>
<polygon fill="#00ff00" stroke="#00ff00" stroke-width=".4664" points="599.5394,-561.2627 591.6195,-554.2252 593.4222,-564.6656 599.5394,-561.2627"/>
</g>
<!-- 8706&#45;&gt;6163 -->
<g id="edge19" class="edge">
<title>8706&#45;&gt;6163</title>
<path fill="none" stroke="#00ff00" stroke-width=".4145" d="M220.367,-798.3009C220.367,-790.2561 220.367,-781.3965 220.367,-772.8812"/>
<polygon fill="#00ff00" stroke="#00ff00" stroke-width=".4145" points="223.8671,-772.7432 220.367,-762.7432 216.8671,-772.7432 223.8671,-772.7432"/>
</g>
<!-- 8557 -->
<g id="node14" class="node">
<title>8557</title>
<ellipse fill="#ffffff" stroke="#000000" cx="1192.367" cy="-827.5225" rx="28.9828" ry="28.9828"/>
<text text-anchor="middle" x="1192.367" y="-825.3225" font-family="Times,serif" font-size="9.00" fill="#000000">8557</text>
</g>
<!-- 8557&#45;&gt;7578 -->
<g id="edge55" class="edge">
<title>8557&#45;&gt;7578</title>
<path fill="none" stroke="#00ff00" stroke-width=".1673" d="M1184.6365,-799.579C1182.1961,-790.7576 1179.4575,-780.8582 1176.858,-771.4618"/>
<polygon fill="#00ff00" stroke="#00ff00" stroke-width=".1673" points="1180.1522,-770.2426 1174.1126,-761.5378 1173.4056,-772.109 1180.1522,-770.2426"/>
</g>
<!-- 2903 -->
<g id="node15" class="node">
<title>2903</title>
<ellipse fill="#ffffff" stroke="#000000" cx="235.367" cy="-528.6036" rx="28.9828" ry="28.9828"/>
<text text-anchor="middle" x="235.367" y="-526.4036" font-family="Times,serif" font-size="9.00" fill="#000000">2903</text>
</g>
<!-- 2903&#45;&gt;7150 -->
<g id="edge24" class="edge">
<title>2903&#45;&gt;7150</title>
<path fill="none" stroke="#ff0000" stroke-width=".2717" d="M224.1504,-501.4764C208.0728,-462.5931 178.4368,-390.9187 160.4528,-347.4245"/>
<polygon fill="#ff0000" stroke="#ff0000" stroke-width=".2717" points="163.6388,-345.9698 156.5832,-338.066 157.1699,-348.6446 163.6388,-345.9698"/>
</g>
<!-- 6163&#45;&gt;forward -->
<g id="edge7" class="edge">
<title>6163&#45;&gt;forward</title>
<path fill="none" stroke="#ff0000" stroke-width=".2996" stroke-dasharray="1,5" d="M198.3602,-714.2663C181.8372,-699.7955 158.8473,-679.6611 139.6231,-662.8246"/>
<polygon fill="#ff0000" stroke="#ff0000" stroke-width=".2996" points="141.747,-660.0322 131.9182,-656.0767 137.1351,-665.2982 141.747,-660.0322"/>
</g>
<!-- 8942 -->
<g id="node17" class="node">
<title>8942</title>
<ellipse fill="#ffffff" stroke="#000000" cx="410.367" cy="-827.5225" rx="28.9828" ry="28.9828"/>
<text text-anchor="middle" x="410.367" y="-825.3225" font-family="Times,serif" font-size="9.00" fill="#000000">8942</text>
</g>
<!-- 8942&#45;&gt;4453 -->
<g id="edge51" class="edge">
<title>8942&#45;&gt;4453</title>
<path fill="none" stroke="#ff0000" stroke-width=".1719" stroke-dasharray="1,5" d="M389.7273,-806.6647C376.6033,-793.402 359.4495,-776.0669 345.1377,-761.6039"/>
<polygon fill="#ff0000" stroke="#ff0000" stroke-width=".1719" points="347.4707,-758.9856 337.949,-754.3392 342.495,-763.9092 347.4707,-758.9856"/>
</g>
<!-- 6422 -->
<g id="node18" class="node">
<title>6422</title>
<ellipse fill="#ffffff" stroke="#000000" cx="716.367" cy="-1015.488" rx="28.9828" ry="28.9828"/>
<text text-anchor="middle" x="716.367" y="-1013.288" font-family="Times,serif" font-size="9.00" fill="#000000">6422</text>
</g>
<!-- 7513 -->
<g id="node19" class="node">
<title>7513</title>
<ellipse fill="#ffffff" stroke="#000000" cx="537.367" cy="-419.7716" rx="28.9828" ry="28.9828"/>
<text text-anchor="middle" x="537.367" y="-417.5716" font-family="Times,serif" font-size="9.00" fill="#000000">7513</text>
</g>
<!-- 7513&#45;&gt;7393 -->
<g id="edge64" class="edge">
<title>7513&#45;&gt;7393</title>
<path fill="none" stroke="#00ff00" stroke-width=".7795" stroke-dasharray="1,5" d="M537.367,-390.6067C537.367,-378.2855 537.367,-363.745 537.367,-350.4816"/>
<polygon fill="#00ff00" stroke="#00ff00" stroke-width=".7795" points="540.8671,-350.1851 537.367,-340.1851 533.8671,-350.1852 540.8671,-350.1851"/>
</g>
<!-- 3418 -->
<g id="node40" class="node">
<title>3418</title>
<ellipse fill="#ffffff" stroke="#000000" cx="1138.367" cy="-631.0717" rx="28.9828" ry="28.9828"/>
<text text-anchor="middle" x="1138.367" y="-628.8717" font-family="Times,serif" font-size="9.00" fill="#000000">3418</text>
</g>
<!-- 7578&#45;&gt;3418 -->
<g id="edge23" class="edge">
<title>7578&#45;&gt;3418</title>
<path fill="none" stroke="#00ff00" stroke-width=".1698" d="M1158.7159,-705.5399C1155.6546,-694.3369 1152.0795,-681.2534 1148.7874,-669.2059"/>
<polygon fill="#00ff00" stroke="#00ff00" stroke-width=".1698" points="1152.1184,-668.1175 1146.1061,-659.3937 1145.3659,-669.9627 1152.1184,-668.1175"/>
</g>
<!-- 5661 -->
<g id="node21" class="node">
<title>5661</title>
<ellipse fill="#ffffff" stroke="#000000" cx="558.367" cy="-631.0717" rx="28.9828" ry="28.9828"/>
<text text-anchor="middle" x="558.367" y="-628.8717" font-family="Times,serif" font-size="9.00" fill="#000000">5661</text>
</g>
<!-- 5661&#45;&gt;4082 -->
<g id="edge35" class="edge">
<title>5661&#45;&gt;4082</title>
<path fill="none" stroke="#00ff00" stroke-width=".4753" d="M563.6595,-602.5286C565.6808,-591.6279 568.0205,-579.0099 570.1884,-567.3184"/>
<polygon fill="#00ff00" stroke="#00ff00" stroke-width=".4753" points="573.655,-567.8196 572.0369,-557.349 566.7723,-566.5433 573.655,-567.8196"/>
</g>
<!-- 8228 -->
<g id="node22" class="node">
<title>8228</title>
<ellipse fill="#ffffff" stroke="#000000" cx="236.367" cy="-631.0717" rx="28.9828" ry="28.9828"/>
<text text-anchor="middle" x="236.367" y="-628.8717" font-family="Times,serif" font-size="9.00" fill="#000000">8228</text>
</g>
<!-- 6614 -->
<g id="node37" class="node">
<title>6614</title>
<ellipse fill="#ffffff" stroke="#000000" cx="159.367" cy="-528.6036" rx="28.9828" ry="28.9828"/>
<text text-anchor="middle" x="159.367" y="-526.4036" font-family="Times,serif" font-size="9.00" fill="#000000">6614</text>
</g>
<!-- 8228&#45;&gt;6614 -->
<g id="edge61" class="edge">
<title>8228&#45;&gt;6614</title>
<path fill="none" stroke="#ff0000" stroke-width=".2363" stroke-dasharray="1,5" d="M218.8945,-607.8201C208.3368,-593.7705 194.736,-575.6711 183.2005,-560.3202"/>
<polygon fill="#ff0000" stroke="#ff0000" stroke-width=".2363" points="185.8424,-558.0097 177.0369,-552.1179 180.2463,-562.215 185.8424,-558.0097"/>
</g>
<!-- 8873 -->
<g id="node23" class="node">
<title>8873</title>
<ellipse fill="#ffffff" stroke="#000000" cx="501.367" cy="-528.6036" rx="28.9828" ry="28.9828"/>
<text text-anchor="middle" x="501.367" y="-526.4036" font-family="Times,serif" font-size="9.00" fill="#000000">8873</text>
</g>
<!-- 8873&#45;&gt;backward -->
<g id="edge20" class="edge">
<title>8873&#45;&gt;backward</title>
<path fill="none" stroke="#ff0000" stroke-width=".1543" d="M487.8588,-502.812C482.4021,-492.3933 475.9204,-480.0176 469.6492,-468.0438"/>
<polygon fill="#ff0000" stroke="#ff0000" stroke-width=".1543" points="472.6552,-466.2395 464.9151,-459.0048 466.4542,-469.4873 472.6552,-466.2395"/>
</g>
<!-- 6279 -->
<g id="node24" class="node">
<title>6279</title>
<ellipse fill="#ffffff" stroke="#000000" cx="653.367" cy="-528.6036" rx="28.9828" ry="28.9828"/>
<text text-anchor="middle" x="653.367" y="-526.4036" font-family="Times,serif" font-size="9.00" fill="#000000">6279</text>
</g>
<!-- 6279&#45;&gt;backward -->
<g id="edge36" class="edge">
<title>6279&#45;&gt;backward</title>
<path fill="none" stroke="#00ff00" stroke-width=".2345" stroke-dasharray="1,5" d="M631.3313,-509.7483C626.3013,-506.038 620.824,-502.4278 615.367,-499.6123 567.3946,-474.8611 547.0738,-488.8717 499.367,-463.6123 494.7637,-461.175 490.1674,-458.3327 485.7036,-455.2881"/>
<polygon fill="#00ff00" stroke="#00ff00" stroke-width=".2345" points="487.4735,-452.2492 477.3158,-449.237 483.378,-457.9261 487.4735,-452.2492"/>
</g>
<!-- 9279 -->
<g id="node28" class="node">
<title>9279</title>
<ellipse fill="#ffffff" stroke="#000000" cx="538.367" cy="-216.9569" rx="28.9828" ry="28.9828"/>
<text text-anchor="middle" x="538.367" y="-214.7569" font-family="Times,serif" font-size="9.00" fill="#000000">9279</text>
</g>
<!-- 9279&#45;&gt;9222 -->
<g id="edge18" class="edge">
<title>9279&#45;&gt;9222</title>
<path fill="none" stroke="#00ff00" stroke-width=".5872" d="M538.367,-187.7353C538.367,-179.6906 538.367,-170.8309 538.367,-162.3156"/>
<polygon fill="#00ff00" stroke="#00ff00" stroke-width=".5872" points="541.8671,-162.1776 538.367,-152.1776 534.8671,-162.1777 541.8671,-162.1776"/>
</g>
<!-- 2870&#45;&gt;backward -->
<g id="edge14" class="edge">
<title>2870&#45;&gt;backward</title>
<path fill="none" stroke="#00ff00" stroke-width=".5985" d="M460.765,-602.1344C457.8043,-569.2082 452.9042,-514.7144 449.2301,-473.8546"/>
<polygon fill="#00ff00" stroke="#00ff00" stroke-width=".5985" points="452.706,-473.4281 448.3244,-463.7818 445.7341,-474.0551 452.706,-473.4281"/>
</g>
<!-- 2870&#45;&gt;2903 -->
<g id="edge50" class="edge">
<title>2870&#45;&gt;2903</title>
<path fill="none" stroke="#00ff00" stroke-width=".6498" d="M435.5882,-622.1371C398.6635,-609.7945 331.8519,-585.8243 278.367,-557.595 274.7963,-555.7104 271.1571,-553.5965 267.583,-551.3914"/>
<polygon fill="#00ff00" stroke="#00ff00" stroke-width=".6498" points="269.2104,-548.2763 258.9088,-545.8009 265.4183,-554.1602 269.2104,-548.2763"/>
</g>
<!-- 2870&#45;&gt;8873 -->
<g id="edge8" class="edge">
<title>2870&#45;&gt;8873</title>
<path fill="none" stroke="#ff0000" stroke-width=".3287" d="M473.4505,-603.8811C477.8309,-592.0694 483.029,-578.0527 487.7452,-565.3351"/>
<polygon fill="#ff0000" stroke="#ff0000" stroke-width=".3287" points="491.0408,-566.5143 491.2363,-555.9212 484.4776,-564.0803 491.0408,-566.5143"/>
</g>
<!-- 2870&#45;&gt;7150 -->
<g id="edge43" class="edge">
<title>2870&#45;&gt;7150</title>
<path fill="none" stroke="#ff0000" stroke-width=".2711" stroke-dasharray="1,5" d="M435.257,-623.0095C402.3724,-612.4275 347.7996,-591.1559 311.367,-557.595 294.1372,-541.7234 218.2571,-394.7947 204.367,-375.931 194.9697,-363.1689 183.4704,-350.0499 173.1279,-338.9702"/>
<polygon fill="#ff0000" stroke="#ff0000" stroke-width=".2711" points="175.6126,-336.5039 166.1925,-331.6549 170.5327,-341.32 175.6126,-336.5039"/>
</g>
<!-- 2118 -->
<g id="node30" class="node">
<title>2118</title>
<ellipse fill="#ffffff" stroke="#000000" cx="640.367" cy="-1015.488" rx="28.9828" ry="28.9828"/>
<text text-anchor="middle" x="640.367" y="-1013.288" font-family="Times,serif" font-size="9.00" fill="#000000">2118</text>
</g>
<!-- 2118&#45;&gt;1153 -->
<g id="edge22" class="edge">
<title>2118&#45;&gt;1153</title>
<path fill="none" stroke="#ff0000" stroke-width=".3298" d="M640.367,-986.2664C640.367,-978.2216 640.367,-969.362 640.367,-960.8467"/>
<polygon fill="#ff0000" stroke="#ff0000" stroke-width=".3298" points="643.8671,-960.7087 640.367,-950.7087 636.8671,-960.7087 643.8671,-960.7087"/>
</g>
<!-- 8545&#45;&gt;3661 -->
<g id="edge53" class="edge">
<title>8545&#45;&gt;3661</title>
<path fill="none" stroke="#ff0000" stroke-width=".1509" d="M984.2914,-705.5399C987.4882,-694.2443 991.226,-681.0371 994.6589,-668.9075"/>
<polygon fill="#ff0000" stroke="#ff0000" stroke-width=".1509" points="998.0967,-669.6129 997.4522,-659.0377 991.3612,-667.7066 998.0967,-669.6129"/>
</g>
<!-- 7240&#45;&gt;7150 -->
<g id="edge33" class="edge">
<title>7240&#45;&gt;7150</title>
<path fill="none" stroke="#00ff00" stroke-width=".647" stroke-dasharray="1,5" d="M65.1238,-398.2699C80.4637,-381.5752 101.8872,-358.2596 118.7397,-339.9187"/>
<polygon fill="#00ff00" stroke="#00ff00" stroke-width=".647" points="121.4625,-342.1283 125.6512,-332.3967 116.308,-337.3921 121.4625,-342.1283"/>
</g>
<!-- 8301 -->
<g id="node35" class="node">
<title>8301</title>
<ellipse fill="#ffffff" stroke="#000000" cx="349.367" cy="-528.6036" rx="28.9828" ry="28.9828"/>
<text text-anchor="middle" x="349.367" y="-526.4036" font-family="Times,serif" font-size="9.00" fill="#000000">8301</text>
</g>
<!-- 8301&#45;&gt;backward -->
<g id="edge59" class="edge">
<title>8301&#45;&gt;backward</title>
<path fill="none" stroke="#00ff00" stroke-width=".1925" d="M368.5917,-506.5799C380.0417,-493.4627 394.9381,-476.3974 408.4898,-460.8726"/>
<polygon fill="#00ff00" stroke="#00ff00" stroke-width=".1925" points="411.4891,-462.7589 415.4285,-452.9236 406.2156,-458.1556 411.4891,-462.7589"/>
</g>
<!-- 3028 -->
<g id="node36" class="node">
<title>3028</title>
<ellipse fill="#ffffff" stroke="#000000" cx="209.367" cy="-921.5052" rx="28.9828" ry="28.9828"/>
<text text-anchor="middle" x="209.367" y="-919.3052" font-family="Times,serif" font-size="9.00" fill="#000000">3028</text>
</g>
<!-- 3028&#45;&gt;forward -->
<g id="edge49" class="edge">
<title>3028&#45;&gt;forward</title>
<path fill="none" stroke="#00ff00" stroke-width=".2487" d="M197.8574,-894.765C192.9328,-883.0816 187.213,-869.1807 182.367,-856.5139 158.6896,-794.6248 133.7944,-722.1716 118.4247,-676.4488"/>
<polygon fill="#00ff00" stroke="#00ff00" stroke-width=".2487" points="121.6972,-675.199 115.1995,-666.8306 115.0603,-677.4245 121.6972,-675.199"/>
</g>
<!-- 7595 -->
<g id="node49" class="node">
<title>7595</title>
<ellipse fill="#ffffff" stroke="#000000" cx="296.367" cy="-827.5225" rx="28.9828" ry="28.9828"/>
<text text-anchor="middle" x="296.367" y="-825.3225" font-family="Times,serif" font-size="9.00" fill="#000000">7595</text>
</g>
<!-- 3028&#45;&gt;7595 -->
<g id="edge39" class="edge">
<title>3028&#45;&gt;7595</title>
<path fill="none" stroke="#00ff00" stroke-width=".2392" d="M229.1086,-900.1791C241.0374,-887.2929 256.4046,-870.6923 269.4382,-856.6126"/>
<polygon fill="#00ff00" stroke="#00ff00" stroke-width=".2392" points="272.1775,-858.8056 276.4023,-849.0895 267.0406,-854.0504 272.1775,-858.8056"/>
</g>
<!-- 6614&#45;&gt;backward -->
<g id="edge28" class="edge">
<title>6614&#45;&gt;backward</title>
<path fill="none" stroke="#00ff00" stroke-width=".1988" stroke-dasharray="1,5" d="M181.8365,-509.4958C186.7519,-505.8881 192.0736,-502.3828 197.367,-499.6123 260.4412,-466.5999 339.7237,-443.9282 391.1946,-431.4056"/>
<polygon fill="#00ff00" stroke="#00ff00" stroke-width=".1988" points="392.1928,-434.7657 401.1049,-429.0363 390.5651,-427.9575 392.1928,-434.7657"/>
</g>
<!-- 8023&#45;&gt;7240 -->
<g id="edge4" class="edge">
<title>8023&#45;&gt;7240</title>
<path fill="none" stroke="#ff0000" stroke-width=".1786" d="M45.367,-499.4387C45.367,-487.1175 45.367,-472.577 45.367,-459.3136"/>
<polygon fill="#ff0000" stroke="#ff0000" stroke-width=".1786" points="48.8671,-459.0171 45.367,-449.0171 41.8671,-459.0172 48.8671,-459.0171"/>
</g>
<!-- 7897 -->
<g id="node39" class="node">
<title>7897</title>
<ellipse fill="#ffffff" stroke="#000000" cx="1163.367" cy="-921.5052" rx="28.9828" ry="28.9828"/>
<text text-anchor="middle" x="1163.367" y="-919.3052" font-family="Times,serif" font-size="9.00" fill="#000000">7897</text>
</g>
<!-- 7897&#45;&gt;8557 -->
<g id="edge41" class="edge">
<title>7897&#45;&gt;8557</title>
<path fill="none" stroke="#ff0000" stroke-width=".1313" d="M1171.9894,-893.5618C1174.7404,-884.6465 1177.8311,-874.6302 1180.758,-865.1448"/>
<polygon fill="#ff0000" stroke="#ff0000" stroke-width=".1313" points="1184.1235,-866.108 1183.7277,-855.5206 1177.4347,-864.044 1184.1235,-866.108"/>
</g>
<!-- 7897&#45;&gt;7578 -->
<g id="edge58" class="edge">
<title>7897&#45;&gt;7578</title>
<path fill="none" stroke="#00ff00" stroke-width=".1689" stroke-dasharray="1,5" d="M1158.5254,-892.7993C1156.851,-881.5234 1155.1892,-868.446 1154.367,-856.5139 1152.5953,-830.8047 1152.0177,-824.1939 1154.367,-798.5311 1155.1639,-789.8258 1156.5494,-780.5457 1158.1024,-771.804"/>
<polygon fill="#00ff00" stroke="#00ff00" stroke-width=".1689" points="1161.5646,-772.3313 1159.9774,-761.856 1154.6857,-771.0347 1161.5646,-772.3313"/>
</g>
<!-- 3418&#45;&gt;1328 -->
<g id="edge27" class="edge">
<title>3418&#45;&gt;1328</title>
<path fill="none" stroke="#ff0000" stroke-width="1.7018" d="M1111.6739,-619.4793C1092.8156,-611.5526 1066.824,-601.1535 1043.367,-593.595 966.9368,-568.9673 875.3074,-547.72 824.7008,-536.6854"/>
<polygon fill="#ff0000" stroke="#ff0000" stroke-width="1.7018" points="825.358,-533.2467 814.8439,-534.5525 823.8774,-540.0884 825.358,-533.2467"/>
</g>
<!-- 7393&#45;&gt;9222 -->
<g id="edge60" class="edge">
<title>7393&#45;&gt;9222</title>
<path fill="none" stroke="#00ff00" stroke-width=".6844" stroke-dasharray="1,5" d="M555.3286,-287.9879C563.4656,-276.1434 572.1866,-261.039 576.367,-245.9483 583.2466,-221.1134 583.1051,-212.8391 576.367,-187.9655 573.248,-176.4517 567.5232,-164.8872 561.447,-154.7715"/>
<polygon fill="#00ff00" stroke="#00ff00" stroke-width=".6844" points="564.3829,-152.8657 556.0735,-146.2926 558.4702,-156.6128 564.3829,-152.8657"/>
</g>
<!-- 7393&#45;&gt;6581 -->
<g id="edge1" class="edge">
<title>7393&#45;&gt;6581</title>
<path fill="none" stroke="#00ff00" stroke-width=".4372" d="M520.49,-287.091C513.009,-275.271 504.8917,-260.4496 500.367,-245.9483 481.6519,-185.9679 479.2278,-112.4383 479.8308,-68.224"/>
<polygon fill="#00ff00" stroke="#00ff00" stroke-width=".4372" points="483.331,-68.2441 480.0273,-58.1775 476.3323,-68.1071 483.331,-68.2441"/>
</g>
<!-- 7393&#45;&gt;9279 -->
<g id="edge47" class="edge">
<title>7393&#45;&gt;9279</title>
<path fill="none" stroke="#00ff00" stroke-width=".1264" d="M537.6779,-281.7181C537.7635,-273.6733 537.8578,-264.8137 537.9484,-256.2984"/>
<polygon fill="#00ff00" stroke="#00ff00" stroke-width=".1264" points="541.4496,-256.1971 538.0563,-246.1604 534.45,-256.1225 541.4496,-256.1971"/>
</g>
<!-- 8419 -->
<g id="node42" class="node">
<title>8419</title>
<ellipse fill="#ffffff" stroke="#000000" cx="748.367" cy="-631.0717" rx="28.9828" ry="28.9828"/>
<text text-anchor="middle" x="748.367" y="-628.8717" font-family="Times,serif" font-size="9.00" fill="#000000">8419</text>
</g>
<!-- 8419&#45;&gt;1328 -->
<g id="edge26" class="edge">
<title>8419&#45;&gt;1328</title>
<path fill="none" stroke="#00ff00" stroke-width=".1676" d="M758.4505,-603.8811C762.8309,-592.0694 768.029,-578.0527 772.7452,-565.3351"/>
<polygon fill="#00ff00" stroke="#00ff00" stroke-width=".1676" points="776.0408,-566.5143 776.2363,-555.9212 769.4776,-564.0803 776.0408,-566.5143"/>
</g>
<!-- 4453&#45;&gt;forward -->
<g id="edge10" class="edge">
<title>4453&#45;&gt;forward</title>
<path fill="none" stroke="#00ff00" stroke-width=".4144" d="M291.4921,-720.1194C281.2797,-715.0093 269.3761,-709.2817 258.367,-704.5483 216.1217,-686.3852 202.4788,-689.1491 161.367,-668.5483 155.2459,-665.4811 148.9693,-661.9173 142.9114,-658.2311"/>
<polygon fill="#00ff00" stroke="#00ff00" stroke-width=".4144" points="144.5664,-655.1376 134.2357,-652.7864 140.8454,-661.0667 144.5664,-655.1376"/>
</g>
<!-- 4453&#45;&gt;backward -->
<g id="edge62" class="edge">
<title>4453&#45;&gt;backward</title>
<path fill="none" stroke="#00ff00" stroke-width=".1784" stroke-dasharray="1,5" d="M329.9942,-707.1408C335.4966,-695.3975 341.9197,-681.3567 347.367,-668.5483 376.257,-600.6183 406.7369,-520.9419 425.651,-470.4149"/>
<polygon fill="#00ff00" stroke="#00ff00" stroke-width=".1784" points="428.9398,-471.6124 429.1603,-461.0198 422.3823,-469.1629 428.9398,-471.6124"/>
</g>
<!-- 4453&#45;&gt;2903 -->
<g id="edge29" class="edge">
<title>4453&#45;&gt;2903</title>
<path fill="none" stroke="#ff0000" stroke-width=".1306" d="M310.8132,-705.2003C303.6601,-676.403 290.9749,-630.8556 274.367,-593.595 269.5192,-582.7188 263.2255,-571.4109 257.1139,-561.3356"/>
<polygon fill="#ff0000" stroke="#ff0000" stroke-width=".1306" points="260.0841,-559.4841 251.8309,-552.8407 254.1398,-563.1808 260.0841,-559.4841"/>
</g>
<!-- 4453&#45;&gt;8228 -->
<g id="edge34" class="edge">
<title>4453&#45;&gt;8228</title>
<path fill="none" stroke="#ff0000" stroke-width=".5963" d="M299.189,-710.5439C287.8291,-696.1732 273.0618,-677.492 260.6992,-661.8528"/>
<polygon fill="#ff0000" stroke="#ff0000" stroke-width=".5963" points="263.4314,-659.6652 254.4843,-653.9908 257.94,-664.0062 263.4314,-659.6652"/>
</g>
<!-- 4453&#45;&gt;8301 -->
<g id="edge56" class="edge">
<title>4453&#45;&gt;8301</title>
<path fill="none" stroke="#00ff00" stroke-width=".1277" d="M321.8839,-704.612C327.4943,-668.6817 337.086,-607.254 343.3248,-567.2991"/>
<polygon fill="#00ff00" stroke="#00ff00" stroke-width=".1277" points="346.7883,-567.8044 344.873,-557.3842 339.8721,-566.7244 346.7883,-567.8044"/>
</g>
<!-- 4453&#45;&gt;6614 -->
<g id="edge44" class="edge">
<title>4453&#45;&gt;6614</title>
<path fill="none" stroke="#00ff00" stroke-width=".1905" d="M291.3726,-720.701C258.3344,-704.1785 204.7916,-676.6351 198.367,-668.5483 175.4208,-639.6655 165.964,-598.1073 162.0728,-567.7842"/>
<polygon fill="#00ff00" stroke="#00ff00" stroke-width=".1905" points="165.5188,-567.1089 160.9156,-557.5663 158.5633,-567.8967 165.5188,-567.1089"/>
</g>
<!-- 6253 -->
<g id="node44" class="node">
<title>6253</title>
<ellipse fill="#ffffff" stroke="#000000" cx="419.367" cy="-733.5397" rx="28.9828" ry="28.9828"/>
<text text-anchor="middle" x="419.367" y="-731.3397" font-family="Times,serif" font-size="9.00" fill="#000000">6253</text>
</g>
<!-- 6253&#45;&gt;2870 -->
<g id="edge32" class="edge">
<title>6253&#45;&gt;2870</title>
<path fill="none" stroke="#00ff00" stroke-width=".1178" stroke-dasharray="1,5" d="M430.8126,-706.8849C436.017,-694.7649 442.2541,-680.2398 447.87,-667.1614"/>
<polygon fill="#00ff00" stroke="#00ff00" stroke-width=".1178" points="451.0962,-668.5187 451.8258,-657.949 444.6641,-665.7567 451.0962,-668.5187"/>
</g>
<!-- 6005 -->
<g id="node47" class="node">
<title>6005</title>
<ellipse fill="#ffffff" stroke="#000000" cx="792.367" cy="-1015.488" rx="28.9828" ry="28.9828"/>
<text text-anchor="middle" x="792.367" y="-1013.288" font-family="Times,serif" font-size="9.00" fill="#000000">6005</text>
</g>
<!-- 3194 -->
<g id="node48" class="node">
<title>3194</title>
<ellipse fill="#ffffff" stroke="#000000" cx="868.367" cy="-1015.488" rx="28.9828" ry="28.9828"/>
<text text-anchor="middle" x="868.367" y="-1013.288" font-family="Times,serif" font-size="9.00" fill="#000000">3194</text>
</g>
<!-- 7595&#45;&gt;4453 -->
<g id="edge54" class="edge">
<title>7595&#45;&gt;4453</title>
<path fill="none" stroke="#00ff00" stroke-width=".2469" d="M302.7247,-799.0695C304.6368,-790.5122 306.7671,-780.9781 308.7977,-771.8906"/>
<polygon fill="#00ff00" stroke="#00ff00" stroke-width=".2469" points="312.2659,-772.4186 311.0309,-761.896 305.4344,-770.8921 312.2659,-772.4186"/>
</g>
</g>
</svg>
