<?xml version="1.0" encoding="UTF-8" standalone="no"?>
<!DOCTYPE svg PUBLIC "-//W3C//DTD SVG 1.1//EN"
 "http://www.w3.org/Graphics/SVG/1.1/DTD/svg11.dtd">
<!-- Generated by graphviz version 2.40.1 (20161225.0304)
 -->
<!-- Title: %3 Pages: 1 -->
<svg width="1136pt" height="1334pt"
 viewBox="0.00 0.00 1135.99 1334.43" xmlns="http://www.w3.org/2000/svg" xmlns:xlink="http://www.w3.org/1999/xlink">
<g id="graph0" class="graph" transform="scale(1 1) rotate(0) translate(4 1330.4276)">
<title>%3</title>
<polygon fill="#ffffff" stroke="transparent" points="-4,4 -4,-1330.4276 1131.9914,-1330.4276 1131.9914,4 -4,4"/>
<!-- center_dist -->
<g id="node1" class="node">
<title>center_dist</title>
<polygon fill="#d3d3d3" stroke="#000000" points="68,-1306.4363 0,-1306.4363 0,-1288.4363 68,-1288.4363 68,-1306.4363"/>
<text text-anchor="middle" x="34" y="-1295.2363" font-family="Times,serif" font-size="9.00" fill="#000000">center_dist</text>
</g>
<!-- center_dir -->
<g id="node2" class="node">
<title>center_dir</title>
<polygon fill="#d3d3d3" stroke="#000000" points="151.5,-1306.4363 86.5,-1306.4363 86.5,-1288.4363 151.5,-1288.4363 151.5,-1306.4363"/>
<text text-anchor="middle" x="119" y="-1295.2363" font-family="Times,serif" font-size="9.00" fill="#000000">center_dir</text>
</g>
<!-- other_dist -->
<g id="node3" class="node">
<title>other_dist</title>
<polygon fill="#d3d3d3" stroke="#000000" points="807.5,-1118.4707 744.5,-1118.4707 744.5,-1100.4707 807.5,-1100.4707 807.5,-1118.4707"/>
<text text-anchor="middle" x="776" y="-1107.2707" font-family="Times,serif" font-size="9.00" fill="#000000">other_dist</text>
</g>
<!-- 9506 -->
<g id="node21" class="node">
<title>9506</title>
<ellipse fill="#ffffff" stroke="#000000" cx="928" cy="-1015.488" rx="28.9828" ry="28.9828"/>
<text text-anchor="middle" x="928" y="-1013.288" font-family="Times,serif" font-size="9.00" fill="#000000">9506</text>
</g>
<!-- other_dist&#45;&gt;9506 -->
<g id="edge49" class="edge">
<title>other_dist&#45;&gt;9506</title>
<path fill="none" stroke="#00ff00" stroke-width=".3" d="M793.8171,-1100.2681C816.6305,-1088.2707 857.1395,-1066.241 890,-1044.4794 892.1793,-1043.0361 894.3976,-1041.5091 896.6124,-1039.9408"/>
<polygon fill="#00ff00" stroke="#00ff00" stroke-width=".3" points="899.0381,-1042.5032 905.0468,-1033.777 894.9078,-1036.8515 899.0381,-1042.5032"/>
</g>
<!-- 1328 -->
<g id="node25" class="node">
<title>1328</title>
<ellipse fill="#ffffff" stroke="#000000" cx="738" cy="-28.9914" rx="28.9828" ry="28.9828"/>
<text text-anchor="middle" x="738" y="-26.7914" font-family="Times,serif" font-size="9.00" fill="#000000">1328</text>
</g>
<!-- other_dist&#45;&gt;1328 -->
<g id="edge54" class="edge">
<title>other_dist&#45;&gt;1328</title>
<path fill="none" stroke="#00ff00" stroke-width=".9396" stroke-dasharray="1,5" d="M772.8903,-1100.1888C763.8148,-1072.2449 738,-986.3176 738,-913.0199 738,-913.0199 738,-913.0199 738,-216.9569 738,-165.6519 738,-106.4697 738,-68.4361"/>
<polygon fill="#00ff00" stroke="#00ff00" stroke-width=".9396" points="741.5001,-68.2936 738,-58.2936 734.5001,-68.2936 741.5001,-68.2936"/>
</g>
<!-- 6859 -->
<g id="node35" class="node">
<title>6859</title>
<ellipse fill="#ffffff" stroke="#000000" cx="985" cy="-913.0199" rx="28.9828" ry="28.9828"/>
<text text-anchor="middle" x="985" y="-910.8199" font-family="Times,serif" font-size="9.00" fill="#000000">6859</text>
</g>
<!-- other_dist&#45;&gt;6859 -->
<g id="edge42" class="edge">
<title>other_dist&#45;&gt;6859</title>
<path fill="none" stroke="#ff0000" stroke-width=".414" stroke-dasharray="1,5" d="M807.7752,-1102.7983C856.3287,-1091.941 945.5253,-1069.1674 966,-1044.4794 987.1737,-1018.9485 990.5521,-980.6073 989.448,-951.9107"/>
<polygon fill="#ff0000" stroke="#ff0000" stroke-width=".414" points="992.9357,-951.5969 988.863,-941.8162 985.9475,-952.0019 992.9357,-951.5969"/>
</g>
<!-- 3661 -->
<g id="node36" class="node">
<title>3661</title>
<ellipse fill="#ffffff" stroke="#000000" cx="833" cy="-795.7027" rx="28.9828" ry="28.9828"/>
<text text-anchor="middle" x="833" y="-793.5027" font-family="Times,serif" font-size="9.00" fill="#000000">3661</text>
</g>
<!-- other_dist&#45;&gt;3661 -->
<g id="edge27" class="edge">
<title>other_dist&#45;&gt;3661</title>
<path fill="none" stroke="#ff0000" stroke-width=".3408" d="M775.5731,-1100.3472C774.333,-1068.6401 772.1501,-960.537 795,-875.5433 799.2097,-859.8847 806.4146,-843.5557 813.4264,-829.7751"/>
<polygon fill="#ff0000" stroke="#ff0000" stroke-width=".3408" points="816.652,-831.1611 818.2107,-820.6815 810.4571,-827.9018 816.652,-831.1611"/>
</g>
<!-- 4453 -->
<g id="node45" class="node">
<title>4453</title>
<ellipse fill="#ffffff" stroke="#000000" cx="378" cy="-1015.488" rx="28.9828" ry="28.9828"/>
<text text-anchor="middle" x="378" y="-1013.288" font-family="Times,serif" font-size="9.00" fill="#000000">4453</text>
</g>
<!-- other_dist&#45;&gt;4453 -->
<g id="edge2" class="edge">
<title>other_dist&#45;&gt;4453</title>
<path fill="none" stroke="#00ff00" stroke-width=".2694" stroke-dasharray="1,5" d="M747.4248,-1100.4071C727.9597,-1094.3838 701.549,-1086.5046 678,-1080.4794 584.9247,-1056.6653 474.1636,-1034.1612 416.7838,-1022.9319"/>
<polygon fill="#00ff00" stroke="#00ff00" stroke-width=".2694" points="417.1921,-1019.4457 406.7073,-1020.9686 415.8533,-1026.3165 417.1921,-1019.4457"/>
</g>
<!-- other_dir -->
<g id="node4" class="node">
<title>other_dir</title>
<polygon fill="#d3d3d3" stroke="#000000" points="669.5,-1118.4707 610.5,-1118.4707 610.5,-1100.4707 669.5,-1100.4707 669.5,-1118.4707"/>
<text text-anchor="middle" x="640" y="-1107.2707" font-family="Times,serif" font-size="9.00" fill="#000000">other_dir</text>
</g>
<!-- 2870 -->
<g id="node31" class="node">
<title>2870</title>
<ellipse fill="#ffffff" stroke="#000000" cx="577" cy="-1015.488" rx="28.9828" ry="28.9828"/>
<text text-anchor="middle" x="577" y="-1013.288" font-family="Times,serif" font-size="9.00" fill="#000000">2870</text>
</g>
<!-- other_dir&#45;&gt;2870 -->
<g id="edge6" class="edge">
<title>other_dir&#45;&gt;2870</title>
<path fill="none" stroke="#ff0000" stroke-width="1.037" d="M633.9593,-1100.4593C625.93,-1088.4813 611.309,-1066.6699 598.8912,-1048.1451"/>
<polygon fill="#ff0000" stroke="#ff0000" stroke-width="1.037" points="601.6675,-1046.0008 593.1921,-1039.6432 595.853,-1049.8985 601.6675,-1046.0008"/>
</g>
<!-- forward -->
<g id="node5" class="node">
<title>forward</title>
<ellipse fill="#add8e6" stroke="#000000" cx="141" cy="-913.0199" rx="37.4533" ry="37.4533"/>
<text text-anchor="middle" x="141" y="-910.8199" font-family="Times,serif" font-size="9.00" fill="#000000">forward</text>
</g>
<!-- 7150 -->
<g id="node16" class="node">
<title>7150</title>
<ellipse fill="#ffffff" stroke="#000000" cx="234" cy="-592.8879" rx="28.9828" ry="28.9828"/>
<text text-anchor="middle" x="234" y="-590.6879" font-family="Times,serif" font-size="9.00" fill="#000000">7150</text>
</g>
<!-- forward&#45;&gt;7150 -->
<g id="edge24" class="edge">
<title>forward&#45;&gt;7150</title>
<path fill="none" stroke="#00ff00" stroke-width=".2521" stroke-dasharray="1,5" d="M129.3407,-877.0997C120.3475,-844.1773 110.9907,-794.2553 121,-751.862 131.7316,-706.4097 140.5457,-695.6596 168,-657.8793 178.3139,-643.6862 191.8241,-629.7864 203.9329,-618.5078"/>
<polygon fill="#00ff00" stroke="#00ff00" stroke-width=".2521" points="206.5973,-620.8157 211.6401,-611.498 201.8873,-615.6372 206.5973,-620.8157"/>
</g>
<!-- 8023 -->
<g id="node26" class="node">
<title>8023</title>
<ellipse fill="#ffffff" stroke="#000000" cx="159" cy="-795.7027" rx="28.9828" ry="28.9828"/>
<text text-anchor="middle" x="159" y="-793.5027" font-family="Times,serif" font-size="9.00" fill="#000000">8023</text>
</g>
<!-- forward&#45;&gt;8023 -->
<g id="edge16" class="edge">
<title>forward&#45;&gt;8023</title>
<path fill="none" stroke="#ff0000" stroke-width=".6722" d="M146.6953,-875.9C148.7108,-862.7636 150.9831,-847.9536 153.0215,-834.6683"/>
<polygon fill="#ff0000" stroke="#ff0000" stroke-width=".6722" points="156.5396,-834.8169 154.5967,-824.4017 149.6206,-833.7552 156.5396,-834.8169"/>
</g>
<!-- 7240 -->
<g id="node34" class="node">
<title>7240</title>
<ellipse fill="#ffffff" stroke="#000000" cx="206" cy="-686.8707" rx="28.9828" ry="28.9828"/>
<text text-anchor="middle" x="206" y="-684.6707" font-family="Times,serif" font-size="9.00" fill="#000000">7240</text>
</g>
<!-- forward&#45;&gt;7240 -->
<g id="edge14" class="edge">
<title>forward&#45;&gt;7240</title>
<path fill="none" stroke="#00ff00" stroke-width=".1938" d="M167.7082,-886.1027C178.8434,-873.133 190.6436,-856.6872 197,-839.5433 210.642,-802.7494 211.5322,-757.554 209.8474,-725.921"/>
<polygon fill="#00ff00" stroke="#00ff00" stroke-width=".1938" points="213.3275,-725.4993 209.192,-715.745 206.342,-725.9493 213.3275,-725.4993"/>
</g>
<!-- backward -->
<g id="node6" class="node">
<title>backward</title>
<ellipse fill="#add8e6" stroke="#000000" cx="529" cy="-795.7027" rx="43.6818" ry="43.6818"/>
<text text-anchor="middle" x="529" y="-793.5027" font-family="Times,serif" font-size="9.00" fill="#000000">backward</text>
</g>
<!-- 6581 -->
<g id="node27" class="node">
<title>6581</title>
<ellipse fill="#ffffff" stroke="#000000" cx="600" cy="-310.9396" rx="28.9828" ry="28.9828"/>
<text text-anchor="middle" x="600" y="-308.7396" font-family="Times,serif" font-size="9.00" fill="#000000">6581</text>
</g>
<!-- backward&#45;&gt;6581 -->
<g id="edge56" class="edge">
<title>backward&#45;&gt;6581</title>
<path fill="none" stroke="#ff0000" stroke-width=".8168" d="M566.8346,-773.4786C587.0959,-759.5425 610.5811,-739.7067 624,-715.862 651.1229,-667.6661 643,-648.1916 643,-592.8879 643,-592.8879 643,-592.8879 643,-498.9052 643,-445.2816 626.1641,-385.1708 613.5617,-347.6865"/>
<polygon fill="#ff0000" stroke="#ff0000" stroke-width=".8168" points="616.8613,-346.5187 610.2996,-338.2004 610.2418,-348.7951 616.8613,-346.5187"/>
</g>
<!-- 7393 -->
<g id="node33" class="node">
<title>7393</title>
<ellipse fill="#ffffff" stroke="#000000" cx="538" cy="-592.8879" rx="28.9828" ry="28.9828"/>
<text text-anchor="middle" x="538" y="-590.6879" font-family="Times,serif" font-size="9.00" fill="#000000">7393</text>
</g>
<!-- backward&#45;&gt;7393 -->
<g id="edge53" class="edge">
<title>backward&#45;&gt;7393</title>
<path fill="none" stroke="#00ff00" stroke-width=".4547" stroke-dasharray="1,5" d="M530.9529,-751.6949C532.5318,-716.1142 534.7345,-666.4762 536.255,-632.2111"/>
<polygon fill="#00ff00" stroke="#00ff00" stroke-width=".4547" points="539.7567,-632.2486 536.7036,-622.1032 532.7636,-631.9382 539.7567,-632.2486"/>
</g>
<!-- 9338 -->
<g id="node42" class="node">
<title>9338</title>
<ellipse fill="#ffffff" stroke="#000000" cx="472" cy="-686.8707" rx="28.9828" ry="28.9828"/>
<text text-anchor="middle" x="472" y="-684.6707" font-family="Times,serif" font-size="9.00" fill="#000000">9338</text>
</g>
<!-- backward&#45;&gt;9338 -->
<g id="edge23" class="edge">
<title>backward&#45;&gt;9338</title>
<path fill="none" stroke="#ff0000" stroke-width=".5097" d="M508.5827,-756.7192C502.5931,-745.2831 496.0843,-732.8556 490.2398,-721.6966"/>
<polygon fill="#ff0000" stroke="#ff0000" stroke-width=".5097" points="493.2529,-719.9056 485.5127,-712.671 487.0519,-723.1534 493.2529,-719.9056"/>
</g>
<!-- left -->
<g id="node7" class="node">
<title>left</title>
<ellipse fill="#add8e6" stroke="#000000" cx="994" cy="-592.8879" rx="22.7556" ry="22.7556"/>
<text text-anchor="middle" x="994" y="-590.6879" font-family="Times,serif" font-size="9.00" fill="#000000">left</text>
</g>
<!-- 7578 -->
<g id="node19" class="node">
<title>7578</title>
<ellipse fill="#ffffff" stroke="#000000" cx="899" cy="-310.9396" rx="28.9828" ry="28.9828"/>
<text text-anchor="middle" x="899" y="-308.7396" font-family="Times,serif" font-size="9.00" fill="#000000">7578</text>
</g>
<!-- left&#45;&gt;7578 -->
<g id="edge17" class="edge">
<title>left&#45;&gt;7578</title>
<path fill="none" stroke="#00ff00" stroke-width=".1402" d="M973.9435,-581.9081C955.9047,-570.8433 930.3943,-551.9772 918,-527.8965 888.8639,-471.2883 889.8362,-395.2852 893.9147,-349.8918"/>
<polygon fill="#00ff00" stroke="#00ff00" stroke-width=".1402" points="897.405,-350.1621 894.9115,-339.8648 890.4393,-349.4695 897.405,-350.1621"/>
</g>
<!-- right -->
<g id="node8" class="node">
<title>right</title>
<ellipse fill="#add8e6" stroke="#000000" cx="853" cy="-1015.488" rx="28.0702" ry="28.0702"/>
<text text-anchor="middle" x="853" y="-1013.288" font-family="Times,serif" font-size="9.00" fill="#000000">right</text>
</g>
<!-- 9093 -->
<g id="node9" class="node">
<title>9093</title>
<ellipse fill="#ffffff" stroke="#000000" cx="833" cy="-913.0199" rx="28.9828" ry="28.9828"/>
<text text-anchor="middle" x="833" y="-910.8199" font-family="Times,serif" font-size="9.00" fill="#000000">9093</text>
</g>
<!-- right&#45;&gt;9093 -->
<g id="edge71" class="edge">
<title>right&#45;&gt;9093</title>
<path fill="none" stroke="#ff0000" stroke-width=".2514" d="M847.5349,-987.4881C845.388,-976.4888 842.8874,-963.6768 840.5716,-951.8124"/>
<polygon fill="#ff0000" stroke="#ff0000" stroke-width=".2514" points="843.9486,-950.8435 838.5977,-941.6993 837.0783,-952.1846 843.9486,-950.8435"/>
</g>
<!-- right&#45;&gt;6859 -->
<g id="edge46" class="edge">
<title>right&#45;&gt;6859</title>
<path fill="none" stroke="#ff0000" stroke-width=".1981" d="M875.0281,-997.6388C879.8901,-993.8659 885.064,-989.9757 890,-986.4966 914.4907,-969.2344 923.531,-969.1241 947,-950.4966 950.5245,-947.6992 954.0793,-944.6145 957.526,-941.4522"/>
<polygon fill="#ff0000" stroke="#ff0000" stroke-width=".1981" points="960.014,-943.9161 964.8451,-934.4868 955.1883,-938.8453 960.014,-943.9161"/>
</g>
<!-- 8545 -->
<g id="node43" class="node">
<title>8545</title>
<ellipse fill="#ffffff" stroke="#000000" cx="909" cy="-913.0199" rx="28.9828" ry="28.9828"/>
<text text-anchor="middle" x="909" y="-910.8199" font-family="Times,serif" font-size="9.00" fill="#000000">8545</text>
</g>
<!-- right&#45;&gt;8545 -->
<g id="edge4" class="edge">
<title>right&#45;&gt;8545</title>
<path fill="none" stroke="#ff0000" stroke-width=".4426" stroke-dasharray="1,5" d="M866.6991,-990.4215C873.7646,-977.4932 882.4908,-961.5261 890.1789,-947.4585"/>
<polygon fill="#ff0000" stroke="#ff0000" stroke-width=".4426" points="893.3288,-948.993 895.0533,-938.5395 887.1863,-945.636 893.3288,-948.993"/>
</g>
<!-- 9093&#45;&gt;3661 -->
<g id="edge72" class="edge">
<title>9093&#45;&gt;3661</title>
<path fill="none" stroke="#ff0000" stroke-width=".2744" d="M833,-884.0202C833,-869.2143 833,-850.9874 833,-834.9446"/>
<polygon fill="#ff0000" stroke="#ff0000" stroke-width=".2744" points="836.5001,-834.7754 833,-824.7754 829.5001,-834.7755 836.5001,-834.7754"/>
</g>
<!-- 9222 -->
<g id="node10" class="node">
<title>9222</title>
<ellipse fill="#ffffff" stroke="#000000" cx="543" cy="-404.9224" rx="28.9828" ry="28.9828"/>
<text text-anchor="middle" x="543" y="-402.7224" font-family="Times,serif" font-size="9.00" fill="#000000">9222</text>
</g>
<!-- 9222&#45;&gt;6581 -->
<g id="edge64" class="edge">
<title>9222&#45;&gt;6581</title>
<path fill="none" stroke="#00ff00" stroke-width=".1357" d="M558.275,-379.7367C564.8445,-368.9047 572.6188,-356.0864 579.6656,-344.4674"/>
<polygon fill="#00ff00" stroke="#00ff00" stroke-width=".1357" points="582.6874,-346.2343 584.8805,-335.8689 576.7021,-342.6043 582.6874,-346.2343"/>
</g>
<!-- 1153 -->
<g id="node11" class="node">
<title>1153</title>
<ellipse fill="#ffffff" stroke="#000000" cx="602" cy="-1203.4535" rx="28.9828" ry="28.9828"/>
<text text-anchor="middle" x="602" y="-1201.2535" font-family="Times,serif" font-size="9.00" fill="#000000">1153</text>
</g>
<!-- 1153&#45;&gt;backward -->
<g id="edge40" class="edge">
<title>1153&#45;&gt;backward</title>
<path fill="none" stroke="#ff0000" stroke-width=".2008" stroke-dasharray="1,5" d="M627.6545,-1189.5887C645.4304,-1178.4008 667.6859,-1160.8534 678,-1138.4621 702.8746,-1084.461 729.2717,-982.8492 663,-875.5433 644.3819,-845.3973 609.792,-825.2105 580.4198,-812.6773"/>
<polygon fill="#ff0000" stroke="#ff0000" stroke-width=".2008" points="581.6749,-809.4093 571.0936,-808.8741 579.0316,-815.8911 581.6749,-809.4093"/>
</g>
<!-- 1153&#45;&gt;left -->
<g id="edge33" class="edge">
<title>1153&#45;&gt;left</title>
<path fill="none" stroke="#ff0000" stroke-width=".2175" stroke-dasharray="1,5" d="M630.5306,-1197.7618C728.0323,-1177.5054 1042,-1105.3045 1042,-1015.488 1042,-1015.488 1042,-1015.488 1042,-795.7027 1042,-733.2913 1020.2096,-662.9106 1005.9922,-623.6323"/>
<polygon fill="#ff0000" stroke="#ff0000" stroke-width=".2175" points="1009.2215,-622.2735 1002.4709,-614.1077 1002.6558,-624.7009 1009.2215,-622.2735"/>
</g>
<!-- 8706 -->
<g id="node13" class="node">
<title>8706</title>
<ellipse fill="#ffffff" stroke="#000000" cx="361" cy="-1109.4707" rx="28.9828" ry="28.9828"/>
<text text-anchor="middle" x="361" y="-1107.2707" font-family="Times,serif" font-size="9.00" fill="#000000">8706</text>
</g>
<!-- 1153&#45;&gt;8706 -->
<g id="edge18" class="edge">
<title>1153&#45;&gt;8706</title>
<path fill="none" stroke="#ff0000" stroke-width=".3089" d="M573.5531,-1197.59C533.1542,-1188.5557 457.5659,-1169.0106 399,-1138.4621 396.4479,-1137.1309 393.8898,-1135.6282 391.3741,-1134.0249"/>
<polygon fill="#ff0000" stroke="#ff0000" stroke-width=".3089" points="393.2745,-1131.0839 383.0548,-1128.2893 389.3011,-1136.847 393.2745,-1131.0839"/>
</g>
<!-- 6163 -->
<g id="node15" class="node">
<title>6163</title>
<ellipse fill="#ffffff" stroke="#000000" cx="302" cy="-1015.488" rx="28.9828" ry="28.9828"/>
<text text-anchor="middle" x="302" y="-1013.288" font-family="Times,serif" font-size="9.00" fill="#000000">6163</text>
</g>
<!-- 1153&#45;&gt;6163 -->
<g id="edge48" class="edge">
<title>1153&#45;&gt;6163</title>
<path fill="none" stroke="#ff0000" stroke-width=".5003" d="M572.6846,-1200.6812C508.2076,-1193.968 357.1017,-1174.664 323,-1138.4621 302.2197,-1116.4021 297.882,-1081.7183 298.2205,-1054.8012"/>
<polygon fill="#ff0000" stroke="#ff0000" stroke-width=".5003" points="301.7275,-1054.6551 298.575,-1044.5402 294.7317,-1054.4134 301.7275,-1054.6551"/>
</g>
<!-- 6582 -->
<g id="node28" class="node">
<title>6582</title>
<ellipse fill="#ffffff" stroke="#000000" cx="1099" cy="-1109.4707" rx="28.9828" ry="28.9828"/>
<text text-anchor="middle" x="1099" y="-1107.2707" font-family="Times,serif" font-size="9.00" fill="#000000">6582</text>
</g>
<!-- 1153&#45;&gt;6582 -->
<g id="edge37" class="edge">
<title>1153&#45;&gt;6582</title>
<path fill="none" stroke="#00ff00" stroke-width=".1084" stroke-dasharray="1,5" d="M630.953,-1201.0156C718.1897,-1193.4036 977.3341,-1168.7657 1056,-1138.4621 1059.7676,-1137.0108 1063.5348,-1135.1783 1067.186,-1133.1427"/>
<polygon fill="#00ff00" stroke="#00ff00" stroke-width=".1084" points="1069.2608,-1135.9762 1075.9573,-1127.766 1065.6024,-1130.0082 1069.2608,-1135.9762"/>
</g>
<!-- 1153&#45;&gt;4453 -->
<g id="edge60" class="edge">
<title>1153&#45;&gt;4453</title>
<path fill="none" stroke="#ff0000" stroke-width=".1291" stroke-dasharray="1,5" d="M578.9792,-1185.2054C563.5101,-1172.6015 542.935,-1155.1627 526,-1138.4621 501.5634,-1114.3638 500.8055,-1103.1057 475,-1080.4794 455.5263,-1063.4048 431.3294,-1047.1851 411.9744,-1035.2201"/>
<polygon fill="#ff0000" stroke="#ff0000" stroke-width=".1291" points="413.543,-1032.0775 403.1809,-1029.8689 409.9041,-1038.0574 413.543,-1032.0775"/>
</g>
<!-- 7435 -->
<g id="node12" class="node">
<title>7435</title>
<ellipse fill="#ffffff" stroke="#000000" cx="605" cy="-122.9741" rx="28.9828" ry="28.9828"/>
<text text-anchor="middle" x="605" y="-120.7741" font-family="Times,serif" font-size="9.00" fill="#000000">7435</text>
</g>
<!-- 7435&#45;&gt;1328 -->
<g id="edge35" class="edge">
<title>7435&#45;&gt;1328</title>
<path fill="none" stroke="#00ff00" stroke-width=".1304" d="M628.1688,-104.9967C633.0336,-101.307 638.1579,-97.4826 643,-93.9828 663.4129,-79.2286 686.7535,-63.2487 705.1909,-50.8265"/>
<polygon fill="#00ff00" stroke="#00ff00" stroke-width=".1304" points="707.2011,-53.6925 713.5507,-45.2112 703.2979,-47.8817 707.2011,-53.6925"/>
</g>
<!-- 4082 -->
<g id="node49" class="node">
<title>4082</title>
<ellipse fill="#ffffff" stroke="#000000" cx="529" cy="-28.9914" rx="28.9828" ry="28.9828"/>
<text text-anchor="middle" x="529" y="-26.7914" font-family="Times,serif" font-size="9.00" fill="#000000">4082</text>
</g>
<!-- 7435&#45;&gt;4082 -->
<g id="edge13" class="edge">
<title>7435&#45;&gt;4082</title>
<path fill="none" stroke="#00ff00" stroke-width=".8442" stroke-dasharray="1,5" d="M586.6025,-100.2235C576.7799,-88.0768 564.551,-72.9543 553.8907,-59.7716"/>
<polygon fill="#00ff00" stroke="#00ff00" stroke-width=".8442" points="556.5009,-57.4332 547.4915,-51.8582 551.0579,-61.8348 556.5009,-57.4332"/>
</g>
<!-- 8706&#45;&gt;6163 -->
<g id="edge20" class="edge">
<title>8706&#45;&gt;6163</title>
<path fill="none" stroke="#00ff00" stroke-width=".6618" d="M345.4984,-1084.7779C338.6423,-1073.8566 330.4729,-1060.8433 323.0751,-1049.0591"/>
<polygon fill="#00ff00" stroke="#00ff00" stroke-width=".6618" points="325.8841,-1046.9507 317.6029,-1040.3422 319.9555,-1050.6726 325.8841,-1046.9507"/>
</g>
<!-- 6253 -->
<g id="node14" class="node">
<title>6253</title>
<ellipse fill="#ffffff" stroke="#000000" cx="564" cy="-1109.4707" rx="28.9828" ry="28.9828"/>
<text text-anchor="middle" x="564" y="-1107.2707" font-family="Times,serif" font-size="9.00" fill="#000000">6253</text>
</g>
<!-- 6253&#45;&gt;2870 -->
<g id="edge34" class="edge">
<title>6253&#45;&gt;2870</title>
<path fill="none" stroke="#ff0000" stroke-width=".4271" stroke-dasharray="1,5" d="M568.0065,-1080.5059C569.1433,-1072.2877 570.4,-1063.2024 571.6045,-1054.4941"/>
<polygon fill="#ff0000" stroke="#ff0000" stroke-width=".4271" points="575.0811,-1054.9042 572.9843,-1044.5189 568.1471,-1053.945 575.0811,-1054.9042"/>
</g>
<!-- 6163&#45;&gt;forward -->
<g id="edge7" class="edge">
<title>6163&#45;&gt;forward</title>
<path fill="none" stroke="#00ff00" stroke-width=".1575" d="M276.2169,-1001.2243C253.6379,-988.5056 220.1336,-969.0775 192,-950.4966 187.7538,-947.6922 183.3749,-944.676 179.0502,-941.6163"/>
<polygon fill="#00ff00" stroke="#00ff00" stroke-width=".1575" points="181.0127,-938.7166 170.8495,-935.7232 176.9277,-944.4011 181.0127,-938.7166"/>
</g>
<!-- 6422 -->
<g id="node17" class="node">
<title>6422</title>
<ellipse fill="#ffffff" stroke="#000000" cx="678" cy="-1297.4363" rx="28.9828" ry="28.9828"/>
<text text-anchor="middle" x="678" y="-1295.2363" font-family="Times,serif" font-size="9.00" fill="#000000">6422</text>
</g>
<!-- 7897 -->
<g id="node18" class="node">
<title>7897</title>
<ellipse fill="#ffffff" stroke="#000000" cx="956" cy="-498.9052" rx="28.9828" ry="28.9828"/>
<text text-anchor="middle" x="956" y="-496.7052" font-family="Times,serif" font-size="9.00" fill="#000000">7897</text>
</g>
<!-- 7897&#45;&gt;7578 -->
<g id="edge66" class="edge">
<title>7897&#45;&gt;7578</title>
<path fill="none" stroke="#00ff00" stroke-width=".5785" stroke-dasharray="1,5" d="M947.4665,-470.7648C937.6159,-438.2811 921.3701,-384.7081 910.4329,-348.6413"/>
<polygon fill="#00ff00" stroke="#00ff00" stroke-width=".5785" points="913.75,-347.5189 907.4986,-338.965 907.0513,-349.5503 913.75,-347.5189"/>
</g>
<!-- 8557 -->
<g id="node29" class="node">
<title>8557</title>
<ellipse fill="#ffffff" stroke="#000000" cx="975" cy="-404.9224" rx="28.9828" ry="28.9828"/>
<text text-anchor="middle" x="975" y="-402.7224" font-family="Times,serif" font-size="9.00" fill="#000000">8557</text>
</g>
<!-- 7897&#45;&gt;8557 -->
<g id="edge47" class="edge">
<title>7897&#45;&gt;8557</title>
<path fill="none" stroke="#ff0000" stroke-width=".3729" d="M961.7522,-470.4522C963.4663,-461.9734 965.3743,-452.5357 967.1962,-443.5235"/>
<polygon fill="#ff0000" stroke="#ff0000" stroke-width=".3729" points="970.6508,-444.0983 969.2018,-433.603 963.7896,-442.7111 970.6508,-444.0983"/>
</g>
<!-- 3418 -->
<g id="node41" class="node">
<title>3418</title>
<ellipse fill="#ffffff" stroke="#000000" cx="852" cy="-216.9569" rx="28.9828" ry="28.9828"/>
<text text-anchor="middle" x="852" y="-214.7569" font-family="Times,serif" font-size="9.00" fill="#000000">3418</text>
</g>
<!-- 7578&#45;&gt;3418 -->
<g id="edge3" class="edge">
<title>7578&#45;&gt;3418</title>
<path fill="none" stroke="#00ff00" stroke-width=".6579" d="M886.0326,-285.0097C880.9889,-274.9242 875.1291,-263.2067 869.7079,-252.3662"/>
<polygon fill="#00ff00" stroke="#00ff00" stroke-width=".6579" points="872.6914,-250.507 865.0882,-243.1285 866.4307,-253.638 872.6914,-250.507"/>
</g>
<!-- 5661 -->
<g id="node20" class="node">
<title>5661</title>
<ellipse fill="#ffffff" stroke="#000000" cx="529" cy="-122.9741" rx="28.9828" ry="28.9828"/>
<text text-anchor="middle" x="529" y="-120.7741" font-family="Times,serif" font-size="9.00" fill="#000000">5661</text>
</g>
<!-- 5661&#45;&gt;4082 -->
<g id="edge12" class="edge">
<title>5661&#45;&gt;4082</title>
<path fill="none" stroke="#ff0000" stroke-width=".2529" d="M529,-93.7526C529,-85.7078 529,-76.8481 529,-68.3329"/>
<polygon fill="#ff0000" stroke="#ff0000" stroke-width=".2529" points="532.5001,-68.1948 529,-58.1949 525.5001,-68.1949 532.5001,-68.1948"/>
</g>
<!-- 9506&#45;&gt;6859 -->
<g id="edge43" class="edge">
<title>9506&#45;&gt;6859</title>
<path fill="none" stroke="#ff0000" stroke-width=".3462" d="M942.2365,-989.8953C949.3775,-977.0579 958.1283,-961.3268 965.8495,-947.4465"/>
<polygon fill="#ff0000" stroke="#ff0000" stroke-width=".3462" points="968.9448,-949.0819 970.7475,-938.6415 962.8276,-945.679 968.9448,-949.0819"/>
</g>
<!-- 9382 -->
<g id="node22" class="node">
<title>9382</title>
<ellipse fill="#ffffff" stroke="#000000" cx="795" cy="-122.9741" rx="28.9828" ry="28.9828"/>
<text text-anchor="middle" x="795" y="-120.7741" font-family="Times,serif" font-size="9.00" fill="#000000">9382</text>
</g>
<!-- 9382&#45;&gt;1328 -->
<g id="edge32" class="edge">
<title>9382&#45;&gt;1328</title>
<path fill="none" stroke="#00ff00" stroke-width=".2713" d="M779.725,-97.7885C773.1555,-86.9564 765.3812,-74.1381 758.3344,-62.5192"/>
<polygon fill="#00ff00" stroke="#00ff00" stroke-width=".2713" points="761.2979,-60.656 753.1195,-53.9207 755.3126,-64.286 761.2979,-60.656"/>
</g>
<!-- 8873 -->
<g id="node23" class="node">
<title>8873</title>
<ellipse fill="#ffffff" stroke="#000000" cx="605" cy="-913.0199" rx="28.9828" ry="28.9828"/>
<text text-anchor="middle" x="605" y="-910.8199" font-family="Times,serif" font-size="9.00" fill="#000000">8873</text>
</g>
<!-- 8873&#45;&gt;backward -->
<g id="edge21" class="edge">
<title>8873&#45;&gt;backward</title>
<path fill="none" stroke="#00ff00" stroke-width=".4229" d="M589.0679,-888.4264C580.2538,-874.8205 569.0155,-857.4726 558.6495,-841.471"/>
<polygon fill="#00ff00" stroke="#00ff00" stroke-width=".4229" points="561.3757,-839.242 553.0012,-832.7521 555.5008,-843.0479 561.3757,-839.242"/>
</g>
<!-- 6279 -->
<g id="node24" class="node">
<title>6279</title>
<ellipse fill="#ffffff" stroke="#000000" cx="453" cy="-913.0199" rx="28.9828" ry="28.9828"/>
<text text-anchor="middle" x="453" y="-910.8199" font-family="Times,serif" font-size="9.00" fill="#000000">6279</text>
</g>
<!-- 6279&#45;&gt;backward -->
<g id="edge38" class="edge">
<title>6279&#45;&gt;backward</title>
<path fill="none" stroke="#00ff00" stroke-width=".3709" stroke-dasharray="1,5" d="M468.9321,-888.4264C477.7462,-874.8205 488.9845,-857.4726 499.3505,-841.471"/>
<polygon fill="#00ff00" stroke="#00ff00" stroke-width=".3709" points="502.4992,-843.0479 504.9988,-832.7521 496.6243,-839.242 502.4992,-843.0479"/>
</g>
<!-- 8023&#45;&gt;7240 -->
<g id="edge5" class="edge">
<title>8023&#45;&gt;7240</title>
<path fill="none" stroke="#00ff00" stroke-width=".2802" d="M170.4975,-769.0794C176.472,-755.2449 183.8614,-738.1342 190.3491,-723.1115"/>
<polygon fill="#00ff00" stroke="#00ff00" stroke-width=".2802" points="193.7068,-724.1645 194.4583,-713.5963 187.2804,-721.3892 193.7068,-724.1645"/>
</g>
<!-- 6998 -->
<g id="node38" class="node">
<title>6998</title>
<ellipse fill="#ffffff" stroke="#000000" cx="600" cy="-216.9569" rx="28.9828" ry="28.9828"/>
<text text-anchor="middle" x="600" y="-214.7569" font-family="Times,serif" font-size="9.00" fill="#000000">6998</text>
</g>
<!-- 6581&#45;&gt;6998 -->
<g id="edge39" class="edge">
<title>6581&#45;&gt;6998</title>
<path fill="none" stroke="#00ff00" stroke-width=".4607" d="M600,-281.7181C600,-273.6733 600,-264.8137 600,-256.2984"/>
<polygon fill="#00ff00" stroke="#00ff00" stroke-width=".4607" points="603.5001,-256.1603 600,-246.1604 596.5001,-256.1604 603.5001,-256.1603"/>
</g>
<!-- 8557&#45;&gt;7578 -->
<g id="edge63" class="edge">
<title>8557&#45;&gt;7578</title>
<path fill="none" stroke="#00ff00" stroke-width=".3237" d="M956.6025,-382.1718C946.7799,-370.025 934.551,-354.9026 923.8907,-341.7199"/>
<polygon fill="#00ff00" stroke="#00ff00" stroke-width=".3237" points="926.5009,-339.3815 917.4915,-333.8065 921.0579,-343.783 926.5009,-339.3815"/>
</g>
<!-- 9279 -->
<g id="node30" class="node">
<title>9279</title>
<ellipse fill="#ffffff" stroke="#000000" cx="543" cy="-498.9052" rx="28.9828" ry="28.9828"/>
<text text-anchor="middle" x="543" y="-496.7052" font-family="Times,serif" font-size="9.00" fill="#000000">9279</text>
</g>
<!-- 9279&#45;&gt;9222 -->
<g id="edge19" class="edge">
<title>9279&#45;&gt;9222</title>
<path fill="none" stroke="#ff0000" stroke-width=".1418" d="M543,-469.6836C543,-461.6388 543,-452.7792 543,-444.2639"/>
<polygon fill="#ff0000" stroke="#ff0000" stroke-width=".1418" points="546.5001,-444.1259 543,-434.1259 539.5001,-444.1259 546.5001,-444.1259"/>
</g>
<!-- 2870&#45;&gt;backward -->
<g id="edge15" class="edge">
<title>2870&#45;&gt;backward</title>
<path fill="none" stroke="#ff0000" stroke-width=".716" d="M601.3421,-999.3326C616.4538,-987.7513 634.5528,-970.6699 643,-950.4966 655.8666,-919.7691 658.3806,-905.0927 643,-875.5433 629.3981,-849.411 602.894,-830.0604 578.8627,-816.9593"/>
<polygon fill="#ff0000" stroke="#ff0000" stroke-width=".716" points="580.2917,-813.7573 569.8056,-812.243 577.0586,-819.966 580.2917,-813.7573"/>
</g>
<!-- 2870&#45;&gt;7150 -->
<g id="edge51" class="edge">
<title>2870&#45;&gt;7150</title>
<path fill="none" stroke="#00ff00" stroke-width=".3459" d="M547.915,-1011.2215C491.1213,-1002.3211 368.4401,-980.116 339,-950.4966 291.5588,-902.7665 282.6238,-721.6072 261,-657.8793 257.7657,-648.3474 253.8169,-638.2198 249.9484,-628.8672"/>
<polygon fill="#00ff00" stroke="#00ff00" stroke-width=".3459" points="253.0911,-627.3119 245.9795,-619.4586 246.6415,-630.0327 253.0911,-627.3119"/>
</g>
<!-- 2870&#45;&gt;8873 -->
<g id="edge8" class="edge">
<title>2870&#45;&gt;8873</title>
<path fill="none" stroke="#00ff00" stroke-width=".1995" d="M584.6511,-987.4881C587.7124,-976.2851 591.2875,-963.2017 594.5796,-951.1542"/>
<polygon fill="#00ff00" stroke="#00ff00" stroke-width=".1995" points="598.0011,-951.9109 597.2608,-941.342 591.2486,-950.0657 598.0011,-951.9109"/>
</g>
<!-- 2903 -->
<g id="node39" class="node">
<title>2903</title>
<ellipse fill="#ffffff" stroke="#000000" cx="263" cy="-913.0199" rx="28.9828" ry="28.9828"/>
<text text-anchor="middle" x="263" y="-910.8199" font-family="Times,serif" font-size="9.00" fill="#000000">2903</text>
</g>
<!-- 2870&#45;&gt;2903 -->
<g id="edge58" class="edge">
<title>2870&#45;&gt;2903</title>
<path fill="none" stroke="#ff0000" stroke-width=".3603" d="M548.1271,-1010.3722C487.4039,-999.3227 348.5714,-972.4505 306,-950.4966 300.9393,-947.8868 295.9826,-944.5587 291.3385,-940.9666"/>
<polygon fill="#ff0000" stroke="#ff0000" stroke-width=".3603" points="293.2833,-938.0311 283.3619,-934.314 288.7998,-943.4068 293.2833,-938.0311"/>
</g>
<!-- 2118 -->
<g id="node32" class="node">
<title>2118</title>
<ellipse fill="#ffffff" stroke="#000000" cx="602" cy="-1297.4363" rx="28.9828" ry="28.9828"/>
<text text-anchor="middle" x="602" y="-1295.2363" font-family="Times,serif" font-size="9.00" fill="#000000">2118</text>
</g>
<!-- 2118&#45;&gt;1153 -->
<g id="edge25" class="edge">
<title>2118&#45;&gt;1153</title>
<path fill="none" stroke="#ff0000" stroke-width=".4338" d="M602,-1268.2147C602,-1260.1699 602,-1251.3103 602,-1242.795"/>
<polygon fill="#ff0000" stroke="#ff0000" stroke-width=".4338" points="605.5001,-1242.6569 602,-1232.657 598.5001,-1242.657 605.5001,-1242.6569"/>
</g>
<!-- 7393&#45;&gt;9222 -->
<g id="edge68" class="edge">
<title>7393&#45;&gt;9222</title>
<path fill="none" stroke="#00ff00" stroke-width=".3415" stroke-dasharray="1,5" d="M522.0777,-568.339C515.3906,-556.6019 508.3873,-542.0494 505,-527.8965 499.0017,-502.8342 498.2619,-494.7874 505,-469.9138 508.119,-458.4 513.8438,-446.8355 519.92,-436.7198"/>
<polygon fill="#00ff00" stroke="#00ff00" stroke-width=".3415" points="522.8967,-438.5611 525.2935,-428.2409 516.9841,-434.814 522.8967,-438.5611"/>
</g>
<!-- 7393&#45;&gt;6581 -->
<g id="edge1" class="edge">
<title>7393&#45;&gt;6581</title>
<path fill="none" stroke="#00ff00" stroke-width=".3471" d="M556.7598,-570.6233C565.7021,-558.7165 575.6036,-543.3519 581,-527.8965 601.7701,-468.4111 603.5508,-394.4389 602.2632,-350.0454"/>
<polygon fill="#00ff00" stroke="#00ff00" stroke-width=".3471" points="605.7578,-349.83 601.9026,-339.9615 598.7623,-350.0802 605.7578,-349.83"/>
</g>
<!-- 7393&#45;&gt;9279 -->
<g id="edge55" class="edge">
<title>7393&#45;&gt;9279</title>
<path fill="none" stroke="#ff0000" stroke-width=".2531" d="M539.541,-563.9231C539.9734,-555.7942 540.451,-546.817 540.9097,-538.1954"/>
<polygon fill="#ff0000" stroke="#ff0000" stroke-width=".2531" points="544.4192,-538.1079 541.4555,-527.9361 537.4291,-537.736 544.4192,-538.1079"/>
</g>
<!-- 7240&#45;&gt;7150 -->
<g id="edge26" class="edge">
<title>7240&#45;&gt;7150</title>
<path fill="none" stroke="#00ff00" stroke-width=".3573" stroke-dasharray="1,5" d="M214.3251,-658.9272C216.9812,-650.012 219.9653,-639.9957 222.7913,-630.5103"/>
<polygon fill="#00ff00" stroke="#00ff00" stroke-width=".3573" points="226.1576,-631.4691 225.6586,-620.886 219.449,-629.4704 226.1576,-631.4691"/>
</g>
<!-- 3028 -->
<g id="node37" class="node">
<title>3028</title>
<ellipse fill="#ffffff" stroke="#000000" cx="198" cy="-1297.4363" rx="28.9828" ry="28.9828"/>
<text text-anchor="middle" x="198" y="-1295.2363" font-family="Times,serif" font-size="9.00" fill="#000000">3028</text>
</g>
<!-- 3028&#45;&gt;forward -->
<g id="edge65" class="edge">
<title>3028&#45;&gt;forward</title>
<path fill="none" stroke="#00ff00" stroke-width=".1073" d="M180.6774,-1274.0076C172.8961,-1262.1665 164.473,-1247.205 160,-1232.4449 131.765,-1139.2745 133.2829,-1023.979 137.0502,-960.5099"/>
<polygon fill="#00ff00" stroke="#00ff00" stroke-width=".1073" points="140.551,-960.6073 137.6956,-950.4046 133.5653,-960.1611 140.551,-960.6073"/>
</g>
<!-- 9428 -->
<g id="node51" class="node">
<title>9428</title>
<ellipse fill="#ffffff" stroke="#000000" cx="198" cy="-1203.4535" rx="28.9828" ry="28.9828"/>
<text text-anchor="middle" x="198" y="-1201.2535" font-family="Times,serif" font-size="9.00" fill="#000000">9428</text>
</g>
<!-- 3028&#45;&gt;9428 -->
<g id="edge36" class="edge">
<title>3028&#45;&gt;9428</title>
<path fill="none" stroke="#ff0000" stroke-width=".13" d="M198,-1268.2147C198,-1260.1699 198,-1251.3103 198,-1242.795"/>
<polygon fill="#ff0000" stroke="#ff0000" stroke-width=".13" points="201.5001,-1242.6569 198,-1232.657 194.5001,-1242.657 201.5001,-1242.6569"/>
</g>
<!-- 7595 -->
<g id="node53" class="node">
<title>7595</title>
<ellipse fill="#ffffff" stroke="#000000" cx="247" cy="-1109.4707" rx="28.9828" ry="28.9828"/>
<text text-anchor="middle" x="247" y="-1107.2707" font-family="Times,serif" font-size="9.00" fill="#000000">7595</text>
</g>
<!-- 3028&#45;&gt;7595 -->
<g id="edge45" class="edge">
<title>3028&#45;&gt;7595</title>
<path fill="none" stroke="#ff0000" stroke-width=".2866" stroke-dasharray="1,5" d="M215.1313,-1273.9481C222.8673,-1262.0928 231.3076,-1247.1367 236,-1232.4449 244.6737,-1205.288 247.3039,-1173.1565 247.8291,-1148.5493"/>
<polygon fill="#ff0000" stroke="#ff0000" stroke-width=".2866" points="251.3293,-1148.5375 247.9367,-1138.5005 244.3297,-1148.4624 251.3293,-1148.5375"/>
</g>
<!-- 6998&#45;&gt;7435 -->
<g id="edge11" class="edge">
<title>6998&#45;&gt;7435</title>
<path fill="none" stroke="#00ff00" stroke-width=".4587" d="M601.541,-187.9921C601.9734,-179.8632 602.451,-170.886 602.9097,-162.2643"/>
<polygon fill="#00ff00" stroke="#00ff00" stroke-width=".4587" points="606.4192,-162.1769 603.4555,-152.0051 599.4291,-161.805 606.4192,-162.1769"/>
</g>
<!-- 6998&#45;&gt;4082 -->
<g id="edge9" class="edge">
<title>6998&#45;&gt;4082</title>
<path fill="none" stroke="#00ff00" stroke-width=".5231" stroke-dasharray="1,5" d="M571.868,-208.9835C545.6837,-199.8965 508.193,-182.2341 491,-151.9655 474.7103,-123.2872 489.8361,-86.7998 505.5669,-61.041"/>
<polygon fill="#00ff00" stroke="#00ff00" stroke-width=".5231" points="508.6517,-62.7144 511.1058,-52.4076 502.76,-58.9344 508.6517,-62.7144"/>
</g>
<!-- 2903&#45;&gt;7150 -->
<g id="edge67" class="edge">
<title>2903&#45;&gt;7150</title>
<path fill="none" stroke="#ff0000" stroke-width=".1347" d="M261.5738,-883.8701C259.0847,-836.4091 253.3067,-739.5237 244,-657.8793 243.0348,-649.4123 241.7823,-640.357 240.492,-631.7766"/>
<polygon fill="#ff0000" stroke="#ff0000" stroke-width=".1347" points="243.9077,-630.9626 238.9162,-621.6172 236.9904,-632.0356 243.9077,-630.9626"/>
</g>
<!-- 7513 -->
<g id="node40" class="node">
<title>7513</title>
<ellipse fill="#ffffff" stroke="#000000" cx="586" cy="-686.8707" rx="28.9828" ry="28.9828"/>
<text text-anchor="middle" x="586" y="-684.6707" font-family="Times,serif" font-size="9.00" fill="#000000">7513</text>
</g>
<!-- 7513&#45;&gt;7393 -->
<g id="edge69" class="edge">
<title>7513&#45;&gt;7393</title>
<path fill="none" stroke="#ff0000" stroke-width=".3804" stroke-dasharray="1,5" d="M572.7567,-660.9407C567.5103,-650.6684 561.3993,-638.7031 555.7775,-627.6959"/>
<polygon fill="#ff0000" stroke="#ff0000" stroke-width=".3804" points="558.8655,-626.047 551.2001,-618.7333 552.6315,-629.231 558.8655,-626.047"/>
</g>
<!-- 3418&#45;&gt;9382 -->
<g id="edge31" class="edge">
<title>3418&#45;&gt;9382</title>
<path fill="none" stroke="#00ff00" stroke-width=".1576" d="M836.725,-191.7712C830.1555,-180.9392 822.3812,-168.1208 815.3344,-156.5019"/>
<polygon fill="#00ff00" stroke="#00ff00" stroke-width=".1576" points="818.2979,-154.6387 810.1195,-147.9034 812.3126,-158.2688 818.2979,-154.6387"/>
</g>
<!-- 3418&#45;&gt;1328 -->
<g id="edge29" class="edge">
<title>3418&#45;&gt;1328</title>
<path fill="none" stroke="#ff0000" stroke-width="1.7815" stroke-dasharray="1,5" d="M853.7941,-187.8669C854.0458,-161.4211 850.8447,-122.3163 833,-93.9828 819.1473,-71.9876 794.8447,-55.565 774.2884,-44.7307"/>
<polygon fill="#ff0000" stroke="#ff0000" stroke-width="1.7815" points="775.6655,-41.5058 765.1582,-40.1461 772.5242,-47.7614 775.6655,-41.5058"/>
</g>
<!-- 9338&#45;&gt;7393 -->
<g id="edge22" class="edge">
<title>9338&#45;&gt;7393</title>
<path fill="none" stroke="#00ff00" stroke-width=".3034" d="M488.9966,-662.6678C497.0651,-651.1784 506.8177,-637.2909 515.4911,-624.9401"/>
<polygon fill="#00ff00" stroke="#00ff00" stroke-width=".3034" points="518.4067,-626.8786 521.2894,-616.6834 512.6781,-622.8556 518.4067,-626.8786"/>
</g>
<!-- 8545&#45;&gt;3661 -->
<g id="edge61" class="edge">
<title>8545&#45;&gt;3661</title>
<path fill="none" stroke="#ff0000" stroke-width=".3872" d="M893.0679,-888.4264C881.8703,-871.1413 866.7605,-847.8169 854.4968,-828.8861"/>
<polygon fill="#ff0000" stroke="#ff0000" stroke-width=".3872" points="857.2856,-826.7537 848.9111,-820.2638 851.4107,-830.5596 857.2856,-826.7537"/>
</g>
<!-- 8419 -->
<g id="node44" class="node">
<title>8419</title>
<ellipse fill="#ffffff" stroke="#000000" cx="681" cy="-122.9741" rx="28.9828" ry="28.9828"/>
<text text-anchor="middle" x="681" y="-120.7741" font-family="Times,serif" font-size="9.00" fill="#000000">8419</text>
</g>
<!-- 8419&#45;&gt;1328 -->
<g id="edge28" class="edge">
<title>8419&#45;&gt;1328</title>
<path fill="none" stroke="#ff0000" stroke-width=".1493" d="M696.275,-97.7885C702.8445,-86.9564 710.6188,-74.1381 717.6656,-62.5192"/>
<polygon fill="#ff0000" stroke="#ff0000" stroke-width=".1493" points="720.6874,-64.286 722.8805,-53.9207 714.7021,-60.656 720.6874,-64.286"/>
</g>
<!-- 4453&#45;&gt;forward -->
<g id="edge10" class="edge">
<title>4453&#45;&gt;forward</title>
<path fill="none" stroke="#00ff00" stroke-width=".3338" d="M356.0933,-996.3728C351.0553,-992.6787 345.5421,-989.1408 340,-986.4966 278.902,-957.3462 253.3579,-979.096 192,-950.4966 187.3877,-948.3468 182.7752,-945.7483 178.3133,-942.9338"/>
<polygon fill="#00ff00" stroke="#00ff00" stroke-width=".3338" points="180.21,-939.9915 169.9585,-937.3164 176.3042,-945.8006 180.21,-939.9915"/>
</g>
<!-- 4453&#45;&gt;backward -->
<g id="edge70" class="edge">
<title>4453&#45;&gt;backward</title>
<path fill="none" stroke="#ff0000" stroke-width=".1239" stroke-dasharray="1,5" d="M355.959,-996.6428C350.9294,-992.9319 345.4535,-989.3188 340,-986.4966 292.4349,-961.8815 256.713,-993.6548 225,-950.4966 205.2744,-923.6521 204.655,-901.9215 225,-875.5433 255.3392,-836.207 396.3004,-812.4378 475.1809,-801.9903"/>
<polygon fill="#ff0000" stroke="#ff0000" stroke-width=".1239" points="475.9476,-805.4202 485.4145,-800.6634 475.0475,-798.4783 475.9476,-805.4202"/>
</g>
<!-- 4453&#45;&gt;2903 -->
<g id="edge57" class="edge">
<title>4453&#45;&gt;2903</title>
<path fill="none" stroke="#ff0000" stroke-width=".3817" d="M356.0987,-995.9733C338.0338,-979.8771 312.2403,-956.8943 292.3821,-939.2002"/>
<polygon fill="#ff0000" stroke="#ff0000" stroke-width=".3817" points="294.6144,-936.5014 284.8198,-932.4619 289.9576,-941.7277 294.6144,-936.5014"/>
</g>
<!-- 6614 -->
<g id="node46" class="node">
<title>6614</title>
<ellipse fill="#ffffff" stroke="#000000" cx="377" cy="-913.0199" rx="28.9828" ry="28.9828"/>
<text text-anchor="middle" x="377" y="-910.8199" font-family="Times,serif" font-size="9.00" fill="#000000">6614</text>
</g>
<!-- 4453&#45;&gt;6614 -->
<g id="edge52" class="edge">
<title>4453&#45;&gt;6614</title>
<path fill="none" stroke="#ff0000" stroke-width=".3481" d="M377.7161,-986.3988C377.6127,-975.7985 377.4939,-963.6321 377.3833,-952.2935"/>
<polygon fill="#ff0000" stroke="#ff0000" stroke-width=".3481" points="380.8821,-952.1472 377.2846,-942.1818 373.8824,-952.2155 380.8821,-952.1472"/>
</g>
<!-- 8301 -->
<g id="node47" class="node">
<title>8301</title>
<ellipse fill="#ffffff" stroke="#000000" cx="529" cy="-913.0199" rx="28.9828" ry="28.9828"/>
<text text-anchor="middle" x="529" y="-910.8199" font-family="Times,serif" font-size="9.00" fill="#000000">8301</text>
</g>
<!-- 4453&#45;&gt;8301 -->
<g id="edge44" class="edge">
<title>4453&#45;&gt;8301</title>
<path fill="none" stroke="#ff0000" stroke-width=".1111" d="M404.31,-1002.8051C428.0017,-990.8278 463.2589,-971.5944 491,-950.4966 494.5816,-947.7727 498.1718,-944.7336 501.6385,-941.597"/>
<polygon fill="#ff0000" stroke="#ff0000" stroke-width=".1111" points="504.1156,-944.0717 508.9789,-934.659 499.3072,-938.9844 504.1156,-944.0717"/>
</g>
<!-- 6614&#45;&gt;backward -->
<g id="edge30" class="edge">
<title>6614&#45;&gt;backward</title>
<path fill="none" stroke="#00ff00" stroke-width=".335" stroke-dasharray="1,5" d="M397.3134,-891.7479C402.8738,-886.2736 409.0206,-880.5259 415,-875.5433 436.5357,-857.5977 461.9651,-839.52 483.3361,-825.1156"/>
<polygon fill="#00ff00" stroke="#00ff00" stroke-width=".335" points="485.5479,-827.8472 491.9175,-819.3809 481.6585,-822.0271 485.5479,-827.8472"/>
</g>
<!-- 8301&#45;&gt;backward -->
<g id="edge41" class="edge">
<title>8301&#45;&gt;backward</title>
<path fill="none" stroke="#00ff00" stroke-width=".128" d="M529,-884.0202C529,-873.734 529,-861.7966 529,-850.0876"/>
<polygon fill="#00ff00" stroke="#00ff00" stroke-width=".128" points="532.5001,-849.9038 529,-839.9038 525.5001,-849.9038 532.5001,-849.9038"/>
</g>
<!-- 8942 -->
<g id="node48" class="node">
<title>8942</title>
<ellipse fill="#ffffff" stroke="#000000" cx="437" cy="-1109.4707" rx="28.9828" ry="28.9828"/>
<text text-anchor="middle" x="437" y="-1107.2707" font-family="Times,serif" font-size="9.00" fill="#000000">8942</text>
</g>
<!-- 8942&#45;&gt;4453 -->
<g id="edge59" class="edge">
<title>8942&#45;&gt;4453</title>
<path fill="none" stroke="#00ff00" stroke-width=".352" stroke-dasharray="1,5" d="M421.4984,-1084.7779C414.6423,-1073.8566 406.4729,-1060.8433 399.0751,-1049.0591"/>
<polygon fill="#00ff00" stroke="#00ff00" stroke-width=".352" points="401.8841,-1046.9507 393.6029,-1040.3422 395.9555,-1050.6726 401.8841,-1046.9507"/>
</g>
<!-- 6005 -->
<g id="node50" class="node">
<title>6005</title>
<ellipse fill="#ffffff" stroke="#000000" cx="754" cy="-1297.4363" rx="28.9828" ry="28.9828"/>
<text text-anchor="middle" x="754" y="-1295.2363" font-family="Times,serif" font-size="9.00" fill="#000000">6005</text>
</g>
<!-- 9428&#45;&gt;7595 -->
<g id="edge50" class="edge">
<title>9428&#45;&gt;7595</title>
<path fill="none" stroke="#00ff00" stroke-width=".1092" d="M211.5192,-1177.5235C216.8749,-1167.2512 223.1132,-1155.286 228.8521,-1144.2787"/>
<polygon fill="#00ff00" stroke="#00ff00" stroke-width=".1092" points="232.0053,-1145.8014 233.5249,-1135.3161 225.7983,-1142.5652 232.0053,-1145.8014"/>
</g>
<!-- 3194 -->
<g id="node52" class="node">
<title>3194</title>
<ellipse fill="#ffffff" stroke="#000000" cx="830" cy="-1297.4363" rx="28.9828" ry="28.9828"/>
<text text-anchor="middle" x="830" y="-1295.2363" font-family="Times,serif" font-size="9.00" fill="#000000">3194</text>
</g>
<!-- 7595&#45;&gt;4453 -->
<g id="edge62" class="edge">
<title>7595&#45;&gt;4453</title>
<path fill="none" stroke="#00ff00" stroke-width=".9086" d="M271.2821,-1092.9122C290.1628,-1079.9384 316.9354,-1061.3255 340,-1044.4794 342.1108,-1042.9377 344.2775,-1041.3364 346.4543,-1039.7136"/>
<polygon fill="#00ff00" stroke="#00ff00" stroke-width=".9086" points="348.9197,-1042.2387 354.8041,-1033.4282 344.7097,-1036.6461 348.9197,-1042.2387"/>
</g>
</g>
</svg>
