<?xml version="1.0" encoding="UTF-8" standalone="no"?>
<!DOCTYPE svg PUBLIC "-//W3C//DTD SVG 1.1//EN"
 "http://www.w3.org/Graphics/SVG/1.1/DTD/svg11.dtd">
<!-- Generated by graphviz version 2.40.1 (20161225.0304)
 -->
<!-- Title: %3 Pages: 1 -->
<svg width="376pt" height="150pt"
 viewBox="0.00 0.00 376.34 149.68" xmlns="http://www.w3.org/2000/svg" xmlns:xlink="http://www.w3.org/1999/xlink">
<g id="graph0" class="graph" transform="scale(1 1) rotate(0) translate(4 145.6812)">
<title>%3</title>
<polygon fill="#ffffff" stroke="transparent" points="-4,4 -4,-145.6812 372.3406,-145.6812 372.3406,4 -4,4"/>
<!-- center_dist -->
<g id="node1" class="node">
<title>center_dist</title>
<polygon fill="#d3d3d3" stroke="#000000" points="126.8406,-141.6812 58.8406,-141.6812 58.8406,-123.6812 126.8406,-123.6812 126.8406,-141.6812"/>
<text text-anchor="middle" x="92.8406" y="-130.4812" font-family="Times,serif" font-size="9.00" fill="#000000">center_dist</text>
</g>
<!-- forward -->
<g id="node5" class="node">
<title>forward</title>
<ellipse fill="#add8e6" stroke="#000000" cx="217.8406" cy="-43.8406" rx="37.4533" ry="37.4533"/>
<text text-anchor="middle" x="217.8406" y="-41.6406" font-family="Times,serif" font-size="9.00" fill="#000000">forward</text>
</g>
<!-- center_dist&#45;&gt;forward -->
<g id="edge8" class="edge">
<title>center_dist&#45;&gt;forward</title>
<path fill="none" stroke="#ff0000" stroke-width=".1161" d="M111.2217,-123.598C127.5061,-115.2025 151.6115,-101.9074 170.8406,-87.6812 175.2137,-84.4459 179.6256,-80.853 183.903,-77.156"/>
<polygon fill="#ff0000" stroke="#ff0000" stroke-width=".1161" points="186.292,-79.7151 191.4196,-70.4437 181.6295,-74.4939 186.292,-79.7151"/>
</g>
<!-- backward -->
<g id="node6" class="node">
<title>backward</title>
<ellipse fill="#add8e6" stroke="#000000" cx="43.8406" cy="-43.8406" rx="43.6818" ry="43.6818"/>
<text text-anchor="middle" x="43.8406" y="-41.6406" font-family="Times,serif" font-size="9.00" fill="#000000">backward</text>
</g>
<!-- center_dist&#45;&gt;backward -->
<g id="edge1" class="edge">
<title>center_dist&#45;&gt;backward</title>
<path fill="none" stroke="#ff0000" stroke-width=".2082" d="M87.7813,-123.5083C83.4526,-115.66 76.864,-103.7145 70.0959,-91.4434"/>
<polygon fill="#ff0000" stroke="#ff0000" stroke-width=".2082" points="73.0601,-89.5706 65.1657,-82.5046 66.9306,-92.9514 73.0601,-89.5706"/>
</g>
<!-- right -->
<g id="node8" class="node">
<title>right</title>
<ellipse fill="#add8e6" stroke="#000000" cx="133.8406" cy="-43.8406" rx="28.0702" ry="28.0702"/>
<text text-anchor="middle" x="133.8406" y="-41.6406" font-family="Times,serif" font-size="9.00" fill="#000000">right</text>
</g>
<!-- center_dist&#45;&gt;right -->
<g id="edge4" class="edge">
<title>center_dist&#45;&gt;right</title>
<path fill="none" stroke="#00ff00" stroke-width=".3122" d="M97.0739,-123.5083C101.9312,-112.9834 110.1889,-95.0901 117.6493,-78.9246"/>
<polygon fill="#00ff00" stroke="#00ff00" stroke-width=".3122" points="120.9056,-80.2214 121.918,-69.675 114.5498,-77.2881 120.9056,-80.2214"/>
</g>
<!-- center_dir -->
<g id="node2" class="node">
<title>center_dir</title>
<polygon fill="#d3d3d3" stroke="#000000" points="210.3406,-141.6812 145.3406,-141.6812 145.3406,-123.6812 210.3406,-123.6812 210.3406,-141.6812"/>
<text text-anchor="middle" x="177.8406" y="-130.4812" font-family="Times,serif" font-size="9.00" fill="#000000">center_dir</text>
</g>
<!-- center_dir&#45;&gt;forward -->
<g id="edge2" class="edge">
<title>center_dir&#45;&gt;forward</title>
<path fill="none" stroke="#ff0000" stroke-width=".1781" d="M181.9707,-123.5083C185.863,-114.8634 191.9936,-101.2473 198.0928,-87.7007"/>
<polygon fill="#ff0000" stroke="#ff0000" stroke-width=".1781" points="201.3684,-88.9507 202.2825,-78.3954 194.9855,-86.0768 201.3684,-88.9507"/>
</g>
<!-- center_dir&#45;&gt;right -->
<g id="edge5" class="edge">
<title>center_dir&#45;&gt;right</title>
<path fill="none" stroke="#ff0000" stroke-width=".458" d="M173.2976,-123.5083C168.0482,-112.9092 159.0979,-94.8377 151.0476,-78.5833"/>
<polygon fill="#ff0000" stroke="#ff0000" stroke-width=".458" points="154.0211,-76.701 146.4465,-69.2932 147.7483,-79.8078 154.0211,-76.701"/>
</g>
<!-- other_dist -->
<g id="node3" class="node">
<title>other_dist</title>
<polygon fill="#d3d3d3" stroke="#000000" points="368.3406,-141.6812 305.3406,-141.6812 305.3406,-123.6812 368.3406,-123.6812 368.3406,-141.6812"/>
<text text-anchor="middle" x="336.8406" y="-130.4812" font-family="Times,serif" font-size="9.00" fill="#000000">other_dist</text>
</g>
<!-- left -->
<g id="node7" class="node">
<title>left</title>
<ellipse fill="#add8e6" stroke="#000000" cx="336.8406" cy="-43.8406" rx="22.7556" ry="22.7556"/>
<text text-anchor="middle" x="336.8406" y="-41.6406" font-family="Times,serif" font-size="9.00" fill="#000000">left</text>
</g>
<!-- other_dist&#45;&gt;left -->
<g id="edge6" class="edge">
<title>other_dist&#45;&gt;left</title>
<path fill="none" stroke="#00ff00" stroke-width=".2328" d="M336.8406,-123.5083C336.8406,-112.4943 336.8406,-93.4114 336.8406,-76.6833"/>
<polygon fill="#00ff00" stroke="#00ff00" stroke-width=".2328" points="340.3407,-76.6652 336.8406,-66.6652 333.3407,-76.6652 340.3407,-76.6652"/>
</g>
<!-- other_dir -->
<g id="node4" class="node">
<title>other_dir</title>
<polygon fill="#d3d3d3" stroke="#000000" points="287.3406,-141.6812 228.3406,-141.6812 228.3406,-123.6812 287.3406,-123.6812 287.3406,-141.6812"/>
<text text-anchor="middle" x="257.8406" y="-130.4812" font-family="Times,serif" font-size="9.00" fill="#000000">other_dir</text>
</g>
<!-- other_dir&#45;&gt;forward -->
<g id="edge7" class="edge">
<title>other_dir&#45;&gt;forward</title>
<path fill="none" stroke="#ff0000" stroke-width=".2492" d="M253.7106,-123.5083C249.8182,-114.8634 243.6877,-101.2473 237.5884,-87.7007"/>
<polygon fill="#ff0000" stroke="#ff0000" stroke-width=".2492" points="240.6957,-86.0768 233.3987,-78.3954 234.3128,-88.9507 240.6957,-86.0768"/>
</g>
<!-- other_dir&#45;&gt;left -->
<g id="edge3" class="edge">
<title>other_dir&#45;&gt;left</title>
<path fill="none" stroke="#ff0000" stroke-width=".2698" d="M265.9975,-123.5083C277.3475,-110.7445 298.3335,-87.1444 314.5297,-68.9307"/>
<polygon fill="#ff0000" stroke="#ff0000" stroke-width=".2698" points="317.5527,-70.7982 321.5823,-60.9996 312.3217,-66.1466 317.5527,-70.7982"/>
</g>
</g>
</svg>
