<?xml version="1.0" encoding="UTF-8" standalone="no"?>
<!DOCTYPE svg PUBLIC "-//W3C//DTD SVG 1.1//EN"
 "http://www.w3.org/Graphics/SVG/1.1/DTD/svg11.dtd">
<!-- Generated by graphviz version 2.40.1 (20161225.0304)
 -->
<!-- Title: %3 Pages: 1 -->
<svg width="429pt" height="630pt"
 viewBox="0.00 0.00 428.59 629.88" xmlns="http://www.w3.org/2000/svg" xmlns:xlink="http://www.w3.org/1999/xlink">
<g id="graph0" class="graph" transform="scale(1 1) rotate(0) translate(4 625.8793)">
<title>%3</title>
<polygon fill="#ffffff" stroke="transparent" points="-4,4 -4,-625.8793 424.5894,-625.8793 424.5894,4 -4,4"/>
<!-- center_dist -->
<g id="node1" class="node">
<title>center_dist</title>
<polygon fill="#d3d3d3" stroke="#000000" points="77.8406,-593.4026 9.8406,-593.4026 9.8406,-575.4026 77.8406,-575.4026 77.8406,-593.4026"/>
<text text-anchor="middle" x="43.8406" y="-582.2026" font-family="Times,serif" font-size="9.00" fill="#000000">center_dist</text>
</g>
<!-- backward -->
<g id="node4" class="node">
<title>backward</title>
<ellipse fill="#add8e6" stroke="#000000" cx="43.8406" cy="-467.0854" rx="43.6818" ry="43.6818"/>
<text text-anchor="middle" x="43.8406" y="-464.8854" font-family="Times,serif" font-size="9.00" fill="#000000">backward</text>
</g>
<!-- center_dist&#45;&gt;backward -->
<g id="edge2" class="edge">
<title>center_dist&#45;&gt;backward</title>
<path fill="none" stroke="#ff0000" stroke-width=".3619" stroke-dasharray="1,5" d="M43.8406,-575.1969C43.8406,-563.3597 43.8406,-541.8502 43.8406,-521.1166"/>
<polygon fill="#ff0000" stroke="#ff0000" stroke-width=".3619" points="47.3407,-521.0463 43.8406,-511.0464 40.3407,-521.0464 47.3407,-521.0463"/>
</g>
<!-- center_dir -->
<g id="node2" class="node">
<title>center_dir</title>
<polygon fill="#d3d3d3" stroke="#000000" points="260.3406,-593.4026 195.3406,-593.4026 195.3406,-575.4026 260.3406,-575.4026 260.3406,-593.4026"/>
<text text-anchor="middle" x="227.8406" y="-582.2026" font-family="Times,serif" font-size="9.00" fill="#000000">center_dir</text>
</g>
<!-- center_dir&#45;&gt;backward -->
<g id="edge6" class="edge">
<title>center_dir&#45;&gt;backward</title>
<path fill="none" stroke="#ff0000" stroke-width=".3175" d="M208.9892,-575.1873C182.9567,-562.1621 134.9045,-537.0301 96.8406,-510.926 92.923,-508.2392 88.943,-505.3289 85.0148,-502.3293"/>
<polygon fill="#ff0000" stroke="#ff0000" stroke-width=".3175" points="87.089,-499.508 77.0607,-496.0898 82.7686,-505.0157 87.089,-499.508"/>
</g>
<!-- left -->
<g id="node5" class="node">
<title>left</title>
<ellipse fill="#add8e6" stroke="#000000" cx="333.8406" cy="-22.6274" rx="22.7556" ry="22.7556"/>
<text text-anchor="middle" x="333.8406" y="-20.4274" font-family="Times,serif" font-size="9.00" fill="#000000">left</text>
</g>
<!-- center_dir&#45;&gt;left -->
<g id="edge7" class="edge">
<title>center_dir&#45;&gt;left</title>
<path fill="none" stroke="#ff0000" stroke-width=".1485" stroke-dasharray="1,5" d="M236.9788,-575.0907C245.1472,-567.0598 257.6722,-555.4452 269.8406,-546.926 297.5326,-527.5386 315.6704,-537.2801 336.8406,-510.926 379.7765,-457.4765 378.8406,-431.055 378.8406,-362.496 378.8406,-362.496 378.8406,-362.496 378.8406,-191.501 378.8406,-141.7317 360.3656,-86.4092 347.0911,-53.0831"/>
<polygon fill="#ff0000" stroke="#ff0000" stroke-width=".1485" points="350.1882,-51.4095 343.1646,-43.4772 343.7086,-54.0581 350.1882,-51.4095"/>
</g>
<!-- right -->
<g id="node6" class="node">
<title>right</title>
<ellipse fill="#add8e6" stroke="#000000" cx="133.8406" cy="-467.0854" rx="28.0702" ry="28.0702"/>
<text text-anchor="middle" x="133.8406" y="-464.8854" font-family="Times,serif" font-size="9.00" fill="#000000">right</text>
</g>
<!-- center_dir&#45;&gt;right -->
<g id="edge5" class="edge">
<title>center_dir&#45;&gt;right</title>
<path fill="none" stroke="#ff0000" stroke-width=".11" stroke-dasharray="1,5" d="M220.4646,-575.1969C207.1863,-558.6248 178.7182,-523.0951 158.0318,-497.2773"/>
<polygon fill="#ff0000" stroke="#ff0000" stroke-width=".11" points="160.6023,-494.8879 151.618,-489.2725 155.1395,-499.265 160.6023,-494.8879"/>
</g>
<!-- 801 -->
<g id="node7" class="node">
<title>801</title>
<ellipse fill="#ffffff" stroke="#000000" cx="280.8406" cy="-467.0854" rx="25" ry="25"/>
<text text-anchor="middle" x="280.8406" y="-464.8854" font-family="Times,serif" font-size="9.00" fill="#000000">801</text>
</g>
<!-- center_dir&#45;&gt;801 -->
<g id="edge8" class="edge">
<title>center_dir&#45;&gt;801</title>
<path fill="none" stroke="#ff0000" stroke-width=".592" d="M231.9994,-575.1969C239.3132,-559.0076 254.8004,-524.7262 266.3859,-499.0814"/>
<polygon fill="#ff0000" stroke="#ff0000" stroke-width=".592" points="269.6824,-500.2855 270.6099,-489.7314 263.3032,-497.4036 269.6824,-500.2855"/>
</g>
<!-- 848 -->
<g id="node10" class="node">
<title>848</title>
<ellipse fill="#ffffff" stroke="#000000" cx="325.8406" cy="-362.496" rx="25" ry="25"/>
<text text-anchor="middle" x="325.8406" y="-360.296" font-family="Times,serif" font-size="9.00" fill="#000000">848</text>
</g>
<!-- center_dir&#45;&gt;848 -->
<g id="edge15" class="edge">
<title>center_dir&#45;&gt;848</title>
<path fill="none" stroke="#00ff00" stroke-width=".3175" d="M237.7212,-575.3143C246.1493,-567.6281 258.6446,-556.3878 269.8406,-546.926 289.403,-530.3938 302.8995,-533.5845 314.8406,-510.926 333.5112,-475.498 333.6072,-428.5661 330.7757,-397.0434"/>
<polygon fill="#00ff00" stroke="#00ff00" stroke-width=".3175" points="334.2449,-396.5654 329.7258,-386.9827 327.2827,-397.292 334.2449,-396.5654"/>
</g>
<!-- 789 -->
<g id="node11" class="node">
<title>789</title>
<ellipse fill="#ffffff" stroke="#000000" cx="254.8406" cy="-362.496" rx="25" ry="25"/>
<text text-anchor="middle" x="254.8406" y="-360.296" font-family="Times,serif" font-size="9.00" fill="#000000">789</text>
</g>
<!-- center_dir&#45;&gt;789 -->
<g id="edge4" class="edge">
<title>center_dir&#45;&gt;789</title>
<path fill="none" stroke="#ff0000" stroke-width=".5929" d="M228.8687,-575.3104C231.6536,-550.7664 239.6194,-481.1132 246.8406,-423.2447 247.8895,-414.8396 249.0598,-405.7861 250.1746,-397.3006"/>
<polygon fill="#ff0000" stroke="#ff0000" stroke-width=".5929" points="253.654,-397.6862 251.4949,-387.3137 246.7144,-396.7687 253.654,-397.6862"/>
</g>
<!-- 734 -->
<g id="node13" class="node">
<title>734</title>
<ellipse fill="#ffffff" stroke="#000000" cx="261.8406" cy="-106.0036" rx="25" ry="25"/>
<text text-anchor="middle" x="261.8406" y="-103.8036" font-family="Times,serif" font-size="9.00" fill="#000000">734</text>
</g>
<!-- center_dir&#45;&gt;734 -->
<g id="edge14" class="edge">
<title>center_dir&#45;&gt;734</title>
<path fill="none" stroke="#00ff00" stroke-width=".1203" d="M225.1078,-575.1979C216.3947,-545.0083 189.8406,-446.1406 189.8406,-362.496 189.8406,-362.496 189.8406,-362.496 189.8406,-276.9985 189.8406,-223.5598 220.0789,-167.5698 241.3633,-134.7782"/>
<polygon fill="#00ff00" stroke="#00ff00" stroke-width=".1203" points="244.4686,-136.4296 247.0966,-126.1659 238.6416,-132.5506 244.4686,-136.4296"/>
</g>
<!-- forward -->
<g id="node3" class="node">
<title>forward</title>
<ellipse fill="#add8e6" stroke="#000000" cx="315.8406" cy="-584.4026" rx="37.4533" ry="37.4533"/>
<text text-anchor="middle" x="315.8406" y="-582.2026" font-family="Times,serif" font-size="9.00" fill="#000000">forward</text>
</g>
<!-- 801&#45;&gt;789 -->
<g id="edge1" class="edge">
<title>801&#45;&gt;789</title>
<path fill="none" stroke="#00ff00" stroke-width=".5113" d="M274.8103,-442.8276C271.3976,-429.099 267.0749,-411.7104 263.3248,-396.6249"/>
<polygon fill="#00ff00" stroke="#00ff00" stroke-width=".5113" points="266.6474,-395.4825 260.8382,-386.6222 259.8541,-397.1713 266.6474,-395.4825"/>
</g>
<!-- 617 -->
<g id="node8" class="node">
<title>617</title>
<ellipse fill="#ffffff" stroke="#000000" cx="395.8406" cy="-584.4026" rx="25" ry="25"/>
<text text-anchor="middle" x="395.8406" y="-582.2026" font-family="Times,serif" font-size="9.00" fill="#000000">617</text>
</g>
<!-- 875 -->
<g id="node9" class="node">
<title>875</title>
<ellipse fill="#ffffff" stroke="#000000" cx="280.8406" cy="-276.9985" rx="25" ry="25"/>
<text text-anchor="middle" x="280.8406" y="-274.7985" font-family="Times,serif" font-size="9.00" fill="#000000">875</text>
</g>
<!-- 823 -->
<g id="node12" class="node">
<title>823</title>
<ellipse fill="#ffffff" stroke="#000000" cx="261.8406" cy="-191.501" rx="25" ry="25"/>
<text text-anchor="middle" x="261.8406" y="-189.301" font-family="Times,serif" font-size="9.00" fill="#000000">823</text>
</g>
<!-- 875&#45;&gt;823 -->
<g id="edge11" class="edge">
<title>875&#45;&gt;823</title>
<path fill="none" stroke="#00ff00" stroke-width=".3169" d="M275.4468,-252.7271C273.5815,-244.3336 271.4548,-234.7634 269.4458,-225.7234"/>
<polygon fill="#00ff00" stroke="#00ff00" stroke-width=".3169" points="272.834,-224.8357 267.2479,-215.8332 266.0007,-226.3544 272.834,-224.8357"/>
</g>
<!-- 848&#45;&gt;left -->
<g id="edge9" class="edge">
<title>848&#45;&gt;left</title>
<path fill="none" stroke="#00ff00" stroke-width=".3946" d="M326.4289,-337.5046C327.8503,-277.1167 331.4719,-123.2588 333.0667,-55.507"/>
<polygon fill="#00ff00" stroke="#00ff00" stroke-width=".3946" points="336.5682,-55.4796 333.3046,-45.4 329.5701,-55.3149 336.5682,-55.4796"/>
</g>
<!-- 789&#45;&gt;875 -->
<g id="edge10" class="edge">
<title>789&#45;&gt;875</title>
<path fill="none" stroke="#00ff00" stroke-width=".3386" d="M262.0831,-338.6802C264.7314,-329.9716 267.7791,-319.9494 270.6375,-310.55"/>
<polygon fill="#00ff00" stroke="#00ff00" stroke-width=".3386" points="274.0761,-311.2723 273.637,-300.6866 267.3789,-309.2357 274.0761,-311.2723"/>
</g>
<!-- 789&#45;&gt;823 -->
<g id="edge3" class="edge">
<title>789&#45;&gt;823</title>
<path fill="none" stroke="#00ff00" stroke-width=".3128" stroke-dasharray="1,5" d="M250.3432,-337.9091C246.8921,-315.5232 243.2723,-281.5866 246.8406,-252.2498 247.9248,-243.3362 249.8726,-233.8456 252.0133,-225.0798"/>
<polygon fill="#00ff00" stroke="#00ff00" stroke-width=".3128" points="255.4529,-225.7589 254.5748,-215.2005 248.677,-224.002 255.4529,-225.7589"/>
</g>
<!-- 823&#45;&gt;734 -->
<g id="edge13" class="edge">
<title>823&#45;&gt;734</title>
<path fill="none" stroke="#ff0000" stroke-width=".2685" d="M261.8406,-166.3114C261.8406,-158.3972 261.8406,-149.5111 261.8406,-141.0425"/>
<polygon fill="#ff0000" stroke="#ff0000" stroke-width=".2685" points="265.3407,-141.0131 261.8406,-131.0132 258.3407,-141.0132 265.3407,-141.0131"/>
</g>
<!-- 734&#45;&gt;left -->
<g id="edge12" class="edge">
<title>734&#45;&gt;left</title>
<path fill="none" stroke="#00ff00" stroke-width=".4179" d="M278.1785,-87.0842C288.2529,-75.4181 301.2906,-60.3204 312.2152,-47.6697"/>
<polygon fill="#00ff00" stroke="#00ff00" stroke-width=".4179" points="315.1498,-49.6265 319.0367,-39.7704 309.8518,-45.0514 315.1498,-49.6265"/>
</g>
</g>
</svg>
