<?xml version="1.0" encoding="UTF-8" standalone="no"?>
<!DOCTYPE svg PUBLIC "-//W3C//DTD SVG 1.1//EN"
 "http://www.w3.org/Graphics/SVG/1.1/DTD/svg11.dtd">
<!-- Generated by graphviz version 2.40.1 (20161225.0304)
 -->
<!-- Title: %3 Pages: 1 -->
<svg width="340pt" height="150pt"
 viewBox="0.00 0.00 340.32 149.68" xmlns="http://www.w3.org/2000/svg" xmlns:xlink="http://www.w3.org/1999/xlink">
<g id="graph0" class="graph" transform="scale(1 1) rotate(0) translate(4 145.6812)">
<title>%3</title>
<polygon fill="#ffffff" stroke="transparent" points="-4,4 -4,-145.6812 336.3173,-145.6812 336.3173,4 -4,4"/>
<!-- center_dist -->
<g id="node1" class="node">
<title>center_dist</title>
<polygon fill="#d3d3d3" stroke="#000000" points="69.4767,-141.6812 1.4767,-141.6812 1.4767,-123.6812 69.4767,-123.6812 69.4767,-141.6812"/>
<text text-anchor="middle" x="35.4767" y="-130.4812" font-family="Times,serif" font-size="9.00" fill="#000000">center_dist</text>
</g>
<!-- forward -->
<g id="node5" class="node">
<title>forward</title>
<ellipse fill="#add8e6" stroke="#000000" cx="37.4767" cy="-43.8406" rx="37.4533" ry="37.4533"/>
<text text-anchor="middle" x="37.4767" y="-41.6406" font-family="Times,serif" font-size="9.00" fill="#000000">forward</text>
</g>
<!-- center_dist&#45;&gt;forward -->
<g id="edge1" class="edge">
<title>center_dist&#45;&gt;forward</title>
<path fill="none" stroke="#00ff00" stroke-width=".294" d="M35.6832,-123.5083C35.8578,-115.75 36.1226,-103.9881 36.3955,-91.8657"/>
<polygon fill="#00ff00" stroke="#00ff00" stroke-width=".294" points="39.8988,-91.7543 36.6249,-81.6781 32.9006,-91.5967 39.8988,-91.7543"/>
</g>
<!-- left -->
<g id="node7" class="node">
<title>left</title>
<ellipse fill="#add8e6" stroke="#000000" cx="116.4767" cy="-43.8406" rx="22.7556" ry="22.7556"/>
<text text-anchor="middle" x="116.4767" y="-41.6406" font-family="Times,serif" font-size="9.00" fill="#000000">left</text>
</g>
<!-- center_dist&#45;&gt;left -->
<g id="edge3" class="edge">
<title>center_dist&#45;&gt;left</title>
<path fill="none" stroke="#00ff00" stroke-width=".3754" d="M46.2788,-123.5169C56.3536,-114.752 71.5742,-100.9427 83.4767,-87.6812 88.1794,-82.4415 92.9173,-76.5732 97.278,-70.876"/>
<polygon fill="#00ff00" stroke="#00ff00" stroke-width=".3754" points="100.1709,-72.8515 103.349,-62.7446 94.5618,-68.6637 100.1709,-72.8515"/>
</g>
<!-- center_dir -->
<g id="node2" class="node">
<title>center_dir</title>
<polygon fill="#d3d3d3" stroke="#000000" points="233.9767,-141.6812 168.9767,-141.6812 168.9767,-123.6812 233.9767,-123.6812 233.9767,-141.6812"/>
<text text-anchor="middle" x="201.4767" y="-130.4812" font-family="Times,serif" font-size="9.00" fill="#000000">center_dir</text>
</g>
<!-- right -->
<g id="node8" class="node">
<title>right</title>
<ellipse fill="#add8e6" stroke="#000000" cx="198.4767" cy="-43.8406" rx="28.0702" ry="28.0702"/>
<text text-anchor="middle" x="198.4767" y="-41.6406" font-family="Times,serif" font-size="9.00" fill="#000000">right</text>
</g>
<!-- center_dir&#45;&gt;right -->
<g id="edge2" class="edge">
<title>center_dir&#45;&gt;right</title>
<path fill="none" stroke="#00ff00" stroke-width=".4201" d="M201.1669,-123.5083C200.8385,-113.7827 200.2976,-97.7656 199.7866,-82.6339"/>
<polygon fill="#00ff00" stroke="#00ff00" stroke-width=".4201" points="203.2762,-82.2638 199.4406,-72.3877 196.2802,-82.5002 203.2762,-82.2638"/>
</g>
<!-- other_dist -->
<g id="node3" class="node">
<title>other_dist</title>
<polygon fill="#d3d3d3" stroke="#000000" points="150.9767,-141.6812 87.9767,-141.6812 87.9767,-123.6812 150.9767,-123.6812 150.9767,-141.6812"/>
<text text-anchor="middle" x="119.4767" y="-130.4812" font-family="Times,serif" font-size="9.00" fill="#000000">other_dist</text>
</g>
<!-- other_dist&#45;&gt;forward -->
<g id="edge6" class="edge">
<title>other_dist&#45;&gt;forward</title>
<path fill="none" stroke="#00ff00" stroke-width=".1619" d="M111.0101,-123.5083C101.3748,-113.0693 85.0491,-95.3817 70.2248,-79.3207"/>
<polygon fill="#00ff00" stroke="#00ff00" stroke-width=".1619" points="72.4584,-76.5803 63.104,-71.6058 67.3146,-81.328 72.4584,-76.5803"/>
</g>
<!-- other_dist&#45;&gt;left -->
<g id="edge8" class="edge">
<title>other_dist&#45;&gt;left</title>
<path fill="none" stroke="#00ff00" stroke-width=".2701" d="M119.1669,-123.5083C118.795,-112.4943 118.1506,-93.4114 117.5857,-76.6833"/>
<polygon fill="#00ff00" stroke="#00ff00" stroke-width=".2701" points="121.083,-76.5413 117.2474,-66.6652 114.087,-76.7776 121.083,-76.5413"/>
</g>
<!-- other_dist&#45;&gt;right -->
<g id="edge7" class="edge">
<title>other_dist&#45;&gt;right</title>
<path fill="none" stroke="#00ff00" stroke-width=".1046" d="M127.6335,-123.5083C138.163,-111.6672 156.9858,-90.4998 172.5837,-72.959"/>
<polygon fill="#00ff00" stroke="#00ff00" stroke-width=".1046" points="175.4523,-75 179.4819,-65.2014 170.2213,-70.3485 175.4523,-75"/>
</g>
<!-- other_dir -->
<g id="node4" class="node">
<title>other_dir</title>
<polygon fill="#d3d3d3" stroke="#000000" points="315.9767,-141.6812 256.9767,-141.6812 256.9767,-123.6812 315.9767,-123.6812 315.9767,-141.6812"/>
<text text-anchor="middle" x="286.4767" y="-130.4812" font-family="Times,serif" font-size="9.00" fill="#000000">other_dir</text>
</g>
<!-- backward -->
<g id="node6" class="node">
<title>backward</title>
<ellipse fill="#add8e6" stroke="#000000" cx="288.4767" cy="-43.8406" rx="43.6818" ry="43.6818"/>
<text text-anchor="middle" x="288.4767" y="-41.6406" font-family="Times,serif" font-size="9.00" fill="#000000">backward</text>
</g>
<!-- other_dir&#45;&gt;backward -->
<g id="edge5" class="edge">
<title>other_dir&#45;&gt;backward</title>
<path fill="none" stroke="#ff0000" stroke-width=".1168" d="M286.6832,-123.5083C286.8284,-117.0579 287.0359,-107.8398 287.2586,-97.948"/>
<polygon fill="#ff0000" stroke="#ff0000" stroke-width=".1168" points="290.7585,-97.9854 287.4846,-87.9092 283.7603,-97.8278 290.7585,-97.9854"/>
</g>
<!-- other_dir&#45;&gt;right -->
<g id="edge4" class="edge">
<title>other_dir&#45;&gt;right</title>
<path fill="none" stroke="#00ff00" stroke-width=".3453" d="M275.107,-123.4741C264.4784,-114.6788 248.358,-100.8491 235.4767,-87.6812 231.2827,-83.3939 227.0144,-78.6978 222.939,-74.0224"/>
<polygon fill="#00ff00" stroke="#00ff00" stroke-width=".3453" points="225.4618,-71.5867 216.3094,-66.2495 220.1358,-76.1293 225.4618,-71.5867"/>
</g>
</g>
</svg>
