<?xml version="1.0" encoding="UTF-8" standalone="no"?>
<!DOCTYPE svg PUBLIC "-//W3C//DTD SVG 1.1//EN"
 "http://www.w3.org/Graphics/SVG/1.1/DTD/svg11.dtd">
<!-- Generated by graphviz version 2.40.1 (20161225.0304)
 -->
<!-- Title: %3 Pages: 1 -->
<svg width="289pt" height="467pt"
 viewBox="0.00 0.00 288.91 467.37" xmlns="http://www.w3.org/2000/svg" xmlns:xlink="http://www.w3.org/1999/xlink">
<g id="graph0" class="graph" transform="scale(1 1) rotate(0) translate(4 463.3696)">
<title>%3</title>
<polygon fill="#ffffff" stroke="transparent" points="-4,4 -4,-463.3696 284.911,-463.3696 284.911,4 -4,4"/>
<!-- center_dist -->
<g id="node1" class="node">
<title>center_dist</title>
<polygon fill="#d3d3d3" stroke="#000000" points="88.2843,-424.529 20.2843,-424.529 20.2843,-406.529 88.2843,-406.529 88.2843,-424.529"/>
<text text-anchor="middle" x="54.2843" y="-413.329" font-family="Times,serif" font-size="9.00" fill="#000000">center_dist</text>
</g>
<!-- right -->
<g id="node6" class="node">
<title>right</title>
<ellipse fill="#add8e6" stroke="#000000" cx="28.2843" cy="-212.7142" rx="28.0702" ry="28.0702"/>
<text text-anchor="middle" x="28.2843" y="-210.5142" font-family="Times,serif" font-size="9.00" fill="#000000">right</text>
</g>
<!-- center_dist&#45;&gt;right -->
<g id="edge3" class="edge">
<title>center_dist&#45;&gt;right</title>
<path fill="none" stroke="#ff0000" stroke-width=".172" d="M53.0995,-406.2875C49.6381,-379.2862 39.3953,-299.3866 33.2041,-251.0918"/>
<polygon fill="#ff0000" stroke="#ff0000" stroke-width=".172" points="36.6542,-250.4785 31.911,-241.0048 29.711,-251.3687 36.6542,-250.4785"/>
</g>
<!-- 985 -->
<g id="node9" class="node">
<title>985</title>
<ellipse fill="#ffffff" stroke="#000000" cx="81.2843" cy="-310.9396" rx="25" ry="25"/>
<text text-anchor="middle" x="81.2843" y="-308.7396" font-family="Times,serif" font-size="9.00" fill="#000000">985</text>
</g>
<!-- center_dist&#45;&gt;985 -->
<g id="edge9" class="edge">
<title>center_dist&#45;&gt;985</title>
<path fill="none" stroke="#ff0000" stroke-width=".2001" d="M56.6803,-406.2474C60.2011,-392.6092 66.9547,-366.4478 72.4967,-344.9798"/>
<polygon fill="#ff0000" stroke="#ff0000" stroke-width=".2001" points="75.9102,-345.759 75.021,-335.2015 69.1324,-344.0092 75.9102,-345.759"/>
</g>
<!-- center_dir -->
<g id="node2" class="node">
<title>center_dir</title>
<polygon fill="#d3d3d3" stroke="#000000" points="237.7843,-319.9396 172.7843,-319.9396 172.7843,-301.9396 237.7843,-301.9396 237.7843,-319.9396"/>
<text text-anchor="middle" x="205.2843" y="-308.7396" font-family="Times,serif" font-size="9.00" fill="#000000">center_dir</text>
</g>
<!-- forward -->
<g id="node3" class="node">
<title>forward</title>
<ellipse fill="#add8e6" stroke="#000000" cx="112.2843" cy="-212.7142" rx="37.4533" ry="37.4533"/>
<text text-anchor="middle" x="112.2843" y="-210.5142" font-family="Times,serif" font-size="9.00" fill="#000000">forward</text>
</g>
<!-- center_dir&#45;&gt;forward -->
<g id="edge2" class="edge">
<title>center_dir&#45;&gt;forward</title>
<path fill="none" stroke="#ff0000" stroke-width="1.0898" d="M196.7018,-301.8749C185.1102,-289.632 163.7918,-267.1158 145.4794,-247.7745"/>
<polygon fill="#ff0000" stroke="#ff0000" stroke-width="1.0898" points="147.7924,-245.1267 138.3755,-240.2715 142.7093,-249.9394 147.7924,-245.1267"/>
</g>
<!-- left -->
<g id="node5" class="node">
<title>left</title>
<ellipse fill="#add8e6" stroke="#000000" cx="205.2843" cy="-22.6274" rx="22.7556" ry="22.7556"/>
<text text-anchor="middle" x="205.2843" y="-20.4274" font-family="Times,serif" font-size="9.00" fill="#000000">left</text>
</g>
<!-- center_dir&#45;&gt;left -->
<g id="edge5" class="edge">
<title>center_dir&#45;&gt;left</title>
<path fill="none" stroke="#00ff00" stroke-width="2.1997" d="M203.5252,-301.9288C201.3153,-290.1077 197.6473,-268.6922 196.2843,-250.1909 190.7676,-175.3111 190.5714,-156.1199 196.2843,-81.2548 196.936,-72.7141 198.1144,-63.5341 199.4083,-55.0317"/>
<polygon fill="#00ff00" stroke="#00ff00" stroke-width="2.1997" points="202.8754,-55.5159 201.0164,-45.0855 195.9652,-54.3986 202.8754,-55.5159"/>
</g>
<!-- 1556 -->
<g id="node7" class="node">
<title>1556</title>
<ellipse fill="#ffffff" stroke="#000000" cx="234.2843" cy="-212.7142" rx="28.9828" ry="28.9828"/>
<text text-anchor="middle" x="234.2843" y="-210.5142" font-family="Times,serif" font-size="9.00" fill="#000000">1556</text>
</g>
<!-- center_dir&#45;&gt;1556 -->
<g id="edge4" class="edge">
<title>center_dir&#45;&gt;1556</title>
<path fill="none" stroke="#00ff00" stroke-width=".1853" d="M207.9605,-301.8749C211.4074,-290.2001 217.6124,-269.1832 223.1326,-250.4859"/>
<polygon fill="#00ff00" stroke="#00ff00" stroke-width=".1853" points="226.5477,-251.2792 226.0225,-240.6974 219.8341,-249.2971 226.5477,-251.2792"/>
</g>
<!-- 1303 -->
<g id="node8" class="node">
<title>1303</title>
<ellipse fill="#ffffff" stroke="#000000" cx="234.2843" cy="-110.2462" rx="28.9828" ry="28.9828"/>
<text text-anchor="middle" x="234.2843" y="-108.0462" font-family="Times,serif" font-size="9.00" fill="#000000">1303</text>
</g>
<!-- center_dir&#45;&gt;1303 -->
<g id="edge6" class="edge">
<title>center_dir&#45;&gt;1303</title>
<path fill="none" stroke="#00ff00" stroke-width=".1413" stroke-dasharray="1,5" d="M221.5821,-301.7891C237.8858,-291.5958 261.9787,-273.446 272.2843,-250.1909 285.781,-219.7349 280.9945,-207.3913 272.2843,-175.2376 269.1653,-163.7238 263.4405,-152.1593 257.3643,-142.0436"/>
<polygon fill="#00ff00" stroke="#00ff00" stroke-width=".1413" points="260.3002,-140.1378 251.9908,-133.5647 254.3875,-143.8849 260.3002,-140.1378"/>
</g>
<!-- backward -->
<g id="node4" class="node">
<title>backward</title>
<ellipse fill="#add8e6" stroke="#000000" cx="150.2843" cy="-415.529" rx="43.6818" ry="43.6818"/>
<text text-anchor="middle" x="150.2843" y="-413.329" font-family="Times,serif" font-size="9.00" fill="#000000">backward</text>
</g>
<!-- 1556&#45;&gt;1303 -->
<g id="edge1" class="edge">
<title>1556&#45;&gt;1303</title>
<path fill="none" stroke="#00ff00" stroke-width=".1108" d="M234.2843,-183.6251C234.2843,-173.0248 234.2843,-160.8583 234.2843,-149.5197"/>
<polygon fill="#00ff00" stroke="#00ff00" stroke-width=".1108" points="237.7844,-149.4081 234.2843,-139.4081 230.7844,-149.4081 237.7844,-149.4081"/>
</g>
<!-- 1303&#45;&gt;left -->
<g id="edge7" class="edge">
<title>1303&#45;&gt;left</title>
<path fill="none" stroke="#00ff00" stroke-width="1.7452" d="M225.1085,-82.5231C222.1107,-73.4657 218.7603,-63.3431 215.6794,-54.0345"/>
<polygon fill="#00ff00" stroke="#00ff00" stroke-width="1.7452" points="218.9364,-52.736 212.4714,-44.3423 212.2909,-54.9356 218.9364,-52.736"/>
</g>
<!-- 985&#45;&gt;forward -->
<g id="edge8" class="edge">
<title>985&#45;&gt;forward</title>
<path fill="none" stroke="#00ff00" stroke-width=".2063" stroke-dasharray="1,5" d="M88.7885,-287.162C91.5301,-278.4751 94.7313,-268.3319 97.8726,-258.3785"/>
<polygon fill="#00ff00" stroke="#00ff00" stroke-width=".2063" points="101.3027,-259.1391 100.9747,-248.5493 94.6272,-257.0323 101.3027,-259.1391"/>
</g>
<!-- 985&#45;&gt;right -->
<g id="edge10" class="edge">
<title>985&#45;&gt;right</title>
<path fill="none" stroke="#00ff00" stroke-width=".3083" d="M69.5219,-289.1402C62.8174,-276.7148 54.2675,-260.8693 46.6931,-246.8316"/>
<polygon fill="#00ff00" stroke="#00ff00" stroke-width=".3083" points="49.7146,-245.0606 41.8858,-237.922 43.5542,-248.3847 49.7146,-245.0606"/>
</g>
</g>
</svg>
