<?xml version="1.0" encoding="UTF-8" standalone="no"?>
<!DOCTYPE svg PUBLIC "-//W3C//DTD SVG 1.1//EN"
 "http://www.w3.org/Graphics/SVG/1.1/DTD/svg11.dtd">
<!-- Generated by graphviz version 2.40.1 (20161225.0304)
 -->
<!-- Title: %3 Pages: 1 -->
<svg width="423pt" height="207pt"
 viewBox="0.00 0.00 423.34 206.63" xmlns="http://www.w3.org/2000/svg" xmlns:xlink="http://www.w3.org/1999/xlink">
<g id="graph0" class="graph" transform="scale(1 1) rotate(0) translate(4 202.6346)">
<title>%3</title>
<polygon fill="#ffffff" stroke="transparent" points="-4,4 -4,-202.6346 419.3406,-202.6346 419.3406,4 -4,4"/>
<!-- center_dist -->
<g id="node1" class="node">
<title>center_dist</title>
<polygon fill="#d3d3d3" stroke="#000000" points="145.5,-163.7939 77.5,-163.7939 77.5,-145.7939 145.5,-145.7939 145.5,-163.7939"/>
<text text-anchor="middle" x="111.5" y="-152.5939" font-family="Times,serif" font-size="9.00" fill="#000000">center_dist</text>
</g>
<!-- forward -->
<g id="node5" class="node">
<title>forward</title>
<ellipse fill="#add8e6" stroke="#000000" cx="79.5" cy="-37.4767" rx="37.4533" ry="37.4533"/>
<text text-anchor="middle" x="79.5" y="-35.2767" font-family="Times,serif" font-size="9.00" fill="#000000">forward</text>
</g>
<!-- center_dist&#45;&gt;forward -->
<g id="edge1" class="edge">
<title>center_dist&#45;&gt;forward</title>
<path fill="none" stroke="#00ff00" stroke-width=".1847" d="M108.989,-145.5882C105.3568,-132.2721 98.386,-106.7159 92.1336,-83.7934"/>
<polygon fill="#00ff00" stroke="#00ff00" stroke-width=".1847" points="95.4264,-82.5647 89.4181,-73.8382 88.6731,-84.4068 95.4264,-82.5647"/>
</g>
<!-- left -->
<g id="node7" class="node">
<title>left</title>
<ellipse fill="#add8e6" stroke="#000000" cx="157.5" cy="-37.4767" rx="22.7556" ry="22.7556"/>
<text text-anchor="middle" x="157.5" y="-35.2767" font-family="Times,serif" font-size="9.00" fill="#000000">left</text>
</g>
<!-- center_dist&#45;&gt;left -->
<g id="edge3" class="edge">
<title>center_dist&#45;&gt;left</title>
<path fill="none" stroke="#ff0000" stroke-width=".1218" d="M115.1095,-145.5882C121.5701,-129.1115 135.3785,-93.8947 145.4866,-68.1153"/>
<polygon fill="#ff0000" stroke="#ff0000" stroke-width=".1218" points="148.7644,-69.3435 149.1564,-58.7559 142.2475,-66.7882 148.7644,-69.3435"/>
</g>
<!-- right -->
<g id="node8" class="node">
<title>right</title>
<ellipse fill="#add8e6" stroke="#000000" cx="226.5" cy="-37.4767" rx="28.0702" ry="28.0702"/>
<text text-anchor="middle" x="226.5" y="-35.2767" font-family="Times,serif" font-size="9.00" fill="#000000">right</text>
</g>
<!-- center_dist&#45;&gt;right -->
<g id="edge2" class="edge">
<title>center_dist&#45;&gt;right</title>
<path fill="none" stroke="#ff0000" stroke-width=".1176" d="M120.5239,-145.5882C137.2948,-128.4794 173.8723,-91.1648 199.3327,-65.1913"/>
<polygon fill="#ff0000" stroke="#ff0000" stroke-width=".1176" points="202.017,-67.4529 206.5178,-57.8615 197.0181,-62.5527 202.017,-67.4529"/>
</g>
<!-- center_dir -->
<g id="node2" class="node">
<title>center_dir</title>
<polygon fill="#d3d3d3" stroke="#000000" points="310,-163.7939 245,-163.7939 245,-145.7939 310,-145.7939 310,-163.7939"/>
<text text-anchor="middle" x="277.5" y="-152.5939" font-family="Times,serif" font-size="9.00" fill="#000000">center_dir</text>
</g>
<!-- center_dir&#45;&gt;right -->
<g id="edge5" class="edge">
<title>center_dir&#45;&gt;right</title>
<path fill="none" stroke="#ff0000" stroke-width=".1821" d="M273.4981,-145.5882C266.7518,-130.0695 252.7786,-97.9263 241.8131,-72.7019"/>
<polygon fill="#ff0000" stroke="#ff0000" stroke-width=".1821" points="244.9757,-71.1977 237.779,-63.4222 238.556,-73.9885 244.9757,-71.1977"/>
</g>
<!-- other_dist -->
<g id="node3" class="node">
<title>other_dist</title>
<polygon fill="#d3d3d3" stroke="#000000" points="227,-163.7939 164,-163.7939 164,-145.7939 227,-145.7939 227,-163.7939"/>
<text text-anchor="middle" x="195.5" y="-152.5939" font-family="Times,serif" font-size="9.00" fill="#000000">other_dist</text>
</g>
<!-- other_dist&#45;&gt;forward -->
<g id="edge4" class="edge">
<title>other_dist&#45;&gt;forward</title>
<path fill="none" stroke="#00ff00" stroke-width=".1918" d="M187.1339,-145.6165C178.9276,-136.6699 166.0068,-122.7303 154.5,-110.9533 141.5084,-97.6566 126.9651,-83.2931 114.1682,-70.8229"/>
<polygon fill="#00ff00" stroke="#00ff00" stroke-width=".1918" points="116.4713,-68.1806 106.8604,-63.7219 111.5931,-73.2009 116.4713,-68.1806"/>
</g>
<!-- other_dist&#45;&gt;left -->
<g id="edge6" class="edge">
<title>other_dist&#45;&gt;left</title>
<path fill="none" stroke="#ff0000" stroke-width=".3952" d="M192.5182,-145.5882C187.2357,-129.2795 176.0062,-94.6107 167.6804,-68.9066"/>
<polygon fill="#ff0000" stroke="#ff0000" stroke-width=".3952" points="170.9502,-67.6431 164.539,-59.2082 164.2909,-69.8001 170.9502,-67.6431"/>
</g>
<!-- other_dist&#45;&gt;right -->
<g id="edge8" class="edge">
<title>other_dist&#45;&gt;right</title>
<path fill="none" stroke="#ff0000" stroke-width=".102" d="M197.9325,-145.5882C201.9218,-130.4911 210.0685,-99.6605 216.6449,-74.7725"/>
<polygon fill="#ff0000" stroke="#ff0000" stroke-width=".102" points="220.0878,-75.4429 219.2588,-64.8805 213.3201,-73.6545 220.0878,-75.4429"/>
</g>
<!-- other_dir -->
<g id="node4" class="node">
<title>other_dir</title>
<polygon fill="#d3d3d3" stroke="#000000" points="59,-163.7939 0,-163.7939 0,-145.7939 59,-145.7939 59,-163.7939"/>
<text text-anchor="middle" x="29.5" y="-152.5939" font-family="Times,serif" font-size="9.00" fill="#000000">other_dir</text>
</g>
<!-- other_dir&#45;&gt;forward -->
<g id="edge7" class="edge">
<title>other_dir&#45;&gt;forward</title>
<path fill="none" stroke="#ff0000" stroke-width=".4347" d="M33.4234,-145.5882C39.2912,-131.8204 50.7356,-104.9678 60.7502,-81.4701"/>
<polygon fill="#ff0000" stroke="#ff0000" stroke-width=".4347" points="64.0889,-82.5634 64.7899,-71.9917 57.6493,-79.8188 64.0889,-82.5634"/>
</g>
<!-- backward -->
<g id="node6" class="node">
<title>backward</title>
<ellipse fill="#add8e6" stroke="#000000" cx="371.5" cy="-154.7939" rx="43.6818" ry="43.6818"/>
<text text-anchor="middle" x="371.5" y="-152.5939" font-family="Times,serif" font-size="9.00" fill="#000000">backward</text>
</g>
</g>
</svg>
