<?xml version="1.0" encoding="UTF-8" standalone="no"?>
<!DOCTYPE svg PUBLIC "-//W3C//DTD SVG 1.1//EN"
 "http://www.w3.org/Graphics/SVG/1.1/DTD/svg11.dtd">
<!-- Generated by graphviz version 2.40.1 (20161225.0304)
 -->
<!-- Title: %3 Pages: 1 -->
<svg width="401pt" height="150pt"
 viewBox="0.00 0.00 401.28 149.68" xmlns="http://www.w3.org/2000/svg" xmlns:xlink="http://www.w3.org/1999/xlink">
<g id="graph0" class="graph" transform="scale(1 1) rotate(0) translate(4 145.6812)">
<title>%3</title>
<polygon fill="#ffffff" stroke="transparent" points="-4,4 -4,-145.6812 397.2843,-145.6812 397.2843,4 -4,4"/>
<!-- center_dist -->
<g id="node1" class="node">
<title>center_dist</title>
<polygon fill="#d3d3d3" stroke="#000000" points="68,-141.6812 0,-141.6812 0,-123.6812 68,-123.6812 68,-141.6812"/>
<text text-anchor="middle" x="34" y="-130.4812" font-family="Times,serif" font-size="9.00" fill="#000000">center_dist</text>
</g>
<!-- forward -->
<g id="node5" class="node">
<title>forward</title>
<ellipse fill="#add8e6" stroke="#000000" cx="113" cy="-43.8406" rx="37.4533" ry="37.4533"/>
<text text-anchor="middle" x="113" y="-41.6406" font-family="Times,serif" font-size="9.00" fill="#000000">forward</text>
</g>
<!-- center_dist&#45;&gt;forward -->
<g id="edge2" class="edge">
<title>center_dist&#45;&gt;forward</title>
<path fill="none" stroke="#00ff00" stroke-width=".4164" d="M42.1568,-123.5083C51.3719,-113.1455 66.9387,-95.6395 81.137,-79.6727"/>
<polygon fill="#00ff00" stroke="#00ff00" stroke-width=".4164" points="83.9336,-81.7947 87.9632,-71.9961 78.7026,-77.1432 83.9336,-81.7947"/>
</g>
<!-- center_dir -->
<g id="node2" class="node">
<title>center_dir</title>
<polygon fill="#d3d3d3" stroke="#000000" points="240.5,-141.6812 175.5,-141.6812 175.5,-123.6812 240.5,-123.6812 240.5,-141.6812"/>
<text text-anchor="middle" x="208" y="-130.4812" font-family="Times,serif" font-size="9.00" fill="#000000">center_dir</text>
</g>
<!-- center_dir&#45;&gt;forward -->
<g id="edge8" class="edge">
<title>center_dir&#45;&gt;forward</title>
<path fill="none" stroke="#00ff00" stroke-width=".3283" d="M197.8143,-123.4277C187.868,-114.3681 172.3262,-100.1488 159,-87.6812 155.269,-84.1907 151.3824,-80.5282 147.5187,-76.8703"/>
<polygon fill="#00ff00" stroke="#00ff00" stroke-width=".3283" points="149.8259,-74.2346 140.1637,-69.888 145.0065,-79.3113 149.8259,-74.2346"/>
</g>
<!-- backward -->
<g id="node6" class="node">
<title>backward</title>
<ellipse fill="#add8e6" stroke="#000000" cx="212" cy="-43.8406" rx="43.6818" ry="43.6818"/>
<text text-anchor="middle" x="212" y="-41.6406" font-family="Times,serif" font-size="9.00" fill="#000000">backward</text>
</g>
<!-- center_dir&#45;&gt;backward -->
<g id="edge1" class="edge">
<title>center_dir&#45;&gt;backward</title>
<path fill="none" stroke="#ff0000" stroke-width=".5033" d="M208.413,-123.5083C208.7034,-117.0579 209.1185,-107.8398 209.5638,-97.948"/>
<polygon fill="#ff0000" stroke="#ff0000" stroke-width=".5033" points="213.0624,-98.0565 210.0158,-87.9092 206.0695,-97.7416 213.0624,-98.0565"/>
</g>
<!-- other_dist -->
<g id="node3" class="node">
<title>other_dist</title>
<polygon fill="#d3d3d3" stroke="#000000" points="149.5,-141.6812 86.5,-141.6812 86.5,-123.6812 149.5,-123.6812 149.5,-141.6812"/>
<text text-anchor="middle" x="118" y="-130.4812" font-family="Times,serif" font-size="9.00" fill="#000000">other_dist</text>
</g>
<!-- other_dist&#45;&gt;forward -->
<g id="edge3" class="edge">
<title>other_dist&#45;&gt;forward</title>
<path fill="none" stroke="#ff0000" stroke-width=".5761" d="M117.4837,-123.5083C117.0432,-115.6808 116.3733,-103.7777 115.6846,-91.5409"/>
<polygon fill="#ff0000" stroke="#ff0000" stroke-width=".5761" points="119.1628,-91.0531 115.1063,-81.2656 112.1738,-91.4465 119.1628,-91.0531"/>
</g>
<!-- other_dir -->
<g id="node4" class="node">
<title>other_dir</title>
<polygon fill="#d3d3d3" stroke="#000000" points="321.5,-141.6812 262.5,-141.6812 262.5,-123.6812 321.5,-123.6812 321.5,-141.6812"/>
<text text-anchor="middle" x="292" y="-130.4812" font-family="Times,serif" font-size="9.00" fill="#000000">other_dir</text>
</g>
<!-- other_dir&#45;&gt;forward -->
<g id="edge7" class="edge">
<title>other_dir&#45;&gt;forward</title>
<path fill="none" stroke="#ff0000" stroke-width=".3963" d="M262.4062,-126.5808C234.353,-119.9214 191.7497,-107.4825 159,-87.6812 154.6278,-85.0377 150.332,-81.9158 146.2282,-78.5752"/>
<polygon fill="#ff0000" stroke="#ff0000" stroke-width=".3963" points="148.4472,-75.8667 138.6031,-71.9497 143.8559,-81.1507 148.4472,-75.8667"/>
</g>
<!-- other_dir&#45;&gt;backward -->
<g id="edge5" class="edge">
<title>other_dir&#45;&gt;backward</title>
<path fill="none" stroke="#00ff00" stroke-width=".2295" d="M283.7399,-123.5083C275.309,-114.1457 261.6276,-98.9524 248.4615,-84.3314"/>
<polygon fill="#00ff00" stroke="#00ff00" stroke-width=".2295" points="250.9466,-81.8607 241.6541,-76.7717 245.7448,-86.5449 250.9466,-81.8607"/>
</g>
<!-- left -->
<g id="node7" class="node">
<title>left</title>
<ellipse fill="#add8e6" stroke="#000000" cx="296" cy="-43.8406" rx="22.7556" ry="22.7556"/>
<text text-anchor="middle" x="296" y="-41.6406" font-family="Times,serif" font-size="9.00" fill="#000000">left</text>
</g>
<!-- other_dir&#45;&gt;left -->
<g id="edge4" class="edge">
<title>other_dir&#45;&gt;left</title>
<path fill="none" stroke="#ff0000" stroke-width=".1882" d="M292.413,-123.5083C292.9089,-112.4943 293.7681,-93.4114 294.5213,-76.6833"/>
<polygon fill="#ff0000" stroke="#ff0000" stroke-width=".1882" points="298.0189,-76.8125 294.9723,-66.6652 291.026,-76.4976 298.0189,-76.8125"/>
</g>
<!-- right -->
<g id="node8" class="node">
<title>right</title>
<ellipse fill="#add8e6" stroke="#000000" cx="365" cy="-43.8406" rx="28.0702" ry="28.0702"/>
<text text-anchor="middle" x="365" y="-41.6406" font-family="Times,serif" font-size="9.00" fill="#000000">right</text>
</g>
<!-- other_dir&#45;&gt;right -->
<g id="edge6" class="edge">
<title>other_dir&#45;&gt;right</title>
<path fill="none" stroke="#ff0000" stroke-width=".2303" d="M299.5373,-123.5083C309.0543,-111.9263 325.9029,-91.4216 340.1233,-74.1154"/>
<polygon fill="#ff0000" stroke="#ff0000" stroke-width=".2303" points="343.2051,-75.878 346.8495,-65.9297 337.7967,-71.4339 343.2051,-75.878"/>
</g>
</g>
</svg>
