<?xml version="1.0" encoding="UTF-8" standalone="no"?>
<!DOCTYPE svg PUBLIC "-//W3C//DTD SVG 1.1//EN"
 "http://www.w3.org/Graphics/SVG/1.1/DTD/svg11.dtd">
<!-- Generated by graphviz version 2.40.1 (20161225.0304)
 -->
<!-- Title: %3 Pages: 1 -->
<svg width="371pt" height="150pt"
 viewBox="0.00 0.00 371.28 149.68" xmlns="http://www.w3.org/2000/svg" xmlns:xlink="http://www.w3.org/1999/xlink">
<g id="graph0" class="graph" transform="scale(1 1) rotate(0) translate(4 145.6812)">
<title>%3</title>
<polygon fill="#ffffff" stroke="transparent" points="-4,4 -4,-145.6812 367.2843,-145.6812 367.2843,4 -4,4"/>
<!-- center_dist -->
<g id="node1" class="node">
<title>center_dist</title>
<polygon fill="#d3d3d3" stroke="#000000" points="68,-141.6812 0,-141.6812 0,-123.6812 68,-123.6812 68,-141.6812"/>
<text text-anchor="middle" x="34" y="-130.4812" font-family="Times,serif" font-size="9.00" fill="#000000">center_dist</text>
</g>
<!-- backward -->
<g id="node6" class="node">
<title>backward</title>
<ellipse fill="#add8e6" stroke="#000000" cx="65" cy="-43.8406" rx="43.6818" ry="43.6818"/>
<text text-anchor="middle" x="65" y="-41.6406" font-family="Times,serif" font-size="9.00" fill="#000000">backward</text>
</g>
<!-- center_dist&#45;&gt;backward -->
<g id="edge1" class="edge">
<title>center_dist&#45;&gt;backward</title>
<path fill="none" stroke="#00ff00" stroke-width=".1847" d="M37.2008,-123.5083C39.6655,-116.4448 43.2883,-106.0626 47.1097,-95.1112"/>
<polygon fill="#00ff00" stroke="#00ff00" stroke-width=".1847" points="50.5048,-96.0046 50.4949,-85.4098 43.8956,-93.6984 50.5048,-96.0046"/>
</g>
<!-- center_dir -->
<g id="node2" class="node">
<title>center_dir</title>
<polygon fill="#d3d3d3" stroke="#000000" points="244.5,-141.6812 179.5,-141.6812 179.5,-123.6812 244.5,-123.6812 244.5,-141.6812"/>
<text text-anchor="middle" x="212" y="-130.4812" font-family="Times,serif" font-size="9.00" fill="#000000">center_dir</text>
</g>
<!-- forward -->
<g id="node5" class="node">
<title>forward</title>
<ellipse fill="#add8e6" stroke="#000000" cx="188" cy="-43.8406" rx="37.4533" ry="37.4533"/>
<text text-anchor="middle" x="188" y="-41.6406" font-family="Times,serif" font-size="9.00" fill="#000000">forward</text>
</g>
<!-- center_dir&#45;&gt;forward -->
<g id="edge2" class="edge">
<title>center_dir&#45;&gt;forward</title>
<path fill="none" stroke="#00ff00" stroke-width=".1594" d="M209.522,-123.5083C207.3078,-115.3122 203.8866,-102.6479 200.4187,-89.8107"/>
<polygon fill="#00ff00" stroke="#00ff00" stroke-width=".1594" points="203.7638,-88.7727 197.7769,-80.0316 197.006,-90.5983 203.7638,-88.7727"/>
</g>
<!-- left -->
<g id="node7" class="node">
<title>left</title>
<ellipse fill="#add8e6" stroke="#000000" cx="266" cy="-43.8406" rx="22.7556" ry="22.7556"/>
<text text-anchor="middle" x="266" y="-41.6406" font-family="Times,serif" font-size="9.00" fill="#000000">left</text>
</g>
<!-- center_dir&#45;&gt;left -->
<g id="edge4" class="edge">
<title>center_dir&#45;&gt;left</title>
<path fill="none" stroke="#ff0000" stroke-width=".1734" d="M217.5756,-123.5083C224.8727,-111.503 237.997,-89.9111 248.7432,-72.2315"/>
<polygon fill="#ff0000" stroke="#ff0000" stroke-width=".1734" points="251.8992,-73.7776 254.1025,-63.4144 245.9175,-70.1417 251.8992,-73.7776"/>
</g>
<!-- right -->
<g id="node8" class="node">
<title>right</title>
<ellipse fill="#add8e6" stroke="#000000" cx="335" cy="-43.8406" rx="28.0702" ry="28.0702"/>
<text text-anchor="middle" x="335" y="-41.6406" font-family="Times,serif" font-size="9.00" fill="#000000">right</text>
</g>
<!-- center_dir&#45;&gt;right -->
<g id="edge3" class="edge">
<title>center_dir&#45;&gt;right</title>
<path fill="none" stroke="#ff0000" stroke-width=".6194" d="M234.9863,-123.5829C253.1877,-115.7162 278.6758,-103.1789 298,-87.6812 302.7783,-83.8491 307.3962,-79.3281 311.6549,-74.6702"/>
<polygon fill="#ff0000" stroke="#ff0000" stroke-width=".6194" points="314.5635,-76.6569 318.4479,-66.7998 309.2644,-72.0832 314.5635,-76.6569"/>
</g>
<!-- other_dist -->
<g id="node3" class="node">
<title>other_dist</title>
<polygon fill="#d3d3d3" stroke="#000000" points="325.5,-141.6812 262.5,-141.6812 262.5,-123.6812 325.5,-123.6812 325.5,-141.6812"/>
<text text-anchor="middle" x="294" y="-130.4812" font-family="Times,serif" font-size="9.00" fill="#000000">other_dist</text>
</g>
<!-- other_dist&#45;&gt;forward -->
<g id="edge5" class="edge">
<title>other_dist&#45;&gt;forward</title>
<path fill="none" stroke="#ff0000" stroke-width=".1026" d="M280.7839,-123.4537C268.3927,-114.6441 249.504,-100.8047 234,-87.6812 230.1002,-84.3803 226.106,-80.8388 222.1791,-77.252"/>
<polygon fill="#ff0000" stroke="#ff0000" stroke-width=".1026" points="224.4605,-74.594 214.753,-70.3495 219.6948,-79.7213 224.4605,-74.594"/>
</g>
<!-- other_dist&#45;&gt;left -->
<g id="edge6" class="edge">
<title>other_dist&#45;&gt;left</title>
<path fill="none" stroke="#00ff00" stroke-width=".1197" d="M291.109,-123.5083C287.5348,-112.168 281.2647,-92.2737 275.8846,-75.2032"/>
<polygon fill="#00ff00" stroke="#00ff00" stroke-width=".1197" points="279.1909,-74.05 272.8468,-65.5646 272.5147,-76.1542 279.1909,-74.05"/>
</g>
<!-- other_dist&#45;&gt;right -->
<g id="edge7" class="edge">
<title>other_dist&#45;&gt;right</title>
<path fill="none" stroke="#ff0000" stroke-width=".2498" d="M298.2333,-123.5083C303.0906,-112.9834 311.3483,-95.0901 318.8087,-78.9246"/>
<polygon fill="#ff0000" stroke="#ff0000" stroke-width=".2498" points="322.065,-80.2214 323.0774,-69.675 315.7092,-77.2881 322.065,-80.2214"/>
</g>
<!-- other_dir -->
<g id="node4" class="node">
<title>other_dir</title>
<polygon fill="#d3d3d3" stroke="#000000" points="145.5,-141.6812 86.5,-141.6812 86.5,-123.6812 145.5,-123.6812 145.5,-141.6812"/>
<text text-anchor="middle" x="116" y="-130.4812" font-family="Times,serif" font-size="9.00" fill="#000000">other_dir</text>
</g>
<!-- other_dir&#45;&gt;backward -->
<g id="edge8" class="edge">
<title>other_dir&#45;&gt;backward</title>
<path fill="none" stroke="#00ff00" stroke-width=".4638" d="M110.7342,-123.5083C106.1878,-115.5886 99.2464,-103.4969 92.1348,-91.1087"/>
<polygon fill="#00ff00" stroke="#00ff00" stroke-width=".4638" points="94.9722,-89.0211 86.9581,-82.0911 88.9014,-92.5062 94.9722,-89.0211"/>
</g>
</g>
</svg>
