<?xml version="1.0" encoding="UTF-8" standalone="no"?>
<!DOCTYPE svg PUBLIC "-//W3C//DTD SVG 1.1//EN"
 "http://www.w3.org/Graphics/SVG/1.1/DTD/svg11.dtd">
<!-- Generated by graphviz version 2.40.1 (20161225.0304)
 -->
<!-- Title: %3 Pages: 1 -->
<svg width="337pt" height="150pt"
 viewBox="0.00 0.00 337.48 149.68" xmlns="http://www.w3.org/2000/svg" xmlns:xlink="http://www.w3.org/1999/xlink">
<g id="graph0" class="graph" transform="scale(1 1) rotate(0) translate(4 145.6812)">
<title>%3</title>
<polygon fill="#ffffff" stroke="transparent" points="-4,4 -4,-145.6812 333.4767,-145.6812 333.4767,4 -4,4"/>
<!-- center_dist -->
<g id="node1" class="node">
<title>center_dist</title>
<polygon fill="#d3d3d3" stroke="#000000" points="68,-141.6812 0,-141.6812 0,-123.6812 68,-123.6812 68,-141.6812"/>
<text text-anchor="middle" x="34" y="-130.4812" font-family="Times,serif" font-size="9.00" fill="#000000">center_dist</text>
</g>
<!-- left -->
<g id="node7" class="node">
<title>left</title>
<ellipse fill="#add8e6" stroke="#000000" cx="34" cy="-43.8406" rx="22.7556" ry="22.7556"/>
<text text-anchor="middle" x="34" y="-41.6406" font-family="Times,serif" font-size="9.00" fill="#000000">left</text>
</g>
<!-- center_dist&#45;&gt;left -->
<g id="edge4" class="edge">
<title>center_dist&#45;&gt;left</title>
<path fill="none" stroke="#ff0000" stroke-width=".1163" d="M34,-123.5083C34,-112.4943 34,-93.4114 34,-76.6833"/>
<polygon fill="#ff0000" stroke="#ff0000" stroke-width=".1163" points="37.5001,-76.6652 34,-66.6652 30.5001,-76.6652 37.5001,-76.6652"/>
</g>
<!-- center_dir -->
<g id="node2" class="node">
<title>center_dir</title>
<polygon fill="#d3d3d3" stroke="#000000" points="156.5,-141.6812 91.5,-141.6812 91.5,-123.6812 156.5,-123.6812 156.5,-141.6812"/>
<text text-anchor="middle" x="124" y="-130.4812" font-family="Times,serif" font-size="9.00" fill="#000000">center_dir</text>
</g>
<!-- backward -->
<g id="node6" class="node">
<title>backward</title>
<ellipse fill="#add8e6" stroke="#000000" cx="118" cy="-43.8406" rx="43.6818" ry="43.6818"/>
<text text-anchor="middle" x="118" y="-41.6406" font-family="Times,serif" font-size="9.00" fill="#000000">backward</text>
</g>
<!-- center_dir&#45;&gt;backward -->
<g id="edge2" class="edge">
<title>center_dir&#45;&gt;backward</title>
<path fill="none" stroke="#ff0000" stroke-width=".4157" d="M123.3805,-123.5083C122.9448,-117.0579 122.3223,-107.8398 121.6542,-97.948"/>
<polygon fill="#ff0000" stroke="#ff0000" stroke-width=".4157" points="125.1422,-97.6506 120.9762,-87.9092 118.1581,-98.1223 125.1422,-97.6506"/>
</g>
<!-- right -->
<g id="node8" class="node">
<title>right</title>
<ellipse fill="#add8e6" stroke="#000000" cx="208" cy="-43.8406" rx="28.0702" ry="28.0702"/>
<text text-anchor="middle" x="208" y="-41.6406" font-family="Times,serif" font-size="9.00" fill="#000000">right</text>
</g>
<!-- center_dir&#45;&gt;right -->
<g id="edge3" class="edge">
<title>center_dir&#45;&gt;right</title>
<path fill="none" stroke="#ff0000" stroke-width=".3221" d="M134.0175,-123.6664C143.7413,-114.7837 158.7807,-100.6916 171,-87.6812 175.1059,-83.3095 179.3275,-78.5687 183.3831,-73.8743"/>
<polygon fill="#ff0000" stroke="#ff0000" stroke-width=".3221" points="186.1899,-75.9765 190.0021,-66.0912 180.8574,-71.4416 186.1899,-75.9765"/>
</g>
<!-- other_dist -->
<g id="node3" class="node">
<title>other_dist</title>
<polygon fill="#d3d3d3" stroke="#000000" points="320.5,-141.6812 257.5,-141.6812 257.5,-123.6812 320.5,-123.6812 320.5,-141.6812"/>
<text text-anchor="middle" x="289" y="-130.4812" font-family="Times,serif" font-size="9.00" fill="#000000">other_dist</text>
</g>
<!-- forward -->
<g id="node5" class="node">
<title>forward</title>
<ellipse fill="#add8e6" stroke="#000000" cx="292" cy="-43.8406" rx="37.4533" ry="37.4533"/>
<text text-anchor="middle" x="292" y="-41.6406" font-family="Times,serif" font-size="9.00" fill="#000000">forward</text>
</g>
<!-- other_dist&#45;&gt;forward -->
<g id="edge5" class="edge">
<title>other_dist&#45;&gt;forward</title>
<path fill="none" stroke="#00ff00" stroke-width=".214" d="M289.3098,-123.5083C289.5717,-115.75 289.9689,-103.9881 290.3783,-91.8657"/>
<polygon fill="#00ff00" stroke="#00ff00" stroke-width=".214" points="293.8827,-91.7905 290.7223,-81.6781 286.8867,-91.5542 293.8827,-91.7905"/>
</g>
<!-- other_dist&#45;&gt;right -->
<g id="edge1" class="edge">
<title>other_dist&#45;&gt;right</title>
<path fill="none" stroke="#00ff00" stroke-width=".3314" d="M279.9726,-123.4975C271.1783,-114.4896 257.4922,-100.3075 246,-87.6812 241.7287,-82.9884 237.2582,-77.9502 232.9454,-73.0209"/>
<polygon fill="#00ff00" stroke="#00ff00" stroke-width=".3314" points="235.5502,-70.6825 226.3492,-65.4297 230.2663,-75.2739 235.5502,-70.6825"/>
</g>
<!-- other_dir -->
<g id="node4" class="node">
<title>other_dir</title>
<polygon fill="#d3d3d3" stroke="#000000" points="237.5,-141.6812 178.5,-141.6812 178.5,-123.6812 237.5,-123.6812 237.5,-141.6812"/>
<text text-anchor="middle" x="208" y="-130.4812" font-family="Times,serif" font-size="9.00" fill="#000000">other_dir</text>
</g>
<!-- other_dir&#45;&gt;forward -->
<g id="edge8" class="edge">
<title>other_dir&#45;&gt;forward</title>
<path fill="none" stroke="#ff0000" stroke-width=".1631" d="M216.6731,-123.5083C226.7058,-112.8975 243.8195,-94.7976 259.2015,-78.5292"/>
<polygon fill="#ff0000" stroke="#ff0000" stroke-width=".1631" points="261.7882,-80.8878 266.1154,-71.2169 256.7018,-76.0785 261.7882,-80.8878"/>
</g>
<!-- other_dir&#45;&gt;backward -->
<g id="edge6" class="edge">
<title>other_dir&#45;&gt;backward</title>
<path fill="none" stroke="#00ff00" stroke-width=".1401" d="M198.7074,-123.5083C188.7496,-113.6788 172.2813,-97.4227 156.8085,-82.1492"/>
<polygon fill="#00ff00" stroke="#00ff00" stroke-width=".1401" points="158.9012,-79.297 149.3256,-74.7627 153.9836,-84.2787 158.9012,-79.297"/>
</g>
<!-- other_dir&#45;&gt;right -->
<g id="edge7" class="edge">
<title>other_dir&#45;&gt;right</title>
<path fill="none" stroke="#00ff00" stroke-width=".1758" d="M208,-123.5083C208,-113.7827 208,-97.7656 208,-82.6339"/>
<polygon fill="#00ff00" stroke="#00ff00" stroke-width=".1758" points="211.5001,-82.3877 208,-72.3877 204.5001,-82.3877 211.5001,-82.3877"/>
</g>
</g>
</svg>
