<?xml version="1.0" encoding="UTF-8" standalone="no"?>
<!DOCTYPE svg PUBLIC "-//W3C//DTD SVG 1.1//EN"
 "http://www.w3.org/Graphics/SVG/1.1/DTD/svg11.dtd">
<!-- Generated by graphviz version 2.40.1 (20161225.0304)
 -->
<!-- Title: %3 Pages: 1 -->
<svg width="333pt" height="150pt"
 viewBox="0.00 0.00 333.34 149.68" xmlns="http://www.w3.org/2000/svg" xmlns:xlink="http://www.w3.org/1999/xlink">
<g id="graph0" class="graph" transform="scale(1 1) rotate(0) translate(4 145.6812)">
<title>%3</title>
<polygon fill="#ffffff" stroke="transparent" points="-4,4 -4,-145.6812 329.3406,-145.6812 329.3406,4 -4,4"/>
<!-- center_dist -->
<g id="node1" class="node">
<title>center_dist</title>
<polygon fill="#d3d3d3" stroke="#000000" points="152.5,-141.6812 84.5,-141.6812 84.5,-123.6812 152.5,-123.6812 152.5,-141.6812"/>
<text text-anchor="middle" x="118.5" y="-130.4812" font-family="Times,serif" font-size="9.00" fill="#000000">center_dist</text>
</g>
<!-- left -->
<g id="node7" class="node">
<title>left</title>
<ellipse fill="#add8e6" stroke="#000000" cx="29.5" cy="-43.8406" rx="22.7556" ry="22.7556"/>
<text text-anchor="middle" x="29.5" y="-41.6406" font-family="Times,serif" font-size="9.00" fill="#000000">left</text>
</g>
<!-- center_dist&#45;&gt;left -->
<g id="edge2" class="edge">
<title>center_dist&#45;&gt;left</title>
<path fill="none" stroke="#ff0000" stroke-width=".2086" d="M104.9783,-123.6035C92.8591,-115.111 74.9678,-101.6675 61.5,-87.6812 56.6694,-82.6647 51.9609,-76.8907 47.7066,-71.2148"/>
<polygon fill="#ff0000" stroke="#ff0000" stroke-width=".2086" points="50.5227,-69.136 41.8372,-63.0686 44.8433,-73.2281 50.5227,-69.136"/>
</g>
<!-- right -->
<g id="node8" class="node">
<title>right</title>
<ellipse fill="#add8e6" stroke="#000000" cx="191.5" cy="-43.8406" rx="28.0702" ry="28.0702"/>
<text text-anchor="middle" x="191.5" y="-41.6406" font-family="Times,serif" font-size="9.00" fill="#000000">right</text>
</g>
<!-- center_dist&#45;&gt;right -->
<g id="edge4" class="edge">
<title>center_dist&#45;&gt;right</title>
<path fill="none" stroke="#ff0000" stroke-width=".1744" d="M126.0373,-123.5083C135.5543,-111.9263 152.4029,-91.4216 166.6233,-74.1154"/>
<polygon fill="#ff0000" stroke="#ff0000" stroke-width=".1744" points="169.7051,-75.878 173.3495,-65.9297 164.2967,-71.4339 169.7051,-75.878"/>
</g>
<!-- center_dir -->
<g id="node2" class="node">
<title>center_dir</title>
<polygon fill="#d3d3d3" stroke="#000000" points="65,-141.6812 0,-141.6812 0,-123.6812 65,-123.6812 65,-141.6812"/>
<text text-anchor="middle" x="32.5" y="-130.4812" font-family="Times,serif" font-size="9.00" fill="#000000">center_dir</text>
</g>
<!-- forward -->
<g id="node5" class="node">
<title>forward</title>
<ellipse fill="#add8e6" stroke="#000000" cx="107.5" cy="-43.8406" rx="37.4533" ry="37.4533"/>
<text text-anchor="middle" x="107.5" y="-41.6406" font-family="Times,serif" font-size="9.00" fill="#000000">forward</text>
</g>
<!-- center_dir&#45;&gt;forward -->
<g id="edge3" class="edge">
<title>center_dir&#45;&gt;forward</title>
<path fill="none" stroke="#00ff00" stroke-width=".4604" d="M40.2438,-123.5083C48.7853,-113.3907 63.0749,-96.464 76.2913,-80.8086"/>
<polygon fill="#00ff00" stroke="#00ff00" stroke-width=".4604" points="79.2923,-82.6795 83.0687,-72.7806 73.9434,-78.164 79.2923,-82.6795"/>
</g>
<!-- center_dir&#45;&gt;left -->
<g id="edge5" class="edge">
<title>center_dir&#45;&gt;left</title>
<path fill="none" stroke="#ff0000" stroke-width=".1369" d="M32.1902,-123.5083C31.8183,-112.4943 31.1739,-93.4114 30.609,-76.6833"/>
<polygon fill="#ff0000" stroke="#ff0000" stroke-width=".1369" points="34.1063,-76.5413 30.2707,-66.6652 27.1103,-76.7776 34.1063,-76.5413"/>
</g>
<!-- other_dist -->
<g id="node3" class="node">
<title>other_dist</title>
<polygon fill="#d3d3d3" stroke="#000000" points="312,-141.6812 249,-141.6812 249,-123.6812 312,-123.6812 312,-141.6812"/>
<text text-anchor="middle" x="280.5" y="-130.4812" font-family="Times,serif" font-size="9.00" fill="#000000">other_dist</text>
</g>
<!-- backward -->
<g id="node6" class="node">
<title>backward</title>
<ellipse fill="#add8e6" stroke="#000000" cx="281.5" cy="-43.8406" rx="43.6818" ry="43.6818"/>
<text text-anchor="middle" x="281.5" y="-41.6406" font-family="Times,serif" font-size="9.00" fill="#000000">backward</text>
</g>
<!-- other_dist&#45;&gt;backward -->
<g id="edge6" class="edge">
<title>other_dist&#45;&gt;backward</title>
<path fill="none" stroke="#00ff00" stroke-width=".1792" d="M280.6033,-123.5083C280.6759,-117.0579 280.7796,-107.8398 280.891,-97.948"/>
<polygon fill="#00ff00" stroke="#00ff00" stroke-width=".1792" points="284.3911,-97.948 281.004,-87.9092 277.3915,-97.8691 284.3911,-97.948"/>
</g>
<!-- other_dist&#45;&gt;right -->
<g id="edge1" class="edge">
<title>other_dist&#45;&gt;right</title>
<path fill="none" stroke="#ff0000" stroke-width=".1853" d="M268.8863,-123.512C258.0344,-114.7437 241.5878,-100.9321 228.5,-87.6812 224.2854,-83.4142 220.0063,-78.7288 215.9262,-74.0579"/>
<polygon fill="#ff0000" stroke="#ff0000" stroke-width=".1853" points="218.4483,-71.6216 209.2942,-66.2874 213.1239,-76.1659 218.4483,-71.6216"/>
</g>
<!-- other_dir -->
<g id="node4" class="node">
<title>other_dir</title>
<polygon fill="#d3d3d3" stroke="#000000" points="231,-141.6812 172,-141.6812 172,-123.6812 231,-123.6812 231,-141.6812"/>
<text text-anchor="middle" x="201.5" y="-130.4812" font-family="Times,serif" font-size="9.00" fill="#000000">other_dir</text>
</g>
<!-- other_dir&#45;&gt;forward -->
<g id="edge8" class="edge">
<title>other_dir&#45;&gt;forward</title>
<path fill="none" stroke="#ff0000" stroke-width=".3628" d="M191.7944,-123.5083C180.1378,-112.4915 159.9394,-93.4018 142.2366,-76.6707"/>
<polygon fill="#ff0000" stroke="#ff0000" stroke-width=".3628" points="144.5065,-74.0001 134.8347,-69.675 139.6983,-79.0875 144.5065,-74.0001"/>
</g>
<!-- other_dir&#45;&gt;backward -->
<g id="edge7" class="edge">
<title>other_dir&#45;&gt;backward</title>
<path fill="none" stroke="#ff0000" stroke-width=".3475" d="M209.7601,-123.5083C218.191,-114.1457 231.8724,-98.9524 245.0385,-84.3314"/>
<polygon fill="#ff0000" stroke="#ff0000" stroke-width=".3475" points="247.7552,-86.5449 251.8459,-76.7717 242.5534,-81.8607 247.7552,-86.5449"/>
</g>
</g>
</svg>
