<?xml version="1.0" encoding="UTF-8" standalone="no"?>
<!DOCTYPE svg PUBLIC "-//W3C//DTD SVG 1.1//EN"
 "http://www.w3.org/Graphics/SVG/1.1/DTD/svg11.dtd">
<!-- Generated by graphviz version 2.40.1 (20161225.0304)
 -->
<!-- Title: %3 Pages: 1 -->
<svg width="330pt" height="150pt"
 viewBox="0.00 0.00 330.34 149.68" xmlns="http://www.w3.org/2000/svg" xmlns:xlink="http://www.w3.org/1999/xlink">
<g id="graph0" class="graph" transform="scale(1 1) rotate(0) translate(4 145.6812)">
<title>%3</title>
<polygon fill="#ffffff" stroke="transparent" points="-4,4 -4,-145.6812 326.3406,-145.6812 326.3406,4 -4,4"/>
<!-- center_dist -->
<g id="node1" class="node">
<title>center_dist</title>
<polygon fill="#d3d3d3" stroke="#000000" points="77.8406,-141.6812 9.8406,-141.6812 9.8406,-123.6812 77.8406,-123.6812 77.8406,-141.6812"/>
<text text-anchor="middle" x="43.8406" y="-130.4812" font-family="Times,serif" font-size="9.00" fill="#000000">center_dist</text>
</g>
<!-- backward -->
<g id="node6" class="node">
<title>backward</title>
<ellipse fill="#add8e6" stroke="#000000" cx="43.8406" cy="-43.8406" rx="43.6818" ry="43.6818"/>
<text text-anchor="middle" x="43.8406" y="-41.6406" font-family="Times,serif" font-size="9.00" fill="#000000">backward</text>
</g>
<!-- center_dist&#45;&gt;backward -->
<g id="edge1" class="edge">
<title>center_dist&#45;&gt;backward</title>
<path fill="none" stroke="#00ff00" stroke-width=".3634" d="M43.8406,-123.5083C43.8406,-117.0579 43.8406,-107.8398 43.8406,-97.948"/>
<polygon fill="#00ff00" stroke="#00ff00" stroke-width=".3634" points="47.3407,-97.9091 43.8406,-87.9092 40.3407,-97.9092 47.3407,-97.9091"/>
</g>
<!-- center_dir -->
<g id="node2" class="node">
<title>center_dir</title>
<polygon fill="#d3d3d3" stroke="#000000" points="322.3406,-141.6812 257.3406,-141.6812 257.3406,-123.6812 322.3406,-123.6812 322.3406,-141.6812"/>
<text text-anchor="middle" x="289.8406" y="-130.4812" font-family="Times,serif" font-size="9.00" fill="#000000">center_dir</text>
</g>
<!-- left -->
<g id="node7" class="node">
<title>left</title>
<ellipse fill="#add8e6" stroke="#000000" cx="220.8406" cy="-43.8406" rx="22.7556" ry="22.7556"/>
<text text-anchor="middle" x="220.8406" y="-41.6406" font-family="Times,serif" font-size="9.00" fill="#000000">left</text>
</g>
<!-- center_dir&#45;&gt;left -->
<g id="edge3" class="edge">
<title>center_dir&#45;&gt;left</title>
<path fill="none" stroke="#00ff00" stroke-width=".301" d="M282.0293,-123.4996C274.4298,-114.4933 262.6301,-100.3122 252.8406,-87.6812 248.5744,-82.1767 244.1044,-76.1965 239.9038,-70.4741"/>
<polygon fill="#00ff00" stroke="#00ff00" stroke-width=".301" points="242.7123,-68.3851 233.9975,-62.36 237.0529,-72.5047 242.7123,-68.3851"/>
</g>
<!-- right -->
<g id="node8" class="node">
<title>right</title>
<ellipse fill="#add8e6" stroke="#000000" cx="289.8406" cy="-43.8406" rx="28.0702" ry="28.0702"/>
<text text-anchor="middle" x="289.8406" y="-41.6406" font-family="Times,serif" font-size="9.00" fill="#000000">right</text>
</g>
<!-- center_dir&#45;&gt;right -->
<g id="edge2" class="edge">
<title>center_dir&#45;&gt;right</title>
<path fill="none" stroke="#00ff00" stroke-width=".6118" d="M289.8406,-123.5083C289.8406,-113.7827 289.8406,-97.7656 289.8406,-82.6339"/>
<polygon fill="#00ff00" stroke="#00ff00" stroke-width=".6118" points="293.3407,-82.3877 289.8406,-72.3877 286.3407,-82.3877 293.3407,-82.3877"/>
</g>
<!-- other_dist -->
<g id="node3" class="node">
<title>other_dist</title>
<polygon fill="#d3d3d3" stroke="#000000" points="162.3406,-141.6812 99.3406,-141.6812 99.3406,-123.6812 162.3406,-123.6812 162.3406,-141.6812"/>
<text text-anchor="middle" x="130.8406" y="-130.4812" font-family="Times,serif" font-size="9.00" fill="#000000">other_dist</text>
</g>
<!-- forward -->
<g id="node5" class="node">
<title>forward</title>
<ellipse fill="#add8e6" stroke="#000000" cx="142.8406" cy="-43.8406" rx="37.4533" ry="37.4533"/>
<text text-anchor="middle" x="142.8406" y="-41.6406" font-family="Times,serif" font-size="9.00" fill="#000000">forward</text>
</g>
<!-- other_dist&#45;&gt;forward -->
<g id="edge7" class="edge">
<title>other_dist&#45;&gt;forward</title>
<path fill="none" stroke="#00ff00" stroke-width=".3718" d="M132.0796,-123.5083C133.1369,-115.6808 134.7447,-103.7777 136.3976,-91.5409"/>
<polygon fill="#00ff00" stroke="#00ff00" stroke-width=".3718" points="139.9153,-91.6441 137.7855,-81.2656 132.9783,-90.7071 139.9153,-91.6441"/>
</g>
<!-- other_dist&#45;&gt;backward -->
<g id="edge5" class="edge">
<title>other_dist&#45;&gt;backward</title>
<path fill="none" stroke="#ff0000" stroke-width=".2936" d="M121.8578,-123.5083C112.3811,-113.8312 96.8047,-97.9252 82.0519,-82.8603"/>
<polygon fill="#ff0000" stroke="#ff0000" stroke-width=".2936" points="84.4034,-80.2592 74.9061,-75.5633 79.4021,-85.1569 84.4034,-80.2592"/>
</g>
<!-- other_dist&#45;&gt;left -->
<g id="edge6" class="edge">
<title>other_dist&#45;&gt;left</title>
<path fill="none" stroke="#ff0000" stroke-width=".3448" d="M144.6142,-123.6483C156.9558,-115.186 175.1673,-101.7616 188.8406,-87.6812 193.6924,-82.6851 198.4098,-76.9198 202.6661,-71.2458"/>
<polygon fill="#ff0000" stroke="#ff0000" stroke-width=".3448" points="205.5299,-73.2583 208.5341,-63.0983 199.8497,-69.1673 205.5299,-73.2583"/>
</g>
<!-- other_dir -->
<g id="node4" class="node">
<title>other_dir</title>
<polygon fill="#d3d3d3" stroke="#000000" points="239.3406,-141.6812 180.3406,-141.6812 180.3406,-123.6812 239.3406,-123.6812 239.3406,-141.6812"/>
<text text-anchor="middle" x="209.8406" y="-130.4812" font-family="Times,serif" font-size="9.00" fill="#000000">other_dir</text>
</g>
<!-- other_dir&#45;&gt;forward -->
<g id="edge8" class="edge">
<title>other_dir&#45;&gt;forward</title>
<path fill="none" stroke="#ff0000" stroke-width=".2868" d="M202.9228,-123.5083C195.5317,-113.7079 183.3226,-97.5188 171.8337,-82.2848"/>
<polygon fill="#ff0000" stroke="#ff0000" stroke-width=".2868" points="174.376,-79.843 165.5603,-73.9664 168.7871,-84.0579 174.376,-79.843"/>
</g>
<!-- other_dir&#45;&gt;right -->
<g id="edge4" class="edge">
<title>other_dir&#45;&gt;right</title>
<path fill="none" stroke="#ff0000" stroke-width=".1202" d="M218.9047,-123.5307C227.7262,-114.5474 241.4318,-100.3829 252.8406,-87.6812 256.8484,-83.2193 261.0179,-78.4308 265.0515,-73.7161"/>
<polygon fill="#ff0000" stroke="#ff0000" stroke-width=".1202" points="267.862,-75.8133 271.6585,-65.9221 262.5224,-71.2868 267.862,-75.8133"/>
</g>
</g>
</svg>
