<?xml version="1.0" encoding="utf-8" standalone="no"?>
<!DOCTYPE svg PUBLIC "-//W3C//DTD SVG 1.1//EN"
  "http://www.w3.org/Graphics/SVG/1.1/DTD/svg11.dtd">
<!-- Created with matplotlib (http://matplotlib.org/) -->
<svg height="345pt" version="1.1" viewBox="0 0 460 345" width="460pt" xmlns="http://www.w3.org/2000/svg" xmlns:xlink="http://www.w3.org/1999/xlink">
 <defs>
  <style type="text/css">
*{stroke-linecap:butt;stroke-linejoin:round;}
  </style>
 </defs>
 <g id="figure_1">
  <g id="patch_1">
   <path d="M 0 345.6 
L 460.8 345.6 
L 460.8 0 
L 0 0 
z
" style="fill:#ffffff;"/>
  </g>
  <g id="axes_1">
   <g id="patch_2">
    <path d="M 57.6 307.584 
L 414.72 307.584 
L 414.72 41.472 
L 57.6 41.472 
z
" style="fill:#ffffff;"/>
   </g>
   <g id="matplotlib.axis_1">
    <g id="xtick_1">
     <g id="line2d_1">
      <path clip-path="url(#p3ce6088ad6)" d="M 73.832727 307.584 
L 73.832727 41.472 
" style="fill:none;stroke:#b0b0b0;stroke-linecap:square;stroke-width:0.8;"/>
     </g>
     <g id="line2d_2">
      <defs>
       <path d="M 0 0 
L 0 3.5 
" id="m32fa808d9a" style="stroke:#000000;stroke-width:0.8;"/>
      </defs>
      <g>
       <use style="stroke:#000000;stroke-width:0.8;" x="73.832727" xlink:href="#m32fa808d9a" y="307.584"/>
      </g>
     </g>
     <g id="text_1">
      <!-- 0 -->
      <defs>
       <path d="M 31.78125 66.40625 
Q 24.171875 66.40625 20.328125 58.90625 
Q 16.5 51.421875 16.5 36.375 
Q 16.5 21.390625 20.328125 13.890625 
Q 24.171875 6.390625 31.78125 6.390625 
Q 39.453125 6.390625 43.28125 13.890625 
Q 47.125 21.390625 47.125 36.375 
Q 47.125 51.421875 43.28125 58.90625 
Q 39.453125 66.40625 31.78125 66.40625 
z
M 31.78125 74.21875 
Q 44.046875 74.21875 50.515625 64.515625 
Q 56.984375 54.828125 56.984375 36.375 
Q 56.984375 17.96875 50.515625 8.265625 
Q 44.046875 -1.421875 31.78125 -1.421875 
Q 19.53125 -1.421875 13.0625 8.265625 
Q 6.59375 17.96875 6.59375 36.375 
Q 6.59375 54.828125 13.0625 64.515625 
Q 19.53125 74.21875 31.78125 74.21875 
z
" id="DejaVuSans-30"/>
      </defs>
      <g transform="translate(70.651477 322.182437)scale(0.1 -0.1)">
       <use xlink:href="#DejaVuSans-30"/>
      </g>
     </g>
    </g>
    <g id="xtick_2">
     <g id="line2d_3">
      <path clip-path="url(#p3ce6088ad6)" d="M 138.828632 307.584 
L 138.828632 41.472 
" style="fill:none;stroke:#b0b0b0;stroke-linecap:square;stroke-width:0.8;"/>
     </g>
     <g id="line2d_4">
      <g>
       <use style="stroke:#000000;stroke-width:0.8;" x="138.828632" xlink:href="#m32fa808d9a" y="307.584"/>
      </g>
     </g>
     <g id="text_2">
      <!-- 200 -->
      <defs>
       <path d="M 19.1875 8.296875 
L 53.609375 8.296875 
L 53.609375 0 
L 7.328125 0 
L 7.328125 8.296875 
Q 12.9375 14.109375 22.625 23.890625 
Q 32.328125 33.6875 34.8125 36.53125 
Q 39.546875 41.84375 41.421875 45.53125 
Q 43.3125 49.21875 43.3125 52.78125 
Q 43.3125 58.59375 39.234375 62.25 
Q 35.15625 65.921875 28.609375 65.921875 
Q 23.96875 65.921875 18.8125 64.3125 
Q 13.671875 62.703125 7.8125 59.421875 
L 7.8125 69.390625 
Q 13.765625 71.78125 18.9375 73 
Q 24.125 74.21875 28.421875 74.21875 
Q 39.75 74.21875 46.484375 68.546875 
Q 53.21875 62.890625 53.21875 53.421875 
Q 53.21875 48.921875 51.53125 44.890625 
Q 49.859375 40.875 45.40625 35.40625 
Q 44.1875 33.984375 37.640625 27.21875 
Q 31.109375 20.453125 19.1875 8.296875 
z
" id="DejaVuSans-32"/>
      </defs>
      <g transform="translate(129.284882 322.182437)scale(0.1 -0.1)">
       <use xlink:href="#DejaVuSans-32"/>
       <use x="63.623047" xlink:href="#DejaVuSans-30"/>
       <use x="127.246094" xlink:href="#DejaVuSans-30"/>
      </g>
     </g>
    </g>
    <g id="xtick_3">
     <g id="line2d_5">
      <path clip-path="url(#p3ce6088ad6)" d="M 203.824537 307.584 
L 203.824537 41.472 
" style="fill:none;stroke:#b0b0b0;stroke-linecap:square;stroke-width:0.8;"/>
     </g>
     <g id="line2d_6">
      <g>
       <use style="stroke:#000000;stroke-width:0.8;" x="203.824537" xlink:href="#m32fa808d9a" y="307.584"/>
      </g>
     </g>
     <g id="text_3">
      <!-- 400 -->
      <defs>
       <path d="M 37.796875 64.3125 
L 12.890625 25.390625 
L 37.796875 25.390625 
z
M 35.203125 72.90625 
L 47.609375 72.90625 
L 47.609375 25.390625 
L 58.015625 25.390625 
L 58.015625 17.1875 
L 47.609375 17.1875 
L 47.609375 0 
L 37.796875 0 
L 37.796875 17.1875 
L 4.890625 17.1875 
L 4.890625 26.703125 
z
" id="DejaVuSans-34"/>
      </defs>
      <g transform="translate(194.280787 322.182437)scale(0.1 -0.1)">
       <use xlink:href="#DejaVuSans-34"/>
       <use x="63.623047" xlink:href="#DejaVuSans-30"/>
       <use x="127.246094" xlink:href="#DejaVuSans-30"/>
      </g>
     </g>
    </g>
    <g id="xtick_4">
     <g id="line2d_7">
      <path clip-path="url(#p3ce6088ad6)" d="M 268.820442 307.584 
L 268.820442 41.472 
" style="fill:none;stroke:#b0b0b0;stroke-linecap:square;stroke-width:0.8;"/>
     </g>
     <g id="line2d_8">
      <g>
       <use style="stroke:#000000;stroke-width:0.8;" x="268.820442" xlink:href="#m32fa808d9a" y="307.584"/>
      </g>
     </g>
     <g id="text_4">
      <!-- 600 -->
      <defs>
       <path d="M 33.015625 40.375 
Q 26.375 40.375 22.484375 35.828125 
Q 18.609375 31.296875 18.609375 23.390625 
Q 18.609375 15.53125 22.484375 10.953125 
Q 26.375 6.390625 33.015625 6.390625 
Q 39.65625 6.390625 43.53125 10.953125 
Q 47.40625 15.53125 47.40625 23.390625 
Q 47.40625 31.296875 43.53125 35.828125 
Q 39.65625 40.375 33.015625 40.375 
z
M 52.59375 71.296875 
L 52.59375 62.3125 
Q 48.875 64.0625 45.09375 64.984375 
Q 41.3125 65.921875 37.59375 65.921875 
Q 27.828125 65.921875 22.671875 59.328125 
Q 17.53125 52.734375 16.796875 39.40625 
Q 19.671875 43.65625 24.015625 45.921875 
Q 28.375 48.1875 33.59375 48.1875 
Q 44.578125 48.1875 50.953125 41.515625 
Q 57.328125 34.859375 57.328125 23.390625 
Q 57.328125 12.15625 50.6875 5.359375 
Q 44.046875 -1.421875 33.015625 -1.421875 
Q 20.359375 -1.421875 13.671875 8.265625 
Q 6.984375 17.96875 6.984375 36.375 
Q 6.984375 53.65625 15.1875 63.9375 
Q 23.390625 74.21875 37.203125 74.21875 
Q 40.921875 74.21875 44.703125 73.484375 
Q 48.484375 72.75 52.59375 71.296875 
z
" id="DejaVuSans-36"/>
      </defs>
      <g transform="translate(259.276692 322.182437)scale(0.1 -0.1)">
       <use xlink:href="#DejaVuSans-36"/>
       <use x="63.623047" xlink:href="#DejaVuSans-30"/>
       <use x="127.246094" xlink:href="#DejaVuSans-30"/>
      </g>
     </g>
    </g>
    <g id="xtick_5">
     <g id="line2d_9">
      <path clip-path="url(#p3ce6088ad6)" d="M 333.816347 307.584 
L 333.816347 41.472 
" style="fill:none;stroke:#b0b0b0;stroke-linecap:square;stroke-width:0.8;"/>
     </g>
     <g id="line2d_10">
      <g>
       <use style="stroke:#000000;stroke-width:0.8;" x="333.816347" xlink:href="#m32fa808d9a" y="307.584"/>
      </g>
     </g>
     <g id="text_5">
      <!-- 800 -->
      <defs>
       <path d="M 31.78125 34.625 
Q 24.75 34.625 20.71875 30.859375 
Q 16.703125 27.09375 16.703125 20.515625 
Q 16.703125 13.921875 20.71875 10.15625 
Q 24.75 6.390625 31.78125 6.390625 
Q 38.8125 6.390625 42.859375 10.171875 
Q 46.921875 13.96875 46.921875 20.515625 
Q 46.921875 27.09375 42.890625 30.859375 
Q 38.875 34.625 31.78125 34.625 
z
M 21.921875 38.8125 
Q 15.578125 40.375 12.03125 44.71875 
Q 8.5 49.078125 8.5 55.328125 
Q 8.5 64.0625 14.71875 69.140625 
Q 20.953125 74.21875 31.78125 74.21875 
Q 42.671875 74.21875 48.875 69.140625 
Q 55.078125 64.0625 55.078125 55.328125 
Q 55.078125 49.078125 51.53125 44.71875 
Q 48 40.375 41.703125 38.8125 
Q 48.828125 37.15625 52.796875 32.3125 
Q 56.78125 27.484375 56.78125 20.515625 
Q 56.78125 9.90625 50.3125 4.234375 
Q 43.84375 -1.421875 31.78125 -1.421875 
Q 19.734375 -1.421875 13.25 4.234375 
Q 6.78125 9.90625 6.78125 20.515625 
Q 6.78125 27.484375 10.78125 32.3125 
Q 14.796875 37.15625 21.921875 38.8125 
z
M 18.3125 54.390625 
Q 18.3125 48.734375 21.84375 45.5625 
Q 25.390625 42.390625 31.78125 42.390625 
Q 38.140625 42.390625 41.71875 45.5625 
Q 45.3125 48.734375 45.3125 54.390625 
Q 45.3125 60.0625 41.71875 63.234375 
Q 38.140625 66.40625 31.78125 66.40625 
Q 25.390625 66.40625 21.84375 63.234375 
Q 18.3125 60.0625 18.3125 54.390625 
z
" id="DejaVuSans-38"/>
      </defs>
      <g transform="translate(324.272597 322.182437)scale(0.1 -0.1)">
       <use xlink:href="#DejaVuSans-38"/>
       <use x="63.623047" xlink:href="#DejaVuSans-30"/>
       <use x="127.246094" xlink:href="#DejaVuSans-30"/>
      </g>
     </g>
    </g>
    <g id="xtick_6">
     <g id="line2d_11">
      <path clip-path="url(#p3ce6088ad6)" d="M 398.812252 307.584 
L 398.812252 41.472 
" style="fill:none;stroke:#b0b0b0;stroke-linecap:square;stroke-width:0.8;"/>
     </g>
     <g id="line2d_12">
      <g>
       <use style="stroke:#000000;stroke-width:0.8;" x="398.812252" xlink:href="#m32fa808d9a" y="307.584"/>
      </g>
     </g>
     <g id="text_6">
      <!-- 1000 -->
      <defs>
       <path d="M 12.40625 8.296875 
L 28.515625 8.296875 
L 28.515625 63.921875 
L 10.984375 60.40625 
L 10.984375 69.390625 
L 28.421875 72.90625 
L 38.28125 72.90625 
L 38.28125 8.296875 
L 54.390625 8.296875 
L 54.390625 0 
L 12.40625 0 
z
" id="DejaVuSans-31"/>
      </defs>
      <g transform="translate(386.087252 322.182437)scale(0.1 -0.1)">
       <use xlink:href="#DejaVuSans-31"/>
       <use x="63.623047" xlink:href="#DejaVuSans-30"/>
       <use x="127.246094" xlink:href="#DejaVuSans-30"/>
       <use x="190.869141" xlink:href="#DejaVuSans-30"/>
      </g>
     </g>
    </g>
    <g id="text_7">
     <!-- Generations -->
     <defs>
      <path d="M 59.515625 10.40625 
L 59.515625 29.984375 
L 43.40625 29.984375 
L 43.40625 38.09375 
L 69.28125 38.09375 
L 69.28125 6.78125 
Q 63.578125 2.734375 56.6875 0.65625 
Q 49.8125 -1.421875 42 -1.421875 
Q 24.90625 -1.421875 15.25 8.5625 
Q 5.609375 18.5625 5.609375 36.375 
Q 5.609375 54.25 15.25 64.234375 
Q 24.90625 74.21875 42 74.21875 
Q 49.125 74.21875 55.546875 72.453125 
Q 61.96875 70.703125 67.390625 67.28125 
L 67.390625 56.78125 
Q 61.921875 61.421875 55.765625 63.765625 
Q 49.609375 66.109375 42.828125 66.109375 
Q 29.4375 66.109375 22.71875 58.640625 
Q 16.015625 51.171875 16.015625 36.375 
Q 16.015625 21.625 22.71875 14.15625 
Q 29.4375 6.6875 42.828125 6.6875 
Q 48.046875 6.6875 52.140625 7.59375 
Q 56.25 8.5 59.515625 10.40625 
z
" id="DejaVuSans-47"/>
      <path d="M 56.203125 29.59375 
L 56.203125 25.203125 
L 14.890625 25.203125 
Q 15.484375 15.921875 20.484375 11.0625 
Q 25.484375 6.203125 34.421875 6.203125 
Q 39.59375 6.203125 44.453125 7.46875 
Q 49.3125 8.734375 54.109375 11.28125 
L 54.109375 2.78125 
Q 49.265625 0.734375 44.1875 -0.34375 
Q 39.109375 -1.421875 33.890625 -1.421875 
Q 20.796875 -1.421875 13.15625 6.1875 
Q 5.515625 13.8125 5.515625 26.8125 
Q 5.515625 40.234375 12.765625 48.109375 
Q 20.015625 56 32.328125 56 
Q 43.359375 56 49.78125 48.890625 
Q 56.203125 41.796875 56.203125 29.59375 
z
M 47.21875 32.234375 
Q 47.125 39.59375 43.09375 43.984375 
Q 39.0625 48.390625 32.421875 48.390625 
Q 24.90625 48.390625 20.390625 44.140625 
Q 15.875 39.890625 15.1875 32.171875 
z
" id="DejaVuSans-65"/>
      <path d="M 54.890625 33.015625 
L 54.890625 0 
L 45.90625 0 
L 45.90625 32.71875 
Q 45.90625 40.484375 42.875 44.328125 
Q 39.84375 48.1875 33.796875 48.1875 
Q 26.515625 48.1875 22.3125 43.546875 
Q 18.109375 38.921875 18.109375 30.90625 
L 18.109375 0 
L 9.078125 0 
L 9.078125 54.6875 
L 18.109375 54.6875 
L 18.109375 46.1875 
Q 21.34375 51.125 25.703125 53.5625 
Q 30.078125 56 35.796875 56 
Q 45.21875 56 50.046875 50.171875 
Q 54.890625 44.34375 54.890625 33.015625 
z
" id="DejaVuSans-6e"/>
      <path d="M 41.109375 46.296875 
Q 39.59375 47.171875 37.8125 47.578125 
Q 36.03125 48 33.890625 48 
Q 26.265625 48 22.1875 43.046875 
Q 18.109375 38.09375 18.109375 28.8125 
L 18.109375 0 
L 9.078125 0 
L 9.078125 54.6875 
L 18.109375 54.6875 
L 18.109375 46.1875 
Q 20.953125 51.171875 25.484375 53.578125 
Q 30.03125 56 36.53125 56 
Q 37.453125 56 38.578125 55.875 
Q 39.703125 55.765625 41.0625 55.515625 
z
" id="DejaVuSans-72"/>
      <path d="M 34.28125 27.484375 
Q 23.390625 27.484375 19.1875 25 
Q 14.984375 22.515625 14.984375 16.5 
Q 14.984375 11.71875 18.140625 8.90625 
Q 21.296875 6.109375 26.703125 6.109375 
Q 34.1875 6.109375 38.703125 11.40625 
Q 43.21875 16.703125 43.21875 25.484375 
L 43.21875 27.484375 
z
M 52.203125 31.203125 
L 52.203125 0 
L 43.21875 0 
L 43.21875 8.296875 
Q 40.140625 3.328125 35.546875 0.953125 
Q 30.953125 -1.421875 24.3125 -1.421875 
Q 15.921875 -1.421875 10.953125 3.296875 
Q 6 8.015625 6 15.921875 
Q 6 25.140625 12.171875 29.828125 
Q 18.359375 34.515625 30.609375 34.515625 
L 43.21875 34.515625 
L 43.21875 35.40625 
Q 43.21875 41.609375 39.140625 45 
Q 35.0625 48.390625 27.6875 48.390625 
Q 23 48.390625 18.546875 47.265625 
Q 14.109375 46.140625 10.015625 43.890625 
L 10.015625 52.203125 
Q 14.9375 54.109375 19.578125 55.046875 
Q 24.21875 56 28.609375 56 
Q 40.484375 56 46.34375 49.84375 
Q 52.203125 43.703125 52.203125 31.203125 
z
" id="DejaVuSans-61"/>
      <path d="M 18.3125 70.21875 
L 18.3125 54.6875 
L 36.8125 54.6875 
L 36.8125 47.703125 
L 18.3125 47.703125 
L 18.3125 18.015625 
Q 18.3125 11.328125 20.140625 9.421875 
Q 21.96875 7.515625 27.59375 7.515625 
L 36.8125 7.515625 
L 36.8125 0 
L 27.59375 0 
Q 17.1875 0 13.234375 3.875 
Q 9.28125 7.765625 9.28125 18.015625 
L 9.28125 47.703125 
L 2.6875 47.703125 
L 2.6875 54.6875 
L 9.28125 54.6875 
L 9.28125 70.21875 
z
" id="DejaVuSans-74"/>
      <path d="M 9.421875 54.6875 
L 18.40625 54.6875 
L 18.40625 0 
L 9.421875 0 
z
M 9.421875 75.984375 
L 18.40625 75.984375 
L 18.40625 64.59375 
L 9.421875 64.59375 
z
" id="DejaVuSans-69"/>
      <path d="M 30.609375 48.390625 
Q 23.390625 48.390625 19.1875 42.75 
Q 14.984375 37.109375 14.984375 27.296875 
Q 14.984375 17.484375 19.15625 11.84375 
Q 23.34375 6.203125 30.609375 6.203125 
Q 37.796875 6.203125 41.984375 11.859375 
Q 46.1875 17.53125 46.1875 27.296875 
Q 46.1875 37.015625 41.984375 42.703125 
Q 37.796875 48.390625 30.609375 48.390625 
z
M 30.609375 56 
Q 42.328125 56 49.015625 48.375 
Q 55.71875 40.765625 55.71875 27.296875 
Q 55.71875 13.875 49.015625 6.21875 
Q 42.328125 -1.421875 30.609375 -1.421875 
Q 18.84375 -1.421875 12.171875 6.21875 
Q 5.515625 13.875 5.515625 27.296875 
Q 5.515625 40.765625 12.171875 48.375 
Q 18.84375 56 30.609375 56 
z
" id="DejaVuSans-6f"/>
      <path d="M 44.28125 53.078125 
L 44.28125 44.578125 
Q 40.484375 46.53125 36.375 47.5 
Q 32.28125 48.484375 27.875 48.484375 
Q 21.1875 48.484375 17.84375 46.4375 
Q 14.5 44.390625 14.5 40.28125 
Q 14.5 37.15625 16.890625 35.375 
Q 19.28125 33.59375 26.515625 31.984375 
L 29.59375 31.296875 
Q 39.15625 29.25 43.1875 25.515625 
Q 47.21875 21.78125 47.21875 15.09375 
Q 47.21875 7.46875 41.1875 3.015625 
Q 35.15625 -1.421875 24.609375 -1.421875 
Q 20.21875 -1.421875 15.453125 -0.5625 
Q 10.6875 0.296875 5.421875 2 
L 5.421875 11.28125 
Q 10.40625 8.6875 15.234375 7.390625 
Q 20.0625 6.109375 24.8125 6.109375 
Q 31.15625 6.109375 34.5625 8.28125 
Q 37.984375 10.453125 37.984375 14.40625 
Q 37.984375 18.0625 35.515625 20.015625 
Q 33.0625 21.96875 24.703125 23.78125 
L 21.578125 24.515625 
Q 13.234375 26.265625 9.515625 29.90625 
Q 5.8125 33.546875 5.8125 39.890625 
Q 5.8125 47.609375 11.28125 51.796875 
Q 16.75 56 26.8125 56 
Q 31.78125 56 36.171875 55.265625 
Q 40.578125 54.546875 44.28125 53.078125 
z
" id="DejaVuSans-73"/>
     </defs>
     <g transform="translate(205.662344 335.860562)scale(0.1 -0.1)">
      <use xlink:href="#DejaVuSans-47"/>
      <use x="77.490234" xlink:href="#DejaVuSans-65"/>
      <use x="139.013672" xlink:href="#DejaVuSans-6e"/>
      <use x="202.392578" xlink:href="#DejaVuSans-65"/>
      <use x="263.916016" xlink:href="#DejaVuSans-72"/>
      <use x="305.029297" xlink:href="#DejaVuSans-61"/>
      <use x="366.308594" xlink:href="#DejaVuSans-74"/>
      <use x="405.517578" xlink:href="#DejaVuSans-69"/>
      <use x="433.300781" xlink:href="#DejaVuSans-6f"/>
      <use x="494.482422" xlink:href="#DejaVuSans-6e"/>
      <use x="557.861328" xlink:href="#DejaVuSans-73"/>
     </g>
    </g>
   </g>
   <g id="matplotlib.axis_2">
    <g id="ytick_1">
     <g id="line2d_13">
      <path clip-path="url(#p3ce6088ad6)" d="M 57.6 301.185534 
L 414.72 301.185534 
" style="fill:none;stroke:#b0b0b0;stroke-linecap:square;stroke-width:0.8;"/>
     </g>
     <g id="line2d_14">
      <defs>
       <path d="M 0 0 
L -3.5 0 
" id="m7f9f96f993" style="stroke:#000000;stroke-width:0.8;"/>
      </defs>
      <g>
       <use style="stroke:#000000;stroke-width:0.8;" x="57.6" xlink:href="#m7f9f96f993" y="301.185534"/>
      </g>
     </g>
     <g id="text_8">
      <!-- $\mathdefault{-10^{1}}$ -->
      <defs>
       <path d="M 10.59375 35.5 
L 73.1875 35.5 
L 73.1875 27.203125 
L 10.59375 27.203125 
z
" id="DejaVuSans-2212"/>
      </defs>
      <g transform="translate(24.6 304.984753)scale(0.1 -0.1)">
       <use transform="translate(0 0.684375)" xlink:href="#DejaVuSans-2212"/>
       <use transform="translate(83.789062 0.684375)" xlink:href="#DejaVuSans-31"/>
       <use transform="translate(147.412109 0.684375)" xlink:href="#DejaVuSans-30"/>
       <use transform="translate(211.992188 38.965625)scale(0.7)" xlink:href="#DejaVuSans-31"/>
      </g>
     </g>
    </g>
    <g id="ytick_2">
     <g id="line2d_15">
      <path clip-path="url(#p3ce6088ad6)" d="M 57.6 230.416716 
L 414.72 230.416716 
" style="fill:none;stroke:#b0b0b0;stroke-linecap:square;stroke-width:0.8;"/>
     </g>
     <g id="line2d_16">
      <g>
       <use style="stroke:#000000;stroke-width:0.8;" x="57.6" xlink:href="#m7f9f96f993" y="230.416716"/>
      </g>
     </g>
     <g id="text_9">
      <!-- $\mathdefault{-10^{0}}$ -->
      <g transform="translate(24.6 234.215935)scale(0.1 -0.1)">
       <use transform="translate(0 0.765625)" xlink:href="#DejaVuSans-2212"/>
       <use transform="translate(83.789062 0.765625)" xlink:href="#DejaVuSans-31"/>
       <use transform="translate(147.412109 0.765625)" xlink:href="#DejaVuSans-30"/>
       <use transform="translate(211.992188 39.046875)scale(0.7)" xlink:href="#DejaVuSans-30"/>
      </g>
     </g>
    </g>
    <g id="ytick_3">
     <g id="line2d_17">
      <path clip-path="url(#p3ce6088ad6)" d="M 57.6 199.077371 
L 414.72 199.077371 
" style="fill:none;stroke:#b0b0b0;stroke-linecap:square;stroke-width:0.8;"/>
     </g>
     <g id="line2d_18">
      <g>
       <use style="stroke:#000000;stroke-width:0.8;" x="57.6" xlink:href="#m7f9f96f993" y="199.077371"/>
      </g>
     </g>
     <g id="text_10">
      <!-- $\mathdefault{0}$ -->
      <g transform="translate(44.2 202.876589)scale(0.1 -0.1)">
       <use transform="translate(0 0.78125)" xlink:href="#DejaVuSans-30"/>
      </g>
     </g>
    </g>
    <g id="ytick_4">
     <g id="line2d_19">
      <path clip-path="url(#p3ce6088ad6)" d="M 57.6 167.738025 
L 414.72 167.738025 
" style="fill:none;stroke:#b0b0b0;stroke-linecap:square;stroke-width:0.8;"/>
     </g>
     <g id="line2d_20">
      <g>
       <use style="stroke:#000000;stroke-width:0.8;" x="57.6" xlink:href="#m7f9f96f993" y="167.738025"/>
      </g>
     </g>
     <g id="text_11">
      <!-- $\mathdefault{10^{0}}$ -->
      <g transform="translate(33 171.537244)scale(0.1 -0.1)">
       <use transform="translate(0 0.765625)" xlink:href="#DejaVuSans-31"/>
       <use transform="translate(63.623047 0.765625)" xlink:href="#DejaVuSans-30"/>
       <use transform="translate(128.203125 39.046875)scale(0.7)" xlink:href="#DejaVuSans-30"/>
      </g>
     </g>
    </g>
    <g id="ytick_5">
     <g id="line2d_21">
      <path clip-path="url(#p3ce6088ad6)" d="M 57.6 96.969207 
L 414.72 96.969207 
" style="fill:none;stroke:#b0b0b0;stroke-linecap:square;stroke-width:0.8;"/>
     </g>
     <g id="line2d_22">
      <g>
       <use style="stroke:#000000;stroke-width:0.8;" x="57.6" xlink:href="#m7f9f96f993" y="96.969207"/>
      </g>
     </g>
     <g id="text_12">
      <!-- $\mathdefault{10^{1}}$ -->
      <g transform="translate(33 100.768426)scale(0.1 -0.1)">
       <use transform="translate(0 0.684375)" xlink:href="#DejaVuSans-31"/>
       <use transform="translate(63.623047 0.684375)" xlink:href="#DejaVuSans-30"/>
       <use transform="translate(128.203125 38.965625)scale(0.7)" xlink:href="#DejaVuSans-31"/>
      </g>
     </g>
    </g>
    <g id="ytick_6">
     <g id="line2d_23">
      <defs>
       <path d="M 0 0 
L -2 0 
" id="m98dc6dbec5" style="stroke:#000000;stroke-width:0.6;"/>
      </defs>
      <g>
       <use style="stroke:#000000;stroke-width:0.6;" x="57.6" xlink:href="#m98dc6dbec5" y="301.185534"/>
      </g>
     </g>
    </g>
    <g id="ytick_7">
     <g id="line2d_24">
      <g>
       <use style="stroke:#000000;stroke-width:0.6;" x="57.6" xlink:href="#m98dc6dbec5" y="230.416716"/>
      </g>
     </g>
    </g>
    <g id="ytick_8">
     <g id="line2d_25">
      <g>
       <use style="stroke:#000000;stroke-width:0.6;" x="57.6" xlink:href="#m98dc6dbec5" y="199.077371"/>
      </g>
     </g>
    </g>
    <g id="ytick_9">
     <g id="line2d_26">
      <g>
       <use style="stroke:#000000;stroke-width:0.6;" x="57.6" xlink:href="#m98dc6dbec5" y="167.738025"/>
      </g>
     </g>
    </g>
    <g id="ytick_10">
     <g id="line2d_27">
      <g>
       <use style="stroke:#000000;stroke-width:0.6;" x="57.6" xlink:href="#m98dc6dbec5" y="96.969207"/>
      </g>
     </g>
    </g>
    <g id="text_13">
     <!-- Fitness -->
     <defs>
      <path d="M 9.8125 72.90625 
L 51.703125 72.90625 
L 51.703125 64.59375 
L 19.671875 64.59375 
L 19.671875 43.109375 
L 48.578125 43.109375 
L 48.578125 34.8125 
L 19.671875 34.8125 
L 19.671875 0 
L 9.8125 0 
z
" id="DejaVuSans-46"/>
     </defs>
     <g transform="translate(18.520312 192.202219)rotate(-90)scale(0.1 -0.1)">
      <use xlink:href="#DejaVuSans-46"/>
      <use x="57.410156" xlink:href="#DejaVuSans-69"/>
      <use x="85.193359" xlink:href="#DejaVuSans-74"/>
      <use x="124.402344" xlink:href="#DejaVuSans-6e"/>
      <use x="187.78125" xlink:href="#DejaVuSans-65"/>
      <use x="249.304688" xlink:href="#DejaVuSans-73"/>
      <use x="301.404297" xlink:href="#DejaVuSans-73"/>
     </g>
    </g>
   </g>
   <g id="line2d_28">
    <path clip-path="url(#p3ce6088ad6)" d="M 73.832727 258.778824 
L 74.157707 271.410275 
L 74.482686 206.31676 
L 74.807666 211.049001 
L 75.132645 204.467738 
L 75.457625 217.160173 
L 75.782604 240.069235 
L 76.107584 246.117728 
L 76.432563 254.516673 
L 76.757543 247.93541 
L 77.082523 262.951367 
L 77.407502 217.191512 
L 77.732482 203.527558 
L 78.057461 215.530527 
L 78.382441 218.946516 
L 78.70742 266.516995 
L 79.0324 242.043613 
L 79.357379 276.393227 
L 79.682359 266.051159 
L 80.007338 202.023269 
L 80.332318 223.710096 
L 80.657297 207.476315 
L 80.982277 276.359505 
L 81.307256 242.451025 
L 81.632236 267.163967 
L 81.957215 221.014913 
L 82.282195 192.809502 
L 82.607174 262.613649 
L 82.932154 282.285559 
L 83.257133 268.724207 
L 83.582113 280.628543 
L 83.907093 273.849424 
L 84.232072 278.44621 
L 84.557052 233.393167 
L 84.882031 280.090492 
L 85.207011 280.761265 
L 85.53199 256.906298 
L 85.85697 272.556288 
L 86.181949 249.220324 
L 86.506929 265.011735 
L 86.831908 271.421313 
L 87.156888 270.038803 
L 87.806847 249.362059 
L 88.131826 266.155965 
L 88.456806 212.471398 
L 88.781785 243.157184 
L 89.106765 255.836408 
L 89.431744 236.793727 
L 89.756724 274.122192 
L 90.081704 278.849492 
L 90.406683 255.355663 
L 90.731663 280.555914 
L 91.056642 265.335911 
L 91.381622 259.744731 
L 91.706601 248.526492 
L 92.031581 260.070981 
L 92.35656 234.275078 
L 92.68154 220.227531 
L 93.006519 221.989395 
L 93.331499 263.710391 
L 93.656478 262.384894 
L 93.981458 270.582113 
L 94.306437 263.754682 
L 94.631417 262.036191 
L 94.956396 211.707127 
L 95.281376 217.379548 
L 95.606355 276.507535 
L 95.931335 263.316122 
L 96.256314 208.855247 
L 96.581294 263.379256 
L 97.231253 243.673259 
L 97.556233 272.736601 
L 97.881212 210.578911 
L 98.206192 202.587377 
L 98.531171 271.507137 
L 98.856151 278.095156 
L 99.18113 265.779822 
L 99.50611 285.141481 
L 99.831089 259.875701 
L 100.156069 267.340149 
L 100.481048 268.305889 
L 100.806028 279.272042 
L 101.131007 269.699957 
L 101.455987 266.787815 
L 101.780966 255.582211 
L 102.105946 251.445417 
L 102.430925 254.67337 
L 102.755905 269.902829 
L 103.080885 264.771931 
L 103.405864 244.895494 
L 103.730844 234.415991 
L 104.055823 249.439699 
L 104.380803 202.266149 
L 104.705782 214.245614 
L 105.030762 211.613109 
L 105.355741 265.539584 
L 105.680721 231.2002 
L 106.0057 266.456404 
L 106.33068 219.22857 
L 106.655659 227.157424 
L 106.980639 238.188874 
L 107.305618 237.021483 
L 107.630598 273.860637 
L 107.955577 259.687665 
L 108.280557 236.433871 
L 108.930516 270.680912 
L 109.580475 216.408029 
L 109.905455 270.104035 
L 110.230434 266.817722 
L 110.555414 233.644669 
L 110.880393 241.26013 
L 111.205373 271.140346 
L 111.530352 234.898243 
L 111.855332 258.340073 
L 112.180311 200.518981 
L 112.505291 217.708612 
L 112.83027 228.473677 
L 113.15525 207.977745 
L 113.480229 221.108931 
L 113.805209 243.422545 
L 114.130188 253.106402 
L 114.455168 220.920895 
L 114.780147 224.305544 
L 115.105127 249.361351 
L 115.430106 249.87845 
L 115.755086 263.923447 
L 116.080066 227.564836 
L 116.405045 269.929167 
L 116.730025 273.084275 
L 117.055004 241.322808 
L 117.379984 245.624134 
L 117.704963 226.844031 
L 118.029943 256.647748 
L 118.354922 235.681726 
L 118.679902 240.594169 
L 119.004881 258.434091 
L 119.329861 282.520933 
L 119.65484 250.019477 
L 119.97982 262.598859 
L 120.304799 265.686096 
L 120.629779 221.829736 
L 120.954758 256.052301 
L 121.279738 260.314452 
L 121.604717 229.523545 
L 121.929697 266.007432 
L 122.254676 272.018037 
L 122.579656 241.816403 
L 122.904636 265.529085 
L 123.554595 227.940908 
L 123.879574 236.958805 
L 124.204554 251.100684 
L 124.854513 269.053794 
L 125.179492 265.39219 
L 125.504472 231.638951 
L 125.829451 263.206688 
L 126.154431 246.305764 
L 126.47941 209.043283 
L 126.80439 199.422104 
L 127.129369 217.567585 
L 127.454349 272.022065 
L 127.779328 257.462571 
L 128.104308 269.450692 
L 128.429287 271.410275 
L 128.754267 213.180076 
L 129.079247 219.134552 
L 129.404226 274.553284 
L 129.729206 257.486076 
L 130.054185 267.379129 
L 130.379165 224.650277 
L 130.704144 272.52442 
L 131.029124 265.704349 
L 131.354103 261.37999 
L 131.679083 259.820857 
L 132.004062 267.332833 
L 132.329042 268.880398 
L 132.654021 265.759025 
L 132.979001 271.418533 
L 133.30398 239.442448 
L 133.62896 282.419695 
L 133.953939 253.795868 
L 134.278919 270.704302 
L 134.603898 268.4368 
L 134.928878 269.801603 
L 135.253857 236.590567 
L 135.578837 279.856769 
L 135.903817 245.459602 
L 136.228796 238.157535 
L 136.553776 288.72898 
L 136.878755 275.678603 
L 137.203735 269.21694 
L 137.528714 265.10273 
L 137.853694 257.587929 
L 138.178673 275.12063 
L 138.503653 250.191843 
L 138.828632 282.501244 
L 139.478591 225.112532 
L 139.803571 249.471038 
L 140.12855 232.14038 
L 140.45353 262.634339 
L 140.778509 272.595352 
L 141.103489 261.914789 
L 141.428468 277.512996 
L 141.753448 274.143005 
L 142.078428 283.664201 
L 142.403407 271.13617 
L 142.728387 275.044195 
L 143.053366 231.607611 
L 143.378346 267.949372 
L 143.703325 246.05505 
L 144.028305 268.439131 
L 144.353284 275.205671 
L 144.678264 273.032147 
L 145.003243 264.630727 
L 145.328223 270.20836 
L 145.653202 268.24957 
L 145.978182 272.4216 
L 146.303161 215.279812 
L 146.628141 234.020741 
L 146.95312 273.920354 
L 147.2781 249.502378 
L 147.603079 263.822328 
L 147.928059 224.587598 
L 148.253038 256.303016 
L 148.578018 248.123446 
L 148.902998 207.601673 
L 149.227977 204.687114 
L 149.552957 209.717079 
L 149.877936 209.544712 
L 150.202916 236.089138 
L 150.527895 241.26013 
L 150.852875 224.830478 
L 151.177854 232.673149 
L 151.502834 267.882689 
L 151.827813 234.365474 
L 152.152793 244.5821 
L 152.477772 276.02142 
L 152.802752 290.699572 
L 153.127731 267.379129 
L 153.452711 267.262002 
L 153.77769 270.892732 
L 154.10267 218.852498 
L 154.427649 270.816687 
L 154.752629 266.956808 
L 155.077609 204.405059 
L 155.402588 246.650497 
L 155.727568 221.171609 
L 156.052547 223.678757 
L 156.702506 264.879999 
L 157.027486 229.006446 
L 157.352465 246.05505 
L 157.677445 210.672929 
L 158.002424 251.132024 
L 158.327404 256.11498 
L 158.652383 265.094715 
L 158.977363 265.36049 
L 159.302342 268.046689 
L 159.627322 261.817233 
L 159.952301 223.608243 
L 160.277281 267.765555 
L 160.60226 228.191623 
L 160.92724 224.336883 
L 161.252219 228.348319 
L 161.577199 216.094635 
L 161.902179 239.779346 
L 162.227158 238.470928 
L 162.552138 242.114127 
L 162.877117 267.688756 
L 163.202097 271.919133 
L 163.527076 211.926502 
L 163.852056 245.020851 
L 164.177035 231.035668 
L 164.502015 223.240006 
L 164.826994 238.854835 
L 165.151974 236.308513 
L 165.801933 262.810972 
L 166.126912 236.841282 
L 166.451892 221.116765 
L 166.776871 216.721422 
L 167.101851 270.535821 
L 167.42683 227.314121 
L 167.75181 236.590567 
L 168.07679 267.085256 
L 168.401769 268.641113 
L 168.726749 251.100684 
L 169.051728 280.983157 
L 169.701687 224.117508 
L 170.026667 227.878229 
L 170.351646 209.576051 
L 170.676626 250.160504 
L 171.001605 229.75859 
L 171.326585 268.689619 
L 171.651564 264.933855 
L 171.976544 276.318978 
L 172.301523 283.000364 
L 172.951482 254.453994 
L 173.276462 255.958283 
L 173.601441 249.471038 
L 173.926421 212.333914 
L 174.2514 200.895053 
L 174.57638 266.617648 
L 174.90136 236.778603 
L 175.226339 223.240006 
L 175.876298 268.511293 
L 176.201278 226.123226 
L 176.851237 268.770249 
L 177.176216 245.404758 
L 177.501196 278.035353 
L 177.826175 235.52503 
L 178.151155 267.999266 
L 178.476134 256.052301 
L 179.126093 242.733079 
L 179.451073 267.927958 
L 179.776052 277.312581 
L 180.101032 261.419164 
L 180.426011 226.844031 
L 180.750991 278.896139 
L 181.075971 279.23456 
L 181.40095 252.127048 
L 181.72593 262.622518 
L 182.050909 251.226042 
L 182.375889 223.929472 
L 182.700868 271.59952 
L 183.025848 273.063051 
L 183.350827 241.48734 
L 183.675807 257.869983 
L 184.000786 255.61355 
L 184.325766 212.271235 
L 184.650745 259.280253 
L 184.975725 274.698162 
L 185.300704 238.055682 
L 185.625684 263.630179 
L 185.950663 250.81863 
L 186.275643 281.431675 
L 186.600622 282.942397 
L 186.925602 283.117169 
L 187.250581 267.758365 
L 187.575561 243.265848 
L 187.900541 252.221066 
L 188.22552 239.975217 
L 188.5505 208.009084 
L 188.875479 271.319247 
L 189.200459 207.25694 
L 189.525438 254.892745 
L 189.850418 271.613859 
L 190.175397 230.542074 
L 190.500377 249.40836 
L 190.825356 207.476315 
L 191.475315 234.678867 
L 191.800295 216.251332 
L 192.125274 235.893267 
L 192.450254 233.644669 
L 192.775233 243.320692 
L 193.100213 264.257528 
L 193.750172 208.823907 
L 194.075152 267.98977 
L 194.400131 269.513247 
L 194.725111 272.478995 
L 195.05009 272.736601 
L 195.37507 234.020741 
L 195.700049 246.681837 
L 196.025029 234.05208 
L 196.350008 270.535821 
L 196.674988 267.495698 
L 196.999967 221.014913 
L 197.324947 267.104957 
L 197.649926 237.812802 
L 197.974906 260.314452 
L 198.299885 252.573633 
L 198.624865 265.471261 
L 198.949844 230.283524 
L 199.274824 225.997869 
L 199.599803 218.883837 
L 199.924783 244.268707 
L 200.249762 235.901102 
L 200.574742 239.160394 
L 200.899722 210.829625 
L 201.224701 226.373941 
L 201.549681 251.445417 
L 201.87466 221.171609 
L 202.19964 252.97321 
L 202.524619 236.9353 
L 202.849599 246.4938 
L 203.174578 232.17172 
L 203.499558 229.092629 
L 203.824537 267.679139 
L 204.474496 205.251222 
L 204.799476 268.485711 
L 205.124455 243.673259 
L 205.449435 267.614126 
L 206.099394 272.08643 
L 206.424373 249.84711 
L 206.749353 248.429005 
L 207.074333 224.650277 
L 207.399312 232.532122 
L 207.724292 220.826876 
L 208.049271 237.609096 
L 208.374251 268.678079 
L 208.69923 239.755841 
L 209.02421 265.686096 
L 209.349189 254.571517 
L 209.674169 231.764308 
L 209.999148 268.597144 
L 210.324128 210.10882 
L 210.649107 269.797192 
L 210.974087 280.031679 
L 211.299066 229.821269 
L 211.624046 266.038307 
L 211.949025 247.598512 
L 212.274005 249.032287 
L 212.598984 235.52503 
L 212.923964 264.695999 
L 213.248943 251.978186 
L 213.573923 268.334 
L 213.898903 209.544712 
L 214.223882 267.95175 
L 214.548862 213.681506 
L 215.198821 196.852277 
L 215.5238 244.676118 
L 215.84878 227.34546 
L 216.173759 254.140601 
L 216.498739 238.000838 
L 216.823718 233.362615 
L 217.148698 234.992261 
L 217.473677 251.852829 
L 217.798657 219.980714 
L 218.123636 222.299826 
L 218.448616 218.539104 
L 218.773595 262.217174 
L 219.098575 223.240006 
L 219.423554 217.28553 
L 219.748534 253.388456 
L 220.073514 214.245614 
L 220.723473 262.072495 
L 221.048452 231.051338 
L 221.373432 234.177438 
L 221.698411 268.296512 
L 222.023391 219.69866 
L 222.34837 246.540809 
L 222.67335 261.129275 
L 222.998329 221.962928 
L 223.323309 218.476426 
L 223.973268 256.428373 
L 224.298247 224.203691 
L 224.623227 258.998199 
L 224.948206 224.211526 
L 225.273186 260.001058 
L 225.598165 243.970983 
L 225.923145 219.761339 
L 226.248124 255.049442 
L 226.573104 232.955203 
L 226.898084 228.121109 
L 227.223063 271.941371 
L 227.548043 222.487862 
L 227.873022 279.979337 
L 228.198002 226.522803 
L 228.522981 241.792899 
L 228.847961 218.194371 
L 229.49792 252.166222 
L 229.822899 242.639061 
L 230.147879 260.89423 
L 230.472858 259.687665 
L 230.797838 245.146209 
L 231.122817 268.641113 
L 231.447797 253.075063 
L 231.772776 268.807021 
L 232.097756 271.154957 
L 232.747715 223.0363 
L 233.072695 268.926148 
L 233.397674 230.824128 
L 234.047633 273.671194 
L 234.372613 249.565056 
L 234.697592 276.837368 
L 235.022572 238.282892 
L 235.347551 263.009629 
L 235.672531 257.313709 
L 235.99751 273.627849 
L 236.32249 219.322588 
L 236.647469 260.690524 
L 236.972449 231.607611 
L 237.622408 270.680912 
L 237.947387 257.290205 
L 238.272367 231.607611 
L 238.597346 233.550651 
L 238.922326 223.302685 
L 239.572285 271.550292 
L 239.897265 219.275579 
L 240.222244 267.163967 
L 240.547224 272.689609 
L 240.872203 263.032895 
L 241.197183 226.373941 
L 241.522162 247.559338 
L 241.847142 236.778603 
L 242.172121 266.68786 
L 242.497101 259.43695 
L 242.82208 261.568026 
L 243.14706 267.055674 
L 243.472039 276.171501 
L 243.797019 262.834427 
L 244.121998 217.034816 
L 244.446978 258.810163 
L 244.771957 262.456423 
L 245.096937 237.40539 
L 245.421916 243.822121 
L 245.746896 255.644889 
L 246.071876 229.351178 
L 246.396855 251.602114 
L 246.721835 246.156902 
L 247.046814 216.34535 
L 247.371794 235.814918 
L 247.696773 211.895163 
L 248.021753 230.416716 
L 248.346732 231.952344 
L 248.671712 231.106182 
L 248.996691 262.468325 
L 249.321671 210.234178 
L 249.64665 238.126195 
L 249.97163 255.362835 
L 250.296609 231.607611 
L 250.621589 235.901102 
L 250.946568 213.650166 
L 251.271548 238.627625 
L 251.596527 249.283002 
L 251.921507 195.003256 
L 252.246486 224.399562 
L 252.571466 211.973511 
L 252.896446 248.969609 
L 253.221425 268.882688 
L 253.546405 268.018246 
L 253.871384 216.314011 
L 254.196364 264.235397 
L 254.521343 225.089027 
L 254.846323 266.527079 
L 255.171302 235.650387 
L 255.496282 272.52442 
L 255.821261 243.328527 
L 256.146241 276.332494 
L 256.47122 265.855064 
L 256.7962 264.630727 
L 257.121179 257.932662 
L 257.446159 262.501023 
L 257.771138 258.716145 
L 258.421097 271.482443 
L 258.746077 268.557736 
L 259.071057 263.957061 
L 259.396036 231.858326 
L 259.721016 269.450692 
L 260.045995 263.470798 
L 260.370975 216.690083 
L 260.695954 206.034705 
L 261.020934 266.747882 
L 261.345913 260.690524 
L 261.670893 230.071983 
L 261.995872 281.909824 
L 262.320852 262.078541 
L 262.645831 233.738687 
L 262.970811 239.881199 
L 263.29579 222.801255 
L 263.62077 226.985058 
L 263.945749 236.46521 
L 264.270729 274.069013 
L 264.595708 224.282039 
L 264.920688 274.921045 
L 265.245667 277.997507 
L 265.570647 278.261209 
L 265.895627 256.898463 
L 266.220606 263.137318 
L 266.545586 236.653246 
L 266.870565 228.128944 
L 267.195545 246.243086 
L 267.845504 262.592941 
L 268.170483 218.233546 
L 268.495463 264.146673 
L 268.820442 270.22137 
L 269.145422 262.289195 
L 269.470401 225.496439 
L 269.795381 252.667652 
L 270.12036 251.390573 
L 270.44534 240.821379 
L 271.095299 202.211305 
L 271.745258 248.476014 
L 272.070238 255.676229 
L 272.395217 279.296001 
L 273.045176 265.829145 
L 273.370156 264.444838 
L 273.695135 265.204031 
L 274.020115 224.242865 
L 274.345094 265.945566 
L 274.670074 270.042973 
L 274.995053 258.684806 
L 275.320033 228.191623 
L 275.645012 223.012796 
L 275.969992 209.199979 
L 276.294971 269.459638 
L 276.619951 264.068775 
L 276.94493 263.516442 
L 277.26991 214.997758 
L 277.594889 257.03949 
L 277.919869 236.277174 
L 278.244848 262.589981 
L 278.569828 244.5821 
L 278.894808 254.64203 
L 279.219787 212.647307 
L 279.544767 260.667019 
L 279.869746 269.21694 
L 280.194726 209.364511 
L 280.519705 237.499408 
L 280.844685 207.006225 
L 281.169664 222.11179 
L 281.494644 217.974996 
L 281.819623 276.156194 
L 282.144603 235.368333 
L 282.469582 249.627735 
L 282.794562 217.473567 
L 283.119541 265.87578 
L 283.444521 262.810972 
L 284.09448 222.393844 
L 284.419459 258.96686 
L 284.744439 241.73022 
L 285.069419 208.040424 
L 285.394398 224.383892 
L 285.719378 234.271456 
L 286.044357 270.426437 
L 286.369337 207.25694 
L 286.694316 198.419244 
L 287.019296 226.029208 
L 287.344275 210.242013 
L 287.994234 263.032895 
L 288.319214 238.941018 
L 288.644193 268.032472 
L 288.969173 254.767388 
L 289.294152 265.821364 
L 289.619132 233.425293 
L 289.944111 236.104807 
L 290.269091 265.955888 
L 290.59407 266.441233 
L 290.91905 243.547902 
L 291.244029 234.953086 
L 291.569009 234.741546 
L 291.893989 232.955203 
L 292.218968 235.587708 
L 292.543948 250.779456 
L 292.868927 222.895273 
L 293.193907 224.540589 
L 293.518886 218.131693 
L 293.843866 219.22857 
L 294.168845 222.11179 
L 294.818804 239.31709 
L 295.143784 254.587186 
L 295.468763 220.419465 
L 296.118722 277.345017 
L 296.443702 261.79584 
L 296.768681 262.132882 
L 297.093661 250.975327 
L 297.41864 274.727036 
L 297.74362 218.194371 
L 298.0686 227.063406 
L 298.393579 243.297187 
L 298.718559 221.500672 
L 299.368518 245.467437 
L 299.693497 217.191512 
L 300.343456 235.650387 
L 300.668436 216.784101 
L 301.318395 203.120146 
L 301.643374 216.564726 
L 301.968354 217.880978 
L 302.293333 222.895273 
L 302.618313 219.165891 
L 302.943292 233.010047 
L 303.268272 218.852498 
L 303.593251 245.772996 
L 303.918231 229.476536 
L 304.24321 232.391095 
L 304.56819 246.337104 
L 304.89317 235.399672 
L 305.218149 213.93222 
L 305.543129 224.02349 
L 305.868108 203.370861 
L 306.193088 220.819042 
L 306.518067 220.701519 
L 306.843047 267.659894 
L 307.168026 226.091887 
L 307.493006 232.547792 
L 307.817985 226.185905 
L 308.142965 272.861477 
L 308.467944 251.633453 
L 308.792924 264.89078 
L 309.117903 220.231429 
L 309.442883 228.160283 
L 309.767862 245.741656 
L 310.092842 245.898353 
L 310.417821 215.499188 
L 310.742801 269.053794 
L 311.067781 271.860409 
L 311.39276 265.688705 
L 311.71774 227.502157 
L 312.042719 230.980824 
L 312.367699 232.829846 
L 312.692678 240.978076 
L 313.017658 254.109261 
L 313.342637 226.812691 
L 313.667617 265.560568 
L 313.992596 263.951462 
L 314.317576 263.10256 
L 314.642555 262.928024 
L 314.967535 270.926454 
L 315.292514 250.011642 
L 315.617494 270.595669 
L 315.942473 266.707884 
L 316.267453 281.845169 
L 316.592432 248.248804 
L 316.917412 269.929167 
L 317.242391 230.980824 
L 317.567371 227.196598 
L 317.892351 274.712603 
L 318.21733 274.779282 
L 318.54231 272.923676 
L 318.867289 230.722275 
L 319.192269 274.919255 
L 319.517248 219.541963 
L 319.842228 263.844835 
L 320.167207 271.844185 
L 320.492187 252.996715 
L 320.817166 269.788369 
L 321.467125 246.775855 
L 321.792105 246.838533 
L 322.117084 222.08045 
L 322.442064 223.53773 
L 322.767043 235.086279 
L 323.092023 205.3139 
L 323.417002 213.650166 
L 323.741982 242.357007 
L 324.066962 246.963891 
L 324.391941 213.46213 
L 324.716921 269.902829 
L 325.0419 249.126305 
L 325.36688 202.211305 
L 325.691859 208.134442 
L 326.016839 225.308403 
L 326.341818 234.866903 
L 326.666798 262.587021 
L 326.991777 278.454041 
L 327.316757 267.427767 
L 327.641736 268.550775 
L 327.966716 268.289476 
L 328.291695 242.6704 
L 328.616675 266.27118 
L 328.941654 277.24758 
L 329.266634 273.525777 
L 329.591613 257.721121 
L 329.916593 221.077591 
L 330.566552 277.025277 
L 330.891532 204.138675 
L 331.216511 214.90374 
L 331.86647 268.501994 
L 332.19145 263.493631 
L 332.516429 248.875591 
L 332.841409 276.601273 
L 333.166388 270.355397 
L 333.491368 279.912293 
L 333.816347 235.775744 
L 334.141327 263.382122 
L 334.466306 259.342932 
L 334.791286 249.094966 
L 335.116265 272.326304 
L 335.441245 252.918366 
L 335.766224 224.109673 
L 336.091204 268.24957 
L 336.416183 276.654676 
L 336.741163 235.697396 
L 337.066143 263.044519 
L 337.391122 265.209351 
L 337.716102 245.741656 
L 338.041081 204.577426 
L 338.366061 202.211305 
L 338.69104 209.889445 
L 339.01602 224.618937 
L 339.340999 211.425073 
L 339.665979 246.117728 
L 339.990958 242.121962 
L 340.315938 225.747154 
L 340.640917 220.576162 
L 340.965897 204.655774 
L 341.290876 221.202949 
L 341.615856 217.019146 
L 341.940835 259.154896 
L 342.265815 273.186278 
L 342.590794 225.277064 
L 342.915774 266.557306 
L 343.240753 221.296967 
L 343.565733 267.213034 
L 343.890713 210.641589 
L 344.215692 242.294328 
L 344.540672 259.656326 
L 344.865651 270.602072 
L 345.190631 218.351068 
L 345.51561 245.678977 
L 345.84059 201.709876 
L 346.165569 264.869214 
L 346.490549 267.095108 
L 346.815528 275.668192 
L 347.140508 275.521971 
L 347.465487 230.886806 
L 347.790467 257.775965 
L 348.115446 247.559338 
L 348.440426 284.0703 
L 348.765405 270.469391 
L 349.090385 231.638951 
L 349.415364 239.34843 
L 349.740344 273.285945 
L 350.065324 257.431232 
L 350.390303 265.772026 
L 350.715283 265.93524 
L 351.040262 277.959603 
L 351.365242 260.298782 
L 351.690221 261.097935 
L 352.015201 261.426999 
L 352.34018 272.540201 
L 352.66516 251.100684 
L 352.990139 208.980604 
L 353.315119 263.038708 
L 353.640098 269.788369 
L 353.965078 255.11212 
L 354.290057 232.453774 
L 354.615037 269.361051 
L 354.940016 243.610581 
L 355.264996 241.448166 
L 355.589975 230.573413 
L 355.914955 241.385487 
L 356.239934 228.81841 
L 356.564914 277.71817 
L 356.889894 193.436289 
L 357.214873 264.373389 
L 357.539853 228.222962 
L 357.864832 267.544105 
L 358.189812 265.738211 
L 358.514791 249.690414 
L 358.839771 271.196653 
L 359.16475 236.621907 
L 359.48973 213.877377 
L 359.814709 214.778383 
L 360.139689 250.943988 
L 360.464668 270.850514 
L 360.789648 247.003065 
L 361.114627 265.222647 
L 361.439607 211.644448 
L 361.764586 263.519291 
L 362.089566 223.929472 
L 362.414545 253.20042 
L 362.739525 244.206028 
L 363.064505 242.552878 
L 363.389484 253.545153 
L 363.714464 225.026349 
L 364.039443 254.64203 
L 364.364423 265.413301 
L 364.689402 233.268597 
L 365.014382 268.1837 
L 365.339361 262.253211 
L 365.664341 202.211305 
L 365.98932 266.63271 
L 366.3143 276.527652 
L 366.639279 246.626993 
L 366.964259 246.744515 
L 367.289238 276.574527 
L 367.614218 228.160283 
L 367.939197 213.399452 
L 368.264177 224.49358 
L 368.589156 272.532312 
L 368.914136 256.334355 
L 369.239115 210.798286 
L 369.889075 262.277206 
L 370.214054 268.8185 
L 370.539034 206.880868 
L 370.864013 260.196929 
L 371.188993 246.854203 
L 371.513972 285.664045 
L 371.838952 238.439589 
L 372.163931 269.664502 
L 372.488911 277.11215 
L 372.81389 238.314231 
L 373.13887 224.556259 
L 373.463849 260.157755 
L 373.788829 220.607501 
L 374.113808 219.322588 
L 374.438788 216.690083 
L 374.763767 249.126305 
L 375.088747 227.157424 
L 375.413726 244.394064 
L 376.063686 225.841172 
L 377.038624 257.650607 
L 377.363604 220.544822 
L 377.688583 212.224226 
L 378.013563 239.003697 
L 378.338542 223.835454 
L 378.663522 232.297077 
L 378.988501 209.419355 
L 379.313481 203.339522 
L 379.63846 202.72057 
L 379.96344 230.22868 
L 380.288419 197.42422 
L 380.613399 263.34484 
L 380.938378 264.652504 
L 381.263358 229.695911 
L 381.588337 208.19712 
L 381.913317 231.403906 
L 382.238296 234.710207 
L 382.563276 250.10566 
L 382.888256 242.043613 
L 383.213235 238.290727 
L 383.538215 270.346772 
L 383.863194 267.966014 
L 384.188174 243.391205 
L 384.513153 228.881088 
L 384.838133 234.835564 
L 385.163112 214.496329 
L 385.813071 246.478131 
L 386.138051 227.094746 
L 386.46303 263.356317 
L 386.78801 225.715814 
L 387.112989 264.279639 
L 387.437969 212.678647 
L 387.762948 202.320993 
L 388.087928 271.632283 
L 388.737887 285.324713 
L 389.387846 264.630727 
L 389.712826 236.535723 
L 390.037805 248.530858 
L 390.687764 262.372952 
L 391.012744 220.576162 
L 391.337723 214.93508 
L 391.662703 201.866572 
L 391.987682 238.972358 
L 392.312662 258.152037 
L 392.637641 257.399893 
L 393.2876 211.55043 
L 393.61258 206.974886 
L 394.262539 290.393214 
L 394.587518 270.774338 
L 394.912498 283.858776 
L 395.237477 215.499188 
L 395.562457 248.311482 
L 395.887437 227.34546 
L 396.212416 260.134251 
L 396.537396 222.707237 
L 396.862375 218.601783 
L 397.187355 216.627404 
L 397.512334 282.368259 
L 398.162293 295.488 
L 398.487273 278.768016 
L 398.487273 278.768016 
" style="fill:none;stroke:#0000ff;stroke-linecap:square;stroke-width:1.5;"/>
   </g>
   <g id="line2d_29">
    <path clip-path="url(#p3ce6088ad6)" d="M 73.832727 70.136205 
L 78.70742 70.136205 
L 79.0324 56.720619 
L 79.357379 70.136205 
L 80.007338 70.136205 
L 80.332318 54.07315 
L 80.657297 70.136205 
L 80.982277 54.158364 
L 81.307256 59.742792 
L 81.632236 70.136205 
L 89.431744 70.136205 
L 89.756724 54.329685 
L 90.081704 70.136205 
L 90.406683 70.136205 
L 90.731663 53.988232 
L 91.056642 70.136205 
L 93.006519 70.136205 
L 93.331499 54.07315 
L 93.656478 70.136205 
L 93.981458 53.777215 
L 94.306437 57.150855 
L 94.631417 70.136205 
L 95.606355 70.136205 
L 95.931335 54.07315 
L 96.256314 70.136205 
L 101.455987 70.136205 
L 101.780966 54.030654 
L 102.105946 70.136205 
L 102.430925 70.136205 
L 102.755905 56.251277 
L 103.080885 70.136205 
L 107.630598 70.136205 
L 107.955577 60.671513 
L 108.280557 70.136205 
L 110.555414 70.136205 
L 110.880393 54.329685 
L 111.205373 70.136205 
L 111.855332 70.136205 
L 112.180311 53.6097 
L 112.505291 70.136205 
L 113.15525 70.136205 
L 113.480229 54.502214 
L 113.805209 56.863193 
L 114.130188 70.136205 
L 119.65484 70.136205 
L 119.97982 57.006602 
L 120.304799 70.136205 
L 122.579656 70.136205 
L 122.904636 54.07315 
L 123.229615 70.136205 
L 123.554595 54.201082 
L 123.879574 70.136205 
L 124.529533 70.136205 
L 124.854513 54.545536 
L 125.179492 70.136205 
L 127.129369 70.136205 
L 127.454349 54.588936 
L 127.779328 70.136205 
L 128.104308 70.136205 
L 128.429287 57.539735 
L 128.754267 70.136205 
L 129.079247 70.136205 
L 129.404226 61.578984 
L 129.729206 56.437937 
L 130.054185 70.136205 
L 133.62896 70.136205 
L 133.953939 57.8355 
L 134.278919 70.136205 
L 134.603898 70.136205 
L 134.928878 54.286743 
L 135.253857 70.136205 
L 138.503653 70.136205 
L 138.828632 56.484824 
L 139.153612 70.136205 
L 139.478591 70.136205 
L 139.803571 55.428475 
L 140.12855 70.136205 
L 140.778509 70.136205 
L 141.103489 54.458968 
L 141.428468 70.136205 
L 141.753448 70.136205 
L 142.078428 56.204834 
L 142.403407 70.136205 
L 145.978182 70.136205 
L 146.303161 58.488843 
L 146.628141 70.136205 
L 156.377527 70.136205 
L 156.702506 60.951504 
L 157.027486 70.136205 
L 162.877117 70.136205 
L 163.202097 53.819273 
L 163.527076 70.136205 
L 166.126912 70.136205 
L 166.451892 54.11572 
L 166.776871 70.136205 
L 168.726749 70.136205 
L 169.051728 53.988232 
L 169.376708 70.136205 
L 169.701687 70.136205 
L 170.026667 55.882172 
L 170.351646 70.136205 
L 171.001605 70.136205 
L 171.326585 54.588936 
L 171.651564 70.136205 
L 176.526257 70.136205 
L 176.851237 54.07315 
L 177.176216 70.136205 
L 181.72593 70.136205 
L 182.050909 57.247498 
L 182.375889 70.136205 
L 185.950663 70.136205 
L 186.275643 58.034679 
L 186.600622 70.136205 
L 186.925602 54.07315 
L 187.250581 70.136205 
L 187.575561 70.136205 
L 187.900541 55.204739 
L 188.22552 70.136205 
L 188.5505 70.136205 
L 188.875479 59.003545 
L 189.200459 55.608947 
L 189.525438 70.136205 
L 190.825356 70.136205 
L 191.150336 53.819273 
L 191.475315 70.136205 
L 196.350008 70.136205 
L 196.674988 57.539735 
L 196.999967 70.136205 
L 197.324947 54.588936 
L 197.649926 70.136205 
L 200.899722 70.136205 
L 201.224701 57.785957 
L 201.549681 70.136205 
L 203.499558 70.136205 
L 203.824537 54.415798 
L 204.149517 70.136205 
L 205.449435 70.136205 
L 205.774414 53.6097 
L 206.099394 55.02721 
L 206.424373 54.286743 
L 206.749353 70.136205 
L 207.074333 54.415798 
L 207.399312 70.136205 
L 209.999148 70.136205 
L 210.324128 54.458968 
L 210.649107 70.136205 
L 210.974087 55.338736 
L 211.299066 70.136205 
L 211.949025 70.136205 
L 212.274005 56.673278 
L 212.598984 70.136205 
L 212.923964 57.344523 
L 213.248943 53.568 
L 213.573923 70.136205 
L 217.798657 70.136205 
L 218.123636 56.910903 
L 218.448616 70.136205 
L 219.423554 70.136205 
L 219.748534 53.861404 
L 220.073514 70.136205 
L 221.698411 70.136205 
L 222.023391 56.626029 
L 222.34837 56.531802 
L 222.67335 70.136205 
L 223.973268 70.136205 
L 224.298247 58.185134 
L 224.623227 54.07315 
L 224.948206 56.958706 
L 225.273186 70.136205 
L 231.772776 70.136205 
L 232.097756 56.673278 
L 232.422735 70.136205 
L 232.747715 59.107796 
L 233.072695 70.136205 
L 233.722654 70.136205 
L 234.047633 54.158364 
L 234.372613 70.136205 
L 239.572285 70.136205 
L 239.897265 55.882172 
L 240.222244 70.136205 
L 243.472039 70.136205 
L 243.797019 53.945883 
L 244.446978 70.136205 
L 246.071876 70.136205 
L 246.396855 53.693314 
L 246.721835 56.57887 
L 247.046814 70.136205 
L 247.371794 70.136205 
L 247.696773 54.07315 
L 248.021753 70.136205 
L 248.996691 70.136205 
L 249.321671 54.938926 
L 249.64665 70.136205 
L 252.571466 70.136205 
L 252.896446 53.651472 
L 253.221425 70.136205 
L 258.421097 70.136205 
L 258.746077 57.736514 
L 259.071057 70.136205 
L 259.396036 70.136205 
L 259.721016 57.441935 
L 260.045995 70.136205 
L 260.370975 70.136205 
L 260.695954 54.243875 
L 261.020934 70.136205 
L 262.320852 70.136205 
L 262.645831 59.423237 
L 262.970811 70.136205 
L 263.29579 54.675966 
L 263.62077 70.136205 
L 263.945749 70.136205 
L 264.270729 54.243875 
L 264.595708 70.136205 
L 265.245667 70.136205 
L 265.570647 54.588936 
L 265.895627 70.136205 
L 270.44534 70.136205 
L 270.770319 56.910903 
L 271.095299 70.136205 
L 277.919869 70.136205 
L 278.244848 56.251277 
L 278.569828 70.136205 
L 281.819623 70.136205 
L 282.144603 56.11221 
L 282.469582 70.136205 
L 284.09448 70.136205 
L 284.419459 53.777215 
L 284.744439 70.136205 
L 288.644193 70.136205 
L 288.969173 55.882172 
L 289.294152 70.136205 
L 291.244029 70.136205 
L 291.569009 54.030654 
L 291.893989 70.136205 
L 295.468763 70.136205 
L 295.793743 56.863193 
L 296.118722 70.136205 
L 296.443702 70.136205 
L 296.768681 54.201082 
L 297.093661 70.136205 
L 298.718559 70.136205 
L 299.043538 53.568 
L 299.368518 70.136205 
L 299.693497 53.945883 
L 300.018477 70.136205 
L 301.643374 70.136205 
L 301.968354 54.286743 
L 302.293333 70.136205 
L 302.618313 70.136205 
L 302.943292 53.651472 
L 303.268272 70.136205 
L 304.24321 70.136205 
L 304.56819 54.030654 
L 304.89317 70.136205 
L 306.193088 70.136205 
L 306.518067 54.07315 
L 306.843047 70.136205 
L 309.767862 70.136205 
L 310.092842 56.204834 
L 310.417821 70.136205 
L 310.742801 59.476207 
L 311.067781 70.136205 
L 314.317576 70.136205 
L 314.642555 54.201082 
L 314.967535 70.136205 
L 315.942473 70.136205 
L 316.267453 56.391138 
L 316.592432 70.136205 
L 318.54231 70.136205 
L 318.867289 53.777215 
L 319.192269 70.136205 
L 320.817166 70.136205 
L 321.142146 56.673278 
L 321.467125 70.136205 
L 321.792105 53.651472 
L 322.117084 70.136205 
L 325.691859 70.136205 
L 326.016839 53.568 
L 326.341818 70.136205 
L 326.991777 70.136205 
L 327.316757 54.243875 
L 327.641736 70.136205 
L 328.291695 70.136205 
L 328.616675 56.768052 
L 328.941654 70.136205 
L 332.19145 70.136205 
L 332.516429 54.07315 
L 332.841409 70.136205 
L 333.166388 60.284825 
L 333.491368 56.251277 
L 333.816347 57.199129 
L 334.141327 70.136205 
L 335.116265 70.136205 
L 335.441245 57.393181 
L 335.766224 70.136205 
L 347.465487 70.136205 
L 347.790467 55.836422 
L 348.115446 70.136205 
L 348.440426 70.136205 
L 348.765405 58.899736 
L 349.090385 70.136205 
L 350.065324 70.136205 
L 350.390303 56.484824 
L 350.715283 54.11572 
L 351.040262 70.136205 
L 351.690221 70.136205 
L 352.015201 54.158364 
L 352.34018 70.136205 
L 355.589975 70.136205 
L 355.914955 58.642121 
L 356.239934 70.136205 
L 356.889894 70.136205 
L 357.214873 56.531802 
L 357.539853 70.136205 
L 360.464668 70.136205 
L 360.789648 54.286743 
L 361.114627 70.136205 
L 362.739525 70.136205 
L 363.064505 54.07315 
L 363.389484 70.136205 
L 364.039443 54.243875 
L 364.364423 70.136205 
L 365.339361 70.136205 
L 365.664341 202.211305 
L 365.98932 70.136205 
L 368.589156 70.136205 
L 368.914136 54.243875 
L 369.239115 70.136205 
L 372.488911 70.136205 
L 372.81389 54.201082 
L 373.13887 70.136205 
L 381.588337 70.136205 
L 381.913317 54.243875 
L 382.238296 70.136205 
L 382.563276 54.158364 
L 382.888256 70.136205 
L 383.538215 70.136205 
L 383.863194 55.115814 
L 384.188174 70.136205 
L 385.488092 70.136205 
L 385.813071 54.243875 
L 386.138051 70.136205 
L 387.437969 70.136205 
L 387.762948 54.11572 
L 388.087928 70.136205 
L 389.062867 70.136205 
L 389.387846 54.458968 
L 389.712826 58.539829 
L 390.037805 70.136205 
L 391.337723 70.136205 
L 391.662703 54.372704 
L 391.987682 70.136205 
L 392.962621 70.136205 
L 393.2876 54.329685 
L 393.61258 54.201082 
L 393.937559 70.136205 
L 397.512334 70.136205 
L 397.837314 54.243875 
L 398.162293 70.136205 
L 398.487273 70.136205 
L 398.487273 70.136205 
" style="fill:none;stroke:#ff0000;stroke-linecap:square;stroke-width:1.5;"/>
   </g>
   <g id="patch_3">
    <path d="M 57.6 307.584 
L 57.6 41.472 
" style="fill:none;stroke:#000000;stroke-linecap:square;stroke-linejoin:miter;stroke-width:0.8;"/>
   </g>
   <g id="patch_4">
    <path d="M 414.72 307.584 
L 414.72 41.472 
" style="fill:none;stroke:#000000;stroke-linecap:square;stroke-linejoin:miter;stroke-width:0.8;"/>
   </g>
   <g id="patch_5">
    <path d="M 57.6 307.584 
L 414.72 307.584 
" style="fill:none;stroke:#000000;stroke-linecap:square;stroke-linejoin:miter;stroke-width:0.8;"/>
   </g>
   <g id="patch_6">
    <path d="M 57.6 41.472 
L 414.72 41.472 
" style="fill:none;stroke:#000000;stroke-linecap:square;stroke-linejoin:miter;stroke-width:0.8;"/>
   </g>
   <g id="text_14">
    <!-- Population's average and best fitness -->
    <defs>
     <path d="M 19.671875 64.796875 
L 19.671875 37.40625 
L 32.078125 37.40625 
Q 38.96875 37.40625 42.71875 40.96875 
Q 46.484375 44.53125 46.484375 51.125 
Q 46.484375 57.671875 42.71875 61.234375 
Q 38.96875 64.796875 32.078125 64.796875 
z
M 9.8125 72.90625 
L 32.078125 72.90625 
Q 44.34375 72.90625 50.609375 67.359375 
Q 56.890625 61.8125 56.890625 51.125 
Q 56.890625 40.328125 50.609375 34.8125 
Q 44.34375 29.296875 32.078125 29.296875 
L 19.671875 29.296875 
L 19.671875 0 
L 9.8125 0 
z
" id="DejaVuSans-50"/>
     <path d="M 18.109375 8.203125 
L 18.109375 -20.796875 
L 9.078125 -20.796875 
L 9.078125 54.6875 
L 18.109375 54.6875 
L 18.109375 46.390625 
Q 20.953125 51.265625 25.265625 53.625 
Q 29.59375 56 35.59375 56 
Q 45.5625 56 51.78125 48.09375 
Q 58.015625 40.1875 58.015625 27.296875 
Q 58.015625 14.40625 51.78125 6.484375 
Q 45.5625 -1.421875 35.59375 -1.421875 
Q 29.59375 -1.421875 25.265625 0.953125 
Q 20.953125 3.328125 18.109375 8.203125 
z
M 48.6875 27.296875 
Q 48.6875 37.203125 44.609375 42.84375 
Q 40.53125 48.484375 33.40625 48.484375 
Q 26.265625 48.484375 22.1875 42.84375 
Q 18.109375 37.203125 18.109375 27.296875 
Q 18.109375 17.390625 22.1875 11.75 
Q 26.265625 6.109375 33.40625 6.109375 
Q 40.53125 6.109375 44.609375 11.75 
Q 48.6875 17.390625 48.6875 27.296875 
z
" id="DejaVuSans-70"/>
     <path d="M 8.5 21.578125 
L 8.5 54.6875 
L 17.484375 54.6875 
L 17.484375 21.921875 
Q 17.484375 14.15625 20.5 10.265625 
Q 23.53125 6.390625 29.59375 6.390625 
Q 36.859375 6.390625 41.078125 11.03125 
Q 45.3125 15.671875 45.3125 23.6875 
L 45.3125 54.6875 
L 54.296875 54.6875 
L 54.296875 0 
L 45.3125 0 
L 45.3125 8.40625 
Q 42.046875 3.421875 37.71875 1 
Q 33.40625 -1.421875 27.6875 -1.421875 
Q 18.265625 -1.421875 13.375 4.4375 
Q 8.5 10.296875 8.5 21.578125 
z
M 31.109375 56 
z
" id="DejaVuSans-75"/>
     <path d="M 9.421875 75.984375 
L 18.40625 75.984375 
L 18.40625 0 
L 9.421875 0 
z
" id="DejaVuSans-6c"/>
     <path d="M 17.921875 72.90625 
L 17.921875 45.796875 
L 9.625 45.796875 
L 9.625 72.90625 
z
" id="DejaVuSans-27"/>
     <path id="DejaVuSans-20"/>
     <path d="M 2.984375 54.6875 
L 12.5 54.6875 
L 29.59375 8.796875 
L 46.6875 54.6875 
L 56.203125 54.6875 
L 35.6875 0 
L 23.484375 0 
z
" id="DejaVuSans-76"/>
     <path d="M 45.40625 27.984375 
Q 45.40625 37.75 41.375 43.109375 
Q 37.359375 48.484375 30.078125 48.484375 
Q 22.859375 48.484375 18.828125 43.109375 
Q 14.796875 37.75 14.796875 27.984375 
Q 14.796875 18.265625 18.828125 12.890625 
Q 22.859375 7.515625 30.078125 7.515625 
Q 37.359375 7.515625 41.375 12.890625 
Q 45.40625 18.265625 45.40625 27.984375 
z
M 54.390625 6.78125 
Q 54.390625 -7.171875 48.1875 -13.984375 
Q 42 -20.796875 29.203125 -20.796875 
Q 24.46875 -20.796875 20.265625 -20.09375 
Q 16.0625 -19.390625 12.109375 -17.921875 
L 12.109375 -9.1875 
Q 16.0625 -11.328125 19.921875 -12.34375 
Q 23.78125 -13.375 27.78125 -13.375 
Q 36.625 -13.375 41.015625 -8.765625 
Q 45.40625 -4.15625 45.40625 5.171875 
L 45.40625 9.625 
Q 42.625 4.78125 38.28125 2.390625 
Q 33.9375 0 27.875 0 
Q 17.828125 0 11.671875 7.65625 
Q 5.515625 15.328125 5.515625 27.984375 
Q 5.515625 40.671875 11.671875 48.328125 
Q 17.828125 56 27.875 56 
Q 33.9375 56 38.28125 53.609375 
Q 42.625 51.21875 45.40625 46.390625 
L 45.40625 54.6875 
L 54.390625 54.6875 
z
" id="DejaVuSans-67"/>
     <path d="M 45.40625 46.390625 
L 45.40625 75.984375 
L 54.390625 75.984375 
L 54.390625 0 
L 45.40625 0 
L 45.40625 8.203125 
Q 42.578125 3.328125 38.25 0.953125 
Q 33.9375 -1.421875 27.875 -1.421875 
Q 17.96875 -1.421875 11.734375 6.484375 
Q 5.515625 14.40625 5.515625 27.296875 
Q 5.515625 40.1875 11.734375 48.09375 
Q 17.96875 56 27.875 56 
Q 33.9375 56 38.25 53.625 
Q 42.578125 51.265625 45.40625 46.390625 
z
M 14.796875 27.296875 
Q 14.796875 17.390625 18.875 11.75 
Q 22.953125 6.109375 30.078125 6.109375 
Q 37.203125 6.109375 41.296875 11.75 
Q 45.40625 17.390625 45.40625 27.296875 
Q 45.40625 37.203125 41.296875 42.84375 
Q 37.203125 48.484375 30.078125 48.484375 
Q 22.953125 48.484375 18.875 42.84375 
Q 14.796875 37.203125 14.796875 27.296875 
z
" id="DejaVuSans-64"/>
     <path d="M 48.6875 27.296875 
Q 48.6875 37.203125 44.609375 42.84375 
Q 40.53125 48.484375 33.40625 48.484375 
Q 26.265625 48.484375 22.1875 42.84375 
Q 18.109375 37.203125 18.109375 27.296875 
Q 18.109375 17.390625 22.1875 11.75 
Q 26.265625 6.109375 33.40625 6.109375 
Q 40.53125 6.109375 44.609375 11.75 
Q 48.6875 17.390625 48.6875 27.296875 
z
M 18.109375 46.390625 
Q 20.953125 51.265625 25.265625 53.625 
Q 29.59375 56 35.59375 56 
Q 45.5625 56 51.78125 48.09375 
Q 58.015625 40.1875 58.015625 27.296875 
Q 58.015625 14.40625 51.78125 6.484375 
Q 45.5625 -1.421875 35.59375 -1.421875 
Q 29.59375 -1.421875 25.265625 0.953125 
Q 20.953125 3.328125 18.109375 8.203125 
L 18.109375 0 
L 9.078125 0 
L 9.078125 75.984375 
L 18.109375 75.984375 
z
" id="DejaVuSans-62"/>
     <path d="M 37.109375 75.984375 
L 37.109375 68.5 
L 28.515625 68.5 
Q 23.6875 68.5 21.796875 66.546875 
Q 19.921875 64.59375 19.921875 59.515625 
L 19.921875 54.6875 
L 34.71875 54.6875 
L 34.71875 47.703125 
L 19.921875 47.703125 
L 19.921875 0 
L 10.890625 0 
L 10.890625 47.703125 
L 2.296875 47.703125 
L 2.296875 54.6875 
L 10.890625 54.6875 
L 10.890625 58.5 
Q 10.890625 67.625 15.140625 71.796875 
Q 19.390625 75.984375 28.609375 75.984375 
z
" id="DejaVuSans-66"/>
    </defs>
    <g transform="translate(123.315 35.472)scale(0.12 -0.12)">
     <use xlink:href="#DejaVuSans-50"/>
     <use x="60.255859" xlink:href="#DejaVuSans-6f"/>
     <use x="121.4375" xlink:href="#DejaVuSans-70"/>
     <use x="184.914062" xlink:href="#DejaVuSans-75"/>
     <use x="248.292969" xlink:href="#DejaVuSans-6c"/>
     <use x="276.076172" xlink:href="#DejaVuSans-61"/>
     <use x="337.355469" xlink:href="#DejaVuSans-74"/>
     <use x="376.564453" xlink:href="#DejaVuSans-69"/>
     <use x="404.347656" xlink:href="#DejaVuSans-6f"/>
     <use x="465.529297" xlink:href="#DejaVuSans-6e"/>
     <use x="528.908203" xlink:href="#DejaVuSans-27"/>
     <use x="556.398438" xlink:href="#DejaVuSans-73"/>
     <use x="608.498047" xlink:href="#DejaVuSans-20"/>
     <use x="640.285156" xlink:href="#DejaVuSans-61"/>
     <use x="701.564453" xlink:href="#DejaVuSans-76"/>
     <use x="760.744141" xlink:href="#DejaVuSans-65"/>
     <use x="822.267578" xlink:href="#DejaVuSans-72"/>
     <use x="863.380859" xlink:href="#DejaVuSans-61"/>
     <use x="924.660156" xlink:href="#DejaVuSans-67"/>
     <use x="988.136719" xlink:href="#DejaVuSans-65"/>
     <use x="1049.660156" xlink:href="#DejaVuSans-20"/>
     <use x="1081.447266" xlink:href="#DejaVuSans-61"/>
     <use x="1142.726562" xlink:href="#DejaVuSans-6e"/>
     <use x="1206.105469" xlink:href="#DejaVuSans-64"/>
     <use x="1269.582031" xlink:href="#DejaVuSans-20"/>
     <use x="1301.369141" xlink:href="#DejaVuSans-62"/>
     <use x="1364.845703" xlink:href="#DejaVuSans-65"/>
     <use x="1426.369141" xlink:href="#DejaVuSans-73"/>
     <use x="1478.46875" xlink:href="#DejaVuSans-74"/>
     <use x="1517.677734" xlink:href="#DejaVuSans-20"/>
     <use x="1549.464844" xlink:href="#DejaVuSans-66"/>
     <use x="1584.669922" xlink:href="#DejaVuSans-69"/>
     <use x="1612.453125" xlink:href="#DejaVuSans-74"/>
     <use x="1651.662109" xlink:href="#DejaVuSans-6e"/>
     <use x="1715.041016" xlink:href="#DejaVuSans-65"/>
     <use x="1776.564453" xlink:href="#DejaVuSans-73"/>
     <use x="1828.664062" xlink:href="#DejaVuSans-73"/>
    </g>
   </g>
   <g id="legend_1">
    <g id="patch_7">
     <path d="M 64.6 190.706125 
L 137.540625 190.706125 
Q 139.540625 190.706125 139.540625 188.706125 
L 139.540625 160.349875 
Q 139.540625 158.349875 137.540625 158.349875 
L 64.6 158.349875 
Q 62.6 158.349875 62.6 160.349875 
L 62.6 188.706125 
Q 62.6 190.706125 64.6 190.706125 
z
" style="fill:#ffffff;opacity:0.8;stroke:#cccccc;stroke-linejoin:miter;"/>
    </g>
    <g id="line2d_30">
     <path d="M 66.6 166.448312 
L 86.6 166.448312 
" style="fill:none;stroke:#0000ff;stroke-linecap:square;stroke-width:1.5;"/>
    </g>
    <g id="line2d_31"/>
    <g id="text_15">
     <!-- average -->
     <g transform="translate(94.6 169.948312)scale(0.1 -0.1)">
      <use xlink:href="#DejaVuSans-61"/>
      <use x="61.279297" xlink:href="#DejaVuSans-76"/>
      <use x="120.458984" xlink:href="#DejaVuSans-65"/>
      <use x="181.982422" xlink:href="#DejaVuSans-72"/>
      <use x="223.095703" xlink:href="#DejaVuSans-61"/>
      <use x="284.375" xlink:href="#DejaVuSans-67"/>
      <use x="347.851562" xlink:href="#DejaVuSans-65"/>
     </g>
    </g>
    <g id="line2d_32">
     <path d="M 66.6 181.126437 
L 86.6 181.126437 
" style="fill:none;stroke:#ff0000;stroke-linecap:square;stroke-width:1.5;"/>
    </g>
    <g id="line2d_33"/>
    <g id="text_16">
     <!-- best -->
     <g transform="translate(94.6 184.626437)scale(0.1 -0.1)">
      <use xlink:href="#DejaVuSans-62"/>
      <use x="63.476562" xlink:href="#DejaVuSans-65"/>
      <use x="125" xlink:href="#DejaVuSans-73"/>
      <use x="177.099609" xlink:href="#DejaVuSans-74"/>
     </g>
    </g>
   </g>
  </g>
 </g>
 <defs>
  <clipPath id="p3ce6088ad6">
   <rect height="266.112" width="357.12" x="57.6" y="41.472"/>
  </clipPath>
 </defs>
</svg>
