<?xml version="1.0" encoding="utf-8" standalone="no"?>
<!DOCTYPE svg PUBLIC "-//W3C//DTD SVG 1.1//EN"
  "http://www.w3.org/Graphics/SVG/1.1/DTD/svg11.dtd">
<!-- Created with matplotlib (http://matplotlib.org/) -->
<svg height="345.6pt" version="1.1" viewBox="0 0 460.8 345.6" width="460.8pt" xmlns="http://www.w3.org/2000/svg" xmlns:xlink="http://www.w3.org/1999/xlink">
 <defs>
  <style type="text/css">
*{stroke-linecap:butt;stroke-linejoin:round;}
  </style>
 </defs>
 <g id="figure_1">
  <g id="patch_1">
   <path d="M 0 345.6 
L 460.8 345.6 
L 460.8 0 
L 0 0 
z
" style="fill:#ffffff;"/>
  </g>
  <g id="axes_1">
   <g id="patch_2">
    <path d="M 57.6 307.584 
L 414.72 307.584 
L 414.72 41.472 
L 57.6 41.472 
z
" style="fill:#ffffff;"/>
   </g>
   <g id="matplotlib.axis_1">
    <g id="xtick_1">
     <g id="line2d_1">
      <path clip-path="url(#p838c41731b)" d="M 73.832727 307.584 
L 73.832727 41.472 
" style="fill:none;stroke:#b0b0b0;stroke-linecap:square;stroke-width:0.8;"/>
     </g>
     <g id="line2d_2">
      <defs>
       <path d="M 0 0 
L 0 3.5 
" id="md4c4aba2d8" style="stroke:#000000;stroke-width:0.8;"/>
      </defs>
      <g>
       <use style="stroke:#000000;stroke-width:0.8;" x="73.832727" xlink:href="#md4c4aba2d8" y="307.584"/>
      </g>
     </g>
     <g id="text_1">
      <!-- 0 -->
      <defs>
       <path d="M 31.78125 66.40625 
Q 24.171875 66.40625 20.328125 58.90625 
Q 16.5 51.421875 16.5 36.375 
Q 16.5 21.390625 20.328125 13.890625 
Q 24.171875 6.390625 31.78125 6.390625 
Q 39.453125 6.390625 43.28125 13.890625 
Q 47.125 21.390625 47.125 36.375 
Q 47.125 51.421875 43.28125 58.90625 
Q 39.453125 66.40625 31.78125 66.40625 
z
M 31.78125 74.21875 
Q 44.046875 74.21875 50.515625 64.515625 
Q 56.984375 54.828125 56.984375 36.375 
Q 56.984375 17.96875 50.515625 8.265625 
Q 44.046875 -1.421875 31.78125 -1.421875 
Q 19.53125 -1.421875 13.0625 8.265625 
Q 6.59375 17.96875 6.59375 36.375 
Q 6.59375 54.828125 13.0625 64.515625 
Q 19.53125 74.21875 31.78125 74.21875 
z
" id="DejaVuSans-30"/>
      </defs>
      <g transform="translate(70.651477 322.182437)scale(0.1 -0.1)">
       <use xlink:href="#DejaVuSans-30"/>
      </g>
     </g>
    </g>
    <g id="xtick_2">
     <g id="line2d_3">
      <path clip-path="url(#p838c41731b)" d="M 138.828632 307.584 
L 138.828632 41.472 
" style="fill:none;stroke:#b0b0b0;stroke-linecap:square;stroke-width:0.8;"/>
     </g>
     <g id="line2d_4">
      <g>
       <use style="stroke:#000000;stroke-width:0.8;" x="138.828632" xlink:href="#md4c4aba2d8" y="307.584"/>
      </g>
     </g>
     <g id="text_2">
      <!-- 200 -->
      <defs>
       <path d="M 19.1875 8.296875 
L 53.609375 8.296875 
L 53.609375 0 
L 7.328125 0 
L 7.328125 8.296875 
Q 12.9375 14.109375 22.625 23.890625 
Q 32.328125 33.6875 34.8125 36.53125 
Q 39.546875 41.84375 41.421875 45.53125 
Q 43.3125 49.21875 43.3125 52.78125 
Q 43.3125 58.59375 39.234375 62.25 
Q 35.15625 65.921875 28.609375 65.921875 
Q 23.96875 65.921875 18.8125 64.3125 
Q 13.671875 62.703125 7.8125 59.421875 
L 7.8125 69.390625 
Q 13.765625 71.78125 18.9375 73 
Q 24.125 74.21875 28.421875 74.21875 
Q 39.75 74.21875 46.484375 68.546875 
Q 53.21875 62.890625 53.21875 53.421875 
Q 53.21875 48.921875 51.53125 44.890625 
Q 49.859375 40.875 45.40625 35.40625 
Q 44.1875 33.984375 37.640625 27.21875 
Q 31.109375 20.453125 19.1875 8.296875 
z
" id="DejaVuSans-32"/>
      </defs>
      <g transform="translate(129.284882 322.182437)scale(0.1 -0.1)">
       <use xlink:href="#DejaVuSans-32"/>
       <use x="63.623047" xlink:href="#DejaVuSans-30"/>
       <use x="127.246094" xlink:href="#DejaVuSans-30"/>
      </g>
     </g>
    </g>
    <g id="xtick_3">
     <g id="line2d_5">
      <path clip-path="url(#p838c41731b)" d="M 203.824537 307.584 
L 203.824537 41.472 
" style="fill:none;stroke:#b0b0b0;stroke-linecap:square;stroke-width:0.8;"/>
     </g>
     <g id="line2d_6">
      <g>
       <use style="stroke:#000000;stroke-width:0.8;" x="203.824537" xlink:href="#md4c4aba2d8" y="307.584"/>
      </g>
     </g>
     <g id="text_3">
      <!-- 400 -->
      <defs>
       <path d="M 37.796875 64.3125 
L 12.890625 25.390625 
L 37.796875 25.390625 
z
M 35.203125 72.90625 
L 47.609375 72.90625 
L 47.609375 25.390625 
L 58.015625 25.390625 
L 58.015625 17.1875 
L 47.609375 17.1875 
L 47.609375 0 
L 37.796875 0 
L 37.796875 17.1875 
L 4.890625 17.1875 
L 4.890625 26.703125 
z
" id="DejaVuSans-34"/>
      </defs>
      <g transform="translate(194.280787 322.182437)scale(0.1 -0.1)">
       <use xlink:href="#DejaVuSans-34"/>
       <use x="63.623047" xlink:href="#DejaVuSans-30"/>
       <use x="127.246094" xlink:href="#DejaVuSans-30"/>
      </g>
     </g>
    </g>
    <g id="xtick_4">
     <g id="line2d_7">
      <path clip-path="url(#p838c41731b)" d="M 268.820442 307.584 
L 268.820442 41.472 
" style="fill:none;stroke:#b0b0b0;stroke-linecap:square;stroke-width:0.8;"/>
     </g>
     <g id="line2d_8">
      <g>
       <use style="stroke:#000000;stroke-width:0.8;" x="268.820442" xlink:href="#md4c4aba2d8" y="307.584"/>
      </g>
     </g>
     <g id="text_4">
      <!-- 600 -->
      <defs>
       <path d="M 33.015625 40.375 
Q 26.375 40.375 22.484375 35.828125 
Q 18.609375 31.296875 18.609375 23.390625 
Q 18.609375 15.53125 22.484375 10.953125 
Q 26.375 6.390625 33.015625 6.390625 
Q 39.65625 6.390625 43.53125 10.953125 
Q 47.40625 15.53125 47.40625 23.390625 
Q 47.40625 31.296875 43.53125 35.828125 
Q 39.65625 40.375 33.015625 40.375 
z
M 52.59375 71.296875 
L 52.59375 62.3125 
Q 48.875 64.0625 45.09375 64.984375 
Q 41.3125 65.921875 37.59375 65.921875 
Q 27.828125 65.921875 22.671875 59.328125 
Q 17.53125 52.734375 16.796875 39.40625 
Q 19.671875 43.65625 24.015625 45.921875 
Q 28.375 48.1875 33.59375 48.1875 
Q 44.578125 48.1875 50.953125 41.515625 
Q 57.328125 34.859375 57.328125 23.390625 
Q 57.328125 12.15625 50.6875 5.359375 
Q 44.046875 -1.421875 33.015625 -1.421875 
Q 20.359375 -1.421875 13.671875 8.265625 
Q 6.984375 17.96875 6.984375 36.375 
Q 6.984375 53.65625 15.1875 63.9375 
Q 23.390625 74.21875 37.203125 74.21875 
Q 40.921875 74.21875 44.703125 73.484375 
Q 48.484375 72.75 52.59375 71.296875 
z
" id="DejaVuSans-36"/>
      </defs>
      <g transform="translate(259.276692 322.182437)scale(0.1 -0.1)">
       <use xlink:href="#DejaVuSans-36"/>
       <use x="63.623047" xlink:href="#DejaVuSans-30"/>
       <use x="127.246094" xlink:href="#DejaVuSans-30"/>
      </g>
     </g>
    </g>
    <g id="xtick_5">
     <g id="line2d_9">
      <path clip-path="url(#p838c41731b)" d="M 333.816347 307.584 
L 333.816347 41.472 
" style="fill:none;stroke:#b0b0b0;stroke-linecap:square;stroke-width:0.8;"/>
     </g>
     <g id="line2d_10">
      <g>
       <use style="stroke:#000000;stroke-width:0.8;" x="333.816347" xlink:href="#md4c4aba2d8" y="307.584"/>
      </g>
     </g>
     <g id="text_5">
      <!-- 800 -->
      <defs>
       <path d="M 31.78125 34.625 
Q 24.75 34.625 20.71875 30.859375 
Q 16.703125 27.09375 16.703125 20.515625 
Q 16.703125 13.921875 20.71875 10.15625 
Q 24.75 6.390625 31.78125 6.390625 
Q 38.8125 6.390625 42.859375 10.171875 
Q 46.921875 13.96875 46.921875 20.515625 
Q 46.921875 27.09375 42.890625 30.859375 
Q 38.875 34.625 31.78125 34.625 
z
M 21.921875 38.8125 
Q 15.578125 40.375 12.03125 44.71875 
Q 8.5 49.078125 8.5 55.328125 
Q 8.5 64.0625 14.71875 69.140625 
Q 20.953125 74.21875 31.78125 74.21875 
Q 42.671875 74.21875 48.875 69.140625 
Q 55.078125 64.0625 55.078125 55.328125 
Q 55.078125 49.078125 51.53125 44.71875 
Q 48 40.375 41.703125 38.8125 
Q 48.828125 37.15625 52.796875 32.3125 
Q 56.78125 27.484375 56.78125 20.515625 
Q 56.78125 9.90625 50.3125 4.234375 
Q 43.84375 -1.421875 31.78125 -1.421875 
Q 19.734375 -1.421875 13.25 4.234375 
Q 6.78125 9.90625 6.78125 20.515625 
Q 6.78125 27.484375 10.78125 32.3125 
Q 14.796875 37.15625 21.921875 38.8125 
z
M 18.3125 54.390625 
Q 18.3125 48.734375 21.84375 45.5625 
Q 25.390625 42.390625 31.78125 42.390625 
Q 38.140625 42.390625 41.71875 45.5625 
Q 45.3125 48.734375 45.3125 54.390625 
Q 45.3125 60.0625 41.71875 63.234375 
Q 38.140625 66.40625 31.78125 66.40625 
Q 25.390625 66.40625 21.84375 63.234375 
Q 18.3125 60.0625 18.3125 54.390625 
z
" id="DejaVuSans-38"/>
      </defs>
      <g transform="translate(324.272597 322.182437)scale(0.1 -0.1)">
       <use xlink:href="#DejaVuSans-38"/>
       <use x="63.623047" xlink:href="#DejaVuSans-30"/>
       <use x="127.246094" xlink:href="#DejaVuSans-30"/>
      </g>
     </g>
    </g>
    <g id="xtick_6">
     <g id="line2d_11">
      <path clip-path="url(#p838c41731b)" d="M 398.812252 307.584 
L 398.812252 41.472 
" style="fill:none;stroke:#b0b0b0;stroke-linecap:square;stroke-width:0.8;"/>
     </g>
     <g id="line2d_12">
      <g>
       <use style="stroke:#000000;stroke-width:0.8;" x="398.812252" xlink:href="#md4c4aba2d8" y="307.584"/>
      </g>
     </g>
     <g id="text_6">
      <!-- 1000 -->
      <defs>
       <path d="M 12.40625 8.296875 
L 28.515625 8.296875 
L 28.515625 63.921875 
L 10.984375 60.40625 
L 10.984375 69.390625 
L 28.421875 72.90625 
L 38.28125 72.90625 
L 38.28125 8.296875 
L 54.390625 8.296875 
L 54.390625 0 
L 12.40625 0 
z
" id="DejaVuSans-31"/>
      </defs>
      <g transform="translate(386.087252 322.182437)scale(0.1 -0.1)">
       <use xlink:href="#DejaVuSans-31"/>
       <use x="63.623047" xlink:href="#DejaVuSans-30"/>
       <use x="127.246094" xlink:href="#DejaVuSans-30"/>
       <use x="190.869141" xlink:href="#DejaVuSans-30"/>
      </g>
     </g>
    </g>
    <g id="text_7">
     <!-- Generations -->
     <defs>
      <path d="M 59.515625 10.40625 
L 59.515625 29.984375 
L 43.40625 29.984375 
L 43.40625 38.09375 
L 69.28125 38.09375 
L 69.28125 6.78125 
Q 63.578125 2.734375 56.6875 0.65625 
Q 49.8125 -1.421875 42 -1.421875 
Q 24.90625 -1.421875 15.25 8.5625 
Q 5.609375 18.5625 5.609375 36.375 
Q 5.609375 54.25 15.25 64.234375 
Q 24.90625 74.21875 42 74.21875 
Q 49.125 74.21875 55.546875 72.453125 
Q 61.96875 70.703125 67.390625 67.28125 
L 67.390625 56.78125 
Q 61.921875 61.421875 55.765625 63.765625 
Q 49.609375 66.109375 42.828125 66.109375 
Q 29.4375 66.109375 22.71875 58.640625 
Q 16.015625 51.171875 16.015625 36.375 
Q 16.015625 21.625 22.71875 14.15625 
Q 29.4375 6.6875 42.828125 6.6875 
Q 48.046875 6.6875 52.140625 7.59375 
Q 56.25 8.5 59.515625 10.40625 
z
" id="DejaVuSans-47"/>
      <path d="M 56.203125 29.59375 
L 56.203125 25.203125 
L 14.890625 25.203125 
Q 15.484375 15.921875 20.484375 11.0625 
Q 25.484375 6.203125 34.421875 6.203125 
Q 39.59375 6.203125 44.453125 7.46875 
Q 49.3125 8.734375 54.109375 11.28125 
L 54.109375 2.78125 
Q 49.265625 0.734375 44.1875 -0.34375 
Q 39.109375 -1.421875 33.890625 -1.421875 
Q 20.796875 -1.421875 13.15625 6.1875 
Q 5.515625 13.8125 5.515625 26.8125 
Q 5.515625 40.234375 12.765625 48.109375 
Q 20.015625 56 32.328125 56 
Q 43.359375 56 49.78125 48.890625 
Q 56.203125 41.796875 56.203125 29.59375 
z
M 47.21875 32.234375 
Q 47.125 39.59375 43.09375 43.984375 
Q 39.0625 48.390625 32.421875 48.390625 
Q 24.90625 48.390625 20.390625 44.140625 
Q 15.875 39.890625 15.1875 32.171875 
z
" id="DejaVuSans-65"/>
      <path d="M 54.890625 33.015625 
L 54.890625 0 
L 45.90625 0 
L 45.90625 32.71875 
Q 45.90625 40.484375 42.875 44.328125 
Q 39.84375 48.1875 33.796875 48.1875 
Q 26.515625 48.1875 22.3125 43.546875 
Q 18.109375 38.921875 18.109375 30.90625 
L 18.109375 0 
L 9.078125 0 
L 9.078125 54.6875 
L 18.109375 54.6875 
L 18.109375 46.1875 
Q 21.34375 51.125 25.703125 53.5625 
Q 30.078125 56 35.796875 56 
Q 45.21875 56 50.046875 50.171875 
Q 54.890625 44.34375 54.890625 33.015625 
z
" id="DejaVuSans-6e"/>
      <path d="M 41.109375 46.296875 
Q 39.59375 47.171875 37.8125 47.578125 
Q 36.03125 48 33.890625 48 
Q 26.265625 48 22.1875 43.046875 
Q 18.109375 38.09375 18.109375 28.8125 
L 18.109375 0 
L 9.078125 0 
L 9.078125 54.6875 
L 18.109375 54.6875 
L 18.109375 46.1875 
Q 20.953125 51.171875 25.484375 53.578125 
Q 30.03125 56 36.53125 56 
Q 37.453125 56 38.578125 55.875 
Q 39.703125 55.765625 41.0625 55.515625 
z
" id="DejaVuSans-72"/>
      <path d="M 34.28125 27.484375 
Q 23.390625 27.484375 19.1875 25 
Q 14.984375 22.515625 14.984375 16.5 
Q 14.984375 11.71875 18.140625 8.90625 
Q 21.296875 6.109375 26.703125 6.109375 
Q 34.1875 6.109375 38.703125 11.40625 
Q 43.21875 16.703125 43.21875 25.484375 
L 43.21875 27.484375 
z
M 52.203125 31.203125 
L 52.203125 0 
L 43.21875 0 
L 43.21875 8.296875 
Q 40.140625 3.328125 35.546875 0.953125 
Q 30.953125 -1.421875 24.3125 -1.421875 
Q 15.921875 -1.421875 10.953125 3.296875 
Q 6 8.015625 6 15.921875 
Q 6 25.140625 12.171875 29.828125 
Q 18.359375 34.515625 30.609375 34.515625 
L 43.21875 34.515625 
L 43.21875 35.40625 
Q 43.21875 41.609375 39.140625 45 
Q 35.0625 48.390625 27.6875 48.390625 
Q 23 48.390625 18.546875 47.265625 
Q 14.109375 46.140625 10.015625 43.890625 
L 10.015625 52.203125 
Q 14.9375 54.109375 19.578125 55.046875 
Q 24.21875 56 28.609375 56 
Q 40.484375 56 46.34375 49.84375 
Q 52.203125 43.703125 52.203125 31.203125 
z
" id="DejaVuSans-61"/>
      <path d="M 18.3125 70.21875 
L 18.3125 54.6875 
L 36.8125 54.6875 
L 36.8125 47.703125 
L 18.3125 47.703125 
L 18.3125 18.015625 
Q 18.3125 11.328125 20.140625 9.421875 
Q 21.96875 7.515625 27.59375 7.515625 
L 36.8125 7.515625 
L 36.8125 0 
L 27.59375 0 
Q 17.1875 0 13.234375 3.875 
Q 9.28125 7.765625 9.28125 18.015625 
L 9.28125 47.703125 
L 2.6875 47.703125 
L 2.6875 54.6875 
L 9.28125 54.6875 
L 9.28125 70.21875 
z
" id="DejaVuSans-74"/>
      <path d="M 9.421875 54.6875 
L 18.40625 54.6875 
L 18.40625 0 
L 9.421875 0 
z
M 9.421875 75.984375 
L 18.40625 75.984375 
L 18.40625 64.59375 
L 9.421875 64.59375 
z
" id="DejaVuSans-69"/>
      <path d="M 30.609375 48.390625 
Q 23.390625 48.390625 19.1875 42.75 
Q 14.984375 37.109375 14.984375 27.296875 
Q 14.984375 17.484375 19.15625 11.84375 
Q 23.34375 6.203125 30.609375 6.203125 
Q 37.796875 6.203125 41.984375 11.859375 
Q 46.1875 17.53125 46.1875 27.296875 
Q 46.1875 37.015625 41.984375 42.703125 
Q 37.796875 48.390625 30.609375 48.390625 
z
M 30.609375 56 
Q 42.328125 56 49.015625 48.375 
Q 55.71875 40.765625 55.71875 27.296875 
Q 55.71875 13.875 49.015625 6.21875 
Q 42.328125 -1.421875 30.609375 -1.421875 
Q 18.84375 -1.421875 12.171875 6.21875 
Q 5.515625 13.875 5.515625 27.296875 
Q 5.515625 40.765625 12.171875 48.375 
Q 18.84375 56 30.609375 56 
z
" id="DejaVuSans-6f"/>
      <path d="M 44.28125 53.078125 
L 44.28125 44.578125 
Q 40.484375 46.53125 36.375 47.5 
Q 32.28125 48.484375 27.875 48.484375 
Q 21.1875 48.484375 17.84375 46.4375 
Q 14.5 44.390625 14.5 40.28125 
Q 14.5 37.15625 16.890625 35.375 
Q 19.28125 33.59375 26.515625 31.984375 
L 29.59375 31.296875 
Q 39.15625 29.25 43.1875 25.515625 
Q 47.21875 21.78125 47.21875 15.09375 
Q 47.21875 7.46875 41.1875 3.015625 
Q 35.15625 -1.421875 24.609375 -1.421875 
Q 20.21875 -1.421875 15.453125 -0.5625 
Q 10.6875 0.296875 5.421875 2 
L 5.421875 11.28125 
Q 10.40625 8.6875 15.234375 7.390625 
Q 20.0625 6.109375 24.8125 6.109375 
Q 31.15625 6.109375 34.5625 8.28125 
Q 37.984375 10.453125 37.984375 14.40625 
Q 37.984375 18.0625 35.515625 20.015625 
Q 33.0625 21.96875 24.703125 23.78125 
L 21.578125 24.515625 
Q 13.234375 26.265625 9.515625 29.90625 
Q 5.8125 33.546875 5.8125 39.890625 
Q 5.8125 47.609375 11.28125 51.796875 
Q 16.75 56 26.8125 56 
Q 31.78125 56 36.171875 55.265625 
Q 40.578125 54.546875 44.28125 53.078125 
z
" id="DejaVuSans-73"/>
     </defs>
     <g transform="translate(205.662344 335.860562)scale(0.1 -0.1)">
      <use xlink:href="#DejaVuSans-47"/>
      <use x="77.490234" xlink:href="#DejaVuSans-65"/>
      <use x="139.013672" xlink:href="#DejaVuSans-6e"/>
      <use x="202.392578" xlink:href="#DejaVuSans-65"/>
      <use x="263.916016" xlink:href="#DejaVuSans-72"/>
      <use x="305.029297" xlink:href="#DejaVuSans-61"/>
      <use x="366.308594" xlink:href="#DejaVuSans-74"/>
      <use x="405.517578" xlink:href="#DejaVuSans-69"/>
      <use x="433.300781" xlink:href="#DejaVuSans-6f"/>
      <use x="494.482422" xlink:href="#DejaVuSans-6e"/>
      <use x="557.861328" xlink:href="#DejaVuSans-73"/>
     </g>
    </g>
   </g>
   <g id="matplotlib.axis_2">
    <g id="ytick_1">
     <g id="line2d_13">
      <path clip-path="url(#p838c41731b)" d="M 57.6 227.154926 
L 414.72 227.154926 
" style="fill:none;stroke:#b0b0b0;stroke-linecap:square;stroke-width:0.8;"/>
     </g>
     <g id="line2d_14">
      <defs>
       <path d="M 0 0 
L -3.5 0 
" id="m0738beb83d" style="stroke:#000000;stroke-width:0.8;"/>
      </defs>
      <g>
       <use style="stroke:#000000;stroke-width:0.8;" x="57.6" xlink:href="#m0738beb83d" y="227.154926"/>
      </g>
     </g>
     <g id="text_8">
      <!-- $\mathdefault{-10^{0}}$ -->
      <defs>
       <path d="M 10.59375 35.5 
L 73.1875 35.5 
L 73.1875 27.203125 
L 10.59375 27.203125 
z
" id="DejaVuSans-2212"/>
      </defs>
      <g transform="translate(24.6 230.954145)scale(0.1 -0.1)">
       <use transform="translate(0 0.765625)" xlink:href="#DejaVuSans-2212"/>
       <use transform="translate(83.789062 0.765625)" xlink:href="#DejaVuSans-31"/>
       <use transform="translate(147.412109 0.765625)" xlink:href="#DejaVuSans-30"/>
       <use transform="translate(211.992188 39.046875)scale(0.7)" xlink:href="#DejaVuSans-30"/>
      </g>
     </g>
    </g>
    <g id="ytick_2">
     <g id="line2d_15">
      <path clip-path="url(#p838c41731b)" d="M 57.6 190.393359 
L 414.72 190.393359 
" style="fill:none;stroke:#b0b0b0;stroke-linecap:square;stroke-width:0.8;"/>
     </g>
     <g id="line2d_16">
      <g>
       <use style="stroke:#000000;stroke-width:0.8;" x="57.6" xlink:href="#m0738beb83d" y="190.393359"/>
      </g>
     </g>
     <g id="text_9">
      <!-- $\mathdefault{0}$ -->
      <g transform="translate(44.2 194.192577)scale(0.1 -0.1)">
       <use transform="translate(0 0.78125)" xlink:href="#DejaVuSans-30"/>
      </g>
     </g>
    </g>
    <g id="ytick_3">
     <g id="line2d_17">
      <path clip-path="url(#p838c41731b)" d="M 57.6 153.631791 
L 414.72 153.631791 
" style="fill:none;stroke:#b0b0b0;stroke-linecap:square;stroke-width:0.8;"/>
     </g>
     <g id="line2d_18">
      <g>
       <use style="stroke:#000000;stroke-width:0.8;" x="57.6" xlink:href="#m0738beb83d" y="153.631791"/>
      </g>
     </g>
     <g id="text_10">
      <!-- $\mathdefault{10^{0}}$ -->
      <g transform="translate(33 157.43101)scale(0.1 -0.1)">
       <use transform="translate(0 0.765625)" xlink:href="#DejaVuSans-31"/>
       <use transform="translate(63.623047 0.765625)" xlink:href="#DejaVuSans-30"/>
       <use transform="translate(128.203125 39.046875)scale(0.7)" xlink:href="#DejaVuSans-30"/>
      </g>
     </g>
    </g>
    <g id="ytick_4">
     <g id="line2d_19">
      <path clip-path="url(#p838c41731b)" d="M 57.6 70.618803 
L 414.72 70.618803 
" style="fill:none;stroke:#b0b0b0;stroke-linecap:square;stroke-width:0.8;"/>
     </g>
     <g id="line2d_20">
      <g>
       <use style="stroke:#000000;stroke-width:0.8;" x="57.6" xlink:href="#m0738beb83d" y="70.618803"/>
      </g>
     </g>
     <g id="text_11">
      <!-- $\mathdefault{10^{1}}$ -->
      <g transform="translate(33 74.418022)scale(0.1 -0.1)">
       <use transform="translate(0 0.684375)" xlink:href="#DejaVuSans-31"/>
       <use transform="translate(63.623047 0.684375)" xlink:href="#DejaVuSans-30"/>
       <use transform="translate(128.203125 38.965625)scale(0.7)" xlink:href="#DejaVuSans-31"/>
      </g>
     </g>
    </g>
    <g id="ytick_5">
     <g id="line2d_21">
      <defs>
       <path d="M 0 0 
L -2 0 
" id="mc1d5c7db74" style="stroke:#000000;stroke-width:0.6;"/>
      </defs>
      <g>
       <use style="stroke:#000000;stroke-width:0.6;" x="57.6" xlink:href="#mc1d5c7db74" y="227.154926"/>
      </g>
     </g>
    </g>
    <g id="ytick_6">
     <g id="line2d_22">
      <g>
       <use style="stroke:#000000;stroke-width:0.6;" x="57.6" xlink:href="#mc1d5c7db74" y="190.393359"/>
      </g>
     </g>
    </g>
    <g id="ytick_7">
     <g id="line2d_23">
      <g>
       <use style="stroke:#000000;stroke-width:0.6;" x="57.6" xlink:href="#mc1d5c7db74" y="153.631791"/>
      </g>
     </g>
    </g>
    <g id="ytick_8">
     <g id="line2d_24">
      <g>
       <use style="stroke:#000000;stroke-width:0.6;" x="57.6" xlink:href="#mc1d5c7db74" y="70.618803"/>
      </g>
     </g>
    </g>
    <g id="text_12">
     <!-- Fitness -->
     <defs>
      <path d="M 9.8125 72.90625 
L 51.703125 72.90625 
L 51.703125 64.59375 
L 19.671875 64.59375 
L 19.671875 43.109375 
L 48.578125 43.109375 
L 48.578125 34.8125 
L 19.671875 34.8125 
L 19.671875 0 
L 9.8125 0 
z
" id="DejaVuSans-46"/>
     </defs>
     <g transform="translate(18.520312 192.202219)rotate(-90)scale(0.1 -0.1)">
      <use xlink:href="#DejaVuSans-46"/>
      <use x="57.410156" xlink:href="#DejaVuSans-69"/>
      <use x="85.193359" xlink:href="#DejaVuSans-74"/>
      <use x="124.402344" xlink:href="#DejaVuSans-6e"/>
      <use x="187.78125" xlink:href="#DejaVuSans-65"/>
      <use x="249.304688" xlink:href="#DejaVuSans-73"/>
      <use x="301.404297" xlink:href="#DejaVuSans-73"/>
     </g>
    </g>
   </g>
   <g id="line2d_25">
    <path clip-path="url(#p838c41731b)" d="M 73.832727 274.574522 
L 74.157707 274.713017 
L 74.482686 264.145481 
L 74.807666 271.960209 
L 75.132645 269.912279 
L 75.457625 272.498181 
L 75.782604 283.590583 
L 76.107584 274.495081 
L 76.432563 279.266737 
L 77.082523 283.064077 
L 77.407502 273.993539 
L 77.732482 243.88144 
L 78.057461 251.049946 
L 78.382441 201.715922 
L 78.70742 267.383379 
L 79.0324 282.211705 
L 79.357379 281.02854 
L 79.682359 281.541587 
L 80.007338 290.62166 
L 80.332318 285.654992 
L 80.657297 274.584535 
L 80.982277 281.08613 
L 81.307256 283.683095 
L 81.632236 276.114902 
L 81.957215 278.148814 
L 82.282195 225.868272 
L 82.607174 269.39447 
L 82.932154 241.750361 
L 83.257133 277.771404 
L 83.582113 272.752874 
L 83.907093 207.660156 
L 84.232072 272.041933 
L 84.557052 276.062449 
L 84.882031 270.903881 
L 85.207011 278.48476 
L 85.53199 282.763887 
L 85.85697 281.005001 
L 86.181949 284.357516 
L 86.831908 241.602223 
L 87.156888 255.056956 
L 87.481867 275.472646 
L 87.806847 281.327479 
L 88.131826 283.821379 
L 88.456806 295.488 
L 88.781785 293.896583 
L 89.106765 295.488 
L 89.756724 295.488 
L 90.081704 293.257925 
L 90.406683 294.853611 
L 90.731663 291.042106 
L 91.056642 292.698677 
L 91.381622 293.206117 
L 91.706601 294.592917 
L 92.031581 295.488 
L 92.35656 292.192861 
L 92.68154 293.02927 
L 93.006519 295.488 
L 93.331499 293.643532 
L 93.656478 293.758238 
L 93.981458 295.029106 
L 94.306437 291.142568 
L 94.631417 292.725054 
L 94.956396 293.133429 
L 95.281376 294.74077 
L 95.606355 295.353577 
L 95.931335 295.488 
L 96.581294 293.51557 
L 96.906274 294.806595 
L 97.231253 295.488 
L 97.556233 289.562173 
L 97.881212 295.488 
L 98.531171 292.503161 
L 99.50611 271.785909 
L 99.831089 276.585713 
L 100.156069 271.800254 
L 100.481048 286.269797 
L 100.806028 280.36565 
L 101.131007 283.597828 
L 101.455987 210.157251 
L 101.780966 265.548024 
L 102.105946 228.829216 
L 102.430925 270.340489 
L 102.755905 274.385491 
L 103.080885 269.649647 
L 103.405864 281.038656 
L 103.730844 267.484081 
L 104.055823 283.152501 
L 104.380803 279.92453 
L 104.705782 281.220215 
L 105.030762 292.443893 
L 105.680721 279.835471 
L 106.0057 288.938723 
L 106.33068 288.159943 
L 106.655659 290.011892 
L 106.980639 283.720716 
L 107.305618 284.455145 
L 107.630598 186.754335 
L 107.955577 273.241739 
L 108.280557 272.498181 
L 108.605536 282.054656 
L 108.930516 275.692858 
L 109.255495 274.446798 
L 109.580475 265.318608 
L 109.905455 274.435356 
L 110.230434 270.072522 
L 110.555414 275.051823 
L 110.880393 267.679389 
L 111.205373 287.864815 
L 111.530352 279.401183 
L 111.855332 293.195744 
L 112.180311 284.607894 
L 112.505291 286.594472 
L 112.83027 289.590818 
L 113.15525 289.182949 
L 113.480229 289.50158 
L 113.805209 266.800257 
L 114.130188 291.807775 
L 114.455168 242.116885 
L 114.780147 281.141417 
L 115.105127 278.602155 
L 115.430106 272.826736 
L 115.755086 258.711639 
L 116.080066 289.812737 
L 116.405045 289.656202 
L 116.730025 278.533116 
L 117.055004 276.529434 
L 117.379984 279.535002 
L 117.704963 248.403113 
L 118.029943 283.372377 
L 118.679902 230.353183 
L 119.329861 269.048014 
L 119.65484 256.637704 
L 119.97982 255.865711 
L 120.304799 250.755853 
L 120.629779 266.287383 
L 120.954758 239.617098 
L 121.279738 274.514962 
L 121.604717 272.273458 
L 121.929697 242.815354 
L 122.254676 280.495063 
L 122.579656 194.363608 
L 122.904636 210.465175 
L 123.229615 208.553573 
L 123.554595 286.627087 
L 123.879574 281.91216 
L 124.204554 272.847804 
L 124.529533 245.241618 
L 124.854513 198.62795 
L 125.179492 232.742685 
L 125.504472 238.036351 
L 125.829451 234.544002 
L 126.154431 247.300266 
L 126.47941 266.287383 
L 126.80439 272.773997 
L 127.129369 265.753211 
L 127.454349 250.351476 
L 127.779328 265.509556 
L 128.104308 219.582044 
L 128.429287 202.524676 
L 128.754267 274.475187 
L 129.079247 261.600516 
L 129.404226 265.780157 
L 129.729206 250.167668 
L 130.054185 268.927571 
L 130.379165 277.152595 
L 130.704144 231.239545 
L 131.029124 256.30685 
L 131.354103 253.215602 
L 131.679083 248.811494 
L 132.004062 224.461505 
L 132.329042 272.678821 
L 132.654021 277.604135 
L 133.30398 261.085854 
L 133.62896 277.01629 
L 133.953939 273.392181 
L 134.278919 284.069681 
L 134.603898 253.252 
L 134.928878 285.741662 
L 135.253857 284.945218 
L 135.578837 275.882986 
L 135.903817 291.034355 
L 136.228796 207.561011 
L 136.553776 282.0883 
L 136.878755 287.475018 
L 137.203735 269.441931 
L 137.528714 286.246451 
L 137.853694 285.128324 
L 138.178673 282.66277 
L 138.503653 289.03944 
L 139.153612 274.752464 
L 139.478591 254.21144 
L 139.803571 273.099431 
L 140.12855 271.234306 
L 140.45353 255.828949 
L 141.103489 275.673776 
L 141.428468 267.403296 
L 141.753448 278.403218 
L 142.078428 275.260416 
L 142.403407 274.465234 
L 142.728387 276.934196 
L 143.053366 280.567602 
L 143.378346 264.145481 
L 143.703325 286.522587 
L 144.028305 283.64126 
L 144.353284 275.182852 
L 144.678264 261.637277 
L 145.653202 285.780245 
L 145.978182 279.717992 
L 146.303161 236.198272 
L 146.628141 265.645175 
L 146.95312 220.684891 
L 147.2781 274.235372 
L 147.603079 265.699244 
L 147.928059 272.668227 
L 148.253038 285.306352 
L 148.578018 276.833538 
L 148.902998 278.645221 
L 149.227977 265.672222 
L 149.552957 245.241618 
L 149.877936 276.547956 
L 150.202916 227.816635 
L 150.527895 262.004893 
L 150.852875 251.821939 
L 151.177854 250.68233 
L 151.502834 242.300692 
L 151.827813 275.241045 
L 152.152793 281.517693 
L 152.477772 278.944886 
L 152.802752 283.394272 
L 153.127731 274.01377 
L 153.452711 214.435424 
L 153.77769 282.93093 
L 154.10267 226.30941 
L 154.427649 265.968073 
L 154.752629 284.26376 
L 155.077609 281.486524 
L 155.402588 268.975809 
L 155.727568 283.850262 
L 156.052547 273.503682 
L 156.377527 289.27228 
L 156.702506 271.077941 
L 157.027486 285.23801 
L 157.352465 283.049313 
L 157.677445 277.00718 
L 158.002424 278.748316 
L 158.327404 287.764727 
L 158.652383 279.334039 
L 158.977363 283.691848 
L 159.302342 246.565034 
L 159.627322 241.78603 
L 159.952301 268.987855 
L 160.277281 198.554427 
L 160.60226 273.161994 
L 160.92724 276.137678 
L 161.252219 241.712507 
L 161.577199 279.751138 
L 162.227158 273.390237 
L 162.552138 275.635574 
L 162.877117 266.313833 
L 163.202097 274.01377 
L 163.527076 270.649182 
L 163.852056 208.296242 
L 164.177035 273.276342 
L 164.502015 275.453417 
L 165.151974 233.073539 
L 165.476953 220.611367 
L 165.801933 276.118889 
L 166.126912 276.137678 
L 166.451892 268.68516 
L 166.776871 258.034643 
L 167.101851 277.638009 
L 167.42683 258.586067 
L 167.75181 281.377166 
L 168.07679 278.584911 
L 168.401769 235.90418 
L 168.726749 208.185957 
L 169.051728 274.653743 
L 169.376708 275.124541 
L 169.701687 278.653826 
L 170.026667 273.13073 
L 170.351646 272.348561 
L 170.676626 278.307586 
L 171.001605 218.957097 
L 171.326585 280.696111 
L 171.651564 275.29912 
L 171.976544 267.173291 
L 172.301523 265.126382 
L 172.626503 227.081403 
L 172.951482 266.382593 
L 173.276462 276.714123 
L 173.926421 256.821512 
L 174.2514 253.03507 
L 174.57638 283.821524 
L 174.90136 277.992362 
L 175.226339 278.185409 
L 175.551319 271.829583 
L 175.876298 267.93292 
L 176.201278 288.43365 
L 176.526257 281.141417 
L 176.851237 250.241191 
L 177.176216 283.35777 
L 177.501196 282.149314 
L 177.826175 277.261176 
L 178.151155 254.726102 
L 178.476134 278.910796 
L 178.801114 271.45622 
L 179.126093 279.585024 
L 179.451073 279.916297 
L 179.776052 276.649617 
L 180.101032 277.655831 
L 181.075971 196.642825 
L 181.40095 278.324997 
L 181.72593 273.932762 
L 182.050909 196.128163 
L 182.375889 275.366727 
L 182.700868 275.568598 
L 183.025848 267.479557 
L 183.350827 279.751138 
L 183.675807 244.506387 
L 184.000786 278.446583 
L 184.325766 254.43201 
L 184.650745 279.182388 
L 184.975725 286.08746 
L 185.300704 271.764047 
L 185.625684 284.036359 
L 185.950663 285.087084 
L 186.275643 274.732747 
L 186.600622 279.809051 
L 186.925602 293.842022 
L 187.250581 294.543463 
L 187.575561 294.493924 
L 187.900541 295.488 
L 188.22552 294.573146 
L 188.5505 295.488 
L 188.875479 295.488 
L 189.200459 293.882569 
L 189.525438 295.488 
L 189.850418 294.66201 
L 190.175397 295.237855 
L 190.500377 295.488 
L 190.825356 295.043943 
L 191.150336 294.274932 
L 191.475315 294.868297 
L 191.800295 285.72648 
L 192.125274 290.523077 
L 192.450254 263.475356 
L 192.775233 289.503248 
L 193.100213 295.488 
L 193.425192 295.488 
L 193.750172 288.051544 
L 194.075152 295.488 
L 194.400131 295.488 
L 195.05009 294.538513 
L 195.37507 281.935196 
L 195.700049 295.488 
L 196.999967 295.488 
L 197.324947 294.917195 
L 197.649926 293.288964 
L 197.974906 295.488 
L 198.624865 295.401658 
L 198.949844 294.819315 
L 199.274824 295.488 
L 199.599803 295.488 
L 199.924783 285.093961 
L 200.249762 295.488 
L 200.574742 290.064 
L 200.899722 295.488 
L 201.224701 295.488 
L 201.549681 285.967636 
L 201.87466 295.488 
L 202.524619 295.488 
L 203.174578 294.10456 
L 203.499558 294.094507 
L 204.149517 295.488 
L 204.474496 295.043943 
L 204.799476 295.488 
L 205.124455 291.738073 
L 205.449435 294.74077 
L 205.774414 295.488 
L 206.099394 278.944886 
L 206.424373 277.07998 
L 206.749353 277.134459 
L 207.074333 250.498522 
L 207.724292 295.488 
L 208.049271 295.488 
L 208.374251 294.523658 
L 208.69923 292.846077 
L 209.02421 286.007633 
L 209.349189 252.667455 
L 209.674169 270.167727 
L 210.324128 217.082257 
L 210.649107 259.137491 
L 210.974087 280.623895 
L 211.299066 235.352756 
L 211.624046 279.693107 
L 211.949025 210.060797 
L 212.274005 211.347452 
L 212.598984 279.055399 
L 212.923964 279.089318 
L 213.248943 279.568359 
L 213.573923 231.713361 
L 213.898903 279.883341 
L 214.223882 226.677026 
L 214.548862 291.551927 
L 215.198821 276.934196 
L 215.5238 295.488 
L 215.84878 281.634276 
L 216.173759 294.583033 
L 216.498739 287.864815 
L 216.823718 289.749924 
L 217.148698 295.063393 
L 217.473677 295.488 
L 220.073514 295.488 
L 220.398493 279.940989 
L 220.723473 295.488 
L 221.048452 295.488 
L 221.373432 294.907422 
L 222.023391 295.488 
L 226.248124 295.488 
L 226.573104 288.421403 
L 226.898084 295.488 
L 227.873022 295.488 
L 228.198002 295.150757 
L 228.522981 293.912942 
L 228.847961 295.488 
L 229.49792 295.488 
L 229.822899 292.225072 
L 230.147879 281.424085 
L 230.472858 295.488 
L 230.797838 295.488 
L 231.122817 295.073114 
L 231.447797 295.488 
L 231.772776 260.277099 
L 232.097756 286.233235 
L 232.422735 295.488 
L 233.722654 295.488 
L 234.047633 294.642286 
L 234.372613 287.386263 
L 234.697592 295.488 
L 238.597346 295.488 
L 238.922326 293.933172 
L 239.247305 295.488 
L 240.547224 295.488 
L 240.872203 295.237855 
L 241.197183 295.488 
L 241.522162 294.563255 
L 241.847142 295.488 
L 243.472039 295.488 
L 243.797019 294.553361 
L 244.121998 295.488 
L 245.096937 295.488 
L 245.421916 294.71126 
L 245.746896 295.488 
L 250.946568 295.488 
L 251.596527 295.160447 
L 251.921507 295.488 
L 252.896446 295.488 
L 253.221425 288.865072 
L 253.546405 294.543463 
L 253.871384 295.488 
L 255.496282 295.488 
L 255.821261 295.150757 
L 256.146241 294.214916 
L 256.47122 295.488 
L 256.7962 291.540939 
L 257.121179 295.488 
L 257.446159 292.182116 
L 257.771138 291.792594 
L 258.096118 295.488 
L 258.421097 295.488 
L 258.746077 275.901929 
L 259.071057 295.063393 
L 259.396036 292.640563 
L 259.721016 295.488 
L 260.045995 295.488 
L 260.370975 294.592917 
L 260.695954 282.497653 
L 261.020934 294.11461 
L 261.345913 293.872438 
L 261.670893 276.658841 
L 261.995872 265.914508 
L 262.320852 285.018218 
L 262.645831 295.488 
L 263.29579 275.22166 
L 263.62077 286.640123 
L 263.945749 291.895898 
L 264.270729 286.206786 
L 264.595708 292.629984 
L 264.920688 186.717202 
L 265.245667 284.636479 
L 265.570647 295.488 
L 265.895627 295.488 
L 266.220606 291.320304 
L 266.545586 277.503993 
L 267.195545 295.247516 
L 267.520524 295.488 
L 269.795381 295.488 
L 270.12036 275.76906 
L 270.44534 278.185409 
L 270.770319 295.488 
L 271.745258 295.488 
L 272.070238 295.092544 
L 272.395217 295.488 
L 272.720197 295.488 
L 273.045176 295.22819 
L 273.370156 295.488 
L 274.995053 295.488 
L 275.320033 295.266829 
L 275.645012 295.488 
L 276.294971 295.488 
L 276.619951 288.039133 
L 276.94493 293.505309 
L 277.26991 295.488 
L 278.244848 295.488 
L 278.569828 295.247516 
L 278.894808 290.271493 
L 279.219787 295.488 
L 280.194726 295.488 
L 280.844685 292.160613 
L 281.169664 265.345964 
L 281.494644 270.580894 
L 281.819623 284.566523 
L 282.144603 249.101582 
L 282.469582 273.255585 
L 282.794562 220.317275 
L 283.119541 274.811534 
L 283.444521 258.696352 
L 283.7695 200.833644 
L 284.09448 268.915499 
L 284.419459 197.819195 
L 284.744439 208.406527 
L 285.069419 271.916733 
L 285.394398 280.113243 
L 285.719378 276.906779 
L 286.044357 279.717992 
L 286.369337 246.344465 
L 286.694316 269.583846 
L 287.019296 252.814501 
L 287.344275 276.053031 
L 287.669255 266.18134 
L 287.994234 232.816208 
L 288.319214 222.743538 
L 288.644193 238.183397 
L 288.969173 274.782015 
L 289.294152 204.914178 
L 289.619132 272.090244 
L 289.944111 205.869979 
L 290.269091 233.1103 
L 290.59407 275.797584 
L 290.91905 200.245459 
L 291.569009 277.815732 
L 291.893989 272.900409 
L 292.218968 233.772009 
L 292.543948 273.585907 
L 292.868927 243.587347 
L 293.193907 229.434144 
L 293.518886 225.022756 
L 293.843866 277.00718 
L 294.168845 269.323132 
L 294.493825 201.532114 
L 294.818804 266.577 
L 295.143784 202.965815 
L 295.468763 272.784552 
L 295.793743 264.668126 
L 296.118722 273.626931 
L 296.443702 275.673776 
L 296.768681 222.964108 
L 297.093661 271.278826 
L 297.41864 263.034217 
L 297.74362 279.809051 
L 298.0686 270.92072 
L 298.393579 272.251964 
L 298.718559 204.215708 
L 299.043538 216.641118 
L 299.368518 251.454323 
L 299.693497 234.801333 
L 300.018477 278.961916 
L 300.343456 227.816635 
L 300.668436 272.879378 
L 300.993415 264.668126 
L 301.318395 264.960588 
L 301.643374 285.388147 
L 301.968354 257.152366 
L 302.293333 271.212021 
L 302.618313 294.094507 
L 302.943292 276.998067 
L 303.268272 295.488 
L 304.24321 295.420867 
L 304.56819 259.137491 
L 304.89317 295.488 
L 312.692678 295.488 
L 313.017658 290.294455 
L 313.342637 295.488 
L 314.967535 295.488 
L 315.292514 294.533562 
L 315.617494 295.488 
L 320.167207 295.488 
L 320.492187 294.553361 
L 320.817166 295.488 
L 340.315938 295.488 
L 340.640917 294.632419 
L 340.965897 295.488 
L 357.214873 295.488 
L 357.539853 294.523658 
L 357.864832 295.488 
L 371.838952 295.488 
L 372.488911 286.841427 
L 372.81389 265.860843 
L 373.13887 280.503132 
L 373.463849 231.970692 
L 373.788829 272.931925 
L 374.438788 287.512972 
L 374.763767 255.167241 
L 375.088747 258.916921 
L 375.738706 295.488 
L 391.662703 295.488 
L 391.987682 275.683319 
L 392.312662 295.488 
L 398.487273 295.488 
L 398.487273 295.488 
" style="fill:none;stroke:#0000ff;stroke-linecap:square;stroke-width:1.5;"/>
   </g>
   <g id="line2d_26">
    <path clip-path="url(#p838c41731b)" d="M 73.832727 70.907626 
L 87.806847 70.907626 
L 88.131826 53.727212 
L 88.456806 295.488 
L 88.781785 70.907626 
L 89.106765 295.488 
L 89.431744 96.950821 
L 89.756724 295.488 
L 90.081704 70.907626 
L 90.406683 86.772765 
L 90.731663 70.907626 
L 91.706601 70.907626 
L 92.031581 295.488 
L 92.35656 70.907626 
L 92.68154 70.907626 
L 93.006519 295.488 
L 93.331499 70.907626 
L 93.656478 70.907626 
L 93.981458 81.701826 
L 94.306437 70.907626 
L 95.281376 70.907626 
L 95.606355 88.326528 
L 95.931335 295.488 
L 96.256314 70.907626 
L 96.906274 70.907626 
L 97.231253 295.488 
L 97.556233 70.907626 
L 97.881212 295.488 
L 98.206192 70.907626 
L 121.279738 70.907626 
L 121.604717 60.139827 
L 121.929697 60.949391 
L 122.254676 70.907626 
L 131.029124 70.907626 
L 131.354103 53.568 
L 131.679083 70.907626 
L 139.803571 70.907626 
L 140.12855 59.547278 
L 140.45353 70.907626 
L 140.778509 56.932965 
L 141.103489 70.907626 
L 152.477772 70.907626 
L 152.802752 53.88731 
L 153.127731 70.907626 
L 171.976544 70.907626 
L 172.301523 53.568 
L 172.626503 70.907626 
L 180.426011 70.907626 
L 180.750991 54.536776 
L 181.075971 70.907626 
L 187.575561 70.907626 
L 187.900541 295.488 
L 188.22552 70.907626 
L 188.5505 295.488 
L 188.875479 295.488 
L 189.200459 70.907626 
L 189.525438 295.488 
L 189.850418 75.289211 
L 190.175397 83.896604 
L 190.500377 295.488 
L 190.825356 75.973472 
L 191.150336 70.907626 
L 191.475315 90.538205 
L 191.800295 70.907626 
L 192.775233 70.907626 
L 193.100213 295.488 
L 193.425192 295.488 
L 193.750172 70.907626 
L 194.075152 295.488 
L 194.400131 295.488 
L 194.725111 76.674425 
L 195.05009 70.907626 
L 195.37507 70.907626 
L 195.700049 295.488 
L 196.999967 295.488 
L 197.324947 70.907626 
L 197.649926 70.907626 
L 197.974906 295.488 
L 198.299885 295.488 
L 198.624865 91.118783 
L 198.949844 70.907626 
L 199.274824 295.488 
L 199.599803 295.488 
L 199.924783 70.907626 
L 200.249762 295.488 
L 200.574742 70.907626 
L 200.899722 295.488 
L 201.224701 295.488 
L 201.549681 70.907626 
L 201.87466 295.488 
L 202.524619 295.488 
L 202.849599 70.907626 
L 203.499558 70.907626 
L 203.824537 89.969125 
L 204.149517 295.488 
L 204.474496 74.953094 
L 204.799476 295.488 
L 205.124455 70.907626 
L 205.449435 87.799217 
L 205.774414 295.488 
L 206.099394 70.907626 
L 207.399312 70.907626 
L 207.724292 295.488 
L 208.049271 295.488 
L 208.374251 70.907626 
L 209.674169 70.907626 
L 209.999148 53.727212 
L 210.324128 70.907626 
L 215.198821 70.907626 
L 215.5238 295.488 
L 215.84878 70.907626 
L 216.823718 70.907626 
L 217.148698 75.629305 
L 217.473677 295.488 
L 219.423554 295.488 
L 219.748534 95.548707 
L 220.073514 295.488 
L 220.398493 70.907626 
L 220.723473 295.488 
L 221.048452 295.488 
L 221.373432 70.907626 
L 221.698411 80.868793 
L 222.023391 295.488 
L 226.248124 295.488 
L 226.573104 70.907626 
L 226.898084 295.488 
L 227.873022 295.488 
L 228.198002 78.886102 
L 228.522981 70.907626 
L 228.847961 295.488 
L 229.49792 295.488 
L 229.822899 70.907626 
L 230.147879 70.907626 
L 230.472858 295.488 
L 230.797838 295.488 
L 231.122817 75.973472 
L 231.447797 295.488 
L 231.772776 70.907626 
L 232.097756 70.907626 
L 232.422735 295.488 
L 233.722654 295.488 
L 234.047633 70.907626 
L 234.372613 70.907626 
L 234.697592 295.488 
L 238.597346 295.488 
L 238.922326 70.907626 
L 239.247305 295.488 
L 240.547224 295.488 
L 240.872203 70.907626 
L 241.197183 295.488 
L 241.522162 70.907626 
L 241.847142 295.488 
L 243.472039 295.488 
L 243.797019 70.907626 
L 244.121998 295.488 
L 245.096937 295.488 
L 245.421916 70.907626 
L 245.746896 295.488 
L 247.371794 295.488 
L 247.696773 92.316357 
L 248.021753 295.488 
L 250.946568 295.488 
L 251.271548 88.863696 
L 251.596527 79.271848 
L 251.921507 295.488 
L 252.896446 295.488 
L 253.221425 70.907626 
L 253.546405 70.907626 
L 253.871384 295.488 
L 255.496282 295.488 
L 255.821261 78.886102 
L 256.146241 70.907626 
L 256.47122 295.488 
L 256.7962 70.907626 
L 257.121179 295.488 
L 257.446159 70.907626 
L 257.771138 70.907626 
L 258.096118 295.488 
L 258.421097 295.488 
L 258.746077 70.907626 
L 259.071057 75.629305 
L 259.396036 70.907626 
L 259.721016 295.488 
L 260.045995 295.488 
L 260.370975 70.907626 
L 262.320852 70.907626 
L 262.645831 295.488 
L 262.970811 70.907626 
L 265.245667 70.907626 
L 265.570647 295.488 
L 265.895627 295.488 
L 266.220606 70.907626 
L 266.870565 70.907626 
L 267.195545 82.99848 
L 267.520524 295.488 
L 269.795381 295.488 
L 270.12036 70.907626 
L 270.44534 70.907626 
L 270.770319 295.488 
L 271.745258 295.488 
L 272.070238 76.674425 
L 272.395217 295.488 
L 272.720197 295.488 
L 273.045176 82.127576 
L 273.370156 295.488 
L 274.995053 295.488 
L 275.320033 83.896604 
L 275.645012 295.488 
L 276.294971 295.488 
L 276.619951 70.907626 
L 276.94493 70.907626 
L 277.26991 295.488 
L 278.244848 295.488 
L 278.569828 82.99848 
L 278.894808 70.907626 
L 279.219787 295.488 
L 280.194726 295.488 
L 280.519705 70.907626 
L 302.943292 70.907626 
L 303.268272 295.488 
L 303.918231 295.488 
L 304.24321 92.316357 
L 304.56819 70.907626 
L 304.89317 295.488 
L 312.692678 295.488 
L 313.017658 70.907626 
L 313.342637 295.488 
L 314.967535 295.488 
L 315.292514 70.907626 
L 315.617494 295.488 
L 320.167207 295.488 
L 320.492187 70.907626 
L 320.817166 295.488 
L 340.315938 295.488 
L 340.640917 70.907626 
L 340.965897 295.488 
L 357.214873 295.488 
L 357.539853 70.907626 
L 357.864832 295.488 
L 371.838952 295.488 
L 372.163931 70.907626 
L 373.463849 70.907626 
L 373.788829 57.29219 
L 374.113808 70.907626 
L 375.413726 70.907626 
L 375.738706 295.488 
L 391.662703 295.488 
L 391.987682 70.907626 
L 392.312662 295.488 
L 398.487273 295.488 
L 398.487273 295.488 
" style="fill:none;stroke:#ff0000;stroke-linecap:square;stroke-width:1.5;"/>
   </g>
   <g id="patch_3">
    <path d="M 57.6 307.584 
L 57.6 41.472 
" style="fill:none;stroke:#000000;stroke-linecap:square;stroke-linejoin:miter;stroke-width:0.8;"/>
   </g>
   <g id="patch_4">
    <path d="M 414.72 307.584 
L 414.72 41.472 
" style="fill:none;stroke:#000000;stroke-linecap:square;stroke-linejoin:miter;stroke-width:0.8;"/>
   </g>
   <g id="patch_5">
    <path d="M 57.6 307.584 
L 414.72 307.584 
" style="fill:none;stroke:#000000;stroke-linecap:square;stroke-linejoin:miter;stroke-width:0.8;"/>
   </g>
   <g id="patch_6">
    <path d="M 57.6 41.472 
L 414.72 41.472 
" style="fill:none;stroke:#000000;stroke-linecap:square;stroke-linejoin:miter;stroke-width:0.8;"/>
   </g>
   <g id="text_13">
    <!-- Population's average and best fitness -->
    <defs>
     <path d="M 19.671875 64.796875 
L 19.671875 37.40625 
L 32.078125 37.40625 
Q 38.96875 37.40625 42.71875 40.96875 
Q 46.484375 44.53125 46.484375 51.125 
Q 46.484375 57.671875 42.71875 61.234375 
Q 38.96875 64.796875 32.078125 64.796875 
z
M 9.8125 72.90625 
L 32.078125 72.90625 
Q 44.34375 72.90625 50.609375 67.359375 
Q 56.890625 61.8125 56.890625 51.125 
Q 56.890625 40.328125 50.609375 34.8125 
Q 44.34375 29.296875 32.078125 29.296875 
L 19.671875 29.296875 
L 19.671875 0 
L 9.8125 0 
z
" id="DejaVuSans-50"/>
     <path d="M 18.109375 8.203125 
L 18.109375 -20.796875 
L 9.078125 -20.796875 
L 9.078125 54.6875 
L 18.109375 54.6875 
L 18.109375 46.390625 
Q 20.953125 51.265625 25.265625 53.625 
Q 29.59375 56 35.59375 56 
Q 45.5625 56 51.78125 48.09375 
Q 58.015625 40.1875 58.015625 27.296875 
Q 58.015625 14.40625 51.78125 6.484375 
Q 45.5625 -1.421875 35.59375 -1.421875 
Q 29.59375 -1.421875 25.265625 0.953125 
Q 20.953125 3.328125 18.109375 8.203125 
z
M 48.6875 27.296875 
Q 48.6875 37.203125 44.609375 42.84375 
Q 40.53125 48.484375 33.40625 48.484375 
Q 26.265625 48.484375 22.1875 42.84375 
Q 18.109375 37.203125 18.109375 27.296875 
Q 18.109375 17.390625 22.1875 11.75 
Q 26.265625 6.109375 33.40625 6.109375 
Q 40.53125 6.109375 44.609375 11.75 
Q 48.6875 17.390625 48.6875 27.296875 
z
" id="DejaVuSans-70"/>
     <path d="M 8.5 21.578125 
L 8.5 54.6875 
L 17.484375 54.6875 
L 17.484375 21.921875 
Q 17.484375 14.15625 20.5 10.265625 
Q 23.53125 6.390625 29.59375 6.390625 
Q 36.859375 6.390625 41.078125 11.03125 
Q 45.3125 15.671875 45.3125 23.6875 
L 45.3125 54.6875 
L 54.296875 54.6875 
L 54.296875 0 
L 45.3125 0 
L 45.3125 8.40625 
Q 42.046875 3.421875 37.71875 1 
Q 33.40625 -1.421875 27.6875 -1.421875 
Q 18.265625 -1.421875 13.375 4.4375 
Q 8.5 10.296875 8.5 21.578125 
z
M 31.109375 56 
z
" id="DejaVuSans-75"/>
     <path d="M 9.421875 75.984375 
L 18.40625 75.984375 
L 18.40625 0 
L 9.421875 0 
z
" id="DejaVuSans-6c"/>
     <path d="M 17.921875 72.90625 
L 17.921875 45.796875 
L 9.625 45.796875 
L 9.625 72.90625 
z
" id="DejaVuSans-27"/>
     <path id="DejaVuSans-20"/>
     <path d="M 2.984375 54.6875 
L 12.5 54.6875 
L 29.59375 8.796875 
L 46.6875 54.6875 
L 56.203125 54.6875 
L 35.6875 0 
L 23.484375 0 
z
" id="DejaVuSans-76"/>
     <path d="M 45.40625 27.984375 
Q 45.40625 37.75 41.375 43.109375 
Q 37.359375 48.484375 30.078125 48.484375 
Q 22.859375 48.484375 18.828125 43.109375 
Q 14.796875 37.75 14.796875 27.984375 
Q 14.796875 18.265625 18.828125 12.890625 
Q 22.859375 7.515625 30.078125 7.515625 
Q 37.359375 7.515625 41.375 12.890625 
Q 45.40625 18.265625 45.40625 27.984375 
z
M 54.390625 6.78125 
Q 54.390625 -7.171875 48.1875 -13.984375 
Q 42 -20.796875 29.203125 -20.796875 
Q 24.46875 -20.796875 20.265625 -20.09375 
Q 16.0625 -19.390625 12.109375 -17.921875 
L 12.109375 -9.1875 
Q 16.0625 -11.328125 19.921875 -12.34375 
Q 23.78125 -13.375 27.78125 -13.375 
Q 36.625 -13.375 41.015625 -8.765625 
Q 45.40625 -4.15625 45.40625 5.171875 
L 45.40625 9.625 
Q 42.625 4.78125 38.28125 2.390625 
Q 33.9375 0 27.875 0 
Q 17.828125 0 11.671875 7.65625 
Q 5.515625 15.328125 5.515625 27.984375 
Q 5.515625 40.671875 11.671875 48.328125 
Q 17.828125 56 27.875 56 
Q 33.9375 56 38.28125 53.609375 
Q 42.625 51.21875 45.40625 46.390625 
L 45.40625 54.6875 
L 54.390625 54.6875 
z
" id="DejaVuSans-67"/>
     <path d="M 45.40625 46.390625 
L 45.40625 75.984375 
L 54.390625 75.984375 
L 54.390625 0 
L 45.40625 0 
L 45.40625 8.203125 
Q 42.578125 3.328125 38.25 0.953125 
Q 33.9375 -1.421875 27.875 -1.421875 
Q 17.96875 -1.421875 11.734375 6.484375 
Q 5.515625 14.40625 5.515625 27.296875 
Q 5.515625 40.1875 11.734375 48.09375 
Q 17.96875 56 27.875 56 
Q 33.9375 56 38.25 53.625 
Q 42.578125 51.265625 45.40625 46.390625 
z
M 14.796875 27.296875 
Q 14.796875 17.390625 18.875 11.75 
Q 22.953125 6.109375 30.078125 6.109375 
Q 37.203125 6.109375 41.296875 11.75 
Q 45.40625 17.390625 45.40625 27.296875 
Q 45.40625 37.203125 41.296875 42.84375 
Q 37.203125 48.484375 30.078125 48.484375 
Q 22.953125 48.484375 18.875 42.84375 
Q 14.796875 37.203125 14.796875 27.296875 
z
" id="DejaVuSans-64"/>
     <path d="M 48.6875 27.296875 
Q 48.6875 37.203125 44.609375 42.84375 
Q 40.53125 48.484375 33.40625 48.484375 
Q 26.265625 48.484375 22.1875 42.84375 
Q 18.109375 37.203125 18.109375 27.296875 
Q 18.109375 17.390625 22.1875 11.75 
Q 26.265625 6.109375 33.40625 6.109375 
Q 40.53125 6.109375 44.609375 11.75 
Q 48.6875 17.390625 48.6875 27.296875 
z
M 18.109375 46.390625 
Q 20.953125 51.265625 25.265625 53.625 
Q 29.59375 56 35.59375 56 
Q 45.5625 56 51.78125 48.09375 
Q 58.015625 40.1875 58.015625 27.296875 
Q 58.015625 14.40625 51.78125 6.484375 
Q 45.5625 -1.421875 35.59375 -1.421875 
Q 29.59375 -1.421875 25.265625 0.953125 
Q 20.953125 3.328125 18.109375 8.203125 
L 18.109375 0 
L 9.078125 0 
L 9.078125 75.984375 
L 18.109375 75.984375 
z
" id="DejaVuSans-62"/>
     <path d="M 37.109375 75.984375 
L 37.109375 68.5 
L 28.515625 68.5 
Q 23.6875 68.5 21.796875 66.546875 
Q 19.921875 64.59375 19.921875 59.515625 
L 19.921875 54.6875 
L 34.71875 54.6875 
L 34.71875 47.703125 
L 19.921875 47.703125 
L 19.921875 0 
L 10.890625 0 
L 10.890625 47.703125 
L 2.296875 47.703125 
L 2.296875 54.6875 
L 10.890625 54.6875 
L 10.890625 58.5 
Q 10.890625 67.625 15.140625 71.796875 
Q 19.390625 75.984375 28.609375 75.984375 
z
" id="DejaVuSans-66"/>
    </defs>
    <g transform="translate(123.315 35.472)scale(0.12 -0.12)">
     <use xlink:href="#DejaVuSans-50"/>
     <use x="60.255859" xlink:href="#DejaVuSans-6f"/>
     <use x="121.4375" xlink:href="#DejaVuSans-70"/>
     <use x="184.914062" xlink:href="#DejaVuSans-75"/>
     <use x="248.292969" xlink:href="#DejaVuSans-6c"/>
     <use x="276.076172" xlink:href="#DejaVuSans-61"/>
     <use x="337.355469" xlink:href="#DejaVuSans-74"/>
     <use x="376.564453" xlink:href="#DejaVuSans-69"/>
     <use x="404.347656" xlink:href="#DejaVuSans-6f"/>
     <use x="465.529297" xlink:href="#DejaVuSans-6e"/>
     <use x="528.908203" xlink:href="#DejaVuSans-27"/>
     <use x="556.398438" xlink:href="#DejaVuSans-73"/>
     <use x="608.498047" xlink:href="#DejaVuSans-20"/>
     <use x="640.285156" xlink:href="#DejaVuSans-61"/>
     <use x="701.564453" xlink:href="#DejaVuSans-76"/>
     <use x="760.744141" xlink:href="#DejaVuSans-65"/>
     <use x="822.267578" xlink:href="#DejaVuSans-72"/>
     <use x="863.380859" xlink:href="#DejaVuSans-61"/>
     <use x="924.660156" xlink:href="#DejaVuSans-67"/>
     <use x="988.136719" xlink:href="#DejaVuSans-65"/>
     <use x="1049.660156" xlink:href="#DejaVuSans-20"/>
     <use x="1081.447266" xlink:href="#DejaVuSans-61"/>
     <use x="1142.726562" xlink:href="#DejaVuSans-6e"/>
     <use x="1206.105469" xlink:href="#DejaVuSans-64"/>
     <use x="1269.582031" xlink:href="#DejaVuSans-20"/>
     <use x="1301.369141" xlink:href="#DejaVuSans-62"/>
     <use x="1364.845703" xlink:href="#DejaVuSans-65"/>
     <use x="1426.369141" xlink:href="#DejaVuSans-73"/>
     <use x="1478.46875" xlink:href="#DejaVuSans-74"/>
     <use x="1517.677734" xlink:href="#DejaVuSans-20"/>
     <use x="1549.464844" xlink:href="#DejaVuSans-66"/>
     <use x="1584.669922" xlink:href="#DejaVuSans-69"/>
     <use x="1612.453125" xlink:href="#DejaVuSans-74"/>
     <use x="1651.662109" xlink:href="#DejaVuSans-6e"/>
     <use x="1715.041016" xlink:href="#DejaVuSans-65"/>
     <use x="1776.564453" xlink:href="#DejaVuSans-73"/>
     <use x="1828.664062" xlink:href="#DejaVuSans-73"/>
    </g>
   </g>
   <g id="legend_1">
    <g id="patch_7">
     <path d="M 334.779375 190.706125 
L 407.72 190.706125 
Q 409.72 190.706125 409.72 188.706125 
L 409.72 160.349875 
Q 409.72 158.349875 407.72 158.349875 
L 334.779375 158.349875 
Q 332.779375 158.349875 332.779375 160.349875 
L 332.779375 188.706125 
Q 332.779375 190.706125 334.779375 190.706125 
z
" style="fill:#ffffff;opacity:0.8;stroke:#cccccc;stroke-linejoin:miter;"/>
    </g>
    <g id="line2d_27">
     <path d="M 336.779375 166.448312 
L 356.779375 166.448312 
" style="fill:none;stroke:#0000ff;stroke-linecap:square;stroke-width:1.5;"/>
    </g>
    <g id="line2d_28"/>
    <g id="text_14">
     <!-- average -->
     <g transform="translate(364.779375 169.948312)scale(0.1 -0.1)">
      <use xlink:href="#DejaVuSans-61"/>
      <use x="61.279297" xlink:href="#DejaVuSans-76"/>
      <use x="120.458984" xlink:href="#DejaVuSans-65"/>
      <use x="181.982422" xlink:href="#DejaVuSans-72"/>
      <use x="223.095703" xlink:href="#DejaVuSans-61"/>
      <use x="284.375" xlink:href="#DejaVuSans-67"/>
      <use x="347.851562" xlink:href="#DejaVuSans-65"/>
     </g>
    </g>
    <g id="line2d_29">
     <path d="M 336.779375 181.126437 
L 356.779375 181.126437 
" style="fill:none;stroke:#ff0000;stroke-linecap:square;stroke-width:1.5;"/>
    </g>
    <g id="line2d_30"/>
    <g id="text_15">
     <!-- best -->
     <g transform="translate(364.779375 184.626437)scale(0.1 -0.1)">
      <use xlink:href="#DejaVuSans-62"/>
      <use x="63.476562" xlink:href="#DejaVuSans-65"/>
      <use x="125" xlink:href="#DejaVuSans-73"/>
      <use x="177.099609" xlink:href="#DejaVuSans-74"/>
     </g>
    </g>
   </g>
  </g>
 </g>
 <defs>
  <clipPath id="p838c41731b">
   <rect height="266.112" width="357.12" x="57.6" y="41.472"/>
  </clipPath>
 </defs>
</svg>
