<?xml version="1.0" encoding="UTF-8" standalone="no"?>
<!DOCTYPE svg PUBLIC "-//W3C//DTD SVG 1.1//EN"
 "http://www.w3.org/Graphics/SVG/1.1/DTD/svg11.dtd">
<!-- Generated by graphviz version 2.40.1 (20161225.0304)
 -->
<!-- Title: %3 Pages: 1 -->
<svg width="379pt" height="207pt"
 viewBox="0.00 0.00 379.12 206.63" xmlns="http://www.w3.org/2000/svg" xmlns:xlink="http://www.w3.org/1999/xlink">
<g id="graph0" class="graph" transform="scale(1 1) rotate(0) translate(4 202.6346)">
<title>%3</title>
<polygon fill="#ffffff" stroke="transparent" points="-4,4 -4,-202.6346 375.1249,-202.6346 375.1249,4 -4,4"/>
<!-- center_dist -->
<g id="node1" class="node">
<title>center_dist</title>
<polygon fill="#d3d3d3" stroke="#000000" points="119.8406,-170.1579 51.8406,-170.1579 51.8406,-152.1579 119.8406,-152.1579 119.8406,-170.1579"/>
<text text-anchor="middle" x="85.8406" y="-158.9579" font-family="Times,serif" font-size="9.00" fill="#000000">center_dist</text>
</g>
<!-- backward -->
<g id="node4" class="node">
<title>backward</title>
<ellipse fill="#add8e6" stroke="#000000" cx="43.8406" cy="-43.8406" rx="43.6818" ry="43.6818"/>
<text text-anchor="middle" x="43.8406" y="-41.6406" font-family="Times,serif" font-size="9.00" fill="#000000">backward</text>
</g>
<!-- center_dist&#45;&gt;backward -->
<g id="edge1" class="edge">
<title>center_dist&#45;&gt;backward</title>
<path fill="none" stroke="#00ff00" stroke-width=".5471" d="M82.545,-151.9522C78.0978,-139.5301 69.8373,-116.4562 62.0862,-94.8053"/>
<polygon fill="#00ff00" stroke="#00ff00" stroke-width=".5471" points="65.3584,-93.5613 58.6926,-85.3261 58.768,-95.9207 65.3584,-93.5613"/>
</g>
<!-- left -->
<g id="node5" class="node">
<title>left</title>
<ellipse fill="#add8e6" stroke="#000000" cx="127.8406" cy="-43.8406" rx="22.7556" ry="22.7556"/>
<text text-anchor="middle" x="127.8406" y="-41.6406" font-family="Times,serif" font-size="9.00" fill="#000000">left</text>
</g>
<!-- center_dist&#45;&gt;left -->
<g id="edge2" class="edge">
<title>center_dist&#45;&gt;left</title>
<path fill="none" stroke="#00ff00" stroke-width=".1843" d="M89.1363,-151.9522C94.9749,-135.6434 107.3864,-100.9747 116.5886,-75.2705"/>
<polygon fill="#00ff00" stroke="#00ff00" stroke-width=".1843" points="119.9852,-76.1667 120.0606,-65.5722 113.3948,-73.8073 119.9852,-76.1667"/>
</g>
<!-- center_dir -->
<g id="node2" class="node">
<title>center_dir</title>
<polygon fill="#d3d3d3" stroke="#000000" points="203.3406,-170.1579 138.3406,-170.1579 138.3406,-152.1579 203.3406,-152.1579 203.3406,-170.1579"/>
<text text-anchor="middle" x="170.8406" y="-158.9579" font-family="Times,serif" font-size="9.00" fill="#000000">center_dir</text>
</g>
<!-- forward -->
<g id="node3" class="node">
<title>forward</title>
<ellipse fill="#add8e6" stroke="#000000" cx="258.8406" cy="-161.1579" rx="37.4533" ry="37.4533"/>
<text text-anchor="middle" x="258.8406" y="-158.9579" font-family="Times,serif" font-size="9.00" fill="#000000">forward</text>
</g>
<!-- right -->
<g id="node6" class="node">
<title>right</title>
<ellipse fill="#add8e6" stroke="#000000" cx="342.8406" cy="-161.1579" rx="28.0702" ry="28.0702"/>
<text text-anchor="middle" x="342.8406" y="-158.9579" font-family="Times,serif" font-size="9.00" fill="#000000">right</text>
</g>
</g>
</svg>
