<?xml version="1.0" encoding="UTF-8" standalone="no"?>
<!DOCTYPE svg PUBLIC "-//W3C//DTD SVG 1.1//EN"
 "http://www.w3.org/Graphics/SVG/1.1/DTD/svg11.dtd">
<!-- Generated by graphviz version 2.40.1 (20161225.0304)
 -->
<!-- Title: %3 Pages: 1 -->
<svg width="412pt" height="207pt"
 viewBox="0.00 0.00 411.98 206.63" xmlns="http://www.w3.org/2000/svg" xmlns:xlink="http://www.w3.org/1999/xlink">
<g id="graph0" class="graph" transform="scale(1 1) rotate(0) translate(4 202.6346)">
<title>%3</title>
<polygon fill="#ffffff" stroke="transparent" points="-4,4 -4,-202.6346 407.9767,-202.6346 407.9767,4 -4,4"/>
<!-- center_dist -->
<g id="node1" class="node">
<title>center_dist</title>
<polygon fill="#d3d3d3" stroke="#000000" points="227.5,-170.1579 159.5,-170.1579 159.5,-152.1579 227.5,-152.1579 227.5,-170.1579"/>
<text text-anchor="middle" x="193.5" y="-158.9579" font-family="Times,serif" font-size="9.00" fill="#000000">center_dist</text>
</g>
<!-- backward -->
<g id="node6" class="node">
<title>backward</title>
<ellipse fill="#add8e6" stroke="#000000" cx="111.5" cy="-43.8406" rx="43.6818" ry="43.6818"/>
<text text-anchor="middle" x="111.5" y="-41.6406" font-family="Times,serif" font-size="9.00" fill="#000000">backward</text>
</g>
<!-- center_dist&#45;&gt;backward -->
<g id="edge2" class="edge">
<title>center_dist&#45;&gt;backward</title>
<path fill="none" stroke="#00ff00" stroke-width=".1338" d="M187.0656,-151.9522C177.5159,-138.2894 158.9595,-111.7409 142.6261,-88.3726"/>
<polygon fill="#00ff00" stroke="#00ff00" stroke-width=".1338" points="145.3275,-86.1281 136.7298,-79.9369 139.5901,-90.1384 145.3275,-86.1281"/>
</g>
<!-- right -->
<g id="node8" class="node">
<title>right</title>
<ellipse fill="#add8e6" stroke="#000000" cx="201.5" cy="-43.8406" rx="28.0702" ry="28.0702"/>
<text text-anchor="middle" x="201.5" y="-41.6406" font-family="Times,serif" font-size="9.00" fill="#000000">right</text>
</g>
<!-- center_dist&#45;&gt;right -->
<g id="edge1" class="edge">
<title>center_dist&#45;&gt;right</title>
<path fill="none" stroke="#ff0000" stroke-width=".1928" d="M194.1277,-151.9522C195.1398,-137.1112 197.1886,-107.0661 198.87,-82.4083"/>
<polygon fill="#ff0000" stroke="#ff0000" stroke-width=".1928" points="202.3755,-82.4455 199.5641,-72.2305 195.3917,-81.9692 202.3755,-82.4455"/>
</g>
<!-- center_dir -->
<g id="node2" class="node">
<title>center_dir</title>
<polygon fill="#d3d3d3" stroke="#000000" points="311,-170.1579 246,-170.1579 246,-152.1579 311,-152.1579 311,-170.1579"/>
<text text-anchor="middle" x="278.5" y="-158.9579" font-family="Times,serif" font-size="9.00" fill="#000000">center_dir</text>
</g>
<!-- center_dir&#45;&gt;right -->
<g id="edge4" class="edge">
<title>center_dir&#45;&gt;right</title>
<path fill="none" stroke="#00ff00" stroke-width=".2315" d="M272.4579,-151.9522C261.9289,-135.9102 239.7404,-102.1037 222.961,-76.5387"/>
<polygon fill="#00ff00" stroke="#00ff00" stroke-width=".2315" points="225.6927,-74.322 217.2795,-67.8823 219.8406,-78.163 225.6927,-74.322"/>
</g>
<!-- other_dist -->
<g id="node3" class="node">
<title>other_dist</title>
<polygon fill="#d3d3d3" stroke="#000000" points="141,-170.1579 78,-170.1579 78,-152.1579 141,-152.1579 141,-170.1579"/>
<text text-anchor="middle" x="109.5" y="-158.9579" font-family="Times,serif" font-size="9.00" fill="#000000">other_dist</text>
</g>
<!-- other_dist&#45;&gt;backward -->
<g id="edge5" class="edge">
<title>other_dist&#45;&gt;backward</title>
<path fill="none" stroke="#ff0000" stroke-width=".4971" d="M109.6569,-151.9522C109.8587,-140.115 110.2254,-118.6055 110.5789,-97.8719"/>
<polygon fill="#ff0000" stroke="#ff0000" stroke-width=".4971" points="114.0795,-97.8599 110.7506,-87.8016 107.0805,-97.7405 114.0795,-97.8599"/>
</g>
<!-- left -->
<g id="node7" class="node">
<title>left</title>
<ellipse fill="#add8e6" stroke="#000000" cx="27.5" cy="-43.8406" rx="22.7556" ry="22.7556"/>
<text text-anchor="middle" x="27.5" y="-41.6406" font-family="Times,serif" font-size="9.00" fill="#000000">left</text>
</g>
<!-- other_dist&#45;&gt;left -->
<g id="edge6" class="edge">
<title>other_dist&#45;&gt;left</title>
<path fill="none" stroke="#ff0000" stroke-width=".3716" d="M103.0656,-151.9522C90.9898,-134.6754 64.5124,-96.7942 46.3391,-70.7937"/>
<polygon fill="#ff0000" stroke="#ff0000" stroke-width=".3716" points="49.1248,-68.6697 40.5271,-62.4785 43.3873,-72.68 49.1248,-68.6697"/>
</g>
<!-- other_dist&#45;&gt;right -->
<g id="edge7" class="edge">
<title>other_dist&#45;&gt;right</title>
<path fill="none" stroke="#ff0000" stroke-width=".1144" d="M116.7191,-151.9522C129.6384,-135.4776 157.25,-100.2677 177.4655,-74.4892"/>
<polygon fill="#ff0000" stroke="#ff0000" stroke-width=".1144" points="180.3243,-76.5154 183.741,-66.4866 174.816,-72.1958 180.3243,-76.5154"/>
</g>
<!-- other_dir -->
<g id="node4" class="node">
<title>other_dir</title>
<polygon fill="#d3d3d3" stroke="#000000" points="59,-170.1579 0,-170.1579 0,-152.1579 59,-152.1579 59,-170.1579"/>
<text text-anchor="middle" x="29.5" y="-158.9579" font-family="Times,serif" font-size="9.00" fill="#000000">other_dir</text>
</g>
<!-- other_dir&#45;&gt;backward -->
<g id="edge8" class="edge">
<title>other_dir&#45;&gt;backward</title>
<path fill="none" stroke="#ff0000" stroke-width=".1523" d="M35.9344,-151.9522C45.4841,-138.2894 64.0405,-111.7409 80.3739,-88.3726"/>
<polygon fill="#ff0000" stroke="#ff0000" stroke-width=".1523" points="83.4099,-90.1384 86.2702,-79.9369 77.6725,-86.1281 83.4099,-90.1384"/>
</g>
<!-- other_dir&#45;&gt;left -->
<g id="edge3" class="edge">
<title>other_dir&#45;&gt;left</title>
<path fill="none" stroke="#ff0000" stroke-width=".4152" d="M29.3431,-151.9522C29.0695,-135.9055 28.4929,-102.0841 28.0571,-76.5165"/>
<polygon fill="#ff0000" stroke="#ff0000" stroke-width=".4152" points="31.5561,-76.4255 27.8861,-66.4866 24.5571,-76.5449 31.5561,-76.4255"/>
</g>
<!-- forward -->
<g id="node5" class="node">
<title>forward</title>
<ellipse fill="#add8e6" stroke="#000000" cx="366.5" cy="-161.1579" rx="37.4533" ry="37.4533"/>
<text text-anchor="middle" x="366.5" y="-158.9579" font-family="Times,serif" font-size="9.00" fill="#000000">forward</text>
</g>
</g>
</svg>
