<?xml version="1.0" encoding="UTF-8" standalone="no"?>
<!DOCTYPE svg PUBLIC "-//W3C//DTD SVG 1.1//EN"
 "http://www.w3.org/Graphics/SVG/1.1/DTD/svg11.dtd">
<!-- Generated by graphviz version 2.40.1 (20161225.0304)
 -->
<!-- Title: %3 Pages: 1 -->
<svg width="364pt" height="261pt"
 viewBox="0.00 0.00 364.48 260.63" xmlns="http://www.w3.org/2000/svg" xmlns:xlink="http://www.w3.org/1999/xlink">
<g id="graph0" class="graph" transform="scale(1 1) rotate(0) translate(4 256.6346)">
<title>%3</title>
<polygon fill="#ffffff" stroke="transparent" points="-4,4 -4,-256.6346 360.4767,-256.6346 360.4767,4 -4,4"/>
<!-- center_dist -->
<g id="node1" class="node">
<title>center_dist</title>
<polygon fill="#d3d3d3" stroke="#000000" points="68,-252.6346 0,-252.6346 0,-234.6346 68,-234.6346 68,-252.6346"/>
<text text-anchor="middle" x="34" y="-241.4346" font-family="Times,serif" font-size="9.00" fill="#000000">center_dist</text>
</g>
<!-- right -->
<g id="node8" class="node">
<title>right</title>
<ellipse fill="#add8e6" stroke="#000000" cx="39" cy="-154.7939" rx="28.0702" ry="28.0702"/>
<text text-anchor="middle" x="39" y="-152.5939" font-family="Times,serif" font-size="9.00" fill="#000000">right</text>
</g>
<!-- center_dist&#45;&gt;right -->
<g id="edge2" class="edge">
<title>center_dist&#45;&gt;right</title>
<path fill="none" stroke="#ff0000" stroke-width=".4204" d="M34.5163,-234.4617C35.0636,-224.7361 35.9651,-208.7189 36.8167,-193.5872"/>
<polygon fill="#ff0000" stroke="#ff0000" stroke-width=".4204" points="40.3258,-193.5219 37.3934,-183.341 33.3369,-193.1285 40.3258,-193.5219"/>
</g>
<!-- center_dir -->
<g id="node2" class="node">
<title>center_dir</title>
<polygon fill="#d3d3d3" stroke="#000000" points="151.5,-252.6346 86.5,-252.6346 86.5,-234.6346 151.5,-234.6346 151.5,-252.6346"/>
<text text-anchor="middle" x="119" y="-241.4346" font-family="Times,serif" font-size="9.00" fill="#000000">center_dir</text>
</g>
<!-- backward -->
<g id="node6" class="node">
<title>backward</title>
<ellipse fill="#add8e6" stroke="#000000" cx="129" cy="-154.7939" rx="43.6818" ry="43.6818"/>
<text text-anchor="middle" x="129" y="-152.5939" font-family="Times,serif" font-size="9.00" fill="#000000">backward</text>
</g>
<!-- center_dir&#45;&gt;backward -->
<g id="edge3" class="edge">
<title>center_dir&#45;&gt;backward</title>
<path fill="none" stroke="#00ff00" stroke-width=".4414" d="M120.0325,-234.4617C120.7661,-227.9447 121.8176,-218.6027 122.9441,-208.5951"/>
<polygon fill="#00ff00" stroke="#00ff00" stroke-width=".4414" points="126.4459,-208.7744 124.0865,-198.4457 119.4898,-207.9914 126.4459,-208.7744"/>
</g>
<!-- center_dir&#45;&gt;right -->
<g id="edge5" class="edge">
<title>center_dir&#45;&gt;right</title>
<path fill="none" stroke="#00ff00" stroke-width=".3414" d="M109.9359,-234.484C101.1145,-225.5007 87.4088,-211.3362 76,-198.6346 71.9923,-194.1727 67.8227,-189.3841 63.7892,-184.6694"/>
<polygon fill="#00ff00" stroke="#00ff00" stroke-width=".3414" points="66.3183,-182.2402 57.1821,-176.8754 60.9787,-186.7666 66.3183,-182.2402"/>
</g>
<!-- other_dist -->
<g id="node3" class="node">
<title>other_dist</title>
<polygon fill="#d3d3d3" stroke="#000000" points="232.5,-252.6346 169.5,-252.6346 169.5,-234.6346 232.5,-234.6346 232.5,-252.6346"/>
<text text-anchor="middle" x="201" y="-241.4346" font-family="Times,serif" font-size="9.00" fill="#000000">other_dist</text>
</g>
<!-- other_dist&#45;&gt;backward -->
<g id="edge4" class="edge">
<title>other_dist&#45;&gt;backward</title>
<path fill="none" stroke="#ff0000" stroke-width=".1213" d="M193.5659,-234.4617C186.2296,-225.4094 174.4759,-210.9065 162.995,-196.7403"/>
<polygon fill="#ff0000" stroke="#ff0000" stroke-width=".1213" points="165.69,-194.5068 156.6746,-188.9415 160.2518,-198.9142 165.69,-194.5068"/>
</g>
<!-- left -->
<g id="node7" class="node">
<title>left</title>
<ellipse fill="#add8e6" stroke="#000000" cx="241" cy="-37.4767" rx="22.7556" ry="22.7556"/>
<text text-anchor="middle" x="241" y="-35.2767" font-family="Times,serif" font-size="9.00" fill="#000000">left</text>
</g>
<!-- other_dist&#45;&gt;left -->
<g id="edge9" class="edge">
<title>other_dist&#45;&gt;left</title>
<path fill="none" stroke="#ff0000" stroke-width=".2977" stroke-dasharray="1,5" d="M201.8697,-234.5505C204.0304,-212.9567 210.1871,-156.9229 220,-110.9533 222.9722,-97.0297 227.1427,-81.8681 230.9846,-68.953"/>
<polygon fill="#ff0000" stroke="#ff0000" stroke-width=".2977" points="234.4067,-69.7292 233.9661,-59.1435 227.7092,-67.6935 234.4067,-69.7292"/>
</g>
<!-- other_dist&#45;&gt;right -->
<g id="edge6" class="edge">
<title>other_dist&#45;&gt;right</title>
<path fill="none" stroke="#00ff00" stroke-width=".2106" d="M170.188,-234.5605C138.4602,-224.8642 91.5272,-209.4334 76,-198.6346 70.9714,-195.1373 66.2236,-190.7902 61.9117,-186.2034"/>
<polygon fill="#00ff00" stroke="#00ff00" stroke-width=".2106" points="64.298,-183.6138 55.0944,-178.3657 59.0164,-188.2078 64.298,-183.6138"/>
</g>
<!-- 6 -->
<g id="node9" class="node">
<title>6</title>
<ellipse fill="#ffffff" stroke="#000000" cx="245" cy="-154.7939" rx="16.0303" ry="16.0303"/>
<text text-anchor="middle" x="245" y="-152.5939" font-family="Times,serif" font-size="9.00" fill="#000000">6</text>
</g>
<!-- other_dist&#45;&gt;6 -->
<g id="edge1" class="edge">
<title>other_dist&#45;&gt;6</title>
<path fill="none" stroke="#00ff00" stroke-width=".2471" d="M205.543,-234.4617C212.0124,-221.3993 224.1027,-196.9877 233.2022,-178.615"/>
<polygon fill="#00ff00" stroke="#00ff00" stroke-width=".2471" points="236.3405,-180.1643 237.6424,-169.6498 230.0677,-177.0576 236.3405,-180.1643"/>
</g>
<!-- other_dir -->
<g id="node4" class="node">
<title>other_dir</title>
<polygon fill="#d3d3d3" stroke="#000000" points="345.5,-163.7939 286.5,-163.7939 286.5,-145.7939 345.5,-145.7939 345.5,-163.7939"/>
<text text-anchor="middle" x="316" y="-152.5939" font-family="Times,serif" font-size="9.00" fill="#000000">other_dir</text>
</g>
<!-- forward -->
<g id="node5" class="node">
<title>forward</title>
<ellipse fill="#add8e6" stroke="#000000" cx="319" cy="-37.4767" rx="37.4533" ry="37.4533"/>
<text text-anchor="middle" x="319" y="-35.2767" font-family="Times,serif" font-size="9.00" fill="#000000">forward</text>
</g>
<!-- other_dir&#45;&gt;forward -->
<g id="edge10" class="edge">
<title>other_dir&#45;&gt;forward</title>
<path fill="none" stroke="#ff0000" stroke-width=".1646" d="M316.2354,-145.5882C316.5684,-132.5661 317.2007,-107.8381 317.7767,-85.315"/>
<polygon fill="#ff0000" stroke="#ff0000" stroke-width=".1646" points="321.2792,-85.2578 318.0361,-75.1716 314.2815,-85.0788 321.2792,-85.2578"/>
</g>
<!-- other_dir&#45;&gt;left -->
<g id="edge7" class="edge">
<title>other_dir&#45;&gt;left</title>
<path fill="none" stroke="#00ff00" stroke-width=".3012" d="M310.1149,-145.5882C299.1797,-128.4832 275.333,-91.1814 258.7288,-65.2086"/>
<polygon fill="#00ff00" stroke="#00ff00" stroke-width=".3012" points="261.5261,-63.0861 253.1908,-56.5459 255.6283,-66.8566 261.5261,-63.0861"/>
</g>
<!-- 6&#45;&gt;left -->
<g id="edge8" class="edge">
<title>6&#45;&gt;left</title>
<path fill="none" stroke="#00ff00" stroke-width=".1117" d="M244.4438,-138.4815C243.8471,-120.98 242.8832,-92.7097 242.1267,-70.5227"/>
<polygon fill="#00ff00" stroke="#00ff00" stroke-width=".1117" points="245.624,-70.381 241.7852,-60.5061 238.6281,-70.6196 245.624,-70.381"/>
</g>
</g>
</svg>
