<?xml version="1.0" encoding="UTF-8" standalone="no"?>
<!DOCTYPE svg PUBLIC "-//W3C//DTD SVG 1.1//EN"
 "http://www.w3.org/Graphics/SVG/1.1/DTD/svg11.dtd">
<!-- Generated by graphviz version 2.40.1 (20161225.0304)
 -->
<!-- Title: %3 Pages: 1 -->
<svg width="774pt" height="453pt"
 viewBox="0.00 0.00 774.43 453.23" xmlns="http://www.w3.org/2000/svg" xmlns:xlink="http://www.w3.org/1999/xlink">
<g id="graph0" class="graph" transform="scale(1 1) rotate(0) translate(4 449.2275)">
<title>%3</title>
<polygon fill="#ffffff" stroke="transparent" points="-4,4 -4,-449.2275 770.4305,-449.2275 770.4305,4 -4,4"/>
<!-- center_dist -->
<g id="node1" class="node">
<title>center_dist</title>
<polygon fill="#d3d3d3" stroke="#000000" points="262.9538,-356.7092 194.9538,-356.7092 194.9538,-338.7092 262.9538,-338.7092 262.9538,-356.7092"/>
<text text-anchor="middle" x="228.9538" y="-345.5092" font-family="Times,serif" font-size="9.00" fill="#000000">center_dist</text>
</g>
<!-- right -->
<g id="node8" class="node">
<title>right</title>
<ellipse fill="#add8e6" stroke="#000000" cx="192.9538" cy="-262.9188" rx="28.0702" ry="28.0702"/>
<text text-anchor="middle" x="192.9538" y="-260.7188" font-family="Times,serif" font-size="9.00" fill="#000000">right</text>
</g>
<!-- center_dist&#45;&gt;right -->
<g id="edge27" class="edge">
<title>center_dist&#45;&gt;right</title>
<path fill="none" stroke="#ff0000" stroke-width=".5906" d="M225.1012,-338.6351C221.0242,-329.0327 214.3314,-313.2693 208.1052,-298.6048"/>
<polygon fill="#ff0000" stroke="#ff0000" stroke-width=".5906" points="211.2431,-297.0394 204.1133,-289.2026 204.7998,-299.7751 211.2431,-297.0394"/>
</g>
<!-- center_dir -->
<g id="node2" class="node">
<title>center_dir</title>
<polygon fill="#d3d3d3" stroke="#000000" points="346.4538,-356.7092 281.4538,-356.7092 281.4538,-338.7092 346.4538,-338.7092 346.4538,-356.7092"/>
<text text-anchor="middle" x="313.9538" y="-345.5092" font-family="Times,serif" font-size="9.00" fill="#000000">center_dir</text>
</g>
<!-- backward -->
<g id="node6" class="node">
<title>backward</title>
<ellipse fill="#add8e6" stroke="#000000" cx="449.9538" cy="-43.8406" rx="43.6818" ry="43.6818"/>
<text text-anchor="middle" x="449.9538" y="-41.6406" font-family="Times,serif" font-size="9.00" fill="#000000">backward</text>
</g>
<!-- center_dir&#45;&gt;backward -->
<g id="edge8" class="edge">
<title>center_dir&#45;&gt;backward</title>
<path fill="none" stroke="#ff0000" stroke-width=".4143" stroke-dasharray="1,5" d="M314.3094,-338.6107C315.3251,-319.002 319.1325,-271.5461 332.9538,-234.6346 353.4117,-179.9989 390.1186,-123.8209 416.9772,-86.7036"/>
<polygon fill="#ff0000" stroke="#ff0000" stroke-width=".4143" points="419.8125,-88.7557 422.8909,-78.618 414.1624,-84.6233 419.8125,-88.7557"/>
</g>
<!-- center_dir&#45;&gt;right -->
<g id="edge7" class="edge">
<title>center_dir&#45;&gt;right</title>
<path fill="none" stroke="#ff0000" stroke-width=".6312" stroke-dasharray="1,5" d="M301.0047,-338.6351C282.8987,-325.9474 249.4431,-302.5035 224.5367,-285.0505"/>
<polygon fill="#ff0000" stroke="#ff0000" stroke-width=".6312" points="226.3208,-282.0269 216.1228,-279.1544 222.3037,-287.7595 226.3208,-282.0269"/>
</g>
<!-- 18 -->
<g id="node16" class="node">
<title>18</title>
<ellipse fill="#ffffff" stroke="#000000" cx="362.9538" cy="-262.9188" rx="20.5122" ry="20.5122"/>
<text text-anchor="middle" x="362.9538" y="-260.7188" font-family="Times,serif" font-size="9.00" fill="#000000">18</text>
</g>
<!-- center_dir&#45;&gt;18 -->
<g id="edge30" class="edge">
<title>center_dir&#45;&gt;18</title>
<path fill="none" stroke="#ff0000" stroke-width=".2766" d="M319.1977,-338.6351C325.9053,-327.0281 337.815,-306.4193 347.5173,-289.6304"/>
<polygon fill="#ff0000" stroke="#ff0000" stroke-width=".2766" points="350.66,-291.1872 352.6333,-280.7777 344.5993,-287.6846 350.66,-291.1872"/>
</g>
<!-- other_dist -->
<g id="node3" class="node">
<title>other_dist</title>
<polygon fill="#d3d3d3" stroke="#000000" points="431.4538,-433.7214 368.4538,-433.7214 368.4538,-415.7214 431.4538,-415.7214 431.4538,-433.7214"/>
<text text-anchor="middle" x="399.9538" y="-422.5214" font-family="Times,serif" font-size="9.00" fill="#000000">other_dist</text>
</g>
<!-- other_dist&#45;&gt;backward -->
<g id="edge26" class="edge">
<title>other_dist&#45;&gt;backward</title>
<path fill="none" stroke="#ff0000" stroke-width=".121" stroke-dasharray="1,5" d="M368.1859,-422.5C279.0465,-415.9469 31.5321,-395.436 7.9538,-368.2153 -3.9803,-354.4376 -.7907,-343.1963 7.9538,-327.2031 92.2958,-172.9461 300.4464,-90.2811 397.9692,-58.8933"/>
<polygon fill="#ff0000" stroke="#ff0000" stroke-width=".121" points="399.1383,-62.1945 407.616,-55.8401 397.026,-55.5208 399.1383,-62.1945"/>
</g>
<!-- left -->
<g id="node7" class="node">
<title>left</title>
<ellipse fill="#add8e6" stroke="#000000" cx="626.9538" cy="-262.9188" rx="22.7556" ry="22.7556"/>
<text text-anchor="middle" x="626.9538" y="-260.7188" font-family="Times,serif" font-size="9.00" fill="#000000">left</text>
</g>
<!-- other_dist&#45;&gt;left -->
<g id="edge10" class="edge">
<title>other_dist&#45;&gt;left</title>
<path fill="none" stroke="#00ff00" stroke-width=".4065" stroke-dasharray="1,5" d="M431.6592,-418.0908C463.4794,-410.2508 512.7035,-394.7866 547.9538,-368.2153 575.1815,-347.6913 597.5052,-315.326 611.393,-291.8924"/>
<polygon fill="#00ff00" stroke="#00ff00" stroke-width=".4065" points="614.51,-293.4933 616.4694,-283.0812 608.4446,-289.9989 614.51,-293.4933"/>
</g>
<!-- 33 -->
<g id="node9" class="node">
<title>33</title>
<ellipse fill="#ffffff" stroke="#000000" cx="423.9538" cy="-347.7092" rx="20.5122" ry="20.5122"/>
<text text-anchor="middle" x="423.9538" y="-345.5092" font-family="Times,serif" font-size="9.00" fill="#000000">33</text>
</g>
<!-- other_dist&#45;&gt;33 -->
<g id="edge28" class="edge">
<title>other_dist&#45;&gt;33</title>
<path fill="none" stroke="#00ff00" stroke-width=".4714" d="M402.8012,-415.5847C405.7587,-406.0945 410.5423,-390.7445 414.813,-377.0407"/>
<polygon fill="#00ff00" stroke="#00ff00" stroke-width=".4714" points="418.1647,-378.049 417.7985,-367.4605 411.4817,-375.9663 418.1647,-378.049"/>
</g>
<!-- 45 -->
<g id="node12" class="node">
<title>45</title>
<ellipse fill="#ffffff" stroke="#000000" cx="96.9538" cy="-347.7092" rx="20.5122" ry="20.5122"/>
<text text-anchor="middle" x="96.9538" y="-345.5092" font-family="Times,serif" font-size="9.00" fill="#000000">45</text>
</g>
<!-- other_dist&#45;&gt;45 -->
<g id="edge4" class="edge">
<title>other_dist&#45;&gt;45</title>
<path fill="none" stroke="#00ff00" stroke-width=".2598" d="M368.287,-422.424C315.9184,-417.7119 208.8281,-404.1787 125.9538,-368.2153 124.575,-367.617 123.1959,-366.9467 121.8289,-366.2235"/>
<polygon fill="#00ff00" stroke="#00ff00" stroke-width=".2598" points="123.474,-363.1268 113.1185,-360.8874 119.8172,-369.0957 123.474,-363.1268"/>
</g>
<!-- 79 -->
<g id="node14" class="node">
<title>79</title>
<ellipse fill="#ffffff" stroke="#000000" cx="482.9538" cy="-347.7092" rx="20.5122" ry="20.5122"/>
<text text-anchor="middle" x="482.9538" y="-345.5092" font-family="Times,serif" font-size="9.00" fill="#000000">79</text>
</g>
<!-- other_dist&#45;&gt;79 -->
<g id="edge24" class="edge">
<title>other_dist&#45;&gt;79</title>
<path fill="none" stroke="#ff0000" stroke-width=".2209" stroke-dasharray="1,5" d="M409.8009,-415.5847C422.1264,-404.1484 443.6229,-384.2027 460.1341,-368.8826"/>
<polygon fill="#ff0000" stroke="#ff0000" stroke-width=".2209" points="462.8271,-371.1585 467.7771,-361.791 458.0659,-366.0271 462.8271,-371.1585"/>
</g>
<!-- other_dist&#45;&gt;18 -->
<g id="edge1" class="edge">
<title>other_dist&#45;&gt;18</title>
<path fill="none" stroke="#ff0000" stroke-width=".4866" stroke-dasharray="1,5" d="M397.8585,-415.5586C392.5485,-392.3379 378.3789,-330.3732 369.8142,-292.9198"/>
<polygon fill="#ff0000" stroke="#ff0000" stroke-width=".4866" points="373.2004,-292.0267 367.5592,-283.0586 366.3766,-293.5872 373.2004,-292.0267"/>
</g>
<!-- 121 -->
<g id="node18" class="node">
<title>121</title>
<ellipse fill="#ffffff" stroke="#000000" cx="502.9538" cy="-161.1579" rx="25" ry="25"/>
<text text-anchor="middle" x="502.9538" y="-158.9579" font-family="Times,serif" font-size="9.00" fill="#000000">121</text>
</g>
<!-- other_dist&#45;&gt;121 -->
<g id="edge5" class="edge">
<title>other_dist&#45;&gt;121</title>
<path fill="none" stroke="#ff0000" stroke-width=".1642" d="M431.6268,-418.3209C458.3379,-411.0886 495.001,-396.4389 512.9538,-368.2153 546.8227,-314.97 529.6047,-237.5268 515.3928,-194.0123"/>
<polygon fill="#ff0000" stroke="#ff0000" stroke-width=".1642" points="518.687,-192.828 512.152,-184.4887 512.0602,-195.0831 518.687,-192.828"/>
</g>
<!-- 59 -->
<g id="node19" class="node">
<title>59</title>
<ellipse fill="#ffffff" stroke="#000000" cx="37.9538" cy="-347.7092" rx="20.5122" ry="20.5122"/>
<text text-anchor="middle" x="37.9538" y="-345.5092" font-family="Times,serif" font-size="9.00" fill="#000000">59</text>
</g>
<!-- other_dist&#45;&gt;59 -->
<g id="edge6" class="edge">
<title>other_dist&#45;&gt;59</title>
<path fill="none" stroke="#00ff00" stroke-width=".2089" d="M368.2583,-421.1648C296.0757,-412.7734 121.4884,-390.7458 66.9538,-368.2153 65.529,-367.6267 64.106,-366.9574 62.6979,-366.229"/>
<polygon fill="#00ff00" stroke="#00ff00" stroke-width=".2089" points="64.1244,-362.9998 53.7629,-360.7884 60.4838,-368.9786 64.1244,-362.9998"/>
</g>
<!-- other_dir -->
<g id="node4" class="node">
<title>other_dir</title>
<polygon fill="#d3d3d3" stroke="#000000" points="723.4538,-356.7092 664.4538,-356.7092 664.4538,-338.7092 723.4538,-338.7092 723.4538,-356.7092"/>
<text text-anchor="middle" x="693.9538" y="-345.5092" font-family="Times,serif" font-size="9.00" fill="#000000">other_dir</text>
</g>
<!-- forward -->
<g id="node5" class="node">
<title>forward</title>
<ellipse fill="#add8e6" stroke="#000000" cx="728.9538" cy="-161.1579" rx="37.4533" ry="37.4533"/>
<text text-anchor="middle" x="728.9538" y="-158.9579" font-family="Times,serif" font-size="9.00" fill="#000000">forward</text>
</g>
<!-- other_dir&#45;&gt;forward -->
<g id="edge20" class="edge">
<title>other_dir&#45;&gt;forward</title>
<path fill="none" stroke="#ff0000" stroke-width=".4655" stroke-dasharray="1,5" d="M694.1688,-338.5197C694.7704,-319.125 696.993,-272.666 704.9538,-234.6346 706.8921,-225.3744 709.5831,-215.6421 712.465,-206.4"/>
<polygon fill="#ff0000" stroke="#ff0000" stroke-width=".4655" points="715.8846,-207.2013 715.6407,-196.6093 709.2261,-205.0416 715.8846,-207.2013"/>
</g>
<!-- other_dir&#45;&gt;left -->
<g id="edge3" class="edge">
<title>other_dir&#45;&gt;left</title>
<path fill="none" stroke="#ff0000" stroke-width=".2753" d="M686.7836,-338.6351C677.4421,-326.8132 660.7216,-305.653 647.327,-288.7017"/>
<polygon fill="#ff0000" stroke="#ff0000" stroke-width=".2753" points="650.0116,-286.4538 641.0656,-280.7777 644.5193,-290.7938 650.0116,-286.4538"/>
</g>
<!-- 135 -->
<g id="node11" class="node">
<title>135</title>
<ellipse fill="#ffffff" stroke="#000000" cx="738.9538" cy="-262.9188" rx="25" ry="25"/>
<text text-anchor="middle" x="738.9538" y="-260.7188" font-family="Times,serif" font-size="9.00" fill="#000000">135</text>
</g>
<!-- other_dir&#45;&gt;135 -->
<g id="edge11" class="edge">
<title>other_dir&#45;&gt;135</title>
<path fill="none" stroke="#00ff00" stroke-width=".3" d="M698.7696,-338.6351C704.4177,-327.9927 714.0823,-309.7825 722.5179,-293.8878"/>
<polygon fill="#00ff00" stroke="#00ff00" stroke-width=".3" points="725.7066,-295.3455 727.303,-284.8716 719.5235,-292.0639 725.7066,-295.3455"/>
</g>
<!-- 125 -->
<g id="node20" class="node">
<title>125</title>
<ellipse fill="#ffffff" stroke="#000000" cx="628.9538" cy="-161.1579" rx="25" ry="25"/>
<text text-anchor="middle" x="628.9538" y="-158.9579" font-family="Times,serif" font-size="9.00" fill="#000000">125</text>
</g>
<!-- left&#45;&gt;125 -->
<g id="edge16" class="edge">
<title>left&#45;&gt;125</title>
<path fill="none" stroke="#ff0000" stroke-width=".2767" d="M627.4026,-240.0817C627.6566,-227.1616 627.9795,-210.7331 628.2648,-196.2139"/>
<polygon fill="#ff0000" stroke="#ff0000" stroke-width=".2767" points="631.7672,-196.1234 628.4644,-186.0565 624.7685,-195.9858 631.7672,-196.1234"/>
</g>
<!-- 33&#45;&gt;18 -->
<g id="edge2" class="edge">
<title>33&#45;&gt;18</title>
<path fill="none" stroke="#ff0000" stroke-width=".3752" d="M411.9022,-330.9574C403.0461,-318.6473 390.866,-301.717 380.8716,-287.8247"/>
<polygon fill="#ff0000" stroke="#ff0000" stroke-width=".3752" points="383.6616,-285.7095 374.9804,-279.6359 377.9792,-289.7975 383.6616,-285.7095"/>
</g>
<!-- 72 -->
<g id="node10" class="node">
<title>72</title>
<ellipse fill="#ffffff" stroke="#000000" cx="625.9538" cy="-424.7214" rx="20.5122" ry="20.5122"/>
<text text-anchor="middle" x="625.9538" y="-422.5214" font-family="Times,serif" font-size="9.00" fill="#000000">72</text>
</g>
<!-- 14 -->
<g id="node13" class="node">
<title>14</title>
<ellipse fill="#ffffff" stroke="#000000" cx="625.9538" cy="-347.7092" rx="20.5122" ry="20.5122"/>
<text text-anchor="middle" x="625.9538" y="-345.5092" font-family="Times,serif" font-size="9.00" fill="#000000">14</text>
</g>
<!-- 72&#45;&gt;14 -->
<g id="edge23" class="edge">
<title>72&#45;&gt;14</title>
<path fill="none" stroke="#00ff00" stroke-width=".2016" d="M625.9538,-404.0835C625.9538,-396.228 625.9538,-387.0976 625.9538,-378.502"/>
<polygon fill="#00ff00" stroke="#00ff00" stroke-width=".2016" points="629.4539,-378.404 625.9538,-368.404 622.4539,-378.4041 629.4539,-378.404"/>
</g>
<!-- 135&#45;&gt;forward -->
<g id="edge25" class="edge">
<title>135&#45;&gt;forward</title>
<path fill="none" stroke="#ff0000" stroke-width=".6313" d="M736.5331,-238.2853C735.6574,-229.3739 734.6363,-218.9833 733.6325,-208.7691"/>
<polygon fill="#ff0000" stroke="#ff0000" stroke-width=".6313" points="737.1019,-208.2848 732.6406,-198.675 730.1354,-208.9694 737.1019,-208.2848"/>
</g>
<!-- 45&#45;&gt;right -->
<g id="edge14" class="edge">
<title>45&#45;&gt;right</title>
<path fill="none" stroke="#ff0000" stroke-width=".3283" d="M112.3779,-334.0862C126.1335,-321.9367 146.6473,-303.8182 163.5335,-288.9038"/>
<polygon fill="#ff0000" stroke="#ff0000" stroke-width=".3283" points="166.308,-291.1231 171.4861,-281.8798 161.674,-285.8765 166.308,-291.1231"/>
</g>
<!-- 14&#45;&gt;left -->
<g id="edge22" class="edge">
<title>14&#45;&gt;left</title>
<path fill="none" stroke="#ff0000" stroke-width=".1148" stroke-dasharray="1,5" d="M626.1959,-327.1838C626.3069,-317.7736 626.4412,-306.3838 626.5657,-295.8224"/>
<polygon fill="#ff0000" stroke="#ff0000" stroke-width=".1148" points="630.0676,-295.6817 626.6858,-285.6411 623.068,-295.5991 630.0676,-295.6817"/>
</g>
<!-- 79&#45;&gt;backward -->
<g id="edge17" class="edge">
<title>79&#45;&gt;backward</title>
<path fill="none" stroke="#00ff00" stroke-width=".3845" d="M469.5572,-332.1126C461.2641,-321.3887 451.3807,-306.3904 446.9538,-291.2031 428.1203,-226.5907 433.4678,-148.394 440.4496,-97.4536"/>
<polygon fill="#00ff00" stroke="#00ff00" stroke-width=".3845" points="443.9467,-97.7236 441.9085,-87.3267 437.0183,-96.7255 443.9467,-97.7236"/>
</g>
<!-- 113 -->
<g id="node15" class="node">
<title>113</title>
<ellipse fill="#ffffff" stroke="#000000" cx="480.9538" cy="-262.9188" rx="25" ry="25"/>
<text text-anchor="middle" x="480.9538" y="-260.7188" font-family="Times,serif" font-size="9.00" fill="#000000">113</text>
</g>
<!-- 79&#45;&gt;113 -->
<g id="edge13" class="edge">
<title>79&#45;&gt;113</title>
<path fill="none" stroke="#00ff00" stroke-width=".12" d="M482.4697,-327.1838C482.262,-318.3809 482.0135,-307.8456 481.7784,-297.8767"/>
<polygon fill="#00ff00" stroke="#00ff00" stroke-width=".12" points="485.2754,-297.704 481.5404,-287.7894 478.2773,-297.8692 485.2754,-297.704"/>
</g>
<!-- 113&#45;&gt;backward -->
<g id="edge9" class="edge">
<title>113&#45;&gt;backward</title>
<path fill="none" stroke="#ff0000" stroke-width=".2948" stroke-dasharray="1,5" d="M476.0359,-238.5596C473.7095,-226.5666 471,-211.8742 468.9538,-198.6346 463.7932,-165.2441 459.1491,-127.6258 455.7442,-97.8352"/>
<polygon fill="#ff0000" stroke="#ff0000" stroke-width=".2948" points="459.1934,-97.1879 454.5927,-87.6442 452.2377,-97.9739 459.1934,-97.1879"/>
</g>
<!-- 113&#45;&gt;121 -->
<g id="edge19" class="edge">
<title>113&#45;&gt;121</title>
<path fill="none" stroke="#00ff00" stroke-width=".2752" d="M486.2234,-238.5446C489.0057,-225.6749 492.4666,-209.6663 495.5175,-195.5544"/>
<polygon fill="#00ff00" stroke="#00ff00" stroke-width=".2752" points="498.9588,-196.1998 497.651,-185.686 492.1168,-194.7206 498.9588,-196.1998"/>
</g>
<!-- 113&#45;&gt;125 -->
<g id="edge15" class="edge">
<title>113&#45;&gt;125</title>
<path fill="none" stroke="#00ff00" stroke-width=".3945" d="M503.9731,-252.9047C528.2562,-241.7138 566.9468,-222.0568 595.9538,-198.6346 599.7183,-195.5948 603.4099,-192.0992 606.8814,-188.491"/>
<polygon fill="#00ff00" stroke="#00ff00" stroke-width=".3945" points="609.5194,-190.7923 613.6511,-181.0363 604.3372,-186.0864 609.5194,-190.7923"/>
</g>
<!-- 83 -->
<g id="node17" class="node">
<title>83</title>
<ellipse fill="#ffffff" stroke="#000000" cx="565.9538" cy="-161.1579" rx="20.5122" ry="20.5122"/>
<text text-anchor="middle" x="565.9538" y="-158.9579" font-family="Times,serif" font-size="9.00" fill="#000000">83</text>
</g>
<!-- 83&#45;&gt;backward -->
<g id="edge12" class="edge">
<title>83&#45;&gt;backward</title>
<path fill="none" stroke="#ff0000" stroke-width=".2821" d="M553.8313,-144.2482C548.8424,-137.6295 542.8559,-130.1008 536.9538,-123.6812 522.7753,-108.2596 506.0537,-92.4282 491.0786,-78.9713"/>
<polygon fill="#ff0000" stroke="#ff0000" stroke-width=".2821" points="493.2268,-76.1979 483.4294,-72.1654 488.5737,-81.4275 493.2268,-76.1979"/>
</g>
<!-- 121&#45;&gt;backward -->
<g id="edge29" class="edge">
<title>121&#45;&gt;backward</title>
<path fill="none" stroke="#00ff00" stroke-width=".3496" d="M492.7349,-138.5379C486.9011,-125.6248 479.3487,-108.9073 472.2167,-93.1203"/>
<polygon fill="#00ff00" stroke="#00ff00" stroke-width=".3496" points="475.3889,-91.6406 468.0822,-83.9684 469.0097,-94.5226 475.3889,-91.6406"/>
</g>
<!-- 125&#45;&gt;backward -->
<g id="edge18" class="edge">
<title>125&#45;&gt;backward</title>
<path fill="none" stroke="#00ff00" stroke-width=".297" d="M613.6796,-141.244C608.4575,-135.1761 602.3178,-128.7712 595.9538,-123.6812 566.5367,-100.153 529.2107,-79.88 499.6635,-65.6499"/>
<polygon fill="#00ff00" stroke="#00ff00" stroke-width=".297" points="500.8993,-62.3625 490.3635,-61.2456 497.9032,-68.6889 500.8993,-62.3625"/>
</g>
<!-- 31 -->
<g id="node21" class="node">
<title>31</title>
<ellipse fill="#ffffff" stroke="#000000" cx="155.9538" cy="-347.7092" rx="20.5122" ry="20.5122"/>
<text text-anchor="middle" x="155.9538" y="-345.5092" font-family="Times,serif" font-size="9.00" fill="#000000">31</text>
</g>
<!-- 31&#45;&gt;right -->
<g id="edge21" class="edge">
<title>31&#45;&gt;right</title>
<path fill="none" stroke="#ff0000" stroke-width=".1676" d="M164.1653,-328.8915C168.0773,-319.9265 172.8894,-308.8991 177.4515,-298.4443"/>
<polygon fill="#ff0000" stroke="#ff0000" stroke-width=".1676" points="180.7464,-299.6448 181.5381,-289.0795 174.3306,-296.8451 180.7464,-299.6448"/>
</g>
</g>
</svg>
