<?xml version="1.0" encoding="UTF-8" standalone="no"?>
<!DOCTYPE svg PUBLIC "-//W3C//DTD SVG 1.1//EN"
 "http://www.w3.org/Graphics/SVG/1.1/DTD/svg11.dtd">
<!-- Generated by graphviz version 2.40.1 (20161225.0304)
 -->
<!-- Title: %3 Pages: 1 -->
<svg width="730pt" height="942pt"
 viewBox="0.00 0.00 730.03 941.53" xmlns="http://www.w3.org/2000/svg" xmlns:xlink="http://www.w3.org/1999/xlink">
<g id="graph0" class="graph" transform="scale(1 1) rotate(0) translate(4 937.526)">
<title>%3</title>
<polygon fill="#ffffff" stroke="transparent" points="-4,4 -4,-937.526 726.0266,-937.526 726.0266,4 -4,4"/>
<!-- center_dist -->
<g id="node1" class="node">
<title>center_dist</title>
<polygon fill="#d3d3d3" stroke="#000000" points="590.9954,-708.5986 522.9954,-708.5986 522.9954,-690.5986 590.9954,-690.5986 590.9954,-708.5986"/>
<text text-anchor="middle" x="556.9954" y="-697.3986" font-family="Times,serif" font-size="9.00" fill="#000000">center_dist</text>
</g>
<!-- left -->
<g id="node7" class="node">
<title>left</title>
<ellipse fill="#add8e6" stroke="#000000" cx="475.9954" cy="-511.6331" rx="22.7556" ry="22.7556"/>
<text text-anchor="middle" x="475.9954" y="-509.4331" font-family="Times,serif" font-size="9.00" fill="#000000">left</text>
</g>
<!-- center_dist&#45;&gt;left -->
<g id="edge22" class="edge">
<title>center_dist&#45;&gt;left</title>
<path fill="none" stroke="#00ff00" stroke-width=".4767" stroke-dasharray="1,5" d="M558.9996,-690.3589C563.1376,-669.0356 570.7529,-615.2601 551.9954,-576.6245 541.9227,-555.8773 521.8387,-539.1616 504.8459,-527.8801"/>
<polygon fill="#00ff00" stroke="#00ff00" stroke-width=".4767" points="506.6336,-524.8695 496.3109,-522.4834 502.8925,-530.786 506.6336,-524.8695"/>
</g>
<!-- 6002 -->
<g id="node24" class="node">
<title>6002</title>
<ellipse fill="#ffffff" stroke="#000000" cx="513.9954" cy="-605.6158" rx="28.9828" ry="28.9828"/>
<text text-anchor="middle" x="513.9954" y="-603.4158" font-family="Times,serif" font-size="9.00" fill="#000000">6002</text>
</g>
<!-- center_dist&#45;&gt;6002 -->
<g id="edge26" class="edge">
<title>center_dist&#45;&gt;6002</title>
<path fill="none" stroke="#ff0000" stroke-width=".2875" d="M552.8724,-690.5871C547.7289,-679.3453 538.6224,-659.4416 530.5154,-641.7228"/>
<polygon fill="#ff0000" stroke="#ff0000" stroke-width=".2875" points="533.4892,-639.8099 526.146,-632.1726 527.1238,-642.7223 533.4892,-639.8099"/>
</g>
<!-- center_dir -->
<g id="node2" class="node">
<title>center_dir</title>
<polygon fill="#d3d3d3" stroke="#000000" points="527.4954,-905.0494 462.4954,-905.0494 462.4954,-887.0494 527.4954,-887.0494 527.4954,-905.0494"/>
<text text-anchor="middle" x="494.9954" y="-893.8494" font-family="Times,serif" font-size="9.00" fill="#000000">center_dir</text>
</g>
<!-- backward -->
<g id="node6" class="node">
<title>backward</title>
<ellipse fill="#add8e6" stroke="#000000" cx="403.9954" cy="-129.3381" rx="43.6818" ry="43.6818"/>
<text text-anchor="middle" x="403.9954" y="-127.1381" font-family="Times,serif" font-size="9.00" fill="#000000">backward</text>
</g>
<!-- center_dir&#45;&gt;backward -->
<g id="edge11" class="edge">
<title>center_dir&#45;&gt;backward</title>
<path fill="none" stroke="#00ff00" stroke-width=".5636" stroke-dasharray="1,5" d="M505.6247,-886.6565C541.6653,-854.3745 656.9954,-747.3419 656.9954,-699.5986 656.9954,-699.5986 656.9954,-699.5986 656.9954,-605.6158 656.9954,-424.3486 512.2995,-244.8566 441.7615,-168.1252"/>
<polygon fill="#00ff00" stroke="#00ff00" stroke-width=".5636" points="444.1334,-165.5358 434.7652,-160.5873 439.0028,-170.2978 444.1334,-165.5358"/>
</g>
<!-- 325 -->
<g id="node10" class="node">
<title>325</title>
<ellipse fill="#ffffff" stroke="#000000" cx="382.9954" cy="-233.9275" rx="25" ry="25"/>
<text text-anchor="middle" x="382.9954" y="-231.7275" font-family="Times,serif" font-size="9.00" fill="#000000">325</text>
</g>
<!-- center_dir&#45;&gt;325 -->
<g id="edge24" class="edge">
<title>center_dir&#45;&gt;325</title>
<path fill="none" stroke="#ff0000" stroke-width=".6468" stroke-dasharray="1,5" d="M492.6375,-886.7225C479.8096,-835.6687 418.9954,-589.5283 418.9954,-511.6331 418.9954,-511.6331 418.9954,-511.6331 418.9954,-417.6503 418.9954,-364.3214 404.2076,-303.8829 393.5875,-267.3541"/>
<polygon fill="#ff0000" stroke="#ff0000" stroke-width=".6468" points="396.9248,-266.2975 390.7183,-257.7109 390.2155,-268.2938 396.9248,-266.2975"/>
</g>
<!-- 1058 -->
<g id="node15" class="node">
<title>1058</title>
<ellipse fill="#ffffff" stroke="#000000" cx="143.9954" cy="-793.5813" rx="28.9828" ry="28.9828"/>
<text text-anchor="middle" x="143.9954" y="-791.3813" font-family="Times,serif" font-size="9.00" fill="#000000">1058</text>
</g>
<!-- center_dir&#45;&gt;1058 -->
<g id="edge2" class="edge">
<title>center_dir&#45;&gt;1058</title>
<path fill="none" stroke="#00ff00" stroke-width=".2191" d="M464.1541,-887.0458C399.898,-868.2874 251.8616,-825.0709 181.9158,-804.6515"/>
<polygon fill="#00ff00" stroke="#00ff00" stroke-width=".2191" points="182.762,-801.2525 172.1819,-801.8099 180.8003,-807.972 182.762,-801.2525"/>
</g>
<!-- other_dist -->
<g id="node3" class="node">
<title>other_dist</title>
<polygon fill="#d3d3d3" stroke="#000000" points="608.4954,-905.0494 545.4954,-905.0494 545.4954,-887.0494 608.4954,-887.0494 608.4954,-905.0494"/>
<text text-anchor="middle" x="576.9954" y="-893.8494" font-family="Times,serif" font-size="9.00" fill="#000000">other_dist</text>
</g>
<!-- other_dir -->
<g id="node4" class="node">
<title>other_dir</title>
<polygon fill="#d3d3d3" stroke="#000000" points="391.4954,-802.5813 332.4954,-802.5813 332.4954,-784.5813 391.4954,-784.5813 391.4954,-802.5813"/>
<text text-anchor="middle" x="361.9954" y="-791.3813" font-family="Times,serif" font-size="9.00" fill="#000000">other_dir</text>
</g>
<!-- other_dir&#45;&gt;left -->
<g id="edge4" class="edge">
<title>other_dir&#45;&gt;left</title>
<path fill="none" stroke="#00ff00" stroke-width=".1405" d="M378.2763,-784.4134C396,-773.5186 423.7168,-753.6234 437.9954,-728.59 471.4086,-670.0095 476.8191,-589.175 476.9518,-544.5508"/>
<polygon fill="#00ff00" stroke="#00ff00" stroke-width=".1405" points="480.4518,-544.5262 476.8936,-534.5467 473.4519,-544.567 480.4518,-544.5262"/>
</g>
<!-- right -->
<g id="node8" class="node">
<title>right</title>
<ellipse fill="#add8e6" stroke="#000000" cx="303.9954" cy="-605.6158" rx="28.0702" ry="28.0702"/>
<text text-anchor="middle" x="303.9954" y="-603.4158" font-family="Times,serif" font-size="9.00" fill="#000000">right</text>
</g>
<!-- other_dir&#45;&gt;right -->
<g id="edge14" class="edge">
<title>other_dir&#45;&gt;right</title>
<path fill="none" stroke="#ff0000" stroke-width=".6533" stroke-dasharray="1,5" d="M344.2193,-784.4529C325.7477,-773.8496 297.9075,-754.4503 285.9954,-728.59 273.3238,-701.0809 279.9597,-666.7674 288.5398,-641.3819"/>
<polygon fill="#ff0000" stroke="#ff0000" stroke-width=".6533" points="291.9024,-642.3755 292.0188,-631.7813 285.3211,-639.9906 291.9024,-642.3755"/>
</g>
<!-- 1821 -->
<g id="node17" class="node">
<title>1821</title>
<ellipse fill="#ffffff" stroke="#000000" cx="323.9954" cy="-699.5986" rx="28.9828" ry="28.9828"/>
<text text-anchor="middle" x="323.9954" y="-697.3986" font-family="Times,serif" font-size="9.00" fill="#000000">1821</text>
</g>
<!-- other_dir&#45;&gt;1821 -->
<g id="edge30" class="edge">
<title>other_dir&#45;&gt;1821</title>
<path fill="none" stroke="#00ff00" stroke-width=".2791" stroke-dasharray="1,5" d="M358.3518,-784.5699C353.8378,-773.4056 345.8696,-753.6985 338.7429,-736.0724"/>
<polygon fill="#00ff00" stroke="#00ff00" stroke-width=".2791" points="341.8908,-734.5206 334.8974,-726.5617 335.4011,-737.1446 341.8908,-734.5206"/>
</g>
<!-- 3732 -->
<g id="node20" class="node">
<title>3732</title>
<ellipse fill="#ffffff" stroke="#000000" cx="399.9954" cy="-699.5986" rx="28.9828" ry="28.9828"/>
<text text-anchor="middle" x="399.9954" y="-697.3986" font-family="Times,serif" font-size="9.00" fill="#000000">3732</text>
</g>
<!-- other_dir&#45;&gt;3732 -->
<g id="edge15" class="edge">
<title>other_dir&#45;&gt;3732</title>
<path fill="none" stroke="#00ff00" stroke-width=".8975" stroke-dasharray="1,5" d="M365.639,-784.5699C370.1531,-773.4056 378.1212,-753.6985 385.248,-736.0724"/>
<polygon fill="#00ff00" stroke="#00ff00" stroke-width=".8975" points="388.5897,-737.1446 389.0934,-726.5617 382.1001,-734.5206 388.5897,-737.1446"/>
</g>
<!-- 696 -->
<g id="node22" class="node">
<title>696</title>
<ellipse fill="#ffffff" stroke="#000000" cx="513.9954" cy="-24.7487" rx="25" ry="25"/>
<text text-anchor="middle" x="513.9954" y="-22.5487" font-family="Times,serif" font-size="9.00" fill="#000000">696</text>
</g>
<!-- other_dir&#45;&gt;696 -->
<g id="edge28" class="edge">
<title>other_dir&#45;&gt;696</title>
<path fill="none" stroke="#ff0000" stroke-width=".5036" stroke-dasharray="1,5" d="M391.5681,-787.5679C452.4129,-774.9065 587.0254,-745.2943 599.9954,-728.59 775.301,-502.8104 746.2717,-336.2237 608.9954,-85.4975 595.8918,-61.5647 568.8976,-45.6851 547.0217,-36.1837"/>
<polygon fill="#ff0000" stroke="#ff0000" stroke-width=".5036" points="548.2889,-32.9206 537.7079,-32.3792 545.6418,-39.4009 548.2889,-32.9206"/>
</g>
<!-- 4123 -->
<g id="node23" class="node">
<title>4123</title>
<ellipse fill="#ffffff" stroke="#000000" cx="171.9954" cy="-699.5986" rx="28.9828" ry="28.9828"/>
<text text-anchor="middle" x="171.9954" y="-697.3986" font-family="Times,serif" font-size="9.00" fill="#000000">4123</text>
</g>
<!-- other_dir&#45;&gt;4123 -->
<g id="edge6" class="edge">
<title>other_dir&#45;&gt;4123</title>
<path fill="none" stroke="#ff0000" stroke-width=".7603" d="M343.7774,-784.5699C312.4117,-769.0549 247.6924,-737.0418 207.2618,-717.043"/>
<polygon fill="#ff0000" stroke="#ff0000" stroke-width=".7603" points="208.7983,-713.8983 198.2831,-712.6017 205.6947,-720.1727 208.7983,-713.8983"/>
</g>
<!-- forward -->
<g id="node5" class="node">
<title>forward</title>
<ellipse fill="#add8e6" stroke="#000000" cx="663.9954" cy="-896.0494" rx="37.4533" ry="37.4533"/>
<text text-anchor="middle" x="663.9954" y="-893.8494" font-family="Times,serif" font-size="9.00" fill="#000000">forward</text>
</g>
<!-- 2788 -->
<g id="node9" class="node">
<title>2788</title>
<ellipse fill="#ffffff" stroke="#000000" cx="475.9954" cy="-417.6503" rx="28.9828" ry="28.9828"/>
<text text-anchor="middle" x="475.9954" y="-415.4503" font-family="Times,serif" font-size="9.00" fill="#000000">2788</text>
</g>
<!-- left&#45;&gt;2788 -->
<g id="edge9" class="edge">
<title>left&#45;&gt;2788</title>
<path fill="none" stroke="#ff0000" stroke-width=".2612" d="M475.9954,-488.8825C475.9954,-479.3314 475.9954,-467.9406 475.9954,-457.0996"/>
<polygon fill="#ff0000" stroke="#ff0000" stroke-width=".2612" points="479.4955,-456.9522 475.9954,-446.9522 472.4955,-456.9523 479.4955,-456.9522"/>
</g>
<!-- right&#45;&gt;325 -->
<g id="edge18" class="edge">
<title>right&#45;&gt;325</title>
<path fill="none" stroke="#00ff00" stroke-width=".1348" stroke-dasharray="1,5" d="M299.5753,-577.4898C292.0073,-521.0395 281.2229,-391.0987 323.9954,-294.6762 330.7767,-279.3891 343.1803,-265.6933 354.8709,-255.1929"/>
<polygon fill="#00ff00" stroke="#00ff00" stroke-width=".1348" points="357.4353,-257.6059 362.7727,-248.4536 352.8928,-252.2799 357.4353,-257.6059"/>
</g>
<!-- 4846 -->
<g id="node16" class="node">
<title>4846</title>
<ellipse fill="#ffffff" stroke="#000000" cx="475.9954" cy="-323.6676" rx="28.9828" ry="28.9828"/>
<text text-anchor="middle" x="475.9954" y="-321.4676" font-family="Times,serif" font-size="9.00" fill="#000000">4846</text>
</g>
<!-- 2788&#45;&gt;4846 -->
<g id="edge3" class="edge">
<title>2788&#45;&gt;4846</title>
<path fill="none" stroke="#00ff00" stroke-width=".1257" d="M475.9954,-388.4288C475.9954,-380.384 475.9954,-371.5243 475.9954,-363.0091"/>
<polygon fill="#00ff00" stroke="#00ff00" stroke-width=".1257" points="479.4955,-362.871 475.9954,-352.8711 472.4955,-362.8711 479.4955,-362.871"/>
</g>
<!-- 2788&#45;&gt;696 -->
<g id="edge29" class="edge">
<title>2788&#45;&gt;696</title>
<path fill="none" stroke="#ff0000" stroke-width=".3733" stroke-dasharray="1,5" d="M493.7019,-394.3318C501.5741,-382.5167 509.9628,-367.5454 513.9954,-352.6589 542.0795,-248.9868 528.7677,-120.0169 519.8231,-59.3495"/>
<polygon fill="#ff0000" stroke="#ff0000" stroke-width=".3733" points="523.2397,-58.5372 518.2691,-49.1808 516.32,-59.5948 523.2397,-58.5372"/>
</g>
<!-- 325&#45;&gt;backward -->
<g id="edge25" class="edge">
<title>325&#45;&gt;backward</title>
<path fill="none" stroke="#ff0000" stroke-width=".1291" stroke-dasharray="1,5" d="M387.919,-209.4059C389.5565,-201.2502 391.449,-191.8248 393.3479,-182.3674"/>
<polygon fill="#ff0000" stroke="#ff0000" stroke-width=".1291" points="396.7815,-183.0454 395.3187,-172.5521 389.9185,-181.6674 396.7815,-183.0454"/>
</g>
<!-- 4553 -->
<g id="node12" class="node">
<title>4553</title>
<ellipse fill="#ffffff" stroke="#000000" cx="312.9954" cy="-129.3381" rx="28.9828" ry="28.9828"/>
<text text-anchor="middle" x="312.9954" y="-127.1381" font-family="Times,serif" font-size="9.00" fill="#000000">4553</text>
</g>
<!-- 325&#45;&gt;4553 -->
<g id="edge1" class="edge">
<title>325&#45;&gt;4553</title>
<path fill="none" stroke="#00ff00" stroke-width=".2172" d="M369.1657,-213.264C359.3939,-198.6637 346.0956,-178.7942 334.8913,-162.0535"/>
<polygon fill="#00ff00" stroke="#00ff00" stroke-width=".2172" points="337.7236,-159.9925 329.2528,-153.6288 331.9062,-163.886 337.7236,-159.9925"/>
</g>
<!-- 2984 -->
<g id="node11" class="node">
<title>2984</title>
<ellipse fill="#ffffff" stroke="#000000" cx="57.9954" cy="-605.6158" rx="28.9828" ry="28.9828"/>
<text text-anchor="middle" x="57.9954" y="-603.4158" font-family="Times,serif" font-size="9.00" fill="#000000">2984</text>
</g>
<!-- 2897 -->
<g id="node18" class="node">
<title>2897</title>
<ellipse fill="#ffffff" stroke="#000000" cx="29.9954" cy="-511.6331" rx="28.9828" ry="28.9828"/>
<text text-anchor="middle" x="29.9954" y="-509.4331" font-family="Times,serif" font-size="9.00" fill="#000000">2897</text>
</g>
<!-- 2984&#45;&gt;2897 -->
<g id="edge17" class="edge">
<title>2984&#45;&gt;2897</title>
<path fill="none" stroke="#ff0000" stroke-width=".3169" stroke-dasharray="1,5" d="M49.6703,-577.6724C47.0142,-568.7571 44.0301,-558.7409 41.2041,-549.2554"/>
<polygon fill="#ff0000" stroke="#ff0000" stroke-width=".3169" points="44.5464,-548.2155 38.3368,-539.6312 37.8378,-550.2142 44.5464,-548.2155"/>
</g>
<!-- 4553&#45;&gt;696 -->
<g id="edge7" class="edge">
<title>4553&#45;&gt;696</title>
<path fill="none" stroke="#ff0000" stroke-width=".1195" d="M330.0431,-105.3746C336.0275,-98.2406 343.217,-90.8958 350.9954,-85.4975 390.793,-57.8776 444.7129,-41.0196 479.4324,-32.2808"/>
<polygon fill="#ff0000" stroke="#ff0000" stroke-width=".1195" points="480.6606,-35.5845 489.5541,-29.8266 479.011,-28.7817 480.6606,-35.5845"/>
</g>
<!-- 2858 -->
<g id="node13" class="node">
<title>2858</title>
<ellipse fill="#ffffff" stroke="#000000" cx="228.9954" cy="-605.6158" rx="28.9828" ry="28.9828"/>
<text text-anchor="middle" x="228.9954" y="-603.4158" font-family="Times,serif" font-size="9.00" fill="#000000">2858</text>
</g>
<!-- 2858&#45;&gt;left -->
<g id="edge10" class="edge">
<title>2858&#45;&gt;left</title>
<path fill="none" stroke="#00ff00" stroke-width=".3634" d="M251.0323,-586.7628C256.0622,-583.0524 261.5392,-579.4415 266.9954,-576.6245 325.8238,-546.2512 401.3877,-527.1169 443.6561,-517.9925"/>
<polygon fill="#00ff00" stroke="#00ff00" stroke-width=".3634" points="444.59,-521.3727 453.6545,-515.8876 443.148,-514.5228 444.59,-521.3727"/>
</g>
<!-- 3019 -->
<g id="node14" class="node">
<title>3019</title>
<ellipse fill="#ffffff" stroke="#000000" cx="361.9954" cy="-323.6676" rx="28.9828" ry="28.9828"/>
<text text-anchor="middle" x="361.9954" y="-321.4676" font-family="Times,serif" font-size="9.00" fill="#000000">3019</text>
</g>
<!-- 3019&#45;&gt;325 -->
<g id="edge31" class="edge">
<title>3019&#45;&gt;325</title>
<path fill="none" stroke="#00ff00" stroke-width=".2545" d="M368.6399,-295.2732C370.6654,-286.6176 372.9132,-277.0121 375.0174,-268.0203"/>
<polygon fill="#00ff00" stroke="#00ff00" stroke-width=".2545" points="378.4418,-268.7469 377.3125,-258.2124 371.626,-267.1519 378.4418,-268.7469"/>
</g>
<!-- 1058&#45;&gt;right -->
<g id="edge32" class="edge">
<title>1058&#45;&gt;right</title>
<path fill="none" stroke="#00ff00" stroke-width=".1965" stroke-dasharray="1,5" d="M165.565,-773.8127C178.8442,-761.2902 195.9528,-744.5084 209.9954,-728.59 236.1891,-698.8973 263.3701,-662.6468 281.7247,-637.2236"/>
<polygon fill="#00ff00" stroke="#00ff00" stroke-width=".1965" points="284.6094,-639.207 287.5968,-629.0421 278.9224,-635.1254 284.6094,-639.207"/>
</g>
<!-- 1058&#45;&gt;2984 -->
<g id="edge21" class="edge">
<title>1058&#45;&gt;2984</title>
<path fill="none" stroke="#00ff00" stroke-width=".1044" stroke-dasharray="1,5" d="M134.528,-765.7023C125.6145,-740.4265 111.3667,-702.3785 95.9954,-670.6072 90.8963,-660.0677 84.7129,-648.9465 78.8285,-638.9412"/>
<polygon fill="#00ff00" stroke="#00ff00" stroke-width=".1044" points="81.6857,-636.8996 73.5481,-630.115 75.6786,-640.4934 81.6857,-636.8996"/>
</g>
<!-- 1058&#45;&gt;2897 -->
<g id="edge19" class="edge">
<title>1058&#45;&gt;2897</title>
<path fill="none" stroke="#00ff00" stroke-width=".611" d="M115.4556,-787.6479C85.7137,-779.7765 40.6266,-762.6965 19.9954,-728.59 -13.55,-673.1343 2.4601,-594.3386 16.6021,-548.5464"/>
<polygon fill="#00ff00" stroke="#00ff00" stroke-width=".611" points="19.9355,-549.6131 19.6646,-539.0217 13.2716,-547.4703 19.9355,-549.6131"/>
</g>
<!-- 3218 -->
<g id="node19" class="node">
<title>3218</title>
<ellipse fill="#ffffff" stroke="#000000" cx="57.9954" cy="-699.5986" rx="28.9828" ry="28.9828"/>
<text text-anchor="middle" x="57.9954" y="-697.3986" font-family="Times,serif" font-size="9.00" fill="#000000">3218</text>
</g>
<!-- 1058&#45;&gt;3218 -->
<g id="edge13" class="edge">
<title>1058&#45;&gt;3218</title>
<path fill="none" stroke="#00ff00" stroke-width=".1603" stroke-dasharray="1,5" d="M124.0491,-771.7836C112.3265,-758.9728 97.3583,-742.6153 84.6357,-728.7118"/>
<polygon fill="#00ff00" stroke="#00ff00" stroke-width=".1603" points="87.1665,-726.2928 77.8335,-721.2781 82.0023,-731.0184 87.1665,-726.2928"/>
</g>
<!-- 1058&#45;&gt;4123 -->
<g id="edge27" class="edge">
<title>1058&#45;&gt;4123</title>
<path fill="none" stroke="#ff0000" stroke-width=".1409" d="M152.3205,-765.6379C154.9766,-756.7227 157.9607,-746.7064 160.7867,-737.2209"/>
<polygon fill="#ff0000" stroke="#ff0000" stroke-width=".1409" points="164.153,-738.1798 163.654,-727.5967 157.4444,-736.181 164.153,-738.1798"/>
</g>
<!-- 4846&#45;&gt;325 -->
<g id="edge20" class="edge">
<title>4846&#45;&gt;325</title>
<path fill="none" stroke="#ff0000" stroke-width=".1183" d="M454.8923,-303.3041C441.0187,-289.9169 422.7944,-272.3313 408.1655,-258.2153"/>
<polygon fill="#ff0000" stroke="#ff0000" stroke-width=".1183" points="410.5119,-255.6156 400.8855,-251.1904 405.6512,-260.6529 410.5119,-255.6156"/>
</g>
<!-- 4846&#45;&gt;696 -->
<g id="edge23" class="edge">
<title>4846&#45;&gt;696</title>
<path fill="none" stroke="#ff0000" stroke-width=".2586" d="M477.7422,-294.5486C480.7108,-249.5091 487.6526,-160.3304 499.9954,-85.4975 501.4386,-76.7475 503.3922,-67.3754 505.3816,-58.6758"/>
<polygon fill="#ff0000" stroke="#ff0000" stroke-width=".2586" points="508.8099,-59.3867 507.7049,-48.8496 501.9977,-57.7759 508.8099,-59.3867"/>
</g>
<!-- 1821&#45;&gt;right -->
<g id="edge16" class="edge">
<title>1821&#45;&gt;right</title>
<path fill="none" stroke="#00ff00" stroke-width=".1763" stroke-dasharray="1,5" d="M317.9405,-671.1456C316.0661,-662.3376 313.9715,-652.4947 311.9869,-643.1691"/>
<polygon fill="#00ff00" stroke="#00ff00" stroke-width=".1763" points="315.3972,-642.3787 309.8923,-633.3262 308.5505,-643.8358 315.3972,-642.3787"/>
</g>
<!-- 3218&#45;&gt;2984 -->
<g id="edge33" class="edge">
<title>3218&#45;&gt;2984</title>
<path fill="none" stroke="#00ff00" stroke-width=".3252" d="M57.9954,-670.377C57.9954,-662.3323 57.9954,-653.4726 57.9954,-644.9573"/>
<polygon fill="#00ff00" stroke="#00ff00" stroke-width=".3252" points="61.4955,-644.8193 57.9954,-634.8193 54.4955,-644.8194 61.4955,-644.8193"/>
</g>
<!-- 4149 -->
<g id="node21" class="node">
<title>4149</title>
<ellipse fill="#ffffff" stroke="#000000" cx="570.9954" cy="-129.3381" rx="28.9828" ry="28.9828"/>
<text text-anchor="middle" x="570.9954" y="-127.1381" font-family="Times,serif" font-size="9.00" fill="#000000">4149</text>
</g>
<!-- 4149&#45;&gt;696 -->
<g id="edge35" class="edge">
<title>4149&#45;&gt;696</title>
<path fill="none" stroke="#ff0000" stroke-width=".333" d="M557.0516,-103.7527C549.1364,-89.2291 539.1737,-70.9483 530.8256,-55.6304"/>
<polygon fill="#ff0000" stroke="#ff0000" stroke-width=".333" points="533.7278,-53.6416 525.8691,-46.5359 527.5813,-56.9914 533.7278,-53.6416"/>
</g>
<!-- 4123&#45;&gt;right -->
<g id="edge34" class="edge">
<title>4123&#45;&gt;right</title>
<path fill="none" stroke="#ff0000" stroke-width=".2403" d="M196.1723,-683.3189C219.7898,-667.369 254.019,-644.1145 266.9954,-634.6072 269.1266,-633.0458 271.3105,-631.4156 273.4998,-629.759"/>
<polygon fill="#ff0000" stroke="#ff0000" stroke-width=".2403" points="276.0719,-632.1966 281.8693,-623.3287 271.8071,-626.6457 276.0719,-632.1966"/>
</g>
<!-- 4123&#45;&gt;4553 -->
<g id="edge8" class="edge">
<title>4123&#45;&gt;4553</title>
<path fill="none" stroke="#ff0000" stroke-width=".7414" d="M171.9954,-670.2964C171.9954,-633.3181 171.9954,-567.7617 171.9954,-511.6331 171.9954,-511.6331 171.9954,-511.6331 171.9954,-323.6676 171.9954,-249.8106 239.5423,-185.0975 281.1324,-152.2522"/>
<polygon fill="#ff0000" stroke="#ff0000" stroke-width=".7414" points="283.303,-154.9982 289.0767,-146.1148 279.0234,-149.4588 283.303,-154.9982"/>
</g>
<!-- 4123&#45;&gt;2858 -->
<g id="edge5" class="edge">
<title>4123&#45;&gt;2858</title>
<path fill="none" stroke="#ff0000" stroke-width=".1713" d="M187.2704,-674.4129C193.8399,-663.5809 201.6142,-650.7626 208.661,-639.1436"/>
<polygon fill="#ff0000" stroke="#ff0000" stroke-width=".1713" points="211.6828,-640.9105 213.8759,-630.5451 205.6975,-637.2804 211.6828,-640.9105"/>
</g>
<!-- 6002&#45;&gt;left -->
<g id="edge12" class="edge">
<title>6002&#45;&gt;left</title>
<path fill="none" stroke="#00ff00" stroke-width=".2346" stroke-dasharray="1,5" d="M503.1061,-578.6842C498.5142,-567.3273 493.1442,-554.0461 488.4004,-542.3135"/>
<polygon fill="#00ff00" stroke="#00ff00" stroke-width=".2346" points="491.5871,-540.8575 484.5937,-532.8987 485.0975,-543.4815 491.5871,-540.8575"/>
</g>
</g>
</svg>
