<?xml version="1.0" encoding="UTF-8" standalone="no"?>
<!DOCTYPE svg PUBLIC "-//W3C//DTD SVG 1.1//EN"
 "http://www.w3.org/Graphics/SVG/1.1/DTD/svg11.dtd">
<!-- Generated by graphviz version 2.40.1 (20161225.0304)
 -->
<!-- Title: %3 Pages: 1 -->
<svg width="885pt" height="950pt"
 viewBox="0.00 0.00 884.88 950.01" xmlns="http://www.w3.org/2000/svg" xmlns:xlink="http://www.w3.org/1999/xlink">
<g id="graph0" class="graph" transform="scale(1 1) rotate(0) translate(4 946.0113)">
<title>%3</title>
<polygon fill="#ffffff" stroke="transparent" points="-4,4 -4,-946.0113 880.8816,-946.0113 880.8816,4 -4,4"/>
<!-- center_dist -->
<g id="node1" class="node">
<title>center_dist</title>
<polygon fill="#d3d3d3" stroke="#000000" points="768.5,-717.0839 700.5,-717.0839 700.5,-699.0839 768.5,-699.0839 768.5,-717.0839"/>
<text text-anchor="middle" x="734.5" y="-705.8839" font-family="Times,serif" font-size="9.00" fill="#000000">center_dist</text>
</g>
<!-- left -->
<g id="node7" class="node">
<title>left</title>
<ellipse fill="#add8e6" stroke="#000000" cx="684.5" cy="-520.1184" rx="22.7556" ry="22.7556"/>
<text text-anchor="middle" x="684.5" y="-517.9184" font-family="Times,serif" font-size="9.00" fill="#000000">left</text>
</g>
<!-- center_dist&#45;&gt;left -->
<g id="edge31" class="edge">
<title>center_dist&#45;&gt;left</title>
<path fill="none" stroke="#ff0000" stroke-width=".1253" stroke-dasharray="1,5" d="M732.0884,-699.0179C725.1175,-672.812 704.6952,-596.0384 692.9942,-552.0506"/>
<polygon fill="#ff0000" stroke="#ff0000" stroke-width=".1253" points="696.3127,-550.9106 690.3596,-542.1464 689.548,-552.7101 696.3127,-550.9106"/>
</g>
<!-- 6002 -->
<g id="node31" class="node">
<title>6002</title>
<ellipse fill="#ffffff" stroke="#000000" cx="779.5" cy="-614.1011" rx="28.9828" ry="28.9828"/>
<text text-anchor="middle" x="779.5" y="-611.9011" font-family="Times,serif" font-size="9.00" fill="#000000">6002</text>
</g>
<!-- center_dist&#45;&gt;6002 -->
<g id="edge37" class="edge">
<title>center_dist&#45;&gt;6002</title>
<path fill="none" stroke="#00ff00" stroke-width=".3359" d="M738.8148,-699.0724C744.2848,-687.6482 754.0378,-667.279 762.6236,-649.3477"/>
<polygon fill="#00ff00" stroke="#00ff00" stroke-width=".3359" points="765.8162,-650.7842 766.9781,-640.2532 759.5026,-647.7611 765.8162,-650.7842"/>
</g>
<!-- center_dir -->
<g id="node2" class="node">
<title>center_dir</title>
<polygon fill="#d3d3d3" stroke="#000000" points="339,-913.5347 274,-913.5347 274,-895.5347 339,-895.5347 339,-913.5347"/>
<text text-anchor="middle" x="306.5" y="-902.3347" font-family="Times,serif" font-size="9.00" fill="#000000">center_dir</text>
</g>
<!-- backward -->
<g id="node6" class="node">
<title>backward</title>
<ellipse fill="#add8e6" stroke="#000000" cx="306.5" cy="-411.2864" rx="43.6818" ry="43.6818"/>
<text text-anchor="middle" x="306.5" y="-409.0864" font-family="Times,serif" font-size="9.00" fill="#000000">backward</text>
</g>
<!-- center_dir&#45;&gt;backward -->
<g id="edge16" class="edge">
<title>center_dir&#45;&gt;backward</title>
<path fill="none" stroke="#00ff00" stroke-width=".131" stroke-dasharray="1,5" d="M306.5,-895.5274C306.5,-867.6628 306.5,-780.3887 306.5,-708.0839 306.5,-708.0839 306.5,-708.0839 306.5,-614.1011 306.5,-563.6257 306.5,-506.0842 306.5,-465.2174"/>
<polygon fill="#00ff00" stroke="#00ff00" stroke-width=".131" points="310.0001,-465.2012 306.5,-455.2013 303.0001,-465.2013 310.0001,-465.2012"/>
</g>
<!-- 1058 -->
<g id="node15" class="node">
<title>1058</title>
<ellipse fill="#ffffff" stroke="#000000" cx="249.5" cy="-802.0666" rx="28.9828" ry="28.9828"/>
<text text-anchor="middle" x="249.5" y="-799.8666" font-family="Times,serif" font-size="9.00" fill="#000000">1058</text>
</g>
<!-- center_dir&#45;&gt;1058 -->
<g id="edge2" class="edge">
<title>center_dir&#45;&gt;1058</title>
<path fill="none" stroke="#00ff00" stroke-width=".3287" d="M301.4416,-895.4413C294.1316,-882.3001 280.2198,-857.2912 268.6325,-836.4609"/>
<polygon fill="#00ff00" stroke="#00ff00" stroke-width=".3287" points="271.5899,-834.5773 263.67,-827.5398 265.4726,-837.9802 271.5899,-834.5773"/>
</g>
<!-- 325 -->
<g id="node21" class="node">
<title>325</title>
<ellipse fill="#ffffff" stroke="#000000" cx="434.5" cy="-520.1184" rx="25" ry="25"/>
<text text-anchor="middle" x="434.5" y="-517.9184" font-family="Times,serif" font-size="9.00" fill="#000000">325</text>
</g>
<!-- center_dir&#45;&gt;325 -->
<g id="edge34" class="edge">
<title>center_dir&#45;&gt;325</title>
<path fill="none" stroke="#ff0000" stroke-width=".5101" stroke-dasharray="1,5" d="M310.2491,-895.1392C323.6414,-861.3971 369.9952,-743.0404 401.5,-643.0925 410.8618,-613.3926 419.9132,-579.1407 426.161,-554.3404"/>
<polygon fill="#ff0000" stroke="#ff0000" stroke-width=".5101" points="429.6333,-554.8812 428.6597,-544.3312 422.8417,-553.1857 429.6333,-554.8812"/>
</g>
<!-- other_dist -->
<g id="node3" class="node">
<title>other_dist</title>
<polygon fill="#d3d3d3" stroke="#000000" points="63,-811.0666 0,-811.0666 0,-793.0666 63,-793.0666 63,-811.0666"/>
<text text-anchor="middle" x="31.5" y="-799.8666" font-family="Times,serif" font-size="9.00" fill="#000000">other_dist</text>
</g>
<!-- 3218 -->
<g id="node10" class="node">
<title>3218</title>
<ellipse fill="#ffffff" stroke="#000000" cx="173.5" cy="-614.1011" rx="28.9828" ry="28.9828"/>
<text text-anchor="middle" x="173.5" y="-611.9011" font-family="Times,serif" font-size="9.00" fill="#000000">3218</text>
</g>
<!-- other_dist&#45;&gt;3218 -->
<g id="edge3" class="edge">
<title>other_dist&#45;&gt;3218</title>
<path fill="none" stroke="#ff0000" stroke-width=".4292" stroke-dasharray="1,5" d="M27.1714,-792.7804C17.6711,-770.8935 -2.3342,-715.205 21.5,-679.0925 46.3926,-641.3765 98.1666,-625.4695 134.3373,-618.8118"/>
<polygon fill="#ff0000" stroke="#ff0000" stroke-width=".4292" points="135.2686,-622.2045 144.5518,-617.0985 134.1106,-615.301 135.2686,-622.2045"/>
</g>
<!-- 7274 -->
<g id="node29" class="node">
<title>7274</title>
<ellipse fill="#ffffff" stroke="#000000" cx="59.5" cy="-708.0839" rx="28.9828" ry="28.9828"/>
<text text-anchor="middle" x="59.5" y="-705.8839" font-family="Times,serif" font-size="9.00" fill="#000000">7274</text>
</g>
<!-- other_dist&#45;&gt;7274 -->
<g id="edge20" class="edge">
<title>other_dist&#45;&gt;7274</title>
<path fill="none" stroke="#00ff00" stroke-width=".3246" d="M34.1848,-793.0552C37.4115,-782.2247 43.0333,-763.3546 48.1608,-746.1441"/>
<polygon fill="#00ff00" stroke="#00ff00" stroke-width=".3246" points="51.5998,-746.8589 51.1009,-736.2758 44.8912,-744.8602 51.5998,-746.8589"/>
</g>
<!-- other_dir -->
<g id="node4" class="node">
<title>other_dir</title>
<polygon fill="#d3d3d3" stroke="#000000" points="658,-811.0666 599,-811.0666 599,-793.0666 658,-793.0666 658,-811.0666"/>
<text text-anchor="middle" x="628.5" y="-799.8666" font-family="Times,serif" font-size="9.00" fill="#000000">other_dir</text>
</g>
<!-- other_dir&#45;&gt;left -->
<g id="edge6" class="edge">
<title>other_dir&#45;&gt;left</title>
<path fill="none" stroke="#ff0000" stroke-width=".3592" d="M630.9149,-792.8014C637.2132,-768.4199 654.4191,-700.4061 665.5,-643.0925 671.3846,-612.6558 676.642,-577.7015 680.1264,-552.8578"/>
<polygon fill="#ff0000" stroke="#ff0000" stroke-width=".3592" points="683.6044,-553.2575 681.5078,-542.8721 676.6704,-552.2981 683.6044,-553.2575"/>
</g>
<!-- right -->
<g id="node8" class="node">
<title>right</title>
<ellipse fill="#add8e6" stroke="#000000" cx="476.5" cy="-614.1011" rx="28.0702" ry="28.0702"/>
<text text-anchor="middle" x="476.5" y="-611.9011" font-family="Times,serif" font-size="9.00" fill="#000000">right</text>
</g>
<!-- other_dir&#45;&gt;right -->
<g id="edge22" class="edge">
<title>other_dir&#45;&gt;right</title>
<path fill="none" stroke="#00ff00" stroke-width=".4135" stroke-dasharray="1,5" d="M609.4775,-793.0048C588.5138,-782.2052 554.9315,-762.395 533.5,-737.0753 512.0656,-711.7521 496.9519,-677.0224 487.6981,-650.928"/>
<polygon fill="#00ff00" stroke="#00ff00" stroke-width=".4135" points="490.9835,-649.7182 484.4375,-641.3875 484.3596,-651.982 490.9835,-649.7182"/>
</g>
<!-- 3732 -->
<g id="node11" class="node">
<title>3732</title>
<ellipse fill="#ffffff" stroke="#000000" cx="815.5" cy="-708.0839" rx="28.9828" ry="28.9828"/>
<text text-anchor="middle" x="815.5" y="-705.8839" font-family="Times,serif" font-size="9.00" fill="#000000">3732</text>
</g>
<!-- other_dir&#45;&gt;3732 -->
<g id="edge23" class="edge">
<title>other_dir&#45;&gt;3732</title>
<path fill="none" stroke="#ff0000" stroke-width=".2799" stroke-dasharray="1,5" d="M654.1838,-793.0258C684.6197,-781.8294 736.3852,-761.2489 777.5,-737.0753 779.7533,-735.7504 782.0273,-734.3127 784.283,-732.8099"/>
<polygon fill="#ff0000" stroke="#ff0000" stroke-width=".2799" points="786.657,-735.4183 792.8088,-726.7924 782.6205,-729.6994 786.657,-735.4183"/>
</g>
<!-- 4123 -->
<g id="node13" class="node">
<title>4123</title>
<ellipse fill="#ffffff" stroke="#000000" cx="571.5" cy="-708.0839" rx="28.9828" ry="28.9828"/>
<text text-anchor="middle" x="571.5" y="-705.8839" font-family="Times,serif" font-size="9.00" fill="#000000">4123</text>
</g>
<!-- other_dir&#45;&gt;4123 -->
<g id="edge9" class="edge">
<title>other_dir&#45;&gt;4123</title>
<path fill="none" stroke="#ff0000" stroke-width=".5186" d="M623.0346,-793.0552C615.8987,-781.2893 603.0082,-760.0352 591.9051,-741.7282"/>
<polygon fill="#ff0000" stroke="#ff0000" stroke-width=".5186" points="594.8095,-739.7677 586.6311,-733.0324 588.8243,-743.3978 594.8095,-739.7677"/>
</g>
<!-- 1821 -->
<g id="node14" class="node">
<title>1821</title>
<ellipse fill="#ffffff" stroke="#000000" cx="457.5" cy="-708.0839" rx="28.9828" ry="28.9828"/>
<text text-anchor="middle" x="457.5" y="-705.8839" font-family="Times,serif" font-size="9.00" fill="#000000">1821</text>
</g>
<!-- other_dir&#45;&gt;1821 -->
<g id="edge45" class="edge">
<title>other_dir&#45;&gt;1821</title>
<path fill="none" stroke="#00ff00" stroke-width=".3228" stroke-dasharray="1,5" d="M608.5805,-792.8928C583.0561,-780.9259 537.6678,-758.9284 500.5,-737.0753 497.0195,-735.0289 493.4389,-732.8098 489.9001,-730.5414"/>
<polygon fill="#00ff00" stroke="#00ff00" stroke-width=".3228" points="491.5498,-727.4374 481.2704,-724.8712 487.7058,-733.2876 491.5498,-727.4374"/>
</g>
<!-- 696 -->
<g id="node19" class="node">
<title>696</title>
<ellipse fill="#ffffff" stroke="#000000" cx="532.5" cy="-24.7487" rx="25" ry="25"/>
<text text-anchor="middle" x="532.5" y="-22.5487" font-family="Times,serif" font-size="9.00" fill="#000000">696</text>
</g>
<!-- other_dir&#45;&gt;696 -->
<g id="edge40" class="edge">
<title>other_dir&#45;&gt;696</title>
<path fill="none" stroke="#ff0000" stroke-width=".4038" stroke-dasharray="1,5" d="M628.1812,-792.8549C627.2254,-772.0314 623.5086,-719.9645 609.5,-679.0925 603.5655,-661.7779 595.4345,-660.4071 589.5,-643.0925 571.569,-590.7764 570.5,-575.422 570.5,-520.1184 570.5,-520.1184 570.5,-520.1184 570.5,-208.4716 570.5,-154.8814 554.8036,-94.2868 543.5869,-57.8275"/>
<polygon fill="#ff0000" stroke="#ff0000" stroke-width=".4038" points="546.9005,-56.6972 540.5588,-48.21 540.2237,-58.7995 546.9005,-56.6972"/>
</g>
<!-- 6096 -->
<g id="node24" class="node">
<title>6096</title>
<ellipse fill="#ffffff" stroke="#000000" cx="819.5" cy="-208.4716" rx="28.9828" ry="28.9828"/>
<text text-anchor="middle" x="819.5" y="-206.2716" font-family="Times,serif" font-size="9.00" fill="#000000">6096</text>
</g>
<!-- other_dir&#45;&gt;6096 -->
<g id="edge44" class="edge">
<title>other_dir&#45;&gt;6096</title>
<path fill="none" stroke="#00ff00" stroke-width=".2131" d="M658.3922,-797.478C713.4548,-788.401 827.6527,-766.4596 853.5,-737.0753 890.0265,-695.5504 872.5,-669.4048 872.5,-614.1011 872.5,-614.1011 872.5,-614.1011 872.5,-411.2864 872.5,-351.2726 850.5085,-284.4203 834.8573,-244.4413"/>
<polygon fill="#00ff00" stroke="#00ff00" stroke-width=".2131" points="838.0928,-243.1058 831.1311,-235.1192 831.5928,-245.704 838.0928,-243.1058"/>
</g>
<!-- forward -->
<g id="node5" class="node">
<title>forward</title>
<ellipse fill="#add8e6" stroke="#000000" cx="394.5" cy="-904.5347" rx="37.4533" ry="37.4533"/>
<text text-anchor="middle" x="394.5" y="-902.3347" font-family="Times,serif" font-size="9.00" fill="#000000">forward</text>
</g>
<!-- 2788 -->
<g id="node28" class="node">
<title>2788</title>
<ellipse fill="#ffffff" stroke="#000000" cx="665.5" cy="-302.4544" rx="28.9828" ry="28.9828"/>
<text text-anchor="middle" x="665.5" y="-300.2544" font-family="Times,serif" font-size="9.00" fill="#000000">2788</text>
</g>
<!-- left&#45;&gt;2788 -->
<g id="edge12" class="edge">
<title>left&#45;&gt;2788</title>
<path fill="none" stroke="#00ff00" stroke-width="1.1256" d="M682.5026,-497.2359C679.2763,-460.2755 672.8804,-387.0041 668.9187,-341.6189"/>
<polygon fill="#00ff00" stroke="#00ff00" stroke-width="1.1256" points="672.3963,-341.2088 668.0399,-331.5511 665.4228,-341.8176 672.3963,-341.2088"/>
</g>
<!-- right&#45;&gt;325 -->
<g id="edge14" class="edge">
<title>right&#45;&gt;325</title>
<path fill="none" stroke="#00ff00" stroke-width=".7079" stroke-dasharray="1,5" d="M464.9121,-588.1711C459.9422,-577.0499 454.0854,-563.9443 448.8452,-552.2184"/>
<polygon fill="#00ff00" stroke="#00ff00" stroke-width=".7079" points="451.897,-550.4687 444.6214,-542.7669 445.5061,-553.3248 451.897,-550.4687"/>
</g>
<!-- 7170 -->
<g id="node9" class="node">
<title>7170</title>
<ellipse fill="#ffffff" stroke="#000000" cx="437.5" cy="-114.4889" rx="28.9828" ry="28.9828"/>
<text text-anchor="middle" x="437.5" y="-112.2889" font-family="Times,serif" font-size="9.00" fill="#000000">7170</text>
</g>
<!-- 7170&#45;&gt;696 -->
<g id="edge35" class="edge">
<title>7170&#45;&gt;696</title>
<path fill="none" stroke="#ff0000" stroke-width=".2223" d="M458.5836,-94.5726C472.8277,-81.1171 491.7189,-63.2719 506.8375,-48.9904"/>
<polygon fill="#ff0000" stroke="#ff0000" stroke-width=".2223" points="509.489,-51.3003 514.3551,-41.889 504.6821,-46.2117 509.489,-51.3003"/>
</g>
<!-- 2984 -->
<g id="node16" class="node">
<title>2984</title>
<ellipse fill="#ffffff" stroke="#000000" cx="202.5" cy="-520.1184" rx="28.9828" ry="28.9828"/>
<text text-anchor="middle" x="202.5" y="-517.9184" font-family="Times,serif" font-size="9.00" fill="#000000">2984</text>
</g>
<!-- 3218&#45;&gt;2984 -->
<g id="edge52" class="edge">
<title>3218&#45;&gt;2984</title>
<path fill="none" stroke="#00ff00" stroke-width=".3311" d="M182.1224,-586.1577C184.8734,-577.2424 187.9641,-567.2261 190.891,-557.7407"/>
<polygon fill="#00ff00" stroke="#00ff00" stroke-width=".3311" points="194.2565,-558.7039 193.8607,-548.1164 187.5677,-556.6399 194.2565,-558.7039"/>
</g>
<!-- 6168 -->
<g id="node12" class="node">
<title>6168</title>
<ellipse fill="#ffffff" stroke="#000000" cx="437.5" cy="-208.4716" rx="28.9828" ry="28.9828"/>
<text text-anchor="middle" x="437.5" y="-206.2716" font-family="Times,serif" font-size="9.00" fill="#000000">6168</text>
</g>
<!-- 6168&#45;&gt;7170 -->
<g id="edge33" class="edge">
<title>6168&#45;&gt;7170</title>
<path fill="none" stroke="#ff0000" stroke-width=".1713" d="M437.5,-179.2501C437.5,-171.2053 437.5,-162.3456 437.5,-153.8304"/>
<polygon fill="#ff0000" stroke="#ff0000" stroke-width=".1713" points="441.0001,-153.6923 437.5,-143.6923 434.0001,-153.6924 441.0001,-153.6923"/>
</g>
<!-- 6168&#45;&gt;696 -->
<g id="edge27" class="edge">
<title>6168&#45;&gt;696</title>
<path fill="none" stroke="#00ff00" stroke-width=".5019" d="M452.782,-183.4329C459.9177,-171.4691 468.3868,-156.8697 475.5,-143.4802 490.8683,-114.5517 506.8866,-80.8177 518.0145,-56.7163"/>
<polygon fill="#00ff00" stroke="#00ff00" stroke-width=".5019" points="521.3275,-57.8888 522.3211,-47.3407 514.9664,-54.9669 521.3275,-57.8888"/>
</g>
<!-- 7224 -->
<g id="node32" class="node">
<title>7224</title>
<ellipse fill="#ffffff" stroke="#000000" cx="361.5" cy="-114.4889" rx="28.9828" ry="28.9828"/>
<text text-anchor="middle" x="361.5" y="-112.2889" font-family="Times,serif" font-size="9.00" fill="#000000">7224</text>
</g>
<!-- 6168&#45;&gt;7224 -->
<g id="edge51" class="edge">
<title>6168&#45;&gt;7224</title>
<path fill="none" stroke="#00ff00" stroke-width=".3679" d="M419.1025,-185.721C409.2799,-173.5742 397.051,-158.4518 386.3907,-145.2691"/>
<polygon fill="#00ff00" stroke="#00ff00" stroke-width=".3679" points="389.0009,-142.9307 379.9915,-137.3557 383.5579,-147.3322 389.0009,-142.9307"/>
</g>
<!-- 4123&#45;&gt;right -->
<g id="edge54" class="edge">
<title>4123&#45;&gt;right</title>
<path fill="none" stroke="#00ff00" stroke-width=".4183" d="M550.8864,-687.691C537.2241,-674.175 519.1369,-656.2815 504.219,-641.5233"/>
<polygon fill="#00ff00" stroke="#00ff00" stroke-width=".4183" points="506.3176,-638.6761 496.747,-634.1313 501.3945,-643.6524 506.3176,-638.6761"/>
</g>
<!-- 2858 -->
<g id="node17" class="node">
<title>2858</title>
<ellipse fill="#ffffff" stroke="#000000" cx="627.5" cy="-614.1011" rx="28.9828" ry="28.9828"/>
<text text-anchor="middle" x="627.5" y="-611.9011" font-family="Times,serif" font-size="9.00" fill="#000000">2858</text>
</g>
<!-- 4123&#45;&gt;2858 -->
<g id="edge7" class="edge">
<title>4123&#45;&gt;2858</title>
<path fill="none" stroke="#ff0000" stroke-width=".3908" d="M586.507,-682.8982C592.9613,-672.0662 600.5991,-659.2478 607.5223,-647.6289"/>
<polygon fill="#ff0000" stroke="#ff0000" stroke-width=".3908" points="610.5337,-649.4126 612.6458,-639.0304 604.5203,-645.8294 610.5337,-649.4126"/>
</g>
<!-- 4553 -->
<g id="node22" class="node">
<title>4553</title>
<ellipse fill="#ffffff" stroke="#000000" cx="437.5" cy="-411.2864" rx="28.9828" ry="28.9828"/>
<text text-anchor="middle" x="437.5" y="-409.0864" font-family="Times,serif" font-size="9.00" fill="#000000">4553</text>
</g>
<!-- 4123&#45;&gt;4553 -->
<g id="edge11" class="edge">
<title>4123&#45;&gt;4553</title>
<path fill="none" stroke="#00ff00" stroke-width=".3095" d="M559.4905,-681.4839C535.3436,-628.0008 480.9001,-507.4136 453.6602,-447.0798"/>
<polygon fill="#00ff00" stroke="#00ff00" stroke-width=".3095" points="456.8357,-445.6073 449.5308,-437.9334 450.4558,-448.4878 456.8357,-445.6073"/>
</g>
<!-- 1821&#45;&gt;right -->
<g id="edge25" class="edge">
<title>1821&#45;&gt;right</title>
<path fill="none" stroke="#00ff00" stroke-width=".284" stroke-dasharray="1,5" d="M463.2522,-679.6309C464.998,-670.9951 466.945,-661.3645 468.7974,-652.202"/>
<polygon fill="#00ff00" stroke="#00ff00" stroke-width=".284" points="472.2817,-652.6293 470.8327,-642.134 465.4205,-651.2421 472.2817,-652.6293"/>
</g>
<!-- 1058&#45;&gt;right -->
<g id="edge50" class="edge">
<title>1058&#45;&gt;right</title>
<path fill="none" stroke="#00ff00" stroke-width=".398" stroke-dasharray="1,5" d="M272.0955,-783.3566C313.3539,-749.1929 400.862,-676.7326 446.8483,-638.654"/>
<polygon fill="#00ff00" stroke="#00ff00" stroke-width=".398" points="449.1935,-641.2563 454.6635,-632.1827 444.729,-635.8647 449.1935,-641.2563"/>
</g>
<!-- 1058&#45;&gt;3218 -->
<g id="edge18" class="edge">
<title>1058&#45;&gt;3218</title>
<path fill="none" stroke="#00ff00" stroke-width=".8274" stroke-dasharray="1,5" d="M223.8455,-788.2018C206.0696,-777.0139 183.8141,-759.4666 173.5,-737.0753 161.3315,-710.6584 162.114,-677.5327 165.5096,-652.3192"/>
<polygon fill="#00ff00" stroke="#00ff00" stroke-width=".8274" points="168.9764,-652.8019 167.0349,-642.3865 162.0575,-651.7394 168.9764,-652.8019"/>
</g>
<!-- 1058&#45;&gt;4123 -->
<g id="edge38" class="edge">
<title>1058&#45;&gt;4123</title>
<path fill="none" stroke="#00ff00" stroke-width=".4222" d="M277.8195,-795.6194C323.8807,-784.9027 417.708,-762.1108 495.5,-737.0753 508.5469,-732.8764 522.6248,-727.6943 535.0766,-722.878"/>
<polygon fill="#00ff00" stroke="#00ff00" stroke-width=".4222" points="536.6307,-726.0281 544.6633,-719.1196 534.0757,-719.5111 536.6307,-726.0281"/>
</g>
<!-- 1058&#45;&gt;2984 -->
<g id="edge30" class="edge">
<title>1058&#45;&gt;2984</title>
<path fill="none" stroke="#00ff00" stroke-width=".6101" stroke-dasharray="1,5" d="M251.8304,-773.0761C253.2879,-748.0497 254.1176,-710.9981 249.5,-679.0925 243.2879,-636.1698 228.1039,-588.6952 216.6629,-556.9001"/>
<polygon fill="#00ff00" stroke="#00ff00" stroke-width=".6101" points="219.8196,-555.3416 213.0959,-547.1536 213.246,-557.7474 219.8196,-555.3416"/>
</g>
<!-- 2897 -->
<g id="node25" class="node">
<title>2897</title>
<ellipse fill="#ffffff" stroke="#000000" cx="173.5" cy="-302.4544" rx="28.9828" ry="28.9828"/>
<text text-anchor="middle" x="173.5" y="-300.2544" font-family="Times,serif" font-size="9.00" fill="#000000">2897</text>
</g>
<!-- 1058&#45;&gt;2897 -->
<g id="edge29" class="edge">
<title>1058&#45;&gt;2897</title>
<path fill="none" stroke="#00ff00" stroke-width=".956" stroke-dasharray="1,5" d="M223.2484,-788.8735C203.2313,-777.5975 176.3241,-759.6305 159.5,-737.0753 124.8816,-690.6641 116.5,-672.0012 116.5,-614.1011 116.5,-614.1011 116.5,-614.1011 116.5,-520.1184 116.5,-451.7404 113.5724,-432.2124 135.5,-367.4457 139.3253,-356.147 145.2529,-344.6442 151.2975,-334.5189"/>
<polygon fill="#00ff00" stroke="#00ff00" stroke-width=".956" points="154.2774,-336.3547 156.5896,-326.0152 148.3343,-332.656 154.2774,-336.3547"/>
</g>
<!-- 7188 -->
<g id="node33" class="node">
<title>7188</title>
<ellipse fill="#ffffff" stroke="#000000" cx="211.5" cy="-708.0839" rx="28.9828" ry="28.9828"/>
<text text-anchor="middle" x="211.5" y="-705.8839" font-family="Times,serif" font-size="9.00" fill="#000000">7188</text>
</g>
<!-- 1058&#45;&gt;7188 -->
<g id="edge47" class="edge">
<title>1058&#45;&gt;7188</title>
<path fill="none" stroke="#ff0000" stroke-width=".1443" d="M238.6107,-775.1349C234.7549,-765.5986 230.3504,-754.7053 226.2288,-744.5115"/>
<polygon fill="#ff0000" stroke="#ff0000" stroke-width=".1443" points="229.3842,-742.9784 222.3909,-735.0195 222.8946,-745.6024 229.3842,-742.9784"/>
</g>
<!-- 2984&#45;&gt;2897 -->
<g id="edge26" class="edge">
<title>2984&#45;&gt;2897</title>
<path fill="none" stroke="#00ff00" stroke-width=".9272" stroke-dasharray="1,5" d="M209.5042,-491.7058C215.9476,-460.6217 222.9203,-409.6038 211.5,-367.4457 208.381,-355.932 202.6562,-344.3675 196.58,-334.2518"/>
<polygon fill="#00ff00" stroke="#00ff00" stroke-width=".9272" points="199.5159,-332.3459 191.2065,-325.7729 193.6033,-336.0931 199.5159,-332.3459"/>
</g>
<!-- 7257 -->
<g id="node27" class="node">
<title>7257</title>
<ellipse fill="#ffffff" stroke="#000000" cx="173.5" cy="-411.2864" rx="28.9828" ry="28.9828"/>
<text text-anchor="middle" x="173.5" y="-409.0864" font-family="Times,serif" font-size="9.00" fill="#000000">7257</text>
</g>
<!-- 2984&#45;&gt;7257 -->
<g id="edge15" class="edge">
<title>2984&#45;&gt;7257</title>
<path fill="none" stroke="#ff0000" stroke-width=".2997" d="M195.0318,-492.0914C191.5746,-479.1174 187.4138,-463.5026 183.6753,-449.4724"/>
<polygon fill="#ff0000" stroke="#ff0000" stroke-width=".2997" points="187.0006,-448.3582 181.0437,-439.5966 180.2366,-450.1606 187.0006,-448.3582"/>
</g>
<!-- 2858&#45;&gt;left -->
<g id="edge28" class="edge">
<title>2858&#45;&gt;left</title>
<path fill="none" stroke="#00ff00" stroke-width=".1465" d="M642.775,-588.9155C650.3112,-576.4896 659.4326,-561.45 667.2227,-548.6055"/>
<polygon fill="#00ff00" stroke="#00ff00" stroke-width=".1465" points="670.425,-550.0748 672.6181,-539.7094 664.4398,-546.4447 670.425,-550.0748"/>
</g>
<!-- 4149 -->
<g id="node18" class="node">
<title>4149</title>
<ellipse fill="#ffffff" stroke="#000000" cx="378.5" cy="-302.4544" rx="28.9828" ry="28.9828"/>
<text text-anchor="middle" x="378.5" y="-300.2544" font-family="Times,serif" font-size="9.00" fill="#000000">4149</text>
</g>
<!-- 4149&#45;&gt;6168 -->
<g id="edge13" class="edge">
<title>4149&#45;&gt;6168</title>
<path fill="none" stroke="#ff0000" stroke-width=".1544" d="M394.0016,-277.7615C400.8577,-266.8402 409.0271,-253.8269 416.4249,-242.0427"/>
<polygon fill="#ff0000" stroke="#ff0000" stroke-width=".1544" points="419.5445,-243.6562 421.8971,-233.3259 413.6159,-239.9344 419.5445,-243.6562"/>
</g>
<!-- 4149&#45;&gt;696 -->
<g id="edge55" class="edge">
<title>4149&#45;&gt;696</title>
<path fill="none" stroke="#00ff00" stroke-width=".3771" d="M361.0455,-279.0758C331.4888,-236.4084 278.9417,-144.8513 323.5,-85.4975 344.4489,-57.5924 443.9493,-38.3329 497.7583,-29.7683"/>
<polygon fill="#00ff00" stroke="#00ff00" stroke-width=".3771" points="498.529,-33.1906 507.874,-28.1985 497.4556,-26.2734 498.529,-33.1906"/>
</g>
<!-- 6016 -->
<g id="node20" class="node">
<title>6016</title>
<ellipse fill="#ffffff" stroke="#000000" cx="665.5" cy="-208.4716" rx="28.9828" ry="28.9828"/>
<text text-anchor="middle" x="665.5" y="-206.2716" font-family="Times,serif" font-size="9.00" fill="#000000">6016</text>
</g>
<!-- 4846 -->
<g id="node30" class="node">
<title>4846</title>
<ellipse fill="#ffffff" stroke="#000000" cx="627.5" cy="-114.4889" rx="28.9828" ry="28.9828"/>
<text text-anchor="middle" x="627.5" y="-112.2889" font-family="Times,serif" font-size="9.00" fill="#000000">4846</text>
</g>
<!-- 6016&#45;&gt;4846 -->
<g id="edge19" class="edge">
<title>6016&#45;&gt;4846</title>
<path fill="none" stroke="#ff0000" stroke-width=".1067" d="M654.6107,-181.5399C650.7549,-172.0036 646.3504,-161.1103 642.2288,-150.9165"/>
<polygon fill="#ff0000" stroke="#ff0000" stroke-width=".1067" points="645.3842,-149.3834 638.3909,-141.4245 638.8946,-152.0073 645.3842,-149.3834"/>
</g>
<!-- 325&#45;&gt;backward -->
<g id="edge36" class="edge">
<title>325&#45;&gt;backward</title>
<path fill="none" stroke="#ff0000" stroke-width=".5223" stroke-dasharray="1,5" d="M415.6132,-504.0598C397.8841,-488.9857 370.7576,-465.9214 347.988,-446.5615"/>
<polygon fill="#ff0000" stroke="#ff0000" stroke-width=".5223" points="350.024,-443.6985 340.1383,-439.8874 345.4896,-449.0314 350.024,-443.6985"/>
</g>
<!-- 325&#45;&gt;4553 -->
<g id="edge1" class="edge">
<title>325&#45;&gt;4553</title>
<path fill="none" stroke="#ff0000" stroke-width=".439" d="M435.1883,-495.1501C435.5537,-481.893 436.0111,-465.2988 436.4224,-450.3783"/>
<polygon fill="#ff0000" stroke="#ff0000" stroke-width=".439" points="439.9211,-450.4703 436.6981,-440.3776 432.9238,-450.2773 439.9211,-450.4703"/>
</g>
<!-- 4308 -->
<g id="node26" class="node">
<title>4308</title>
<ellipse fill="#ffffff" stroke="#000000" cx="513.5" cy="-411.2864" rx="28.9828" ry="28.9828"/>
<text text-anchor="middle" x="513.5" y="-409.0864" font-family="Times,serif" font-size="9.00" fill="#000000">4308</text>
</g>
<!-- 325&#45;&gt;4308 -->
<g id="edge49" class="edge">
<title>325&#45;&gt;4308</title>
<path fill="none" stroke="#00ff00" stroke-width=".6831" d="M449.1742,-499.903C460.7827,-483.9108 477.2021,-461.2911 490.5463,-442.9079"/>
<polygon fill="#00ff00" stroke="#00ff00" stroke-width=".6831" points="493.3907,-444.9474 496.4327,-434.7987 487.7258,-440.8353 493.3907,-444.9474"/>
</g>
<!-- 4553&#45;&gt;6168 -->
<g id="edge53" class="edge">
<title>4553&#45;&gt;6168</title>
<path fill="none" stroke="#ff0000" stroke-width=".4151" d="M437.5,-382.228C437.5,-346.8356 437.5,-286.91 437.5,-247.5137"/>
<polygon fill="#ff0000" stroke="#ff0000" stroke-width=".4151" points="441.0001,-247.4761 437.5,-237.4761 434.0001,-247.4761 441.0001,-247.4761"/>
</g>
<!-- 4553&#45;&gt;696 -->
<g id="edge10" class="edge">
<title>4553&#45;&gt;696</title>
<path fill="none" stroke="#00ff00" stroke-width=".166" d="M444.6672,-383.1709C457.064,-334.4235 483.2248,-231.0354 504.5,-143.4802 511.4262,-114.9766 519.0538,-82.5612 524.5965,-58.8103"/>
<polygon fill="#00ff00" stroke="#00ff00" stroke-width=".166" points="528.0505,-59.4095 526.9111,-48.8761 521.2331,-57.821 528.0505,-59.4095"/>
</g>
<!-- 4553&#45;&gt;2788 -->
<g id="edge24" class="edge">
<title>4553&#45;&gt;2788</title>
<path fill="none" stroke="#ff0000" stroke-width=".2789" d="M454.4604,-387.1953C460.4402,-380.0545 467.649,-372.7379 475.5,-367.4457 522.4371,-335.8067 586.2653,-318.1576 626.6774,-309.4797"/>
<polygon fill="#ff0000" stroke="#ff0000" stroke-width=".2789" points="627.5874,-312.8657 636.672,-307.4141 626.1706,-306.0106 627.5874,-312.8657"/>
</g>
<!-- 3019 -->
<g id="node23" class="node">
<title>3019</title>
<ellipse fill="#ffffff" stroke="#000000" cx="363.5" cy="-614.1011" rx="28.9828" ry="28.9828"/>
<text text-anchor="middle" x="363.5" y="-611.9011" font-family="Times,serif" font-size="9.00" fill="#000000">3019</text>
</g>
<!-- 3019&#45;&gt;4149 -->
<g id="edge21" class="edge">
<title>3019&#45;&gt;4149</title>
<path fill="none" stroke="#00ff00" stroke-width=".3818" d="M364.8977,-585.062C367.6052,-528.8089 373.5667,-404.9515 376.6188,-341.5397"/>
<polygon fill="#00ff00" stroke="#00ff00" stroke-width=".3818" points="380.1155,-341.69 377.1004,-331.5333 373.1236,-341.3535 380.1155,-341.69"/>
</g>
<!-- 3019&#45;&gt;325 -->
<g id="edge46" class="edge">
<title>3019&#45;&gt;325</title>
<path fill="none" stroke="#ff0000" stroke-width=".2852" d="M381.0506,-590.8694C390.8445,-577.9052 403.1119,-561.6668 413.4233,-548.0177"/>
<polygon fill="#ff0000" stroke="#ff0000" stroke-width=".2852" points="416.3159,-549.995 419.5511,-539.9062 410.7306,-545.7755 416.3159,-549.995"/>
</g>
<!-- 6096&#45;&gt;696 -->
<g id="edge42" class="edge">
<title>6096&#45;&gt;696</title>
<path fill="none" stroke="#ff0000" stroke-width=".6806" d="M808.1185,-181.6694C794.8885,-153.6686 770.4479,-110.4191 736.5,-85.4975 685.3138,-47.9209 610.9328,-33.4191 567.5557,-27.9452"/>
<polygon fill="#ff0000" stroke="#ff0000" stroke-width=".6806" points="567.8278,-24.4533 557.4888,-26.7675 567.0143,-31.4058 567.8278,-24.4533"/>
</g>
<!-- 7257&#45;&gt;2897 -->
<g id="edge43" class="edge">
<title>7257&#45;&gt;2897</title>
<path fill="none" stroke="#00ff00" stroke-width=".6393" d="M173.5,-382.1214C173.5,-369.8002 173.5,-355.2597 173.5,-341.9963"/>
<polygon fill="#00ff00" stroke="#00ff00" stroke-width=".6393" points="177.0001,-341.6998 173.5,-331.6998 170.0001,-341.6999 177.0001,-341.6998"/>
</g>
<!-- 2788&#45;&gt;696 -->
<g id="edge41" class="edge">
<title>2788&#45;&gt;696</title>
<path fill="none" stroke="#ff0000" stroke-width=".3103" stroke-dasharray="1,5" d="M683.2065,-279.1359C691.0787,-267.3208 699.4674,-252.3495 703.5,-237.463 721.7034,-170.2651 713.6281,-135.8026 665.5,-85.4975 638.6569,-57.4401 596.4075,-41.2233 566.7466,-32.7145"/>
<polygon fill="#ff0000" stroke="#ff0000" stroke-width=".3103" points="567.394,-29.2635 556.8261,-30.0194 565.5588,-36.0187 567.394,-29.2635"/>
</g>
<!-- 2788&#45;&gt;6016 -->
<g id="edge56" class="edge">
<title>2788&#45;&gt;6016</title>
<path fill="none" stroke="#ff0000" stroke-width=".1024" d="M665.5,-273.2328C665.5,-265.188 665.5,-256.3284 665.5,-247.8131"/>
<polygon fill="#ff0000" stroke="#ff0000" stroke-width=".1024" points="669.0001,-247.6751 665.5,-237.6751 662.0001,-247.6751 669.0001,-247.6751"/>
</g>
<!-- 2788&#45;&gt;4846 -->
<g id="edge4" class="edge">
<title>2788&#45;&gt;4846</title>
<path fill="none" stroke="#ff0000" stroke-width=".7158" d="M647.7935,-279.1359C639.9213,-267.3208 631.5326,-252.3495 627.5,-237.463 620.0756,-210.0557 620.3656,-177.934 622.3582,-153.3941"/>
<polygon fill="#ff0000" stroke="#ff0000" stroke-width=".7158" points="625.8485,-153.6605 623.2989,-143.377 618.8792,-153.0059 625.8485,-153.6605"/>
</g>
<!-- 7274&#45;&gt;3218 -->
<g id="edge5" class="edge">
<title>7274&#45;&gt;3218</title>
<path fill="none" stroke="#ff0000" stroke-width=".1492" d="M82.0227,-689.5159C99.5103,-675.099 123.933,-654.9647 143.1448,-639.1262"/>
<polygon fill="#ff0000" stroke="#ff0000" stroke-width=".1492" points="145.5345,-641.6923 151.0241,-632.6305 141.0817,-636.2911 145.5345,-641.6923"/>
</g>
<!-- 4846&#45;&gt;696 -->
<g id="edge32" class="edge">
<title>4846&#45;&gt;696</title>
<path fill="none" stroke="#ff0000" stroke-width=".1053" stroke-dasharray="1,5" d="M606.4164,-94.5726C592.1723,-81.1171 573.2811,-63.2719 558.1625,-48.9904"/>
<polygon fill="#ff0000" stroke="#ff0000" stroke-width=".1053" points="560.3179,-46.2117 550.6449,-41.889 555.511,-51.3003 560.3179,-46.2117"/>
</g>
<!-- 6002&#45;&gt;left -->
<g id="edge17" class="edge">
<title>6002&#45;&gt;left</title>
<path fill="none" stroke="#ff0000" stroke-width=".1996" stroke-dasharray="1,5" d="M758.8864,-593.7083C743.8794,-578.862 723.5338,-558.7342 707.9136,-543.2813"/>
<polygon fill="#ff0000" stroke="#ff0000" stroke-width=".1996" points="710.2398,-540.6593 700.6693,-536.1145 705.3168,-545.6356 710.2398,-540.6593"/>
</g>
<!-- 6002&#45;&gt;4308 -->
<g id="edge39" class="edge">
<title>6002&#45;&gt;4308</title>
<path fill="none" stroke="#ff0000" stroke-width=".5" d="M771.5669,-586.062C762.4436,-558.4894 744.9457,-516.8945 716.5,-491.127 669.239,-448.3156 596.3251,-427.2808 551.9513,-417.8971"/>
<polygon fill="#ff0000" stroke="#ff0000" stroke-width=".5" points="552.6222,-414.462 542.127,-415.9116 551.2354,-421.3233 552.6222,-414.462"/>
</g>
<!-- 7224&#45;&gt;696 -->
<g id="edge8" class="edge">
<title>7224&#45;&gt;696</title>
<path fill="none" stroke="#ff0000" stroke-width=".1479" d="M384.2318,-95.8486C389.1282,-92.207 394.3759,-88.5697 399.5,-85.4975 432.0758,-65.9665 472.0062,-48.5139 499.5659,-37.3821"/>
<polygon fill="#ff0000" stroke="#ff0000" stroke-width=".1479" points="501.1285,-40.5271 509.1232,-33.5747 498.5379,-34.0242 501.1285,-40.5271"/>
</g>
<!-- 7188&#45;&gt;3218 -->
<g id="edge48" class="edge">
<title>7188&#45;&gt;3218</title>
<path fill="none" stroke="#ff0000" stroke-width=".2031" d="M200.6107,-681.1522C196.7549,-671.6158 192.3504,-660.7226 188.2288,-650.5288"/>
<polygon fill="#ff0000" stroke="#ff0000" stroke-width=".2031" points="191.3842,-648.9956 184.3909,-641.0367 184.8946,-651.6196 191.3842,-648.9956"/>
</g>
</g>
</svg>
