<?xml version="1.0" encoding="UTF-8" standalone="no"?>
<!DOCTYPE svg PUBLIC "-//W3C//DTD SVG 1.1//EN"
 "http://www.w3.org/Graphics/SVG/1.1/DTD/svg11.dtd">
<!-- Generated by graphviz version 2.40.1 (20161225.0304)
 -->
<!-- Title: %3 Pages: 1 -->
<svg width="335pt" height="150pt"
 viewBox="0.00 0.00 334.98 149.68" xmlns="http://www.w3.org/2000/svg" xmlns:xlink="http://www.w3.org/1999/xlink">
<g id="graph0" class="graph" transform="scale(1 1) rotate(0) translate(4 145.6812)">
<title>%3</title>
<polygon fill="#ffffff" stroke="transparent" points="-4,4 -4,-145.6812 330.9767,-145.6812 330.9767,4 -4,4"/>
<!-- center_dist -->
<g id="node1" class="node">
<title>center_dist</title>
<polygon fill="#d3d3d3" stroke="#000000" points="85.4767,-141.6812 17.4767,-141.6812 17.4767,-123.6812 85.4767,-123.6812 85.4767,-141.6812"/>
<text text-anchor="middle" x="51.4767" y="-130.4812" font-family="Times,serif" font-size="9.00" fill="#000000">center_dist</text>
</g>
<!-- center_dir -->
<g id="node2" class="node">
<title>center_dir</title>
<polygon fill="#d3d3d3" stroke="#000000" points="168.9767,-141.6812 103.9767,-141.6812 103.9767,-123.6812 168.9767,-123.6812 168.9767,-141.6812"/>
<text text-anchor="middle" x="136.4767" y="-130.4812" font-family="Times,serif" font-size="9.00" fill="#000000">center_dir</text>
</g>
<!-- forward -->
<g id="node5" class="node">
<title>forward</title>
<ellipse fill="#add8e6" stroke="#000000" cx="37.4767" cy="-43.8406" rx="37.4533" ry="37.4533"/>
<text text-anchor="middle" x="37.4767" y="-41.6406" font-family="Times,serif" font-size="9.00" fill="#000000">forward</text>
</g>
<!-- center_dir&#45;&gt;forward -->
<g id="edge2" class="edge">
<title>center_dir&#45;&gt;forward</title>
<path fill="none" stroke="#ff0000" stroke-width=".1704" d="M125.3556,-123.5546C114.5204,-114.589 97.6545,-100.4372 83.4767,-87.6812 79.6784,-84.2639 75.749,-80.6482 71.8601,-77.0178"/>
<polygon fill="#ff0000" stroke="#ff0000" stroke-width=".1704" points="74.1568,-74.373 64.4767,-70.0664 69.3584,-79.4696 74.1568,-74.373"/>
</g>
<!-- backward -->
<g id="node6" class="node">
<title>backward</title>
<ellipse fill="#add8e6" stroke="#000000" cx="136.4767" cy="-43.8406" rx="43.6818" ry="43.6818"/>
<text text-anchor="middle" x="136.4767" y="-41.6406" font-family="Times,serif" font-size="9.00" fill="#000000">backward</text>
</g>
<!-- center_dir&#45;&gt;backward -->
<g id="edge1" class="edge">
<title>center_dir&#45;&gt;backward</title>
<path fill="none" stroke="#ff0000" stroke-width=".2374" d="M136.4767,-123.5083C136.4767,-117.0579 136.4767,-107.8398 136.4767,-97.948"/>
<polygon fill="#ff0000" stroke="#ff0000" stroke-width=".2374" points="139.9768,-97.9091 136.4767,-87.9092 132.9768,-97.9092 139.9768,-97.9091"/>
</g>
<!-- right -->
<g id="node8" class="node">
<title>right</title>
<ellipse fill="#add8e6" stroke="#000000" cx="226.4767" cy="-43.8406" rx="28.0702" ry="28.0702"/>
<text text-anchor="middle" x="226.4767" y="-41.6406" font-family="Times,serif" font-size="9.00" fill="#000000">right</text>
</g>
<!-- center_dir&#45;&gt;right -->
<g id="edge3" class="edge">
<title>center_dir&#45;&gt;right</title>
<path fill="none" stroke="#00ff00" stroke-width=".2682" d="M148.334,-123.5504C159.4089,-114.8092 176.1814,-101.0159 189.4767,-87.6812 193.7113,-83.4341 198.001,-78.7592 202.0856,-74.0928"/>
<polygon fill="#00ff00" stroke="#00ff00" stroke-width=".2682" points="204.887,-76.2019 208.72,-66.3247 199.5641,-71.6558 204.887,-76.2019"/>
</g>
<!-- other_dist -->
<g id="node3" class="node">
<title>other_dist</title>
<polygon fill="#d3d3d3" stroke="#000000" points="249.9767,-141.6812 186.9767,-141.6812 186.9767,-123.6812 249.9767,-123.6812 249.9767,-141.6812"/>
<text text-anchor="middle" x="218.4767" y="-130.4812" font-family="Times,serif" font-size="9.00" fill="#000000">other_dist</text>
</g>
<!-- left -->
<g id="node7" class="node">
<title>left</title>
<ellipse fill="#add8e6" stroke="#000000" cx="296.4767" cy="-43.8406" rx="22.7556" ry="22.7556"/>
<text text-anchor="middle" x="296.4767" y="-41.6406" font-family="Times,serif" font-size="9.00" fill="#000000">left</text>
</g>
<!-- other_dist&#45;&gt;left -->
<g id="edge5" class="edge">
<title>other_dist&#45;&gt;left</title>
<path fill="none" stroke="#00ff00" stroke-width=".3077" d="M228.5369,-123.4022C237.935,-114.5563 252.1724,-100.6922 263.4767,-87.6812 268.0944,-82.3664 272.7962,-76.4663 277.1488,-70.762"/>
<polygon fill="#00ff00" stroke="#00ff00" stroke-width=".3077" points="280.04,-72.7401 283.2254,-62.6354 274.4339,-68.5481 280.04,-72.7401"/>
</g>
<!-- other_dir -->
<g id="node4" class="node">
<title>other_dir</title>
<polygon fill="#d3d3d3" stroke="#000000" points="326.9767,-141.6812 267.9767,-141.6812 267.9767,-123.6812 326.9767,-123.6812 326.9767,-141.6812"/>
<text text-anchor="middle" x="297.4767" y="-130.4812" font-family="Times,serif" font-size="9.00" fill="#000000">other_dir</text>
</g>
<!-- other_dir&#45;&gt;left -->
<g id="edge4" class="edge">
<title>other_dir&#45;&gt;left</title>
<path fill="none" stroke="#00ff00" stroke-width=".3838" d="M297.3734,-123.5083C297.2494,-112.4943 297.0346,-93.4114 296.8463,-76.6833"/>
<polygon fill="#00ff00" stroke="#00ff00" stroke-width=".3838" points="300.346,-76.6251 296.7336,-66.6652 293.3464,-76.704 300.346,-76.6251"/>
</g>
</g>
</svg>
