<?xml version="1.0" encoding="UTF-8" standalone="no"?>
<!DOCTYPE svg PUBLIC "-//W3C//DTD SVG 1.1//EN"
 "http://www.w3.org/Graphics/SVG/1.1/DTD/svg11.dtd">
<!-- Generated by graphviz version 2.40.1 (20161225.0304)
 -->
<!-- Title: %3 Pages: 1 -->
<svg width="338pt" height="150pt"
 viewBox="0.00 0.00 338.32 149.68" xmlns="http://www.w3.org/2000/svg" xmlns:xlink="http://www.w3.org/1999/xlink">
<g id="graph0" class="graph" transform="scale(1 1) rotate(0) translate(4 145.6812)">
<title>%3</title>
<polygon fill="#ffffff" stroke="transparent" points="-4,4 -4,-145.6812 334.3173,-145.6812 334.3173,4 -4,4"/>
<!-- center_dist -->
<g id="node1" class="node">
<title>center_dist</title>
<polygon fill="#d3d3d3" stroke="#000000" points="165.8406,-141.6812 97.8406,-141.6812 97.8406,-123.6812 165.8406,-123.6812 165.8406,-141.6812"/>
<text text-anchor="middle" x="131.8406" y="-130.4812" font-family="Times,serif" font-size="9.00" fill="#000000">center_dist</text>
</g>
<!-- right -->
<g id="node8" class="node">
<title>right</title>
<ellipse fill="#add8e6" stroke="#000000" cx="133.8406" cy="-43.8406" rx="28.0702" ry="28.0702"/>
<text text-anchor="middle" x="133.8406" y="-41.6406" font-family="Times,serif" font-size="9.00" fill="#000000">right</text>
</g>
<!-- center_dist&#45;&gt;right -->
<g id="edge3" class="edge">
<title>center_dist&#45;&gt;right</title>
<path fill="none" stroke="#00ff00" stroke-width=".2581" d="M132.0471,-123.5083C132.2661,-113.7827 132.6266,-97.7656 132.9673,-82.6339"/>
<polygon fill="#00ff00" stroke="#00ff00" stroke-width=".2581" points="136.4719,-82.464 133.198,-72.3877 129.4737,-82.3064 136.4719,-82.464"/>
</g>
<!-- center_dir -->
<g id="node2" class="node">
<title>center_dir</title>
<polygon fill="#d3d3d3" stroke="#000000" points="78.3406,-141.6812 13.3406,-141.6812 13.3406,-123.6812 78.3406,-123.6812 78.3406,-141.6812"/>
<text text-anchor="middle" x="45.8406" y="-130.4812" font-family="Times,serif" font-size="9.00" fill="#000000">center_dir</text>
</g>
<!-- backward -->
<g id="node6" class="node">
<title>backward</title>
<ellipse fill="#add8e6" stroke="#000000" cx="43.8406" cy="-43.8406" rx="43.6818" ry="43.6818"/>
<text text-anchor="middle" x="43.8406" y="-41.6406" font-family="Times,serif" font-size="9.00" fill="#000000">backward</text>
</g>
<!-- center_dir&#45;&gt;backward -->
<g id="edge1" class="edge">
<title>center_dir&#45;&gt;backward</title>
<path fill="none" stroke="#ff0000" stroke-width=".2163" d="M45.6341,-123.5083C45.4889,-117.0579 45.2814,-107.8398 45.0587,-97.948"/>
<polygon fill="#ff0000" stroke="#ff0000" stroke-width=".2163" points="48.557,-97.8278 44.8327,-87.9092 41.5588,-97.9854 48.557,-97.8278"/>
</g>
<!-- center_dir&#45;&gt;right -->
<g id="edge5" class="edge">
<title>center_dir&#45;&gt;right</title>
<path fill="none" stroke="#00ff00" stroke-width=".2682" d="M57.2103,-123.4741C67.8389,-114.6788 83.9593,-100.8491 96.8406,-87.6812 101.0346,-83.3939 105.3028,-78.6978 109.3783,-74.0224"/>
<polygon fill="#00ff00" stroke="#00ff00" stroke-width=".2682" points="112.1815,-76.1293 116.0078,-66.2495 106.8555,-71.5867 112.1815,-76.1293"/>
</g>
<!-- other_dist -->
<g id="node3" class="node">
<title>other_dist</title>
<polygon fill="#d3d3d3" stroke="#000000" points="324.3406,-141.6812 261.3406,-141.6812 261.3406,-123.6812 324.3406,-123.6812 324.3406,-141.6812"/>
<text text-anchor="middle" x="292.8406" y="-130.4812" font-family="Times,serif" font-size="9.00" fill="#000000">other_dist</text>
</g>
<!-- forward -->
<g id="node5" class="node">
<title>forward</title>
<ellipse fill="#add8e6" stroke="#000000" cx="292.8406" cy="-43.8406" rx="37.4533" ry="37.4533"/>
<text text-anchor="middle" x="292.8406" y="-41.6406" font-family="Times,serif" font-size="9.00" fill="#000000">forward</text>
</g>
<!-- other_dist&#45;&gt;forward -->
<g id="edge7" class="edge">
<title>other_dist&#45;&gt;forward</title>
<path fill="none" stroke="#00ff00" stroke-width=".1762" d="M292.8406,-123.5083C292.8406,-115.75 292.8406,-103.9881 292.8406,-91.8657"/>
<polygon fill="#00ff00" stroke="#00ff00" stroke-width=".1762" points="296.3407,-91.678 292.8406,-81.6781 289.3407,-91.6781 296.3407,-91.678"/>
</g>
<!-- left -->
<g id="node7" class="node">
<title>left</title>
<ellipse fill="#add8e6" stroke="#000000" cx="213.8406" cy="-43.8406" rx="22.7556" ry="22.7556"/>
<text text-anchor="middle" x="213.8406" y="-41.6406" font-family="Times,serif" font-size="9.00" fill="#000000">left</text>
</g>
<!-- other_dist&#45;&gt;left -->
<g id="edge6" class="edge">
<title>other_dist&#45;&gt;left</title>
<path fill="none" stroke="#00ff00" stroke-width=".5695" d="M282.5326,-123.4399C272.9086,-114.6206 258.3432,-100.7746 246.8406,-87.6812 242.1938,-82.3918 237.4796,-76.5025 233.1242,-70.8006"/>
<polygon fill="#00ff00" stroke="#00ff00" stroke-width=".5695" points="235.8396,-68.5873 227.0495,-62.6724 230.2325,-72.7778 235.8396,-68.5873"/>
</g>
<!-- other_dir -->
<g id="node4" class="node">
<title>other_dir</title>
<polygon fill="#d3d3d3" stroke="#000000" points="243.3406,-141.6812 184.3406,-141.6812 184.3406,-123.6812 243.3406,-123.6812 243.3406,-141.6812"/>
<text text-anchor="middle" x="213.8406" y="-130.4812" font-family="Times,serif" font-size="9.00" fill="#000000">other_dir</text>
</g>
<!-- other_dir&#45;&gt;left -->
<g id="edge2" class="edge">
<title>other_dir&#45;&gt;left</title>
<path fill="none" stroke="#00ff00" stroke-width=".2565" d="M213.8406,-123.5083C213.8406,-112.4943 213.8406,-93.4114 213.8406,-76.6833"/>
<polygon fill="#00ff00" stroke="#00ff00" stroke-width=".2565" points="217.3407,-76.6652 213.8406,-66.6652 210.3407,-76.6652 217.3407,-76.6652"/>
</g>
<!-- other_dir&#45;&gt;right -->
<g id="edge4" class="edge">
<title>other_dir&#45;&gt;right</title>
<path fill="none" stroke="#ff0000" stroke-width=".2334" d="M205.5805,-123.5083C194.9177,-111.6672 175.8567,-90.4998 160.0614,-72.959"/>
<polygon fill="#ff0000" stroke="#ff0000" stroke-width=".2334" points="162.3684,-70.2905 153.0758,-65.2014 157.1665,-74.9747 162.3684,-70.2905"/>
</g>
</g>
</svg>
