<?xml version="1.0" encoding="UTF-8" standalone="no"?>
<!DOCTYPE svg PUBLIC "-//W3C//DTD SVG 1.1//EN"
 "http://www.w3.org/Graphics/SVG/1.1/DTD/svg11.dtd">
<!-- Generated by graphviz version 2.40.1 (20161225.0304)
 -->
<!-- Title: %3 Pages: 1 -->
<svg width="392pt" height="188pt"
 viewBox="0.00 0.00 392.28 188.25" xmlns="http://www.w3.org/2000/svg" xmlns:xlink="http://www.w3.org/1999/xlink">
<g id="graph0" class="graph" transform="scale(1 1) rotate(0) translate(4 184.2498)">
<title>%3</title>
<polygon fill="#ffffff" stroke="transparent" points="-4,4 -4,-184.2498 388.2843,-184.2498 388.2843,4 -4,4"/>
<!-- center_dist -->
<g id="node1" class="node">
<title>center_dist</title>
<polygon fill="#d3d3d3" stroke="#000000" points="68,-160.9655 0,-160.9655 0,-142.9655 68,-142.9655 68,-160.9655"/>
<text text-anchor="middle" x="34" y="-149.7655" font-family="Times,serif" font-size="9.00" fill="#000000">center_dist</text>
</g>
<!-- forward -->
<g id="node5" class="node">
<title>forward</title>
<ellipse fill="#add8e6" stroke="#000000" cx="94" cy="-43.8406" rx="37.4533" ry="37.4533"/>
<text text-anchor="middle" x="94" y="-41.6406" font-family="Times,serif" font-size="9.00" fill="#000000">forward</text>
</g>
<!-- center_dist&#45;&gt;forward -->
<g id="edge2" class="edge">
<title>center_dist&#45;&gt;forward</title>
<path fill="none" stroke="#ff0000" stroke-width=".3173" d="M39.1156,-142.7468C46.1083,-130.1454 59.1084,-106.7181 70.7015,-85.8265"/>
<polygon fill="#ff0000" stroke="#ff0000" stroke-width=".3173" points="73.7703,-87.5094 75.5621,-77.0671 67.6496,-84.1128 73.7703,-87.5094"/>
</g>
<!-- center_dir -->
<g id="node2" class="node">
<title>center_dir</title>
<polygon fill="#d3d3d3" stroke="#000000" points="309.5,-160.9655 244.5,-160.9655 244.5,-142.9655 309.5,-142.9655 309.5,-160.9655"/>
<text text-anchor="middle" x="277" y="-149.7655" font-family="Times,serif" font-size="9.00" fill="#000000">center_dir</text>
</g>
<!-- backward -->
<g id="node6" class="node">
<title>backward</title>
<ellipse fill="#add8e6" stroke="#000000" cx="193" cy="-43.8406" rx="43.6818" ry="43.6818"/>
<text text-anchor="middle" x="193" y="-41.6406" font-family="Times,serif" font-size="9.00" fill="#000000">backward</text>
</g>
<!-- center_dir&#45;&gt;backward -->
<g id="edge1" class="edge">
<title>center_dir&#45;&gt;backward</title>
<path fill="none" stroke="#ff0000" stroke-width=".5137" d="M269.8382,-142.7468C260.1712,-130.3034 242.3033,-107.3039 226.2294,-86.6135"/>
<polygon fill="#ff0000" stroke="#ff0000" stroke-width=".5137" points="228.8454,-84.2758 219.9464,-78.5261 223.3175,-88.5703 228.8454,-84.2758"/>
</g>
<!-- left -->
<g id="node7" class="node">
<title>left</title>
<ellipse fill="#add8e6" stroke="#000000" cx="277" cy="-43.8406" rx="22.7556" ry="22.7556"/>
<text text-anchor="middle" x="277" y="-41.6406" font-family="Times,serif" font-size="9.00" fill="#000000">left</text>
</g>
<!-- center_dir&#45;&gt;left -->
<g id="edge4" class="edge">
<title>center_dir&#45;&gt;left</title>
<path fill="none" stroke="#00ff00" stroke-width=".8663" stroke-dasharray="1,5" d="M277,-142.7468C277,-128.2862 277,-99.5694 277,-76.7878"/>
<polygon fill="#00ff00" stroke="#00ff00" stroke-width=".8663" points="280.5001,-76.4906 277,-66.4907 273.5001,-76.4907 280.5001,-76.4906"/>
</g>
<!-- other_dist -->
<g id="node3" class="node">
<title>other_dist</title>
<polygon fill="#d3d3d3" stroke="#000000" points="149.5,-160.9655 86.5,-160.9655 86.5,-142.9655 149.5,-142.9655 149.5,-160.9655"/>
<text text-anchor="middle" x="118" y="-149.7655" font-family="Times,serif" font-size="9.00" fill="#000000">other_dist</text>
</g>
<!-- other_dist&#45;&gt;forward -->
<g id="edge5" class="edge">
<title>other_dist&#45;&gt;forward</title>
<path fill="none" stroke="#00ff00" stroke-width=".1491" d="M115.9538,-142.7468C113.3549,-131.0383 108.6815,-109.9838 104.3126,-90.301"/>
<polygon fill="#00ff00" stroke="#00ff00" stroke-width=".1491" points="107.7196,-89.4979 102.1358,-80.4939 100.8859,-91.0148 107.7196,-89.4979"/>
</g>
<!-- other_dist&#45;&gt;backward -->
<g id="edge6" class="edge">
<title>other_dist&#45;&gt;backward</title>
<path fill="none" stroke="#00ff00" stroke-width=".5477" d="M124.3945,-142.7468C132.8007,-130.6278 148.1524,-108.4958 162.2055,-88.236"/>
<polygon fill="#00ff00" stroke="#00ff00" stroke-width=".5477" points="165.0949,-90.2113 167.9186,-79.9997 159.3431,-86.2216 165.0949,-90.2113"/>
</g>
<!-- other_dir -->
<g id="node4" class="node">
<title>other_dir</title>
<polygon fill="#d3d3d3" stroke="#000000" points="226.5,-160.9655 167.5,-160.9655 167.5,-142.9655 226.5,-142.9655 226.5,-160.9655"/>
<text text-anchor="middle" x="197" y="-149.7655" font-family="Times,serif" font-size="9.00" fill="#000000">other_dir</text>
</g>
<!-- other_dir&#45;&gt;forward -->
<g id="edge7" class="edge">
<title>other_dir&#45;&gt;forward</title>
<path fill="none" stroke="#00ff00" stroke-width=".3315" d="M188.2183,-142.7468C174.8436,-128.7067 148.6669,-101.2276 127.2927,-78.7898"/>
<polygon fill="#00ff00" stroke="#00ff00" stroke-width=".3315" points="129.6852,-76.227 120.2536,-71.4005 124.6168,-81.0552 129.6852,-76.227"/>
</g>
<!-- other_dir&#45;&gt;left -->
<g id="edge3" class="edge">
<title>other_dir&#45;&gt;left</title>
<path fill="none" stroke="#00ff00" stroke-width=".3125" d="M204.0821,-142.8881C213.7035,-130.5077 231.3818,-107.5886 246,-87.6812 249.9104,-82.3559 254.0317,-76.619 257.9474,-71.1065"/>
<polygon fill="#00ff00" stroke="#00ff00" stroke-width=".3125" points="260.9605,-72.9073 263.8715,-62.7202 255.2431,-68.8685 260.9605,-72.9073"/>
</g>
<!-- right -->
<g id="node8" class="node">
<title>right</title>
<ellipse fill="#add8e6" stroke="#000000" cx="356" cy="-151.9655" rx="28.0702" ry="28.0702"/>
<text text-anchor="middle" x="356" y="-149.7655" font-family="Times,serif" font-size="9.00" fill="#000000">right</text>
</g>
</g>
</svg>
