<?xml version="1.0" encoding="UTF-8" standalone="no"?>
<!DOCTYPE svg PUBLIC "-//W3C//DTD SVG 1.1//EN"
 "http://www.w3.org/Graphics/SVG/1.1/DTD/svg11.dtd">
<!-- Generated by graphviz version 2.40.1 (20161225.0304)
 -->
<!-- Title: %3 Pages: 1 -->
<svg width="383pt" height="424pt"
 viewBox="0.00 0.00 383.34 423.53" xmlns="http://www.w3.org/2000/svg" xmlns:xlink="http://www.w3.org/1999/xlink">
<g id="graph0" class="graph" transform="scale(1 1) rotate(0) translate(4 419.529)">
<title>%3</title>
<polygon fill="#ffffff" stroke="transparent" points="-4,4 -4,-419.529 379.3406,-419.529 379.3406,4 -4,4"/>
<!-- center_dist -->
<g id="node1" class="node">
<title>center_dist</title>
<polygon fill="#d3d3d3" stroke="#000000" points="87.8406,-203.3295 19.8406,-203.3295 19.8406,-185.3295 87.8406,-185.3295 87.8406,-203.3295"/>
<text text-anchor="middle" x="53.8406" y="-192.1295" font-family="Times,serif" font-size="9.00" fill="#000000">center_dist</text>
</g>
<!-- left -->
<g id="node7" class="node">
<title>left</title>
<ellipse fill="#add8e6" stroke="#000000" cx="150.8406" cy="-115.196" rx="22.7556" ry="22.7556"/>
<text text-anchor="middle" x="150.8406" y="-112.996" font-family="Times,serif" font-size="9.00" fill="#000000">left</text>
</g>
<!-- center_dist&#45;&gt;left -->
<g id="edge5" class="edge">
<title>center_dist&#45;&gt;left</title>
<path fill="none" stroke="#00ff00" stroke-width=".3792" d="M64.9678,-185.2519C79.5981,-173.3162 105.7411,-151.9886 125.3511,-135.9906"/>
<polygon fill="#00ff00" stroke="#00ff00" stroke-width=".3792" points="127.7666,-138.5369 133.3027,-129.5035 123.3417,-133.1129 127.7666,-138.5369"/>
</g>
<!-- center_dir -->
<g id="node2" class="node">
<title>center_dir</title>
<polygon fill="#d3d3d3" stroke="#000000" points="148.3406,-404.0229 83.3406,-404.0229 83.3406,-386.0229 148.3406,-386.0229 148.3406,-404.0229"/>
<text text-anchor="middle" x="115.8406" y="-392.8229" font-family="Times,serif" font-size="9.00" fill="#000000">center_dir</text>
</g>
<!-- forward -->
<g id="node5" class="node">
<title>forward</title>
<ellipse fill="#add8e6" stroke="#000000" cx="180.8406" cy="-294.6762" rx="37.4533" ry="37.4533"/>
<text text-anchor="middle" x="180.8406" y="-292.4762" font-family="Times,serif" font-size="9.00" fill="#000000">forward</text>
</g>
<!-- center_dir&#45;&gt;forward -->
<g id="edge4" class="edge">
<title>center_dir&#45;&gt;forward</title>
<path fill="none" stroke="#00ff00" stroke-width=".116" d="M121.8392,-385.7624C129.3613,-374.1497 142.7441,-353.4894 154.8645,-334.7781"/>
<polygon fill="#00ff00" stroke="#00ff00" stroke-width=".116" points="157.8197,-336.6535 160.3188,-326.3576 151.9446,-332.8479 157.8197,-336.6535"/>
</g>
<!-- backward -->
<g id="node6" class="node">
<title>backward</title>
<ellipse fill="#add8e6" stroke="#000000" cx="43.8406" cy="-294.6762" rx="43.6818" ry="43.6818"/>
<text text-anchor="middle" x="43.8406" y="-292.4762" font-family="Times,serif" font-size="9.00" fill="#000000">backward</text>
</g>
<!-- center_dir&#45;&gt;backward -->
<g id="edge2" class="edge">
<title>center_dir&#45;&gt;backward</title>
<path fill="none" stroke="#00ff00" stroke-width=".1984" d="M109.1961,-385.7624C101.4774,-375.0048 88.1878,-356.4831 75.5997,-338.939"/>
<polygon fill="#00ff00" stroke="#00ff00" stroke-width=".1984" points="78.1775,-336.5278 69.504,-330.4433 72.49,-340.6087 78.1775,-336.5278"/>
</g>
<!-- center_dir&#45;&gt;left -->
<g id="edge3" class="edge">
<title>center_dir&#45;&gt;left</title>
<path fill="none" stroke="#00ff00" stroke-width=".2152" d="M117.0051,-385.7126C121.6248,-348.7783 138.7947,-211.5038 146.7483,-147.9145"/>
<polygon fill="#00ff00" stroke="#00ff00" stroke-width=".2152" points="150.2637,-148.0089 148.0319,-137.6518 143.3178,-147.1401 150.2637,-148.0089"/>
</g>
<!-- other_dist -->
<g id="node3" class="node">
<title>other_dist</title>
<polygon fill="#d3d3d3" stroke="#000000" points="375.3406,-404.0229 312.3406,-404.0229 312.3406,-386.0229 375.3406,-386.0229 375.3406,-404.0229"/>
<text text-anchor="middle" x="343.8406" y="-392.8229" font-family="Times,serif" font-size="9.00" fill="#000000">other_dist</text>
</g>
<!-- other_dir -->
<g id="node4" class="node">
<title>other_dir</title>
<polygon fill="#d3d3d3" stroke="#000000" points="294.3406,-404.0229 235.3406,-404.0229 235.3406,-386.0229 294.3406,-386.0229 294.3406,-404.0229"/>
<text text-anchor="middle" x="264.8406" y="-392.8229" font-family="Times,serif" font-size="9.00" fill="#000000">other_dir</text>
</g>
<!-- other_dir&#45;&gt;forward -->
<g id="edge10" class="edge">
<title>other_dir&#45;&gt;forward</title>
<path fill="none" stroke="#ff0000" stroke-width=".3647" d="M257.0887,-385.7624C246.808,-373.481 228.0563,-351.0802 211.7222,-331.5674"/>
<polygon fill="#ff0000" stroke="#ff0000" stroke-width=".3647" points="214.2396,-329.122 205.1369,-323.7006 208.872,-333.6153 214.2396,-329.122"/>
</g>
<!-- other_dir&#45;&gt;left -->
<g id="edge8" class="edge">
<title>other_dir&#45;&gt;left</title>
<path fill="none" stroke="#ff0000" stroke-width=".1012" d="M263.2854,-385.9934C259.1336,-362.8989 246.732,-300.0356 226.8406,-250.8356 210.9331,-211.4893 185.8981,-169.31 168.9475,-142.6191"/>
<polygon fill="#ff0000" stroke="#ff0000" stroke-width=".1012" points="171.882,-140.7113 163.5338,-134.1876 165.9916,-144.4934 171.882,-140.7113"/>
</g>
<!-- right -->
<g id="node8" class="node">
<title>right</title>
<ellipse fill="#add8e6" stroke="#000000" cx="294.8406" cy="-28.2843" rx="28.0702" ry="28.0702"/>
<text text-anchor="middle" x="294.8406" y="-26.0843" font-family="Times,serif" font-size="9.00" fill="#000000">right</text>
</g>
<!-- other_dir&#45;&gt;right -->
<g id="edge6" class="edge">
<title>other_dir&#45;&gt;right</title>
<path fill="none" stroke="#ff0000" stroke-width=".4583" d="M269.1003,-386.006C274.1591,-375.0032 282.5733,-355.7349 287.8406,-338.5168 309.5187,-267.6549 318.6471,-247.7709 313.8406,-173.8234 311.4633,-137.2488 305.7594,-95.8292 301.2175,-66.555"/>
<polygon fill="#ff0000" stroke="#ff0000" stroke-width=".4583" points="304.6231,-65.6819 299.6051,-56.3507 297.7089,-66.7745 304.6231,-65.6819"/>
</g>
<!-- 39 -->
<g id="node9" class="node">
<title>39</title>
<ellipse fill="#ffffff" stroke="#000000" cx="283.8406" cy="-194.3295" rx="20.5122" ry="20.5122"/>
<text text-anchor="middle" x="283.8406" y="-192.1295" font-family="Times,serif" font-size="9.00" fill="#000000">39</text>
</g>
<!-- other_dir&#45;&gt;39 -->
<g id="edge13" class="edge">
<title>other_dir&#45;&gt;39</title>
<path fill="none" stroke="#00ff00" stroke-width=".1074" d="M265.7064,-385.878C268.3667,-357.7773 276.5086,-271.7766 280.9225,-225.153"/>
<polygon fill="#00ff00" stroke="#00ff00" stroke-width=".1074" points="284.4236,-225.3059 281.8818,-215.0205 277.4548,-224.6461 284.4236,-225.3059"/>
</g>
<!-- forward&#45;&gt;39 -->
<g id="edge9" class="edge">
<title>forward&#45;&gt;39</title>
<path fill="none" stroke="#00ff00" stroke-width=".3943" d="M207.9027,-268.3113C224.7035,-251.9433 246.0215,-231.1744 261.7907,-215.8114"/>
<polygon fill="#00ff00" stroke="#00ff00" stroke-width=".3943" points="264.3218,-218.232 269.0421,-208.7468 259.437,-213.218 264.3218,-218.232"/>
</g>
<!-- 39&#45;&gt;left -->
<g id="edge14" class="edge">
<title>39&#45;&gt;left</title>
<path fill="none" stroke="#00ff00" stroke-width=".2289" d="M266.1792,-183.8212C243.9298,-170.583 205.4241,-147.6725 179.0722,-131.9934"/>
<polygon fill="#00ff00" stroke="#00ff00" stroke-width=".2289" points="180.6881,-128.8822 170.3046,-126.7768 177.1088,-134.898 180.6881,-128.8822"/>
</g>
<!-- 39&#45;&gt;right -->
<g id="edge1" class="edge">
<title>39&#45;&gt;right</title>
<path fill="none" stroke="#00ff00" stroke-width=".729" stroke-dasharray="1,5" d="M285.2115,-173.6355C286.9733,-147.0422 290.067,-100.3426 292.2722,-67.0541"/>
<polygon fill="#00ff00" stroke="#00ff00" stroke-width=".729" points="295.7854,-66.9694 292.9542,-56.7599 288.8007,-66.5066 295.7854,-66.9694"/>
</g>
<!-- 57 -->
<g id="node11" class="node">
<title>57</title>
<ellipse fill="#ffffff" stroke="#000000" cx="245.8406" cy="-115.196" rx="20.5122" ry="20.5122"/>
<text text-anchor="middle" x="245.8406" y="-112.996" font-family="Times,serif" font-size="9.00" fill="#000000">57</text>
</g>
<!-- 39&#45;&gt;57 -->
<g id="edge7" class="edge">
<title>39&#45;&gt;57</title>
<path fill="none" stroke="#00ff00" stroke-width=".5191" d="M274.8352,-175.5759C270.15,-165.8194 264.3315,-153.7025 259.1391,-142.8895"/>
<polygon fill="#00ff00" stroke="#00ff00" stroke-width=".5191" points="262.2654,-141.3143 254.7814,-133.8149 255.9552,-144.3445 262.2654,-141.3143"/>
</g>
<!-- 22 -->
<g id="node10" class="node">
<title>22</title>
<ellipse fill="#ffffff" stroke="#000000" cx="43.8406" cy="-395.0229" rx="20.5122" ry="20.5122"/>
<text text-anchor="middle" x="43.8406" y="-392.8229" font-family="Times,serif" font-size="9.00" fill="#000000">22</text>
</g>
<!-- 22&#45;&gt;backward -->
<g id="edge11" class="edge">
<title>22&#45;&gt;backward</title>
<path fill="none" stroke="#ff0000" stroke-width=".4163" d="M43.8406,-374.231C43.8406,-366.7233 43.8406,-357.8604 43.8406,-348.8245"/>
<polygon fill="#ff0000" stroke="#ff0000" stroke-width=".4163" points="47.3407,-348.6121 43.8406,-338.6122 40.3407,-348.6122 47.3407,-348.6121"/>
</g>
<!-- 57&#45;&gt;right -->
<g id="edge12" class="edge">
<title>57&#45;&gt;right</title>
<path fill="none" stroke="#00ff00" stroke-width=".1618" d="M255.9935,-97.1878C261.712,-87.0448 269.0406,-74.0459 275.7885,-62.0771"/>
<polygon fill="#00ff00" stroke="#00ff00" stroke-width=".1618" points="278.9368,-63.6196 280.7992,-53.1897 272.8392,-60.1817 278.9368,-63.6196"/>
</g>
</g>
</svg>
