<?xml version="1.0" encoding="utf-8" standalone="no"?>
<!DOCTYPE svg PUBLIC "-//W3C//DTD SVG 1.1//EN"
  "http://www.w3.org/Graphics/SVG/1.1/DTD/svg11.dtd">
<!-- Created with matplotlib (http://matplotlib.org/) -->
<svg height="345pt" version="1.1" viewBox="0 0 460 345" width="460pt" xmlns="http://www.w3.org/2000/svg" xmlns:xlink="http://www.w3.org/1999/xlink">
 <defs>
  <style type="text/css">
*{stroke-linecap:butt;stroke-linejoin:round;}
  </style>
 </defs>
 <g id="figure_1">
  <g id="patch_1">
   <path d="M 0 345.6 
L 460.8 345.6 
L 460.8 0 
L 0 0 
z
" style="fill:#ffffff;"/>
  </g>
  <g id="axes_1">
   <g id="patch_2">
    <path d="M 57.6 307.584 
L 414.72 307.584 
L 414.72 41.472 
L 57.6 41.472 
z
" style="fill:#ffffff;"/>
   </g>
   <g id="matplotlib.axis_1">
    <g id="xtick_1">
     <g id="line2d_1">
      <path clip-path="url(#pda987bd812)" d="M 73.832727 307.584 
L 73.832727 41.472 
" style="fill:none;stroke:#b0b0b0;stroke-linecap:square;stroke-width:0.8;"/>
     </g>
     <g id="line2d_2">
      <defs>
       <path d="M 0 0 
L 0 3.5 
" id="m506651e724" style="stroke:#000000;stroke-width:0.8;"/>
      </defs>
      <g>
       <use style="stroke:#000000;stroke-width:0.8;" x="73.832727" xlink:href="#m506651e724" y="307.584"/>
      </g>
     </g>
     <g id="text_1">
      <!-- 0 -->
      <defs>
       <path d="M 31.78125 66.40625 
Q 24.171875 66.40625 20.328125 58.90625 
Q 16.5 51.421875 16.5 36.375 
Q 16.5 21.390625 20.328125 13.890625 
Q 24.171875 6.390625 31.78125 6.390625 
Q 39.453125 6.390625 43.28125 13.890625 
Q 47.125 21.390625 47.125 36.375 
Q 47.125 51.421875 43.28125 58.90625 
Q 39.453125 66.40625 31.78125 66.40625 
z
M 31.78125 74.21875 
Q 44.046875 74.21875 50.515625 64.515625 
Q 56.984375 54.828125 56.984375 36.375 
Q 56.984375 17.96875 50.515625 8.265625 
Q 44.046875 -1.421875 31.78125 -1.421875 
Q 19.53125 -1.421875 13.0625 8.265625 
Q 6.59375 17.96875 6.59375 36.375 
Q 6.59375 54.828125 13.0625 64.515625 
Q 19.53125 74.21875 31.78125 74.21875 
z
" id="DejaVuSans-30"/>
      </defs>
      <g transform="translate(70.651477 322.182437)scale(0.1 -0.1)">
       <use xlink:href="#DejaVuSans-30"/>
      </g>
     </g>
    </g>
    <g id="xtick_2">
     <g id="line2d_3">
      <path clip-path="url(#pda987bd812)" d="M 138.828632 307.584 
L 138.828632 41.472 
" style="fill:none;stroke:#b0b0b0;stroke-linecap:square;stroke-width:0.8;"/>
     </g>
     <g id="line2d_4">
      <g>
       <use style="stroke:#000000;stroke-width:0.8;" x="138.828632" xlink:href="#m506651e724" y="307.584"/>
      </g>
     </g>
     <g id="text_2">
      <!-- 200 -->
      <defs>
       <path d="M 19.1875 8.296875 
L 53.609375 8.296875 
L 53.609375 0 
L 7.328125 0 
L 7.328125 8.296875 
Q 12.9375 14.109375 22.625 23.890625 
Q 32.328125 33.6875 34.8125 36.53125 
Q 39.546875 41.84375 41.421875 45.53125 
Q 43.3125 49.21875 43.3125 52.78125 
Q 43.3125 58.59375 39.234375 62.25 
Q 35.15625 65.921875 28.609375 65.921875 
Q 23.96875 65.921875 18.8125 64.3125 
Q 13.671875 62.703125 7.8125 59.421875 
L 7.8125 69.390625 
Q 13.765625 71.78125 18.9375 73 
Q 24.125 74.21875 28.421875 74.21875 
Q 39.75 74.21875 46.484375 68.546875 
Q 53.21875 62.890625 53.21875 53.421875 
Q 53.21875 48.921875 51.53125 44.890625 
Q 49.859375 40.875 45.40625 35.40625 
Q 44.1875 33.984375 37.640625 27.21875 
Q 31.109375 20.453125 19.1875 8.296875 
z
" id="DejaVuSans-32"/>
      </defs>
      <g transform="translate(129.284882 322.182437)scale(0.1 -0.1)">
       <use xlink:href="#DejaVuSans-32"/>
       <use x="63.623047" xlink:href="#DejaVuSans-30"/>
       <use x="127.246094" xlink:href="#DejaVuSans-30"/>
      </g>
     </g>
    </g>
    <g id="xtick_3">
     <g id="line2d_5">
      <path clip-path="url(#pda987bd812)" d="M 203.824537 307.584 
L 203.824537 41.472 
" style="fill:none;stroke:#b0b0b0;stroke-linecap:square;stroke-width:0.8;"/>
     </g>
     <g id="line2d_6">
      <g>
       <use style="stroke:#000000;stroke-width:0.8;" x="203.824537" xlink:href="#m506651e724" y="307.584"/>
      </g>
     </g>
     <g id="text_3">
      <!-- 400 -->
      <defs>
       <path d="M 37.796875 64.3125 
L 12.890625 25.390625 
L 37.796875 25.390625 
z
M 35.203125 72.90625 
L 47.609375 72.90625 
L 47.609375 25.390625 
L 58.015625 25.390625 
L 58.015625 17.1875 
L 47.609375 17.1875 
L 47.609375 0 
L 37.796875 0 
L 37.796875 17.1875 
L 4.890625 17.1875 
L 4.890625 26.703125 
z
" id="DejaVuSans-34"/>
      </defs>
      <g transform="translate(194.280787 322.182437)scale(0.1 -0.1)">
       <use xlink:href="#DejaVuSans-34"/>
       <use x="63.623047" xlink:href="#DejaVuSans-30"/>
       <use x="127.246094" xlink:href="#DejaVuSans-30"/>
      </g>
     </g>
    </g>
    <g id="xtick_4">
     <g id="line2d_7">
      <path clip-path="url(#pda987bd812)" d="M 268.820442 307.584 
L 268.820442 41.472 
" style="fill:none;stroke:#b0b0b0;stroke-linecap:square;stroke-width:0.8;"/>
     </g>
     <g id="line2d_8">
      <g>
       <use style="stroke:#000000;stroke-width:0.8;" x="268.820442" xlink:href="#m506651e724" y="307.584"/>
      </g>
     </g>
     <g id="text_4">
      <!-- 600 -->
      <defs>
       <path d="M 33.015625 40.375 
Q 26.375 40.375 22.484375 35.828125 
Q 18.609375 31.296875 18.609375 23.390625 
Q 18.609375 15.53125 22.484375 10.953125 
Q 26.375 6.390625 33.015625 6.390625 
Q 39.65625 6.390625 43.53125 10.953125 
Q 47.40625 15.53125 47.40625 23.390625 
Q 47.40625 31.296875 43.53125 35.828125 
Q 39.65625 40.375 33.015625 40.375 
z
M 52.59375 71.296875 
L 52.59375 62.3125 
Q 48.875 64.0625 45.09375 64.984375 
Q 41.3125 65.921875 37.59375 65.921875 
Q 27.828125 65.921875 22.671875 59.328125 
Q 17.53125 52.734375 16.796875 39.40625 
Q 19.671875 43.65625 24.015625 45.921875 
Q 28.375 48.1875 33.59375 48.1875 
Q 44.578125 48.1875 50.953125 41.515625 
Q 57.328125 34.859375 57.328125 23.390625 
Q 57.328125 12.15625 50.6875 5.359375 
Q 44.046875 -1.421875 33.015625 -1.421875 
Q 20.359375 -1.421875 13.671875 8.265625 
Q 6.984375 17.96875 6.984375 36.375 
Q 6.984375 53.65625 15.1875 63.9375 
Q 23.390625 74.21875 37.203125 74.21875 
Q 40.921875 74.21875 44.703125 73.484375 
Q 48.484375 72.75 52.59375 71.296875 
z
" id="DejaVuSans-36"/>
      </defs>
      <g transform="translate(259.276692 322.182437)scale(0.1 -0.1)">
       <use xlink:href="#DejaVuSans-36"/>
       <use x="63.623047" xlink:href="#DejaVuSans-30"/>
       <use x="127.246094" xlink:href="#DejaVuSans-30"/>
      </g>
     </g>
    </g>
    <g id="xtick_5">
     <g id="line2d_9">
      <path clip-path="url(#pda987bd812)" d="M 333.816347 307.584 
L 333.816347 41.472 
" style="fill:none;stroke:#b0b0b0;stroke-linecap:square;stroke-width:0.8;"/>
     </g>
     <g id="line2d_10">
      <g>
       <use style="stroke:#000000;stroke-width:0.8;" x="333.816347" xlink:href="#m506651e724" y="307.584"/>
      </g>
     </g>
     <g id="text_5">
      <!-- 800 -->
      <defs>
       <path d="M 31.78125 34.625 
Q 24.75 34.625 20.71875 30.859375 
Q 16.703125 27.09375 16.703125 20.515625 
Q 16.703125 13.921875 20.71875 10.15625 
Q 24.75 6.390625 31.78125 6.390625 
Q 38.8125 6.390625 42.859375 10.171875 
Q 46.921875 13.96875 46.921875 20.515625 
Q 46.921875 27.09375 42.890625 30.859375 
Q 38.875 34.625 31.78125 34.625 
z
M 21.921875 38.8125 
Q 15.578125 40.375 12.03125 44.71875 
Q 8.5 49.078125 8.5 55.328125 
Q 8.5 64.0625 14.71875 69.140625 
Q 20.953125 74.21875 31.78125 74.21875 
Q 42.671875 74.21875 48.875 69.140625 
Q 55.078125 64.0625 55.078125 55.328125 
Q 55.078125 49.078125 51.53125 44.71875 
Q 48 40.375 41.703125 38.8125 
Q 48.828125 37.15625 52.796875 32.3125 
Q 56.78125 27.484375 56.78125 20.515625 
Q 56.78125 9.90625 50.3125 4.234375 
Q 43.84375 -1.421875 31.78125 -1.421875 
Q 19.734375 -1.421875 13.25 4.234375 
Q 6.78125 9.90625 6.78125 20.515625 
Q 6.78125 27.484375 10.78125 32.3125 
Q 14.796875 37.15625 21.921875 38.8125 
z
M 18.3125 54.390625 
Q 18.3125 48.734375 21.84375 45.5625 
Q 25.390625 42.390625 31.78125 42.390625 
Q 38.140625 42.390625 41.71875 45.5625 
Q 45.3125 48.734375 45.3125 54.390625 
Q 45.3125 60.0625 41.71875 63.234375 
Q 38.140625 66.40625 31.78125 66.40625 
Q 25.390625 66.40625 21.84375 63.234375 
Q 18.3125 60.0625 18.3125 54.390625 
z
" id="DejaVuSans-38"/>
      </defs>
      <g transform="translate(324.272597 322.182437)scale(0.1 -0.1)">
       <use xlink:href="#DejaVuSans-38"/>
       <use x="63.623047" xlink:href="#DejaVuSans-30"/>
       <use x="127.246094" xlink:href="#DejaVuSans-30"/>
      </g>
     </g>
    </g>
    <g id="xtick_6">
     <g id="line2d_11">
      <path clip-path="url(#pda987bd812)" d="M 398.812252 307.584 
L 398.812252 41.472 
" style="fill:none;stroke:#b0b0b0;stroke-linecap:square;stroke-width:0.8;"/>
     </g>
     <g id="line2d_12">
      <g>
       <use style="stroke:#000000;stroke-width:0.8;" x="398.812252" xlink:href="#m506651e724" y="307.584"/>
      </g>
     </g>
     <g id="text_6">
      <!-- 1000 -->
      <defs>
       <path d="M 12.40625 8.296875 
L 28.515625 8.296875 
L 28.515625 63.921875 
L 10.984375 60.40625 
L 10.984375 69.390625 
L 28.421875 72.90625 
L 38.28125 72.90625 
L 38.28125 8.296875 
L 54.390625 8.296875 
L 54.390625 0 
L 12.40625 0 
z
" id="DejaVuSans-31"/>
      </defs>
      <g transform="translate(386.087252 322.182437)scale(0.1 -0.1)">
       <use xlink:href="#DejaVuSans-31"/>
       <use x="63.623047" xlink:href="#DejaVuSans-30"/>
       <use x="127.246094" xlink:href="#DejaVuSans-30"/>
       <use x="190.869141" xlink:href="#DejaVuSans-30"/>
      </g>
     </g>
    </g>
    <g id="text_7">
     <!-- Generations -->
     <defs>
      <path d="M 59.515625 10.40625 
L 59.515625 29.984375 
L 43.40625 29.984375 
L 43.40625 38.09375 
L 69.28125 38.09375 
L 69.28125 6.78125 
Q 63.578125 2.734375 56.6875 0.65625 
Q 49.8125 -1.421875 42 -1.421875 
Q 24.90625 -1.421875 15.25 8.5625 
Q 5.609375 18.5625 5.609375 36.375 
Q 5.609375 54.25 15.25 64.234375 
Q 24.90625 74.21875 42 74.21875 
Q 49.125 74.21875 55.546875 72.453125 
Q 61.96875 70.703125 67.390625 67.28125 
L 67.390625 56.78125 
Q 61.921875 61.421875 55.765625 63.765625 
Q 49.609375 66.109375 42.828125 66.109375 
Q 29.4375 66.109375 22.71875 58.640625 
Q 16.015625 51.171875 16.015625 36.375 
Q 16.015625 21.625 22.71875 14.15625 
Q 29.4375 6.6875 42.828125 6.6875 
Q 48.046875 6.6875 52.140625 7.59375 
Q 56.25 8.5 59.515625 10.40625 
z
" id="DejaVuSans-47"/>
      <path d="M 56.203125 29.59375 
L 56.203125 25.203125 
L 14.890625 25.203125 
Q 15.484375 15.921875 20.484375 11.0625 
Q 25.484375 6.203125 34.421875 6.203125 
Q 39.59375 6.203125 44.453125 7.46875 
Q 49.3125 8.734375 54.109375 11.28125 
L 54.109375 2.78125 
Q 49.265625 0.734375 44.1875 -0.34375 
Q 39.109375 -1.421875 33.890625 -1.421875 
Q 20.796875 -1.421875 13.15625 6.1875 
Q 5.515625 13.8125 5.515625 26.8125 
Q 5.515625 40.234375 12.765625 48.109375 
Q 20.015625 56 32.328125 56 
Q 43.359375 56 49.78125 48.890625 
Q 56.203125 41.796875 56.203125 29.59375 
z
M 47.21875 32.234375 
Q 47.125 39.59375 43.09375 43.984375 
Q 39.0625 48.390625 32.421875 48.390625 
Q 24.90625 48.390625 20.390625 44.140625 
Q 15.875 39.890625 15.1875 32.171875 
z
" id="DejaVuSans-65"/>
      <path d="M 54.890625 33.015625 
L 54.890625 0 
L 45.90625 0 
L 45.90625 32.71875 
Q 45.90625 40.484375 42.875 44.328125 
Q 39.84375 48.1875 33.796875 48.1875 
Q 26.515625 48.1875 22.3125 43.546875 
Q 18.109375 38.921875 18.109375 30.90625 
L 18.109375 0 
L 9.078125 0 
L 9.078125 54.6875 
L 18.109375 54.6875 
L 18.109375 46.1875 
Q 21.34375 51.125 25.703125 53.5625 
Q 30.078125 56 35.796875 56 
Q 45.21875 56 50.046875 50.171875 
Q 54.890625 44.34375 54.890625 33.015625 
z
" id="DejaVuSans-6e"/>
      <path d="M 41.109375 46.296875 
Q 39.59375 47.171875 37.8125 47.578125 
Q 36.03125 48 33.890625 48 
Q 26.265625 48 22.1875 43.046875 
Q 18.109375 38.09375 18.109375 28.8125 
L 18.109375 0 
L 9.078125 0 
L 9.078125 54.6875 
L 18.109375 54.6875 
L 18.109375 46.1875 
Q 20.953125 51.171875 25.484375 53.578125 
Q 30.03125 56 36.53125 56 
Q 37.453125 56 38.578125 55.875 
Q 39.703125 55.765625 41.0625 55.515625 
z
" id="DejaVuSans-72"/>
      <path d="M 34.28125 27.484375 
Q 23.390625 27.484375 19.1875 25 
Q 14.984375 22.515625 14.984375 16.5 
Q 14.984375 11.71875 18.140625 8.90625 
Q 21.296875 6.109375 26.703125 6.109375 
Q 34.1875 6.109375 38.703125 11.40625 
Q 43.21875 16.703125 43.21875 25.484375 
L 43.21875 27.484375 
z
M 52.203125 31.203125 
L 52.203125 0 
L 43.21875 0 
L 43.21875 8.296875 
Q 40.140625 3.328125 35.546875 0.953125 
Q 30.953125 -1.421875 24.3125 -1.421875 
Q 15.921875 -1.421875 10.953125 3.296875 
Q 6 8.015625 6 15.921875 
Q 6 25.140625 12.171875 29.828125 
Q 18.359375 34.515625 30.609375 34.515625 
L 43.21875 34.515625 
L 43.21875 35.40625 
Q 43.21875 41.609375 39.140625 45 
Q 35.0625 48.390625 27.6875 48.390625 
Q 23 48.390625 18.546875 47.265625 
Q 14.109375 46.140625 10.015625 43.890625 
L 10.015625 52.203125 
Q 14.9375 54.109375 19.578125 55.046875 
Q 24.21875 56 28.609375 56 
Q 40.484375 56 46.34375 49.84375 
Q 52.203125 43.703125 52.203125 31.203125 
z
" id="DejaVuSans-61"/>
      <path d="M 18.3125 70.21875 
L 18.3125 54.6875 
L 36.8125 54.6875 
L 36.8125 47.703125 
L 18.3125 47.703125 
L 18.3125 18.015625 
Q 18.3125 11.328125 20.140625 9.421875 
Q 21.96875 7.515625 27.59375 7.515625 
L 36.8125 7.515625 
L 36.8125 0 
L 27.59375 0 
Q 17.1875 0 13.234375 3.875 
Q 9.28125 7.765625 9.28125 18.015625 
L 9.28125 47.703125 
L 2.6875 47.703125 
L 2.6875 54.6875 
L 9.28125 54.6875 
L 9.28125 70.21875 
z
" id="DejaVuSans-74"/>
      <path d="M 9.421875 54.6875 
L 18.40625 54.6875 
L 18.40625 0 
L 9.421875 0 
z
M 9.421875 75.984375 
L 18.40625 75.984375 
L 18.40625 64.59375 
L 9.421875 64.59375 
z
" id="DejaVuSans-69"/>
      <path d="M 30.609375 48.390625 
Q 23.390625 48.390625 19.1875 42.75 
Q 14.984375 37.109375 14.984375 27.296875 
Q 14.984375 17.484375 19.15625 11.84375 
Q 23.34375 6.203125 30.609375 6.203125 
Q 37.796875 6.203125 41.984375 11.859375 
Q 46.1875 17.53125 46.1875 27.296875 
Q 46.1875 37.015625 41.984375 42.703125 
Q 37.796875 48.390625 30.609375 48.390625 
z
M 30.609375 56 
Q 42.328125 56 49.015625 48.375 
Q 55.71875 40.765625 55.71875 27.296875 
Q 55.71875 13.875 49.015625 6.21875 
Q 42.328125 -1.421875 30.609375 -1.421875 
Q 18.84375 -1.421875 12.171875 6.21875 
Q 5.515625 13.875 5.515625 27.296875 
Q 5.515625 40.765625 12.171875 48.375 
Q 18.84375 56 30.609375 56 
z
" id="DejaVuSans-6f"/>
      <path d="M 44.28125 53.078125 
L 44.28125 44.578125 
Q 40.484375 46.53125 36.375 47.5 
Q 32.28125 48.484375 27.875 48.484375 
Q 21.1875 48.484375 17.84375 46.4375 
Q 14.5 44.390625 14.5 40.28125 
Q 14.5 37.15625 16.890625 35.375 
Q 19.28125 33.59375 26.515625 31.984375 
L 29.59375 31.296875 
Q 39.15625 29.25 43.1875 25.515625 
Q 47.21875 21.78125 47.21875 15.09375 
Q 47.21875 7.46875 41.1875 3.015625 
Q 35.15625 -1.421875 24.609375 -1.421875 
Q 20.21875 -1.421875 15.453125 -0.5625 
Q 10.6875 0.296875 5.421875 2 
L 5.421875 11.28125 
Q 10.40625 8.6875 15.234375 7.390625 
Q 20.0625 6.109375 24.8125 6.109375 
Q 31.15625 6.109375 34.5625 8.28125 
Q 37.984375 10.453125 37.984375 14.40625 
Q 37.984375 18.0625 35.515625 20.015625 
Q 33.0625 21.96875 24.703125 23.78125 
L 21.578125 24.515625 
Q 13.234375 26.265625 9.515625 29.90625 
Q 5.8125 33.546875 5.8125 39.890625 
Q 5.8125 47.609375 11.28125 51.796875 
Q 16.75 56 26.8125 56 
Q 31.78125 56 36.171875 55.265625 
Q 40.578125 54.546875 44.28125 53.078125 
z
" id="DejaVuSans-73"/>
     </defs>
     <g transform="translate(205.662344 335.860562)scale(0.1 -0.1)">
      <use xlink:href="#DejaVuSans-47"/>
      <use x="77.490234" xlink:href="#DejaVuSans-65"/>
      <use x="139.013672" xlink:href="#DejaVuSans-6e"/>
      <use x="202.392578" xlink:href="#DejaVuSans-65"/>
      <use x="263.916016" xlink:href="#DejaVuSans-72"/>
      <use x="305.029297" xlink:href="#DejaVuSans-61"/>
      <use x="366.308594" xlink:href="#DejaVuSans-74"/>
      <use x="405.517578" xlink:href="#DejaVuSans-69"/>
      <use x="433.300781" xlink:href="#DejaVuSans-6f"/>
      <use x="494.482422" xlink:href="#DejaVuSans-6e"/>
      <use x="557.861328" xlink:href="#DejaVuSans-73"/>
     </g>
    </g>
   </g>
   <g id="matplotlib.axis_2">
    <g id="ytick_1">
     <g id="line2d_13">
      <path clip-path="url(#pda987bd812)" d="M 57.6 293.942202 
L 414.72 293.942202 
" style="fill:none;stroke:#b0b0b0;stroke-linecap:square;stroke-width:0.8;"/>
     </g>
     <g id="line2d_14">
      <defs>
       <path d="M 0 0 
L -3.5 0 
" id="m97619129b5" style="stroke:#000000;stroke-width:0.8;"/>
      </defs>
      <g>
       <use style="stroke:#000000;stroke-width:0.8;" x="57.6" xlink:href="#m97619129b5" y="293.942202"/>
      </g>
     </g>
     <g id="text_8">
      <!-- $\mathdefault{-10^{1}}$ -->
      <defs>
       <path d="M 10.59375 35.5 
L 73.1875 35.5 
L 73.1875 27.203125 
L 10.59375 27.203125 
z
" id="DejaVuSans-2212"/>
      </defs>
      <g transform="translate(24.6 297.741421)scale(0.1 -0.1)">
       <use transform="translate(0 0.684375)" xlink:href="#DejaVuSans-2212"/>
       <use transform="translate(83.789062 0.684375)" xlink:href="#DejaVuSans-31"/>
       <use transform="translate(147.412109 0.684375)" xlink:href="#DejaVuSans-30"/>
       <use transform="translate(211.992188 38.965625)scale(0.7)" xlink:href="#DejaVuSans-31"/>
      </g>
     </g>
    </g>
    <g id="ytick_2">
     <g id="line2d_15">
      <path clip-path="url(#pda987bd812)" d="M 57.6 210.542735 
L 414.72 210.542735 
" style="fill:none;stroke:#b0b0b0;stroke-linecap:square;stroke-width:0.8;"/>
     </g>
     <g id="line2d_16">
      <g>
       <use style="stroke:#000000;stroke-width:0.8;" x="57.6" xlink:href="#m97619129b5" y="210.542735"/>
      </g>
     </g>
     <g id="text_9">
      <!-- $\mathdefault{-10^{0}}$ -->
      <g transform="translate(24.6 214.341953)scale(0.1 -0.1)">
       <use transform="translate(0 0.765625)" xlink:href="#DejaVuSans-2212"/>
       <use transform="translate(83.789062 0.765625)" xlink:href="#DejaVuSans-31"/>
       <use transform="translate(147.412109 0.765625)" xlink:href="#DejaVuSans-30"/>
       <use transform="translate(211.992188 39.046875)scale(0.7)" xlink:href="#DejaVuSans-30"/>
      </g>
     </g>
    </g>
    <g id="ytick_3">
     <g id="line2d_17">
      <path clip-path="url(#pda987bd812)" d="M 57.6 173.610017 
L 414.72 173.610017 
" style="fill:none;stroke:#b0b0b0;stroke-linecap:square;stroke-width:0.8;"/>
     </g>
     <g id="line2d_18">
      <g>
       <use style="stroke:#000000;stroke-width:0.8;" x="57.6" xlink:href="#m97619129b5" y="173.610017"/>
      </g>
     </g>
     <g id="text_10">
      <!-- $\mathdefault{0}$ -->
      <g transform="translate(44.2 177.409236)scale(0.1 -0.1)">
       <use transform="translate(0 0.78125)" xlink:href="#DejaVuSans-30"/>
      </g>
     </g>
    </g>
    <g id="ytick_4">
     <g id="line2d_19">
      <path clip-path="url(#pda987bd812)" d="M 57.6 136.6773 
L 414.72 136.6773 
" style="fill:none;stroke:#b0b0b0;stroke-linecap:square;stroke-width:0.8;"/>
     </g>
     <g id="line2d_20">
      <g>
       <use style="stroke:#000000;stroke-width:0.8;" x="57.6" xlink:href="#m97619129b5" y="136.6773"/>
      </g>
     </g>
     <g id="text_11">
      <!-- $\mathdefault{10^{0}}$ -->
      <g transform="translate(33 140.476519)scale(0.1 -0.1)">
       <use transform="translate(0 0.765625)" xlink:href="#DejaVuSans-31"/>
       <use transform="translate(63.623047 0.765625)" xlink:href="#DejaVuSans-30"/>
       <use transform="translate(128.203125 39.046875)scale(0.7)" xlink:href="#DejaVuSans-30"/>
      </g>
     </g>
    </g>
    <g id="ytick_5">
     <g id="line2d_21">
      <path clip-path="url(#pda987bd812)" d="M 57.6 53.277833 
L 414.72 53.277833 
" style="fill:none;stroke:#b0b0b0;stroke-linecap:square;stroke-width:0.8;"/>
     </g>
     <g id="line2d_22">
      <g>
       <use style="stroke:#000000;stroke-width:0.8;" x="57.6" xlink:href="#m97619129b5" y="53.277833"/>
      </g>
     </g>
     <g id="text_12">
      <!-- $\mathdefault{10^{1}}$ -->
      <g transform="translate(33 57.077051)scale(0.1 -0.1)">
       <use transform="translate(0 0.684375)" xlink:href="#DejaVuSans-31"/>
       <use transform="translate(63.623047 0.684375)" xlink:href="#DejaVuSans-30"/>
       <use transform="translate(128.203125 38.965625)scale(0.7)" xlink:href="#DejaVuSans-31"/>
      </g>
     </g>
    </g>
    <g id="ytick_6">
     <g id="line2d_23">
      <defs>
       <path d="M 0 0 
L -2 0 
" id="md0e009a3f3" style="stroke:#000000;stroke-width:0.6;"/>
      </defs>
      <g>
       <use style="stroke:#000000;stroke-width:0.6;" x="57.6" xlink:href="#md0e009a3f3" y="293.942202"/>
      </g>
     </g>
    </g>
    <g id="ytick_7">
     <g id="line2d_24">
      <g>
       <use style="stroke:#000000;stroke-width:0.6;" x="57.6" xlink:href="#md0e009a3f3" y="210.542735"/>
      </g>
     </g>
    </g>
    <g id="ytick_8">
     <g id="line2d_25">
      <g>
       <use style="stroke:#000000;stroke-width:0.6;" x="57.6" xlink:href="#md0e009a3f3" y="173.610017"/>
      </g>
     </g>
    </g>
    <g id="ytick_9">
     <g id="line2d_26">
      <g>
       <use style="stroke:#000000;stroke-width:0.6;" x="57.6" xlink:href="#md0e009a3f3" y="136.6773"/>
      </g>
     </g>
    </g>
    <g id="ytick_10">
     <g id="line2d_27">
      <g>
       <use style="stroke:#000000;stroke-width:0.6;" x="57.6" xlink:href="#md0e009a3f3" y="53.277833"/>
      </g>
     </g>
    </g>
    <g id="text_13">
     <!-- Fitness -->
     <defs>
      <path d="M 9.8125 72.90625 
L 51.703125 72.90625 
L 51.703125 64.59375 
L 19.671875 64.59375 
L 19.671875 43.109375 
L 48.578125 43.109375 
L 48.578125 34.8125 
L 19.671875 34.8125 
L 19.671875 0 
L 9.8125 0 
z
" id="DejaVuSans-46"/>
     </defs>
     <g transform="translate(18.520312 192.202219)rotate(-90)scale(0.1 -0.1)">
      <use xlink:href="#DejaVuSans-46"/>
      <use x="57.410156" xlink:href="#DejaVuSans-69"/>
      <use x="85.193359" xlink:href="#DejaVuSans-74"/>
      <use x="124.402344" xlink:href="#DejaVuSans-6e"/>
      <use x="187.78125" xlink:href="#DejaVuSans-65"/>
      <use x="249.304688" xlink:href="#DejaVuSans-73"/>
      <use x="301.404297" xlink:href="#DejaVuSans-73"/>
     </g>
    </g>
   </g>
   <g id="line2d_28">
    <path clip-path="url(#pda987bd812)" d="M 73.832727 286.545825 
L 74.157707 286.731733 
L 74.482686 282.206965 
L 74.807666 287.89401 
L 75.132645 285.942745 
L 75.457625 282.07662 
L 75.782604 283.354324 
L 76.107584 281.460438 
L 76.432563 287.571821 
L 77.082523 284.776849 
L 77.407502 288.562604 
L 77.732482 284.377515 
L 78.057461 287.136565 
L 78.382441 287.535799 
L 78.70742 287.679617 
L 79.0324 286.283526 
L 79.357379 287.858388 
L 81.957215 287.858388 
L 82.282195 285.092387 
L 82.607174 287.858388 
L 89.431744 287.858388 
L 89.756724 285.013825 
L 90.081704 287.858388 
L 90.406683 287.858388 
L 90.731663 288.49295 
L 91.056642 284.175757 
L 91.381622 287.026718 
L 91.706601 287.858388 
L 92.031581 287.858388 
L 92.35656 282.892372 
L 92.68154 284.135236 
L 93.006519 287.858388 
L 95.281376 287.858388 
L 95.606355 288.49295 
L 96.256314 287.858388 
L 96.581294 287.209565 
L 96.906274 287.858388 
L 97.231253 289.317904 
L 97.556233 288.83955 
L 97.881212 288.805076 
L 98.206192 290.053947 
L 98.531171 289.113865 
L 98.856151 289.587732 
L 99.18113 287.858388 
L 99.50611 288.66677 
L 99.831089 288.49295 
L 100.156069 288.873982 
L 100.481048 287.858388 
L 100.806028 290.317014 
L 101.455987 285.866466 
L 101.780966 289.011302 
L 102.105946 286.0947 
L 102.430925 287.28238 
L 102.755905 287.858388 
L 103.730844 287.858388 
L 104.055823 289.587732 
L 104.380803 287.858388 
L 106.655659 287.858388 
L 106.980639 289.113865 
L 107.305618 287.858388 
L 107.955577 287.858388 
L 108.280557 291.7537 
L 108.605536 287.858388 
L 117.379984 287.858388 
L 117.704963 288.597368 
L 118.029943 287.209565 
L 118.354922 287.858388 
L 119.65484 287.858388 
L 119.97982 288.942723 
L 120.304799 287.858388 
L 122.254676 287.858388 
L 122.579656 289.385598 
L 123.229615 286.018822 
L 123.554595 284.25663 
L 123.879574 281.682016 
L 124.204554 287.858388 
L 124.529533 290.480222 
L 124.854513 289.987804 
L 125.179492 287.858388 
L 125.504472 291.566222 
L 125.829451 290.868198 
L 126.154431 287.858388 
L 126.47941 288.49295 
L 126.80439 289.788461 
L 127.129369 281.237147 
L 127.454349 288.908373 
L 127.779328 287.858388 
L 128.104308 287.318719 
L 128.429287 287.209565 
L 128.754267 287.858388 
L 129.079247 287.391261 
L 129.404226 287.858388 
L 130.054185 287.858388 
L 130.379165 281.102338 
L 130.704144 287.535799 
L 131.029124 286.768771 
L 131.354103 287.136565 
L 131.679083 287.858388 
L 132.004062 287.858388 
L 132.329042 288.770562 
L 132.654021 287.858388 
L 133.30398 287.89401 
L 133.62896 289.113865 
L 133.953939 287.209565 
L 134.278919 287.858388 
L 134.603898 289.182038 
L 134.928878 285.520696 
L 135.253857 284.054022 
L 135.578837 287.71546 
L 135.903817 280.510783 
L 136.228796 287.858388 
L 136.878755 287.858388 
L 137.203735 290.086962 
L 137.528714 286.208144 
L 138.178673 289.419385 
L 138.503653 287.858388 
L 140.12855 287.858388 
L 140.45353 289.755103 
L 140.778509 290.086962 
L 141.103489 289.079717 
L 141.428468 288.63209 
L 141.753448 287.858388 
L 142.403407 287.858388 
L 142.728387 280.785316 
L 143.053366 287.28238 
L 144.028305 288.942723 
L 144.353284 287.858388 
L 144.678264 292.52201 
L 145.328223 288.63209 
L 145.653202 289.113865 
L 145.978182 285.90463 
L 146.303161 287.858388 
L 147.928059 287.858388 
L 148.253038 287.679617 
L 148.578018 285.713302 
L 148.902998 289.721706 
L 149.227977 287.858388 
L 149.552957 287.858388 
L 149.877936 291.092132 
L 150.202916 287.858388 
L 150.527895 287.858388 
L 150.852875 282.637247 
L 151.177854 282.293536 
L 151.502834 282.379848 
L 151.827813 291.251029 
L 152.152793 291.409056 
L 152.477772 285.942745 
L 152.802752 292.461292 
L 153.127731 287.858388 
L 153.77769 287.858388 
L 154.10267 281.237147 
L 154.427649 289.453133 
L 154.752629 287.858388 
L 155.077609 290.932357 
L 155.402588 287.318719 
L 155.727568 287.858388 
L 156.377527 287.858388 
L 156.702506 287.318719 
L 157.027486 287.318719 
L 157.352465 287.858388 
L 157.677445 286.245859 
L 158.002424 287.858388 
L 158.327404 287.858388 
L 158.652383 288.49295 
L 158.977363 287.571821 
L 159.302342 288.49295 
L 159.627322 280.921609 
L 159.952301 290.610128 
L 160.277281 283.97258 
L 160.92724 287.858388 
L 161.252219 287.858388 
L 161.577199 290.900295 
L 162.227158 286.0947 
L 162.552138 287.858388 
L 164.502015 287.858388 
L 164.826994 285.20983 
L 165.151974 284.776849 
L 165.476953 287.858388 
L 166.776871 287.858388 
L 167.101851 288.562604 
L 167.42683 291.878012 
L 167.75181 287.858388 
L 168.07679 287.858388 
L 168.401769 287.427463 
L 168.726749 287.858388 
L 169.051728 287.858388 
L 169.376708 288.83955 
L 169.701687 288.942723 
L 170.026667 287.858388 
L 170.676626 287.858388 
L 171.001605 293.476524 
L 171.326585 287.858388 
L 171.976544 287.858388 
L 172.301523 289.147971 
L 172.951482 286.842706 
L 173.601441 288.527798 
L 173.926421 287.858388 
L 174.2514 288.66677 
L 174.57638 292.612849 
L 174.90136 287.858388 
L 175.226339 287.535799 
L 175.551319 287.858388 
L 176.851237 287.858388 
L 177.176216 289.587732 
L 177.501196 290.119939 
L 177.826175 288.318077 
L 178.151155 289.453133 
L 178.476134 283.890907 
L 178.801114 288.908373 
L 179.126093 288.071462 
L 179.451073 287.858388 
L 179.776052 289.283997 
L 180.101032 288.805076 
L 180.750991 286.170378 
L 181.075971 287.858388 
L 181.40095 287.643729 
L 181.72593 285.636414 
L 182.050909 287.858388 
L 182.375889 284.776849 
L 182.700868 288.770562 
L 183.025848 287.858388 
L 183.350827 287.858388 
L 183.675807 288.45806 
L 184.000786 284.01333 
L 184.325766 287.643729 
L 184.650745 286.132564 
L 184.975725 283.97258 
L 185.300704 288.353137 
L 185.625684 284.737163 
L 185.950663 288.527798 
L 186.275643 290.610128 
L 186.600622 287.427463 
L 187.250581 290.086962 
L 187.575561 287.858388 
L 187.900541 287.318719 
L 188.5505 283.145262 
L 188.875479 283.603217 
L 189.200459 288.736006 
L 189.525438 292.063482 
L 189.850418 287.787012 
L 190.175397 287.751258 
L 190.500377 288.000612 
L 190.825356 287.858388 
L 192.125274 287.858388 
L 192.450254 290.480222 
L 192.775233 284.337276 
L 193.425192 291.691342 
L 193.750172 287.858388 
L 194.075152 290.480222 
L 194.400131 284.337276 
L 194.725111 287.858388 
L 196.674988 287.858388 
L 196.999967 288.353137 
L 197.324947 288.177412 
L 197.649926 291.219319 
L 198.299885 283.395956 
L 198.949844 287.858388 
L 199.599803 286.805762 
L 200.249762 288.597368 
L 200.574742 290.836065 
L 200.899722 288.562604 
L 201.224701 289.520511 
L 201.549681 287.858388 
L 201.87466 287.858388 
L 202.19964 287.535799 
L 202.524619 288.388153 
L 202.849599 286.245859 
L 203.174578 285.636414 
L 203.499558 287.679617 
L 203.824537 278.512293 
L 204.149517 287.858388 
L 204.474496 289.113865 
L 204.799476 283.187196 
L 205.124455 287.858388 
L 205.774414 287.858388 
L 206.099394 288.212643 
L 206.424373 283.019094 
L 206.749353 283.229069 
L 207.074333 287.822722 
L 207.399312 287.858388 
L 207.724292 285.674883 
L 208.049271 287.858388 
L 208.374251 287.858388 
L 208.69923 287.499732 
L 209.02421 287.858388 
L 210.324128 287.858388 
L 210.649107 286.508499 
L 210.974087 288.000612 
L 211.299066 285.365682 
L 211.624046 287.858388 
L 211.949025 286.916451 
L 212.274005 287.965121 
L 212.598984 291.409056 
L 212.923964 283.685707 
L 213.573923 289.113865 
L 213.898903 287.858388 
L 214.223882 288.562604 
L 214.548862 286.768771 
L 214.873841 288.805076 
L 215.198821 284.377515 
L 215.5238 287.858388 
L 215.84878 288.45806 
L 216.173759 287.858388 
L 216.498739 288.873982 
L 216.823718 287.858388 
L 217.148698 283.685707 
L 217.473677 287.858388 
L 218.448616 287.858388 
L 218.773595 284.697423 
L 219.098575 290.739451 
L 219.423554 287.858388 
L 220.073514 287.245995 
L 220.398493 282.422908 
L 220.723473 287.858388 
L 222.34837 287.858388 
L 222.67335 285.482021 
L 222.998329 290.771692 
L 223.323309 286.990009 
L 223.648288 288.49295 
L 223.973268 285.55932 
L 224.298247 294.114913 
L 224.623227 283.354324 
L 224.948206 287.858388 
L 225.273186 287.858388 
L 225.598165 285.866466 
L 225.923145 290.739451 
L 226.573104 287.427463 
L 226.898084 287.858388 
L 227.223063 288.977033 
L 227.548043 285.55932 
L 227.873022 287.858388 
L 228.522981 287.858388 
L 228.847961 284.417698 
L 229.17294 287.858388 
L 230.472858 287.858388 
L 230.797838 287.391261 
L 231.122817 288.036059 
L 231.772776 287.858388 
L 232.422735 287.858388 
L 232.747715 285.751669 
L 233.072695 287.858388 
L 233.397674 287.858388 
L 233.722654 286.990009 
L 234.047633 287.318719 
L 234.372613 287.858388 
L 235.347551 287.858388 
L 235.672531 287.173088 
L 235.99751 287.427463 
L 236.32249 287.858388 
L 237.297428 287.858388 
L 237.622408 289.987804 
L 237.947387 288.942723 
L 238.272367 291.345949 
L 238.597346 286.657513 
L 238.922326 285.828251 
L 239.247305 286.731733 
L 239.572285 285.980808 
L 239.897265 287.858388 
L 240.222244 287.858388 
L 240.547224 290.480222 
L 240.872203 285.597893 
L 241.197183 284.01333 
L 241.522162 289.520511 
L 241.847142 291.62885 
L 242.172121 288.83955 
L 242.497101 288.49295 
L 242.82208 288.701409 
L 243.14706 288.49295 
L 243.797019 291.878012 
L 244.121998 289.453133 
L 244.446978 291.784828 
L 244.771957 285.866466 
L 245.096937 287.858388 
L 245.421916 288.770562 
L 245.746896 287.858388 
L 246.721835 287.858388 
L 247.046814 287.318719 
L 247.371794 288.000612 
L 247.696773 285.404513 
L 248.021753 284.417698 
L 248.346732 288.423128 
L 248.671712 287.46362 
L 248.996691 282.120133 
L 249.321671 287.209565 
L 249.97163 289.688271 
L 250.296609 290.086962 
L 250.621589 287.28238 
L 250.946568 292.612849 
L 251.271548 291.722538 
L 251.596527 288.977033 
L 251.921507 290.119939 
L 252.246486 287.858388 
L 254.196364 287.858388 
L 254.521343 287.607797 
L 254.846323 291.472025 
L 255.171302 285.287861 
L 255.496282 287.858388 
L 255.821261 288.597368 
L 256.146241 287.858388 
L 257.446159 287.858388 
L 257.771138 287.355013 
L 258.421097 288.212643 
L 258.746077 287.535799 
L 259.071057 287.858388 
L 259.721016 287.858388 
L 260.045995 287.46362 
L 260.370975 287.858388 
L 261.020934 287.858388 
L 261.345913 285.674883 
L 261.670893 287.858388 
L 261.995872 287.858388 
L 262.320852 284.377515 
L 262.645831 287.858388 
L 262.970811 287.858388 
L 263.29579 287.71546 
L 263.62077 287.136565 
L 263.945749 286.805762 
L 264.270729 289.486842 
L 264.595708 288.106822 
L 264.920688 282.594506 
L 265.245667 287.858388 
L 265.570647 287.858388 
L 265.895627 289.147971 
L 266.220606 284.974464 
L 266.545586 290.836065 
L 266.870565 288.423128 
L 267.195545 287.858388 
L 267.520524 287.858388 
L 267.845504 290.512753 
L 268.170483 287.858388 
L 268.495463 287.858388 
L 268.820442 286.132564 
L 269.145422 287.607797 
L 269.470401 287.858388 
L 269.795381 290.480222 
L 270.12036 285.674883 
L 270.44534 288.83955 
L 270.770319 288.527798 
L 271.420278 289.079717 
L 271.745258 285.90463 
L 272.070238 288.977033 
L 272.395217 287.858388 
L 274.020115 287.858388 
L 274.345094 289.385598 
L 274.995053 287.858388 
L 275.645012 290.642513 
L 275.969992 289.621284 
L 276.294971 287.858388 
L 276.619951 287.858388 
L 276.94493 289.113865 
L 277.26991 288.770562 
L 277.594889 287.858388 
L 278.244848 287.858388 
L 278.569828 288.45806 
L 278.894808 285.90463 
L 279.219787 287.858388 
L 279.869746 287.858388 
L 280.194726 290.317014 
L 280.519705 287.858388 
L 280.844685 290.480222 
L 281.169664 286.132564 
L 281.819623 287.822722 
L 282.469582 287.858388 
L 282.794562 288.177412 
L 283.119541 287.858388 
L 283.7695 287.858388 
L 284.09448 287.245995 
L 284.419459 289.04553 
L 284.744439 287.571821 
L 285.069419 287.858388 
L 285.394398 287.858388 
L 285.719378 283.726864 
L 286.044357 287.099996 
L 286.694316 278.413587 
L 287.019296 287.822722 
L 287.344275 287.136565 
L 287.669255 290.119939 
L 287.994234 286.056786 
L 288.319214 290.900295 
L 288.644193 285.980808 
L 288.969173 289.554141 
L 289.294152 288.83955 
L 289.619132 284.296981 
L 289.944111 283.685707 
L 290.269091 287.858388 
L 290.59407 284.25663 
L 290.91905 287.858388 
L 291.244029 287.858388 
L 291.569009 287.209565 
L 291.893989 287.858388 
L 292.543948 287.858388 
L 292.868927 288.000612 
L 293.518886 287.679617 
L 293.843866 290.34973 
L 294.168845 294.028687 
L 294.493825 286.471125 
L 294.818804 288.45806 
L 295.143784 287.858388 
L 295.793743 287.607797 
L 296.118722 287.858388 
L 296.443702 288.388153 
L 296.768681 289.554141 
L 297.093661 289.182038 
L 297.41864 289.654797 
L 297.74362 292.612849 
L 298.0686 287.858388 
L 298.718559 287.858388 
L 299.043538 284.935049 
L 299.368518 287.858388 
L 300.668436 287.858388 
L 300.993415 287.535799 
L 301.643374 288.318077 
L 301.968354 287.099996 
L 302.293333 287.858388 
L 302.618313 287.858388 
L 302.943292 290.480222 
L 303.268272 288.49295 
L 303.593251 283.312633 
L 303.918231 281.637836 
L 304.24321 287.858388 
L 304.56819 287.858388 
L 304.89317 289.654797 
L 305.218149 287.787012 
L 305.543129 287.858388 
L 305.868108 286.170378 
L 306.193088 285.90463 
L 306.518067 290.119939 
L 306.843047 284.457825 
L 307.168026 285.365682 
L 307.493006 287.858388 
L 307.817985 291.314343 
L 308.142965 282.637247 
L 308.467944 289.079717 
L 308.792924 287.858388 
L 309.117903 287.858388 
L 309.442883 288.036059 
L 309.767862 287.858388 
L 310.742801 287.858388 
L 311.067781 287.355013 
L 311.39276 286.132564 
L 311.71774 287.858388 
L 312.042719 287.858388 
L 312.367699 287.679617 
L 312.692678 289.04553 
L 313.017658 287.858388 
L 313.342637 289.113865 
L 313.992596 288.597368 
L 314.317576 282.465903 
L 314.642555 287.787012 
L 315.292514 287.858388 
L 315.942473 287.822722 
L 316.267453 290.836065 
L 316.592432 285.980808 
L 316.917412 285.482021 
L 317.567371 290.086962 
L 317.892351 280.921609 
L 318.21733 288.701409 
L 318.867289 288.45806 
L 319.192269 290.868198 
L 319.842228 287.858388 
L 320.167207 287.858388 
L 320.492187 285.789985 
L 321.142146 289.654797 
L 321.467125 288.873982 
L 321.792105 288.805076 
L 322.117084 287.858388 
L 322.442064 287.858388 
L 322.767043 288.49295 
L 323.092023 286.657513 
L 323.741982 287.858388 
L 324.066962 284.296981 
L 324.391941 282.72254 
L 324.716921 292.491667 
L 325.0419 290.674862 
L 325.36688 287.499732 
L 325.691859 287.099996 
L 326.016839 287.858388 
L 326.341818 289.453133 
L 326.666798 282.807581 
L 326.991777 287.026718 
L 327.316757 287.965121 
L 327.641736 287.858388 
L 327.966716 287.427463 
L 328.291695 287.499732 
L 328.616675 287.858388 
L 328.941654 289.113865 
L 329.266634 283.809002 
L 329.591613 288.805076 
L 329.916593 287.858388 
L 330.241572 290.480222 
L 330.566552 286.953254 
L 330.891532 287.858388 
L 331.216511 287.858388 
L 331.541491 289.587732 
L 331.86647 287.965121 
L 332.19145 287.355013 
L 332.516429 285.636414 
L 332.841409 289.587732 
L 333.166388 287.858388 
L 333.491368 288.701409 
L 333.816347 287.858388 
L 334.141327 287.858388 
L 334.466306 283.479039 
L 334.791286 287.173088 
L 335.441245 290.086962 
L 335.766224 287.06338 
L 336.091204 282.679925 
L 336.416183 287.71546 
L 336.741163 290.480222 
L 337.066143 290.251472 
L 337.391122 291.691342 
L 337.716102 287.858388 
L 338.041081 287.858388 
L 338.366061 289.04553 
L 338.69104 284.054022 
L 339.01602 287.71546 
L 339.340999 276.681802 
L 339.665979 286.396232 
L 339.990958 288.770562 
L 340.315938 288.071462 
L 340.640917 282.807581 
L 340.965897 287.858388 
L 341.290876 287.245995 
L 341.615856 286.208144 
L 341.940835 289.113865 
L 342.265815 288.597368 
L 342.590794 286.396232 
L 342.915774 288.873982 
L 343.240753 287.427463 
L 343.565733 289.113865 
L 344.215692 287.858388 
L 344.540672 290.480222 
L 344.865651 289.182038 
L 345.190631 289.788461 
L 345.84059 287.858388 
L 346.815528 287.858388 
L 347.140508 287.245995 
L 347.465487 287.858388 
L 348.765405 287.751258 
L 349.090385 284.697423 
L 349.415364 288.49295 
L 349.740344 288.908373 
L 350.065324 287.822722 
L 351.040262 287.858388 
L 351.365242 288.212643 
L 351.690221 289.35177 
L 352.015201 289.921509 
L 352.34018 294.028687 
L 352.66516 290.18578 
L 352.990139 287.787012 
L 353.640098 287.858388 
L 353.965078 287.391261 
L 354.290057 286.358712 
L 354.615037 287.858388 
L 354.940016 284.974464 
L 355.264996 287.499732 
L 355.589975 287.858388 
L 356.239934 287.858388 
L 356.564914 287.209565 
L 356.889894 287.858388 
L 357.539853 287.858388 
L 357.864832 287.173088 
L 358.189812 287.858388 
L 358.514791 283.809002 
L 358.839771 287.858388 
L 359.16475 290.020895 
L 359.48973 290.480222 
L 359.814709 282.594506 
L 360.139689 287.607797 
L 360.464668 279.623799 
L 360.789648 287.858388 
L 361.114627 285.55932 
L 361.764586 290.480222 
L 362.089566 285.170736 
L 362.414545 287.858388 
L 362.739525 288.24783 
L 363.064505 287.858388 
L 363.389484 287.858388 
L 363.714464 287.391261 
L 364.039443 288.977033 
L 364.689402 288.736006 
L 365.014382 287.858388 
L 365.339361 295.488 
L 365.664341 287.858388 
L 365.98932 290.642513 
L 366.3143 287.858388 
L 366.639279 287.858388 
L 366.964259 290.317014 
L 367.289238 286.018822 
L 367.614218 287.679617 
L 367.939197 288.736006 
L 368.264177 287.858388 
L 368.589156 287.858388 
L 368.914136 284.01333 
L 369.239115 289.721706 
L 369.564095 285.404513 
L 369.889075 287.858388 
L 370.214054 287.858388 
L 370.539034 289.821781 
L 370.864013 283.890907 
L 371.188993 287.858388 
L 371.838952 287.858388 
L 372.163931 290.119939 
L 372.488911 287.751258 
L 373.13887 287.858388 
L 373.463849 287.858388 
L 373.788829 289.654797 
L 374.113808 287.858388 
L 374.438788 292.001791 
L 374.763767 285.365682 
L 375.088747 285.636414 
L 375.413726 287.245995 
L 375.738706 284.974464 
L 376.063686 287.858388 
L 376.388665 285.597893 
L 376.713645 287.858388 
L 377.038624 289.317904 
L 377.363604 287.751258 
L 377.688583 287.28238 
L 378.013563 287.858388 
L 378.338542 287.136565 
L 378.663522 287.858388 
L 378.988501 289.113865 
L 379.313481 285.980808 
L 379.63846 285.713302 
L 379.96344 287.173088 
L 380.288419 286.358712 
L 380.613399 287.858388 
L 380.938378 288.66677 
L 381.263358 287.607797 
L 381.588337 290.480222 
L 381.913317 289.888305 
L 382.238296 287.858388 
L 382.563276 293.417783 
L 382.888256 287.858388 
L 383.213235 290.480222 
L 383.863194 281.237147 
L 384.188174 285.866466 
L 384.513153 286.471125 
L 384.838133 287.858388 
L 385.163112 285.980808 
L 385.488092 285.170736 
L 385.813071 288.977033 
L 386.138051 287.858388 
L 386.46303 289.788461 
L 386.78801 287.858388 
L 387.112989 288.770562 
L 387.437969 287.858388 
L 388.412907 287.858388 
L 388.737887 292.063482 
L 389.062867 287.965121 
L 389.712826 287.858388 
L 390.037805 285.326798 
L 390.687764 289.821781 
L 391.012744 284.497896 
L 391.337723 287.858388 
L 391.662703 288.908373 
L 391.987682 281.989395 
L 392.312662 287.858388 
L 392.962621 287.858388 
L 393.2876 288.701409 
L 393.61258 282.07662 
L 393.937559 287.858388 
L 394.587518 286.170378 
L 394.912498 287.858388 
L 395.237477 286.056786 
L 395.562457 288.177412 
L 395.887437 287.858388 
L 396.212416 287.858388 
L 396.537396 287.28238 
L 396.862375 287.858388 
L 397.187355 287.858388 
L 397.512334 286.0947 
L 397.837314 285.636414 
L 398.162293 287.858388 
L 398.487273 287.679617 
L 398.487273 287.679617 
" style="fill:none;stroke:#0000ff;stroke-linecap:square;stroke-width:1.5;"/>
   </g>
   <g id="line2d_29">
    <path clip-path="url(#pda987bd812)" d="M 73.832727 279.193943 
L 74.482686 279.193943 
L 74.807666 79.732443 
L 75.132645 279.193943 
L 75.457625 79.732443 
L 75.782604 53.568 
L 76.107584 53.568 
L 76.432563 214.236006 
L 76.757543 79.732443 
L 77.082523 53.568 
L 77.407502 279.193943 
L 77.732482 79.732443 
L 78.057461 60.823803 
L 78.382441 57.632303 
L 78.70742 279.193943 
L 79.0324 53.568 
L 90.406683 53.568 
L 90.731663 79.732443 
L 91.056642 53.568 
L 92.031581 53.568 
L 92.35656 279.193943 
L 92.68154 53.568 
L 95.281376 53.568 
L 95.606355 79.732443 
L 95.931335 53.568 
L 96.906274 53.568 
L 97.231253 206.849463 
L 97.556233 253.917922 
L 97.881212 79.732443 
L 98.206192 240.088908 
L 98.531171 60.451264 
L 98.856151 64.412454 
L 99.18113 53.568 
L 99.50611 53.568 
L 99.831089 79.732443 
L 100.156069 53.568 
L 100.481048 53.568 
L 100.806028 257.189881 
L 101.131007 53.568 
L 107.955577 53.568 
L 108.280557 259.181803 
L 108.605536 53.568 
L 117.379984 53.568 
L 117.704963 251.510577 
L 118.029943 53.568 
L 123.229615 53.568 
L 123.554595 279.193943 
L 123.879574 53.568 
L 124.204554 53.568 
L 124.529533 279.193943 
L 124.854513 53.568 
L 125.179492 53.568 
L 125.504472 251.510577 
L 125.829451 53.568 
L 126.154431 53.568 
L 126.47941 79.732443 
L 126.80439 53.568 
L 130.054185 53.568 
L 130.379165 279.193943 
L 130.704144 70.018013 
L 131.029124 53.568 
L 133.30398 53.568 
L 133.62896 279.193943 
L 133.953939 53.568 
L 134.278919 53.568 
L 134.603898 56.642329 
L 134.928878 53.568 
L 135.253857 279.193943 
L 135.578837 279.193943 
L 135.903817 53.568 
L 136.878755 53.568 
L 137.203735 232.702365 
L 137.528714 53.568 
L 143.378346 53.568 
L 143.703325 79.732443 
L 144.028305 53.568 
L 144.353284 53.568 
L 144.678264 261.933543 
L 145.003243 279.193943 
L 145.328223 53.568 
L 145.653202 279.193943 
L 145.978182 53.568 
L 147.928059 53.568 
L 148.253038 279.193943 
L 148.578018 248.884093 
L 148.902998 53.568 
L 149.552957 53.568 
L 149.877936 240.088908 
L 150.202916 53.568 
L 150.852875 53.568 
L 151.177854 279.193943 
L 151.502834 53.568 
L 151.827813 279.193943 
L 152.152793 279.193943 
L 152.802752 248.884093 
L 153.127731 53.568 
L 154.752629 53.568 
L 155.077609 279.193943 
L 155.402588 53.568 
L 158.327404 53.568 
L 158.652383 79.732443 
L 158.977363 53.568 
L 159.302342 79.732443 
L 159.627322 53.568 
L 159.952301 65.274352 
L 160.277281 56.968563 
L 160.60226 53.568 
L 166.776871 53.568 
L 167.101851 56.642329 
L 167.42683 272.143632 
L 167.75181 53.568 
L 169.051728 53.568 
L 169.376708 62.363977 
L 169.701687 53.568 
L 170.676626 53.568 
L 171.001605 263.632352 
L 171.326585 53.568 
L 171.976544 53.568 
L 172.301523 62.76221 
L 172.626503 53.568 
L 173.926421 53.568 
L 174.2514 252.739333 
L 174.57638 270.239332 
L 174.90136 53.568 
L 175.226339 273.346781 
L 175.551319 53.568 
L 176.851237 53.568 
L 177.176216 276.152036 
L 177.501196 279.193943 
L 177.826175 53.568 
L 178.151155 279.193943 
L 178.476134 53.568 
L 178.801114 57.298526 
L 179.126093 53.568 
L 181.40095 53.568 
L 181.72593 267.487592 
L 182.050909 53.568 
L 184.975725 53.568 
L 185.300704 79.732443 
L 185.625684 243.78218 
L 185.950663 79.732443 
L 186.275643 279.193943 
L 186.600622 58.657431 
L 186.925602 53.568 
L 187.575561 53.568 
L 187.900541 60.823803 
L 188.22552 279.193943 
L 188.5505 252.739333 
L 188.875479 279.193943 
L 189.200459 53.568 
L 189.525438 263.632352 
L 189.850418 53.568 
L 192.125274 53.568 
L 192.450254 279.193943 
L 192.775233 53.568 
L 193.100213 53.568 
L 193.425192 258.203017 
L 193.750172 53.568 
L 194.075152 279.193943 
L 194.400131 53.568 
L 196.999967 53.568 
L 197.324947 79.732443 
L 197.649926 53.568 
L 197.974906 53.568 
L 198.299885 279.193943 
L 198.624865 53.568 
L 200.249762 53.568 
L 200.574742 70.538233 
L 200.899722 53.568 
L 204.149517 53.568 
L 204.474496 279.193943 
L 204.799476 53.568 
L 210.649107 53.568 
L 210.974087 279.193943 
L 211.299066 53.568 
L 211.624046 53.568 
L 211.949025 57.298526 
L 212.274005 79.732443 
L 212.598984 279.193943 
L 212.923964 53.568 
L 215.5238 53.568 
L 215.84878 248.884093 
L 216.173759 53.568 
L 218.448616 53.568 
L 218.773595 79.732443 
L 219.098575 53.568 
L 219.748534 53.568 
L 220.073514 79.732443 
L 220.398493 53.568 
L 222.34837 53.568 
L 222.67335 279.193943 
L 222.998329 279.193943 
L 223.323309 53.568 
L 223.648288 79.732443 
L 223.973268 53.568 
L 224.298247 279.193943 
L 224.623227 53.568 
L 225.598165 53.568 
L 225.923145 79.732443 
L 226.248124 53.568 
L 226.898084 53.568 
L 227.223063 79.732443 
L 227.548043 53.568 
L 237.297428 53.568 
L 237.622408 251.510577 
L 237.947387 53.568 
L 238.272367 279.193943 
L 238.597346 53.568 
L 238.922326 279.193943 
L 239.247305 279.193943 
L 239.572285 53.568 
L 240.222244 53.568 
L 240.547224 279.193943 
L 240.872203 260.128492 
L 241.197183 53.568 
L 241.522162 57.298526 
L 241.847142 279.193943 
L 242.172121 53.568 
L 242.497101 79.732443 
L 242.82208 279.193943 
L 243.14706 79.732443 
L 243.472039 53.568 
L 243.797019 261.045122 
L 244.121998 53.568 
L 244.446978 279.193943 
L 244.771957 53.568 
L 247.046814 53.568 
L 247.371794 252.739333 
L 247.696773 279.193943 
L 248.021753 79.732443 
L 248.346732 53.568 
L 248.671712 53.568 
L 248.996691 79.732443 
L 249.321671 53.568 
L 249.64665 79.732443 
L 249.97163 53.568 
L 250.296609 79.732443 
L 250.621589 79.732443 
L 250.946568 243.78218 
L 251.271548 279.193943 
L 251.596527 53.568 
L 254.521343 53.568 
L 254.846323 257.189881 
L 255.171302 53.568 
L 262.970811 53.568 
L 263.29579 279.193943 
L 263.62077 53.568 
L 263.945749 53.568 
L 264.270729 79.732443 
L 264.595708 53.568 
L 265.570647 53.568 
L 265.895627 279.193943 
L 266.220606 53.568 
L 266.545586 261.933543 
L 266.870565 53.568 
L 269.470401 53.568 
L 269.795381 279.193943 
L 270.12036 53.568 
L 271.095299 53.568 
L 271.420278 79.732443 
L 271.745258 53.568 
L 275.320033 53.568 
L 275.645012 279.193943 
L 275.969992 53.568 
L 276.619951 53.568 
L 276.94493 79.732443 
L 277.26991 53.568 
L 279.869746 53.568 
L 280.194726 61.583621 
L 280.519705 53.568 
L 280.844685 279.193943 
L 281.169664 279.193943 
L 281.494644 53.568 
L 284.09448 53.568 
L 284.419459 265.236732 
L 284.744439 53.568 
L 286.694316 53.568 
L 287.019296 79.732443 
L 287.344275 53.568 
L 287.669255 253.917922 
L 287.994234 53.568 
L 288.319214 79.732443 
L 288.644193 53.568 
L 289.294152 53.568 
L 289.619132 279.193943 
L 289.944111 53.568 
L 292.543948 53.568 
L 292.868927 260.128492 
L 293.193907 53.568 
L 293.518886 53.568 
L 293.843866 279.193943 
L 294.168845 279.193943 
L 294.493825 250.227191 
L 294.818804 53.568 
L 295.143784 53.568 
L 295.468763 279.193943 
L 295.793743 53.568 
L 296.443702 53.568 
L 296.768681 256.139896 
L 297.093661 53.568 
L 297.41864 53.568 
L 297.74362 261.045122 
L 298.0686 53.568 
L 301.643374 53.568 
L 301.968354 69.507001 
L 302.293333 53.568 
L 302.618313 53.568 
L 302.943292 279.193943 
L 303.268272 79.732443 
L 303.593251 279.193943 
L 303.918231 53.568 
L 304.56819 53.568 
L 304.89317 56.31974 
L 305.218149 53.568 
L 305.543129 53.568 
L 305.868108 279.193943 
L 306.193088 232.702365 
L 306.518067 79.732443 
L 306.843047 53.568 
L 307.493006 53.568 
L 307.817985 279.193943 
L 308.142965 53.568 
L 309.117903 53.568 
L 309.442883 255.050279 
L 309.767862 53.568 
L 312.042719 53.568 
L 312.367699 279.193943 
L 312.692678 53.568 
L 313.017658 53.568 
L 313.342637 279.193943 
L 313.667617 53.568 
L 314.317576 53.568 
L 314.642555 265.236732 
L 314.967535 53.568 
L 315.942473 53.568 
L 316.267453 279.193943 
L 316.592432 53.568 
L 317.242391 53.568 
L 317.567371 279.193943 
L 317.892351 53.568 
L 318.867289 53.568 
L 319.192269 79.732443 
L 319.517248 53.568 
L 321.142146 53.568 
L 321.467125 79.732443 
L 321.792105 53.568 
L 322.442064 53.568 
L 322.767043 79.732443 
L 323.092023 279.193943 
L 323.417002 53.568 
L 324.391941 53.568 
L 324.716921 268.896233 
L 325.0419 53.568 
L 326.016839 53.568 
L 326.341818 251.510577 
L 326.666798 53.568 
L 328.616675 53.568 
L 328.941654 279.193943 
L 329.266634 279.193943 
L 329.591613 53.568 
L 329.916593 53.568 
L 330.241572 279.193943 
L 330.566552 53.568 
L 332.516429 53.568 
L 332.841409 61.971163 
L 333.166388 53.568 
L 336.416183 53.568 
L 336.741163 279.193943 
L 337.066143 53.568 
L 337.391122 260.128492 
L 337.716102 53.568 
L 338.041081 53.568 
L 338.366061 57.298526 
L 338.69104 53.568 
L 339.01602 79.732443 
L 339.340999 53.568 
L 341.615856 53.568 
L 341.940835 279.193943 
L 342.265815 53.568 
L 343.240753 53.568 
L 343.565733 279.193943 
L 343.890713 53.568 
L 344.215692 53.568 
L 344.540672 279.193943 
L 344.865651 53.568 
L 349.090385 53.568 
L 349.415364 79.732443 
L 349.740344 53.568 
L 350.065324 251.510577 
L 350.390303 53.568 
L 352.015201 53.568 
L 352.34018 243.78218 
L 352.66516 60.08347 
L 352.990139 53.568 
L 353.640098 53.568 
L 353.965078 214.236006 
L 354.290057 53.568 
L 357.539853 53.568 
L 357.864832 56.642329 
L 358.189812 53.568 
L 359.16475 53.568 
L 359.48973 279.193943 
L 359.814709 53.568 
L 360.139689 79.732443 
L 360.464668 53.568 
L 361.114627 53.568 
L 361.439607 279.193943 
L 361.764586 273.346781 
L 362.089566 53.568 
L 365.014382 53.568 
L 365.339361 260.128492 
L 365.664341 53.568 
L 365.98932 62.363977 
L 366.3143 53.568 
L 367.289238 53.568 
L 367.614218 279.193943 
L 367.939197 53.568 
L 368.914136 53.568 
L 369.239115 243.78218 
L 369.564095 53.568 
L 370.214054 53.568 
L 370.539034 57.298526 
L 370.864013 53.568 
L 371.838952 53.568 
L 372.163931 279.193943 
L 372.488911 53.568 
L 373.463849 53.568 
L 373.788829 65.274352 
L 374.113808 53.568 
L 374.438788 279.193943 
L 374.763767 56.968563 
L 375.088747 53.568 
L 378.663522 53.568 
L 378.988501 279.193943 
L 379.63846 279.193943 
L 379.96344 53.568 
L 381.263358 53.568 
L 381.588337 279.193943 
L 381.913317 53.568 
L 382.238296 53.568 
L 382.563276 272.143632 
L 382.888256 53.568 
L 383.213235 279.193943 
L 383.538215 53.568 
L 383.863194 261.045122 
L 384.188174 53.568 
L 384.838133 53.568 
L 385.163112 79.732443 
L 385.488092 79.732443 
L 385.813071 53.568 
L 386.138051 53.568 
L 386.46303 63.166013 
L 386.78801 53.568 
L 387.112989 57.632303 
L 387.437969 53.568 
L 388.412907 53.568 
L 388.737887 279.193943 
L 389.062867 53.568 
L 389.712826 53.568 
L 390.037805 58.657431 
L 390.362785 53.568 
L 391.337723 53.568 
L 391.662703 56.31974 
L 391.987682 53.568 
L 392.962621 53.568 
L 393.2876 57.298526 
L 393.61258 53.568 
L 393.937559 53.568 
L 394.262539 279.193943 
L 394.587518 53.568 
L 394.912498 53.568 
L 395.237477 258.203017 
L 395.562457 53.568 
L 398.162293 53.568 
L 398.487273 279.193943 
L 398.487273 279.193943 
" style="fill:none;stroke:#ff0000;stroke-linecap:square;stroke-width:1.5;"/>
   </g>
   <g id="patch_3">
    <path d="M 57.6 307.584 
L 57.6 41.472 
" style="fill:none;stroke:#000000;stroke-linecap:square;stroke-linejoin:miter;stroke-width:0.8;"/>
   </g>
   <g id="patch_4">
    <path d="M 414.72 307.584 
L 414.72 41.472 
" style="fill:none;stroke:#000000;stroke-linecap:square;stroke-linejoin:miter;stroke-width:0.8;"/>
   </g>
   <g id="patch_5">
    <path d="M 57.6 307.584 
L 414.72 307.584 
" style="fill:none;stroke:#000000;stroke-linecap:square;stroke-linejoin:miter;stroke-width:0.8;"/>
   </g>
   <g id="patch_6">
    <path d="M 57.6 41.472 
L 414.72 41.472 
" style="fill:none;stroke:#000000;stroke-linecap:square;stroke-linejoin:miter;stroke-width:0.8;"/>
   </g>
   <g id="text_14">
    <!-- Population's average and best fitness -->
    <defs>
     <path d="M 19.671875 64.796875 
L 19.671875 37.40625 
L 32.078125 37.40625 
Q 38.96875 37.40625 42.71875 40.96875 
Q 46.484375 44.53125 46.484375 51.125 
Q 46.484375 57.671875 42.71875 61.234375 
Q 38.96875 64.796875 32.078125 64.796875 
z
M 9.8125 72.90625 
L 32.078125 72.90625 
Q 44.34375 72.90625 50.609375 67.359375 
Q 56.890625 61.8125 56.890625 51.125 
Q 56.890625 40.328125 50.609375 34.8125 
Q 44.34375 29.296875 32.078125 29.296875 
L 19.671875 29.296875 
L 19.671875 0 
L 9.8125 0 
z
" id="DejaVuSans-50"/>
     <path d="M 18.109375 8.203125 
L 18.109375 -20.796875 
L 9.078125 -20.796875 
L 9.078125 54.6875 
L 18.109375 54.6875 
L 18.109375 46.390625 
Q 20.953125 51.265625 25.265625 53.625 
Q 29.59375 56 35.59375 56 
Q 45.5625 56 51.78125 48.09375 
Q 58.015625 40.1875 58.015625 27.296875 
Q 58.015625 14.40625 51.78125 6.484375 
Q 45.5625 -1.421875 35.59375 -1.421875 
Q 29.59375 -1.421875 25.265625 0.953125 
Q 20.953125 3.328125 18.109375 8.203125 
z
M 48.6875 27.296875 
Q 48.6875 37.203125 44.609375 42.84375 
Q 40.53125 48.484375 33.40625 48.484375 
Q 26.265625 48.484375 22.1875 42.84375 
Q 18.109375 37.203125 18.109375 27.296875 
Q 18.109375 17.390625 22.1875 11.75 
Q 26.265625 6.109375 33.40625 6.109375 
Q 40.53125 6.109375 44.609375 11.75 
Q 48.6875 17.390625 48.6875 27.296875 
z
" id="DejaVuSans-70"/>
     <path d="M 8.5 21.578125 
L 8.5 54.6875 
L 17.484375 54.6875 
L 17.484375 21.921875 
Q 17.484375 14.15625 20.5 10.265625 
Q 23.53125 6.390625 29.59375 6.390625 
Q 36.859375 6.390625 41.078125 11.03125 
Q 45.3125 15.671875 45.3125 23.6875 
L 45.3125 54.6875 
L 54.296875 54.6875 
L 54.296875 0 
L 45.3125 0 
L 45.3125 8.40625 
Q 42.046875 3.421875 37.71875 1 
Q 33.40625 -1.421875 27.6875 -1.421875 
Q 18.265625 -1.421875 13.375 4.4375 
Q 8.5 10.296875 8.5 21.578125 
z
M 31.109375 56 
z
" id="DejaVuSans-75"/>
     <path d="M 9.421875 75.984375 
L 18.40625 75.984375 
L 18.40625 0 
L 9.421875 0 
z
" id="DejaVuSans-6c"/>
     <path d="M 17.921875 72.90625 
L 17.921875 45.796875 
L 9.625 45.796875 
L 9.625 72.90625 
z
" id="DejaVuSans-27"/>
     <path id="DejaVuSans-20"/>
     <path d="M 2.984375 54.6875 
L 12.5 54.6875 
L 29.59375 8.796875 
L 46.6875 54.6875 
L 56.203125 54.6875 
L 35.6875 0 
L 23.484375 0 
z
" id="DejaVuSans-76"/>
     <path d="M 45.40625 27.984375 
Q 45.40625 37.75 41.375 43.109375 
Q 37.359375 48.484375 30.078125 48.484375 
Q 22.859375 48.484375 18.828125 43.109375 
Q 14.796875 37.75 14.796875 27.984375 
Q 14.796875 18.265625 18.828125 12.890625 
Q 22.859375 7.515625 30.078125 7.515625 
Q 37.359375 7.515625 41.375 12.890625 
Q 45.40625 18.265625 45.40625 27.984375 
z
M 54.390625 6.78125 
Q 54.390625 -7.171875 48.1875 -13.984375 
Q 42 -20.796875 29.203125 -20.796875 
Q 24.46875 -20.796875 20.265625 -20.09375 
Q 16.0625 -19.390625 12.109375 -17.921875 
L 12.109375 -9.1875 
Q 16.0625 -11.328125 19.921875 -12.34375 
Q 23.78125 -13.375 27.78125 -13.375 
Q 36.625 -13.375 41.015625 -8.765625 
Q 45.40625 -4.15625 45.40625 5.171875 
L 45.40625 9.625 
Q 42.625 4.78125 38.28125 2.390625 
Q 33.9375 0 27.875 0 
Q 17.828125 0 11.671875 7.65625 
Q 5.515625 15.328125 5.515625 27.984375 
Q 5.515625 40.671875 11.671875 48.328125 
Q 17.828125 56 27.875 56 
Q 33.9375 56 38.28125 53.609375 
Q 42.625 51.21875 45.40625 46.390625 
L 45.40625 54.6875 
L 54.390625 54.6875 
z
" id="DejaVuSans-67"/>
     <path d="M 45.40625 46.390625 
L 45.40625 75.984375 
L 54.390625 75.984375 
L 54.390625 0 
L 45.40625 0 
L 45.40625 8.203125 
Q 42.578125 3.328125 38.25 0.953125 
Q 33.9375 -1.421875 27.875 -1.421875 
Q 17.96875 -1.421875 11.734375 6.484375 
Q 5.515625 14.40625 5.515625 27.296875 
Q 5.515625 40.1875 11.734375 48.09375 
Q 17.96875 56 27.875 56 
Q 33.9375 56 38.25 53.625 
Q 42.578125 51.265625 45.40625 46.390625 
z
M 14.796875 27.296875 
Q 14.796875 17.390625 18.875 11.75 
Q 22.953125 6.109375 30.078125 6.109375 
Q 37.203125 6.109375 41.296875 11.75 
Q 45.40625 17.390625 45.40625 27.296875 
Q 45.40625 37.203125 41.296875 42.84375 
Q 37.203125 48.484375 30.078125 48.484375 
Q 22.953125 48.484375 18.875 42.84375 
Q 14.796875 37.203125 14.796875 27.296875 
z
" id="DejaVuSans-64"/>
     <path d="M 48.6875 27.296875 
Q 48.6875 37.203125 44.609375 42.84375 
Q 40.53125 48.484375 33.40625 48.484375 
Q 26.265625 48.484375 22.1875 42.84375 
Q 18.109375 37.203125 18.109375 27.296875 
Q 18.109375 17.390625 22.1875 11.75 
Q 26.265625 6.109375 33.40625 6.109375 
Q 40.53125 6.109375 44.609375 11.75 
Q 48.6875 17.390625 48.6875 27.296875 
z
M 18.109375 46.390625 
Q 20.953125 51.265625 25.265625 53.625 
Q 29.59375 56 35.59375 56 
Q 45.5625 56 51.78125 48.09375 
Q 58.015625 40.1875 58.015625 27.296875 
Q 58.015625 14.40625 51.78125 6.484375 
Q 45.5625 -1.421875 35.59375 -1.421875 
Q 29.59375 -1.421875 25.265625 0.953125 
Q 20.953125 3.328125 18.109375 8.203125 
L 18.109375 0 
L 9.078125 0 
L 9.078125 75.984375 
L 18.109375 75.984375 
z
" id="DejaVuSans-62"/>
     <path d="M 37.109375 75.984375 
L 37.109375 68.5 
L 28.515625 68.5 
Q 23.6875 68.5 21.796875 66.546875 
Q 19.921875 64.59375 19.921875 59.515625 
L 19.921875 54.6875 
L 34.71875 54.6875 
L 34.71875 47.703125 
L 19.921875 47.703125 
L 19.921875 0 
L 10.890625 0 
L 10.890625 47.703125 
L 2.296875 47.703125 
L 2.296875 54.6875 
L 10.890625 54.6875 
L 10.890625 58.5 
Q 10.890625 67.625 15.140625 71.796875 
Q 19.390625 75.984375 28.609375 75.984375 
z
" id="DejaVuSans-66"/>
    </defs>
    <g transform="translate(123.315 35.472)scale(0.12 -0.12)">
     <use xlink:href="#DejaVuSans-50"/>
     <use x="60.255859" xlink:href="#DejaVuSans-6f"/>
     <use x="121.4375" xlink:href="#DejaVuSans-70"/>
     <use x="184.914062" xlink:href="#DejaVuSans-75"/>
     <use x="248.292969" xlink:href="#DejaVuSans-6c"/>
     <use x="276.076172" xlink:href="#DejaVuSans-61"/>
     <use x="337.355469" xlink:href="#DejaVuSans-74"/>
     <use x="376.564453" xlink:href="#DejaVuSans-69"/>
     <use x="404.347656" xlink:href="#DejaVuSans-6f"/>
     <use x="465.529297" xlink:href="#DejaVuSans-6e"/>
     <use x="528.908203" xlink:href="#DejaVuSans-27"/>
     <use x="556.398438" xlink:href="#DejaVuSans-73"/>
     <use x="608.498047" xlink:href="#DejaVuSans-20"/>
     <use x="640.285156" xlink:href="#DejaVuSans-61"/>
     <use x="701.564453" xlink:href="#DejaVuSans-76"/>
     <use x="760.744141" xlink:href="#DejaVuSans-65"/>
     <use x="822.267578" xlink:href="#DejaVuSans-72"/>
     <use x="863.380859" xlink:href="#DejaVuSans-61"/>
     <use x="924.660156" xlink:href="#DejaVuSans-67"/>
     <use x="988.136719" xlink:href="#DejaVuSans-65"/>
     <use x="1049.660156" xlink:href="#DejaVuSans-20"/>
     <use x="1081.447266" xlink:href="#DejaVuSans-61"/>
     <use x="1142.726562" xlink:href="#DejaVuSans-6e"/>
     <use x="1206.105469" xlink:href="#DejaVuSans-64"/>
     <use x="1269.582031" xlink:href="#DejaVuSans-20"/>
     <use x="1301.369141" xlink:href="#DejaVuSans-62"/>
     <use x="1364.845703" xlink:href="#DejaVuSans-65"/>
     <use x="1426.369141" xlink:href="#DejaVuSans-73"/>
     <use x="1478.46875" xlink:href="#DejaVuSans-74"/>
     <use x="1517.677734" xlink:href="#DejaVuSans-20"/>
     <use x="1549.464844" xlink:href="#DejaVuSans-66"/>
     <use x="1584.669922" xlink:href="#DejaVuSans-69"/>
     <use x="1612.453125" xlink:href="#DejaVuSans-74"/>
     <use x="1651.662109" xlink:href="#DejaVuSans-6e"/>
     <use x="1715.041016" xlink:href="#DejaVuSans-65"/>
     <use x="1776.564453" xlink:href="#DejaVuSans-73"/>
     <use x="1828.664062" xlink:href="#DejaVuSans-73"/>
    </g>
   </g>
   <g id="legend_1">
    <g id="patch_7">
     <path d="M 334.779375 190.706125 
L 407.72 190.706125 
Q 409.72 190.706125 409.72 188.706125 
L 409.72 160.349875 
Q 409.72 158.349875 407.72 158.349875 
L 334.779375 158.349875 
Q 332.779375 158.349875 332.779375 160.349875 
L 332.779375 188.706125 
Q 332.779375 190.706125 334.779375 190.706125 
z
" style="fill:#ffffff;opacity:0.8;stroke:#cccccc;stroke-linejoin:miter;"/>
    </g>
    <g id="line2d_30">
     <path d="M 336.779375 166.448312 
L 356.779375 166.448312 
" style="fill:none;stroke:#0000ff;stroke-linecap:square;stroke-width:1.5;"/>
    </g>
    <g id="line2d_31"/>
    <g id="text_15">
     <!-- average -->
     <g transform="translate(364.779375 169.948312)scale(0.1 -0.1)">
      <use xlink:href="#DejaVuSans-61"/>
      <use x="61.279297" xlink:href="#DejaVuSans-76"/>
      <use x="120.458984" xlink:href="#DejaVuSans-65"/>
      <use x="181.982422" xlink:href="#DejaVuSans-72"/>
      <use x="223.095703" xlink:href="#DejaVuSans-61"/>
      <use x="284.375" xlink:href="#DejaVuSans-67"/>
      <use x="347.851562" xlink:href="#DejaVuSans-65"/>
     </g>
    </g>
    <g id="line2d_32">
     <path d="M 336.779375 181.126437 
L 356.779375 181.126437 
" style="fill:none;stroke:#ff0000;stroke-linecap:square;stroke-width:1.5;"/>
    </g>
    <g id="line2d_33"/>
    <g id="text_16">
     <!-- best -->
     <g transform="translate(364.779375 184.626437)scale(0.1 -0.1)">
      <use xlink:href="#DejaVuSans-62"/>
      <use x="63.476562" xlink:href="#DejaVuSans-65"/>
      <use x="125" xlink:href="#DejaVuSans-73"/>
      <use x="177.099609" xlink:href="#DejaVuSans-74"/>
     </g>
    </g>
   </g>
  </g>
 </g>
 <defs>
  <clipPath id="pda987bd812">
   <rect height="266.112" width="357.12" x="57.6" y="41.472"/>
  </clipPath>
 </defs>
</svg>
