<?xml version="1.0" encoding="UTF-8" standalone="no"?>
<!DOCTYPE svg PUBLIC "-//W3C//DTD SVG 1.1//EN"
 "http://www.w3.org/Graphics/SVG/1.1/DTD/svg11.dtd">
<!-- Generated by graphviz version 2.40.1 (20161225.0304)
 -->
<!-- Title: %3 Pages: 1 -->
<svg width="332pt" height="150pt"
 viewBox="0.00 0.00 331.98 149.68" xmlns="http://www.w3.org/2000/svg" xmlns:xlink="http://www.w3.org/1999/xlink">
<g id="graph0" class="graph" transform="scale(1 1) rotate(0) translate(4 145.6812)">
<title>%3</title>
<polygon fill="#ffffff" stroke="transparent" points="-4,4 -4,-145.6812 327.9767,-145.6812 327.9767,4 -4,4"/>
<!-- center_dist -->
<g id="node1" class="node">
<title>center_dist</title>
<polygon fill="#d3d3d3" stroke="#000000" points="245.4767,-141.6812 177.4767,-141.6812 177.4767,-123.6812 245.4767,-123.6812 245.4767,-141.6812"/>
<text text-anchor="middle" x="211.4767" y="-130.4812" font-family="Times,serif" font-size="9.00" fill="#000000">center_dist</text>
</g>
<!-- backward -->
<g id="node6" class="node">
<title>backward</title>
<ellipse fill="#add8e6" stroke="#000000" cx="211.4767" cy="-43.8406" rx="43.6818" ry="43.6818"/>
<text text-anchor="middle" x="211.4767" y="-41.6406" font-family="Times,serif" font-size="9.00" fill="#000000">backward</text>
</g>
<!-- center_dist&#45;&gt;backward -->
<g id="edge5" class="edge">
<title>center_dist&#45;&gt;backward</title>
<path fill="none" stroke="#00ff00" stroke-width=".4062" d="M211.4767,-123.5083C211.4767,-117.0579 211.4767,-107.8398 211.4767,-97.948"/>
<polygon fill="#00ff00" stroke="#00ff00" stroke-width=".4062" points="214.9768,-97.9091 211.4767,-87.9092 207.9768,-97.9092 214.9768,-97.9091"/>
</g>
<!-- center_dir -->
<g id="node2" class="node">
<title>center_dir</title>
<polygon fill="#d3d3d3" stroke="#000000" points="77.9767,-141.6812 12.9767,-141.6812 12.9767,-123.6812 77.9767,-123.6812 77.9767,-141.6812"/>
<text text-anchor="middle" x="45.4767" y="-130.4812" font-family="Times,serif" font-size="9.00" fill="#000000">center_dir</text>
</g>
<!-- forward -->
<g id="node5" class="node">
<title>forward</title>
<ellipse fill="#add8e6" stroke="#000000" cx="37.4767" cy="-43.8406" rx="37.4533" ry="37.4533"/>
<text text-anchor="middle" x="37.4767" y="-41.6406" font-family="Times,serif" font-size="9.00" fill="#000000">forward</text>
</g>
<!-- center_dir&#45;&gt;forward -->
<g id="edge2" class="edge">
<title>center_dir&#45;&gt;forward</title>
<path fill="none" stroke="#00ff00" stroke-width=".4712" d="M44.6507,-123.5083C43.9458,-115.6808 42.8739,-103.7777 41.772,-91.5409"/>
<polygon fill="#00ff00" stroke="#00ff00" stroke-width=".4712" points="45.2296,-90.9114 40.8467,-81.2656 38.2578,-91.5392 45.2296,-90.9114"/>
</g>
<!-- center_dir&#45;&gt;backward -->
<g id="edge1" class="edge">
<title>center_dir&#45;&gt;backward</title>
<path fill="none" stroke="#ff0000" stroke-width=".1753" d="M75.4472,-123.6029C98.9308,-115.8266 131.9552,-103.4006 158.4767,-87.6812 162.6242,-85.223 166.7818,-82.4496 170.8431,-79.5217"/>
<polygon fill="#ff0000" stroke="#ff0000" stroke-width=".1753" points="173.1448,-82.1693 179.0103,-73.3462 168.9229,-76.5858 173.1448,-82.1693"/>
</g>
<!-- right -->
<g id="node8" class="node">
<title>right</title>
<ellipse fill="#add8e6" stroke="#000000" cx="121.4767" cy="-43.8406" rx="28.0702" ry="28.0702"/>
<text text-anchor="middle" x="121.4767" y="-41.6406" font-family="Times,serif" font-size="9.00" fill="#000000">right</text>
</g>
<!-- center_dir&#45;&gt;right -->
<g id="edge4" class="edge">
<title>center_dir&#45;&gt;right</title>
<path fill="none" stroke="#00ff00" stroke-width=".2714" d="M53.3237,-123.5083C63.3876,-111.7441 81.3265,-90.7743 96.2742,-73.3011"/>
<polygon fill="#00ff00" stroke="#00ff00" stroke-width=".2714" points="99.0516,-75.4387 102.8926,-65.5646 93.7324,-70.8883 99.0516,-75.4387"/>
</g>
<!-- other_dist -->
<g id="node3" class="node">
<title>other_dist</title>
<polygon fill="#d3d3d3" stroke="#000000" points="158.9767,-141.6812 95.9767,-141.6812 95.9767,-123.6812 158.9767,-123.6812 158.9767,-141.6812"/>
<text text-anchor="middle" x="127.4767" y="-130.4812" font-family="Times,serif" font-size="9.00" fill="#000000">other_dist</text>
</g>
<!-- other_dist&#45;&gt;backward -->
<g id="edge3" class="edge">
<title>other_dist&#45;&gt;backward</title>
<path fill="none" stroke="#00ff00" stroke-width=".2567" d="M136.1498,-123.5083C145.145,-113.9947 159.8325,-98.4608 173.8605,-83.6244"/>
<polygon fill="#00ff00" stroke="#00ff00" stroke-width=".2567" points="176.7753,-85.636 181.1025,-75.9651 171.6889,-80.8268 176.7753,-85.636"/>
</g>
<!-- other_dist&#45;&gt;right -->
<g id="edge8" class="edge">
<title>other_dist&#45;&gt;right</title>
<path fill="none" stroke="#ff0000" stroke-width=".1726" d="M126.8572,-123.5083C126.2003,-113.7827 125.1186,-97.7656 124.0966,-82.6339"/>
<polygon fill="#ff0000" stroke="#ff0000" stroke-width=".1726" points="127.5706,-82.1291 123.4046,-72.3877 120.5865,-82.6008 127.5706,-82.1291"/>
</g>
<!-- other_dir -->
<g id="node4" class="node">
<title>other_dir</title>
<polygon fill="#d3d3d3" stroke="#000000" points="323.9767,-141.6812 264.9767,-141.6812 264.9767,-123.6812 323.9767,-123.6812 323.9767,-141.6812"/>
<text text-anchor="middle" x="294.4767" y="-130.4812" font-family="Times,serif" font-size="9.00" fill="#000000">other_dir</text>
</g>
<!-- other_dir&#45;&gt;backward -->
<g id="edge7" class="edge">
<title>other_dir&#45;&gt;backward</title>
<path fill="none" stroke="#ff0000" stroke-width=".4502" d="M285.9068,-123.5083C277.0186,-113.9947 262.506,-98.4608 248.645,-83.6244"/>
<polygon fill="#ff0000" stroke="#ff0000" stroke-width=".4502" points="250.8736,-80.883 241.4892,-75.9651 245.7585,-85.6617 250.8736,-80.883"/>
</g>
<!-- left -->
<g id="node7" class="node">
<title>left</title>
<ellipse fill="#add8e6" stroke="#000000" cx="295.4767" cy="-43.8406" rx="22.7556" ry="22.7556"/>
<text text-anchor="middle" x="295.4767" y="-41.6406" font-family="Times,serif" font-size="9.00" fill="#000000">left</text>
</g>
<!-- other_dir&#45;&gt;left -->
<g id="edge6" class="edge">
<title>other_dir&#45;&gt;left</title>
<path fill="none" stroke="#00ff00" stroke-width=".2706" d="M294.5799,-123.5083C294.7039,-112.4943 294.9187,-93.4114 295.107,-76.6833"/>
<polygon fill="#00ff00" stroke="#00ff00" stroke-width=".2706" points="298.6069,-76.704 295.2197,-66.6652 291.6073,-76.6251 298.6069,-76.704"/>
</g>
</g>
</svg>
