<?xml version="1.0" encoding="UTF-8" standalone="no"?>
<!DOCTYPE svg PUBLIC "-//W3C//DTD SVG 1.1//EN"
 "http://www.w3.org/Graphics/SVG/1.1/DTD/svg11.dtd">
<!-- Generated by graphviz version 2.40.1 (20161225.0304)
 -->
<!-- Title: %3 Pages: 1 -->
<svg width="471pt" height="261pt"
 viewBox="0.00 0.00 470.50 260.63" xmlns="http://www.w3.org/2000/svg" xmlns:xlink="http://www.w3.org/1999/xlink">
<g id="graph0" class="graph" transform="scale(1 1) rotate(0) translate(4 256.6346)">
<title>%3</title>
<polygon fill="#ffffff" stroke="transparent" points="-4,4 -4,-256.6346 466.5,-256.6346 466.5,4 -4,4"/>
<!-- center_dist -->
<g id="node1" class="node">
<title>center_dist</title>
<polygon fill="#d3d3d3" stroke="#000000" points="68,-170.1579 0,-170.1579 0,-152.1579 68,-152.1579 68,-170.1579"/>
<text text-anchor="middle" x="34" y="-158.9579" font-family="Times,serif" font-size="9.00" fill="#000000">center_dist</text>
</g>
<!-- backward -->
<g id="node6" class="node">
<title>backward</title>
<ellipse fill="#add8e6" stroke="#000000" cx="300" cy="-43.8406" rx="43.6818" ry="43.6818"/>
<text text-anchor="middle" x="300" y="-41.6406" font-family="Times,serif" font-size="9.00" fill="#000000">backward</text>
</g>
<!-- center_dist&#45;&gt;backward -->
<g id="edge5" class="edge">
<title>center_dist&#45;&gt;backward</title>
<path fill="none" stroke="#00ff00" stroke-width=".3714" d="M42.4576,-152.047C50.6214,-143.7025 63.6739,-131.4954 77,-123.6812 131.3643,-91.8033 200.5577,-69.4794 247.3419,-56.6949"/>
<polygon fill="#00ff00" stroke="#00ff00" stroke-width=".3714" points="248.5112,-60.0051 257.2637,-54.0348 246.6984,-53.2439 248.5112,-60.0051"/>
</g>
<!-- center_dir -->
<g id="node2" class="node">
<title>center_dir</title>
<polygon fill="#d3d3d3" stroke="#000000" points="220.5,-252.6346 155.5,-252.6346 155.5,-234.6346 220.5,-234.6346 220.5,-252.6346"/>
<text text-anchor="middle" x="188" y="-241.4346" font-family="Times,serif" font-size="9.00" fill="#000000">center_dir</text>
</g>
<!-- forward -->
<g id="node5" class="node">
<title>forward</title>
<ellipse fill="#add8e6" stroke="#000000" cx="123" cy="-161.1579" rx="37.4533" ry="37.4533"/>
<text text-anchor="middle" x="123" y="-158.9579" font-family="Times,serif" font-size="9.00" fill="#000000">forward</text>
</g>
<!-- center_dir&#45;&gt;forward -->
<g id="edge2" class="edge">
<title>center_dir&#45;&gt;forward</title>
<path fill="none" stroke="#00ff00" stroke-width=".4129" d="M180.7955,-234.493C173.9523,-225.8099 163.1935,-212.1583 152.8045,-198.976"/>
<polygon fill="#00ff00" stroke="#00ff00" stroke-width=".4129" points="155.3608,-196.5651 146.422,-190.8774 149.8629,-200.8979 155.3608,-196.5651"/>
</g>
<!-- center_dir&#45;&gt;backward -->
<g id="edge1" class="edge">
<title>center_dir&#45;&gt;backward</title>
<path fill="none" stroke="#ff0000" stroke-width=".2269" d="M187.3932,-234.5272C186.4093,-213.5287 186.3389,-160.6844 207,-123.6812 218.144,-103.7227 236.3109,-86.4559 253.6446,-73.136"/>
<polygon fill="#ff0000" stroke="#ff0000" stroke-width=".2269" points="256.0922,-75.6791 262.0525,-66.9197 251.9307,-70.0504 256.0922,-75.6791"/>
</g>
<!-- right -->
<g id="node8" class="node">
<title>right</title>
<ellipse fill="#add8e6" stroke="#000000" cx="244" cy="-161.1579" rx="28.0702" ry="28.0702"/>
<text text-anchor="middle" x="244" y="-158.9579" font-family="Times,serif" font-size="9.00" fill="#000000">right</text>
</g>
<!-- center_dir&#45;&gt;right -->
<g id="edge4" class="edge">
<title>center_dir&#45;&gt;right</title>
<path fill="none" stroke="#00ff00" stroke-width=".2865" d="M194.2069,-234.493C200.9676,-224.5359 212.1643,-208.0455 222.2296,-193.2213"/>
<polygon fill="#00ff00" stroke="#00ff00" stroke-width=".2865" points="225.2614,-194.9868 227.9831,-184.7475 219.4701,-191.0547 225.2614,-194.9868"/>
</g>
<!-- other_dist -->
<g id="node3" class="node">
<title>other_dist</title>
<polygon fill="#d3d3d3" stroke="#000000" points="331.5,-252.6346 268.5,-252.6346 268.5,-234.6346 331.5,-234.6346 331.5,-252.6346"/>
<text text-anchor="middle" x="300" y="-241.4346" font-family="Times,serif" font-size="9.00" fill="#000000">other_dist</text>
</g>
<!-- other_dist&#45;&gt;backward -->
<g id="edge7" class="edge">
<title>other_dist&#45;&gt;backward</title>
<path fill="none" stroke="#00ff00" stroke-width=".1919" stroke-dasharray="1,5" d="M300,-234.5307C300,-210.7764 300,-145.4622 300,-97.878"/>
<polygon fill="#00ff00" stroke="#00ff00" stroke-width=".1919" points="303.5001,-97.7132 300,-87.7133 296.5001,-97.7133 303.5001,-97.7132"/>
</g>
<!-- other_dist&#45;&gt;right -->
<g id="edge9" class="edge">
<title>other_dist&#45;&gt;right</title>
<path fill="none" stroke="#ff0000" stroke-width=".2488" d="M293.7931,-234.493C287.0324,-224.5359 275.8357,-208.0455 265.7704,-193.2213"/>
<polygon fill="#ff0000" stroke="#ff0000" stroke-width=".2488" points="268.5299,-191.0547 260.0169,-184.7475 262.7386,-194.9868 268.5299,-191.0547"/>
</g>
<!-- 2671 -->
<g id="node9" class="node">
<title>2671</title>
<ellipse fill="#ffffff" stroke="#000000" cx="357" cy="-161.1579" rx="28.9828" ry="28.9828"/>
<text text-anchor="middle" x="357" y="-158.9579" font-family="Times,serif" font-size="9.00" fill="#000000">2671</text>
</g>
<!-- other_dist&#45;&gt;2671 -->
<g id="edge10" class="edge">
<title>other_dist&#45;&gt;2671</title>
<path fill="none" stroke="#00ff00" stroke-width=".4097" d="M306.3178,-234.493C313.1507,-224.606 324.4355,-208.2774 334.6242,-193.5347"/>
<polygon fill="#00ff00" stroke="#00ff00" stroke-width=".4097" points="337.6485,-195.3149 340.4546,-185.0984 331.8899,-191.335 337.6485,-195.3149"/>
</g>
<!-- other_dir -->
<g id="node4" class="node">
<title>other_dir</title>
<polygon fill="#d3d3d3" stroke="#000000" points="462.5,-170.1579 403.5,-170.1579 403.5,-152.1579 462.5,-152.1579 462.5,-170.1579"/>
<text text-anchor="middle" x="433" y="-158.9579" font-family="Times,serif" font-size="9.00" fill="#000000">other_dir</text>
</g>
<!-- other_dir&#45;&gt;backward -->
<g id="edge8" class="edge">
<title>other_dir&#45;&gt;backward</title>
<path fill="none" stroke="#ff0000" stroke-width=".543" d="M424.1356,-152.0164C416.5562,-144.2977 405.2761,-133.0395 395,-123.6812 378.1628,-108.3478 359.0334,-92.0649 342.3753,-78.2307"/>
<polygon fill="#ff0000" stroke="#ff0000" stroke-width=".543" points="344.3543,-75.3256 334.4171,-71.651 339.8939,-80.7205 344.3543,-75.3256"/>
</g>
<!-- left -->
<g id="node7" class="node">
<title>left</title>
<ellipse fill="#add8e6" stroke="#000000" cx="433" cy="-43.8406" rx="22.7556" ry="22.7556"/>
<text text-anchor="middle" x="433" y="-41.6406" font-family="Times,serif" font-size="9.00" fill="#000000">left</text>
</g>
<!-- other_dir&#45;&gt;left -->
<g id="edge3" class="edge">
<title>other_dir&#45;&gt;left</title>
<path fill="none" stroke="#00ff00" stroke-width=".1652" d="M433,-151.9522C433,-135.9055 433,-102.0841 433,-76.5165"/>
<polygon fill="#00ff00" stroke="#00ff00" stroke-width=".1652" points="436.5001,-76.4866 433,-66.4866 429.5001,-76.4867 436.5001,-76.4866"/>
</g>
<!-- 2671&#45;&gt;backward -->
<g id="edge6" class="edge">
<title>2671&#45;&gt;backward</title>
<path fill="none" stroke="#00ff00" stroke-width=".1162" d="M344.2081,-134.8296C338.1768,-122.4161 330.7806,-107.1933 323.7761,-92.7765"/>
<polygon fill="#00ff00" stroke="#00ff00" stroke-width=".1162" points="326.7662,-90.9217 319.2479,-83.4567 320.47,-93.9808 326.7662,-90.9217"/>
</g>
</g>
</svg>
