<?xml version="1.0" encoding="UTF-8" standalone="no"?>
<!DOCTYPE svg PUBLIC "-//W3C//DTD SVG 1.1//EN"
 "http://www.w3.org/Graphics/SVG/1.1/DTD/svg11.dtd">
<!-- Generated by graphviz version 2.40.1 (20161225.0304)
 -->
<!-- Title: %3 Pages: 1 -->
<svg width="330pt" height="150pt"
 viewBox="0.00 0.00 330.32 149.68" xmlns="http://www.w3.org/2000/svg" xmlns:xlink="http://www.w3.org/1999/xlink">
<g id="graph0" class="graph" transform="scale(1 1) rotate(0) translate(4 145.6812)">
<title>%3</title>
<polygon fill="#ffffff" stroke="transparent" points="-4,4 -4,-145.6812 326.3173,-145.6812 326.3173,4 -4,4"/>
<!-- center_dist -->
<g id="node1" class="node">
<title>center_dist</title>
<polygon fill="#d3d3d3" stroke="#000000" points="151.4767,-141.6812 83.4767,-141.6812 83.4767,-123.6812 151.4767,-123.6812 151.4767,-141.6812"/>
<text text-anchor="middle" x="117.4767" y="-130.4812" font-family="Times,serif" font-size="9.00" fill="#000000">center_dist</text>
</g>
<!-- forward -->
<g id="node5" class="node">
<title>forward</title>
<ellipse fill="#add8e6" stroke="#000000" cx="37.4767" cy="-43.8406" rx="37.4533" ry="37.4533"/>
<text text-anchor="middle" x="37.4767" y="-41.6406" font-family="Times,serif" font-size="9.00" fill="#000000">forward</text>
</g>
<!-- center_dist&#45;&gt;forward -->
<g id="edge2" class="edge">
<title>center_dist&#45;&gt;forward</title>
<path fill="none" stroke="#ff0000" stroke-width=".1128" d="M109.2166,-123.5083C99.8849,-113.1455 84.121,-95.6395 69.743,-79.6727"/>
<polygon fill="#ff0000" stroke="#ff0000" stroke-width=".1128" points="72.123,-77.0852 62.8304,-71.9961 66.9211,-81.7694 72.123,-77.0852"/>
</g>
<!-- left -->
<g id="node7" class="node">
<title>left</title>
<ellipse fill="#add8e6" stroke="#000000" cx="193.4767" cy="-43.8406" rx="22.7556" ry="22.7556"/>
<text text-anchor="middle" x="193.4767" y="-41.6406" font-family="Times,serif" font-size="9.00" fill="#000000">left</text>
</g>
<!-- center_dist&#45;&gt;left -->
<g id="edge3" class="edge">
<title>center_dist&#45;&gt;left</title>
<path fill="none" stroke="#ff0000" stroke-width=".4874" d="M126.6983,-123.6683C135.6366,-114.787 149.4262,-100.6959 160.4767,-87.6812 165.0337,-82.3142 169.7099,-76.3922 174.0567,-70.6829"/>
<polygon fill="#ff0000" stroke="#ff0000" stroke-width=".4874" points="176.9466,-72.6627 180.1373,-62.5597 171.3427,-68.4679 176.9466,-72.6627"/>
</g>
<!-- center_dir -->
<g id="node2" class="node">
<title>center_dir</title>
<polygon fill="#d3d3d3" stroke="#000000" points="311.9767,-141.6812 246.9767,-141.6812 246.9767,-123.6812 311.9767,-123.6812 311.9767,-141.6812"/>
<text text-anchor="middle" x="279.4767" y="-130.4812" font-family="Times,serif" font-size="9.00" fill="#000000">center_dir</text>
</g>
<!-- backward -->
<g id="node6" class="node">
<title>backward</title>
<ellipse fill="#add8e6" stroke="#000000" cx="278.4767" cy="-43.8406" rx="43.6818" ry="43.6818"/>
<text text-anchor="middle" x="278.4767" y="-41.6406" font-family="Times,serif" font-size="9.00" fill="#000000">backward</text>
</g>
<!-- center_dir&#45;&gt;backward -->
<g id="edge1" class="edge">
<title>center_dir&#45;&gt;backward</title>
<path fill="none" stroke="#00ff00" stroke-width=".4128" d="M279.3734,-123.5083C279.3008,-117.0579 279.197,-107.8398 279.0857,-97.948"/>
<polygon fill="#00ff00" stroke="#00ff00" stroke-width=".4128" points="282.5851,-97.8691 278.9727,-87.9092 275.5856,-97.948 282.5851,-97.8691"/>
</g>
<!-- other_dist -->
<g id="node3" class="node">
<title>other_dist</title>
<polygon fill="#d3d3d3" stroke="#000000" points="64.9767,-141.6812 1.9767,-141.6812 1.9767,-123.6812 64.9767,-123.6812 64.9767,-141.6812"/>
<text text-anchor="middle" x="33.4767" y="-130.4812" font-family="Times,serif" font-size="9.00" fill="#000000">other_dist</text>
</g>
<!-- other_dist&#45;&gt;forward -->
<g id="edge7" class="edge">
<title>other_dist&#45;&gt;forward</title>
<path fill="none" stroke="#00ff00" stroke-width=".1337" d="M33.8897,-123.5083C34.239,-115.75 34.7686,-103.9881 35.3144,-91.8657"/>
<polygon fill="#00ff00" stroke="#00ff00" stroke-width=".1337" points="38.8196,-91.8254 35.773,-81.6781 31.8267,-91.5105 38.8196,-91.8254"/>
</g>
<!-- right -->
<g id="node8" class="node">
<title>right</title>
<ellipse fill="#add8e6" stroke="#000000" cx="123.4767" cy="-43.8406" rx="28.0702" ry="28.0702"/>
<text text-anchor="middle" x="123.4767" y="-41.6406" font-family="Times,serif" font-size="9.00" fill="#000000">right</text>
</g>
<!-- other_dist&#45;&gt;right -->
<g id="edge8" class="edge">
<title>other_dist&#45;&gt;right</title>
<path fill="none" stroke="#ff0000" stroke-width=".2266" d="M44.0929,-123.6632C54.4072,-114.7781 70.3848,-100.6843 83.4767,-87.6812 88.178,-83.0117 93.0417,-77.9215 97.6895,-72.9167"/>
<polygon fill="#ff0000" stroke="#ff0000" stroke-width=".2266" points="100.5884,-74.9336 104.7609,-65.195 95.426,-70.206 100.5884,-74.9336"/>
</g>
<!-- other_dir -->
<g id="node4" class="node">
<title>other_dir</title>
<polygon fill="#d3d3d3" stroke="#000000" points="228.9767,-141.6812 169.9767,-141.6812 169.9767,-123.6812 228.9767,-123.6812 228.9767,-141.6812"/>
<text text-anchor="middle" x="199.4767" y="-130.4812" font-family="Times,serif" font-size="9.00" fill="#000000">other_dir</text>
</g>
<!-- other_dir&#45;&gt;backward -->
<g id="edge6" class="edge">
<title>other_dir&#45;&gt;backward</title>
<path fill="none" stroke="#00ff00" stroke-width=".3322" d="M207.6335,-123.5083C215.9591,-114.1457 229.4694,-98.9524 242.4709,-84.3314"/>
<polygon fill="#00ff00" stroke="#00ff00" stroke-width=".3322" points="245.1637,-86.5703 249.1933,-76.7717 239.9327,-81.9187 245.1637,-86.5703"/>
</g>
<!-- other_dir&#45;&gt;left -->
<g id="edge5" class="edge">
<title>other_dir&#45;&gt;left</title>
<path fill="none" stroke="#ff0000" stroke-width=".2022" d="M198.8572,-123.5083C198.1133,-112.4943 196.8245,-93.4114 195.6947,-76.6833"/>
<polygon fill="#ff0000" stroke="#ff0000" stroke-width=".2022" points="199.1841,-76.4066 195.0182,-66.6652 192.2,-76.8783 199.1841,-76.4066"/>
</g>
<!-- other_dir&#45;&gt;right -->
<g id="edge4" class="edge">
<title>other_dir&#45;&gt;right</title>
<path fill="none" stroke="#00ff00" stroke-width=".2102" d="M191.6296,-123.5083C181.5657,-111.7441 163.6268,-90.7743 148.6791,-73.3011"/>
<polygon fill="#00ff00" stroke="#00ff00" stroke-width=".2102" points="151.221,-70.8883 142.0608,-65.5646 145.9017,-75.4387 151.221,-70.8883"/>
</g>
</g>
</svg>
