<?xml version="1.0" encoding="UTF-8" standalone="no"?>
<!DOCTYPE svg PUBLIC "-//W3C//DTD SVG 1.1//EN"
 "http://www.w3.org/Graphics/SVG/1.1/DTD/svg11.dtd">
<!-- Generated by graphviz version 2.40.1 (20161225.0304)
 -->
<!-- Title: %3 Pages: 1 -->
<svg width="1223pt" height="564pt"
 viewBox="0.00 0.00 1222.70 564.18" xmlns="http://www.w3.org/2000/svg" xmlns:xlink="http://www.w3.org/1999/xlink">
<g id="graph0" class="graph" transform="scale(1 1) rotate(0) translate(4 560.1808)">
<title>%3</title>
<polygon fill="#ffffff" stroke="transparent" points="-4,4 -4,-560.1808 1218.704,-560.1808 1218.704,4 -4,4"/>
<!-- center_dist -->
<g id="node1" class="node">
<title>center_dist</title>
<polygon fill="#d3d3d3" stroke="#000000" points="186,-442.2067 118,-442.2067 118,-424.2067 186,-424.2067 186,-442.2067"/>
<text text-anchor="middle" x="152" y="-431.0067" font-family="Times,serif" font-size="9.00" fill="#000000">center_dist</text>
</g>
<!-- left -->
<g id="node7" class="node">
<title>left</title>
<ellipse fill="#add8e6" stroke="#000000" cx="351" cy="-136.4092" rx="22.7556" ry="22.7556"/>
<text text-anchor="middle" x="351" y="-134.2092" font-family="Times,serif" font-size="9.00" fill="#000000">left</text>
</g>
<!-- center_dist&#45;&gt;left -->
<g id="edge33" class="edge">
<title>center_dist&#45;&gt;left</title>
<path fill="none" stroke="#ff0000" stroke-width=".1365" stroke-dasharray="1,5" d="M156.1864,-424.0475C170.4779,-393.2258 219.5368,-291.0148 275,-216.2498 290.4814,-195.3806 310.9206,-174.1886 326.7031,-158.8871"/>
<polygon fill="#ff0000" stroke="#ff0000" stroke-width=".1365" points="329.2265,-161.3168 334.0347,-151.8758 324.3885,-156.2577 329.2265,-161.3168"/>
</g>
<!-- right -->
<g id="node8" class="node">
<title>right</title>
<ellipse fill="#add8e6" stroke="#000000" cx="114" cy="-28.2843" rx="28.0702" ry="28.0702"/>
<text text-anchor="middle" x="114" y="-26.0843" font-family="Times,serif" font-size="9.00" fill="#000000">right</text>
</g>
<!-- center_dist&#45;&gt;right -->
<g id="edge49" class="edge">
<title>center_dist&#45;&gt;right</title>
<path fill="none" stroke="#00ff00" stroke-width=".4213" d="M127.3698,-424.2035C104.466,-414.353 71.7312,-396.1417 57,-368.2153 3.357,-266.5223 62.344,-125.9938 95.1128,-62.2083"/>
<polygon fill="#00ff00" stroke="#00ff00" stroke-width=".4213" points="98.3927,-63.4897 99.9333,-53.0075 92.1922,-60.2411 98.3927,-63.4897"/>
</g>
<!-- 2579 -->
<g id="node13" class="node">
<title>2579</title>
<ellipse fill="#ffffff" stroke="#000000" cx="95" cy="-245.2412" rx="28.9828" ry="28.9828"/>
<text text-anchor="middle" x="95" y="-243.0412" font-family="Times,serif" font-size="9.00" fill="#000000">2579</text>
</g>
<!-- center_dist&#45;&gt;2579 -->
<g id="edge11" class="edge">
<title>center_dist&#45;&gt;2579</title>
<path fill="none" stroke="#ff0000" stroke-width=".1009" stroke-dasharray="1,5" d="M151.7456,-423.9725C150.9217,-403.103 147.4571,-350.948 133,-310.2325 129.0823,-299.1992 123.2536,-287.9298 117.331,-277.9404"/>
<polygon fill="#ff0000" stroke="#ff0000" stroke-width=".1009" points="120.1483,-275.8411 111.9175,-269.1698 114.1916,-279.5178 120.1483,-275.8411"/>
</g>
<!-- 2721 -->
<g id="node14" class="node">
<title>2721</title>
<ellipse fill="#ffffff" stroke="#000000" cx="95" cy="-339.2239" rx="28.9828" ry="28.9828"/>
<text text-anchor="middle" x="95" y="-337.0239" font-family="Times,serif" font-size="9.00" fill="#000000">2721</text>
</g>
<!-- center_dist&#45;&gt;2721 -->
<g id="edge62" class="edge">
<title>center_dist&#45;&gt;2721</title>
<path fill="none" stroke="#00ff00" stroke-width=".1731" stroke-dasharray="1,5" d="M146.5346,-424.1952C139.3987,-412.4293 126.5082,-391.1753 115.4051,-372.8683"/>
<polygon fill="#00ff00" stroke="#00ff00" stroke-width=".1731" points="118.3095,-370.9078 110.1311,-364.1725 112.3243,-374.5378 118.3095,-370.9078"/>
</g>
<!-- 2891 -->
<g id="node24" class="node">
<title>2891</title>
<ellipse fill="#ffffff" stroke="#000000" cx="316" cy="-339.2239" rx="28.9828" ry="28.9828"/>
<text text-anchor="middle" x="316" y="-337.0239" font-family="Times,serif" font-size="9.00" fill="#000000">2891</text>
</g>
<!-- center_dist&#45;&gt;2891 -->
<g id="edge8" class="edge">
<title>center_dist&#45;&gt;2891</title>
<path fill="none" stroke="#00ff00" stroke-width=".5203" d="M167.725,-424.1952C193.8513,-409.2232 246.7873,-378.8873 281.8213,-358.8105"/>
<polygon fill="#00ff00" stroke="#00ff00" stroke-width=".5203" points="283.8165,-361.7012 290.7526,-353.6923 280.336,-355.6278 283.8165,-361.7012"/>
</g>
<!-- center_dir -->
<g id="node2" class="node">
<title>center_dir</title>
<polygon fill="#d3d3d3" stroke="#000000" points="883.5,-254.2412 818.5,-254.2412 818.5,-236.2412 883.5,-236.2412 883.5,-254.2412"/>
<text text-anchor="middle" x="851" y="-243.0412" font-family="Times,serif" font-size="9.00" fill="#000000">center_dir</text>
</g>
<!-- backward -->
<g id="node6" class="node">
<title>backward</title>
<ellipse fill="#add8e6" stroke="#000000" cx="695" cy="-136.4092" rx="43.6818" ry="43.6818"/>
<text text-anchor="middle" x="695" y="-134.2092" font-family="Times,serif" font-size="9.00" fill="#000000">backward</text>
</g>
<!-- center_dir&#45;&gt;backward -->
<g id="edge34" class="edge">
<title>center_dir&#45;&gt;backward</title>
<path fill="none" stroke="#ff0000" stroke-width=".2499" d="M837.9678,-236.1494C816.5004,-221.1729 772.7461,-190.648 739.2643,-167.2897"/>
<polygon fill="#ff0000" stroke="#ff0000" stroke-width=".2499" points="741.1971,-164.3706 730.9931,-161.5194 737.1919,-170.1116 741.1971,-164.3706"/>
</g>
<!-- 2023 -->
<g id="node31" class="node">
<title>2023</title>
<ellipse fill="#ffffff" stroke="#000000" cx="851" cy="-136.4092" rx="28.9828" ry="28.9828"/>
<text text-anchor="middle" x="851" y="-134.2092" font-family="Times,serif" font-size="9.00" fill="#000000">2023</text>
</g>
<!-- center_dir&#45;&gt;2023 -->
<g id="edge26" class="edge">
<title>center_dir&#45;&gt;2023</title>
<path fill="none" stroke="#00ff00" stroke-width=".6447" stroke-dasharray="1,5" d="M851,-235.9622C851,-222.6495 851,-197.3328 851,-175.5622"/>
<polygon fill="#00ff00" stroke="#00ff00" stroke-width=".6447" points="854.5001,-175.5473 851,-165.5473 847.5001,-175.5474 854.5001,-175.5473"/>
</g>
<!-- other_dist -->
<g id="node3" class="node">
<title>other_dist</title>
<polygon fill="#d3d3d3" stroke="#000000" points="677.5,-536.1894 614.5,-536.1894 614.5,-518.1894 677.5,-518.1894 677.5,-536.1894"/>
<text text-anchor="middle" x="646" y="-524.9894" font-family="Times,serif" font-size="9.00" fill="#000000">other_dist</text>
</g>
<!-- forward -->
<g id="node5" class="node">
<title>forward</title>
<ellipse fill="#add8e6" stroke="#000000" cx="1045" cy="-136.4092" rx="37.4533" ry="37.4533"/>
<text text-anchor="middle" x="1045" y="-134.2092" font-family="Times,serif" font-size="9.00" fill="#000000">forward</text>
</g>
<!-- other_dist&#45;&gt;forward -->
<g id="edge52" class="edge">
<title>other_dist&#45;&gt;forward</title>
<path fill="none" stroke="#ff0000" stroke-width=".5932" stroke-dasharray="1,5" d="M677.7441,-524.8378C749.3495,-518.8924 920.3605,-500.8984 961,-462.1981 1001.0065,-424.1005 1027.7534,-264.4295 1038.993,-183.648"/>
<polygon fill="#ff0000" stroke="#ff0000" stroke-width=".5932" points="1042.4618,-184.1138 1040.3499,-173.7316 1035.5265,-183.1647 1042.4618,-184.1138"/>
</g>
<!-- other_dist&#45;&gt;backward -->
<g id="edge35" class="edge">
<title>other_dist&#45;&gt;backward</title>
<path fill="none" stroke="#ff0000" stroke-width=".7053" stroke-dasharray="1,5" d="M653.4198,-517.8927C671.5486,-494.4906 717.7248,-430.5543 733,-368.2153 749.0741,-302.6157 747.8784,-282.1309 733,-216.2498 730.5404,-205.3585 726.4109,-194.2111 721.759,-183.8322"/>
<polygon fill="#ff0000" stroke="#ff0000" stroke-width=".7053" points="724.8085,-182.0934 717.3729,-174.5461 718.479,-185.083 724.8085,-182.0934"/>
</g>
<!-- other_dist&#45;&gt;right -->
<g id="edge42" class="edge">
<title>other_dist&#45;&gt;right</title>
<path fill="none" stroke="#00ff00" stroke-width=".1687" d="M614.4638,-521.9027C576.8213,-515.7025 511.9348,-505.3628 456,-498.1981 243.1096,-470.9287 0,-553.8537 0,-339.2239 0,-339.2239 0,-339.2239 0,-245.2412 0,-174.3736 8.7735,-152.8711 46,-92.5685 55.6113,-76.9994 69.9271,-62.6871 82.9477,-51.5393"/>
<polygon fill="#00ff00" stroke="#00ff00" stroke-width=".1687" points="85.3536,-54.0915 90.8338,-45.0241 80.8952,-48.695 85.3536,-54.0915"/>
</g>
<!-- 903 -->
<g id="node15" class="node">
<title>903</title>
<ellipse fill="#ffffff" stroke="#000000" cx="289" cy="-433.2067" rx="25" ry="25"/>
<text text-anchor="middle" x="289" y="-431.0067" font-family="Times,serif" font-size="9.00" fill="#000000">903</text>
</g>
<!-- other_dist&#45;&gt;903 -->
<g id="edge16" class="edge">
<title>other_dist&#45;&gt;903</title>
<path fill="none" stroke="#00ff00" stroke-width=".2795" d="M614.3111,-522.8837C543.4939,-512.9307 374.5769,-487.2594 323,-462.1981 320.0695,-460.7741 317.1855,-459.0371 314.4115,-457.128"/>
<polygon fill="#00ff00" stroke="#00ff00" stroke-width=".2795" points="316.5425,-454.3516 306.4833,-451.0256 312.2729,-459.8987 316.5425,-454.3516"/>
</g>
<!-- 1328 -->
<g id="node16" class="node">
<title>1328</title>
<ellipse fill="#ffffff" stroke="#000000" cx="923" cy="-339.2239" rx="28.9828" ry="28.9828"/>
<text text-anchor="middle" x="923" y="-337.0239" font-family="Times,serif" font-size="9.00" fill="#000000">1328</text>
</g>
<!-- other_dist&#45;&gt;1328 -->
<g id="edge41" class="edge">
<title>other_dist&#45;&gt;1328</title>
<path fill="none" stroke="#ff0000" stroke-width=".1541" stroke-dasharray="1,5" d="M677.7376,-523.7843C720.2498,-517.8095 796.2059,-502.0267 847,-462.1981 851.0966,-458.9858 881.8142,-408.2697 902.9204,-372.9828"/>
<polygon fill="#ff0000" stroke="#ff0000" stroke-width=".1541" points="905.9344,-374.7622 908.0573,-364.3823 899.9247,-371.1728 905.9344,-374.7622"/>
</g>
<!-- 2691 -->
<g id="node18" class="node">
<title>2691</title>
<ellipse fill="#ffffff" stroke="#000000" cx="475" cy="-433.2067" rx="28.9828" ry="28.9828"/>
<text text-anchor="middle" x="475" y="-431.0067" font-family="Times,serif" font-size="9.00" fill="#000000">2691</text>
</g>
<!-- other_dist&#45;&gt;2691 -->
<g id="edge10" class="edge">
<title>other_dist&#45;&gt;2691</title>
<path fill="none" stroke="#00ff00" stroke-width=".5888" d="M624.1165,-518.0883C597.1737,-506.5275 550.3933,-485.2854 513,-462.1981 510.7759,-460.8249 508.5238,-459.3506 506.2843,-457.8211"/>
<polygon fill="#00ff00" stroke="#00ff00" stroke-width=".5888" points="507.9632,-454.7186 497.7945,-451.7438 503.8886,-460.4106 507.9632,-454.7186"/>
</g>
<!-- 2105 -->
<g id="node21" class="node">
<title>2105</title>
<ellipse fill="#ffffff" stroke="#000000" cx="923" cy="-433.2067" rx="28.9828" ry="28.9828"/>
<text text-anchor="middle" x="923" y="-431.0067" font-family="Times,serif" font-size="9.00" fill="#000000">2105</text>
</g>
<!-- other_dist&#45;&gt;2105 -->
<g id="edge38" class="edge">
<title>other_dist&#45;&gt;2105</title>
<path fill="none" stroke="#ff0000" stroke-width="1.3454" stroke-dasharray="1,5" d="M677.7872,-521.7371C723.8805,-513.0912 811.2727,-493.8896 880,-462.1981 883.6665,-460.5074 887.3679,-458.5194 890.9795,-456.3902"/>
<polygon fill="#ff0000" stroke="#ff0000" stroke-width="1.3454" points="893.1059,-459.1873 899.701,-450.8954 889.3744,-453.2647 893.1059,-459.1873"/>
</g>
<!-- 348 -->
<g id="node27" class="node">
<title>348</title>
<ellipse fill="#ffffff" stroke="#000000" cx="547" cy="-339.2239" rx="25" ry="25"/>
<text text-anchor="middle" x="547" y="-337.0239" font-family="Times,serif" font-size="9.00" fill="#000000">348</text>
</g>
<!-- other_dist&#45;&gt;348 -->
<g id="edge15" class="edge">
<title>other_dist&#45;&gt;348</title>
<path fill="none" stroke="#ff0000" stroke-width=".2129" stroke-dasharray="1,5" d="M642.2727,-518.0268C633.7315,-497.3039 611.7234,-445.4293 589,-404.2153 582.2952,-392.0546 574.1573,-379.1183 566.8368,-368.0155"/>
<polygon fill="#ff0000" stroke="#ff0000" stroke-width=".2129" points="569.6495,-365.9251 561.1842,-359.5541 563.8289,-369.8136 569.6495,-365.9251"/>
</g>
<!-- 2273 -->
<g id="node28" class="node">
<title>2273</title>
<ellipse fill="#ffffff" stroke="#000000" cx="695" cy="-339.2239" rx="28.9828" ry="28.9828"/>
<text text-anchor="middle" x="695" y="-337.0239" font-family="Times,serif" font-size="9.00" fill="#000000">2273</text>
</g>
<!-- other_dist&#45;&gt;2273 -->
<g id="edge21" class="edge">
<title>other_dist&#45;&gt;2273</title>
<path fill="none" stroke="#ff0000" stroke-width=".5108" stroke-dasharray="1,5" d="M648.3634,-518.1235C654.8901,-493.0869 673.4489,-421.8947 685.0916,-377.2329"/>
<polygon fill="#ff0000" stroke="#ff0000" stroke-width=".5108" points="688.5416,-377.873 687.6774,-367.3135 681.768,-376.1071 688.5416,-377.873"/>
</g>
<!-- 1650 -->
<g id="node34" class="node">
<title>1650</title>
<ellipse fill="#ffffff" stroke="#000000" cx="619" cy="-339.2239" rx="28.9828" ry="28.9828"/>
<text text-anchor="middle" x="619" y="-337.0239" font-family="Times,serif" font-size="9.00" fill="#000000">1650</text>
</g>
<!-- other_dist&#45;&gt;1650 -->
<g id="edge4" class="edge">
<title>other_dist&#45;&gt;1650</title>
<path fill="none" stroke="#00ff00" stroke-width=".3747" d="M644.6977,-518.1235C641.1209,-493.223 630.9861,-422.6671 624.5647,-377.9634"/>
<polygon fill="#00ff00" stroke="#00ff00" stroke-width=".3747" points="628.0229,-377.422 623.1365,-368.0213 621.094,-378.4174 628.0229,-377.422"/>
</g>
<!-- 3580 -->
<g id="node36" class="node">
<title>3580</title>
<ellipse fill="#ffffff" stroke="#000000" cx="551" cy="-433.2067" rx="28.9828" ry="28.9828"/>
<text text-anchor="middle" x="551" y="-431.0067" font-family="Times,serif" font-size="9.00" fill="#000000">3580</text>
</g>
<!-- other_dist&#45;&gt;3580 -->
<g id="edge29" class="edge">
<title>other_dist&#45;&gt;3580</title>
<path fill="none" stroke="#00ff00" stroke-width=".2659" d="M636.891,-518.178C623.7134,-505.1415 598.7615,-480.4568 579.1333,-461.0388"/>
<polygon fill="#00ff00" stroke="#00ff00" stroke-width=".2659" points="581.4775,-458.4345 571.9069,-453.8897 576.5545,-463.4108 581.4775,-458.4345"/>
</g>
<!-- other_dir -->
<g id="node4" class="node">
<title>other_dir</title>
<polygon fill="#d3d3d3" stroke="#000000" points="1127.5,-536.1894 1068.5,-536.1894 1068.5,-518.1894 1127.5,-518.1894 1127.5,-536.1894"/>
<text text-anchor="middle" x="1098" y="-524.9894" font-family="Times,serif" font-size="9.00" fill="#000000">other_dir</text>
</g>
<!-- other_dir&#45;&gt;forward -->
<g id="edge37" class="edge">
<title>other_dir&#45;&gt;forward</title>
<path fill="none" stroke="#ff0000" stroke-width=".3118" d="M1127.6439,-518.8557C1153.9914,-509.6985 1190.9043,-492.1554 1208,-462.1981 1220.7727,-439.816 1211.2769,-429.7762 1208,-404.2153 1197.022,-318.584 1208.2742,-287.1391 1159,-216.2498 1141.2072,-190.6518 1112.3937,-170.5766 1088.187,-156.959"/>
<polygon fill="#ff0000" stroke="#ff0000" stroke-width=".3118" points="1089.6254,-153.7573 1079.1677,-152.0581 1086.2833,-159.9079 1089.6254,-153.7573"/>
</g>
<!-- 1841 -->
<g id="node17" class="node">
<title>1841</title>
<ellipse fill="#ffffff" stroke="#000000" cx="809" cy="-433.2067" rx="28.9828" ry="28.9828"/>
<text text-anchor="middle" x="809" y="-431.0067" font-family="Times,serif" font-size="9.00" fill="#000000">1841</text>
</g>
<!-- other_dir&#45;&gt;1841 -->
<g id="edge45" class="edge">
<title>other_dir&#45;&gt;1841</title>
<path fill="none" stroke="#ff0000" stroke-width=".2262" stroke-dasharray="1,5" d="M1068.1607,-518.7824C1026.7757,-506.9644 949.7333,-484.3917 885,-462.1981 872.0349,-457.753 857.9768,-452.5114 845.518,-447.7161"/>
<polygon fill="#ff0000" stroke="#ff0000" stroke-width=".2262" points="846.5094,-444.3465 835.9206,-443.9898 843.9758,-450.8719 846.5094,-444.3465"/>
</g>
<!-- 959 -->
<g id="node22" class="node">
<title>959</title>
<ellipse fill="#ffffff" stroke="#000000" cx="1136" cy="-339.2239" rx="25" ry="25"/>
<text text-anchor="middle" x="1136" y="-337.0239" font-family="Times,serif" font-size="9.00" fill="#000000">959</text>
</g>
<!-- other_dir&#45;&gt;959 -->
<g id="edge47" class="edge">
<title>other_dir&#45;&gt;959</title>
<path fill="none" stroke="#00ff00" stroke-width=".2962" stroke-dasharray="1,5" d="M1091.2478,-517.9218C1076.8797,-496.9838 1046.0062,-444.6977 1064,-404.2153 1065.2755,-401.3456 1089.5191,-379.7465 1109.5261,-362.2235"/>
<polygon fill="#00ff00" stroke="#00ff00" stroke-width=".2962" points="1111.9778,-364.7292 1117.2059,-355.5141 1107.3723,-359.4576 1111.9778,-364.7292"/>
</g>
<!-- 850 -->
<g id="node25" class="node">
<title>850</title>
<ellipse fill="#ffffff" stroke="#000000" cx="1098" cy="-433.2067" rx="25" ry="25"/>
<text text-anchor="middle" x="1098" y="-431.0067" font-family="Times,serif" font-size="9.00" fill="#000000">850</text>
</g>
<!-- other_dir&#45;&gt;850 -->
<g id="edge14" class="edge">
<title>other_dir&#45;&gt;850</title>
<path fill="none" stroke="#00ff00" stroke-width=".5598" d="M1098,-518.178C1098,-506.733 1098,-486.3103 1098,-468.3552"/>
<polygon fill="#00ff00" stroke="#00ff00" stroke-width=".5598" points="1101.5001,-468.1552 1098,-458.1552 1094.5001,-468.1552 1101.5001,-468.1552"/>
</g>
<!-- 1766 -->
<g id="node30" class="node">
<title>1766</title>
<ellipse fill="#ffffff" stroke="#000000" cx="1170" cy="-433.2067" rx="28.9828" ry="28.9828"/>
<text text-anchor="middle" x="1170" y="-431.0067" font-family="Times,serif" font-size="9.00" fill="#000000">1766</text>
</g>
<!-- other_dir&#45;&gt;1766 -->
<g id="edge61" class="edge">
<title>other_dir&#45;&gt;1766</title>
<path fill="none" stroke="#00ff00" stroke-width=".1908" d="M1104.9037,-518.178C1114.2857,-505.9315 1131.5425,-483.4058 1145.9318,-464.6232"/>
<polygon fill="#00ff00" stroke="#00ff00" stroke-width=".1908" points="1148.7936,-466.6429 1152.0967,-456.5761 1143.2368,-462.3859 1148.7936,-466.6429"/>
</g>
<!-- 388 -->
<g id="node9" class="node">
<title>388</title>
<ellipse fill="#ffffff" stroke="#000000" cx="585" cy="-245.2412" rx="25" ry="25"/>
<text text-anchor="middle" x="585" y="-243.0412" font-family="Times,serif" font-size="9.00" fill="#000000">388</text>
</g>
<!-- 388&#45;&gt;backward -->
<g id="edge50" class="edge">
<title>388&#45;&gt;backward</title>
<path fill="none" stroke="#00ff00" stroke-width=".3944" d="M602.6734,-227.7554C617.1493,-213.4332 638.157,-192.6486 656.4774,-174.5227"/>
<polygon fill="#00ff00" stroke="#00ff00" stroke-width=".3944" points="658.9624,-176.9876 663.6095,-167.4663 654.0392,-172.0115 658.9624,-176.9876"/>
</g>
<!-- 388&#45;&gt;right -->
<g id="edge58" class="edge">
<title>388&#45;&gt;right</title>
<path fill="none" stroke="#00ff00" stroke-width=".1677" stroke-dasharray="1,5" d="M567.231,-227.6415C534.0042,-195.7498 458.933,-128.399 383,-92.5685 305.8533,-56.1654 206.2328,-39.3287 152.4841,-32.4329"/>
<polygon fill="#00ff00" stroke="#00ff00" stroke-width=".1677" points="152.7199,-28.9355 142.3663,-31.1835 151.8619,-35.8828 152.7199,-28.9355"/>
</g>
<!-- 3329 -->
<g id="node10" class="node">
<title>3329</title>
<ellipse fill="#ffffff" stroke="#000000" cx="695" cy="-245.2412" rx="28.9828" ry="28.9828"/>
<text text-anchor="middle" x="695" y="-243.0412" font-family="Times,serif" font-size="9.00" fill="#000000">3329</text>
</g>
<!-- 3329&#45;&gt;backward -->
<g id="edge53" class="edge">
<title>3329&#45;&gt;backward</title>
<path fill="none" stroke="#00ff00" stroke-width=".295" d="M695,-216.0762C695,-208.2018 695,-199.421 695,-190.6464"/>
<polygon fill="#00ff00" stroke="#00ff00" stroke-width=".295" points="698.5001,-190.4032 695,-180.4032 691.5001,-190.4033 698.5001,-190.4032"/>
</g>
<!-- 2952 -->
<g id="node11" class="node">
<title>2952</title>
<ellipse fill="#ffffff" stroke="#000000" cx="171" cy="-136.4092" rx="28.9828" ry="28.9828"/>
<text text-anchor="middle" x="171" y="-134.2092" font-family="Times,serif" font-size="9.00" fill="#000000">2952</text>
</g>
<!-- 2952&#45;&gt;right -->
<g id="edge44" class="edge">
<title>2952&#45;&gt;right</title>
<path fill="none" stroke="#00ff00" stroke-width=".4596" d="M157.3471,-110.5106C149.8193,-96.2309 140.3741,-78.3141 132.2237,-62.8532"/>
<polygon fill="#00ff00" stroke="#00ff00" stroke-width=".4596" points="135.1044,-60.8124 127.3448,-53.5985 128.9121,-64.0768 135.1044,-60.8124"/>
</g>
<!-- 2828 -->
<g id="node12" class="node">
<title>2828</title>
<ellipse fill="#ffffff" stroke="#000000" cx="1121" cy="-245.2412" rx="28.9828" ry="28.9828"/>
<text text-anchor="middle" x="1121" y="-243.0412" font-family="Times,serif" font-size="9.00" fill="#000000">2828</text>
</g>
<!-- 2828&#45;&gt;forward -->
<g id="edge48" class="edge">
<title>2828&#45;&gt;forward</title>
<path fill="none" stroke="#ff0000" stroke-width=".1793" d="M1104.3215,-221.3575C1094.9571,-207.9477 1083.0386,-190.8804 1072.3448,-175.5669"/>
<polygon fill="#ff0000" stroke="#ff0000" stroke-width=".1793" points="1075.1489,-173.4692 1066.5538,-167.2743 1069.4097,-177.477 1075.1489,-173.4692"/>
</g>
<!-- 2721&#45;&gt;2579 -->
<g id="edge55" class="edge">
<title>2721&#45;&gt;2579</title>
<path fill="none" stroke="#00ff00" stroke-width=".1949" d="M95,-310.0024C95,-301.9576 95,-293.0979 95,-284.5827"/>
<polygon fill="#00ff00" stroke="#00ff00" stroke-width=".1949" points="98.5001,-284.4446 95,-274.4446 91.5001,-284.4447 98.5001,-284.4446"/>
</g>
<!-- 1195 -->
<g id="node19" class="node">
<title>1195</title>
<ellipse fill="#ffffff" stroke="#000000" cx="171" cy="-245.2412" rx="28.9828" ry="28.9828"/>
<text text-anchor="middle" x="171" y="-243.0412" font-family="Times,serif" font-size="9.00" fill="#000000">1195</text>
</g>
<!-- 903&#45;&gt;1195 -->
<g id="edge60" class="edge">
<title>903&#45;&gt;1195</title>
<path fill="none" stroke="#00ff00" stroke-width=".4066" stroke-dasharray="1,5" d="M275.6933,-412.01C255.3263,-379.5668 216.2412,-317.3071 192.0165,-278.719"/>
<polygon fill="#00ff00" stroke="#00ff00" stroke-width=".4066" points="194.7754,-276.5308 186.4942,-269.9223 188.8468,-280.2526 194.7754,-276.5308"/>
</g>
<!-- 484 -->
<g id="node29" class="node">
<title>484</title>
<ellipse fill="#ffffff" stroke="#000000" cx="388" cy="-339.2239" rx="25" ry="25"/>
<text text-anchor="middle" x="388" y="-337.0239" font-family="Times,serif" font-size="9.00" fill="#000000">484</text>
</g>
<!-- 903&#45;&gt;484 -->
<g id="edge43" class="edge">
<title>903&#45;&gt;484</title>
<path fill="none" stroke="#00ff00" stroke-width=".1975" d="M307.1581,-415.9688C322.6485,-401.2634 345.0953,-379.9542 362.4075,-363.5194"/>
<polygon fill="#00ff00" stroke="#00ff00" stroke-width=".1975" points="365.1142,-365.7758 369.957,-356.3525 360.2948,-360.6991 365.1142,-365.7758"/>
</g>
<!-- 1735 -->
<g id="node23" class="node">
<title>1735</title>
<ellipse fill="#ffffff" stroke="#000000" cx="969" cy="-245.2412" rx="28.9828" ry="28.9828"/>
<text text-anchor="middle" x="969" y="-243.0412" font-family="Times,serif" font-size="9.00" fill="#000000">1735</text>
</g>
<!-- 1328&#45;&gt;1735 -->
<g id="edge57" class="edge">
<title>1328&#45;&gt;1735</title>
<path fill="none" stroke="#00ff00" stroke-width=".3107" d="M935.8136,-313.0445C940.7071,-303.0465 946.3716,-291.4733 951.6202,-280.75"/>
<polygon fill="#00ff00" stroke="#00ff00" stroke-width=".3107" points="954.843,-282.1267 956.0956,-271.6062 948.5557,-279.0493 954.843,-282.1267"/>
</g>
<!-- 1841&#45;&gt;959 -->
<g id="edge7" class="edge">
<title>1841&#45;&gt;959</title>
<path fill="none" stroke="#00ff00" stroke-width=".2084" d="M835.6492,-421.5379C850.0343,-415.6248 868.2338,-408.7548 885,-404.2153 979.365,-378.6656 1013.3513,-409.4336 1102,-368.2153 1104.862,-366.8846 1107.6731,-365.2445 1110.3773,-363.427"/>
<polygon fill="#00ff00" stroke="#00ff00" stroke-width=".2084" points="1112.7464,-366.0222 1118.5815,-357.179 1108.5053,-360.4533 1112.7464,-366.0222"/>
</g>
<!-- 1841&#45;&gt;2891 -->
<g id="edge59" class="edge">
<title>1841&#45;&gt;2891</title>
<path fill="none" stroke="#ff0000" stroke-width=".2037" d="M780.2162,-429.294C681.7601,-415.8851 363.9468,-372.3833 354,-368.2153 351.3453,-367.1029 348.7123,-365.7597 346.1439,-364.2686"/>
<polygon fill="#ff0000" stroke="#ff0000" stroke-width=".2037" points="348.0052,-361.3038 337.7227,-358.7501 344.1684,-367.1586 348.0052,-361.3038"/>
</g>
<!-- 1841&#45;&gt;1650 -->
<g id="edge1" class="edge">
<title>1841&#45;&gt;1650</title>
<path fill="none" stroke="#ff0000" stroke-width=".7017" stroke-dasharray="1,5" d="M781.3918,-423.756C750.1613,-412.5373 698.2805,-392.2852 657,-368.2153 654.7419,-366.8987 652.4643,-365.4671 650.2059,-363.9688"/>
<polygon fill="#ff0000" stroke="#ff0000" stroke-width=".7017" points="651.8658,-360.857 641.6743,-357.9614 647.8356,-366.5805 651.8658,-360.857"/>
</g>
<!-- 2691&#45;&gt;484 -->
<g id="edge12" class="edge">
<title>2691&#45;&gt;484</title>
<path fill="none" stroke="#ff0000" stroke-width=".247" stroke-dasharray="1,5" d="M455.2584,-411.8805C442.3653,-397.9526 425.4554,-379.6856 411.8168,-364.9523"/>
<polygon fill="#ff0000" stroke="#ff0000" stroke-width=".247" points="414.3831,-362.5724 405.0214,-357.6115 409.2462,-367.3276 414.3831,-362.5724"/>
</g>
<!-- 1195&#45;&gt;right -->
<g id="edge6" class="edge">
<title>1195&#45;&gt;right</title>
<path fill="none" stroke="#00ff00" stroke-width=".5788" stroke-dasharray="1,5" d="M154.0933,-221.6791C146.4104,-209.8063 137.9501,-194.8569 133,-180.2498 120.3879,-143.0331 116.0056,-98.1388 114.5542,-66.8358"/>
<polygon fill="#00ff00" stroke="#00ff00" stroke-width=".5788" points="118.0489,-66.6297 114.1667,-56.7718 111.0541,-66.8991 118.0489,-66.6297"/>
</g>
<!-- 1195&#45;&gt;2952 -->
<g id="edge3" class="edge">
<title>1195&#45;&gt;2952</title>
<path fill="none" stroke="#ff0000" stroke-width=".779" d="M171,-216.0762C171,-203.755 171,-189.2145 171,-175.9511"/>
<polygon fill="#ff0000" stroke="#ff0000" stroke-width=".779" points="174.5001,-175.6546 171,-165.6546 167.5001,-175.6547 174.5001,-175.6546"/>
</g>
<!-- 2232 -->
<g id="node20" class="node">
<title>2232</title>
<ellipse fill="#ffffff" stroke="#000000" cx="418" cy="-527.1894" rx="28.9828" ry="28.9828"/>
<text text-anchor="middle" x="418" y="-524.9894" font-family="Times,serif" font-size="9.00" fill="#000000">2232</text>
</g>
<!-- 2232&#45;&gt;2691 -->
<g id="edge9" class="edge">
<title>2232&#45;&gt;2691</title>
<path fill="none" stroke="#ff0000" stroke-width=".2537" d="M433.275,-502.0038C439.8445,-491.1717 447.6188,-478.3534 454.6656,-466.7345"/>
<polygon fill="#ff0000" stroke="#ff0000" stroke-width=".2537" points="457.6874,-468.5013 459.8805,-458.136 451.7021,-464.8713 457.6874,-468.5013"/>
</g>
<!-- 2232&#45;&gt;484 -->
<g id="edge40" class="edge">
<title>2232&#45;&gt;484</title>
<path fill="none" stroke="#ff0000" stroke-width=".5684" stroke-dasharray="1,5" d="M413.6636,-498.3482C409.8862,-473.4151 404.2124,-436.4167 399,-404.2153 397.4154,-394.426 395.6432,-383.8172 393.9919,-374.0654"/>
<polygon fill="#ff0000" stroke="#ff0000" stroke-width=".5684" points="397.39,-373.1705 392.2622,-363.8993 390.4892,-374.3447 397.39,-373.1705"/>
</g>
<!-- 3051 -->
<g id="node32" class="node">
<title>3051</title>
<ellipse fill="#ffffff" stroke="#000000" cx="361" cy="-433.2067" rx="28.9828" ry="28.9828"/>
<text text-anchor="middle" x="361" y="-431.0067" font-family="Times,serif" font-size="9.00" fill="#000000">3051</text>
</g>
<!-- 2232&#45;&gt;3051 -->
<g id="edge39" class="edge">
<title>2232&#45;&gt;3051</title>
<path fill="none" stroke="#ff0000" stroke-width=".3917" d="M402.725,-502.0038C396.1555,-491.1717 388.3812,-478.3534 381.3344,-466.7345"/>
<polygon fill="#ff0000" stroke="#ff0000" stroke-width=".3917" points="384.2979,-464.8713 376.1195,-458.136 378.3126,-468.5013 384.2979,-464.8713"/>
</g>
<!-- 2105&#45;&gt;1328 -->
<g id="edge28" class="edge">
<title>2105&#45;&gt;1328</title>
<path fill="none" stroke="#00ff00" stroke-width=".2515" stroke-dasharray="1,5" d="M923,-403.9851C923,-395.9403 923,-387.0807 923,-378.5654"/>
<polygon fill="#00ff00" stroke="#00ff00" stroke-width=".2515" points="926.5001,-378.4274 923,-368.4274 919.5001,-378.4274 926.5001,-378.4274"/>
</g>
<!-- 1735&#45;&gt;forward -->
<g id="edge17" class="edge">
<title>1735&#45;&gt;forward</title>
<path fill="none" stroke="#00ff00" stroke-width=".3196" d="M985.6785,-221.3575C995.0429,-207.9477 1006.9614,-190.8804 1017.6552,-175.5669"/>
<polygon fill="#00ff00" stroke="#00ff00" stroke-width=".3196" points="1020.5903,-177.477 1023.4462,-167.2743 1014.8511,-173.4692 1020.5903,-177.477"/>
</g>
<!-- 2891&#45;&gt;left -->
<g id="edge32" class="edge">
<title>2891&#45;&gt;left</title>
<path fill="none" stroke="#ff0000" stroke-width=".1658" d="M300.8704,-314.2482C294.6367,-302.5406 288.1453,-288.1323 285,-274.2325 279.3125,-249.0979 276.2752,-240.498 285,-216.2498 293.1404,-193.6259 310.7792,-172.8566 325.7751,-158.1753"/>
<polygon fill="#ff0000" stroke="#ff0000" stroke-width=".1658" points="328.4329,-160.48 333.3118,-151.0753 323.633,-155.3848 328.4329,-160.48"/>
</g>
<!-- 2891&#45;&gt;1195 -->
<g id="edge46" class="edge">
<title>2891&#45;&gt;1195</title>
<path fill="none" stroke="#00ff00" stroke-width=".3671" d="M291.9665,-322.8602C285.8052,-318.7093 279.1745,-314.2801 273,-310.2325 250.2075,-295.2912 224.3073,-278.7943 204.3096,-266.1598"/>
<polygon fill="#00ff00" stroke="#00ff00" stroke-width=".3671" points="206.1738,-263.1976 195.8487,-260.8222 202.4389,-269.118 206.1738,-263.1976"/>
</g>
<!-- 1369 -->
<g id="node26" class="node">
<title>1369</title>
<ellipse fill="#ffffff" stroke="#000000" cx="323" cy="-245.2412" rx="28.9828" ry="28.9828"/>
<text text-anchor="middle" x="323" y="-243.0412" font-family="Times,serif" font-size="9.00" fill="#000000">1369</text>
</g>
<!-- 1369&#45;&gt;left -->
<g id="edge23" class="edge">
<title>1369&#45;&gt;left</title>
<path fill="none" stroke="#00ff00" stroke-width=".2862" d="M330.2836,-216.9309C334.1016,-202.091 338.7929,-183.8563 342.7452,-168.4943"/>
<polygon fill="#00ff00" stroke="#00ff00" stroke-width=".2862" points="346.2414,-168.9518 345.3435,-158.3951 339.4622,-167.2076 346.2414,-168.9518"/>
</g>
<!-- 348&#45;&gt;forward -->
<g id="edge22" class="edge">
<title>348&#45;&gt;forward</title>
<path fill="none" stroke="#00ff00" stroke-width=".264" d="M564.3289,-321.0696C569.3106,-316.8479 575.0251,-312.8327 581,-310.2325 708.992,-254.5325 774.2013,-347.5217 893,-274.2325 919.2227,-258.0553 909.5515,-238.3698 931,-216.2498 952.3283,-194.2536 980.4966,-174.4596 1003.4964,-160.0828"/>
<polygon fill="#00ff00" stroke="#00ff00" stroke-width=".264" points="1005.3402,-163.0578 1012.0332,-154.8447 1001.6793,-157.0914 1005.3402,-163.0578"/>
</g>
<!-- 348&#45;&gt;left -->
<g id="edge54" class="edge">
<title>348&#45;&gt;left</title>
<path fill="none" stroke="#ff0000" stroke-width=".3773" d="M523.7998,-329.5235C499.9341,-318.6909 462.7149,-299.3321 437,-274.2325 404.5824,-242.5907 378.9897,-196.4004 364.4189,-166.3729"/>
<polygon fill="#ff0000" stroke="#ff0000" stroke-width=".3773" points="367.5298,-164.7646 360.0807,-157.2306 361.2057,-167.7655 367.5298,-164.7646"/>
</g>
<!-- 348&#45;&gt;388 -->
<g id="edge30" class="edge">
<title>348&#45;&gt;388</title>
<path fill="none" stroke="#ff0000" stroke-width=".3031" stroke-dasharray="1,5" d="M556.3933,-315.9922C561.087,-304.3835 566.8422,-290.1496 571.9567,-277.5001"/>
<polygon fill="#ff0000" stroke="#ff0000" stroke-width=".3031" points="575.211,-278.7885 575.7148,-268.2056 568.7214,-276.1645 575.211,-278.7885"/>
</g>
<!-- 2934 -->
<g id="node35" class="node">
<title>2934</title>
<ellipse fill="#ffffff" stroke="#000000" cx="475" cy="-245.2412" rx="28.9828" ry="28.9828"/>
<text text-anchor="middle" x="475" y="-243.0412" font-family="Times,serif" font-size="9.00" fill="#000000">2934</text>
</g>
<!-- 348&#45;&gt;2934 -->
<g id="edge25" class="edge">
<title>348&#45;&gt;2934</title>
<path fill="none" stroke="#00ff00" stroke-width=".8304" d="M531.7307,-319.2926C522.2068,-306.8609 509.7465,-290.5963 498.9301,-276.4775"/>
<polygon fill="#00ff00" stroke="#00ff00" stroke-width=".8304" points="501.6461,-274.2675 492.7862,-268.4578 496.0893,-278.5246 501.6461,-274.2675"/>
</g>
<!-- 2273&#45;&gt;backward -->
<g id="edge13" class="edge">
<title>2273&#45;&gt;backward</title>
<path fill="none" stroke="#ff0000" stroke-width=".791" stroke-dasharray="1,5" d="M677.2935,-315.9054C669.4213,-304.0903 661.0326,-289.119 657,-274.2325 650.2619,-249.3589 651.3231,-241.3868 657,-216.2498 659.4596,-205.3585 663.5891,-194.2111 668.241,-183.8322"/>
<polygon fill="#ff0000" stroke="#ff0000" stroke-width=".791" points="671.521,-185.083 672.6271,-174.5461 665.1915,-182.0934 671.521,-185.083"/>
</g>
<!-- 2273&#45;&gt;3329 -->
<g id="edge20" class="edge">
<title>2273&#45;&gt;3329</title>
<path fill="none" stroke="#00ff00" stroke-width=".3128" d="M695,-310.0024C695,-301.9576 695,-293.0979 695,-284.5827"/>
<polygon fill="#00ff00" stroke="#00ff00" stroke-width=".3128" points="698.5001,-284.4446 695,-274.4446 691.5001,-284.4447 698.5001,-284.4446"/>
</g>
<!-- 484&#45;&gt;backward -->
<g id="edge18" class="edge">
<title>484&#45;&gt;backward</title>
<path fill="none" stroke="#00ff00" stroke-width=".1489" stroke-dasharray="1,5" d="M411.8328,-331.0529C438.738,-320.9368 482.7,-301.626 513,-274.2325 535.8555,-253.5695 528.4233,-237.2171 551,-216.2498 578.311,-190.8857 615.1575,-170.647 644.7411,-156.8925"/>
<polygon fill="#00ff00" stroke="#00ff00" stroke-width=".1489" points="646.4116,-159.9779 654.0696,-152.6563 643.5173,-153.6043 646.4116,-159.9779"/>
</g>
<!-- 484&#45;&gt;left -->
<g id="edge24" class="edge">
<title>484&#45;&gt;left</title>
<path fill="none" stroke="#ff0000" stroke-width=".1639" d="M383.5369,-314.7597C376.8711,-278.221 364.307,-209.3511 356.8936,-168.7148"/>
<polygon fill="#ff0000" stroke="#ff0000" stroke-width=".1639" points="360.3199,-167.994 355.082,-158.7845 353.4336,-169.2503 360.3199,-167.994"/>
</g>
<!-- 484&#45;&gt;1369 -->
<g id="edge56" class="edge">
<title>484&#45;&gt;1369</title>
<path fill="none" stroke="#00ff00" stroke-width=".3079" stroke-dasharray="1,5" d="M373.896,-318.8311C365.5474,-306.76 354.7841,-291.1975 345.3073,-277.495"/>
<polygon fill="#00ff00" stroke="#00ff00" stroke-width=".3079" points="348.1729,-275.4852 339.606,-269.2515 342.4157,-279.467 348.1729,-275.4852"/>
</g>
<!-- 3051&#45;&gt;484 -->
<g id="edge31" class="edge">
<title>3051&#45;&gt;484</title>
<path fill="none" stroke="#ff0000" stroke-width=".4087" d="M369.0278,-405.2632C371.9492,-395.0942 375.2822,-383.4926 378.331,-372.8803"/>
<polygon fill="#ff0000" stroke="#ff0000" stroke-width=".4087" points="381.7469,-373.6655 381.1442,-363.0878 375.019,-371.7326 381.7469,-373.6655"/>
</g>
<!-- 2673 -->
<g id="node33" class="node">
<title>2673</title>
<ellipse fill="#ffffff" stroke="#000000" cx="1064" cy="-339.2239" rx="28.9828" ry="28.9828"/>
<text text-anchor="middle" x="1064" y="-337.0239" font-family="Times,serif" font-size="9.00" fill="#000000">2673</text>
</g>
<!-- 2673&#45;&gt;forward -->
<g id="edge27" class="edge">
<title>2673&#45;&gt;forward</title>
<path fill="none" stroke="#00ff00" stroke-width=".1116" stroke-dasharray="1,5" d="M1061.2778,-310.1655C1058.1976,-277.2868 1053.1341,-223.236 1049.4715,-184.1399"/>
<polygon fill="#00ff00" stroke="#00ff00" stroke-width=".1116" points="1052.9431,-183.6728 1048.5256,-174.0428 1045.9737,-184.3257 1052.9431,-183.6728"/>
</g>
<!-- 2673&#45;&gt;backward -->
<g id="edge19" class="edge">
<title>2673&#45;&gt;backward</title>
<path fill="none" stroke="#ff0000" stroke-width=".1407" d="M1036.1043,-331.0434C1015.4297,-325.0607 986.5313,-316.8663 961,-310.2325 894.2251,-292.8826 867.7904,-311.9176 810,-274.2325 782.9024,-256.5622 786.5419,-241.2407 766,-216.2498 755.1729,-203.0777 742.9671,-189.0711 731.7686,-176.5275"/>
<polygon fill="#ff0000" stroke="#ff0000" stroke-width=".1407" points="734.2315,-174.0317 724.9474,-168.927 729.0218,-178.7071 734.2315,-174.0317"/>
</g>
<!-- 2673&#45;&gt;2828 -->
<g id="edge36" class="edge">
<title>2673&#45;&gt;2828</title>
<path fill="none" stroke="#ff0000" stroke-width=".1763" d="M1079.275,-314.0383C1085.8445,-303.2062 1093.6188,-290.3879 1100.6656,-278.769"/>
<polygon fill="#ff0000" stroke="#ff0000" stroke-width=".1763" points="1103.6874,-280.5358 1105.8805,-270.1704 1097.7021,-276.9058 1103.6874,-280.5358"/>
</g>
<!-- 1650&#45;&gt;388 -->
<g id="edge51" class="edge">
<title>1650&#45;&gt;388</title>
<path fill="none" stroke="#ff0000" stroke-width=".6799" stroke-dasharray="1,5" d="M609.0744,-311.7876C605.2927,-301.3342 600.9425,-289.3094 596.9893,-278.3819"/>
<polygon fill="#ff0000" stroke="#ff0000" stroke-width=".6799" points="600.1913,-276.9444 593.4981,-268.7316 593.6088,-279.3258 600.1913,-276.9444"/>
</g>
<!-- 2934&#45;&gt;left -->
<g id="edge2" class="edge">
<title>2934&#45;&gt;left</title>
<path fill="none" stroke="#00ff00" stroke-width=".7472" d="M453.1167,-226.0347C431.4731,-207.0386 398.3991,-178.0103 375.795,-158.1712"/>
<polygon fill="#00ff00" stroke="#00ff00" stroke-width=".7472" points="378.0968,-155.5346 368.2722,-151.5686 373.4793,-160.7956 378.0968,-155.5346"/>
</g>
<!-- 3580&#45;&gt;348 -->
<g id="edge5" class="edge">
<title>3580&#45;&gt;348</title>
<path fill="none" stroke="#00ff00" stroke-width=".2062" d="M549.7563,-403.9851C549.3555,-394.5671 548.9071,-384.0323 548.4904,-374.2407"/>
<polygon fill="#00ff00" stroke="#00ff00" stroke-width=".2062" points="551.9765,-373.8376 548.0543,-363.9955 544.9828,-374.1353 551.9765,-373.8376"/>
</g>
</g>
</svg>
