<?xml version="1.0" encoding="UTF-8" standalone="no"?>
<!DOCTYPE svg PUBLIC "-//W3C//DTD SVG 1.1//EN"
 "http://www.w3.org/Graphics/SVG/1.1/DTD/svg11.dtd">
<!-- Generated by graphviz version 2.40.1 (20161225.0304)
 -->
<!-- Title: %3 Pages: 1 -->
<svg width="1547pt" height="677pt"
 viewBox="0.00 0.00 1547.46 676.55" xmlns="http://www.w3.org/2000/svg" xmlns:xlink="http://www.w3.org/1999/xlink">
<g id="graph0" class="graph" transform="scale(1 1) rotate(0) translate(4 672.5483)">
<title>%3</title>
<polygon fill="#ffffff" stroke="transparent" points="-4,4 -4,-672.5483 1543.4603,-672.5483 1543.4603,4 -4,4"/>
<!-- center_dist -->
<g id="node1" class="node">
<title>center_dist</title>
<polygon fill="#d3d3d3" stroke="#000000" points="166.9914,-554.5742 98.9914,-554.5742 98.9914,-536.5742 166.9914,-536.5742 166.9914,-554.5742"/>
<text text-anchor="middle" x="132.9914" y="-543.3742" font-family="Times,serif" font-size="9.00" fill="#000000">center_dist</text>
</g>
<!-- left -->
<g id="node7" class="node">
<title>left</title>
<ellipse fill="#add8e6" stroke="#000000" cx="779.9914" cy="-28.9914" rx="22.7556" ry="22.7556"/>
<text text-anchor="middle" x="779.9914" y="-26.7914" font-family="Times,serif" font-size="9.00" fill="#000000">left</text>
</g>
<!-- center_dist&#45;&gt;left -->
<g id="edge43" class="edge">
<title>center_dist&#45;&gt;left</title>
<path fill="none" stroke="#ff0000" stroke-width=".6887" stroke-dasharray="1,5" d="M167.1829,-538.502C200.9014,-529.9549 252.038,-512.5626 284.9914,-480.5828 328.2219,-438.6295 341.9914,-417.8496 341.9914,-357.6087 341.9914,-357.6087 341.9914,-357.6087 341.9914,-255.1407 341.9914,-72.6811 645.7917,-37.2787 747.3635,-30.5412"/>
<polygon fill="#ff0000" stroke="#ff0000" stroke-width=".6887" points="747.5977,-34.0335 757.3649,-29.9284 747.1695,-27.0466 747.5977,-34.0335"/>
</g>
<!-- right -->
<g id="node8" class="node">
<title>right</title>
<ellipse fill="#add8e6" stroke="#000000" cx="246.9914" cy="-137.8234" rx="28.0702" ry="28.0702"/>
<text text-anchor="middle" x="246.9914" y="-135.6234" font-family="Times,serif" font-size="9.00" fill="#000000">right</text>
</g>
<!-- center_dist&#45;&gt;right -->
<g id="edge59" class="edge">
<title>center_dist&#45;&gt;right</title>
<path fill="none" stroke="#00ff00" stroke-width=".4171" stroke-dasharray="1,5" d="M133.6214,-536.3757C136.5722,-496.8405 150.9263,-337.9128 197.9914,-217.664 204.6183,-200.7326 214.8021,-183.3627 224.1723,-169.1663"/>
<polygon fill="#00ff00" stroke="#00ff00" stroke-width=".4171" points="227.15,-171.0112 229.8624,-160.7694 221.3552,-167.0844 227.15,-171.0112"/>
</g>
<!-- 2579 -->
<g id="node13" class="node">
<title>2579</title>
<ellipse fill="#ffffff" stroke="#000000" cx="28.9914" cy="-357.6087" rx="28.9828" ry="28.9828"/>
<text text-anchor="middle" x="28.9914" y="-355.4087" font-family="Times,serif" font-size="9.00" fill="#000000">2579</text>
</g>
<!-- center_dist&#45;&gt;2579 -->
<g id="edge13" class="edge">
<title>center_dist&#45;&gt;2579</title>
<path fill="none" stroke="#00ff00" stroke-width=".5554" stroke-dasharray="1,5" d="M99.3718,-536.5716C72.3467,-527.3653 36.1586,-510.1309 18.9914,-480.5828 3.982,-454.7488 8.2974,-420.5589 15.3348,-394.7882"/>
<polygon fill="#00ff00" stroke="#00ff00" stroke-width=".5554" points="18.747,-395.5926 18.2424,-385.0098 12.0374,-393.5975 18.747,-395.5926"/>
</g>
<!-- 5596 -->
<g id="node16" class="node">
<title>5596</title>
<ellipse fill="#ffffff" stroke="#000000" cx="56.9914" cy="-451.5914" rx="28.9828" ry="28.9828"/>
<text text-anchor="middle" x="56.9914" y="-449.3914" font-family="Times,serif" font-size="9.00" fill="#000000">5596</text>
</g>
<!-- center_dist&#45;&gt;5596 -->
<g id="edge67" class="edge">
<title>center_dist&#45;&gt;5596</title>
<path fill="none" stroke="#ff0000" stroke-width=".2709" d="M125.7042,-536.5627C115.6265,-524.1005 96.9411,-500.9938 81.5969,-482.019"/>
<polygon fill="#ff0000" stroke="#ff0000" stroke-width=".2709" points="84.2697,-479.758 75.2602,-474.183 78.8267,-484.1595 84.2697,-479.758"/>
</g>
<!-- 3640 -->
<g id="node23" class="node">
<title>3640</title>
<ellipse fill="#ffffff" stroke="#000000" cx="142.9914" cy="-137.8234" rx="28.9828" ry="28.9828"/>
<text text-anchor="middle" x="142.9914" y="-135.6234" font-family="Times,serif" font-size="9.00" fill="#000000">3640</text>
</g>
<!-- center_dist&#45;&gt;3640 -->
<g id="edge36" class="edge">
<title>center_dist&#45;&gt;3640</title>
<path fill="none" stroke="#00ff00" stroke-width=".3668" d="M132.9725,-536.442C132.9258,-497.8059 133.0764,-343.9652 137.9914,-217.664 138.507,-204.4139 139.3335,-189.9417 140.1673,-177.002"/>
<polygon fill="#00ff00" stroke="#00ff00" stroke-width=".3668" points="143.6607,-177.216 140.8317,-167.0058 136.6761,-176.7516 143.6607,-177.216"/>
</g>
<!-- 2891 -->
<g id="node27" class="node">
<title>2891</title>
<ellipse fill="#ffffff" stroke="#000000" cx="246.9914" cy="-451.5914" rx="28.9828" ry="28.9828"/>
<text text-anchor="middle" x="246.9914" y="-449.3914" font-family="Times,serif" font-size="9.00" fill="#000000">2891</text>
</g>
<!-- center_dist&#45;&gt;2891 -->
<g id="edge7" class="edge">
<title>center_dist&#45;&gt;2891</title>
<path fill="none" stroke="#00ff00" stroke-width="1.0298" d="M143.9222,-536.5627C160.5451,-522.8586 192.7813,-496.2827 216.797,-476.484"/>
<polygon fill="#00ff00" stroke="#00ff00" stroke-width="1.0298" points="219.1023,-479.1195 224.5919,-470.0578 214.6495,-473.7183 219.1023,-479.1195"/>
</g>
<!-- center_dir -->
<g id="node2" class="node">
<title>center_dir</title>
<polygon fill="#d3d3d3" stroke="#000000" points="1225.4914,-264.1407 1160.4914,-264.1407 1160.4914,-246.1407 1225.4914,-246.1407 1225.4914,-264.1407"/>
<text text-anchor="middle" x="1192.9914" y="-252.9407" font-family="Times,serif" font-size="9.00" fill="#000000">center_dir</text>
</g>
<!-- backward -->
<g id="node6" class="node">
<title>backward</title>
<ellipse fill="#add8e6" stroke="#000000" cx="1162.9914" cy="-137.8234" rx="43.6818" ry="43.6818"/>
<text text-anchor="middle" x="1162.9914" y="-135.6234" font-family="Times,serif" font-size="9.00" fill="#000000">backward</text>
</g>
<!-- center_dir&#45;&gt;backward -->
<g id="edge44" class="edge">
<title>center_dir&#45;&gt;backward</title>
<path fill="none" stroke="#ff0000" stroke-width=".4548" d="M1190.6373,-245.935C1187.537,-233.8108 1181.8419,-211.5397 1176.4229,-190.3482"/>
<polygon fill="#ff0000" stroke="#ff0000" stroke-width=".4548" points="1179.7488,-189.2268 1173.8804,-180.4057 1172.967,-190.9611 1179.7488,-189.2268"/>
</g>
<!-- other_dist -->
<g id="node3" class="node">
<title>other_dist</title>
<polygon fill="#d3d3d3" stroke="#000000" points="992.4914,-648.557 929.4914,-648.557 929.4914,-630.557 992.4914,-630.557 992.4914,-648.557"/>
<text text-anchor="middle" x="960.9914" y="-637.357" font-family="Times,serif" font-size="9.00" fill="#000000">other_dist</text>
</g>
<!-- forward -->
<g id="node5" class="node">
<title>forward</title>
<ellipse fill="#add8e6" stroke="#000000" cx="561.9914" cy="-255.1407" rx="37.4533" ry="37.4533"/>
<text text-anchor="middle" x="561.9914" y="-252.9407" font-family="Times,serif" font-size="9.00" fill="#000000">forward</text>
</g>
<!-- other_dist&#45;&gt;forward -->
<g id="edge63" class="edge">
<title>other_dist&#45;&gt;forward</title>
<path fill="none" stroke="#00ff00" stroke-width=".1611" stroke-dasharray="1,5" d="M929.2176,-631.0854C894.0316,-620.8737 836.4138,-601.6442 791.9914,-574.5656 684.753,-509.1961 640.4638,-497.2178 580.9914,-386.6001 567.2542,-361.0492 562.43,-328.865 561.0762,-302.7369"/>
<polygon fill="#00ff00" stroke="#00ff00" stroke-width=".1611" points="564.5717,-302.5468 560.7079,-292.6817 557.5764,-302.8032 564.5717,-302.5468"/>
</g>
<!-- other_dist&#45;&gt;backward -->
<g id="edge45" class="edge">
<title>other_dist&#45;&gt;backward</title>
<path fill="none" stroke="#ff0000" stroke-width=".6643" stroke-dasharray="1,5" d="M982.5923,-630.4943C1004.4795,-620.1819 1037.6507,-601.2419 1055.9914,-574.5656 1148.3719,-440.1995 1100.438,-375.6001 1140.9914,-217.664 1143.3022,-208.6643 1145.8484,-199.1204 1148.3637,-189.8806"/>
<polygon fill="#ff0000" stroke="#ff0000" stroke-width=".6643" points="1151.8001,-190.5835 1151.0685,-180.0139 1145.0492,-188.7328 1151.8001,-190.5835"/>
</g>
<!-- 4359 -->
<g id="node10" class="node">
<title>4359</title>
<ellipse fill="#ffffff" stroke="#000000" cx="1283.9914" cy="-545.5742" rx="28.9828" ry="28.9828"/>
<text text-anchor="middle" x="1283.9914" y="-543.3742" font-family="Times,serif" font-size="9.00" fill="#000000">4359</text>
</g>
<!-- other_dist&#45;&gt;4359 -->
<g id="edge21" class="edge">
<title>other_dist&#45;&gt;4359</title>
<path fill="none" stroke="#00ff00" stroke-width=".6129" d="M992.7779,-636.7555C1046.9889,-631.026 1159.8174,-614.9207 1245.9914,-574.5656 1248.5981,-573.3449 1251.196,-571.9227 1253.7398,-570.3761"/>
<polygon fill="#00ff00" stroke="#00ff00" stroke-width=".6129" points="1255.7648,-573.2322 1262.1133,-564.75 1251.8609,-567.4219 1255.7648,-573.2322"/>
</g>
<!-- 3864 -->
<g id="node14" class="node">
<title>3864</title>
<ellipse fill="#ffffff" stroke="#000000" cx="903.9914" cy="-545.5742" rx="28.9828" ry="28.9828"/>
<text text-anchor="middle" x="903.9914" y="-543.3742" font-family="Times,serif" font-size="9.00" fill="#000000">3864</text>
</g>
<!-- other_dist&#45;&gt;3864 -->
<g id="edge48" class="edge">
<title>other_dist&#45;&gt;3864</title>
<path fill="none" stroke="#00ff00" stroke-width=".139" stroke-dasharray="1,5" d="M955.526,-630.5455C948.39,-618.7796 935.4996,-597.5256 924.3965,-579.2186"/>
<polygon fill="#00ff00" stroke="#00ff00" stroke-width=".139" points="927.3009,-577.2581 919.1225,-570.5227 921.3157,-580.8881 927.3009,-577.2581"/>
</g>
<!-- 1328 -->
<g id="node20" class="node">
<title>1328</title>
<ellipse fill="#ffffff" stroke="#000000" cx="1207.9914" cy="-545.5742" rx="28.9828" ry="28.9828"/>
<text text-anchor="middle" x="1207.9914" y="-543.3742" font-family="Times,serif" font-size="9.00" fill="#000000">1328</text>
</g>
<!-- other_dist&#45;&gt;1328 -->
<g id="edge30" class="edge">
<title>other_dist&#45;&gt;1328</title>
<path fill="none" stroke="#ff0000" stroke-width=".5158" d="M992.7754,-633.3173C1034.9347,-624.2411 1110.9045,-605.0723 1169.9914,-574.5656 1172.549,-573.2451 1175.1111,-571.7502 1177.6297,-570.1523"/>
<polygon fill="#ff0000" stroke="#ff0000" stroke-width=".5158" points="1179.6981,-572.9777 1185.9545,-564.4273 1175.7316,-567.2099 1179.6981,-572.9777"/>
</g>
<!-- 2691 -->
<g id="node21" class="node">
<title>2691</title>
<ellipse fill="#ffffff" stroke="#000000" cx="1036.9914" cy="-451.5914" rx="28.9828" ry="28.9828"/>
<text text-anchor="middle" x="1036.9914" y="-449.3914" font-family="Times,serif" font-size="9.00" fill="#000000">2691</text>
</g>
<!-- other_dist&#45;&gt;2691 -->
<g id="edge12" class="edge">
<title>other_dist&#45;&gt;2691</title>
<path fill="none" stroke="#00ff00" stroke-width=".2766" d="M960.7028,-630.416C960.3881,-609.3001 961.6284,-555.9309 979.9914,-516.5828 986.6436,-502.3284 997.4035,-488.8519 1007.7923,-477.9056"/>
<polygon fill="#00ff00" stroke="#00ff00" stroke-width=".2766" points="1010.3241,-480.3231 1014.8703,-470.7532 1005.3485,-475.3993 1010.3241,-480.3231"/>
</g>
<!-- 5582 -->
<g id="node28" class="node">
<title>5582</title>
<ellipse fill="#ffffff" stroke="#000000" cx="1017.9914" cy="-545.5742" rx="28.9828" ry="28.9828"/>
<text text-anchor="middle" x="1017.9914" y="-543.3742" font-family="Times,serif" font-size="9.00" fill="#000000">5582</text>
</g>
<!-- other_dist&#45;&gt;5582 -->
<g id="edge28" class="edge">
<title>other_dist&#45;&gt;5582</title>
<path fill="none" stroke="#00ff00" stroke-width=".2665" d="M966.4568,-630.5455C973.5927,-618.7796 986.4832,-597.5256 997.5863,-579.2186"/>
<polygon fill="#00ff00" stroke="#00ff00" stroke-width=".2665" points="1000.6671,-580.8881 1002.8602,-570.5227 994.6818,-577.2581 1000.6671,-580.8881"/>
</g>
<!-- 4181 -->
<g id="node30" class="node">
<title>4181</title>
<ellipse fill="#ffffff" stroke="#000000" cx="1131.9914" cy="-545.5742" rx="28.9828" ry="28.9828"/>
<text text-anchor="middle" x="1131.9914" y="-543.3742" font-family="Times,serif" font-size="9.00" fill="#000000">4181</text>
</g>
<!-- other_dist&#45;&gt;4181 -->
<g id="edge62" class="edge">
<title>other_dist&#45;&gt;4181</title>
<path fill="none" stroke="#00ff00" stroke-width=".3681" d="M980.9108,-630.3831C1006.4353,-618.4163 1051.8236,-596.4187 1088.9914,-574.5656 1092.4719,-572.5192 1096.0525,-570.3001 1099.5913,-568.0317"/>
<polygon fill="#00ff00" stroke="#00ff00" stroke-width=".3681" points="1101.7856,-570.7779 1108.221,-562.3615 1097.9416,-564.9277 1101.7856,-570.7779"/>
</g>
<!-- 348 -->
<g id="node32" class="node">
<title>348</title>
<ellipse fill="#ffffff" stroke="#000000" cx="772.9914" cy="-451.5914" rx="25" ry="25"/>
<text text-anchor="middle" x="772.9914" y="-449.3914" font-family="Times,serif" font-size="9.00" fill="#000000">348</text>
</g>
<!-- other_dist&#45;&gt;348 -->
<g id="edge20" class="edge">
<title>other_dist&#45;&gt;348</title>
<path fill="none" stroke="#ff0000" stroke-width=".4189" stroke-dasharray="1,5" d="M930.9537,-630.5213C902.6299,-620.694 860.5261,-602.5415 832.9914,-574.5656 808.3157,-549.4945 792.1112,-512.2809 782.834,-485.3611"/>
<polygon fill="#ff0000" stroke="#ff0000" stroke-width=".4189" points="786.0694,-483.996 779.6144,-475.5946 779.4213,-486.1877 786.0694,-483.996"/>
</g>
<!-- 2273 -->
<g id="node33" class="node">
<title>2273</title>
<ellipse fill="#ffffff" stroke="#000000" cx="988.9914" cy="-357.6087" rx="28.9828" ry="28.9828"/>
<text text-anchor="middle" x="988.9914" y="-355.4087" font-family="Times,serif" font-size="9.00" fill="#000000">2273</text>
</g>
<!-- other_dist&#45;&gt;2273 -->
<g id="edge22" class="edge">
<title>other_dist&#45;&gt;2273</title>
<path fill="none" stroke="#00ff00" stroke-width=".3537" stroke-dasharray="1,5" d="M936.3612,-630.5538C913.4574,-620.7033 880.7225,-602.492 865.9914,-574.5656 853.9679,-551.7723 858.4923,-541.2377 865.9914,-516.5828 882.6546,-461.7985 928.4928,-411.9291 959.2578,-383.1829"/>
<polygon fill="#00ff00" stroke="#00ff00" stroke-width=".3537" points="961.7185,-385.6754 966.7277,-376.3396 956.9899,-380.5139 961.7185,-385.6754"/>
</g>
<!-- 1650 -->
<g id="node40" class="node">
<title>1650</title>
<ellipse fill="#ffffff" stroke="#000000" cx="432.9914" cy="-451.5914" rx="28.9828" ry="28.9828"/>
<text text-anchor="middle" x="432.9914" y="-449.3914" font-family="Times,serif" font-size="9.00" fill="#000000">1650</text>
</g>
<!-- other_dist&#45;&gt;1650 -->
<g id="edge56" class="edge">
<title>other_dist&#45;&gt;1650</title>
<path fill="none" stroke="#00ff00" stroke-width=".5192" d="M929.3015,-637.2409C844.5366,-630.6295 614.5248,-609.8394 547.9914,-574.5656 508.321,-553.5337 474.853,-513.4655 454.427,-484.7784"/>
<polygon fill="#00ff00" stroke="#00ff00" stroke-width=".5192" points="457.0967,-482.4869 448.5142,-476.2746 451.3494,-486.483 457.0967,-482.4869"/>
</g>
<!-- other_dir -->
<g id="node4" class="node">
<title>other_dir</title>
<polygon fill="#d3d3d3" stroke="#000000" points="1389.4914,-648.557 1330.4914,-648.557 1330.4914,-630.557 1389.4914,-630.557 1389.4914,-648.557"/>
<text text-anchor="middle" x="1359.9914" y="-637.357" font-family="Times,serif" font-size="9.00" fill="#000000">other_dir</text>
</g>
<!-- other_dir&#45;&gt;4359 -->
<g id="edge34" class="edge">
<title>other_dir&#45;&gt;4359</title>
<path fill="none" stroke="#ff0000" stroke-width=".2066" d="M1352.7042,-630.5455C1342.6265,-618.0833 1323.9411,-594.9766 1308.5969,-576.0018"/>
<polygon fill="#ff0000" stroke="#ff0000" stroke-width=".2066" points="1311.2697,-573.7407 1302.2602,-568.1658 1305.8267,-578.1423 1311.2697,-573.7407"/>
</g>
<!-- 6663 -->
<g id="node17" class="node">
<title>6663</title>
<ellipse fill="#ffffff" stroke="#000000" cx="1435.9914" cy="-545.5742" rx="28.9828" ry="28.9828"/>
<text text-anchor="middle" x="1435.9914" y="-543.3742" font-family="Times,serif" font-size="9.00" fill="#000000">6663</text>
</g>
<!-- other_dir&#45;&gt;6663 -->
<g id="edge52" class="edge">
<title>other_dir&#45;&gt;6663</title>
<path fill="none" stroke="#00ff00" stroke-width=".581" d="M1367.2786,-630.5455C1377.3563,-618.0833 1396.0417,-594.9766 1411.3859,-576.0018"/>
<polygon fill="#00ff00" stroke="#00ff00" stroke-width=".581" points="1414.1561,-578.1423 1417.7225,-568.1658 1408.7131,-573.7407 1414.1561,-578.1423"/>
</g>
<!-- 850 -->
<g id="node29" class="node">
<title>850</title>
<ellipse fill="#ffffff" stroke="#000000" cx="1286.9914" cy="-451.5914" rx="25" ry="25"/>
<text text-anchor="middle" x="1286.9914" y="-449.3914" font-family="Times,serif" font-size="9.00" fill="#000000">850</text>
</g>
<!-- other_dir&#45;&gt;850 -->
<g id="edge19" class="edge">
<title>other_dir&#45;&gt;850</title>
<path fill="none" stroke="#ff0000" stroke-width=".4869" stroke-dasharray="1,5" d="M1361.8467,-630.3871C1365.6715,-609.2105 1372.6735,-555.7223 1354.9914,-516.5828 1352.5647,-511.2113 1331.2473,-491.2276 1313.1184,-474.8216"/>
<polygon fill="#ff0000" stroke="#ff0000" stroke-width=".4869" points="1315.3828,-472.1508 1305.6085,-468.0626 1310.7,-477.3538 1315.3828,-472.1508"/>
</g>
<!-- 1766 -->
<g id="node35" class="node">
<title>1766</title>
<ellipse fill="#ffffff" stroke="#000000" cx="618.9914" cy="-357.6087" rx="28.9828" ry="28.9828"/>
<text text-anchor="middle" x="618.9914" y="-355.4087" font-family="Times,serif" font-size="9.00" fill="#000000">1766</text>
</g>
<!-- other_dir&#45;&gt;1766 -->
<g id="edge72" class="edge">
<title>other_dir&#45;&gt;1766</title>
<path fill="none" stroke="#00ff00" stroke-width=".2194" d="M1360.2707,-630.3359C1360.4235,-607.0728 1357.2907,-545.7788 1321.9914,-516.5828 1266.3384,-470.5524 1069.7431,-495.0827 998.9914,-480.5828 911.6667,-462.6865 893.033,-445.8962 806.9914,-422.6001 740.8143,-404.6823 718.9144,-416.0277 656.9914,-386.6001 654.3916,-385.3646 651.7988,-383.9317 649.2586,-382.3775"/>
<polygon fill="#00ff00" stroke="#00ff00" stroke-width=".2194" points="651.1402,-379.4249 640.892,-376.7368 647.2271,-385.229 651.1402,-379.4249"/>
</g>
<!-- 388 -->
<g id="node9" class="node">
<title>388</title>
<ellipse fill="#ffffff" stroke="#000000" cx="432.9914" cy="-357.6087" rx="25" ry="25"/>
<text text-anchor="middle" x="432.9914" y="-355.4087" font-family="Times,serif" font-size="9.00" fill="#000000">388</text>
</g>
<!-- 388&#45;&gt;forward -->
<g id="edge35" class="edge">
<title>388&#45;&gt;forward</title>
<path fill="none" stroke="#00ff00" stroke-width=".2306" d="M451.9181,-341.1937C456.7912,-337.0437 462.054,-332.6279 466.9914,-328.6173 485.3501,-313.7046 506.0922,-297.5807 523.5006,-284.2473"/>
<polygon fill="#00ff00" stroke="#00ff00" stroke-width=".2306" points="525.9312,-286.7949 531.7537,-277.9434 521.6821,-281.232 525.9312,-286.7949"/>
</g>
<!-- 388&#45;&gt;right -->
<g id="edge69" class="edge">
<title>388&#45;&gt;right</title>
<path fill="none" stroke="#ff0000" stroke-width=".3892" stroke-dasharray="1,5" d="M431.8339,-332.7278C429.2342,-302.5091 420.8589,-251.4022 393.9914,-217.664 365.8726,-182.3545 317.7137,-160.4905 284.2125,-148.7607"/>
<polygon fill="#ff0000" stroke="#ff0000" stroke-width=".3892" points="284.9185,-145.3059 274.3245,-145.4421 282.6912,-151.9421 284.9185,-145.3059"/>
</g>
<!-- 4359&#45;&gt;850 -->
<g id="edge6" class="edge">
<title>4359&#45;&gt;850</title>
<path fill="none" stroke="#ff0000" stroke-width=".2321" d="M1284.9242,-516.3527C1285.2248,-506.9347 1285.5611,-496.3999 1285.8736,-486.6083"/>
<polygon fill="#ff0000" stroke="#ff0000" stroke-width=".2321" points="1289.3797,-486.4697 1286.2007,-476.363 1282.3833,-486.2463 1289.3797,-486.4697"/>
</g>
<!-- 2952 -->
<g id="node11" class="node">
<title>2952</title>
<ellipse fill="#ffffff" stroke="#000000" cx="246.9914" cy="-255.1407" rx="28.9828" ry="28.9828"/>
<text text-anchor="middle" x="246.9914" y="-252.9407" font-family="Times,serif" font-size="9.00" fill="#000000">2952</text>
</g>
<!-- 2952&#45;&gt;right -->
<g id="edge55" class="edge">
<title>2952&#45;&gt;right</title>
<path fill="none" stroke="#ff0000" stroke-width=".5744" stroke-dasharray="1,5" d="M246.9914,-226.1409C246.9914,-211.2237 246.9914,-192.8338 246.9914,-176.7038"/>
<polygon fill="#ff0000" stroke="#ff0000" stroke-width=".5744" points="250.4915,-176.4895 246.9914,-166.4896 243.4915,-176.4896 250.4915,-176.4895"/>
</g>
<!-- 2828 -->
<g id="node12" class="node">
<title>2828</title>
<ellipse fill="#ffffff" stroke="#000000" cx="694.9914" cy="-357.6087" rx="28.9828" ry="28.9828"/>
<text text-anchor="middle" x="694.9914" y="-355.4087" font-family="Times,serif" font-size="9.00" fill="#000000">2828</text>
</g>
<!-- 2828&#45;&gt;forward -->
<g id="edge61" class="edge">
<title>2828&#45;&gt;forward</title>
<path fill="none" stroke="#ff0000" stroke-width=".1781" d="M671.8245,-339.7601C651.9852,-324.4751 623.0317,-302.1683 599.8325,-284.2948"/>
<polygon fill="#ff0000" stroke="#ff0000" stroke-width=".1781" points="601.9487,-281.507 591.891,-278.1764 597.6765,-287.0521 601.9487,-281.507"/>
</g>
<!-- 3864&#45;&gt;2273 -->
<g id="edge49" class="edge">
<title>3864&#45;&gt;2273</title>
<path fill="none" stroke="#00ff00" stroke-width=".4205" stroke-dasharray="1,5" d="M915.9895,-519.042C930.8185,-486.2499 956.1185,-430.3024 972.6956,-393.6446"/>
<polygon fill="#00ff00" stroke="#00ff00" stroke-width=".4205" points="975.9856,-394.8634 976.9169,-384.3096 969.6074,-391.9791 975.9856,-394.8634"/>
</g>
<!-- 3844 -->
<g id="node15" class="node">
<title>3844</title>
<ellipse fill="#ffffff" stroke="#000000" cx="504.9914" cy="-357.6087" rx="28.9828" ry="28.9828"/>
<text text-anchor="middle" x="504.9914" y="-355.4087" font-family="Times,serif" font-size="9.00" fill="#000000">3844</text>
</g>
<!-- 3844&#45;&gt;forward -->
<g id="edge18" class="edge">
<title>3844&#45;&gt;forward</title>
<path fill="none" stroke="#00ff00" stroke-width=".1875" d="M519.2279,-332.016C525.1138,-321.4349 532.0934,-308.8878 538.6886,-297.0317"/>
<polygon fill="#00ff00" stroke="#00ff00" stroke-width=".1875" points="541.83,-298.5843 543.6326,-288.1439 535.7128,-295.1814 541.83,-298.5843"/>
</g>
<!-- 5596&#45;&gt;2579 -->
<g id="edge53" class="edge">
<title>5596&#45;&gt;2579</title>
<path fill="none" stroke="#ff0000" stroke-width=".7347" d="M48.6663,-423.648C46.0102,-414.7328 43.0261,-404.7165 40.2001,-395.231"/>
<polygon fill="#ff0000" stroke="#ff0000" stroke-width=".7347" points="43.5424,-394.1911 37.3328,-385.6068 36.8338,-396.1899 43.5424,-394.1911"/>
</g>
<!-- 4271 -->
<g id="node19" class="node">
<title>4271</title>
<ellipse fill="#ffffff" stroke="#000000" cx="1423.9914" cy="-137.8234" rx="28.9828" ry="28.9828"/>
<text text-anchor="middle" x="1423.9914" y="-135.6234" font-family="Times,serif" font-size="9.00" fill="#000000">4271</text>
</g>
<!-- 6663&#45;&gt;4271 -->
<g id="edge2" class="edge">
<title>6663&#45;&gt;4271</title>
<path fill="none" stroke="#00ff00" stroke-width=".1755" d="M1435.138,-516.5767C1433.0267,-444.8375 1427.5565,-258.9649 1425.1531,-177.2962"/>
<polygon fill="#00ff00" stroke="#00ff00" stroke-width=".1755" points="1428.6412,-176.8386 1424.8484,-166.9459 1421.6442,-177.0445 1428.6412,-176.8386"/>
</g>
<!-- 6663&#45;&gt;850 -->
<g id="edge47" class="edge">
<title>6663&#45;&gt;850</title>
<path fill="none" stroke="#00ff00" stroke-width=".1067" d="M1412.237,-528.7597C1406.0704,-524.6173 1399.3673,-520.3051 1392.9914,-516.5828 1362.0943,-498.5448 1350.8221,-500.3344 1320.9914,-480.5828 1318.5052,-478.9367 1315.9992,-477.1313 1313.5352,-475.2516"/>
<polygon fill="#00ff00" stroke="#00ff00" stroke-width=".1067" points="1315.3912,-472.252 1305.4103,-468.6978 1310.9963,-477.7004 1315.3912,-472.252"/>
</g>
<!-- 5038 -->
<g id="node18" class="node">
<title>5038</title>
<ellipse fill="#ffffff" stroke="#000000" cx="779.9914" cy="-137.8234" rx="28.9828" ry="28.9828"/>
<text text-anchor="middle" x="779.9914" y="-135.6234" font-family="Times,serif" font-size="9.00" fill="#000000">5038</text>
</g>
<!-- 5038&#45;&gt;left -->
<g id="edge71" class="edge">
<title>5038&#45;&gt;left</title>
<path fill="none" stroke="#ff0000" stroke-width=".3032" d="M779.9914,-108.6584C779.9914,-94.2693 779.9914,-76.8534 779.9914,-61.9794"/>
<polygon fill="#ff0000" stroke="#ff0000" stroke-width=".3032" points="783.4915,-61.6778 779.9914,-51.6778 776.4915,-61.6778 783.4915,-61.6778"/>
</g>
<!-- 3944 -->
<g id="node36" class="node">
<title>3944</title>
<ellipse fill="#ffffff" stroke="#000000" cx="1451.9914" cy="-28.9914" rx="28.9828" ry="28.9828"/>
<text text-anchor="middle" x="1451.9914" y="-26.7914" font-family="Times,serif" font-size="9.00" fill="#000000">3944</text>
</g>
<!-- 4271&#45;&gt;3944 -->
<g id="edge10" class="edge">
<title>4271&#45;&gt;3944</title>
<path fill="none" stroke="#ff0000" stroke-width=".695" d="M1431.275,-109.5132C1434.6129,-96.539 1438.6184,-80.9701 1442.214,-66.9946"/>
<polygon fill="#ff0000" stroke="#ff0000" stroke-width=".695" points="1445.6422,-67.7166 1444.7443,-57.1599 1438.8629,-65.9724 1445.6422,-67.7166"/>
</g>
<!-- 1328&#45;&gt;850 -->
<g id="edge26" class="edge">
<title>1328&#45;&gt;850</title>
<path fill="none" stroke="#ff0000" stroke-width=".2267" d="M1226.7133,-523.3016C1237.927,-509.9612 1252.264,-492.9051 1264.1421,-478.7742"/>
<polygon fill="#ff0000" stroke="#ff0000" stroke-width=".2267" points="1267.0541,-480.7494 1270.8094,-470.8424 1261.6957,-476.2452 1267.0541,-480.7494"/>
</g>
<!-- 2691&#45;&gt;2273 -->
<g id="edge4" class="edge">
<title>2691&#45;&gt;2273</title>
<path fill="none" stroke="#00ff00" stroke-width=".2836" d="M1023.7481,-425.6615C1018.5017,-415.3892 1012.3907,-403.4239 1006.7689,-392.4166"/>
<polygon fill="#00ff00" stroke="#00ff00" stroke-width=".2836" points="1009.8569,-390.7678 1002.1914,-383.4541 1003.6229,-393.9518 1009.8569,-390.7678"/>
</g>
<!-- 484 -->
<g id="node34" class="node">
<title>484</title>
<ellipse fill="#ffffff" stroke="#000000" cx="1286.9914" cy="-357.6087" rx="25" ry="25"/>
<text text-anchor="middle" x="1286.9914" y="-355.4087" font-family="Times,serif" font-size="9.00" fill="#000000">484</text>
</g>
<!-- 2691&#45;&gt;484 -->
<g id="edge15" class="edge">
<title>2691&#45;&gt;484</title>
<path fill="none" stroke="#00ff00" stroke-width=".5893" stroke-dasharray="1,5" d="M1064.2217,-441.3547C1110.3958,-423.9965 1203.89,-388.8491 1253.8128,-370.0815"/>
<polygon fill="#00ff00" stroke="#00ff00" stroke-width=".5893" points="1255.352,-373.2421 1263.4808,-366.4471 1252.8887,-366.6898 1255.352,-373.2421"/>
</g>
<!-- 1195 -->
<g id="node22" class="node">
<title>1195</title>
<ellipse fill="#ffffff" stroke="#000000" cx="246.9914" cy="-357.6087" rx="28.9828" ry="28.9828"/>
<text text-anchor="middle" x="246.9914" y="-355.4087" font-family="Times,serif" font-size="9.00" fill="#000000">1195</text>
</g>
<!-- 1195&#45;&gt;right -->
<g id="edge5" class="edge">
<title>1195&#45;&gt;right</title>
<path fill="none" stroke="#00ff00" stroke-width=".3589" d="M229.2849,-334.2902C221.4127,-322.4751 213.024,-307.5038 208.9914,-292.6173 200.2812,-260.4636 201.653,-250.1582 208.9914,-217.664 212.6182,-201.6044 219.8758,-184.9877 227.0853,-171.0995"/>
<polygon fill="#00ff00" stroke="#00ff00" stroke-width=".3589" points="230.3487,-172.4224 232.0236,-161.9608 224.1903,-169.0945 230.3487,-172.4224"/>
</g>
<!-- 1195&#45;&gt;2952 -->
<g id="edge3" class="edge">
<title>1195&#45;&gt;2952</title>
<path fill="none" stroke="#00ff00" stroke-width=".137" stroke-dasharray="1,5" d="M246.9914,-328.5196C246.9914,-317.9192 246.9914,-305.7528 246.9914,-294.4142"/>
<polygon fill="#00ff00" stroke="#00ff00" stroke-width=".137" points="250.4915,-294.3025 246.9914,-284.3025 243.4915,-294.3026 250.4915,-294.3025"/>
</g>
<!-- 1369 -->
<g id="node31" class="node">
<title>1369</title>
<ellipse fill="#ffffff" stroke="#000000" cx="931.9914" cy="-137.8234" rx="28.9828" ry="28.9828"/>
<text text-anchor="middle" x="931.9914" y="-135.6234" font-family="Times,serif" font-size="9.00" fill="#000000">1369</text>
</g>
<!-- 1195&#45;&gt;1369 -->
<g id="edge51" class="edge">
<title>1195&#45;&gt;1369</title>
<path fill="none" stroke="#00ff00" stroke-width=".2559" stroke-dasharray="1,5" d="M271.2693,-341.0926C316.9228,-310.9458 419.6577,-247.3767 515.9914,-217.664 645.1594,-177.8241 686.7866,-214.174 817.9914,-181.664 844.8851,-175.0003 874.024,-163.7178 896.11,-154.2675"/>
<polygon fill="#00ff00" stroke="#00ff00" stroke-width=".2559" points="897.6501,-157.4144 905.4216,-150.2134 894.8557,-150.9963 897.6501,-157.4144"/>
</g>
<!-- 3640&#45;&gt;left -->
<g id="edge68" class="edge">
<title>3640&#45;&gt;left</title>
<path fill="none" stroke="#ff0000" stroke-width=".355" d="M165.4311,-119.3208C177.8142,-110.1364 193.9094,-99.789 209.9914,-93.9828 310.2981,-57.7682 641.6435,-36.6638 747.3083,-30.731"/>
<polygon fill="#ff0000" stroke="#ff0000" stroke-width=".355" points="747.5868,-34.221 757.3779,-30.1734 747.1997,-27.2317 747.5868,-34.221"/>
</g>
<!-- 2105 -->
<g id="node24" class="node">
<title>2105</title>
<ellipse fill="#ffffff" stroke="#000000" cx="1207.9914" cy="-639.557" rx="28.9828" ry="28.9828"/>
<text text-anchor="middle" x="1207.9914" y="-637.357" font-family="Times,serif" font-size="9.00" fill="#000000">2105</text>
</g>
<!-- 2105&#45;&gt;1328 -->
<g id="edge37" class="edge">
<title>2105&#45;&gt;1328</title>
<path fill="none" stroke="#ff0000" stroke-width=".5358" stroke-dasharray="1,5" d="M1207.9914,-610.3354C1207.9914,-602.2906 1207.9914,-593.431 1207.9914,-584.9157"/>
<polygon fill="#ff0000" stroke="#ff0000" stroke-width=".5358" points="1211.4915,-584.7777 1207.9914,-574.7777 1204.4915,-584.7777 1211.4915,-584.7777"/>
</g>
<!-- 959 -->
<g id="node25" class="node">
<title>959</title>
<ellipse fill="#ffffff" stroke="#000000" cx="808.9914" cy="-255.1407" rx="25" ry="25"/>
<text text-anchor="middle" x="808.9914" y="-252.9407" font-family="Times,serif" font-size="9.00" fill="#000000">959</text>
</g>
<!-- 959&#45;&gt;left -->
<g id="edge11" class="edge">
<title>959&#45;&gt;left</title>
<path fill="none" stroke="#00ff00" stroke-width=".6025" d="M815.0347,-230.8902C821.9505,-198.914 830.777,-141.1807 817.9914,-93.9828 814.297,-80.345 806.9468,-66.6361 799.687,-55.3479"/>
<polygon fill="#00ff00" stroke="#00ff00" stroke-width=".6025" points="802.453,-53.1899 793.9557,-46.8616 796.652,-57.1076 802.453,-53.1899"/>
</g>
<!-- 959&#45;&gt;5038 -->
<g id="edge54" class="edge">
<title>959&#45;&gt;5038</title>
<path fill="none" stroke="#00ff00" stroke-width=".1816" d="M802.9826,-230.8324C799.0812,-215.0499 793.9137,-194.1449 789.466,-176.1521"/>
<polygon fill="#00ff00" stroke="#00ff00" stroke-width=".1816" points="792.8113,-175.0999 787.0138,-166.232 786.0158,-176.7797 792.8113,-175.0999"/>
</g>
<!-- 4034 -->
<g id="node26" class="node">
<title>4034</title>
<ellipse fill="#ffffff" stroke="#000000" cx="1477.9914" cy="-255.1407" rx="28.9828" ry="28.9828"/>
<text text-anchor="middle" x="1477.9914" y="-252.9407" font-family="Times,serif" font-size="9.00" fill="#000000">4034</text>
</g>
<!-- 4034&#45;&gt;4271 -->
<g id="edge8" class="edge">
<title>4034&#45;&gt;4271</title>
<path fill="none" stroke="#ff0000" stroke-width=".4178" d="M1465.7379,-228.5195C1458.2814,-212.3198 1448.6602,-191.4175 1440.5339,-173.7627"/>
<polygon fill="#ff0000" stroke="#ff0000" stroke-width=".4178" points="1443.557,-171.9596 1436.1963,-164.3391 1437.1982,-174.8865 1443.557,-171.9596"/>
</g>
<!-- 4034&#45;&gt;3944 -->
<g id="edge60" class="edge">
<title>4034&#45;&gt;3944</title>
<path fill="none" stroke="#ff0000" stroke-width=".2241" d="M1475.5702,-225.9741C1472.7767,-193.6522 1467.8127,-140.0081 1461.9914,-93.9828 1460.922,-85.5282 1459.6261,-76.4782 1458.3265,-67.8989"/>
<polygon fill="#ff0000" stroke="#ff0000" stroke-width=".2241" points="1461.7425,-67.0863 1456.7546,-57.7391 1454.8248,-68.1567 1461.7425,-67.0863"/>
</g>
<!-- 2891&#45;&gt;1195 -->
<g id="edge57" class="edge">
<title>2891&#45;&gt;1195</title>
<path fill="none" stroke="#ff0000" stroke-width="1.3397" stroke-dasharray="1,5" d="M246.9914,-422.3699C246.9914,-414.3251 246.9914,-405.4655 246.9914,-396.9502"/>
<polygon fill="#ff0000" stroke="#ff0000" stroke-width="1.3397" points="250.4915,-396.8121 246.9914,-386.8122 243.4915,-396.8122 250.4915,-396.8121"/>
</g>
<!-- 2891&#45;&gt;1766 -->
<g id="edge17" class="edge">
<title>2891&#45;&gt;1766</title>
<path fill="none" stroke="#00ff00" stroke-width=".3143" d="M275.5699,-445.8806C339.51,-433.0121 492.4535,-401.6967 542.9914,-386.6001 556.1239,-382.6771 570.2224,-377.5617 582.667,-372.7219"/>
<polygon fill="#00ff00" stroke="#00ff00" stroke-width=".3143" points="584.2352,-375.8653 592.2426,-368.9276 581.6565,-369.3576 584.2352,-375.8653"/>
</g>
<!-- 5582&#45;&gt;2691 -->
<g id="edge73" class="edge">
<title>5582&#45;&gt;2691</title>
<path fill="none" stroke="#ff0000" stroke-width=".3147" d="M1023.7436,-517.1212C1025.4577,-508.6425 1027.3657,-499.2047 1029.1876,-490.1925"/>
<polygon fill="#ff0000" stroke="#ff0000" stroke-width=".3147" points="1032.6421,-490.7673 1031.1932,-480.2721 1025.7809,-489.3802 1032.6421,-490.7673"/>
</g>
<!-- 850&#45;&gt;484 -->
<g id="edge46" class="edge">
<title>850&#45;&gt;484</title>
<path fill="none" stroke="#ff0000" stroke-width=".1263" d="M1286.9914,-426.4058C1286.9914,-416.1047 1286.9914,-404.0073 1286.9914,-392.8534"/>
<polygon fill="#ff0000" stroke="#ff0000" stroke-width=".1263" points="1290.4915,-392.5379 1286.9914,-382.538 1283.4915,-392.538 1290.4915,-392.5379"/>
</g>
<!-- 4181&#45;&gt;backward -->
<g id="edge74" class="edge">
<title>4181&#45;&gt;backward</title>
<path fill="none" stroke="#ff0000" stroke-width=".4441" stroke-dasharray="1,5" d="M1133.0197,-516.5647C1135.2131,-459.309 1141.0646,-327.7704 1151.9914,-217.664 1152.8356,-209.1574 1153.9033,-200.1639 1155.0398,-191.4003"/>
<polygon fill="#ff0000" stroke="#ff0000" stroke-width=".4441" points="1158.5392,-191.6369 1156.3963,-181.2611 1151.6011,-190.7086 1158.5392,-191.6369"/>
</g>
<!-- 1369&#45;&gt;left -->
<g id="edge32" class="edge">
<title>1369&#45;&gt;left</title>
<path fill="none" stroke="#00ff00" stroke-width=".1299" d="M908.2414,-120.8184C880.8494,-101.2057 835.9062,-69.0264 807.1495,-48.4366"/>
<polygon fill="#00ff00" stroke="#00ff00" stroke-width=".1299" points="808.9503,-45.4214 798.782,-42.4455 804.8752,-51.1129 808.9503,-45.4214"/>
</g>
<!-- 348&#45;&gt;left -->
<g id="edge65" class="edge">
<title>348&#45;&gt;left</title>
<path fill="none" stroke="#ff0000" stroke-width=".3156" d="M765.3021,-427.6556C747.7882,-369.4056 708.9142,-216.0868 741.9914,-93.9828 745.6857,-80.345 753.036,-66.6361 760.2958,-55.3479"/>
<polygon fill="#ff0000" stroke="#ff0000" stroke-width=".3156" points="763.3307,-57.1076 766.027,-46.8616 757.5297,-53.1899 763.3307,-57.1076"/>
</g>
<!-- 348&#45;&gt;388 -->
<g id="edge38" class="edge">
<title>348&#45;&gt;388</title>
<path fill="none" stroke="#ff0000" stroke-width=".2321" stroke-dasharray="1,5" d="M748.2507,-450.4374C694.4122,-447.0732 563.7021,-434.2345 466.9914,-386.6001 464.0686,-385.1605 461.1897,-383.4129 458.4189,-381.4971"/>
<polygon fill="#ff0000" stroke="#ff0000" stroke-width=".2321" points="460.5512,-378.7216 450.4954,-375.3852 456.2758,-384.2643 460.5512,-378.7216"/>
</g>
<!-- 348&#45;&gt;2828 -->
<g id="edge31" class="edge">
<title>348&#45;&gt;2828</title>
<path fill="none" stroke="#00ff00" stroke-width=".1372" d="M756.8297,-432.1182C746.2124,-419.3252 732.1083,-402.3311 720.0511,-387.8033"/>
<polygon fill="#00ff00" stroke="#00ff00" stroke-width=".1372" points="722.6782,-385.4883 713.5984,-380.0285 717.2916,-389.9588 722.6782,-385.4883"/>
</g>
<!-- 348&#45;&gt;3944 -->
<g id="edge14" class="edge">
<title>348&#45;&gt;3944</title>
<path fill="none" stroke="#ff0000" stroke-width=".4077" d="M794.5113,-438.7086C811.6252,-427.2585 834.6724,-408.9006 846.9914,-386.6001 910.6823,-271.3032 798.857,-185.0836 893.9914,-93.9828 931.428,-58.1333 1291.472,-37.0067 1412.5177,-30.8719"/>
<polygon fill="#ff0000" stroke="#ff0000" stroke-width=".4077" points="1412.9962,-34.3524 1422.809,-30.3574 1412.6467,-27.3612 1412.9962,-34.3524"/>
</g>
<!-- 4330 -->
<g id="node37" class="node">
<title>4330</title>
<ellipse fill="#ffffff" stroke="#000000" cx="808.9914" cy="-357.6087" rx="28.9828" ry="28.9828"/>
<text text-anchor="middle" x="808.9914" y="-355.4087" font-family="Times,serif" font-size="9.00" fill="#000000">4330</text>
</g>
<!-- 348&#45;&gt;4330 -->
<g id="edge70" class="edge">
<title>348&#45;&gt;4330</title>
<path fill="none" stroke="#00ff00" stroke-width=".3346" d="M781.8903,-428.3598C785.8268,-418.0828 790.5515,-405.7484 794.9455,-394.2773"/>
<polygon fill="#00ff00" stroke="#00ff00" stroke-width=".3346" points="798.2254,-395.4991 798.5341,-384.9088 791.6886,-392.9951 798.2254,-395.4991"/>
</g>
<!-- 2273&#45;&gt;backward -->
<g id="edge16" class="edge">
<title>2273&#45;&gt;backward</title>
<path fill="none" stroke="#00ff00" stroke-width=".13" stroke-dasharray="1,5" d="M1006.9868,-334.6072C1016.2947,-322.3777 1027.6347,-306.9457 1036.9914,-292.6173 1057.99,-260.4611 1056.3589,-247.9372 1079.9914,-217.664 1092.241,-201.9723 1107.5166,-186.4097 1121.6118,-173.2493"/>
<polygon fill="#00ff00" stroke="#00ff00" stroke-width=".13" points="1124.2927,-175.5395 1129.2943,-166.1996 1119.5599,-170.3819 1124.2927,-175.5395"/>
</g>
<!-- 2273&#45;&gt;1369 -->
<g id="edge40" class="edge">
<title>2273&#45;&gt;1369</title>
<path fill="none" stroke="#ff0000" stroke-width=".3464" d="M965.523,-340.2694C951.7343,-328.5487 935.5654,-311.7543 927.9914,-292.6173 913.128,-255.0627 917.0882,-208.2733 922.8971,-176.023"/>
<polygon fill="#ff0000" stroke="#ff0000" stroke-width=".3464" points="926.3548,-176.5772 924.8266,-166.0932 919.4833,-175.242 926.3548,-176.5772"/>
</g>
<!-- 6419 -->
<g id="node41" class="node">
<title>6419</title>
<ellipse fill="#ffffff" stroke="#000000" cx="998.9914" cy="-255.1407" rx="28.9828" ry="28.9828"/>
<text text-anchor="middle" x="998.9914" y="-252.9407" font-family="Times,serif" font-size="9.00" fill="#000000">6419</text>
</g>
<!-- 2273&#45;&gt;6419 -->
<g id="edge29" class="edge">
<title>2273&#45;&gt;6419</title>
<path fill="none" stroke="#00ff00" stroke-width=".3574" d="M991.8302,-328.5196C992.8647,-317.9192 994.0521,-305.7528 995.1586,-294.4142"/>
<polygon fill="#00ff00" stroke="#00ff00" stroke-width=".3574" points="998.6575,-294.5952 996.1454,-284.3025 991.6906,-293.9153 998.6575,-294.5952"/>
</g>
<!-- 484&#45;&gt;backward -->
<g id="edge23" class="edge">
<title>484&#45;&gt;backward</title>
<path fill="none" stroke="#00ff00" stroke-width=".2631" stroke-dasharray="1,5" d="M1298.937,-335.8145C1313.0752,-306.7906 1332.0825,-254.8017 1309.9914,-217.664 1289.6537,-183.4741 1248.9938,-163.0138 1215.5822,-151.3791"/>
<polygon fill="#00ff00" stroke="#00ff00" stroke-width=".2631" points="1216.5194,-148.0026 1205.9261,-148.1869 1214.3222,-154.6489 1216.5194,-148.0026"/>
</g>
<!-- 484&#45;&gt;left -->
<g id="edge33" class="edge">
<title>484&#45;&gt;left</title>
<path fill="none" stroke="#00ff00" stroke-width=".2927" d="M1303.2603,-338.8846C1312.797,-326.6273 1323.9358,-309.7548 1328.9914,-292.6173 1338.417,-260.666 1341.0424,-248.7204 1328.9914,-217.664 1302.056,-148.2493 1281.7144,-128.9741 1215.9914,-93.9828 1145.7216,-56.5707 901.7167,-37.0436 812.7628,-31.0404"/>
<polygon fill="#00ff00" stroke="#00ff00" stroke-width=".2927" points="812.9148,-27.5429 802.7055,-30.3751 812.4526,-34.5276 812.9148,-27.5429"/>
</g>
<!-- 484&#45;&gt;1369 -->
<g id="edge50" class="edge">
<title>484&#45;&gt;1369</title>
<path fill="none" stroke="#00ff00" stroke-width=".1985" d="M1261.8544,-356.1458C1192.9337,-351.6066 1003.2865,-335.4051 960.9914,-292.6173 931.2047,-262.4837 926.8537,-212.1092 928.0587,-177.0417"/>
<polygon fill="#00ff00" stroke="#00ff00" stroke-width=".1985" points="931.5727,-176.8554 928.589,-166.6894 924.5819,-176.4972 931.5727,-176.8554"/>
</g>
<!-- 484&#45;&gt;3944 -->
<g id="edge41" class="edge">
<title>484&#45;&gt;3944</title>
<path fill="none" stroke="#00ff00" stroke-width=".5481" stroke-dasharray="1,5" d="M1304.444,-339.7261C1309.4248,-335.5023 1315.1079,-331.4182 1320.9914,-328.6173 1400.5659,-290.7357 1459.6131,-360.3566 1515.9914,-292.6173 1572.5006,-224.7207 1511.853,-114.8047 1475.3858,-60.8858"/>
<polygon fill="#00ff00" stroke="#00ff00" stroke-width=".5481" points="1478.104,-58.6623 1469.5446,-52.4183 1472.342,-62.6372 1478.104,-58.6623"/>
</g>
<!-- 3823 -->
<g id="node39" class="node">
<title>3823</title>
<ellipse fill="#ffffff" stroke="#000000" cx="1271.9914" cy="-255.1407" rx="28.9828" ry="28.9828"/>
<text text-anchor="middle" x="1271.9914" y="-252.9407" font-family="Times,serif" font-size="9.00" fill="#000000">3823</text>
</g>
<!-- 484&#45;&gt;3823 -->
<g id="edge24" class="edge">
<title>484&#45;&gt;3823</title>
<path fill="none" stroke="#ff0000" stroke-width=".221" stroke-dasharray="1,5" d="M1283.3985,-333.065C1281.6888,-321.3854 1279.6032,-307.1384 1277.6852,-294.036"/>
<polygon fill="#ff0000" stroke="#ff0000" stroke-width=".221" points="1281.1049,-293.232 1276.1932,-283.8445 1274.1787,-294.246 1281.1049,-293.232"/>
</g>
<!-- 1766&#45;&gt;forward -->
<g id="edge25" class="edge">
<title>1766&#45;&gt;forward</title>
<path fill="none" stroke="#ff0000" stroke-width=".1011" d="M604.7549,-332.016C598.8689,-321.4349 591.8894,-308.8878 585.2941,-297.0317"/>
<polygon fill="#ff0000" stroke="#ff0000" stroke-width=".1011" points="588.27,-295.1814 580.3501,-288.1439 582.1527,-298.5843 588.27,-295.1814"/>
</g>
<!-- 4330&#45;&gt;959 -->
<g id="edge1" class="edge">
<title>4330&#45;&gt;959</title>
<path fill="none" stroke="#00ff00" stroke-width=".4145" d="M808.9914,-328.5196C808.9914,-316.5935 808.9914,-302.6851 808.9914,-290.2035"/>
<polygon fill="#00ff00" stroke="#00ff00" stroke-width=".4145" points="812.4915,-290.1293 808.9914,-280.1293 805.4915,-290.1294 812.4915,-290.1293"/>
</g>
<!-- 4306 -->
<g id="node38" class="node">
<title>4306</title>
<ellipse fill="#ffffff" stroke="#000000" cx="1358.9914" cy="-357.6087" rx="28.9828" ry="28.9828"/>
<text text-anchor="middle" x="1358.9914" y="-355.4087" font-family="Times,serif" font-size="9.00" fill="#000000">4306</text>
</g>
<!-- 3823&#45;&gt;backward -->
<g id="edge64" class="edge">
<title>3823&#45;&gt;backward</title>
<path fill="none" stroke="#ff0000" stroke-width=".4679" d="M1252.2523,-233.8954C1237.6291,-218.1564 1217.2757,-196.2499 1199.6967,-177.3295"/>
<polygon fill="#ff0000" stroke="#ff0000" stroke-width=".4679" points="1202.2336,-174.9179 1192.8628,-169.9742 1197.1053,-179.6825 1202.2336,-174.9179"/>
</g>
<!-- 1650&#45;&gt;right -->
<g id="edge39" class="edge">
<title>1650&#45;&gt;right</title>
<path fill="none" stroke="#ff0000" stroke-width=".1602" d="M418.0846,-426.4449C384.7259,-370.1712 304.0583,-234.091 266.6493,-170.9849"/>
<polygon fill="#ff0000" stroke="#ff0000" stroke-width=".1602" points="269.5648,-169.0392 261.4546,-162.2218 263.5432,-172.6088 269.5648,-169.0392"/>
</g>
<!-- 1650&#45;&gt;388 -->
<g id="edge42" class="edge">
<title>1650&#45;&gt;388</title>
<path fill="none" stroke="#ff0000" stroke-width=".3413" d="M432.9914,-422.3699C432.9914,-412.9519 432.9914,-402.4171 432.9914,-392.6255"/>
<polygon fill="#ff0000" stroke="#ff0000" stroke-width=".3413" points="436.4915,-392.3803 432.9914,-382.3803 429.4915,-392.3803 436.4915,-392.3803"/>
</g>
<!-- 6419&#45;&gt;4271 -->
<g id="edge27" class="edge">
<title>6419&#45;&gt;4271</title>
<path fill="none" stroke="#ff0000" stroke-width=".2672" d="M1027.206,-247.3523C1101.4064,-226.8699 1302.0596,-171.4815 1386.1287,-148.275"/>
<polygon fill="#ff0000" stroke="#ff0000" stroke-width=".2672" points="1387.0786,-151.6438 1395.7868,-145.609 1385.216,-144.8961 1387.0786,-151.6438"/>
</g>
<!-- 6419&#45;&gt;1369 -->
<g id="edge66" class="edge">
<title>6419&#45;&gt;1369</title>
<path fill="none" stroke="#00ff00" stroke-width=".189" d="M984.4534,-229.6846C974.7956,-212.7737 962.0027,-190.3733 951.4677,-171.9265"/>
<polygon fill="#00ff00" stroke="#00ff00" stroke-width=".189" points="954.4996,-170.1777 946.501,-163.2298 948.421,-173.6492 954.4996,-170.1777"/>
</g>
<!-- 4214 -->
<g id="node42" class="node">
<title>4214</title>
<ellipse fill="#ffffff" stroke="#000000" cx="1358.9914" cy="-451.5914" rx="28.9828" ry="28.9828"/>
<text text-anchor="middle" x="1358.9914" y="-449.3914" font-family="Times,serif" font-size="9.00" fill="#000000">4214</text>
</g>
<!-- 4214&#45;&gt;484 -->
<g id="edge58" class="edge">
<title>4214&#45;&gt;484</title>
<path fill="none" stroke="#00ff00" stroke-width=".746" stroke-dasharray="1,5" d="M1341.1936,-428.3598C1331.2617,-415.3955 1318.8215,-399.1571 1308.365,-385.508"/>
<polygon fill="#00ff00" stroke="#00ff00" stroke-width=".746" points="1311.0107,-383.2062 1302.1508,-377.3965 1305.4539,-387.4633 1311.0107,-383.2062"/>
</g>
<!-- 4214&#45;&gt;4306 -->
<g id="edge9" class="edge">
<title>4214&#45;&gt;4306</title>
<path fill="none" stroke="#00ff00" stroke-width=".7055" d="M1358.9914,-422.3699C1358.9914,-414.3251 1358.9914,-405.4655 1358.9914,-396.9502"/>
<polygon fill="#00ff00" stroke="#00ff00" stroke-width=".7055" points="1362.4915,-396.8121 1358.9914,-386.8122 1355.4915,-396.8122 1362.4915,-396.8121"/>
</g>
</g>
</svg>
