<?xml version="1.0" encoding="UTF-8" standalone="no"?>
<!DOCTYPE svg PUBLIC "-//W3C//DTD SVG 1.1//EN"
 "http://www.w3.org/Graphics/SVG/1.1/DTD/svg11.dtd">
<!-- Generated by graphviz version 2.40.1 (20161225.0304)
 -->
<!-- Title: %3 Pages: 1 -->
<svg width="877pt" height="543pt"
 viewBox="0.00 0.00 876.83 542.58" xmlns="http://www.w3.org/2000/svg" xmlns:xlink="http://www.w3.org/1999/xlink">
<g id="graph0" class="graph" transform="scale(1 1) rotate(0) translate(4 538.5828)">
<title>%3</title>
<polygon fill="#ffffff" stroke="transparent" points="-4,4 -4,-538.5828 872.832,-538.5828 872.832,4 -4,4"/>
<!-- center_dist -->
<g id="node1" class="node">
<title>center_dist</title>
<polygon fill="#d3d3d3" stroke="#000000" points="146.8406,-534.5828 78.8406,-534.5828 78.8406,-516.5828 146.8406,-516.5828 146.8406,-534.5828"/>
<text text-anchor="middle" x="112.8406" y="-523.3828" font-family="Times,serif" font-size="9.00" fill="#000000">center_dist</text>
</g>
<!-- forward -->
<g id="node5" class="node">
<title>forward</title>
<ellipse fill="#add8e6" stroke="#000000" cx="231.8406" cy="-349.1234" rx="37.4533" ry="37.4533"/>
<text text-anchor="middle" x="231.8406" y="-346.9234" font-family="Times,serif" font-size="9.00" fill="#000000">forward</text>
</g>
<!-- center_dist&#45;&gt;forward -->
<g id="edge2" class="edge">
<title>center_dist&#45;&gt;forward</title>
<path fill="none" stroke="#ff0000" stroke-width=".2675" stroke-dasharray="1,5" d="M101.765,-516.564C92.5748,-508.3071 80.1793,-495.1797 74.8406,-480.5828 65.9889,-456.3807 61.0095,-444.344 74.8406,-422.6001 98.7582,-384.9993 147.5357,-366.3135 184.4114,-357.2411"/>
<polygon fill="#ff0000" stroke="#ff0000" stroke-width=".2675" points="185.5046,-360.5812 194.4661,-354.9294 183.9361,-353.7592 185.5046,-360.5812"/>
</g>
<!-- 2734 -->
<g id="node16" class="node">
<title>2734</title>
<ellipse fill="#ffffff" stroke="#000000" cx="112.8406" cy="-451.5914" rx="28.9828" ry="28.9828"/>
<text text-anchor="middle" x="112.8406" y="-449.3914" font-family="Times,serif" font-size="9.00" fill="#000000">2734</text>
</g>
<!-- center_dist&#45;&gt;2734 -->
<g id="edge23" class="edge">
<title>center_dist&#45;&gt;2734</title>
<path fill="none" stroke="#ff0000" stroke-width=".1241" d="M112.8406,-516.51C112.8406,-509.992 112.8406,-500.7094 112.8406,-491.1956"/>
<polygon fill="#ff0000" stroke="#ff0000" stroke-width=".1241" points="116.3407,-490.9012 112.8406,-480.9012 109.3407,-490.9012 116.3407,-490.9012"/>
</g>
<!-- 855 -->
<g id="node21" class="node">
<title>855</title>
<ellipse fill="#ffffff" stroke="#000000" cx="425.8406" cy="-349.1234" rx="25" ry="25"/>
<text text-anchor="middle" x="425.8406" y="-346.9234" font-family="Times,serif" font-size="9.00" fill="#000000">855</text>
</g>
<!-- center_dist&#45;&gt;855 -->
<g id="edge27" class="edge">
<title>center_dist&#45;&gt;855</title>
<path fill="none" stroke="#00ff00" stroke-width=".5057" d="M147.1479,-522.3766C203.8775,-516.5205 314.1262,-502.6284 345.8406,-480.5828 380.2839,-456.6404 402.5703,-412.6177 414.6559,-382.1516"/>
<polygon fill="#00ff00" stroke="#00ff00" stroke-width=".5057" points="417.9371,-383.37 418.2239,-372.779 411.3951,-380.8795 417.9371,-383.37"/>
</g>
<!-- center_dir -->
<g id="node2" class="node">
<title>center_dir</title>
<polygon fill="#d3d3d3" stroke="#000000" points="492.3406,-534.5828 427.3406,-534.5828 427.3406,-516.5828 492.3406,-516.5828 492.3406,-534.5828"/>
<text text-anchor="middle" x="459.8406" y="-523.3828" font-family="Times,serif" font-size="9.00" fill="#000000">center_dir</text>
</g>
<!-- backward -->
<g id="node6" class="node">
<title>backward</title>
<ellipse fill="#add8e6" stroke="#000000" cx="43.8406" cy="-231.8061" rx="43.6818" ry="43.6818"/>
<text text-anchor="middle" x="43.8406" y="-229.6061" font-family="Times,serif" font-size="9.00" fill="#000000">backward</text>
</g>
<!-- center_dir&#45;&gt;backward -->
<g id="edge16" class="edge">
<title>center_dir&#45;&gt;backward</title>
<path fill="none" stroke="#00ff00" stroke-width=".1799" stroke-dasharray="1,5" d="M427.1928,-523.7356C339.2478,-518.4874 102.1661,-502.443 74.8406,-480.5828 18.091,-435.1836 22.1825,-343.1718 31.8912,-284.667"/>
<polygon fill="#00ff00" stroke="#00ff00" stroke-width=".1799" points="35.3926,-284.9655 33.6887,-274.5085 28.4997,-283.7457 35.3926,-284.9655"/>
</g>
<!-- left -->
<g id="node7" class="node">
<title>left</title>
<ellipse fill="#add8e6" stroke="#000000" cx="543.8406" cy="-122.9741" rx="22.7556" ry="22.7556"/>
<text text-anchor="middle" x="543.8406" y="-120.7741" font-family="Times,serif" font-size="9.00" fill="#000000">left</text>
</g>
<!-- center_dir&#45;&gt;left -->
<g id="edge26" class="edge">
<title>center_dir&#45;&gt;left</title>
<path fill="none" stroke="#ff0000" stroke-width=".2452" d="M470.8177,-516.5272C479.9448,-508.2467 492.3029,-495.1054 497.8406,-480.5828 544.1945,-359.02 470.1104,-313.0637 505.8406,-187.9655 509.6927,-174.4787 516.9926,-160.8787 524.1729,-149.6303"/>
<polygon fill="#ff0000" stroke="#ff0000" stroke-width=".2452" points="527.1875,-151.4186 529.8376,-141.1605 521.3689,-147.527 527.1875,-151.4186"/>
</g>
<!-- right -->
<g id="node8" class="node">
<title>right</title>
<ellipse fill="#add8e6" stroke="#000000" cx="270.8406" cy="-231.8061" rx="28.0702" ry="28.0702"/>
<text text-anchor="middle" x="270.8406" y="-229.6061" font-family="Times,serif" font-size="9.00" fill="#000000">right</text>
</g>
<!-- center_dir&#45;&gt;right -->
<g id="edge35" class="edge">
<title>center_dir&#45;&gt;right</title>
<path fill="none" stroke="#ff0000" stroke-width=".2237" d="M427.1224,-524.743C362.4993,-522.376 221.8729,-513.4807 188.8406,-480.5828 135.4029,-427.3626 140.4729,-379.7666 172.8406,-311.6468 185.9779,-283.9986 213.8928,-262.7767 236.5817,-249.1862"/>
<polygon fill="#ff0000" stroke="#ff0000" stroke-width=".2237" points="238.3671,-252.197 245.294,-244.1803 234.8797,-246.1276 238.3671,-252.197"/>
</g>
<!-- 2763 -->
<g id="node13" class="node">
<title>2763</title>
<ellipse fill="#ffffff" stroke="#000000" cx="459.8406" cy="-451.5914" rx="28.9828" ry="28.9828"/>
<text text-anchor="middle" x="459.8406" y="-449.3914" font-family="Times,serif" font-size="9.00" fill="#000000">2763</text>
</g>
<!-- center_dir&#45;&gt;2763 -->
<g id="edge8" class="edge">
<title>center_dir&#45;&gt;2763</title>
<path fill="none" stroke="#00ff00" stroke-width=".1303" d="M459.8406,-516.51C459.8406,-509.992 459.8406,-500.7094 459.8406,-491.1956"/>
<polygon fill="#00ff00" stroke="#00ff00" stroke-width=".1303" points="463.3407,-490.9012 459.8406,-480.9012 456.3407,-490.9012 463.3407,-490.9012"/>
</g>
<!-- 1132 -->
<g id="node14" class="node">
<title>1132</title>
<ellipse fill="#ffffff" stroke="#000000" cx="353.8406" cy="-349.1234" rx="28.9828" ry="28.9828"/>
<text text-anchor="middle" x="353.8406" y="-346.9234" font-family="Times,serif" font-size="9.00" fill="#000000">1132</text>
</g>
<!-- center_dir&#45;&gt;1132 -->
<g id="edge21" class="edge">
<title>center_dir&#45;&gt;1132</title>
<path fill="none" stroke="#ff0000" stroke-width=".5151" stroke-dasharray="1,5" d="M451.034,-516.4182C442.8778,-507.6531 430.7064,-493.8437 421.8406,-480.5828 401.2728,-449.8186 382.3255,-412.063 369.6849,-384.919"/>
<polygon fill="#ff0000" stroke="#ff0000" stroke-width=".5151" points="372.8438,-383.4109 365.4844,-375.7892 366.4845,-386.3367 372.8438,-383.4109"/>
</g>
<!-- 1747 -->
<g id="node18" class="node">
<title>1747</title>
<ellipse fill="#ffffff" stroke="#000000" cx="725.8406" cy="-231.8061" rx="28.9828" ry="28.9828"/>
<text text-anchor="middle" x="725.8406" y="-229.6061" font-family="Times,serif" font-size="9.00" fill="#000000">1747</text>
</g>
<!-- center_dir&#45;&gt;1747 -->
<g id="edge30" class="edge">
<title>center_dir&#45;&gt;1747</title>
<path fill="none" stroke="#00ff00" stroke-width=".2848" d="M492.4856,-525.0064C559.6941,-523.1183 710.2111,-515.0497 745.8406,-480.5828 800.1107,-428.0836 780.4741,-385.2996 763.8406,-311.6468 760.2687,-295.8305 753.1753,-279.4739 746.0744,-265.7154"/>
<polygon fill="#00ff00" stroke="#00ff00" stroke-width=".2848" points="749.0166,-263.7964 741.2004,-256.6439 742.8503,-267.1095 749.0166,-263.7964"/>
</g>
<!-- 1077 -->
<g id="node19" class="node">
<title>1077</title>
<ellipse fill="#ffffff" stroke="#000000" cx="707.8406" cy="-451.5914" rx="28.9828" ry="28.9828"/>
<text text-anchor="middle" x="707.8406" y="-449.3914" font-family="Times,serif" font-size="9.00" fill="#000000">1077</text>
</g>
<!-- center_dir&#45;&gt;1077 -->
<g id="edge33" class="edge">
<title>center_dir&#45;&gt;1077</title>
<path fill="none" stroke="#ff0000" stroke-width=".3116" d="M492.5283,-519.8531C530.3262,-512.7407 594.1091,-499.2306 646.8406,-480.5828 655.515,-477.5152 664.6029,-473.6044 673.0357,-469.6554"/>
<polygon fill="#ff0000" stroke="#ff0000" stroke-width=".3116" points="674.7358,-472.7213 682.2214,-465.2235 671.694,-466.4167 674.7358,-472.7213"/>
</g>
<!-- 2486 -->
<g id="node20" class="node">
<title>2486</title>
<ellipse fill="#ffffff" stroke="#000000" cx="226.8406" cy="-451.5914" rx="28.9828" ry="28.9828"/>
<text text-anchor="middle" x="226.8406" y="-449.3914" font-family="Times,serif" font-size="9.00" fill="#000000">2486</text>
</g>
<!-- center_dir&#45;&gt;2486 -->
<g id="edge7" class="edge">
<title>center_dir&#45;&gt;2486</title>
<path fill="none" stroke="#00ff00" stroke-width=".495" d="M427.0571,-522.3074C387.151,-517.3715 318.4552,-505.7752 264.8406,-480.5828 262.2355,-479.3587 259.6387,-477.9341 257.0958,-476.3857"/>
<polygon fill="#00ff00" stroke="#00ff00" stroke-width=".495" points="258.9753,-473.4319 248.7238,-470.7564 255.0693,-479.2408 258.9753,-473.4319"/>
</g>
<!-- 444 -->
<g id="node22" class="node">
<title>444</title>
<ellipse fill="#ffffff" stroke="#000000" cx="615.8406" cy="-231.8061" rx="25" ry="25"/>
<text text-anchor="middle" x="615.8406" y="-229.6061" font-family="Times,serif" font-size="9.00" fill="#000000">444</text>
</g>
<!-- center_dir&#45;&gt;444 -->
<g id="edge19" class="edge">
<title>center_dir&#45;&gt;444</title>
<path fill="none" stroke="#00ff00" stroke-width=".1229" stroke-dasharray="1,5" d="M492.6219,-520.6398C533.3351,-513.756 599.2278,-499.9144 613.8406,-480.5828 661.6986,-417.2709 641.8846,-316.6768 626.8886,-264.939"/>
<polygon fill="#00ff00" stroke="#00ff00" stroke-width=".1229" points="630.211,-263.8337 623.9751,-255.2684 623.5086,-265.853 630.211,-263.8337"/>
</g>
<!-- other_dist -->
<g id="node3" class="node">
<title>other_dist</title>
<polygon fill="#d3d3d3" stroke="#000000" points="336.3406,-460.5914 273.3406,-460.5914 273.3406,-442.5914 336.3406,-442.5914 336.3406,-460.5914"/>
<text text-anchor="middle" x="304.8406" y="-449.3914" font-family="Times,serif" font-size="9.00" fill="#000000">other_dist</text>
</g>
<!-- other_dist&#45;&gt;forward -->
<g id="edge38" class="edge">
<title>other_dist&#45;&gt;forward</title>
<path fill="none" stroke="#00ff00" stroke-width=".1863" stroke-dasharray="1,5" d="M298.3624,-442.4981C289.6911,-430.3266 273.7668,-407.9741 259.6727,-388.1905"/>
<polygon fill="#00ff00" stroke="#00ff00" stroke-width=".1863" points="262.4238,-386.02 253.7709,-379.9063 256.7226,-390.0816 262.4238,-386.02"/>
</g>
<!-- other_dist&#45;&gt;right -->
<g id="edge11" class="edge">
<title>other_dist&#45;&gt;right</title>
<path fill="none" stroke="#00ff00" stroke-width=".3543" stroke-dasharray="1,5" d="M303.423,-442.4274C298.9339,-413.4086 284.8507,-322.3714 276.7446,-269.971"/>
<polygon fill="#00ff00" stroke="#00ff00" stroke-width=".3543" points="280.1954,-269.3832 275.2077,-260.0359 273.2777,-270.4534 280.1954,-269.3832"/>
</g>
<!-- other_dist&#45;&gt;1132 -->
<g id="edge42" class="edge">
<title>other_dist&#45;&gt;1132</title>
<path fill="none" stroke="#00ff00" stroke-width=".1888" d="M309.189,-442.4981C315.3637,-429.5857 327.0176,-405.2154 336.8712,-384.6095"/>
<polygon fill="#00ff00" stroke="#00ff00" stroke-width=".1888" points="340.0892,-385.9931 341.2458,-375.4616 333.7741,-382.9732 340.0892,-385.9931"/>
</g>
<!-- other_dist&#45;&gt;444 -->
<g id="edge1" class="edge">
<title>other_dist&#45;&gt;444</title>
<path fill="none" stroke="#ff0000" stroke-width=".2657" stroke-dasharray="1,5" d="M334.5774,-442.5073C366.9064,-431.8801 419.3651,-412.4024 459.8406,-386.6001 521.6434,-347.2021 532.085,-329.4628 581.8406,-275.6468 586.3033,-270.8199 590.8031,-265.4507 595.003,-260.1714"/>
<polygon fill="#ff0000" stroke="#ff0000" stroke-width=".2657" points="597.946,-262.0877 601.3075,-252.0402 592.414,-257.7984 597.946,-262.0877"/>
</g>
<!-- other_dir -->
<g id="node4" class="node">
<title>other_dir</title>
<polygon fill="#d3d3d3" stroke="#000000" points="604.3406,-460.5914 545.3406,-460.5914 545.3406,-442.5914 604.3406,-442.5914 604.3406,-460.5914"/>
<text text-anchor="middle" x="574.8406" y="-449.3914" font-family="Times,serif" font-size="9.00" fill="#000000">other_dir</text>
</g>
<!-- other_dir&#45;&gt;forward -->
<g id="edge29" class="edge">
<title>other_dir&#45;&gt;forward</title>
<path fill="none" stroke="#ff0000" stroke-width=".904" d="M553.585,-442.505C538.298,-436.2387 517.0724,-428.0822 497.8406,-422.6001 418.5432,-399.9961 394.4299,-411.5549 315.8406,-386.6001 302.1236,-382.2444 287.6538,-376.3108 274.6613,-370.45"/>
<polygon fill="#ff0000" stroke="#ff0000" stroke-width=".904" points="276.0401,-367.2316 265.4938,-366.2189 273.1067,-373.5873 276.0401,-367.2316"/>
</g>
<!-- other_dir&#45;&gt;left -->
<g id="edge9" class="edge">
<title>other_dir&#45;&gt;left</title>
<path fill="none" stroke="#ff0000" stroke-width=".1923" stroke-dasharray="1,5" d="M582.2782,-442.3608C609.6694,-407.1782 700.7491,-278.8945 649.8406,-187.9655 641.4085,-172.9046 602.1455,-151.2982 573.8621,-137.2015"/>
<polygon fill="#ff0000" stroke="#ff0000" stroke-width=".1923" points="575.2707,-133.9941 564.7516,-132.7292 572.1859,-140.2778 575.2707,-133.9941"/>
</g>
<!-- 2944 -->
<g id="node15" class="node">
<title>2944</title>
<ellipse fill="#ffffff" stroke="#000000" cx="543.8406" cy="-231.8061" rx="28.9828" ry="28.9828"/>
<text text-anchor="middle" x="543.8406" y="-229.6061" font-family="Times,serif" font-size="9.00" fill="#000000">2944</text>
</g>
<!-- other_dir&#45;&gt;2944 -->
<g id="edge4" class="edge">
<title>other_dir&#45;&gt;2944</title>
<path fill="none" stroke="#ff0000" stroke-width=".2802" d="M573.5481,-442.4274C569.4765,-413.561 556.7491,-323.3255 549.3405,-270.7993"/>
<polygon fill="#ff0000" stroke="#ff0000" stroke-width=".2802" points="552.7962,-270.2394 547.9338,-260.8263 545.8648,-271.2171 552.7962,-270.2394"/>
</g>
<!-- other_dir&#45;&gt;444 -->
<g id="edge37" class="edge">
<title>other_dir&#45;&gt;444</title>
<path fill="none" stroke="#00ff00" stroke-width=".426" stroke-dasharray="1,5" d="M576.5501,-442.4274C582.094,-412.709 599.7716,-317.9458 609.4153,-266.2498"/>
<polygon fill="#00ff00" stroke="#00ff00" stroke-width=".426" points="612.8942,-266.6861 611.2875,-256.2139 606.0129,-265.4024 612.8942,-266.6861"/>
</g>
<!-- 2205 -->
<g id="node23" class="node">
<title>2205</title>
<ellipse fill="#ffffff" stroke="#000000" cx="725.8406" cy="-349.1234" rx="28.9828" ry="28.9828"/>
<text text-anchor="middle" x="725.8406" y="-346.9234" font-family="Times,serif" font-size="9.00" fill="#000000">2205</text>
</g>
<!-- other_dir&#45;&gt;2205 -->
<g id="edge41" class="edge">
<title>other_dir&#45;&gt;2205</title>
<path fill="none" stroke="#00ff00" stroke-width=".4012" d="M591.8856,-442.553C613.6731,-430.729 652.2347,-408.8824 682.8406,-386.6001 687.4439,-383.2487 692.1487,-379.5121 696.677,-375.7325"/>
<polygon fill="#00ff00" stroke="#00ff00" stroke-width=".4012" points="699.2655,-378.1235 704.5776,-368.9566 694.7084,-372.81 699.2655,-378.1235"/>
</g>
<!-- 1194 -->
<g id="node12" class="node">
<title>1194</title>
<ellipse fill="#ffffff" stroke="#000000" cx="172.8406" cy="-28.9914" rx="28.9828" ry="28.9828"/>
<text text-anchor="middle" x="172.8406" y="-26.7914" font-family="Times,serif" font-size="9.00" fill="#000000">1194</text>
</g>
<!-- backward&#45;&gt;1194 -->
<g id="edge12" class="edge">
<title>backward&#45;&gt;1194</title>
<path fill="none" stroke="#00ff00" stroke-width=".5143" d="M56.2943,-189.6181C65.9603,-161.0276 81.2021,-123.2655 101.8406,-93.9828 112.683,-78.5992 127.7273,-64.1723 141.1778,-52.8379"/>
<polygon fill="#00ff00" stroke="#00ff00" stroke-width=".5143" points="143.7698,-55.2396 149.2949,-46.1994 139.3382,-49.821 143.7698,-55.2396"/>
</g>
<!-- 2694 -->
<g id="node9" class="node">
<title>2694</title>
<ellipse fill="#ffffff" stroke="#000000" cx="839.8406" cy="-349.1234" rx="28.9828" ry="28.9828"/>
<text text-anchor="middle" x="839.8406" y="-346.9234" font-family="Times,serif" font-size="9.00" fill="#000000">2694</text>
</g>
<!-- 2694&#45;&gt;1747 -->
<g id="edge15" class="edge">
<title>2694&#45;&gt;1747</title>
<path fill="none" stroke="#00ff00" stroke-width=".248" d="M819.4597,-328.1494C800.9791,-309.131 773.5923,-280.9473 753.2086,-259.9704"/>
<polygon fill="#00ff00" stroke="#00ff00" stroke-width=".248" points="755.5242,-257.3312 746.0451,-252.5985 750.5039,-262.2094 755.5242,-257.3312"/>
</g>
<!-- 454 -->
<g id="node10" class="node">
<title>454</title>
<ellipse fill="#ffffff" stroke="#000000" cx="75.8406" cy="-349.1234" rx="25" ry="25"/>
<text text-anchor="middle" x="75.8406" y="-346.9234" font-family="Times,serif" font-size="9.00" fill="#000000">454</text>
</g>
<!-- 454&#45;&gt;right -->
<g id="edge40" class="edge">
<title>454&#45;&gt;right</title>
<path fill="none" stroke="#ff0000" stroke-width=".472" d="M92.7329,-330.7898C99.2655,-324.285 107.0411,-317.2062 114.8406,-311.6468 135.6243,-296.8322 196.1737,-267.1415 235.4367,-248.4376"/>
<polygon fill="#ff0000" stroke="#ff0000" stroke-width=".472" points="237.3899,-251.3848 244.9231,-243.9348 234.3883,-245.061 237.3899,-251.3848"/>
</g>
<!-- 2300 -->
<g id="node11" class="node">
<title>2300</title>
<ellipse fill="#ffffff" stroke="#000000" cx="172.8406" cy="-122.9741" rx="28.9828" ry="28.9828"/>
<text text-anchor="middle" x="172.8406" y="-120.7741" font-family="Times,serif" font-size="9.00" fill="#000000">2300</text>
</g>
<!-- 454&#45;&gt;2300 -->
<g id="edge36" class="edge">
<title>454&#45;&gt;2300</title>
<path fill="none" stroke="#ff0000" stroke-width=".1115" d="M92.5616,-330.4062C104.4426,-316.2454 119.9786,-295.8478 129.8406,-275.6468 147.7493,-238.9635 159.336,-193.57 165.9174,-161.8547"/>
<polygon fill="#ff0000" stroke="#ff0000" stroke-width=".1115" points="169.428,-162.1483 167.9594,-151.6558 162.5642,-160.7741 169.428,-162.1483"/>
</g>
<!-- 454&#45;&gt;1194 -->
<g id="edge22" class="edge">
<title>454&#45;&gt;1194</title>
<path fill="none" stroke="#ff0000" stroke-width=".1395" stroke-dasharray="1,5" d="M83.0872,-325.4143C87.3518,-311.0763 92.7025,-292.3902 96.8406,-275.6468 116.6317,-195.5692 105.1931,-170.9577 134.8406,-93.9828 139.0488,-83.057 144.9647,-71.8198 150.8779,-61.8269"/>
<polygon fill="#ff0000" stroke="#ff0000" stroke-width=".1395" points="154.019,-63.3997 156.2587,-53.0442 148.0501,-59.7428 154.019,-63.3997"/>
</g>
<!-- 2300&#45;&gt;1194 -->
<g id="edge25" class="edge">
<title>2300&#45;&gt;1194</title>
<path fill="none" stroke="#00ff00" stroke-width=".1279" d="M172.8406,-93.7526C172.8406,-85.7078 172.8406,-76.8481 172.8406,-68.3329"/>
<polygon fill="#00ff00" stroke="#00ff00" stroke-width=".1279" points="176.3407,-68.1948 172.8406,-58.1949 169.3407,-68.1949 176.3407,-68.1948"/>
</g>
<!-- 1132&#45;&gt;right -->
<g id="edge14" class="edge">
<title>1132&#45;&gt;right</title>
<path fill="none" stroke="#00ff00" stroke-width=".1788" d="M337.0443,-325.3825C324.4179,-307.5356 306.9947,-282.9085 293.1915,-263.3982"/>
<polygon fill="#00ff00" stroke="#00ff00" stroke-width=".1788" points="295.9615,-261.2534 287.3287,-255.1114 290.247,-265.2963 295.9615,-261.2534"/>
</g>
<!-- 2944&#45;&gt;left -->
<g id="edge39" class="edge">
<title>2944&#45;&gt;left</title>
<path fill="none" stroke="#ff0000" stroke-width=".1054" d="M543.8406,-202.6412C543.8406,-188.252 543.8406,-170.8361 543.8406,-155.9622"/>
<polygon fill="#ff0000" stroke="#ff0000" stroke-width=".1054" points="547.3407,-155.6605 543.8406,-145.6605 540.3407,-155.6606 547.3407,-155.6605"/>
</g>
<!-- 2734&#45;&gt;forward -->
<g id="edge20" class="edge">
<title>2734&#45;&gt;forward</title>
<path fill="none" stroke="#ff0000" stroke-width=".1021" d="M134.9447,-432.5581C151.9154,-417.9451 175.7116,-397.4547 195.4747,-380.4372"/>
<polygon fill="#ff0000" stroke="#ff0000" stroke-width=".1021" points="197.8123,-383.0432 203.1064,-373.8658 193.2447,-377.7387 197.8123,-383.0432"/>
</g>
<!-- 2544 -->
<g id="node17" class="node">
<title>2544</title>
<ellipse fill="#ffffff" stroke="#000000" cx="640.8406" cy="-122.9741" rx="28.9828" ry="28.9828"/>
<text text-anchor="middle" x="640.8406" y="-120.7741" font-family="Times,serif" font-size="9.00" fill="#000000">2544</text>
</g>
<!-- 2544&#45;&gt;1194 -->
<g id="edge17" class="edge">
<title>2544&#45;&gt;1194</title>
<path fill="none" stroke="#ff0000" stroke-width=".3061" d="M614.8675,-109.5274C603.2021,-103.9796 589.1029,-97.9363 575.8406,-93.9828 445.8907,-55.2442 285.0641,-38.107 212.1116,-31.9214"/>
<polygon fill="#ff0000" stroke="#ff0000" stroke-width=".3061" points="212.2539,-28.4213 201.9999,-31.0869 211.6782,-35.3976 212.2539,-28.4213"/>
</g>
<!-- 1747&#45;&gt;1194 -->
<g id="edge13" class="edge">
<title>1747&#45;&gt;1194</title>
<path fill="none" stroke="#00ff00" stroke-width=".3482" stroke-dasharray="1,5" d="M724.5767,-202.8122C721.5156,-170.9026 711.4392,-120.6117 678.8406,-93.9828 642.792,-64.5357 324.7438,-39.6259 212.1416,-31.6582"/>
<polygon fill="#00ff00" stroke="#00ff00" stroke-width=".3482" points="212.1226,-28.1484 201.9023,-30.9405 211.6331,-35.1313 212.1226,-28.1484"/>
</g>
<!-- 1747&#45;&gt;2544 -->
<g id="edge3" class="edge">
<title>1747&#45;&gt;2544</title>
<path fill="none" stroke="#00ff00" stroke-width=".4292" d="M707.8143,-208.7257C695.418,-192.8537 678.8078,-171.5864 665.2307,-154.2026"/>
<polygon fill="#00ff00" stroke="#00ff00" stroke-width=".4292" points="667.7547,-151.7481 658.8409,-146.0213 662.2379,-156.0568 667.7547,-151.7481"/>
</g>
<!-- 1077&#45;&gt;2205 -->
<g id="edge6" class="edge">
<title>1077&#45;&gt;2205</title>
<path fill="none" stroke="#ff0000" stroke-width=".3407" d="M712.9025,-422.7757C714.8166,-411.8793 717.0268,-399.2977 719.0727,-387.6512"/>
<polygon fill="#ff0000" stroke="#ff0000" stroke-width=".3407" points="722.5337,-388.1776 720.8167,-377.7229 715.6393,-386.9665 722.5337,-388.1776"/>
</g>
<!-- 2486&#45;&gt;forward -->
<g id="edge43" class="edge">
<title>2486&#45;&gt;forward</title>
<path fill="none" stroke="#00ff00" stroke-width=".4552" d="M228.26,-422.5023C228.6502,-414.5072 229.0838,-405.6212 229.5107,-396.8715"/>
<polygon fill="#00ff00" stroke="#00ff00" stroke-width=".4552" points="233.0142,-396.8829 230.0059,-386.7241 226.0226,-396.5416 233.0142,-396.8829"/>
</g>
<!-- 2486&#45;&gt;right -->
<g id="edge31" class="edge">
<title>2486&#45;&gt;right</title>
<path fill="none" stroke="#ff0000" stroke-width=".5031" d="M208.1853,-429.0746C199.573,-417.2209 190.2863,-401.9794 185.8406,-386.6001 176.5897,-354.5977 172.6125,-342.2204 185.8406,-311.6468 196.4854,-287.0438 218.8572,-266.5328 237.9777,-252.4623"/>
<polygon fill="#ff0000" stroke="#ff0000" stroke-width=".5031" points="240.059,-255.2772 246.204,-246.6465 236.018,-249.5614 240.059,-255.2772"/>
</g>
<!-- 855&#45;&gt;backward -->
<g id="edge5" class="edge">
<title>855&#45;&gt;backward</title>
<path fill="none" stroke="#00ff00" stroke-width=".2479" d="M411.467,-328.8832C405.9976,-322.5021 399.273,-315.9917 391.8406,-311.6468 329.6636,-275.2987 304.0408,-291.7432 233.8406,-275.6468 187.4972,-265.0205 134.8156,-252.8582 96.6995,-244.0438"/>
<polygon fill="#00ff00" stroke="#00ff00" stroke-width=".2479" points="97.3766,-240.608 86.845,-241.7644 95.7991,-247.428 97.3766,-240.608"/>
</g>
<!-- 855&#45;&gt;left -->
<g id="edge10" class="edge">
<title>855&#45;&gt;left</title>
<path fill="none" stroke="#00ff00" stroke-width=".2277" d="M428.8016,-324.5042C433.6874,-291.3565 445.7392,-231.5154 472.8406,-187.9655 484.0593,-169.938 501.6324,-153.7953 516.4883,-142.1074"/>
<polygon fill="#00ff00" stroke="#00ff00" stroke-width=".2277" points="519.0025,-144.5933 524.8527,-135.76 514.7709,-139.0171 519.0025,-144.5933"/>
</g>
<!-- 855&#45;&gt;right -->
<g id="edge34" class="edge">
<title>855&#45;&gt;right</title>
<path fill="none" stroke="#ff0000" stroke-width=".1853" d="M410.1022,-329.9365C404.6259,-323.7776 398.2438,-317.1353 391.8406,-311.6468 364.4403,-288.1606 329.7731,-265.9358 304.5761,-250.9278"/>
<polygon fill="#ff0000" stroke="#ff0000" stroke-width=".1853" points="306.1461,-247.7907 295.7524,-245.7361 302.5963,-253.8239 306.1461,-247.7907"/>
</g>
<!-- 855&#45;&gt;444 -->
<g id="edge24" class="edge">
<title>855&#45;&gt;444</title>
<path fill="none" stroke="#ff0000" stroke-width=".2384" d="M442.2391,-330.0288C448.7182,-323.4416 456.5863,-316.5052 464.8406,-311.6468 511.7276,-284.0494 537.0863,-306.5829 581.8406,-275.6468 587.3522,-271.8369 592.3789,-266.8605 596.7773,-261.6328"/>
<polygon fill="#ff0000" stroke="#ff0000" stroke-width=".2384" points="599.8307,-263.4037 603.1513,-253.3427 594.2813,-259.137 599.8307,-263.4037"/>
</g>
<!-- 444&#45;&gt;left -->
<g id="edge28" class="edge">
<title>444&#45;&gt;left</title>
<path fill="none" stroke="#00ff00" stroke-width=".2829" stroke-dasharray="1,5" d="M602.1285,-211.0795C590.7868,-193.9358 574.5792,-169.4371 562.1324,-150.6232"/>
<polygon fill="#00ff00" stroke="#00ff00" stroke-width=".2829" points="564.9727,-148.5729 556.5361,-142.164 559.1346,-152.4352 564.9727,-148.5729"/>
</g>
<!-- 2205&#45;&gt;1747 -->
<g id="edge18" class="edge">
<title>2205&#45;&gt;1747</title>
<path fill="none" stroke="#ff0000" stroke-width=".105" stroke-dasharray="1,5" d="M725.8406,-320.1236C725.8406,-305.3178 725.8406,-287.0909 725.8406,-271.048"/>
<polygon fill="#ff0000" stroke="#ff0000" stroke-width=".105" points="729.3407,-270.8789 725.8406,-260.8789 722.3407,-270.8789 729.3407,-270.8789"/>
</g>
<!-- 2205&#45;&gt;444 -->
<g id="edge32" class="edge">
<title>2205&#45;&gt;444</title>
<path fill="none" stroke="#ff0000" stroke-width=".1224" d="M705.9205,-327.8781C687.3933,-308.1185 659.7513,-278.6378 639.9783,-257.5495"/>
<polygon fill="#ff0000" stroke="#ff0000" stroke-width=".1224" points="642.4742,-255.0943 633.081,-250.1934 637.3677,-259.8823 642.4742,-255.0943"/>
</g>
</g>
</svg>
