<?xml version="1.0" encoding="UTF-8" standalone="no"?>
<!DOCTYPE svg PUBLIC "-//W3C//DTD SVG 1.1//EN"
 "http://www.w3.org/Graphics/SVG/1.1/DTD/svg11.dtd">
<!-- Generated by graphviz version 2.40.1 (20161225.0304)
 -->
<!-- Title: %3 Pages: 1 -->
<svg width="884pt" height="677pt"
 viewBox="0.00 0.00 883.79 676.55" xmlns="http://www.w3.org/2000/svg" xmlns:xlink="http://www.w3.org/1999/xlink">
<g id="graph0" class="graph" transform="scale(1 1) rotate(0) translate(4 672.5483)">
<title>%3</title>
<polygon fill="#ffffff" stroke="transparent" points="-4,4 -4,-672.5483 879.7937,-672.5483 879.7937,4 -4,4"/>
<!-- center_dist -->
<g id="node1" class="node">
<title>center_dist</title>
<polygon fill="#d3d3d3" stroke="#000000" points="68,-648.557 0,-648.557 0,-630.557 68,-630.557 68,-648.557"/>
<text text-anchor="middle" x="34" y="-637.357" font-family="Times,serif" font-size="9.00" fill="#000000">center_dist</text>
</g>
<!-- forward -->
<g id="node5" class="node">
<title>forward</title>
<ellipse fill="#add8e6" stroke="#000000" cx="178" cy="-443.1062" rx="37.4533" ry="37.4533"/>
<text text-anchor="middle" x="178" y="-440.9062" font-family="Times,serif" font-size="9.00" fill="#000000">forward</text>
</g>
<!-- center_dist&#45;&gt;forward -->
<g id="edge2" class="edge">
<title>center_dist&#45;&gt;forward</title>
<path fill="none" stroke="#ff0000" stroke-width=".1079" stroke-dasharray="1,5" d="M32.9081,-630.2698C30.831,-608.3812 28.4921,-552.6888 53,-516.5828 71.9065,-488.729 105.1715,-469.9252 132.634,-458.3171"/>
<polygon fill="#ff0000" stroke="#ff0000" stroke-width=".1079" points="134.1091,-461.4961 142.0727,-454.5082 131.4895,-455.0047 134.1091,-461.4961"/>
</g>
<!-- 2734 -->
<g id="node16" class="node">
<title>2734</title>
<ellipse fill="#ffffff" stroke="#000000" cx="91" cy="-545.5742" rx="28.9828" ry="28.9828"/>
<text text-anchor="middle" x="91" y="-543.3742" font-family="Times,serif" font-size="9.00" fill="#000000">2734</text>
</g>
<!-- center_dist&#45;&gt;2734 -->
<g id="edge16" class="edge">
<title>center_dist&#45;&gt;2734</title>
<path fill="none" stroke="#00ff00" stroke-width=".2541" stroke-dasharray="1,5" d="M39.4654,-630.5455C46.6013,-618.7796 59.4918,-597.5256 70.5949,-579.2186"/>
<polygon fill="#00ff00" stroke="#00ff00" stroke-width=".2541" points="73.6757,-580.8881 75.8689,-570.5227 67.6905,-577.2581 73.6757,-580.8881"/>
</g>
<!-- 855 -->
<g id="node21" class="node">
<title>855</title>
<ellipse fill="#ffffff" stroke="#000000" cx="56" cy="-443.1062" rx="25" ry="25"/>
<text text-anchor="middle" x="56" y="-440.9062" font-family="Times,serif" font-size="9.00" fill="#000000">855</text>
</g>
<!-- center_dist&#45;&gt;855 -->
<g id="edge26" class="edge">
<title>center_dist&#45;&gt;855</title>
<path fill="none" stroke="#00ff00" stroke-width=".4561" d="M30.8902,-630.4878C24.2991,-609.9562 10.2952,-558.4479 20,-516.5828 23.5106,-501.4386 30.5986,-485.8147 37.5639,-472.8888"/>
<polygon fill="#00ff00" stroke="#00ff00" stroke-width=".4561" points="40.7119,-474.4312 42.5611,-463.999 34.6099,-471.0011 40.7119,-474.4312"/>
</g>
<!-- center_dir -->
<g id="node2" class="node">
<title>center_dir</title>
<polygon fill="#d3d3d3" stroke="#000000" points="484.5,-648.557 419.5,-648.557 419.5,-630.557 484.5,-630.557 484.5,-648.557"/>
<text text-anchor="middle" x="452" y="-637.357" font-family="Times,serif" font-size="9.00" fill="#000000">center_dir</text>
</g>
<!-- backward -->
<g id="node6" class="node">
<title>backward</title>
<ellipse fill="#add8e6" stroke="#000000" cx="85" cy="-231.8061" rx="43.6818" ry="43.6818"/>
<text text-anchor="middle" x="85" y="-229.6061" font-family="Times,serif" font-size="9.00" fill="#000000">backward</text>
</g>
<!-- center_dir&#45;&gt;backward -->
<g id="edge13" class="edge">
<title>center_dir&#45;&gt;backward</title>
<path fill="none" stroke="#00ff00" stroke-width=".1539" stroke-dasharray="1,5" d="M419.3833,-637.8059C368.9963,-633.7016 270.9573,-620.0238 203,-574.5656 159.4877,-545.4593 153.1957,-528.4497 132,-480.5828 116.8699,-446.414 101.1042,-347.8854 92.2219,-285.5658"/>
<polygon fill="#00ff00" stroke="#00ff00" stroke-width=".1539" points="95.6662,-284.9249 90.8038,-275.5118 88.7348,-285.9026 95.6662,-284.9249"/>
</g>
<!-- left -->
<g id="node7" class="node">
<title>left</title>
<ellipse fill="#add8e6" stroke="#000000" cx="528" cy="-122.9741" rx="22.7556" ry="22.7556"/>
<text text-anchor="middle" x="528" y="-120.7741" font-family="Times,serif" font-size="9.00" fill="#000000">left</text>
</g>
<!-- center_dir&#45;&gt;left -->
<g id="edge20" class="edge">
<title>center_dir&#45;&gt;left</title>
<path fill="none" stroke="#00ff00" stroke-width=".4381" d="M462.3887,-630.3488C470.2628,-623.8553 481.6345,-615.4719 493,-610.5656 567.1031,-578.5765 613.6342,-631.3435 671,-574.5656 713.4575,-532.5433 699,-502.8432 699,-443.1062 699,-443.1062 699,-443.1062 699,-340.6381 699,-249.2535 604.6432,-173.5294 556.1115,-140.6251"/>
<polygon fill="#00ff00" stroke="#00ff00" stroke-width=".4381" points="557.883,-137.6001 547.6159,-134.9854 554.0115,-143.4321 557.883,-137.6001"/>
</g>
<!-- right -->
<g id="node8" class="node">
<title>right</title>
<ellipse fill="#add8e6" stroke="#000000" cx="328" cy="-340.6381" rx="28.0702" ry="28.0702"/>
<text text-anchor="middle" x="328" y="-338.4381" font-family="Times,serif" font-size="9.00" fill="#000000">right</text>
</g>
<!-- center_dir&#45;&gt;right -->
<g id="edge37" class="edge">
<title>center_dir&#45;&gt;right</title>
<path fill="none" stroke="#00ff00" stroke-width=".937" d="M448.4073,-630.1271C436.2412,-598.304 395.2746,-492.0349 358,-405.6295 353.7912,-395.8733 349.0474,-385.3844 344.5954,-375.7405"/>
<polygon fill="#00ff00" stroke="#00ff00" stroke-width=".937" points="347.6601,-374.03 340.2713,-366.4368 341.3122,-376.9803 347.6601,-374.03"/>
</g>
<!-- 444 -->
<g id="node11" class="node">
<title>444</title>
<ellipse fill="#ffffff" stroke="#000000" cx="471" cy="-340.6381" rx="25" ry="25"/>
<text text-anchor="middle" x="471" y="-338.4381" font-family="Times,serif" font-size="9.00" fill="#000000">444</text>
</g>
<!-- center_dir&#45;&gt;444 -->
<g id="edge17" class="edge">
<title>center_dir&#45;&gt;444</title>
<path fill="none" stroke="#ff0000" stroke-width=".1252" stroke-dasharray="1,5" d="M452.5895,-630.2831C455.0272,-591.932 464.3962,-444.5332 468.7508,-376.0231"/>
<polygon fill="#ff0000" stroke="#ff0000" stroke-width=".1252" points="472.2634,-375.9357 469.4049,-365.7338 465.2775,-375.4916 472.2634,-375.9357"/>
</g>
<!-- 1132 -->
<g id="node14" class="node">
<title>1132</title>
<ellipse fill="#ffffff" stroke="#000000" cx="300" cy="-443.1062" rx="28.9828" ry="28.9828"/>
<text text-anchor="middle" x="300" y="-440.9062" font-family="Times,serif" font-size="9.00" fill="#000000">1132</text>
</g>
<!-- center_dir&#45;&gt;1132 -->
<g id="edge19" class="edge">
<title>center_dir&#45;&gt;1132</title>
<path fill="none" stroke="#00ff00" stroke-width=".4861" stroke-dasharray="1,5" d="M419.2764,-632.2089C389.107,-623.6497 345.5471,-606.4233 322,-574.5656 302.486,-548.1644 297.8443,-510.6502 297.5839,-482.4494"/>
<polygon fill="#00ff00" stroke="#00ff00" stroke-width=".4861" points="301.0865,-482.171 297.6768,-472.1398 294.0867,-482.1079 301.0865,-482.171"/>
</g>
<!-- 1747 -->
<g id="node18" class="node">
<title>1747</title>
<ellipse fill="#ffffff" stroke="#000000" cx="832" cy="-340.6381" rx="28.9828" ry="28.9828"/>
<text text-anchor="middle" x="832" y="-338.4381" font-family="Times,serif" font-size="9.00" fill="#000000">1747</text>
</g>
<!-- center_dir&#45;&gt;1747 -->
<g id="edge31" class="edge">
<title>center_dir&#45;&gt;1747</title>
<path fill="none" stroke="#00ff00" stroke-width=".3428" d="M462.0059,-630.4979C469.8629,-623.903 481.3835,-615.3249 493,-610.5656 653.8975,-544.6461 778.0238,-632.8372 862,-480.5828 880.2463,-447.5011 866.2363,-404.3504 851.8493,-374.7606"/>
<polygon fill="#00ff00" stroke="#00ff00" stroke-width=".3428" points="854.8683,-372.9765 847.2054,-365.66 848.6332,-376.1582 854.8683,-372.9765"/>
</g>
<!-- 1077 -->
<g id="node19" class="node">
<title>1077</title>
<ellipse fill="#ffffff" stroke="#000000" cx="633" cy="-545.5742" rx="28.9828" ry="28.9828"/>
<text text-anchor="middle" x="633" y="-543.3742" font-family="Times,serif" font-size="9.00" fill="#000000">1077</text>
</g>
<!-- center_dir&#45;&gt;1077 -->
<g id="edge35" class="edge">
<title>center_dir&#45;&gt;1077</title>
<path fill="none" stroke="#00ff00" stroke-width=".4204" d="M463.3454,-630.3816C471.3128,-624.2332 482.3987,-616.253 493,-610.5656 532.0565,-589.6124 546.3052,-594.2828 586,-574.5656 590.6044,-572.2785 595.3421,-569.6774 599.9552,-566.9944"/>
<polygon fill="#00ff00" stroke="#00ff00" stroke-width=".4204" points="601.8378,-569.9464 608.6052,-561.7945 598.2313,-563.947 601.8378,-569.9464"/>
</g>
<!-- 2486 -->
<g id="node20" class="node">
<title>2486</title>
<ellipse fill="#ffffff" stroke="#000000" cx="360" cy="-545.5742" rx="28.9828" ry="28.9828"/>
<text text-anchor="middle" x="360" y="-543.3742" font-family="Times,serif" font-size="9.00" fill="#000000">2486</text>
</g>
<!-- center_dir&#45;&gt;2486 -->
<g id="edge6" class="edge">
<title>center_dir&#45;&gt;2486</title>
<path fill="none" stroke="#00ff00" stroke-width=".4558" d="M443.1787,-630.5455C430.5528,-617.6476 406.7656,-593.3477 387.8527,-574.0272"/>
<polygon fill="#00ff00" stroke="#00ff00" stroke-width=".4558" points="390.1126,-571.3324 380.6162,-566.6347 385.1103,-576.2291 390.1126,-571.3324"/>
</g>
<!-- other_dist -->
<g id="node3" class="node">
<title>other_dist</title>
<polygon fill="#d3d3d3" stroke="#000000" points="274.5,-554.5742 211.5,-554.5742 211.5,-536.5742 274.5,-536.5742 274.5,-554.5742"/>
<text text-anchor="middle" x="243" y="-543.3742" font-family="Times,serif" font-size="9.00" fill="#000000">other_dist</text>
</g>
<!-- other_dist&#45;&gt;forward -->
<g id="edge40" class="edge">
<title>other_dist&#45;&gt;forward</title>
<path fill="none" stroke="#00ff00" stroke-width=".9785" stroke-dasharray="1,5" d="M237.2317,-536.4809C229.6535,-524.5343 215.8536,-502.7797 203.4796,-483.2729"/>
<polygon fill="#00ff00" stroke="#00ff00" stroke-width=".9785" points="206.4168,-481.3692 198.1046,-474.7997 200.5058,-485.1189 206.4168,-481.3692"/>
</g>
<!-- other_dist&#45;&gt;right -->
<g id="edge8" class="edge">
<title>other_dist&#45;&gt;right</title>
<path fill="none" stroke="#ff0000" stroke-width=".4951" stroke-dasharray="1,5" d="M242.2834,-536.4766C240.8532,-513.2784 239.5047,-450.5783 262,-405.6295 270.1653,-389.3141 284.056,-374.6952 296.9937,-363.4736"/>
<polygon fill="#ff0000" stroke="#ff0000" stroke-width=".4951" points="299.4059,-366.0201 304.8664,-356.9408 294.9358,-360.6332 299.4059,-366.0201"/>
</g>
<!-- other_dist&#45;&gt;444 -->
<g id="edge1" class="edge">
<title>other_dist&#45;&gt;444</title>
<path fill="none" stroke="#ff0000" stroke-width=".2344" stroke-dasharray="1,5" d="M258.5202,-536.372C277.9425,-524.5452 311.8316,-502.8674 338,-480.5828 379.9863,-444.828 422.9408,-397.2264 448.276,-367.7749"/>
<polygon fill="#ff0000" stroke="#ff0000" stroke-width=".2344" points="451.1055,-369.8512 454.9392,-359.9743 445.7829,-365.3047 451.1055,-369.8512"/>
</g>
<!-- other_dist&#45;&gt;1132 -->
<g id="edge44" class="edge">
<title>other_dist&#45;&gt;1132</title>
<path fill="none" stroke="#00ff00" stroke-width=".2362" d="M248.0584,-536.4809C255.3684,-523.3397 269.2802,-498.3308 280.8675,-477.5004"/>
<polygon fill="#00ff00" stroke="#00ff00" stroke-width=".2362" points="284.0274,-479.0197 285.83,-468.5794 277.9101,-475.6168 284.0274,-479.0197"/>
</g>
<!-- other_dir -->
<g id="node4" class="node">
<title>other_dir</title>
<polygon fill="#d3d3d3" stroke="#000000" points="576.5,-554.5742 517.5,-554.5742 517.5,-536.5742 576.5,-536.5742 576.5,-554.5742"/>
<text text-anchor="middle" x="547" y="-543.3742" font-family="Times,serif" font-size="9.00" fill="#000000">other_dir</text>
</g>
<!-- other_dir&#45;&gt;forward -->
<g id="edge29" class="edge">
<title>other_dir&#45;&gt;forward</title>
<path fill="none" stroke="#ff0000" stroke-width="1.1176" d="M517.0806,-539.5256C454.0849,-526.664 309.6608,-496.4791 262,-480.5828 248.3474,-476.0293 233.8966,-470.037 220.9018,-464.1835"/>
<polygon fill="#ff0000" stroke="#ff0000" stroke-width="1.1176" points="222.2772,-460.9636 211.7292,-459.9682 219.3542,-467.3242 222.2772,-460.9636"/>
</g>
<!-- other_dir&#45;&gt;left -->
<g id="edge7" class="edge">
<title>other_dir&#45;&gt;left</title>
<path fill="none" stroke="#ff0000" stroke-width=".2254" stroke-dasharray="1,5" d="M549.5233,-536.5092C560.5566,-495.365 602.4138,-322.3869 566,-187.9655 562.3056,-174.3278 554.9554,-160.6189 547.6956,-149.3307"/>
<polygon fill="#ff0000" stroke="#ff0000" stroke-width=".2254" points="550.4616,-147.1726 541.9644,-140.8444 544.6606,-151.0904 550.4616,-147.1726"/>
</g>
<!-- other_dir&#45;&gt;444 -->
<g id="edge39" class="edge">
<title>other_dir&#45;&gt;444</title>
<path fill="none" stroke="#00ff00" stroke-width=".583" stroke-dasharray="1,5" d="M543.6363,-536.5039C533.2035,-508.3717 501.0259,-421.6037 483.2001,-373.5362"/>
<polygon fill="#00ff00" stroke="#00ff00" stroke-width=".583" points="486.3859,-372.0605 479.6272,-363.9015 479.8227,-374.4945 486.3859,-372.0605"/>
</g>
<!-- 2944 -->
<g id="node15" class="node">
<title>2944</title>
<ellipse fill="#ffffff" stroke="#000000" cx="528" cy="-231.8061" rx="28.9828" ry="28.9828"/>
<text text-anchor="middle" x="528" y="-229.6061" font-family="Times,serif" font-size="9.00" fill="#000000">2944</text>
</g>
<!-- other_dir&#45;&gt;2944 -->
<g id="edge30" class="edge">
<title>other_dir&#45;&gt;2944</title>
<path fill="none" stroke="#ff0000" stroke-width=".175" d="M546.4519,-536.5221C544.1032,-497.7354 534.8076,-344.2273 530.3752,-271.0303"/>
<polygon fill="#ff0000" stroke="#ff0000" stroke-width=".175" points="533.8561,-270.6068 529.7579,-260.8367 526.8689,-271.03 533.8561,-270.6068"/>
</g>
<!-- 2205 -->
<g id="node25" class="node">
<title>2205</title>
<ellipse fill="#ffffff" stroke="#000000" cx="642" cy="-443.1062" rx="28.9828" ry="28.9828"/>
<text text-anchor="middle" x="642" y="-440.9062" font-family="Times,serif" font-size="9.00" fill="#000000">2205</text>
</g>
<!-- other_dir&#45;&gt;2205 -->
<g id="edge43" class="edge">
<title>other_dir&#45;&gt;2205</title>
<path fill="none" stroke="#ff0000" stroke-width=".2645" d="M555.4306,-536.4809C568.7543,-522.1098 595.2365,-493.5457 615.4207,-471.7749"/>
<polygon fill="#ff0000" stroke="#ff0000" stroke-width=".2645" points="618.0333,-474.1049 622.2655,-464.392 612.9,-469.3457 618.0333,-474.1049"/>
</g>
<!-- 1194 -->
<g id="node12" class="node">
<title>1194</title>
<ellipse fill="#ffffff" stroke="#000000" cx="794" cy="-28.9914" rx="28.9828" ry="28.9828"/>
<text text-anchor="middle" x="794" y="-26.7914" font-family="Times,serif" font-size="9.00" fill="#000000">1194</text>
</g>
<!-- backward&#45;&gt;1194 -->
<g id="edge9" class="edge">
<title>backward&#45;&gt;1194</title>
<path fill="none" stroke="#00ff00" stroke-width=".5741" d="M126.252,-216.3065C199.7875,-189.0532 358.6994,-131.8549 496,-93.9828 588.0252,-68.5991 698.2234,-46.7361 755.362,-36.0234"/>
<polygon fill="#00ff00" stroke="#00ff00" stroke-width=".5741" points="756.207,-39.4262 765.3972,-34.1545 754.9254,-32.5446 756.207,-39.4262"/>
</g>
<!-- 2694 -->
<g id="node9" class="node">
<title>2694</title>
<ellipse fill="#ffffff" stroke="#000000" cx="824" cy="-443.1062" rx="28.9828" ry="28.9828"/>
<text text-anchor="middle" x="824" y="-440.9062" font-family="Times,serif" font-size="9.00" fill="#000000">2694</text>
</g>
<!-- 2694&#45;&gt;1747 -->
<g id="edge12" class="edge">
<title>2694&#45;&gt;1747</title>
<path fill="none" stroke="#ff0000" stroke-width=".1943" d="M826.2711,-414.017C827.0987,-403.4167 828.0486,-391.2503 828.9338,-379.9116"/>
<polygon fill="#ff0000" stroke="#ff0000" stroke-width=".1943" points="832.4342,-380.0421 829.7232,-369.8 825.4554,-379.4972 832.4342,-380.0421"/>
</g>
<!-- 454 -->
<g id="node10" class="node">
<title>454</title>
<ellipse fill="#ffffff" stroke="#000000" cx="752" cy="-443.1062" rx="25" ry="25"/>
<text text-anchor="middle" x="752" y="-440.9062" font-family="Times,serif" font-size="9.00" fill="#000000">454</text>
</g>
<!-- 454&#45;&gt;right -->
<g id="edge42" class="edge">
<title>454&#45;&gt;right</title>
<path fill="none" stroke="#00ff00" stroke-width=".2195" d="M731.0789,-429.8355C717.1298,-421.5974 698.0969,-411.4963 680,-405.6295 576.1426,-371.96 543.9255,-391.6963 437,-369.6295 412.7735,-364.6298 385.9143,-357.5047 364.9201,-351.5694"/>
<polygon fill="#00ff00" stroke="#00ff00" stroke-width=".2195" points="365.6993,-348.152 355.1223,-348.7658 363.7735,-354.8819 365.6993,-348.152"/>
</g>
<!-- 454&#45;&gt;1194 -->
<g id="edge25" class="edge">
<title>454&#45;&gt;1194</title>
<path fill="none" stroke="#ff0000" stroke-width=".1387" stroke-dasharray="1,5" d="M748.0327,-418.3783C739.6368,-360.3964 723.3892,-211.6894 756,-93.9828 759.1849,-82.487 764.9286,-70.9277 771.0019,-60.8112"/>
<polygon fill="#ff0000" stroke="#ff0000" stroke-width=".1387" points="773.9788,-62.6522 776.3678,-52.3302 768.0633,-58.9095 773.9788,-62.6522"/>
</g>
<!-- 2300 -->
<g id="node24" class="node">
<title>2300</title>
<ellipse fill="#ffffff" stroke="#000000" cx="794" cy="-122.9741" rx="28.9828" ry="28.9828"/>
<text text-anchor="middle" x="794" y="-120.7741" font-family="Times,serif" font-size="9.00" fill="#000000">2300</text>
</g>
<!-- 454&#45;&gt;2300 -->
<g id="edge38" class="edge">
<title>454&#45;&gt;2300</title>
<path fill="none" stroke="#00ff00" stroke-width=".848" d="M755.2259,-418.5175C762.4827,-363.2047 780.141,-228.6102 788.8999,-161.8482"/>
<polygon fill="#00ff00" stroke="#00ff00" stroke-width=".848" points="792.3956,-162.1086 790.2263,-151.7383 785.4551,-161.198 792.3956,-162.1086"/>
</g>
<!-- 444&#45;&gt;left -->
<g id="edge28" class="edge">
<title>444&#45;&gt;left</title>
<path fill="none" stroke="#00ff00" stroke-width=".4499" stroke-dasharray="1,5" d="M471.0487,-315.6294C471.796,-284.8141 475.353,-231.2276 490,-187.9655 494.4979,-174.6801 501.9023,-161.1127 508.9859,-149.8341"/>
<polygon fill="#00ff00" stroke="#00ff00" stroke-width=".4499" points="512.0024,-151.6161 514.5365,-141.3288 506.1402,-147.7904 512.0024,-151.6161"/>
</g>
<!-- 3088 -->
<g id="node22" class="node">
<title>3088</title>
<ellipse fill="#ffffff" stroke="#000000" cx="414" cy="-231.8061" rx="28.9828" ry="28.9828"/>
<text text-anchor="middle" x="414" y="-229.6061" font-family="Times,serif" font-size="9.00" fill="#000000">3088</text>
</g>
<!-- 444&#45;&gt;3088 -->
<g id="edge14" class="edge">
<title>444&#45;&gt;3088</title>
<path fill="none" stroke="#ff0000" stroke-width=".1582" d="M459.4652,-318.6144C451.6701,-303.7309 441.2128,-283.7644 432.2926,-266.7328"/>
<polygon fill="#ff0000" stroke="#ff0000" stroke-width=".1582" points="435.2619,-264.8584 427.5218,-257.6237 429.0609,-268.1061 435.2619,-264.8584"/>
</g>
<!-- 2763 -->
<g id="node13" class="node">
<title>2763</title>
<ellipse fill="#ffffff" stroke="#000000" cx="531" cy="-639.557" rx="28.9828" ry="28.9828"/>
<text text-anchor="middle" x="531" y="-637.357" font-family="Times,serif" font-size="9.00" fill="#000000">2763</text>
</g>
<!-- 1132&#45;&gt;right -->
<g id="edge11" class="edge">
<title>1132&#45;&gt;right</title>
<path fill="none" stroke="#00ff00" stroke-width=".1906" d="M307.6511,-415.1063C310.763,-403.7181 314.4059,-390.3869 317.7426,-378.1759"/>
<polygon fill="#00ff00" stroke="#00ff00" stroke-width=".1906" points="321.1953,-378.8183 320.4551,-368.2493 314.4429,-376.9731 321.1953,-378.8183"/>
</g>
<!-- 2944&#45;&gt;left -->
<g id="edge46" class="edge">
<title>2944&#45;&gt;left</title>
<path fill="none" stroke="#ff0000" stroke-width=".3076" d="M528,-202.6412C528,-188.252 528,-170.8361 528,-155.9622"/>
<polygon fill="#ff0000" stroke="#ff0000" stroke-width=".3076" points="531.5001,-155.6605 528,-145.6605 524.5001,-155.6606 531.5001,-155.6605"/>
</g>
<!-- 2734&#45;&gt;forward -->
<g id="edge18" class="edge">
<title>2734&#45;&gt;forward</title>
<path fill="none" stroke="#00ff00" stroke-width=".3205" d="M109.8777,-523.3402C120.6724,-510.6263 134.4834,-494.3598 146.8444,-479.801"/>
<polygon fill="#00ff00" stroke="#00ff00" stroke-width=".3205" points="149.7299,-481.8102 153.5341,-471.9219 144.3938,-477.2796 149.7299,-481.8102"/>
</g>
<!-- 2544 -->
<g id="node17" class="node">
<title>2544</title>
<ellipse fill="#ffffff" stroke="#000000" cx="832" cy="-231.8061" rx="28.9828" ry="28.9828"/>
<text text-anchor="middle" x="832" y="-229.6061" font-family="Times,serif" font-size="9.00" fill="#000000">2544</text>
</g>
<!-- 2544&#45;&gt;1194 -->
<g id="edge15" class="edge">
<title>2544&#45;&gt;1194</title>
<path fill="none" stroke="#ff0000" stroke-width=".2414" d="M836.3152,-202.9884C839.5534,-174.6988 841.9163,-130.5888 832,-93.9828 828.881,-82.469 823.1562,-70.9045 817.08,-60.7888"/>
<polygon fill="#ff0000" stroke="#ff0000" stroke-width=".2414" points="820.0159,-58.8829 811.7065,-52.3099 814.1033,-62.6301 820.0159,-58.8829"/>
</g>
<!-- 2544&#45;&gt;2300 -->
<g id="edge27" class="edge">
<title>2544&#45;&gt;2300</title>
<path fill="none" stroke="#ff0000" stroke-width=".3473" d="M822.411,-204.3432C817.7306,-190.9385 812.0308,-174.6144 806.9685,-160.1158"/>
<polygon fill="#ff0000" stroke="#ff0000" stroke-width=".3473" points="810.1868,-158.7155 803.5859,-150.4283 803.5781,-161.0231 810.1868,-158.7155"/>
</g>
<!-- 1747&#45;&gt;1194 -->
<g id="edge10" class="edge">
<title>1747&#45;&gt;1194</title>
<path fill="none" stroke="#00ff00" stroke-width=".4315" stroke-dasharray="1,5" d="M849.7065,-317.3196C857.5787,-305.5045 865.9674,-290.5332 870,-275.6468 880.1893,-238.033 874.2748,-226.6998 870,-187.9655 865.305,-145.4236 868.0424,-132.3134 849,-93.9828 842.2792,-80.4544 832.1595,-67.37 822.4255,-56.531"/>
<polygon fill="#00ff00" stroke="#00ff00" stroke-width=".4315" points="824.8396,-53.9878 815.46,-49.0611 819.7201,-58.7618 824.8396,-53.9878"/>
</g>
<!-- 1747&#45;&gt;2544 -->
<g id="edge3" class="edge">
<title>1747&#45;&gt;2544</title>
<path fill="none" stroke="#00ff00" stroke-width=".7139" d="M832,-311.4732C832,-299.152 832,-284.6115 832,-271.3481"/>
<polygon fill="#00ff00" stroke="#00ff00" stroke-width=".7139" points="835.5001,-271.0516 832,-261.0516 828.5001,-271.0517 835.5001,-271.0516"/>
</g>
<!-- 1077&#45;&gt;2205 -->
<g id="edge5" class="edge">
<title>1077&#45;&gt;2205</title>
<path fill="none" stroke="#00ff00" stroke-width=".1733" d="M635.555,-516.4851C636.486,-505.8847 637.5546,-493.7183 638.5505,-482.3797"/>
<polygon fill="#00ff00" stroke="#00ff00" stroke-width=".1733" points="642.0502,-482.536 639.4386,-472.268 635.077,-481.9234 642.0502,-482.536"/>
</g>
<!-- 2486&#45;&gt;forward -->
<g id="edge41" class="edge">
<title>2486&#45;&gt;forward</title>
<path fill="none" stroke="#00ff00" stroke-width=".3043" d="M334.6937,-531.3265C305.0159,-514.6176 255.3776,-486.6706 219.922,-466.7087"/>
<polygon fill="#00ff00" stroke="#00ff00" stroke-width=".3043" points="221.212,-463.4185 210.781,-461.5623 217.7778,-469.5182 221.212,-463.4185"/>
</g>
<!-- 2486&#45;&gt;right -->
<g id="edge33" class="edge">
<title>2486&#45;&gt;right</title>
<path fill="none" stroke="#ff0000" stroke-width=".1906" stroke-dasharray="1,5" d="M355.4831,-516.6465C349.841,-480.5132 340.1725,-418.5936 333.9367,-378.6585"/>
<polygon fill="#ff0000" stroke="#ff0000" stroke-width=".1906" points="337.3922,-378.1011 332.3913,-368.7608 330.476,-379.1811 337.3922,-378.1011"/>
</g>
<!-- 855&#45;&gt;backward -->
<g id="edge4" class="edge">
<title>855&#45;&gt;backward</title>
<path fill="none" stroke="#00ff00" stroke-width=".3379" stroke-dasharray="1,5" d="M42.0155,-422.6289C33.2068,-408.4459 22.6509,-388.7469 18,-369.6295 11.9083,-344.5897 9.1856,-335.8626 18,-311.6468 23.7406,-295.8758 34.1162,-281.0523 45.0147,-268.56"/>
<polygon fill="#00ff00" stroke="#00ff00" stroke-width=".3379" points="47.6726,-270.8399 51.8314,-261.0954 42.5036,-266.1195 47.6726,-270.8399"/>
</g>
<!-- 855&#45;&gt;right -->
<g id="edge36" class="edge">
<title>855&#45;&gt;right</title>
<path fill="none" stroke="#ff0000" stroke-width=".1331" d="M77.9106,-431.2978C92.8976,-423.4716 113.3523,-413.2763 132,-405.6295 186.1608,-383.4201 250.9699,-363.1019 290.809,-351.2978"/>
<polygon fill="#ff0000" stroke="#ff0000" stroke-width=".1331" points="292.0148,-354.5915 300.6217,-348.4132 290.0405,-347.8757 292.0148,-354.5915"/>
</g>
<!-- 855&#45;&gt;444 -->
<g id="edge22" class="edge">
<title>855&#45;&gt;444</title>
<path fill="none" stroke="#00ff00" stroke-width=".1786" d="M77.5395,-430.2731C92.3654,-422.002 112.7798,-411.6954 132,-405.6295 231.9259,-374.0926 262.5206,-391.4866 365,-369.6295 389.5337,-364.3969 416.8282,-356.8915 437.5757,-350.8284"/>
<polygon fill="#00ff00" stroke="#00ff00" stroke-width=".1786" points="438.5972,-354.1762 447.1941,-347.984 436.6121,-347.4636 438.5972,-354.1762"/>
</g>
<!-- 3046 -->
<g id="node23" class="node">
<title>3046</title>
<ellipse fill="#ffffff" stroke="#000000" cx="56" cy="-340.6381" rx="28.9828" ry="28.9828"/>
<text text-anchor="middle" x="56" y="-338.4381" font-family="Times,serif" font-size="9.00" fill="#000000">3046</text>
</g>
<!-- 855&#45;&gt;3046 -->
<g id="edge32" class="edge">
<title>855&#45;&gt;3046</title>
<path fill="none" stroke="#ff0000" stroke-width=".2662" d="M56,-418.3015C56,-406.8044 56,-392.8622 56,-379.9813"/>
<polygon fill="#ff0000" stroke="#ff0000" stroke-width=".2662" points="59.5001,-379.9456 56,-369.9456 52.5001,-379.9457 59.5001,-379.9456"/>
</g>
<!-- 3088&#45;&gt;left -->
<g id="edge45" class="edge">
<title>3088&#45;&gt;left</title>
<path fill="none" stroke="#00ff00" stroke-width=".4499" d="M434.3334,-210.6163C441.4234,-203.351 449.4859,-195.2249 457,-187.9655 472.0698,-173.4065 489.4106,-157.5176 503.1824,-145.0944"/>
<polygon fill="#00ff00" stroke="#00ff00" stroke-width=".4499" points="505.7369,-147.5045 510.8345,-138.2165 501.0575,-142.2983 505.7369,-147.5045"/>
</g>
<!-- 3046&#45;&gt;backward -->
<g id="edge24" class="edge">
<title>3046&#45;&gt;backward</title>
<path fill="none" stroke="#00ff00" stroke-width=".4624" d="M63.4682,-312.6112C65.7842,-303.9198 68.4159,-294.0434 71.0249,-284.2522"/>
<polygon fill="#00ff00" stroke="#00ff00" stroke-width=".4624" points="74.421,-285.1004 73.6139,-274.5363 67.657,-283.298 74.421,-285.1004"/>
</g>
<!-- 2300&#45;&gt;1194 -->
<g id="edge23" class="edge">
<title>2300&#45;&gt;1194</title>
<path fill="none" stroke="#ff0000" stroke-width=".1752" d="M794,-93.7526C794,-85.7078 794,-76.8481 794,-68.3329"/>
<polygon fill="#ff0000" stroke="#ff0000" stroke-width=".1752" points="797.5001,-68.1948 794,-58.1949 790.5001,-68.1949 797.5001,-68.1948"/>
</g>
<!-- 2205&#45;&gt;444 -->
<g id="edge34" class="edge">
<title>2205&#45;&gt;444</title>
<path fill="none" stroke="#00ff00" stroke-width=".2892" d="M616.7684,-427.9867C585.9426,-409.515 533.8512,-378.3003 501.0029,-358.6167"/>
<polygon fill="#00ff00" stroke="#00ff00" stroke-width=".2892" points="502.6588,-355.5287 492.2819,-353.3909 499.0607,-361.5332 502.6588,-355.5287"/>
</g>
<!-- 2205&#45;&gt;1747 -->
<g id="edge21" class="edge">
<title>2205&#45;&gt;1747</title>
<path fill="none" stroke="#ff0000" stroke-width=".4325" d="M667.6242,-429.2869C701.1474,-411.2077 760.0124,-379.4615 797.4509,-359.2707"/>
<polygon fill="#ff0000" stroke="#ff0000" stroke-width=".4325" points="799.3388,-362.2291 806.479,-354.4017 796.016,-356.068 799.3388,-362.2291"/>
</g>
</g>
</svg>
