<?xml version="1.0" encoding="UTF-8" standalone="no"?>
<!DOCTYPE svg PUBLIC "-//W3C//DTD SVG 1.1//EN"
 "http://www.w3.org/Graphics/SVG/1.1/DTD/svg11.dtd">
<!-- Generated by graphviz version 2.40.1 (20161225.0304)
 -->
<!-- Title: %3 Pages: 1 -->
<svg width="397pt" height="470pt"
 viewBox="0.00 0.00 396.59 470.20" xmlns="http://www.w3.org/2000/svg" xmlns:xlink="http://www.w3.org/1999/xlink">
<g id="graph0" class="graph" transform="scale(1 1) rotate(0) translate(4 466.1981)">
<title>%3</title>
<polygon fill="#ffffff" stroke="transparent" points="-4,4 -4,-466.1981 392.5894,-466.1981 392.5894,4 -4,4"/>
<!-- center_dist -->
<g id="node1" class="node">
<title>center_dist</title>
<polygon fill="#d3d3d3" stroke="#000000" points="111.7487,-427.3574 43.7487,-427.3574 43.7487,-409.3574 111.7487,-409.3574 111.7487,-427.3574"/>
<text text-anchor="middle" x="77.7487" y="-416.1574" font-family="Times,serif" font-size="9.00" fill="#000000">center_dist</text>
</g>
<!-- 325 -->
<g id="node7" class="node">
<title>325</title>
<ellipse fill="#ffffff" stroke="#000000" cx="130.7487" cy="-313.7681" rx="25" ry="25"/>
<text text-anchor="middle" x="130.7487" y="-311.5681" font-family="Times,serif" font-size="9.00" fill="#000000">325</text>
</g>
<!-- center_dist&#45;&gt;325 -->
<g id="edge12" class="edge">
<title>center_dist&#45;&gt;325</title>
<path fill="none" stroke="#ff0000" stroke-width=".2283" d="M82.4521,-409.0758C89.6787,-394.815 103.8439,-366.8616 114.9733,-344.8991"/>
<polygon fill="#ff0000" stroke="#ff0000" stroke-width=".2283" points="118.1298,-346.413 119.528,-335.9108 111.8858,-343.2488 118.1298,-346.413"/>
</g>
<!-- 299 -->
<g id="node9" class="node">
<title>299</title>
<ellipse fill="#ffffff" stroke="#000000" cx="130.7487" cy="-224.7351" rx="25" ry="25"/>
<text text-anchor="middle" x="130.7487" y="-222.5351" font-family="Times,serif" font-size="9.00" fill="#000000">299</text>
</g>
<!-- center_dist&#45;&gt;299 -->
<g id="edge9" class="edge">
<title>center_dist&#45;&gt;299</title>
<path fill="none" stroke="#00ff00" stroke-width=".6131" stroke-dasharray="1,5" d="M78.0255,-409.3369C78.9052,-387.9299 82.4938,-332.5918 96.7487,-289.0193 100.6048,-277.2327 106.5074,-265.0268 112.3182,-254.4588"/>
<polygon fill="#00ff00" stroke="#00ff00" stroke-width=".6131" points="115.4313,-256.0652 117.3474,-245.6451 109.3514,-252.596 115.4313,-256.0652"/>
</g>
<!-- 399 -->
<g id="node10" class="node">
<title>399</title>
<ellipse fill="#ffffff" stroke="#000000" cx="24.7487" cy="-313.7681" rx="25" ry="25"/>
<text text-anchor="middle" x="24.7487" y="-311.5681" font-family="Times,serif" font-size="9.00" fill="#000000">399</text>
</g>
<!-- center_dist&#45;&gt;399 -->
<g id="edge2" class="edge">
<title>center_dist&#45;&gt;399</title>
<path fill="none" stroke="#ff0000" stroke-width=".3905" d="M73.0453,-409.0758C65.8188,-394.815 51.6536,-366.8616 40.5242,-344.8991"/>
<polygon fill="#ff0000" stroke="#ff0000" stroke-width=".3905" points="43.6117,-343.2488 35.9694,-335.9108 37.3677,-346.413 43.6117,-343.2488"/>
</g>
<!-- center_dir -->
<g id="node2" class="node">
<title>center_dir</title>
<polygon fill="#d3d3d3" stroke="#000000" points="283.2487,-427.3574 218.2487,-427.3574 218.2487,-409.3574 283.2487,-409.3574 283.2487,-427.3574"/>
<text text-anchor="middle" x="250.7487" y="-416.1574" font-family="Times,serif" font-size="9.00" fill="#000000">center_dir</text>
</g>
<!-- right -->
<g id="node6" class="node">
<title>right</title>
<ellipse fill="#add8e6" stroke="#000000" cx="283.7487" cy="-224.7351" rx="28.0702" ry="28.0702"/>
<text text-anchor="middle" x="283.7487" y="-222.5351" font-family="Times,serif" font-size="9.00" fill="#000000">right</text>
</g>
<!-- center_dir&#45;&gt;right -->
<g id="edge4" class="edge">
<title>center_dir&#45;&gt;right</title>
<path fill="none" stroke="#ff0000" stroke-width=".897" d="M252.4114,-409.02C255.059,-394.1191 260.3802,-364.0394 264.7487,-338.5168 269.0657,-313.2956 273.8062,-284.9081 277.4723,-262.797"/>
<polygon fill="#ff0000" stroke="#ff0000" stroke-width=".897" points="280.9467,-263.2389 279.1272,-252.8014 274.0407,-262.0954 280.9467,-263.2389"/>
</g>
<!-- 499 -->
<g id="node11" class="node">
<title>499</title>
<ellipse fill="#ffffff" stroke="#000000" cx="197.7487" cy="-313.7681" rx="25" ry="25"/>
<text text-anchor="middle" x="197.7487" y="-311.5681" font-family="Times,serif" font-size="9.00" fill="#000000">499</text>
</g>
<!-- center_dir&#45;&gt;499 -->
<g id="edge13" class="edge">
<title>center_dir&#45;&gt;499</title>
<path fill="none" stroke="#00ff00" stroke-width=".2432" d="M246.0453,-409.0758C238.8188,-394.815 224.6536,-366.8616 213.5242,-344.8991"/>
<polygon fill="#00ff00" stroke="#00ff00" stroke-width=".2432" points="216.6117,-343.2488 208.9694,-335.9108 210.3677,-346.413 216.6117,-343.2488"/>
</g>
<!-- 349 -->
<g id="node12" class="node">
<title>349</title>
<ellipse fill="#ffffff" stroke="#000000" cx="207.7487" cy="-224.7351" rx="25" ry="25"/>
<text text-anchor="middle" x="207.7487" y="-222.5351" font-family="Times,serif" font-size="9.00" fill="#000000">349</text>
</g>
<!-- center_dir&#45;&gt;349 -->
<g id="edge7" class="edge">
<title>center_dir&#45;&gt;349</title>
<path fill="none" stroke="#ff0000" stroke-width=".2376" d="M250.0671,-409.1308C248.3413,-387.7368 243.105,-333.2012 231.7487,-289.0193 229.0352,-278.4622 225.1954,-267.2394 221.3811,-257.1755"/>
<polygon fill="#ff0000" stroke="#ff0000" stroke-width=".2376" points="224.5233,-255.6008 217.618,-247.5655 218.0052,-258.1532 224.5233,-255.6008"/>
</g>
<!-- forward -->
<g id="node3" class="node">
<title>forward</title>
<ellipse fill="#add8e6" stroke="#000000" cx="208.7487" cy="-37.4767" rx="37.4533" ry="37.4533"/>
<text text-anchor="middle" x="208.7487" y="-35.2767" font-family="Times,serif" font-size="9.00" fill="#000000">forward</text>
</g>
<!-- backward -->
<g id="node4" class="node">
<title>backward</title>
<ellipse fill="#add8e6" stroke="#000000" cx="344.7487" cy="-418.3574" rx="43.6818" ry="43.6818"/>
<text text-anchor="middle" x="344.7487" y="-416.1574" font-family="Times,serif" font-size="9.00" fill="#000000">backward</text>
</g>
<!-- left -->
<g id="node5" class="node">
<title>left</title>
<ellipse fill="#add8e6" stroke="#000000" cx="130.7487" cy="-37.4767" rx="22.7556" ry="22.7556"/>
<text text-anchor="middle" x="130.7487" y="-35.2767" font-family="Times,serif" font-size="9.00" fill="#000000">left</text>
</g>
<!-- 513 -->
<g id="node8" class="node">
<title>513</title>
<ellipse fill="#ffffff" stroke="#000000" cx="195.7487" cy="-135.7021" rx="25" ry="25"/>
<text text-anchor="middle" x="195.7487" y="-133.5021" font-family="Times,serif" font-size="9.00" fill="#000000">513</text>
</g>
<!-- right&#45;&gt;513 -->
<g id="edge6" class="edge">
<title>right&#45;&gt;513</title>
<path fill="none" stroke="#00ff00" stroke-width=".5464" d="M263.7802,-204.5321C250.9441,-191.5454 234.172,-174.5763 220.493,-160.7367"/>
<polygon fill="#00ff00" stroke="#00ff00" stroke-width=".5464" points="222.7754,-158.067 213.2564,-153.4152 217.7968,-162.9879 222.7754,-158.067"/>
</g>
<!-- 325&#45;&gt;299 -->
<g id="edge3" class="edge">
<title>325&#45;&gt;299</title>
<path fill="none" stroke="#00ff00" stroke-width=".5692" stroke-dasharray="1,5" d="M130.7487,-288.9674C130.7487,-279.9743 130.7487,-269.636 130.7487,-259.9188"/>
<polygon fill="#00ff00" stroke="#00ff00" stroke-width=".5692" points="134.2488,-259.7115 130.7487,-249.7115 127.2488,-259.7115 134.2488,-259.7115"/>
</g>
<!-- 325&#45;&gt;349 -->
<g id="edge8" class="edge">
<title>325&#45;&gt;349</title>
<path fill="none" stroke="#00ff00" stroke-width=".4572" d="M147.0785,-294.8865C158.0018,-282.2561 172.5371,-265.4494 184.6419,-251.4529"/>
<polygon fill="#00ff00" stroke="#00ff00" stroke-width=".4572" points="187.5484,-253.4427 191.4426,-243.5895 182.2538,-248.8637 187.5484,-253.4427"/>
</g>
<!-- 513&#45;&gt;forward -->
<g id="edge14" class="edge">
<title>513&#45;&gt;forward</title>
<path fill="none" stroke="#00ff00" stroke-width=".1529" d="M199.0292,-110.9156C200.0785,-102.9874 201.2775,-93.9278 202.4668,-84.9417"/>
<polygon fill="#00ff00" stroke="#00ff00" stroke-width=".1529" points="205.9545,-85.2645 203.7969,-74.8917 199.015,-84.346 205.9545,-85.2645"/>
</g>
<!-- 513&#45;&gt;left -->
<g id="edge1" class="edge">
<title>513&#45;&gt;left</title>
<path fill="none" stroke="#00ff00" stroke-width=".333" d="M181.9639,-114.871C172.3423,-100.3312 159.401,-80.7748 148.9347,-64.9586"/>
<polygon fill="#00ff00" stroke="#00ff00" stroke-width=".333" points="151.8489,-63.0201 143.4115,-56.6122 146.0113,-66.8831 151.8489,-63.0201"/>
</g>
<!-- 299&#45;&gt;left -->
<g id="edge5" class="edge">
<title>299&#45;&gt;left</title>
<path fill="none" stroke="#00ff00" stroke-width=".3207" d="M130.7487,-199.8686C130.7487,-166.6368 130.7487,-107.6481 130.7487,-70.6541"/>
<polygon fill="#00ff00" stroke="#00ff00" stroke-width=".3207" points="134.2488,-70.3877 130.7487,-60.3877 127.2488,-70.3877 134.2488,-70.3877"/>
</g>
<!-- 299&#45;&gt;513 -->
<g id="edge11" class="edge">
<title>299&#45;&gt;513</title>
<path fill="none" stroke="#00ff00" stroke-width=".5039" d="M145.4982,-204.5321C154.2244,-192.5795 165.4134,-177.2536 175.0172,-164.0988"/>
<polygon fill="#00ff00" stroke="#00ff00" stroke-width=".5039" points="177.9879,-165.9655 181.0576,-155.8251 172.3343,-161.8379 177.9879,-165.9655"/>
</g>
<!-- 399&#45;&gt;299 -->
<g id="edge10" class="edge">
<title>399&#45;&gt;299</title>
<path fill="none" stroke="#ff0000" stroke-width=".3355" d="M44.1908,-297.438C60.9553,-283.357 85.3295,-262.8842 103.9443,-247.249"/>
<polygon fill="#ff0000" stroke="#ff0000" stroke-width=".3355" points="106.3804,-249.7737 111.7866,-240.662 101.8782,-244.4136 106.3804,-249.7737"/>
</g>
<!-- 499&#45;&gt;299 -->
<g id="edge15" class="edge">
<title>499&#45;&gt;299</title>
<path fill="none" stroke="#ff0000" stroke-width=".7613" stroke-dasharray="1,5" d="M182.5454,-293.5651C173.4874,-281.5283 161.8549,-266.0705 151.9092,-252.8542"/>
<polygon fill="#ff0000" stroke="#ff0000" stroke-width=".7613" points="154.4707,-250.4372 145.6611,-244.5514 148.8775,-254.6462 154.4707,-250.4372"/>
</g>
</g>
</svg>
