<?xml version="1.0" encoding="UTF-8" standalone="no"?>
<!DOCTYPE svg PUBLIC "-//W3C//DTD SVG 1.1//EN"
 "http://www.w3.org/Graphics/SVG/1.1/DTD/svg11.dtd">
<!-- Generated by graphviz version 2.40.1 (20161225.0304)
 -->
<!-- Title: %3 Pages: 1 -->
<svg width="313pt" height="207pt"
 viewBox="0.00 0.00 313.32 206.63" xmlns="http://www.w3.org/2000/svg" xmlns:xlink="http://www.w3.org/1999/xlink">
<g id="graph0" class="graph" transform="scale(1 1) rotate(0) translate(4 202.6346)">
<title>%3</title>
<polygon fill="#ffffff" stroke="transparent" points="-4,4 -4,-202.6346 309.3173,-202.6346 309.3173,4 -4,4"/>
<!-- center_dist -->
<g id="node1" class="node">
<title>center_dist</title>
<polygon fill="#d3d3d3" stroke="#000000" points="111.8406,-170.1579 43.8406,-170.1579 43.8406,-152.1579 111.8406,-152.1579 111.8406,-170.1579"/>
<text text-anchor="middle" x="77.8406" y="-158.9579" font-family="Times,serif" font-size="9.00" fill="#000000">center_dist</text>
</g>
<!-- backward -->
<g id="node4" class="node">
<title>backward</title>
<ellipse fill="#add8e6" stroke="#000000" cx="43.8406" cy="-43.8406" rx="43.6818" ry="43.6818"/>
<text text-anchor="middle" x="43.8406" y="-41.6406" font-family="Times,serif" font-size="9.00" fill="#000000">backward</text>
</g>
<!-- center_dist&#45;&gt;backward -->
<g id="edge2" class="edge">
<title>center_dist&#45;&gt;backward</title>
<path fill="none" stroke="#ff0000" stroke-width=".3115" d="M75.1727,-151.9522C71.6295,-139.7263 65.096,-117.1826 58.9085,-95.8324"/>
<polygon fill="#ff0000" stroke="#ff0000" stroke-width=".3115" points="62.2472,-94.7787 56.1019,-86.1482 55.5239,-96.7273 62.2472,-94.7787"/>
</g>
<!-- left -->
<g id="node5" class="node">
<title>left</title>
<ellipse fill="#add8e6" stroke="#000000" cx="127.8406" cy="-43.8406" rx="22.7556" ry="22.7556"/>
<text text-anchor="middle" x="127.8406" y="-41.6406" font-family="Times,serif" font-size="9.00" fill="#000000">left</text>
</g>
<!-- center_dist&#45;&gt;left -->
<g id="edge3" class="edge">
<title>center_dist&#45;&gt;left</title>
<path fill="none" stroke="#ff0000" stroke-width=".4267" d="M81.764,-151.9522C88.8272,-135.3797 103.9703,-99.8485 114.9738,-74.0306"/>
<polygon fill="#ff0000" stroke="#ff0000" stroke-width=".4267" points="118.2618,-75.2426 118.9628,-64.671 111.8223,-72.4981 118.2618,-75.2426"/>
</g>
<!-- center_dir -->
<g id="node2" class="node">
<title>center_dir</title>
<polygon fill="#d3d3d3" stroke="#000000" points="212.3406,-170.1579 147.3406,-170.1579 147.3406,-152.1579 212.3406,-152.1579 212.3406,-170.1579"/>
<text text-anchor="middle" x="179.8406" y="-158.9579" font-family="Times,serif" font-size="9.00" fill="#000000">center_dir</text>
</g>
<!-- center_dir&#45;&gt;left -->
<g id="edge4" class="edge">
<title>center_dir&#45;&gt;left</title>
<path fill="none" stroke="#ff0000" stroke-width=".321" d="M175.7603,-151.9522C168.4146,-135.3797 152.6657,-99.8485 141.2221,-74.0306"/>
<polygon fill="#ff0000" stroke="#ff0000" stroke-width=".321" points="144.3256,-72.3949 137.0735,-64.671 137.926,-75.2315 144.3256,-72.3949"/>
</g>
<!-- right -->
<g id="node6" class="node">
<title>right</title>
<ellipse fill="#add8e6" stroke="#000000" cx="196.8406" cy="-43.8406" rx="28.0702" ry="28.0702"/>
<text text-anchor="middle" x="196.8406" y="-41.6406" font-family="Times,serif" font-size="9.00" fill="#000000">right</text>
</g>
<!-- center_dir&#45;&gt;right -->
<g id="edge1" class="edge">
<title>center_dir&#45;&gt;right</title>
<path fill="none" stroke="#ff0000" stroke-width=".4499" d="M181.1746,-151.9522C183.3251,-137.1112 187.6789,-107.0661 191.2519,-82.4083"/>
<polygon fill="#ff0000" stroke="#ff0000" stroke-width=".4499" points="194.7564,-82.6291 192.7267,-72.2305 187.8288,-81.6252 194.7564,-82.6291"/>
</g>
<!-- forward -->
<g id="node3" class="node">
<title>forward</title>
<ellipse fill="#add8e6" stroke="#000000" cx="267.8406" cy="-161.1579" rx="37.4533" ry="37.4533"/>
<text text-anchor="middle" x="267.8406" y="-158.9579" font-family="Times,serif" font-size="9.00" fill="#000000">forward</text>
</g>
</g>
</svg>
